<?xml version="1.0" encoding="UTF-8"?>
<svg xmlns="http://www.w3.org/2000/svg" xmlns:xlink="http://www.w3.org/1999/xlink" width="1920pt" height="1837pt" viewBox="0 0 1920 1837" version="1.1">
<g id="surface1">
<path style=" stroke:none;fill-rule:nonzero;fill:rgb(0%,0%,0%);fill-opacity:1;" d="M 1686.109375 2.875 C 1654.882812 10.3125 1620.382812 32.621094 1593.023438 63.257812 C 1560.011719 100.734375 1550.792969 131.371094 1552.875 196.808594 C 1554.0625 227.445312 1554.957031 231.308594 1565.664062 254.808594 C 1580.234375 287.230469 1589.453125 299.722656 1613.542969 321.136719 C 1684.917969 383.898438 1797.632812 382.707031 1862.167969 318.757812 C 1878.523438 302.398438 1884.769531 293.179688 1899.640625 262.839844 C 1917.1875 226.847656 1917.484375 226.253906 1918.972656 193.535156 C 1920.753906 163.792969 1920.160156 158.140625 1913.320312 136.128906 C 1904.101562 105.789062 1888.933594 79.914062 1867.820312 57.308594 C 1849.082031 37.675781 1837.78125 29.941406 1803.878906 12.988281 C 1780.679688 1.683594 1779.492188 1.386719 1741.425781 0.199219 C 1715.847656 -0.398438 1696.816406 0.496094 1686.109375 2.875 Z M 1686.109375 2.875 "/>
<path style=" stroke:none;fill-rule:nonzero;fill:rgb(0%,0%,0%);fill-opacity:1;" d="M 906.925781 103.410156 C 857.558594 107.277344 798.078125 117.390625 767.148438 126.609375 C 756.441406 129.882812 734.4375 135.832031 718.078125 140.292969 C 701.722656 144.753906 681.796875 150.703125 673.46875 153.679688 C 651.757812 161.410156 558.972656 206.621094 548.5625 214.355469 C 543.804688 217.925781 531.609375 225.660156 521.796875 231.011719 C 480.160156 254.511719 403.730469 317.867188 360.308594 364.863281 C 331.757812 395.796875 281.796875 461.828125 271.386719 482.054688 C 267.222656 490.382812 260.085938 501.683594 255.328125 507.632812 C 250.867188 513.285156 240.160156 533.511719 231.535156 552.25 C 223.210938 570.988281 214.289062 588.539062 212.207031 591.214844 C 209.828125 593.59375 208.042969 596.867188 208.042969 598.054688 C 208.042969 599.542969 206.257812 604.601562 203.878906 609.65625 C 194.0625 632.261719 186.925781 654.273438 178.300781 687.585938 C 173.246094 707.21875 167.296875 728.632812 165.214844 735.175781 C 154.210938 767.003906 145.289062 839.28125 143.507812 910.667969 C 142.613281 953.5 143.507812 972.832031 148.265625 1007.335938 C 155.402344 1059.984375 162.539062 1098.054688 166.109375 1104.898438 C 167.597656 1107.574219 172.355469 1123.933594 176.816406 1141.183594 C 187.222656 1182.527344 197.335938 1211.679688 211.90625 1242.316406 C 244.324219 1311.617188 249.976562 1322.625 256.519531 1330.359375 C 260.382812 1335.117188 267.820312 1347.015625 273.171875 1356.828125 C 286.257812 1380.328125 326.703125 1433.570312 357.335938 1467.777344 C 402.242188 1517.449219 462.910156 1568.90625 513.765625 1599.839844 C 526.257812 1607.574219 544.695312 1619.171875 554.511719 1625.71875 C 564.324219 1632.558594 580.679688 1641.183594 590.792969 1645.347656 C 600.90625 1649.214844 619.640625 1657.839844 632.429688 1664.382812 C 657.707031 1677.472656 705.289062 1693.832031 740.382812 1701.566406 C 752.578125 1704.539062 767.148438 1708.703125 772.800781 1711.082031 C 778.152344 1713.460938 788.859375 1716.140625 796.59375 1717.03125 C 804.027344 1717.925781 814.4375 1720.007812 819.195312 1721.492188 C 831.386719 1725.0625 905.441406 1732.796875 939.640625 1734.285156 C 994.363281 1736.664062 1113.617188 1722.980469 1144.84375 1710.785156 C 1150.496094 1708.703125 1165.367188 1704.539062 1177.558594 1701.863281 C 1213.246094 1694.128906 1278.078125 1671.226562 1287.597656 1663.195312 C 1289.976562 1661.113281 1305.441406 1653.972656 1321.796875 1646.835938 C 1338.152344 1639.996094 1358.078125 1629.585938 1366.40625 1623.636719 C 1374.4375 1617.984375 1388.710938 1609.058594 1398.226562 1604.003906 C 1438.972656 1581.695312 1522.242188 1511.203125 1566.554688 1460.933594 C 1598.675781 1424.347656 1636.742188 1373.488281 1647.445312 1352.367188 C 1652.207031 1342.851562 1657.558594 1334.222656 1659.34375 1333.035156 C 1663.210938 1330.65625 1681.945312 1298.828125 1684.621094 1289.609375 C 1685.8125 1285.742188 1694.734375 1266.109375 1704.25 1246.179688 C 1720.90625 1211.082031 1729.527344 1186.691406 1744.101562 1133.152344 C 1769.675781 1038.269531 1773.839844 1005.847656 1773.246094 915.128906 C 1772.652344 824.707031 1768.191406 793.179688 1741.425781 692.046875 C 1729.828125 648.621094 1723.582031 631.371094 1706.628906 595.378906 C 1700.382812 582.292969 1689.976562 559.6875 1683.136719 545.113281 C 1676.59375 530.535156 1667.371094 513.582031 1662.910156 507.929688 C 1655.773438 498.414062 1651.015625 490.679688 1640.308594 470.453125 C 1626.035156 443.683594 1554.363281 358.914062 1514.210938 321.433594 C 1485.066406 294.664062 1421.722656 245.585938 1399.121094 232.796875 C 1391.089844 228.039062 1375.03125 218.222656 1364.027344 210.785156 C 1352.726562 203.648438 1337.558594 195.023438 1329.828125 192.34375 C 1322.09375 189.371094 1303.953125 180.746094 1289.082031 173.605469 C 1262.910156 160.222656 1221.871094 145.050781 1195.402344 138.804688 C 1187.96875 137.023438 1174.585938 133.75 1165.664062 131.371094 C 1156.742188 129.289062 1145.441406 126.015625 1140.382812 124.230469 C 1095.476562 108.765625 974.734375 97.757812 906.925781 103.410156 Z M 1005.066406 367.835938 C 1013.988281 369.027344 1032.726562 371.703125 1046.40625 373.488281 C 1060.085938 375.570312 1076.144531 379.140625 1081.796875 381.519531 C 1087.445312 383.601562 1094.882812 385.683594 1098.449219 385.683594 C 1107.671875 385.683594 1180.828125 409.476562 1189.453125 415.425781 C 1193.617188 418.402344 1212.058594 428.8125 1230.792969 439.222656 C 1322.390625 489.488281 1406.851562 578.128906 1452.652344 672.714844 C 1455.921875 679.257812 1460.085938 686.695312 1461.871094 689.074219 C 1470.199219 699.78125 1494.289062 782.46875 1505.289062 837.792969 C 1510.050781 861.589844 1510.050781 970.75 1505.289062 998.414062 C 1500.234375 1028.453125 1491.015625 1065.335938 1479.714844 1099.542969 C 1466.925781 1138.804688 1427.074219 1214.949219 1404.472656 1243.207031 C 1394.957031 1255.105469 1383.953125 1269.382812 1380.085938 1275.035156 C 1370.867188 1288.121094 1310.199219 1344.636719 1284.324219 1363.96875 C 1250.71875 1388.953125 1176.667969 1427.917969 1139.195312 1439.816406 C 1120.753906 1445.765625 1102.613281 1450.523438 1098.75 1450.523438 C 1095.179688 1450.523438 1087.445312 1452.308594 1081.796875 1454.6875 C 1071.089844 1459.148438 1048.785156 1463.3125 1003.582031 1468.667969 C 964.027344 1473.425781 897.410156 1469.558594 853.394531 1459.449219 C 797.1875 1446.953125 743.65625 1429.109375 720.160156 1415.128906 C 711.535156 1410.070312 703.804688 1405.90625 702.910156 1405.90625 C 702.316406 1405.90625 690.421875 1399.660156 677.039062 1392.226562 C 624.992188 1362.777344 557.78125 1301.804688 514.957031 1245.882812 C 494.136719 1218.222656 456.070312 1150.109375 444.472656 1119.472656 C 434.957031 1094.1875 417.410156 1027.859375 412.949219 999.898438 C 402.242188 935.355469 405.8125 855.640625 422.167969 794.664062 C 443.285156 715.25 451.015625 695.914062 489.675781 628.097656 C 516.144531 581.398438 576.816406 515.367188 630.941406 474.914062 C 708.265625 416.914062 814.734375 376.460938 915.847656 366.945312 C 936.367188 364.863281 989.007812 365.457031 1005.066406 367.835938 Z M 1005.066406 367.835938 "/>
<path style=" stroke:none;fill-rule:nonzero;fill:rgb(0%,0%,0%);fill-opacity:1;" d="M 151.535156 1471.34375 C 147.371094 1472.535156 140.234375 1473.722656 135.773438 1474.023438 C 125.664062 1474.320312 74.511719 1499.304688 65.589844 1507.929688 C 43.878906 1529.941406 26.332031 1550.761719 22.167969 1560.28125 C 19.195312 1566.230469 14.4375 1576.640625 11.460938 1583.183594 C -0.136719 1607.871094 -3.40625 1655.164062 4.027344 1692.9375 C 7.894531 1713.761719 17.113281 1735.769531 28.710938 1752.425781 C 31.980469 1757.484375 37.039062 1764.921875 39.714844 1769.382812 C 45.664062 1779.496094 85.8125 1811.617188 103.953125 1820.839844 C 147.96875 1843.148438 220.234375 1843.148438 263.058594 1820.839844 C 297.855469 1802.695312 307.074219 1796.152344 322.539062 1777.113281 C 351.089844 1742.613281 365.664062 1707.214844 367.746094 1666.167969 C 369.828125 1632.261719 363.285156 1600.730469 347.820312 1570.988281 C 332.949219 1541.839844 331.460938 1540.054688 307.074219 1518.339844 C 285.066406 1498.414062 257.410156 1483.242188 227.371094 1474.023438 C 208.636719 1468.074219 165.8125 1466.585938 151.535156 1471.34375 Z M 151.535156 1471.34375 "/>
</g>
</svg>
