<?xml version="1.0" encoding="UTF-8"?>
<svg xmlns="http://www.w3.org/2000/svg" xmlns:xlink="http://www.w3.org/1999/xlink" width="1920pt" height="1440pt" viewBox="0 0 1920 1440" version="1.1">
<g id="surface1">
<path style=" stroke:none;fill-rule:evenodd;fill:rgb(0%,0%,0%);fill-opacity:1;" d="M -2.398438 -2.398438 C 637.597656 -2.398438 1277.601562 -2.398438 1917.601562 -2.398438 C 1917.601562 477.601562 1917.601562 957.601562 1917.601562 1437.601562 C 1277.601562 1437.601562 637.597656 1437.601562 -2.398438 1437.601562 C -2.398438 957.601562 -2.398438 477.601562 -2.398438 -2.398438 Z M -2.398438 -2.398438 "/>
<path style=" stroke:none;fill-rule:evenodd;fill:rgb(24.313725%,24.313725%,24.313725%);fill-opacity:1;" d="M 1212 266.398438 C 1157.566406 262.402344 1125.566406 287.203125 1116 340.800781 C 1118.535156 354.628906 1121.730469 368.230469 1125.601562 381.601562 C 1092.359375 330.082031 1103.5625 290.882812 1159.199219 264 C 1177.71875 260.113281 1195.316406 260.914062 1212 266.398438 Z M 1212 266.398438 "/>
<path style=" stroke:none;fill-rule:evenodd;fill:rgb(51.372549%,51.372549%,51.372549%);fill-opacity:1;" d="M 1212 266.398438 C 1217.808594 268.472656 1222.609375 271.671875 1226.398438 276 C 1176.378906 270.121094 1145.179688 290.921875 1132.800781 338.398438 C 1132 345.601562 1131.203125 352.800781 1130.398438 360 C 1130.730469 369.53125 1133.929688 376.730469 1140 381.601562 C 1142.761719 390.773438 1147.558594 398.773438 1154.398438 405.601562 C 1141.972656 401.1875 1132.371094 393.1875 1125.601562 381.601562 C 1121.730469 368.230469 1118.535156 354.628906 1116 340.800781 C 1125.566406 287.203125 1157.566406 262.402344 1212 266.398438 Z M 1212 266.398438 "/>
<path style=" stroke:none;fill-rule:evenodd;fill:rgb(98.039216%,98.039216%,98.039216%);fill-opacity:1;" d="M 1245.601562 290.398438 C 1247.199219 290.398438 1248.800781 290.398438 1250.398438 290.398438 C 1250.671875 295.722656 1252.273438 300.523438 1255.199219 304.800781 C 1258.378906 333.902344 1252.78125 361.101562 1238.398438 386.398438 C 1219.796875 407.253906 1196.597656 415.253906 1168.800781 410.398438 C 1164.523438 407.472656 1159.722656 405.875 1154.398438 405.601562 C 1147.558594 398.773438 1142.761719 390.773438 1140 381.601562 C 1133.117188 344.996094 1144.316406 315.394531 1173.601562 292.800781 C 1197.414062 284.335938 1221.414062 283.535156 1245.601562 290.398438 Z M 1245.601562 290.398438 "/>
<path style=" stroke:none;fill-rule:evenodd;fill:rgb(72.54902%,72.54902%,72.54902%);fill-opacity:1;" d="M 1226.398438 276 C 1234.703125 278.523438 1241.105469 283.324219 1245.601562 290.398438 C 1221.414062 283.535156 1197.414062 284.335938 1173.601562 292.800781 C 1144.316406 315.394531 1133.117188 344.996094 1140 381.601562 C 1133.929688 376.730469 1130.730469 369.53125 1130.398438 360 C 1131.203125 352.800781 1132 345.601562 1132.800781 338.398438 C 1145.179688 290.921875 1176.378906 270.121094 1226.398438 276 Z M 1226.398438 276 "/>
<path style=" stroke:none;fill-rule:evenodd;fill:rgb(38.823529%,38.823529%,38.431373%);fill-opacity:1;" d="M 1264.800781 300 C 1280.417969 310.453125 1290.019531 324.851562 1293.601562 343.199219 C 1294.992188 374.832031 1283.789062 401.230469 1260 422.398438 C 1232.839844 429.613281 1205.640625 430.414062 1178.398438 424.800781 C 1175.199219 424.800781 1173.601562 423.199219 1173.601562 420 C 1205.664062 424.019531 1235.265625 417.617188 1262.398438 400.800781 C 1283.742188 367.3125 1284.542969 333.714844 1264.800781 300 Z M 1264.800781 300 "/>
<path style=" stroke:none;fill-rule:evenodd;fill:rgb(60.392157%,60.392157%,60.392157%);fill-opacity:1;" d="M 1250.398438 290.398438 C 1255.199219 293.601562 1260 296.800781 1264.800781 300 C 1284.542969 333.714844 1283.742188 367.3125 1262.398438 400.800781 C 1235.265625 417.617188 1205.664062 424.019531 1173.601562 420 C 1164.460938 418.859375 1158.058594 414.058594 1154.398438 405.601562 C 1159.722656 405.875 1164.523438 407.472656 1168.800781 410.398438 C 1242.847656 425.878906 1275.652344 395.480469 1267.199219 319.199219 C 1263.109375 314.0625 1259.113281 309.261719 1255.199219 304.800781 C 1252.273438 300.523438 1250.671875 295.722656 1250.398438 290.398438 Z M 1250.398438 290.398438 "/>
<path style=" stroke:none;fill-rule:evenodd;fill:rgb(60.784314%,60.784314%,60.784314%);fill-opacity:1;" d="M 900 415.199219 C 937.550781 409.652344 975.949219 408.851562 1015.199219 412.800781 C 1021.136719 413.914062 1025.9375 416.3125 1029.601562 420 C 986.535156 415.933594 943.335938 414.332031 900 415.199219 Z M 900 415.199219 "/>
<path style=" stroke:none;fill-rule:evenodd;fill:rgb(82.352941%,82.352941%,82.352941%);fill-opacity:1;" d="M 1255.199219 304.800781 C 1259.113281 309.261719 1263.109375 314.0625 1267.199219 319.199219 C 1275.652344 395.480469 1242.847656 425.878906 1168.800781 410.398438 C 1196.597656 415.253906 1219.796875 407.253906 1238.398438 386.398438 C 1252.78125 361.101562 1258.378906 333.902344 1255.199219 304.800781 Z M 1255.199219 304.800781 "/>
<path style=" stroke:none;fill-rule:evenodd;fill:rgb(98.039216%,98.039216%,98.039216%);fill-opacity:1;" d="M 900 415.199219 C 943.335938 414.332031 986.535156 415.933594 1029.601562 420 C 1140.269531 449.066406 1213.871094 517.867188 1250.398438 626.398438 C 1248.820312 639.496094 1252.019531 650.699219 1260 660 C 1277.660156 810.921875 1220.058594 923.722656 1087.199219 998.398438 C 1067.539062 1002.644531 1048.339844 1008.238281 1029.601562 1015.199219 C 1015.222656 1014.210938 1002.421875 1017.40625 991.199219 1024.800781 C 963.78125 1025.699219 936.582031 1024.097656 909.601562 1020 C 896.546875 1013.21875 882.148438 1010.015625 866.398438 1010.398438 C 730.335938 960.867188 658.335938 863.269531 650.398438 717.601562 C 651.546875 698.324219 653.144531 679.125 655.199219 660 C 663.183594 650.699219 666.378906 639.496094 664.800781 626.398438 C 698.398438 525.601562 765.601562 458.398438 866.398438 424.800781 C 879.496094 426.382812 890.699219 423.179688 900 415.199219 Z M 900 415.199219 "/>
<path style=" stroke:none;fill-rule:evenodd;fill:rgb(63.137255%,63.137255%,63.137255%);fill-opacity:1;" d="M 900 415.199219 C 890.699219 423.179688 879.496094 426.382812 866.398438 424.800781 C 876.070312 417.964844 887.269531 414.765625 900 415.199219 Z M 900 415.199219 "/>
<path style=" stroke:none;fill-rule:evenodd;fill:rgb(14.901961%,14.901961%,14.901961%);fill-opacity:1;" d="M 1293.601562 343.199219 C 1304.707031 377.871094 1295.105469 405.871094 1264.800781 427.199219 C 1251.804688 432.273438 1238.207031 434.675781 1224 434.398438 C 1207.308594 435.226562 1192.109375 432.027344 1178.398438 424.800781 C 1205.640625 430.414062 1232.839844 429.613281 1260 422.398438 C 1283.789062 401.230469 1294.992188 374.832031 1293.601562 343.199219 Z M 1293.601562 343.199219 "/>
<path style=" stroke:none;fill-rule:evenodd;fill:rgb(65.098039%,65.098039%,65.098039%);fill-opacity:1;" d="M 1024.800781 525.601562 C 1002.4375 522.414062 980.035156 519.210938 957.601562 516 C 941.5625 517.613281 925.558594 519.210938 909.601562 520.800781 C 948.480469 507.5 986.878906 509.101562 1024.800781 525.601562 Z M 1024.800781 525.601562 "/>
<path style=" stroke:none;fill-rule:evenodd;fill:rgb(0.784314%,0.784314%,0.784314%);fill-opacity:1;" d="M 1024.800781 525.601562 C 1131.9375 575.0625 1174.339844 658.261719 1152 775.199219 C 1127.289062 847.117188 1078.488281 893.515625 1005.601562 914.398438 C 973.574219 920.515625 941.574219 920.515625 909.601562 914.398438 C 840.308594 894.699219 792.308594 851.5 765.601562 784.800781 C 755.878906 746.710938 754.28125 708.3125 760.800781 669.601562 C 763.402344 654.371094 768.203125 639.96875 775.199219 626.398438 C 781.949219 624.128906 785.152344 619.328125 784.800781 612 C 802.402344 584.796875 824.796875 562.402344 852 544.800781 C 859.328125 545.152344 864.128906 541.949219 866.398438 535.199219 C 879.96875 528.203125 894.371094 523.402344 909.601562 520.800781 C 925.558594 519.210938 941.5625 517.613281 957.601562 516 C 980.035156 519.210938 1002.4375 522.414062 1024.800781 525.601562 Z M 1024.800781 525.601562 "/>
<path style=" stroke:none;fill-rule:evenodd;fill:rgb(42.745098%,42.745098%,42.745098%);fill-opacity:1;" d="M 866.398438 535.199219 C 864.128906 541.949219 859.328125 545.152344 852 544.800781 C 854.269531 538.050781 859.070312 534.847656 866.398438 535.199219 Z M 866.398438 535.199219 "/>
<path style=" stroke:none;fill-rule:evenodd;fill:rgb(52.156863%,52.156863%,52.156863%);fill-opacity:1;" d="M 784.800781 612 C 785.152344 619.328125 781.949219 624.128906 775.199219 626.398438 C 774.847656 619.070312 778.050781 614.269531 784.800781 612 Z M 784.800781 612 "/>
<path style=" stroke:none;fill-rule:evenodd;fill:rgb(57.647059%,57.647059%,57.647059%);fill-opacity:1;" d="M 664.800781 626.398438 C 666.378906 639.496094 663.183594 650.699219 655.199219 660 C 654.769531 647.269531 657.964844 636.070312 664.800781 626.398438 Z M 664.800781 626.398438 "/>
<path style=" stroke:none;fill-rule:evenodd;fill:rgb(57.647059%,57.647059%,57.647059%);fill-opacity:1;" d="M 1250.398438 626.398438 C 1257.234375 636.070312 1260.433594 647.269531 1260 660 C 1252.019531 650.699219 1248.820312 639.496094 1250.398438 626.398438 Z M 1250.398438 626.398438 "/>
<path style=" stroke:none;fill-rule:evenodd;fill:rgb(68.627451%,68.627451%,68.627451%);fill-opacity:1;" d="M 760.800781 669.601562 C 754.28125 708.3125 755.878906 746.710938 765.601562 784.800781 C 749.257812 746.808594 747.65625 708.40625 760.800781 669.601562 Z M 760.800781 669.601562 "/>
<path style=" stroke:none;fill-rule:evenodd;fill:rgb(70.980392%,70.980392%,70.980392%);fill-opacity:1;" d="M 909.601562 914.398438 C 941.574219 920.515625 973.574219 920.515625 1005.601562 914.398438 C 990.152344 921.378906 973.355469 924.582031 955.199219 924 C 938.511719 924.824219 923.308594 921.628906 909.601562 914.398438 Z M 909.601562 914.398438 "/>
<path style=" stroke:none;fill-rule:evenodd;fill:rgb(66.27451%,66.27451%,66.27451%);fill-opacity:1;" d="M 866.398438 1010.398438 C 882.148438 1010.015625 896.546875 1013.21875 909.601562 1020 C 893.851562 1020.382812 879.453125 1017.183594 866.398438 1010.398438 Z M 866.398438 1010.398438 "/>
<path style=" stroke:none;fill-rule:evenodd;fill:rgb(36.470588%,36.470588%,36.470588%);fill-opacity:1;" d="M 1029.601562 1015.199219 C 1018.378906 1022.59375 1005.574219 1025.789062 991.199219 1024.800781 C 1002.421875 1017.40625 1015.222656 1014.210938 1029.601562 1015.199219 Z M 1029.601562 1015.199219 "/>
<path style=" stroke:none;fill-rule:evenodd;fill:rgb(74.509804%,74.509804%,74.509804%);fill-opacity:1;" d="M 746.398438 1020 C 752.796875 1023.203125 759.203125 1026.398438 765.601562 1029.601562 C 771.609375 1036.804688 776.410156 1044.804688 780 1053.601562 C 783.988281 1072.683594 784.785156 1091.886719 782.398438 1111.199219 C 770.777344 1124.894531 757.179688 1136.097656 741.601562 1144.800781 C 749.859375 1127.410156 758.660156 1109.8125 768 1092 C 774.320312 1030.765625 747.921875 1010.765625 688.800781 1032 C 653.832031 1063.59375 645.832031 1101.195312 664.800781 1144.800781 C 657.46875 1145.152344 652.671875 1141.949219 650.398438 1135.199219 C 625.320312 1048.320312 657.320312 1009.921875 746.398438 1020 Z M 746.398438 1020 "/>
<path style=" stroke:none;fill-rule:evenodd;fill:rgb(98.431373%,98.431373%,98.431373%);fill-opacity:1;" d="M 741.601562 1144.800781 C 715.933594 1150.921875 690.335938 1150.921875 664.800781 1144.800781 C 645.832031 1101.195312 653.832031 1063.59375 688.800781 1032 C 747.921875 1010.765625 774.320312 1030.765625 768 1092 C 758.660156 1109.8125 749.859375 1127.410156 741.601562 1144.800781 Z M 741.601562 1144.800781 "/>
<path style=" stroke:none;fill-rule:evenodd;fill:rgb(31.372549%,31.372549%,31.372549%);fill-opacity:1;" d="M 727.199219 1010.398438 C 650.609375 1005.960938 620.210938 1041.160156 636 1116 C 624.351562 1106.363281 619.550781 1093.566406 621.601562 1077.601562 C 629.992188 1018.828125 663.589844 994.027344 722.398438 1003.199219 C 725.070312 1005.039062 726.667969 1007.4375 727.199219 1010.398438 Z M 727.199219 1010.398438 "/>
<path style=" stroke:none;fill-rule:evenodd;fill:rgb(43.137255%,43.137255%,43.137255%);fill-opacity:1;" d="M 789.601562 1068 C 796.511719 1074.941406 799.714844 1083.738281 799.199219 1094.398438 C 789.671875 1147.980469 757.675781 1172.785156 703.199219 1168.800781 C 698.4375 1169.625 695.242188 1168.023438 693.601562 1164 C 711.273438 1164.792969 728.871094 1163.996094 746.398438 1161.601562 C 758.496094 1144.722656 772.09375 1129.523438 787.199219 1116 C 789.589844 1100.078125 790.390625 1084.078125 789.601562 1068 Z M 789.601562 1068 "/>
<path style=" stroke:none;fill-rule:evenodd;fill:rgb(48.627451%,48.627451%,48.627451%);fill-opacity:1;" d="M 727.199219 1010.398438 C 736.222656 1009.097656 742.621094 1012.300781 746.398438 1020 C 657.320312 1009.921875 625.320312 1048.320312 650.398438 1135.199219 C 641.058594 1132.632812 636.257812 1126.234375 636 1116 C 620.210938 1041.160156 650.609375 1005.960938 727.199219 1010.398438 Z M 727.199219 1010.398438 "/>
<path style=" stroke:none;fill-rule:evenodd;fill:rgb(63.529412%,63.529412%,63.529412%);fill-opacity:1;" d="M 780 1053.601562 C 786.75 1055.871094 789.949219 1060.671875 789.601562 1068 C 790.390625 1084.078125 789.589844 1100.078125 787.199219 1116 C 772.09375 1129.523438 758.496094 1144.722656 746.398438 1161.601562 C 728.871094 1163.996094 711.273438 1164.792969 693.601562 1164 C 682.304688 1159.96875 672.707031 1153.566406 664.800781 1144.800781 C 690.335938 1150.921875 715.933594 1150.921875 741.601562 1144.800781 C 757.179688 1136.097656 770.777344 1124.894531 782.398438 1111.199219 C 784.785156 1091.886719 783.988281 1072.683594 780 1053.601562 Z M 780 1053.601562 "/>
<path style=" stroke:none;fill-rule:evenodd;fill:rgb(22.352941%,22.352941%,22.352941%);fill-opacity:1;" d="M 765.601562 1029.601562 C 812.472656 1060.1875 821.269531 1100.1875 792 1149.601562 C 765.609375 1172.6875 736.007812 1179.085938 703.199219 1168.800781 C 757.675781 1172.785156 789.671875 1147.980469 799.199219 1094.398438 C 799.714844 1083.738281 796.511719 1074.941406 789.601562 1068 C 789.949219 1060.671875 786.75 1055.871094 780 1053.601562 C 776.410156 1044.804688 771.609375 1036.804688 765.601562 1029.601562 Z M 765.601562 1029.601562 "/>
</g>
</svg>
