<?xml version="1.0" encoding="UTF-8"?>
<svg xmlns="http://www.w3.org/2000/svg" xmlns:xlink="http://www.w3.org/1999/xlink" width="1920pt" height="1440pt" viewBox="0 0 1920 1440" version="1.1">
<g id="surface1">
<path style=" stroke:none;fill-rule:evenodd;fill:rgb(0%,0%,0%);fill-opacity:1;" d="M -2.398438 -2.398438 C 637.597656 -2.398438 1277.601562 -2.398438 1917.601562 -2.398438 C 1917.601562 477.601562 1917.601562 957.601562 1917.601562 1437.601562 C 1277.601562 1437.601562 637.597656 1437.601562 -2.398438 1437.601562 C -2.398438 957.601562 -2.398438 477.601562 -2.398438 -2.398438 Z M -2.398438 -2.398438 "/>
<path style=" stroke:none;fill-rule:evenodd;fill:rgb(75.294118%,75.294118%,75.294118%);fill-opacity:1;" d="M 1010.398438 391.199219 C 940.734375 384.605469 873.53125 394.207031 808.800781 420 C 821.476562 410.625 835.875 403.421875 852 398.398438 C 898.851562 383.308594 946.851562 378.507812 996 384 C 1001.9375 385.113281 1006.738281 387.515625 1010.398438 391.199219 Z M 1010.398438 391.199219 "/>
<path style=" stroke:none;fill-rule:evenodd;fill:rgb(97.647059%,97.647059%,97.647059%);fill-opacity:1;" d="M 1010.398438 391.199219 C 1167.007812 422.214844 1260.609375 516.613281 1291.199219 674.398438 C 1302.394531 828.042969 1240.796875 941.640625 1106.398438 1015.199219 C 1099.070312 1014.847656 1094.269531 1018.050781 1092 1024.800781 C 933.40625 1084.128906 799.808594 1048.925781 691.199219 919.199219 C 660.425781 877.230469 640.425781 830.832031 631.199219 780 C 627.6875 746.515625 626.089844 712.914062 626.398438 679.199219 C 637.988281 589.890625 677.984375 515.492188 746.398438 456 C 765.898438 441.460938 786.695312 429.460938 808.800781 420 C 873.53125 394.207031 940.734375 384.605469 1010.398438 391.199219 Z M 1010.398438 391.199219 "/>
<path style=" stroke:none;fill-rule:evenodd;fill:rgb(22.745098%,22.745098%,22.745098%);fill-opacity:1;" d="M 1394.398438 487.199219 C 1373.105469 485.808594 1352.304688 488.207031 1332 494.398438 C 1320.164062 506.300781 1308.964844 518.300781 1298.398438 530.398438 C 1317.089844 484.234375 1349.09375 469.832031 1394.398438 487.199219 Z M 1394.398438 487.199219 "/>
<path style=" stroke:none;fill-rule:evenodd;fill:rgb(0.784314%,0.784314%,0.784314%);fill-opacity:1;" d="M 775.199219 602.398438 C 781.949219 600.128906 785.152344 595.328125 784.800781 588 C 816.621094 543.238281 859.820312 515.238281 914.398438 504 C 1016.742188 493.175781 1095.941406 530.773438 1152 616.800781 C 1196.597656 721.421875 1176.601562 811.824219 1092 888 C 979.871094 959.269531 878.273438 947.269531 787.199219 852 C 736.242188 777.9375 728.242188 699.539062 763.199219 616.800781 C 767.289062 611.660156 771.289062 606.859375 775.199219 602.398438 Z M 775.199219 602.398438 "/>
<path style=" stroke:none;fill-rule:evenodd;fill:rgb(42.745098%,42.745098%,42.352941%);fill-opacity:1;" d="M 1394.398438 487.199219 C 1407.351562 488.855469 1416.949219 495.253906 1423.199219 506.398438 C 1348.964844 473.394531 1307.367188 497.394531 1298.398438 578.398438 C 1292 562.402344 1292 546.398438 1298.398438 530.398438 C 1308.964844 518.300781 1320.164062 506.300781 1332 494.398438 C 1352.304688 488.207031 1373.105469 485.808594 1394.398438 487.199219 Z M 1394.398438 487.199219 "/>
<path style=" stroke:none;fill-rule:evenodd;fill:rgb(98.823529%,98.823529%,98.823529%);fill-opacity:1;" d="M 1423.199219 516 C 1429.597656 520.800781 1436 525.601562 1442.398438 530.398438 C 1442.398438 536.796875 1442.398438 543.203125 1442.398438 549.601562 C 1432.410156 618.761719 1394.011719 642.761719 1327.199219 621.601562 C 1323.40625 617.273438 1318.609375 614.074219 1312.800781 612 C 1313.152344 604.671875 1309.949219 599.871094 1303.199219 597.601562 C 1303.199219 594.398438 1303.199219 591.203125 1303.199219 588 C 1309.699219 510.921875 1349.699219 486.921875 1423.199219 516 Z M 1423.199219 516 "/>
<path style=" stroke:none;fill-rule:evenodd;fill:rgb(49.803922%,49.803922%,49.803922%);fill-opacity:1;" d="M 1423.199219 506.398438 C 1433.21875 511.609375 1439.617188 519.605469 1442.398438 530.398438 C 1436 525.601562 1429.597656 520.800781 1423.199219 516 C 1423.199219 512.796875 1423.199219 509.601562 1423.199219 506.398438 Z M 1423.199219 506.398438 "/>
<path style=" stroke:none;fill-rule:evenodd;fill:rgb(70.980392%,70.980392%,70.980392%);fill-opacity:1;" d="M 1423.199219 506.398438 C 1423.199219 509.601562 1423.199219 512.796875 1423.199219 516 C 1349.699219 486.921875 1309.699219 510.921875 1303.199219 588 C 1299.175781 586.359375 1297.574219 583.160156 1298.398438 578.398438 C 1307.367188 497.394531 1348.964844 473.394531 1423.199219 506.398438 Z M 1423.199219 506.398438 "/>
<path style=" stroke:none;fill-rule:evenodd;fill:rgb(36.862745%,36.862745%,36.862745%);fill-opacity:1;" d="M 784.800781 588 C 785.152344 595.328125 781.949219 600.128906 775.199219 602.398438 C 774.847656 595.070312 778.050781 590.269531 784.800781 588 Z M 784.800781 588 "/>
<path style=" stroke:none;fill-rule:evenodd;fill:rgb(44.705882%,44.705882%,44.705882%);fill-opacity:1;" d="M 1303.199219 597.601562 C 1309.949219 599.871094 1313.152344 604.671875 1312.800781 612 C 1306.050781 609.730469 1302.847656 604.929688 1303.199219 597.601562 Z M 1303.199219 597.601562 "/>
<path style=" stroke:none;fill-rule:evenodd;fill:rgb(43.529412%,43.529412%,43.529412%);fill-opacity:1;" d="M 1442.398438 530.398438 C 1459.492188 556.722656 1461.089844 583.921875 1447.199219 612 C 1440.800781 616.800781 1434.398438 621.601562 1428 626.398438 C 1428 624.800781 1428 623.199219 1428 621.601562 C 1443.378906 599.113281 1448.179688 575.113281 1442.398438 549.601562 C 1442.398438 543.203125 1442.398438 536.796875 1442.398438 530.398438 Z M 1442.398438 530.398438 "/>
<path style=" stroke:none;fill-rule:evenodd;fill:rgb(81.960784%,81.960784%,81.960784%);fill-opacity:1;" d="M 1442.398438 549.601562 C 1448.179688 575.113281 1443.378906 599.113281 1428 621.601562 C 1410.621094 630.160156 1392.214844 634.957031 1372.800781 636 C 1364 635.199219 1355.199219 634.402344 1346.398438 633.601562 C 1337.664062 632.640625 1331.265625 628.636719 1327.199219 621.601562 C 1394.011719 642.761719 1432.410156 618.761719 1442.398438 549.601562 Z M 1442.398438 549.601562 "/>
<path style=" stroke:none;fill-rule:evenodd;fill:rgb(59.607843%,59.607843%,59.607843%);fill-opacity:1;" d="M 1312.800781 612 C 1318.609375 614.074219 1323.40625 617.273438 1327.199219 621.601562 C 1331.265625 628.636719 1337.664062 632.640625 1346.398438 633.601562 C 1355.199219 634.402344 1364 635.199219 1372.800781 636 C 1392.214844 634.957031 1410.621094 630.160156 1428 621.601562 C 1428 623.199219 1428 624.800781 1428 626.398438 C 1423.199219 628 1420 631.199219 1418.398438 636 C 1399.757812 642.207031 1380.558594 645.402344 1360.800781 645.601562 C 1354.402344 645.601562 1348 645.601562 1341.601562 645.601562 C 1328.578125 637.371094 1318.976562 626.175781 1312.800781 612 Z M 1312.800781 612 "/>
<path style=" stroke:none;fill-rule:evenodd;fill:rgb(40.392157%,40.392157%,40.392157%);fill-opacity:1;" d="M 1418.398438 636 C 1401.167969 650.71875 1381.96875 653.917969 1360.800781 645.601562 C 1380.558594 645.402344 1399.757812 642.207031 1418.398438 636 Z M 1418.398438 636 "/>
<path style=" stroke:none;fill-rule:evenodd;fill:rgb(22.745098%,22.745098%,22.745098%);fill-opacity:1;" d="M 1447.199219 612 C 1441.992188 632.417969 1429.191406 646.019531 1408.800781 652.800781 C 1389.601562 656 1370.398438 656 1351.199219 652.800781 C 1346.804688 651.464844 1343.605469 649.066406 1341.601562 645.601562 C 1348 645.601562 1354.402344 645.601562 1360.800781 645.601562 C 1381.96875 653.917969 1401.167969 650.71875 1418.398438 636 C 1420 631.199219 1423.199219 628 1428 626.398438 C 1434.398438 621.601562 1440.800781 616.800781 1447.199219 612 Z M 1447.199219 612 "/>
<path style=" stroke:none;fill-rule:evenodd;fill:rgb(52.941176%,52.941176%,52.941176%);fill-opacity:1;" d="M 626.398438 679.199219 C 626.089844 712.914062 627.6875 746.515625 631.199219 780 C 624.222656 760.445312 621.019531 739.644531 621.601562 717.601562 C 621.613281 703.894531 623.210938 691.09375 626.398438 679.199219 Z M 626.398438 679.199219 "/>
<path style=" stroke:none;fill-rule:evenodd;fill:rgb(33.333333%,33.333333%,33.333333%);fill-opacity:1;" d="M 573.601562 794.398438 C 539.101562 784.863281 507.101562 789.664062 477.601562 808.800781 C 484.59375 797.832031 494.195312 789.035156 506.398438 782.398438 C 524 779.199219 541.597656 779.199219 559.199219 782.398438 C 566.121094 784.210938 570.921875 788.207031 573.601562 794.398438 Z M 573.601562 794.398438 "/>
<path style=" stroke:none;fill-rule:evenodd;fill:rgb(52.941176%,52.941176%,52.941176%);fill-opacity:1;" d="M 573.601562 794.398438 C 584.617188 797.453125 592.613281 803.851562 597.601562 813.601562 C 584.308594 809.101562 571.507812 803.5 559.199219 796.800781 C 526.871094 793.136719 499.675781 803.539062 477.601562 828 C 474.019531 833.933594 472.417969 840.335938 472.800781 847.199219 C 468.128906 858.949219 466.527344 871.753906 468 885.601562 C 459.960938 858.921875 463.164062 833.320312 477.601562 808.800781 C 507.101562 789.664062 539.101562 784.863281 573.601562 794.398438 Z M 573.601562 794.398438 "/>
<path style=" stroke:none;fill-rule:evenodd;fill:rgb(98.431373%,98.431373%,98.431373%);fill-opacity:1;" d="M 482.398438 919.199219 C 482.75 911.871094 479.550781 907.070312 472.800781 904.800781 C 471.199219 898.402344 469.601562 892 468 885.601562 C 466.527344 871.753906 468.128906 858.949219 472.800781 847.199219 C 504.085938 801.453125 544.089844 792.652344 592.800781 820.800781 C 614.886719 843.699219 617.285156 868.503906 600 895.199219 C 576.816406 927.519531 545.617188 937.914062 506.398438 926.398438 C 498.460938 923.480469 490.460938 921.082031 482.398438 919.199219 Z M 482.398438 919.199219 "/>
<path style=" stroke:none;fill-rule:evenodd;fill:rgb(38.431373%,38.431373%,38.431373%);fill-opacity:1;" d="M 472.800781 904.800781 C 479.550781 907.070312 482.75 911.871094 482.398438 919.199219 C 475.648438 916.929688 472.449219 912.128906 472.800781 904.800781 Z M 472.800781 904.800781 "/>
<path style=" stroke:none;fill-rule:evenodd;fill:rgb(72.156863%,72.156863%,72.156863%);fill-opacity:1;" d="M 597.601562 813.601562 C 606.769531 820.679688 612.363281 830.28125 614.398438 842.398438 C 616.796875 861.53125 617.597656 880.734375 616.800781 900 C 582.730469 937.347656 541.128906 948.546875 492 933.601562 C 488.796875 928.800781 485.601562 924 482.398438 919.199219 C 490.460938 921.082031 498.460938 923.480469 506.398438 926.398438 C 545.617188 937.914062 576.816406 927.519531 600 895.199219 C 617.285156 868.503906 614.886719 843.699219 592.800781 820.800781 C 544.089844 792.652344 504.085938 801.453125 472.800781 847.199219 C 472.417969 840.335938 474.019531 833.933594 477.601562 828 C 499.675781 803.539062 526.871094 793.136719 559.199219 796.800781 C 571.507812 803.5 584.308594 809.101562 597.601562 813.601562 Z M 597.601562 813.601562 "/>
<path style=" stroke:none;fill-rule:evenodd;fill:rgb(41.960784%,41.960784%,41.960784%);fill-opacity:1;" d="M 616.800781 900 C 596.488281 946.148438 561.28125 962.945312 511.199219 950.398438 C 503.554688 945.84375 497.15625 940.246094 492 933.601562 C 541.128906 948.546875 582.730469 937.347656 616.800781 900 Z M 616.800781 900 "/>
<path style=" stroke:none;fill-rule:evenodd;fill:rgb(36.078431%,36.078431%,36.078431%);fill-opacity:1;" d="M 1106.398438 1015.199219 C 1104.128906 1021.949219 1099.328125 1025.152344 1092 1024.800781 C 1094.269531 1018.050781 1099.070312 1014.847656 1106.398438 1015.199219 Z M 1106.398438 1015.199219 "/>
</g>
</svg>
