<?xml version="1.0" encoding="UTF-8"?>
<svg xmlns="http://www.w3.org/2000/svg" xmlns:xlink="http://www.w3.org/1999/xlink" width="1920pt" height="1440pt" viewBox="0 0 1920 1440" version="1.1">
<g id="surface1">
<path style=" stroke:none;fill-rule:evenodd;fill:rgb(0%,0%,0%);fill-opacity:1;" d="M -2.398438 -2.398438 C 637.597656 -2.398438 1277.601562 -2.398438 1917.601562 -2.398438 C 1917.601562 477.601562 1917.601562 957.601562 1917.601562 1437.601562 C 1277.601562 1437.601562 637.597656 1437.601562 -2.398438 1437.601562 C -2.398438 957.601562 -2.398438 477.601562 -2.398438 -2.398438 Z M -2.398438 -2.398438 "/>
<path style=" stroke:none;fill-rule:evenodd;fill:rgb(97.647059%,97.647059%,97.647059%);fill-opacity:1;" d="M 1106.398438 1015.199219 C 1099.070312 1014.847656 1094.269531 1018.050781 1092 1024.800781 C 944.1875 1080.839844 815.386719 1052.039062 705.601562 938.398438 C 597.335938 796.628906 594.132812 652.628906 696 506.398438 C 726.546875 467.621094 764.144531 438.820312 808.800781 420 C 816.128906 420.351562 820.929688 417.148438 823.199219 410.398438 C 975.859375 357.347656 1107.859375 389.347656 1219.199219 506.398438 C 1322.222656 655.765625 1317.421875 801.371094 1204.800781 943.199219 C 1176.542969 973.699219 1143.742188 997.699219 1106.398438 1015.199219 Z M 1106.398438 1015.199219 "/>
<path style=" stroke:none;fill-rule:evenodd;fill:rgb(54.117647%,54.117647%,54.117647%);fill-opacity:1;" d="M 823.199219 410.398438 C 820.929688 417.148438 816.128906 420.351562 808.800781 420 C 811.070312 413.25 815.871094 410.050781 823.199219 410.398438 Z M 823.199219 410.398438 "/>
<path style=" stroke:none;fill-rule:evenodd;fill:rgb(43.529412%,43.529412%,43.529412%);fill-opacity:1;" d="M 1394.398438 487.199219 C 1414.722656 493.109375 1429.125 505.910156 1437.601562 525.601562 C 1434.398438 524 1431.203125 522.398438 1428 520.800781 C 1422.792969 510.78125 1414.796875 504.382812 1404 501.601562 C 1403.46875 498.636719 1401.867188 496.238281 1399.199219 494.398438 C 1367.449219 486.613281 1340.25 493.8125 1317.601562 516 C 1319.324219 507.019531 1324.125 499.820312 1332 494.398438 C 1352.304688 488.207031 1373.105469 485.808594 1394.398438 487.199219 Z M 1394.398438 487.199219 "/>
<path style=" stroke:none;fill-rule:evenodd;fill:rgb(64.313725%,64.313725%,64.313725%);fill-opacity:1;" d="M 1404 501.601562 C 1388.261719 496.839844 1372.261719 496.035156 1356 499.199219 C 1347.265625 500.160156 1340.867188 504.164062 1336.800781 511.199219 C 1311.113281 533.855469 1301.515625 562.65625 1308 597.601562 C 1306.402344 597.601562 1304.796875 597.601562 1303.199219 597.601562 C 1302.925781 592.277344 1301.328125 587.476562 1298.398438 583.199219 C 1297.652344 563.605469 1300.050781 544.40625 1305.601562 525.601562 C 1309 521.371094 1313 518.175781 1317.601562 516 C 1340.25 493.8125 1367.449219 486.613281 1399.199219 494.398438 C 1401.867188 496.238281 1403.46875 498.636719 1404 501.601562 Z M 1404 501.601562 "/>
<path style=" stroke:none;fill-rule:evenodd;fill:rgb(25.098039%,25.098039%,25.098039%);fill-opacity:1;" d="M 1000.800781 506.398438 C 965.433594 505.523438 930.234375 507.121094 895.199219 511.199219 C 898.863281 507.511719 903.664062 505.113281 909.601562 504 C 940.867188 500.0625 971.265625 500.867188 1000.800781 506.398438 Z M 1000.800781 506.398438 "/>
<path style=" stroke:none;fill-rule:evenodd;fill:rgb(80.392157%,80.392157%,80.392157%);fill-opacity:1;" d="M 1404 501.601562 C 1414.796875 504.382812 1422.792969 510.78125 1428 520.800781 C 1399.109375 506.097656 1368.710938 502.894531 1336.800781 511.199219 C 1340.867188 504.164062 1347.265625 500.160156 1356 499.199219 C 1372.261719 496.035156 1388.261719 496.839844 1404 501.601562 Z M 1404 501.601562 "/>
<path style=" stroke:none;fill-rule:evenodd;fill:rgb(0.784314%,0.784314%,0.784314%);fill-opacity:1;" d="M 1000.800781 506.398438 C 1127.125 544.660156 1183.929688 629.460938 1171.199219 760.800781 C 1125.972656 894.035156 1033.976562 949.234375 895.199219 926.398438 C 781.445312 878.984375 731.042969 793.386719 744 669.601562 C 753.015625 645.820312 763.414062 623.417969 775.199219 602.398438 C 781.949219 600.128906 785.152344 595.328125 784.800781 588 C 810.984375 547.453125 847.785156 521.855469 895.199219 511.199219 C 930.234375 507.121094 965.433594 505.523438 1000.800781 506.398438 Z M 1000.800781 506.398438 "/>
<path style=" stroke:none;fill-rule:evenodd;fill:rgb(98.039216%,98.039216%,98.039216%);fill-opacity:1;" d="M 1428 520.800781 C 1431.203125 522.398438 1434.398438 524 1437.601562 525.601562 C 1454.257812 572.699219 1441.453125 608.699219 1399.199219 633.601562 C 1376.542969 637.042969 1354.148438 636.238281 1332 631.199219 C 1328.796875 621.601562 1322.398438 615.203125 1312.800781 612 C 1312.527344 606.675781 1310.929688 601.875 1308 597.601562 C 1301.515625 562.65625 1311.113281 533.855469 1336.800781 511.199219 C 1368.710938 502.894531 1399.109375 506.097656 1428 520.800781 Z M 1428 520.800781 "/>
<path style=" stroke:none;fill-rule:evenodd;fill:rgb(25.882353%,25.882353%,25.882353%);fill-opacity:1;" d="M 1394.398438 487.199219 C 1373.105469 485.808594 1352.304688 488.207031 1332 494.398438 C 1324.125 499.820312 1319.324219 507.019531 1317.601562 516 C 1313 518.175781 1309 521.371094 1305.601562 525.601562 C 1300.050781 544.40625 1297.652344 563.605469 1298.398438 583.199219 C 1284.695312 533.503906 1302.296875 499.105469 1351.199219 480 C 1367.34375 475.546875 1381.742188 477.949219 1394.398438 487.199219 Z M 1394.398438 487.199219 "/>
<path style=" stroke:none;fill-rule:evenodd;fill:rgb(23.921569%,23.921569%,23.921569%);fill-opacity:1;" d="M 1452 554.398438 C 1457.730469 573.066406 1456.933594 592.265625 1449.601562 612 C 1445.796875 624.507812 1438.597656 634.109375 1428 640.800781 C 1434.039062 630.300781 1438.839844 619.105469 1442.398438 607.199219 C 1450.035156 590.585938 1453.238281 572.984375 1452 554.398438 Z M 1452 554.398438 "/>
<path style=" stroke:none;fill-rule:evenodd;fill:rgb(36.862745%,36.862745%,36.862745%);fill-opacity:1;" d="M 784.800781 588 C 785.152344 595.328125 781.949219 600.128906 775.199219 602.398438 C 774.847656 595.070312 778.050781 590.269531 784.800781 588 Z M 784.800781 588 "/>
<path style=" stroke:none;fill-rule:evenodd;fill:rgb(44.705882%,44.705882%,44.705882%);fill-opacity:1;" d="M 1303.199219 597.601562 C 1304.796875 597.601562 1306.402344 597.601562 1308 597.601562 C 1310.929688 601.875 1312.527344 606.675781 1312.800781 612 C 1306.050781 609.730469 1302.847656 604.929688 1303.199219 597.601562 Z M 1303.199219 597.601562 "/>
<path style=" stroke:none;fill-rule:evenodd;fill:rgb(63.921569%,63.921569%,63.921569%);fill-opacity:1;" d="M 1437.601562 525.601562 C 1447.386719 532.371094 1452.1875 541.972656 1452 554.398438 C 1453.238281 572.984375 1450.035156 590.585938 1442.398438 607.199219 C 1431.984375 613.621094 1423.988281 622.425781 1418.398438 633.601562 C 1398.53125 643.523438 1377.730469 646.722656 1356 643.199219 C 1345.664062 642.726562 1337.667969 638.722656 1332 631.199219 C 1354.148438 636.238281 1376.542969 637.042969 1399.199219 633.601562 C 1441.453125 608.699219 1454.257812 572.699219 1437.601562 525.601562 Z M 1437.601562 525.601562 "/>
<path style=" stroke:none;fill-rule:evenodd;fill:rgb(36.078431%,36.078431%,36.078431%);fill-opacity:1;" d="M 1442.398438 607.199219 C 1438.839844 619.105469 1434.039062 630.300781 1428 640.800781 C 1392.570312 661.363281 1358.167969 659.761719 1324.800781 636 C 1319.546875 628.425781 1315.546875 620.425781 1312.800781 612 C 1322.398438 615.203125 1328.796875 621.601562 1332 631.199219 C 1337.667969 638.722656 1345.664062 642.726562 1356 643.199219 C 1377.730469 646.722656 1398.53125 643.523438 1418.398438 633.601562 C 1423.988281 622.425781 1431.984375 613.621094 1442.398438 607.199219 Z M 1442.398438 607.199219 "/>
<path style=" stroke:none;fill-rule:evenodd;fill:rgb(76.862745%,76.862745%,76.862745%);fill-opacity:1;" d="M 592.800781 818.398438 C 546.609375 793.851562 507.40625 801.855469 475.199219 842.398438 C 472.808594 859.929688 472.007812 877.527344 472.800781 895.199219 C 468.777344 893.558594 467.175781 890.363281 468 885.601562 C 464.367188 860.121094 469.167969 836.921875 482.398438 816 C 492.566406 814.753906 500.5625 809.953125 506.398438 801.601562 C 539.390625 788.601562 568.191406 794.203125 592.800781 818.398438 Z M 592.800781 818.398438 "/>
<path style=" stroke:none;fill-rule:evenodd;fill:rgb(98.823529%,98.823529%,98.823529%);fill-opacity:1;" d="M 592.800781 818.398438 C 597.601562 821.601562 602.398438 824.796875 607.199219 828 C 618.519531 867.015625 607.320312 898.214844 573.601562 921.601562 C 548 924.800781 522.398438 924.800781 496.800781 921.601562 C 489.203125 913.160156 481.199219 905.960938 472.800781 900 C 472.800781 898.402344 472.800781 896.796875 472.800781 895.199219 C 472.007812 877.527344 472.808594 859.929688 475.199219 842.398438 C 507.40625 801.855469 546.609375 793.851562 592.800781 818.398438 Z M 592.800781 818.398438 "/>
<path style=" stroke:none;fill-rule:evenodd;fill:rgb(42.352941%,42.352941%,42.352941%);fill-opacity:1;" d="M 607.199219 828 C 602.398438 824.796875 597.601562 821.601562 592.800781 818.398438 C 568.191406 794.203125 539.390625 788.601562 506.398438 801.601562 C 500.5625 809.953125 492.566406 814.753906 482.398438 816 C 469.167969 836.921875 464.367188 860.121094 468 885.601562 C 451.011719 810.167969 481.410156 775.765625 559.199219 782.398438 C 580.867188 792.078125 596.867188 807.277344 607.199219 828 Z M 607.199219 828 "/>
<path style=" stroke:none;fill-rule:evenodd;fill:rgb(25.490196%,25.490196%,25.490196%);fill-opacity:1;" d="M 616.800781 852 C 628.097656 886.011719 620.097656 914.8125 592.800781 938.398438 C 597.601562 928.800781 602.398438 919.199219 607.199219 909.601562 C 615.085938 891.382812 618.28125 872.183594 616.800781 852 Z M 616.800781 852 "/>
<path style=" stroke:none;fill-rule:evenodd;fill:rgb(76.078431%,76.078431%,76.078431%);fill-opacity:1;" d="M 607.199219 828 C 612.175781 834.863281 615.378906 842.867188 616.800781 852 C 618.28125 872.183594 615.085938 891.382812 607.199219 909.601562 C 587.15625 924.359375 564.753906 935.558594 540 943.199219 C 521.777344 939.234375 504.175781 934.433594 487.199219 928.800781 C 482.539062 919.28125 477.742188 909.679688 472.800781 900 C 481.199219 905.960938 489.203125 913.160156 496.800781 921.601562 C 522.398438 924.800781 548 924.800781 573.601562 921.601562 C 607.320312 898.214844 618.519531 867.015625 607.199219 828 Z M 607.199219 828 "/>
<path style=" stroke:none;fill-rule:evenodd;fill:rgb(45.882353%,45.882353%,45.882353%);fill-opacity:1;" d="M 607.199219 909.601562 C 602.398438 919.199219 597.601562 928.800781 592.800781 938.398438 C 585.359375 942.917969 577.363281 946.113281 568.800781 948 C 547.691406 948.988281 526.886719 947.390625 506.398438 943.199219 C 497.261719 942.058594 490.859375 937.257812 487.199219 928.800781 C 504.175781 934.433594 521.777344 939.234375 540 943.199219 C 564.753906 935.558594 587.15625 924.359375 607.199219 909.601562 Z M 607.199219 909.601562 "/>
<path style=" stroke:none;fill-rule:evenodd;fill:rgb(23.921569%,23.921569%,23.921569%);fill-opacity:1;" d="M 506.398438 943.199219 C 526.886719 947.390625 547.691406 948.988281 568.800781 948 C 550.808594 959.835938 531.609375 960.636719 511.199219 950.398438 C 508.53125 948.5625 506.933594 946.160156 506.398438 943.199219 Z M 506.398438 943.199219 "/>
<path style=" stroke:none;fill-rule:evenodd;fill:rgb(36.078431%,36.078431%,36.078431%);fill-opacity:1;" d="M 1106.398438 1015.199219 C 1104.128906 1021.949219 1099.328125 1025.152344 1092 1024.800781 C 1094.269531 1018.050781 1099.070312 1014.847656 1106.398438 1015.199219 Z M 1106.398438 1015.199219 "/>
</g>
</svg>
