<?xml version="1.0" encoding="UTF-8"?>
<svg xmlns="http://www.w3.org/2000/svg" xmlns:xlink="http://www.w3.org/1999/xlink" width="1920pt" height="1440pt" viewBox="0 0 1920 1440" version="1.1">
<g id="surface1">
<path style=" stroke:none;fill-rule:evenodd;fill:rgb(0%,0%,0%);fill-opacity:1;" d="M -2.398438 -2.398438 C 637.597656 -2.398438 1277.601562 -2.398438 1917.601562 -2.398438 C 1917.601562 477.601562 1917.601562 957.601562 1917.601562 1437.601562 C 1277.601562 1437.601562 637.597656 1437.601562 -2.398438 1437.601562 C -2.398438 957.601562 -2.398438 477.601562 -2.398438 -2.398438 Z M -2.398438 -2.398438 "/>
<path style=" stroke:none;fill-rule:evenodd;fill:rgb(98.431373%,98.431373%,98.431373%);fill-opacity:1;" d="M 1010.398438 204 C 1013.601562 204 1016.796875 204 1020 204 C 1020 207.199219 1020 210.398438 1020 213.601562 C 1042.914062 237.710938 1050.113281 266.511719 1041.601562 300 C 1035.089844 313.578125 1027.890625 326.378906 1020 338.398438 C 1015.199219 340 1012 343.199219 1010.398438 348 C 994.320312 348.792969 978.320312 347.992188 962.398438 345.601562 C 959.730469 343.761719 958.132812 341.363281 957.601562 338.398438 C 946.578125 329.277344 937.78125 318.078125 931.199219 304.800781 C 927.390625 278.296875 930.589844 252.695312 940.800781 228 C 959.40625 207.144531 982.601562 199.144531 1010.398438 204 Z M 1010.398438 204 "/>
<path style=" stroke:none;fill-rule:evenodd;fill:rgb(41.960784%,41.960784%,41.960784%);fill-opacity:1;" d="M 1020 204 C 1035.734375 210.917969 1050.929688 218.917969 1065.601562 228 C 1093.113281 323.71875 1057.113281 364.519531 957.601562 350.398438 C 948.863281 349.4375 942.464844 345.4375 938.398438 338.398438 C 944.796875 338.398438 951.203125 338.398438 957.601562 338.398438 C 958.132812 341.363281 959.730469 343.761719 962.398438 345.601562 C 978.320312 347.992188 994.320312 348.792969 1010.398438 348 C 1057.691406 328.484375 1074.488281 293.285156 1060.800781 242.398438 C 1058.960938 239.730469 1056.5625 238.132812 1053.601562 237.601562 C 1046.648438 224.332031 1035.453125 216.332031 1020 213.601562 C 1020 210.398438 1020 207.199219 1020 204 Z M 1020 204 "/>
<path style=" stroke:none;fill-rule:evenodd;fill:rgb(38.823529%,38.823529%,38.823529%);fill-opacity:1;" d="M 957.601562 204 C 923.289062 228.8125 908.890625 262.414062 914.398438 304.800781 C 911.4375 304.269531 909.039062 302.667969 907.199219 300 C 904.636719 279.078125 905.433594 258.277344 909.601562 237.601562 C 917.578125 215.257812 933.574219 204.058594 957.601562 204 Z M 957.601562 204 "/>
<path style=" stroke:none;fill-rule:evenodd;fill:rgb(23.529412%,23.529412%,23.529412%);fill-opacity:1;" d="M 909.601562 237.601562 C 905.433594 258.277344 904.636719 279.078125 907.199219 300 C 909.039062 302.667969 911.4375 304.269531 914.398438 304.800781 C 923.199219 314.988281 931.199219 326.1875 938.398438 338.398438 C 901.726562 318.980469 889.726562 288.582031 902.398438 247.199219 C 903.734375 242.804688 906.132812 239.605469 909.601562 237.601562 Z M 909.601562 237.601562 "/>
<path style=" stroke:none;fill-rule:evenodd;fill:rgb(67.45098%,67.45098%,67.45098%);fill-opacity:1;" d="M 1010.398438 204 C 982.601562 199.144531 959.40625 207.144531 940.800781 228 C 930.589844 252.695312 927.390625 278.296875 931.199219 304.800781 C 937.78125 318.078125 946.578125 329.277344 957.601562 338.398438 C 951.203125 338.398438 944.796875 338.398438 938.398438 338.398438 C 931.199219 326.1875 923.199219 314.988281 914.398438 304.800781 C 908.890625 262.414062 923.289062 228.8125 957.601562 204 C 975.203125 197.601562 992.796875 197.601562 1010.398438 204 Z M 1010.398438 204 "/>
<path style=" stroke:none;fill-rule:evenodd;fill:rgb(86.666667%,86.666667%,86.666667%);fill-opacity:1;" d="M 1020 213.601562 C 1035.453125 216.332031 1046.648438 224.332031 1053.601562 237.601562 C 1065.167969 279.109375 1053.96875 312.707031 1020 338.398438 C 1027.890625 326.378906 1035.089844 313.578125 1041.601562 300 C 1050.113281 266.511719 1042.914062 237.710938 1020 213.601562 Z M 1020 213.601562 "/>
<path style=" stroke:none;fill-rule:evenodd;fill:rgb(65.490196%,65.490196%,65.490196%);fill-opacity:1;" d="M 1053.601562 237.601562 C 1056.5625 238.132812 1058.960938 239.730469 1060.800781 242.398438 C 1074.488281 293.285156 1057.691406 328.484375 1010.398438 348 C 1012 343.199219 1015.199219 340 1020 338.398438 C 1053.96875 312.707031 1065.167969 279.109375 1053.601562 237.601562 Z M 1053.601562 237.601562 "/>
<path style=" stroke:none;fill-rule:evenodd;fill:rgb(97.647059%,97.647059%,97.647059%);fill-opacity:1;" d="M 914.398438 386.398438 C 1045.761719 380.273438 1152.160156 428.273438 1233.601562 530.398438 C 1313.574219 670.035156 1305.574219 804.4375 1209.601562 933.601562 C 1078.261719 1062.988281 931.863281 1082.992188 770.398438 993.601562 C 629.226562 877.027344 593.226562 733.824219 662.398438 564 C 718.304688 463.976562 802.304688 404.773438 914.398438 386.398438 Z M 914.398438 386.398438 "/>
<path style=" stroke:none;fill-rule:evenodd;fill:rgb(0.784314%,0.784314%,0.784314%);fill-opacity:1;" d="M 986.398438 492 C 991.199219 492 996 492 1000.800781 492 C 1010.472656 498.835938 1021.671875 502.03125 1034.398438 501.601562 C 1148.378906 550.296875 1197.984375 636.695312 1183.199219 760.800781 C 1176.363281 770.472656 1173.167969 781.671875 1173.601562 794.398438 C 1133.492188 891.894531 1059.894531 943.089844 952.800781 948 C 851.035156 938.921875 780.632812 887.726562 741.601562 794.398438 C 742.03125 781.671875 738.835938 770.472656 732 760.800781 C 717.46875 661.070312 751.070312 581.871094 832.800781 523.199219 C 850.652344 511.851562 869.851562 504.652344 890.398438 501.601562 C 921.8125 493.765625 953.8125 490.566406 986.398438 492 Z M 986.398438 492 "/>
<path style=" stroke:none;fill-rule:evenodd;fill:rgb(60%,60%,60%);fill-opacity:1;" d="M 1000.800781 492 C 1013.53125 491.566406 1024.726562 494.765625 1034.398438 501.601562 C 1021.671875 502.03125 1010.472656 498.835938 1000.800781 492 Z M 1000.800781 492 "/>
<path style=" stroke:none;fill-rule:evenodd;fill:rgb(24.705882%,24.705882%,24.705882%);fill-opacity:1;" d="M 986.398438 492 C 953.8125 490.566406 921.8125 493.765625 890.398438 501.601562 C 898.929688 496.320312 908.53125 492.316406 919.199219 489.601562 C 942.488281 485.6875 964.890625 486.488281 986.398438 492 Z M 986.398438 492 "/>
<path style=" stroke:none;fill-rule:evenodd;fill:rgb(60%,60%,60%);fill-opacity:1;" d="M 732 760.800781 C 738.835938 770.472656 742.03125 781.671875 741.601562 794.398438 C 734.765625 784.726562 731.566406 773.53125 732 760.800781 Z M 732 760.800781 "/>
<path style=" stroke:none;fill-rule:evenodd;fill:rgb(60%,60%,60%);fill-opacity:1;" d="M 1183.199219 760.800781 C 1183.632812 773.53125 1180.433594 784.726562 1173.601562 794.398438 C 1173.167969 781.671875 1176.363281 770.472656 1183.199219 760.800781 Z M 1183.199219 760.800781 "/>
<path style=" stroke:none;fill-rule:evenodd;fill:rgb(98.431373%,98.431373%,98.431373%);fill-opacity:1;" d="M 952.800781 1092 C 960.128906 1091.648438 964.929688 1094.851562 967.199219 1101.601562 C 995.765625 1131.714844 998.164062 1163.710938 974.398438 1197.601562 C 962.898438 1209.921875 950.898438 1221.121094 938.398438 1231.199219 C 925.503906 1231.988281 912.699219 1231.1875 900 1228.800781 C 895.601562 1227.464844 892.40625 1225.066406 890.398438 1221.601562 C 863.449219 1187.835938 859.449219 1151.039062 878.398438 1111.199219 C 888.859375 1108.242188 897.65625 1102.640625 904.800781 1094.398438 C 920.722656 1092.007812 936.71875 1091.207031 952.800781 1092 Z M 952.800781 1092 "/>
<path style=" stroke:none;fill-rule:evenodd;fill:rgb(25.882353%,25.882353%,25.882353%);fill-opacity:1;" d="M 876 1092 C 843.234375 1123.167969 835.234375 1159.96875 852 1202.398438 C 845.789062 1198.609375 840.1875 1193.808594 835.199219 1188 C 824.101562 1144.675781 837.699219 1112.671875 876 1092 Z M 876 1092 "/>
<path style=" stroke:none;fill-rule:evenodd;fill:rgb(75.294118%,75.294118%,75.294118%);fill-opacity:1;" d="M 952.800781 1092 C 936.71875 1091.207031 920.722656 1092.007812 904.800781 1094.398438 C 897.65625 1102.640625 888.859375 1108.242188 878.398438 1111.199219 C 859.449219 1151.039062 863.449219 1187.835938 890.398438 1221.601562 C 855.726562 1205.089844 843.726562 1177.890625 854.398438 1140 C 871.578125 1091.007812 904.378906 1075.007812 952.800781 1092 Z M 952.800781 1092 "/>
<path style=" stroke:none;fill-rule:evenodd;fill:rgb(70.588235%,70.588235%,70.588235%);fill-opacity:1;" d="M 967.199219 1101.601562 C 973.597656 1103.199219 980 1104.800781 986.398438 1106.398438 C 988.285156 1114.964844 991.484375 1122.960938 996 1130.398438 C 997.390625 1151.691406 994.992188 1172.496094 988.800781 1192.800781 C 975.949219 1204.847656 963.949219 1217.648438 952.800781 1231.199219 C 948 1231.199219 943.199219 1231.199219 938.398438 1231.199219 C 950.898438 1221.121094 962.898438 1209.921875 974.398438 1197.601562 C 998.164062 1163.710938 995.765625 1131.714844 967.199219 1101.601562 Z M 967.199219 1101.601562 "/>
<path style=" stroke:none;fill-rule:evenodd;fill:rgb(27.45098%,27.45098%,27.45098%);fill-opacity:1;" d="M 986.398438 1106.398438 C 998.835938 1110.019531 1007.636719 1118.019531 1012.800781 1130.398438 C 1025.933594 1185.84375 1005.929688 1221.042969 952.800781 1236 C 952.800781 1234.402344 952.800781 1232.796875 952.800781 1231.199219 C 965.472656 1222.820312 979.070312 1214.816406 993.601562 1207.199219 C 1004.160156 1184.144531 1007.363281 1160.144531 1003.199219 1135.199219 C 1001.363281 1132.53125 998.960938 1130.933594 996 1130.398438 C 991.484375 1122.960938 988.285156 1114.964844 986.398438 1106.398438 Z M 986.398438 1106.398438 "/>
<path style=" stroke:none;fill-rule:evenodd;fill:rgb(46.666667%,46.666667%,46.666667%);fill-opacity:1;" d="M 986.398438 1106.398438 C 980 1104.800781 973.597656 1103.199219 967.199219 1101.601562 C 964.929688 1094.851562 960.128906 1091.648438 952.800781 1092 C 904.378906 1075.007812 871.578125 1091.007812 854.398438 1140 C 843.726562 1177.890625 855.726562 1205.089844 890.398438 1221.601562 C 892.40625 1225.066406 895.601562 1227.464844 900 1228.800781 C 912.699219 1231.1875 925.503906 1231.988281 938.398438 1231.199219 C 943.199219 1231.199219 948 1231.199219 952.800781 1231.199219 C 952.800781 1232.796875 952.800781 1234.402344 952.800781 1236 C 920.375 1239.992188 889.972656 1234.390625 861.601562 1219.199219 C 855.25 1215.28125 852.054688 1209.679688 852 1202.398438 C 835.234375 1159.96875 843.234375 1123.167969 876 1092 C 878.007812 1088.535156 881.203125 1086.132812 885.601562 1084.800781 C 909.601562 1081.597656 933.601562 1081.597656 957.601562 1084.800781 C 969.414062 1089.460938 979.011719 1096.660156 986.398438 1106.398438 Z M 986.398438 1106.398438 "/>
<path style=" stroke:none;fill-rule:evenodd;fill:rgb(53.72549%,53.72549%,53.72549%);fill-opacity:1;" d="M 996 1130.398438 C 998.960938 1130.933594 1001.363281 1132.53125 1003.199219 1135.199219 C 1007.363281 1160.144531 1004.160156 1184.144531 993.601562 1207.199219 C 979.070312 1214.816406 965.472656 1222.820312 952.800781 1231.199219 C 963.949219 1217.648438 975.949219 1204.847656 988.800781 1192.800781 C 994.992188 1172.496094 997.390625 1151.691406 996 1130.398438 Z M 996 1130.398438 "/>
</g>
</svg>
