<?xml version="1.0" encoding="UTF-8"?>
<svg xmlns="http://www.w3.org/2000/svg" xmlns:xlink="http://www.w3.org/1999/xlink" width="1920pt" height="1440pt" viewBox="0 0 1920 1440" version="1.1">
<g id="surface1">
<path style=" stroke:none;fill-rule:evenodd;fill:rgb(0%,0%,0%);fill-opacity:1;" d="M -2.398438 -2.398438 C 637.597656 -2.398438 1277.601562 -2.398438 1917.601562 -2.398438 C 1917.601562 477.601562 1917.601562 957.601562 1917.601562 1437.601562 C 1277.601562 1437.601562 637.597656 1437.601562 -2.398438 1437.601562 C -2.398438 957.601562 -2.398438 477.601562 -2.398438 -2.398438 Z M -2.398438 -2.398438 "/>
<path style=" stroke:none;fill-rule:evenodd;fill:rgb(99.215686%,99.215686%,99.215686%);fill-opacity:1;" d="M 1236 290.398438 C 1239.203125 290.398438 1242.398438 290.398438 1245.601562 290.398438 C 1247.199219 290.398438 1248.800781 290.398438 1250.398438 290.398438 C 1261.527344 320.078125 1263.125 350.476562 1255.199219 381.601562 C 1238.753906 389.164062 1222.753906 397.964844 1207.199219 408 C 1179.417969 416.316406 1161.019531 407.515625 1152 381.601562 C 1142.667969 317.144531 1170.671875 286.742188 1236 290.398438 Z M 1236 290.398438 "/>
<path style=" stroke:none;fill-rule:evenodd;fill:rgb(85.882353%,85.882353%,85.882353%);fill-opacity:1;" d="M 1236 290.398438 C 1170.671875 286.742188 1142.667969 317.144531 1152 381.601562 C 1161.019531 407.515625 1179.417969 416.316406 1207.199219 408 C 1222.753906 397.964844 1238.753906 389.164062 1255.199219 381.601562 C 1252.570312 391.355469 1246.171875 396.15625 1236 396 C 1236.671875 403.792969 1233.46875 409.394531 1226.398438 412.800781 C 1207.265625 415.195312 1188.066406 415.996094 1168.800781 415.199219 C 1161.46875 415.550781 1156.671875 412.351562 1154.398438 405.601562 C 1147.558594 398.773438 1142.761719 390.773438 1140 381.601562 C 1130.796875 305.972656 1162.800781 275.574219 1236 290.398438 Z M 1236 290.398438 "/>
<path style=" stroke:none;fill-rule:evenodd;fill:rgb(50.196078%,50.196078%,50.196078%);fill-opacity:1;" d="M 1212 266.398438 C 1219.328125 266.050781 1224.128906 269.25 1226.398438 276 C 1208.726562 275.207031 1191.128906 276.007812 1173.601562 278.398438 C 1168.066406 287.4375 1160.070312 291.4375 1149.601562 290.398438 C 1140.390625 311.679688 1133.984375 334.082031 1130.398438 357.601562 C 1131.203125 364 1132 370.398438 1132.800781 376.800781 C 1134.636719 379.46875 1137.039062 381.070312 1140 381.601562 C 1142.761719 390.773438 1147.558594 398.773438 1154.398438 405.601562 C 1141.847656 401.039062 1132.246094 393.039062 1125.601562 381.601562 C 1117.691406 350.132812 1120.089844 319.734375 1132.800781 290.398438 C 1155.148438 269.496094 1181.546875 261.496094 1212 266.398438 Z M 1212 266.398438 "/>
<path style=" stroke:none;fill-rule:evenodd;fill:rgb(25.882353%,25.882353%,25.882353%);fill-opacity:1;" d="M 1212 266.398438 C 1181.546875 261.496094 1155.148438 269.496094 1132.800781 290.398438 C 1120.089844 319.734375 1117.691406 350.132812 1125.601562 381.601562 C 1095.734375 338.207031 1102.132812 300.609375 1144.800781 268.800781 C 1167.648438 260.792969 1190.042969 259.992188 1212 266.398438 Z M 1212 266.398438 "/>
<path style=" stroke:none;fill-rule:evenodd;fill:rgb(70.588235%,70.588235%,70.588235%);fill-opacity:1;" d="M 1226.398438 276 C 1234.703125 278.523438 1241.105469 283.324219 1245.601562 290.398438 C 1242.398438 290.398438 1239.203125 290.398438 1236 290.398438 C 1162.800781 275.574219 1130.796875 305.972656 1140 381.601562 C 1137.039062 381.070312 1134.636719 379.46875 1132.800781 376.800781 C 1132 370.398438 1131.203125 364 1130.398438 357.601562 C 1133.984375 334.082031 1140.390625 311.679688 1149.601562 290.398438 C 1160.070312 291.4375 1168.066406 287.4375 1173.601562 278.398438 C 1191.128906 276.007812 1208.726562 275.207031 1226.398438 276 Z M 1226.398438 276 "/>
<path style=" stroke:none;fill-rule:evenodd;fill:rgb(29.803922%,29.803922%,29.803922%);fill-opacity:1;" d="M 1264.800781 300 C 1294.503906 322.558594 1303.300781 351.359375 1291.199219 386.398438 C 1284.621094 393.796875 1277.417969 400.199219 1269.601562 405.601562 C 1284.042969 378.027344 1286.441406 349.226562 1276.800781 319.199219 C 1273.402344 314.972656 1269.398438 311.773438 1264.800781 309.601562 C 1264.800781 306.398438 1264.800781 303.199219 1264.800781 300 Z M 1264.800781 300 "/>
<path style=" stroke:none;fill-rule:evenodd;fill:rgb(76.078431%,76.078431%,76.078431%);fill-opacity:1;" d="M 1250.398438 290.398438 C 1255.199219 293.601562 1260 296.800781 1264.800781 300 C 1264.800781 303.199219 1264.800781 306.398438 1264.800781 309.601562 C 1273.929688 336.019531 1270.726562 360.019531 1255.199219 381.601562 C 1263.125 350.476562 1261.527344 320.078125 1250.398438 290.398438 Z M 1250.398438 290.398438 "/>
<path style=" stroke:none;fill-rule:evenodd;fill:rgb(97.647059%,97.647059%,97.647059%);fill-opacity:1;" d="M 1250.398438 626.398438 C 1258.28125 667.546875 1261.484375 709.148438 1260 751.199219 C 1230.738281 921.253906 1129.9375 1012.453125 957.601562 1024.800781 C 941.4375 1024.105469 925.433594 1022.503906 909.601562 1020 C 896.546875 1013.21875 882.148438 1010.015625 866.398438 1010.398438 C 730.335938 960.867188 658.335938 863.269531 650.398438 717.601562 C 651.546875 698.324219 653.144531 679.125 655.199219 660 C 663.183594 650.699219 666.378906 639.496094 664.800781 626.398438 C 711.601562 493.777344 805.199219 421.777344 945.601562 410.398438 C 1062.238281 410.277344 1153.441406 458.277344 1219.199219 554.398438 C 1234.65625 576.257812 1245.058594 600.257812 1250.398438 626.398438 Z M 1250.398438 626.398438 "/>
<path style=" stroke:none;fill-rule:evenodd;fill:rgb(58.431373%,58.431373%,58.431373%);fill-opacity:1;" d="M 1264.800781 309.601562 C 1269.398438 311.773438 1273.402344 314.972656 1276.800781 319.199219 C 1286.441406 349.226562 1284.042969 378.027344 1269.601562 405.601562 C 1253.917969 411.152344 1237.914062 416.75 1221.601562 422.398438 C 1207.285156 424.789062 1192.886719 425.589844 1178.398438 424.800781 C 1173.601562 423.199219 1170.398438 420 1168.800781 415.199219 C 1188.066406 415.996094 1207.265625 415.195312 1226.398438 412.800781 C 1233.46875 409.394531 1236.671875 403.792969 1236 396 C 1246.171875 396.15625 1252.570312 391.355469 1255.199219 381.601562 C 1270.726562 360.019531 1273.929688 336.019531 1264.800781 309.601562 Z M 1264.800781 309.601562 "/>
<path style=" stroke:none;fill-rule:evenodd;fill:rgb(31.764706%,31.764706%,31.764706%);fill-opacity:1;" d="M 1269.601562 405.601562 C 1260.5625 414.707031 1250.960938 423.507812 1240.800781 432 C 1218.546875 436.503906 1197.75 434.105469 1178.398438 424.800781 C 1192.886719 425.589844 1207.285156 424.789062 1221.601562 422.398438 C 1237.914062 416.75 1253.917969 411.152344 1269.601562 405.601562 Z M 1269.601562 405.601562 "/>
<path style=" stroke:none;fill-rule:evenodd;fill:rgb(69.411765%,69.411765%,69.411765%);fill-opacity:1;" d="M 981.601562 516 C 957.46875 516.015625 933.46875 517.613281 909.601562 520.800781 C 923.433594 514.019531 938.636719 510.820312 955.199219 511.199219 C 964.957031 511.230469 973.757812 512.828125 981.601562 516 Z M 981.601562 516 "/>
<path style=" stroke:none;fill-rule:evenodd;fill:rgb(0.784314%,0.784314%,0.784314%);fill-opacity:1;" d="M 981.601562 516 C 1117.785156 549.164062 1174.589844 635.5625 1152 775.199219 C 1127.289062 847.117188 1078.488281 893.515625 1005.601562 914.398438 C 973.574219 920.515625 941.574219 920.515625 909.601562 914.398438 C 832.96875 892.167969 783.371094 842.566406 760.800781 765.601562 C 754.683594 733.574219 754.683594 701.574219 760.800781 669.601562 C 763.402344 654.371094 768.203125 639.96875 775.199219 626.398438 C 781.949219 624.128906 785.152344 619.328125 784.800781 612 C 802.402344 584.796875 824.796875 562.402344 852 544.800781 C 859.328125 545.152344 864.128906 541.949219 866.398438 535.199219 C 879.96875 528.203125 894.371094 523.402344 909.601562 520.800781 C 933.46875 517.613281 957.46875 516.015625 981.601562 516 Z M 981.601562 516 "/>
<path style=" stroke:none;fill-rule:evenodd;fill:rgb(42.745098%,42.745098%,42.745098%);fill-opacity:1;" d="M 866.398438 535.199219 C 864.128906 541.949219 859.328125 545.152344 852 544.800781 C 854.269531 538.050781 859.070312 534.847656 866.398438 535.199219 Z M 866.398438 535.199219 "/>
<path style=" stroke:none;fill-rule:evenodd;fill:rgb(52.156863%,52.156863%,52.156863%);fill-opacity:1;" d="M 784.800781 612 C 785.152344 619.328125 781.949219 624.128906 775.199219 626.398438 C 774.847656 619.070312 778.050781 614.269531 784.800781 612 Z M 784.800781 612 "/>
<path style=" stroke:none;fill-rule:evenodd;fill:rgb(57.647059%,57.647059%,57.647059%);fill-opacity:1;" d="M 664.800781 626.398438 C 666.378906 639.496094 663.183594 650.699219 655.199219 660 C 654.769531 647.269531 657.964844 636.070312 664.800781 626.398438 Z M 664.800781 626.398438 "/>
<path style=" stroke:none;fill-rule:evenodd;fill:rgb(70.196078%,70.196078%,70.196078%);fill-opacity:1;" d="M 760.800781 669.601562 C 754.683594 701.574219 754.683594 733.574219 760.800781 765.601562 C 753.820312 750.152344 750.621094 733.355469 751.199219 715.199219 C 750.375 698.511719 753.570312 683.308594 760.800781 669.601562 Z M 760.800781 669.601562 "/>
<path style=" stroke:none;fill-rule:evenodd;fill:rgb(60.784314%,60.784314%,60.784314%);fill-opacity:1;" d="M 1250.398438 626.398438 C 1255.050781 636.78125 1259.050781 647.980469 1262.398438 660 C 1266.335938 691.265625 1265.535156 721.664062 1260 751.199219 C 1261.484375 709.148438 1258.28125 667.546875 1250.398438 626.398438 Z M 1250.398438 626.398438 "/>
<path style=" stroke:none;fill-rule:evenodd;fill:rgb(70.980392%,70.980392%,70.980392%);fill-opacity:1;" d="M 909.601562 914.398438 C 941.574219 920.515625 973.574219 920.515625 1005.601562 914.398438 C 990.152344 921.378906 973.355469 924.582031 955.199219 924 C 938.511719 924.824219 923.308594 921.628906 909.601562 914.398438 Z M 909.601562 914.398438 "/>
<path style=" stroke:none;fill-rule:evenodd;fill:rgb(66.27451%,66.27451%,66.27451%);fill-opacity:1;" d="M 866.398438 1010.398438 C 882.148438 1010.015625 896.546875 1013.21875 909.601562 1020 C 893.851562 1020.382812 879.453125 1017.183594 866.398438 1010.398438 Z M 866.398438 1010.398438 "/>
<path style=" stroke:none;fill-rule:evenodd;fill:rgb(99.215686%,99.215686%,99.215686%);fill-opacity:1;" d="M 765.601562 1044 C 767.582031 1070.578125 763.585938 1096.175781 753.601562 1120.800781 C 742.390625 1129.921875 731.992188 1139.519531 722.398438 1149.601562 C 708.941406 1155.0625 694.539062 1155.863281 679.199219 1152 C 674.972656 1148.601562 671.773438 1144.597656 669.601562 1140 C 653.292969 1100.519531 659.691406 1065.320312 688.800781 1034.398438 C 696.921875 1027.347656 706.523438 1024.152344 717.601562 1024.800781 C 737.429688 1024.042969 753.425781 1030.441406 765.601562 1044 Z M 765.601562 1044 "/>
<path style=" stroke:none;fill-rule:evenodd;fill:rgb(39.215686%,39.215686%,39.215686%);fill-opacity:1;" d="M 741.601562 1015.199219 C 656.304688 1006.078125 624.308594 1042.875 645.601562 1125.601562 C 629.777344 1117.238281 621.78125 1103.636719 621.601562 1084.800781 C 628.597656 1024.523438 662.199219 997.320312 722.398438 1003.199219 C 728.917969 1007.683594 735.320312 1011.6875 741.601562 1015.199219 Z M 741.601562 1015.199219 "/>
<path style=" stroke:none;fill-rule:evenodd;fill:rgb(65.882353%,65.882353%,65.882353%);fill-opacity:1;" d="M 741.601562 1015.199219 C 744.800781 1015.199219 746.398438 1016.796875 746.398438 1020 C 683.6875 1007.195312 651.6875 1031.996094 650.398438 1094.398438 C 651.507812 1110.152344 654.707031 1125.355469 660 1140 C 651.886719 1138.292969 647.089844 1133.492188 645.601562 1125.601562 C 624.308594 1042.875 656.304688 1006.078125 741.601562 1015.199219 Z M 741.601562 1015.199219 "/>
<path style=" stroke:none;fill-rule:evenodd;fill:rgb(58.431373%,58.431373%,58.431373%);fill-opacity:1;" d="M 765.601562 1034.398438 C 770.398438 1037.601562 775.199219 1040.796875 780 1044 C 811.53125 1126.179688 782.730469 1166.179688 693.601562 1164 C 678.378906 1161.570312 667.179688 1153.574219 660 1140 C 663.203125 1140 666.398438 1140 669.601562 1140 C 671.773438 1144.597656 674.972656 1148.601562 679.199219 1152 C 694.539062 1155.863281 708.941406 1155.0625 722.398438 1149.601562 C 779.730469 1131.023438 794.132812 1095.820312 765.601562 1044 C 765.601562 1040.796875 765.601562 1037.601562 765.601562 1034.398438 Z M 765.601562 1034.398438 "/>
<path style=" stroke:none;fill-rule:evenodd;fill:rgb(85.490196%,85.490196%,85.490196%);fill-opacity:1;" d="M 746.398438 1020 C 754.703125 1022.523438 761.105469 1027.324219 765.601562 1034.398438 C 765.601562 1037.601562 765.601562 1040.796875 765.601562 1044 C 753.425781 1030.441406 737.429688 1024.042969 717.601562 1024.800781 C 706.523438 1024.152344 696.921875 1027.347656 688.800781 1034.398438 C 659.691406 1065.320312 653.292969 1100.519531 669.601562 1140 C 666.398438 1140 663.203125 1140 660 1140 C 654.707031 1125.355469 651.507812 1110.152344 650.398438 1094.398438 C 651.6875 1031.996094 683.6875 1007.195312 746.398438 1020 Z M 746.398438 1020 "/>
<path style=" stroke:none;fill-rule:evenodd;fill:rgb(31.764706%,31.764706%,31.764706%);fill-opacity:1;" d="M 780 1044 C 791.25 1048.066406 798.453125 1056.066406 801.601562 1068 C 811.308594 1144.085938 778.511719 1178.488281 703.199219 1171.199219 C 698.804688 1169.867188 695.605469 1167.464844 693.601562 1164 C 782.730469 1166.179688 811.53125 1126.179688 780 1044 Z M 780 1044 "/>
<path style=" stroke:none;fill-rule:evenodd;fill:rgb(83.921569%,83.921569%,83.921569%);fill-opacity:1;" d="M 765.601562 1044 C 794.132812 1095.820312 779.730469 1131.023438 722.398438 1149.601562 C 731.992188 1139.519531 742.390625 1129.921875 753.601562 1120.800781 C 763.585938 1096.175781 767.582031 1070.578125 765.601562 1044 Z M 765.601562 1044 "/>
</g>
</svg>
