<?xml version="1.0" encoding="UTF-8"?>
<svg xmlns="http://www.w3.org/2000/svg" xmlns:xlink="http://www.w3.org/1999/xlink" width="1920pt" height="1440pt" viewBox="0 0 1920 1440" version="1.1">
<g id="surface1">
<path style=" stroke:none;fill-rule:evenodd;fill:rgb(0%,0%,0%);fill-opacity:1;" d="M -2.398438 -2.398438 C 637.597656 -2.398438 1277.601562 -2.398438 1917.601562 -2.398438 C 1917.601562 477.601562 1917.601562 957.601562 1917.601562 1437.601562 C 1277.601562 1437.601562 637.597656 1437.601562 -2.398438 1437.601562 C -2.398438 957.601562 -2.398438 477.601562 -2.398438 -2.398438 Z M -2.398438 -2.398438 "/>
<path style=" stroke:none;fill-rule:evenodd;fill:rgb(97.647059%,97.647059%,97.647059%);fill-opacity:1;" d="M 1274.398438 612 C 1272.820312 625.09375 1276.019531 636.296875 1284 645.601562 C 1296.398438 695 1296.398438 744.605469 1284 794.398438 C 1277.417969 806.09375 1272.621094 818.894531 1269.601562 832.800781 C 1219.675781 953.878906 1130.074219 1026.679688 1000.800781 1051.199219 C 961.8125 1055.703125 923.414062 1053.300781 885.601562 1044 C 875.929688 1037.164062 864.730469 1033.96875 852 1034.398438 C 719.007812 986.0625 643.003906 891.667969 624 751.199219 C 615.777344 601.195312 677.375 490.796875 808.800781 420 C 820.640625 418.777344 830.242188 413.976562 837.601562 405.601562 C 1015.203125 352.457031 1153.609375 403.65625 1252.800781 559.199219 C 1262.71875 575.8125 1269.917969 593.410156 1274.398438 612 Z M 1274.398438 612 "/>
<path style=" stroke:none;fill-rule:evenodd;fill:rgb(60.392157%,60.392157%,60.392157%);fill-opacity:1;" d="M 837.601562 405.601562 C 830.242188 413.976562 820.640625 418.777344 808.800781 420 C 816.160156 411.625 825.757812 406.824219 837.601562 405.601562 Z M 837.601562 405.601562 "/>
<path style=" stroke:none;fill-rule:evenodd;fill:rgb(52.54902%,52.54902%,52.54902%);fill-opacity:1;" d="M 1399.199219 487.199219 C 1418.503906 496.90625 1432.90625 511.304688 1442.398438 530.398438 C 1434.019531 521.992188 1424.417969 515.59375 1413.601562 511.199219 C 1411.769531 504.332031 1406.972656 500.332031 1399.199219 499.199219 C 1379.742188 495.867188 1360.539062 496.671875 1341.601562 501.601562 C 1341.601562 496.800781 1341.601562 492 1341.601562 487.199219 C 1360.800781 487.199219 1380 487.199219 1399.199219 487.199219 Z M 1399.199219 487.199219 "/>
<path style=" stroke:none;fill-rule:evenodd;fill:rgb(30.588235%,30.588235%,30.588235%);fill-opacity:1;" d="M 1005.601562 506.398438 C 968.597656 505.292969 931.796875 506.890625 895.199219 511.199219 C 897.207031 507.734375 900.402344 505.335938 904.800781 504 C 939.257812 500.058594 972.859375 500.855469 1005.601562 506.398438 Z M 1005.601562 506.398438 "/>
<path style=" stroke:none;fill-rule:evenodd;fill:rgb(33.333333%,33.333333%,33.333333%);fill-opacity:1;" d="M 1399.199219 487.199219 C 1380 487.199219 1360.800781 487.199219 1341.601562 487.199219 C 1341.601562 492 1341.601562 496.800781 1341.601562 501.601562 C 1332 504.800781 1325.601562 511.199219 1322.398438 520.800781 C 1313.417969 522.523438 1306.21875 527.324219 1300.800781 535.199219 C 1296.910156 553.71875 1297.714844 571.316406 1303.199219 588 C 1303.199219 591.203125 1303.199219 594.398438 1303.199219 597.601562 C 1280.433594 545.625 1294.832031 506.425781 1346.398438 480 C 1365.488281 475.777344 1383.089844 478.179688 1399.199219 487.199219 Z M 1399.199219 487.199219 "/>
<path style=" stroke:none;fill-rule:evenodd;fill:rgb(0.784314%,0.784314%,0.784314%);fill-opacity:1;" d="M 1005.601562 506.398438 C 1012 508 1018.402344 509.601562 1024.800781 511.199219 C 1034.441406 518.710938 1045.644531 523.511719 1058.398438 525.601562 C 1185.875 610.46875 1209.070312 719.269531 1128 852 C 1038.992188 945.300781 938.996094 958.902344 828 892.800781 C 732.25 805.628906 715.449219 705.625 777.601562 592.800781 C 807.0625 551.300781 846.265625 524.101562 895.199219 511.199219 C 931.796875 506.890625 968.597656 505.292969 1005.601562 506.398438 Z M 1005.601562 506.398438 "/>
<path style=" stroke:none;fill-rule:evenodd;fill:rgb(98.823529%,98.823529%,98.823529%);fill-opacity:1;" d="M 1413.601562 511.199219 C 1424.417969 515.59375 1434.019531 521.992188 1442.398438 530.398438 C 1447.386719 550.359375 1447.386719 569.558594 1442.398438 588 C 1427.785156 606.484375 1408.585938 618.484375 1384.800781 624 C 1360.273438 626.734375 1336.273438 624.335938 1312.800781 616.800781 C 1312.800781 613.597656 1312.800781 610.402344 1312.800781 607.199219 C 1302.71875 577.632812 1307.519531 551.230469 1327.199219 528 C 1353.542969 509.476562 1382.34375 503.878906 1413.601562 511.199219 Z M 1413.601562 511.199219 "/>
<path style=" stroke:none;fill-rule:evenodd;fill:rgb(65.098039%,65.098039%,65.098039%);fill-opacity:1;" d="M 1024.800781 511.199219 C 1039.15625 509.597656 1050.355469 514.398438 1058.398438 525.601562 C 1045.644531 523.511719 1034.441406 518.710938 1024.800781 511.199219 Z M 1024.800781 511.199219 "/>
<path style=" stroke:none;fill-rule:evenodd;fill:rgb(59.607843%,59.607843%,59.607843%);fill-opacity:1;" d="M 1322.398438 520.800781 C 1305.957031 539.847656 1299.550781 562.246094 1303.199219 588 C 1297.714844 571.316406 1296.910156 553.71875 1300.800781 535.199219 C 1306.21875 527.324219 1313.417969 522.523438 1322.398438 520.800781 Z M 1322.398438 520.800781 "/>
<path style=" stroke:none;fill-rule:evenodd;fill:rgb(83.137255%,83.137255%,83.137255%);fill-opacity:1;" d="M 1413.601562 511.199219 C 1382.34375 503.878906 1353.542969 509.476562 1327.199219 528 C 1307.519531 551.230469 1302.71875 577.632812 1312.800781 607.199219 C 1308 605.601562 1304.796875 602.398438 1303.199219 597.601562 C 1303.199219 594.398438 1303.199219 591.203125 1303.199219 588 C 1299.550781 562.246094 1305.957031 539.847656 1322.398438 520.800781 C 1325.601562 511.199219 1332 504.800781 1341.601562 501.601562 C 1360.539062 496.671875 1379.742188 495.867188 1399.199219 499.199219 C 1406.972656 500.332031 1411.769531 504.332031 1413.601562 511.199219 Z M 1413.601562 511.199219 "/>
<path style=" stroke:none;fill-rule:evenodd;fill:rgb(83.921569%,83.921569%,83.921569%);fill-opacity:1;" d="M 1442.398438 588 C 1441.195312 596.015625 1437.992188 603.214844 1432.800781 609.601562 C 1422.066406 620.480469 1409.265625 628.484375 1394.398438 633.601562 C 1371.867188 636.308594 1349.472656 635.503906 1327.199219 631.199219 C 1319.308594 629.710938 1314.507812 624.910156 1312.800781 616.800781 C 1336.273438 624.335938 1360.273438 626.734375 1384.800781 624 C 1408.585938 618.484375 1427.785156 606.484375 1442.398438 588 Z M 1442.398438 588 "/>
<path style=" stroke:none;fill-rule:evenodd;fill:rgb(55.686275%,55.686275%,55.686275%);fill-opacity:1;" d="M 1442.398438 530.398438 C 1445.867188 532.40625 1448.265625 535.601562 1449.601562 540 C 1453.304688 565.9375 1451.707031 591.542969 1444.800781 616.800781 C 1436.496094 625.929688 1427.699219 633.929688 1418.398438 640.800781 C 1393.09375 645.121094 1367.496094 646.71875 1341.601562 645.601562 C 1335.203125 642.398438 1330.402344 637.597656 1327.199219 631.199219 C 1349.472656 635.503906 1371.867188 636.308594 1394.398438 633.601562 C 1409.265625 628.484375 1422.066406 620.480469 1432.800781 609.601562 C 1437.992188 603.214844 1441.195312 596.015625 1442.398438 588 C 1447.386719 569.558594 1447.386719 550.359375 1442.398438 530.398438 Z M 1442.398438 530.398438 "/>
<path style=" stroke:none;fill-rule:evenodd;fill:rgb(54.117647%,54.117647%,54.117647%);fill-opacity:1;" d="M 1274.398438 612 C 1281.234375 621.671875 1284.433594 632.871094 1284 645.601562 C 1276.019531 636.296875 1272.820312 625.09375 1274.398438 612 Z M 1274.398438 612 "/>
<path style=" stroke:none;fill-rule:evenodd;fill:rgb(27.058824%,27.058824%,27.058824%);fill-opacity:1;" d="M 1418.398438 640.800781 C 1418.542969 645.585938 1416.144531 648.789062 1411.199219 650.398438 C 1400.203125 653.144531 1389 654.75 1377.601562 655.199219 C 1363.84375 656.160156 1351.84375 652.957031 1341.601562 645.601562 C 1367.496094 646.71875 1393.09375 645.121094 1418.398438 640.800781 Z M 1418.398438 640.800781 "/>
<path style=" stroke:none;fill-rule:evenodd;fill:rgb(29.803922%,29.803922%,29.803922%);fill-opacity:1;" d="M 568.800781 789.601562 C 525.605469 779.960938 492.003906 792.757812 468 828 C 488.042969 779.746094 521.644531 766.949219 568.800781 789.601562 Z M 568.800781 789.601562 "/>
<path style=" stroke:none;fill-rule:evenodd;fill:rgb(79.215686%,79.215686%,79.215686%);fill-opacity:1;" d="M 592.800781 808.800781 C 598.433594 813.667969 601.632812 820.066406 602.398438 828 C 597.351562 828.714844 592.550781 827.917969 588 825.601562 C 565.347656 801.796875 539.75 798.59375 511.199219 816 C 497.609375 825.605469 484.8125 836 472.800781 847.199219 C 483.078125 832.820312 492.675781 817.617188 501.601562 801.601562 C 533.4375 790.484375 563.839844 792.882812 592.800781 808.800781 Z M 592.800781 808.800781 "/>
<path style=" stroke:none;fill-rule:evenodd;fill:rgb(51.764706%,51.764706%,51.764706%);fill-opacity:1;" d="M 568.800781 789.601562 C 579.816406 792.652344 587.8125 799.050781 592.800781 808.800781 C 563.839844 792.882812 533.4375 790.484375 501.601562 801.601562 C 492.675781 817.617188 483.078125 832.820312 472.800781 847.199219 C 466.96875 864.160156 466.96875 881.753906 472.800781 900 C 469.835938 899.46875 467.4375 897.867188 465.601562 895.199219 C 462.160156 872.542969 462.960938 850.148438 468 828 C 492.003906 792.757812 525.605469 779.960938 568.800781 789.601562 Z M 568.800781 789.601562 "/>
<path style=" stroke:none;fill-rule:evenodd;fill:rgb(98.431373%,98.431373%,98.431373%);fill-opacity:1;" d="M 602.398438 828 C 611.261719 835.34375 616.0625 844.945312 616.800781 856.800781 C 618.214844 867.527344 616.613281 877.128906 612 885.601562 C 602.542969 901.570312 588.144531 910.371094 568.800781 912 C 564.78125 916.851562 563.183594 922.453125 564 928.800781 C 547.921875 929.59375 531.921875 928.789062 516 926.398438 C 501.464844 917.546875 487.066406 908.746094 472.800781 900 C 466.96875 881.753906 466.96875 864.160156 472.800781 847.199219 C 484.8125 836 497.609375 825.605469 511.199219 816 C 539.75 798.59375 565.347656 801.796875 588 825.601562 C 592.550781 827.917969 597.351562 828.714844 602.398438 828 Z M 602.398438 828 "/>
<path style=" stroke:none;fill-rule:evenodd;fill:rgb(31.764706%,31.764706%,31.764706%);fill-opacity:1;" d="M 1284 794.398438 C 1284.742188 809.835938 1279.945312 822.636719 1269.601562 832.800781 C 1272.621094 818.894531 1277.417969 806.09375 1284 794.398438 Z M 1284 794.398438 "/>
<path style=" stroke:none;fill-rule:evenodd;fill:rgb(26.666667%,26.666667%,26.666667%);fill-opacity:1;" d="M 616.800781 856.800781 C 625.238281 891.5 615.636719 921.101562 588 945.601562 C 581.792969 947.953125 575.390625 948.753906 568.800781 948 C 588.328125 939.667969 601.128906 925.265625 607.199219 904.800781 C 610.722656 899 612.320312 892.601562 612 885.601562 C 616.613281 877.128906 618.214844 867.527344 616.800781 856.800781 Z M 616.800781 856.800781 "/>
<path style=" stroke:none;fill-rule:evenodd;fill:rgb(27.058824%,27.058824%,27.058824%);fill-opacity:1;" d="M 472.800781 909.601562 C 482.816406 914.808594 489.214844 922.804688 492 933.601562 C 481.980469 928.390625 475.582031 920.394531 472.800781 909.601562 Z M 472.800781 909.601562 "/>
<path style=" stroke:none;fill-rule:evenodd;fill:rgb(76.862745%,76.862745%,76.862745%);fill-opacity:1;" d="M 612 885.601562 C 612.320312 892.601562 610.722656 899 607.199219 904.800781 C 575.625 938.039062 537.226562 947.640625 492 933.601562 C 489.214844 922.804688 482.816406 914.808594 472.800781 909.601562 C 472.800781 906.398438 472.800781 903.203125 472.800781 900 C 487.066406 908.746094 501.464844 917.546875 516 926.398438 C 531.921875 928.789062 547.921875 929.59375 564 928.800781 C 563.183594 922.453125 564.78125 916.851562 568.800781 912 C 588.144531 910.371094 602.542969 901.570312 612 885.601562 Z M 612 885.601562 "/>
<path style=" stroke:none;fill-rule:evenodd;fill:rgb(50.980392%,50.980392%,50.980392%);fill-opacity:1;" d="M 607.199219 904.800781 C 601.128906 925.265625 588.328125 939.667969 568.800781 948 C 549.601562 948 530.398438 948 511.199219 948 C 504.613281 943.140625 498.214844 938.34375 492 933.601562 C 537.226562 947.640625 575.625 938.039062 607.199219 904.800781 Z M 607.199219 904.800781 "/>
<path style=" stroke:none;fill-rule:evenodd;fill:rgb(21.176471%,21.176471%,21.176471%);fill-opacity:1;" d="M 511.199219 948 C 530.398438 948 549.601562 948 568.800781 948 C 568.265625 950.960938 566.667969 953.363281 564 955.199219 C 556.800781 956 549.601562 956.796875 542.398438 957.601562 C 530.1875 958.386719 519.792969 955.1875 511.199219 948 Z M 511.199219 948 "/>
<path style=" stroke:none;fill-rule:evenodd;fill:rgb(53.72549%,53.72549%,53.72549%);fill-opacity:1;" d="M 852 1034.398438 C 864.730469 1033.96875 875.929688 1037.164062 885.601562 1044 C 872.871094 1044.433594 861.671875 1041.234375 852 1034.398438 Z M 852 1034.398438 "/>
</g>
</svg>
