<?xml version="1.0" encoding="UTF-8"?>
<svg xmlns="http://www.w3.org/2000/svg" xmlns:xlink="http://www.w3.org/1999/xlink" width="1920pt" height="1440pt" viewBox="0 0 1920 1440" version="1.1">
<g id="surface1">
<path style=" stroke:none;fill-rule:evenodd;fill:rgb(0%,0%,0%);fill-opacity:1;" d="M -2.398438 -2.398438 C 637.597656 -2.398438 1277.601562 -2.398438 1917.601562 -2.398438 C 1917.601562 477.601562 1917.601562 957.601562 1917.601562 1437.601562 C 1277.601562 1437.601562 637.597656 1437.601562 -2.398438 1437.601562 C -2.398438 957.601562 -2.398438 477.601562 -2.398438 -2.398438 Z M -2.398438 -2.398438 "/>
<path style=" stroke:none;fill-rule:evenodd;fill:rgb(98.823529%,98.823529%,98.823529%);fill-opacity:1;" d="M 972 204 C 983.199219 204 994.402344 204 1005.601562 204 C 1048.890625 226.910156 1060.890625 262.109375 1041.601562 309.601562 C 1030.441406 319.203125 1021.640625 330.402344 1015.199219 343.199219 C 988.152344 352.152344 964.152344 347.351562 943.199219 328.800781 C 944.238281 318.332031 940.238281 310.332031 931.199219 304.800781 C 928 287.199219 928 269.601562 931.199219 252 C 944.011719 235.203125 957.609375 219.203125 972 204 Z M 972 204 "/>
<path style=" stroke:none;fill-rule:evenodd;fill:rgb(26.666667%,26.666667%,26.666667%);fill-opacity:1;" d="M 1020 204 C 1050.988281 208.5625 1070.992188 226.164062 1080 256.800781 C 1089.195312 291.113281 1078.800781 316.714844 1048.800781 333.601562 C 1048.800781 332 1048.800781 330.398438 1048.800781 328.800781 C 1050.398438 324 1053.601562 320.800781 1058.398438 319.199219 C 1065.921875 313.53125 1069.925781 305.53125 1070.398438 295.199219 C 1078.78125 265.644531 1071.582031 241.644531 1048.800781 223.199219 C 1037.871094 218.648438 1028.269531 212.246094 1020 204 Z M 1020 204 "/>
<path style=" stroke:none;fill-rule:evenodd;fill:rgb(76.470588%,76.470588%,76.470588%);fill-opacity:1;" d="M 972 204 C 957.609375 219.203125 944.011719 235.203125 931.199219 252 C 928 269.601562 928 287.199219 931.199219 304.800781 C 940.238281 310.332031 944.238281 318.332031 943.199219 328.800781 C 940 328.800781 936.800781 328.800781 933.601562 328.800781 C 933.601562 327.199219 933.601562 325.601562 933.601562 324 C 910.390625 280.082031 916.796875 240.878906 952.800781 206.398438 C 959.007812 204.046875 965.410156 203.246094 972 204 Z M 972 204 "/>
<path style=" stroke:none;fill-rule:evenodd;fill:rgb(51.372549%,51.372549%,51.372549%);fill-opacity:1;" d="M 1020 204 C 1015.199219 204 1010.398438 204 1005.601562 204 C 994.402344 204 983.199219 204 972 204 C 965.410156 203.246094 959.007812 204.046875 952.800781 206.398438 C 916.796875 240.878906 910.390625 280.082031 933.601562 324 C 927.738281 321.464844 922.140625 318.265625 916.800781 314.398438 C 901.746094 273.84375 908.945312 238.644531 938.398438 208.800781 C 952.132812 201.25 967.335938 198.050781 984 199.199219 C 996.910156 199.214844 1008.910156 200.8125 1020 204 Z M 1020 204 "/>
<path style=" stroke:none;fill-rule:evenodd;fill:rgb(47.058824%,47.058824%,47.058824%);fill-opacity:1;" d="M 1048.800781 223.199219 C 1071.582031 241.644531 1078.78125 265.644531 1070.398438 295.199219 C 1069.925781 305.53125 1065.921875 313.53125 1058.398438 319.199219 C 1065.972656 286.136719 1062.773438 254.136719 1048.800781 223.199219 Z M 1048.800781 223.199219 "/>
<path style=" stroke:none;fill-rule:evenodd;fill:rgb(26.666667%,26.666667%,26.666667%);fill-opacity:1;" d="M 938.398438 208.800781 C 908.945312 238.644531 901.746094 273.84375 916.800781 314.398438 C 922.140625 318.265625 927.738281 321.464844 933.601562 324 C 933.601562 325.601562 933.601562 327.199219 933.601562 328.800781 C 935.199219 332 936.800781 335.199219 938.398438 338.398438 C 911.601562 325.671875 898.800781 304.074219 900 273.601562 C 898.800781 243.128906 911.601562 221.527344 938.398438 208.800781 Z M 938.398438 208.800781 "/>
<path style=" stroke:none;fill-rule:evenodd;fill:rgb(76.862745%,76.862745%,76.862745%);fill-opacity:1;" d="M 1005.601562 204 C 1010.398438 204 1015.199219 204 1020 204 C 1028.269531 212.246094 1037.871094 218.648438 1048.800781 223.199219 C 1062.773438 254.136719 1065.972656 286.136719 1058.398438 319.199219 C 1053.601562 320.800781 1050.398438 324 1048.800781 328.800781 C 1038.300781 334.839844 1027.105469 339.636719 1015.199219 343.199219 C 1021.640625 330.402344 1030.441406 319.203125 1041.601562 309.601562 C 1060.890625 262.109375 1048.890625 226.910156 1005.601562 204 Z M 1005.601562 204 "/>
<path style=" stroke:none;fill-rule:evenodd;fill:rgb(51.372549%,51.372549%,51.372549%);fill-opacity:1;" d="M 933.601562 328.800781 C 936.800781 328.800781 940 328.800781 943.199219 328.800781 C 964.152344 347.351562 988.152344 352.152344 1015.199219 343.199219 C 1027.105469 339.636719 1038.300781 334.839844 1048.800781 328.800781 C 1048.800781 330.398438 1048.800781 332 1048.800781 333.601562 C 1030.980469 347.15625 1010.183594 353.558594 986.398438 352.800781 C 968.503906 353.40625 952.507812 348.605469 938.398438 338.398438 C 936.800781 335.199219 935.199219 332 933.601562 328.800781 Z M 933.601562 328.800781 "/>
<path style=" stroke:none;fill-rule:evenodd;fill:rgb(97.647059%,97.647059%,97.647059%);fill-opacity:1;" d="M 914.398438 386.398438 C 1091.207031 379.925781 1212.007812 458.328125 1276.800781 621.601562 C 1313.722656 815.785156 1242.523438 952.585938 1063.199219 1032 C 922.996094 1073.558594 803.792969 1040.761719 705.601562 933.601562 C 603.878906 794.816406 600.675781 654.019531 696 511.199219 C 754.886719 443.800781 827.6875 402.199219 914.398438 386.398438 Z M 914.398438 386.398438 "/>
<path style=" stroke:none;fill-rule:evenodd;fill:rgb(0.784314%,0.784314%,0.784314%);fill-opacity:1;" d="M 981.601562 492 C 988 492 994.402344 492 1000.800781 492 C 1010.472656 498.835938 1021.671875 502.03125 1034.398438 501.601562 C 1148.394531 550.324219 1197.992188 636.726562 1183.199219 760.800781 C 1176.363281 770.472656 1173.167969 781.671875 1173.601562 794.398438 C 1134.148438 889.65625 1062.148438 940.851562 957.601562 948 C 853.261719 941.136719 781.261719 889.933594 741.601562 794.398438 C 742.03125 781.671875 738.835938 770.472656 732 760.800781 C 717.488281 661.042969 751.089844 581.839844 832.800781 523.199219 C 850.652344 511.851562 869.851562 504.652344 890.398438 501.601562 C 920.210938 493.914062 950.609375 490.714844 981.601562 492 Z M 981.601562 492 "/>
<path style=" stroke:none;fill-rule:evenodd;fill:rgb(60%,60%,60%);fill-opacity:1;" d="M 1000.800781 492 C 1013.53125 491.566406 1024.726562 494.765625 1034.398438 501.601562 C 1021.671875 502.03125 1010.472656 498.835938 1000.800781 492 Z M 1000.800781 492 "/>
<path style=" stroke:none;fill-rule:evenodd;fill:rgb(23.921569%,23.921569%,23.921569%);fill-opacity:1;" d="M 981.601562 492 C 950.609375 490.714844 920.210938 493.914062 890.398438 501.601562 C 919.722656 487.160156 950.121094 483.964844 981.601562 492 Z M 981.601562 492 "/>
<path style=" stroke:none;fill-rule:evenodd;fill:rgb(60.392157%,60.392157%,60.392157%);fill-opacity:1;" d="M 732 760.800781 C 738.835938 770.472656 742.03125 781.671875 741.601562 794.398438 C 734.765625 784.726562 731.566406 773.53125 732 760.800781 Z M 732 760.800781 "/>
<path style=" stroke:none;fill-rule:evenodd;fill:rgb(60%,60%,60%);fill-opacity:1;" d="M 1183.199219 760.800781 C 1183.632812 773.53125 1180.433594 784.726562 1173.601562 794.398438 C 1173.167969 781.671875 1176.363281 770.472656 1183.199219 760.800781 Z M 1183.199219 760.800781 "/>
<path style=" stroke:none;fill-rule:evenodd;fill:rgb(41.176471%,41.176471%,41.176471%);fill-opacity:1;" d="M 943.199219 1087.199219 C 932 1087.199219 920.796875 1087.199219 909.601562 1087.199219 C 858.589844 1102.1875 841.789062 1135.785156 859.199219 1188 C 862.859375 1205.984375 873.257812 1217.183594 890.398438 1221.601562 C 892 1224.800781 893.601562 1228 895.199219 1231.199219 C 882.113281 1232.332031 870.917969 1228.335938 861.601562 1219.199219 C 816.96875 1164.804688 824.972656 1120.003906 885.601562 1084.800781 C 905.707031 1080.902344 924.90625 1081.703125 943.199219 1087.199219 Z M 943.199219 1087.199219 "/>
<path style=" stroke:none;fill-rule:evenodd;fill:rgb(98.823529%,98.823529%,98.823529%);fill-opacity:1;" d="M 909.601562 1087.199219 C 920.796875 1087.199219 932 1087.199219 943.199219 1087.199219 C 983.777344 1109.289062 996.574219 1142.890625 981.601562 1188 C 961.441406 1220.480469 932.640625 1234.882812 895.199219 1231.199219 C 893.601562 1228 892 1224.800781 890.398438 1221.601562 C 853.746094 1170.6875 860.144531 1125.886719 909.601562 1087.199219 Z M 909.601562 1087.199219 "/>
<path style=" stroke:none;fill-rule:evenodd;fill:rgb(76.862745%,76.862745%,76.862745%);fill-opacity:1;" d="M 909.601562 1087.199219 C 860.144531 1125.886719 853.746094 1170.6875 890.398438 1221.601562 C 873.257812 1217.183594 862.859375 1205.984375 859.199219 1188 C 841.789062 1135.785156 858.589844 1102.1875 909.601562 1087.199219 Z M 909.601562 1087.199219 "/>
<path style=" stroke:none;fill-rule:evenodd;fill:rgb(68.627451%,68.627451%,68.627451%);fill-opacity:1;" d="M 943.199219 1087.199219 C 959.386719 1092.609375 975.390625 1099.007812 991.199219 1106.398438 C 1000.433594 1143.214844 997.238281 1178.414062 981.601562 1212 C 970.988281 1217.566406 961.386719 1223.964844 952.800781 1231.199219 C 933.113281 1237.398438 913.914062 1237.398438 895.199219 1231.199219 C 932.640625 1234.882812 961.441406 1220.480469 981.601562 1188 C 996.574219 1142.890625 983.777344 1109.289062 943.199219 1087.199219 Z M 943.199219 1087.199219 "/>
<path style=" stroke:none;fill-rule:evenodd;fill:rgb(42.352941%,42.352941%,42.352941%);fill-opacity:1;" d="M 991.199219 1106.398438 C 1024.089844 1143.65625 1022.492188 1180.453125 986.398438 1216.800781 C 978.019531 1228.097656 966.820312 1232.898438 952.800781 1231.199219 C 961.386719 1223.964844 970.988281 1217.566406 981.601562 1212 C 997.238281 1178.414062 1000.433594 1143.214844 991.199219 1106.398438 Z M 991.199219 1106.398438 "/>
</g>
</svg>
