<?xml version="1.0" encoding="UTF-8"?>
<svg xmlns="http://www.w3.org/2000/svg" xmlns:xlink="http://www.w3.org/1999/xlink" width="1920pt" height="1440pt" viewBox="0 0 1920 1440" version="1.1">
<g id="surface1">
<path style=" stroke:none;fill-rule:evenodd;fill:rgb(0%,0%,0%);fill-opacity:1;" d="M -2.398438 -2.398438 C 637.597656 -2.398438 1277.601562 -2.398438 1917.601562 -2.398438 C 1917.601562 477.601562 1917.601562 957.601562 1917.601562 1437.601562 C 1277.601562 1437.601562 637.597656 1437.601562 -2.398438 1437.601562 C -2.398438 957.601562 -2.398438 477.601562 -2.398438 -2.398438 Z M -2.398438 -2.398438 "/>
<path style=" stroke:none;fill-rule:evenodd;fill:rgb(69.411765%,69.411765%,69.411765%);fill-opacity:1;" d="M 996 405.601562 C 959.140625 406.0625 922.339844 407.660156 885.601562 410.398438 C 907.621094 403.546875 930.820312 400.347656 955.199219 400.800781 C 969.699219 400.8125 983.300781 402.410156 996 405.601562 Z M 996 405.601562 "/>
<path style=" stroke:none;fill-rule:evenodd;fill:rgb(97.647059%,97.647059%,97.647059%);fill-opacity:1;" d="M 996 405.601562 C 1120.078125 424.429688 1206.480469 491.628906 1255.199219 607.199219 C 1254.769531 619.929688 1257.964844 631.128906 1264.800781 640.800781 C 1293.210938 789.046875 1245.210938 905.050781 1120.800781 988.800781 C 1104.730469 996.527344 1088.730469 1003.726562 1072.800781 1010.398438 C 1065.46875 1010.050781 1060.671875 1013.25 1058.398438 1020 C 1055.199219 1020 1052 1020 1048.800781 1020 C 1036.070312 1019.566406 1024.871094 1022.765625 1015.199219 1029.601562 C 976.703125 1035.652344 938.304688 1035.652344 900 1029.601562 C 888.777344 1022.207031 875.976562 1019.011719 861.601562 1020 C 764.558594 986.945312 697.359375 922.949219 660 828 C 660.988281 813.625 657.792969 800.824219 650.398438 789.601562 C 640.167969 748.425781 638.566406 706.828125 645.601562 664.800781 C 652.433594 655.128906 655.632812 643.929688 655.199219 631.199219 C 672.910156 558.164062 712.910156 499.761719 775.199219 456 C 786.652344 450.273438 797.855469 444.671875 808.800781 439.199219 C 820.640625 437.976562 830.242188 433.175781 837.601562 424.800781 C 853.703125 423.890625 868.105469 419.089844 880.800781 410.398438 C 882.398438 410.398438 884 410.398438 885.601562 410.398438 C 922.339844 407.660156 959.140625 406.0625 996 405.601562 Z M 996 405.601562 "/>
<path style=" stroke:none;fill-rule:evenodd;fill:rgb(56.078431%,56.078431%,56.078431%);fill-opacity:1;" d="M 880.800781 410.398438 C 868.105469 419.089844 853.703125 423.890625 837.601562 424.800781 C 850.003906 415.332031 864.402344 410.53125 880.800781 410.398438 Z M 880.800781 410.398438 "/>
<path style=" stroke:none;fill-rule:evenodd;fill:rgb(60.392157%,60.392157%,60.392157%);fill-opacity:1;" d="M 837.601562 424.800781 C 830.242188 433.175781 820.640625 437.976562 808.800781 439.199219 C 816.160156 430.824219 825.757812 426.023438 837.601562 424.800781 Z M 837.601562 424.800781 "/>
<path style=" stroke:none;fill-rule:evenodd;fill:rgb(35.294118%,35.294118%,35.294118%);fill-opacity:1;" d="M 1000.800781 501.601562 C 965.433594 500.722656 930.234375 502.320312 895.199219 506.398438 C 898.863281 502.714844 903.664062 500.3125 909.601562 499.199219 C 940.867188 495.265625 971.265625 496.066406 1000.800781 501.601562 Z M 1000.800781 501.601562 "/>
<path style=" stroke:none;fill-rule:evenodd;fill:rgb(0.784314%,0.784314%,0.784314%);fill-opacity:1;" d="M 1000.800781 501.601562 C 1120.007812 534.4375 1179.207031 612.839844 1178.398438 736.800781 C 1173.71875 750.292969 1170.519531 764.691406 1168.800781 780 C 1127.414062 890.027344 1047.414062 942.824219 928.800781 938.398438 C 917.578125 931.007812 904.777344 927.8125 890.398438 928.800781 C 794.007812 890.511719 742.804688 819.308594 736.800781 715.199219 C 743.542969 610.125 796.34375 540.523438 895.199219 506.398438 C 930.234375 502.320312 965.433594 500.722656 1000.800781 501.601562 Z M 1000.800781 501.601562 "/>
<path style=" stroke:none;fill-rule:evenodd;fill:rgb(54.509804%,54.509804%,54.509804%);fill-opacity:1;" d="M 520.800781 511.199219 C 532.636719 505.757812 545.4375 504.957031 559.199219 508.800781 C 573.488281 518.0625 587.890625 526.867188 602.398438 535.199219 C 610.808594 553.089844 614.011719 572.289062 612 592.800781 C 612 596 610.402344 597.601562 607.199219 597.601562 C 605.816406 541.8125 577.019531 513.015625 520.800781 511.199219 Z M 520.800781 511.199219 "/>
<path style=" stroke:none;fill-rule:evenodd;fill:rgb(38.039216%,38.039216%,38.039216%);fill-opacity:1;" d="M 573.601562 501.601562 C 583.804688 512.898438 593.40625 524.097656 602.398438 535.199219 C 587.890625 526.867188 573.488281 518.0625 559.199219 508.800781 C 545.4375 504.957031 532.636719 505.757812 520.800781 511.199219 C 501.023438 512.101562 485.019531 520.105469 472.800781 535.199219 C 487.675781 505.296875 512.472656 490.894531 547.199219 492 C 557.859375 491.488281 566.660156 494.6875 573.601562 501.601562 Z M 573.601562 501.601562 "/>
<path style=" stroke:none;fill-rule:evenodd;fill:rgb(98.039216%,98.039216%,98.039216%);fill-opacity:1;" d="M 602.398438 616.800781 C 599.199219 623.199219 596 629.601562 592.800781 636 C 588 636 583.199219 636 578.398438 636 C 558.648438 646.128906 537.847656 647.726562 516 640.800781 C 501.761719 632.175781 488.164062 622.574219 475.199219 612 C 457.476562 538.535156 485.476562 512.136719 559.199219 532.800781 C 573.34375 545.933594 586.949219 559.535156 600 573.601562 C 602.390625 587.914062 603.191406 602.3125 602.398438 616.800781 Z M 602.398438 616.800781 "/>
<path style=" stroke:none;fill-rule:evenodd;fill:rgb(18.039216%,18.039216%,18.039216%);fill-opacity:1;" d="M 573.601562 501.601562 C 604.1875 510.789062 620.183594 532.386719 621.601562 566.398438 C 622.113281 577.0625 618.910156 585.859375 612 592.800781 C 614.011719 572.289062 610.808594 553.089844 602.398438 535.199219 C 593.40625 524.097656 583.804688 512.898438 573.601562 501.601562 Z M 573.601562 501.601562 "/>
<path style=" stroke:none;fill-rule:evenodd;fill:rgb(70.980392%,70.980392%,70.980392%);fill-opacity:1;" d="M 520.800781 511.199219 C 577.019531 513.015625 605.816406 541.8125 607.199219 597.601562 C 607.199219 604 607.199219 610.402344 607.199219 616.800781 C 605.601562 616.800781 604 616.800781 602.398438 616.800781 C 603.191406 602.3125 602.390625 587.914062 600 573.601562 C 586.949219 559.535156 573.34375 545.933594 559.199219 532.800781 C 485.476562 512.136719 457.476562 538.535156 475.199219 612 C 488.164062 622.574219 501.761719 632.175781 516 640.800781 C 537.847656 647.726562 558.648438 646.128906 578.398438 636 C 567.558594 648.816406 553.15625 655.214844 535.199219 655.199219 C 513.625 652.398438 494.425781 644.398438 477.601562 631.199219 C 471.023438 629.492188 466.222656 625.488281 463.199219 619.199219 C 459.039062 604.296875 457.4375 589.09375 458.398438 573.601562 C 460.332031 559.265625 465.132812 546.46875 472.800781 535.199219 C 485.019531 520.105469 501.023438 512.101562 520.800781 511.199219 Z M 520.800781 511.199219 "/>
<path style=" stroke:none;fill-rule:evenodd;fill:rgb(49.019608%,49.019608%,49.019608%);fill-opacity:1;" d="M 1255.199219 607.199219 C 1262.035156 616.871094 1265.230469 628.070312 1264.800781 640.800781 C 1257.964844 631.128906 1254.769531 619.929688 1255.199219 607.199219 Z M 1255.199219 607.199219 "/>
<path style=" stroke:none;fill-rule:evenodd;fill:rgb(61.568627%,61.568627%,61.568627%);fill-opacity:1;" d="M 655.199219 631.199219 C 655.632812 643.929688 652.433594 655.128906 645.601562 664.800781 C 645.167969 652.070312 648.363281 640.871094 655.199219 631.199219 Z M 655.199219 631.199219 "/>
<path style=" stroke:none;fill-rule:evenodd;fill:rgb(37.254902%,37.254902%,37.254902%);fill-opacity:1;" d="M 458.398438 573.601562 C 457.4375 589.09375 459.039062 604.296875 463.199219 619.199219 C 466.222656 625.488281 471.023438 629.492188 477.601562 631.199219 C 477.652344 638.480469 480.847656 644.082031 487.199219 648 C 514.988281 662.007812 543.789062 663.605469 573.601562 652.800781 C 582.355469 649.632812 588.753906 644.03125 592.800781 636 C 596 629.601562 599.199219 623.199219 602.398438 616.800781 C 604 616.800781 605.601562 616.800781 607.199219 616.800781 C 603.988281 637.707031 592.789062 652.109375 573.601562 660 C 546.886719 670.191406 519.6875 671.792969 492 664.800781 C 478.199219 661.414062 467.796875 653.417969 460.800781 640.800781 C 453.652344 617.8125 452.851562 595.410156 458.398438 573.601562 Z M 458.398438 573.601562 "/>
<path style=" stroke:none;fill-rule:evenodd;fill:rgb(56.862745%,56.862745%,56.862745%);fill-opacity:1;" d="M 477.601562 631.199219 C 494.425781 644.398438 513.625 652.398438 535.199219 655.199219 C 553.15625 655.214844 567.558594 648.816406 578.398438 636 C 583.199219 636 588 636 592.800781 636 C 588.753906 644.03125 582.355469 649.632812 573.601562 652.800781 C 543.789062 663.605469 514.988281 662.007812 487.199219 648 C 480.847656 644.082031 477.652344 638.480469 477.601562 631.199219 Z M 477.601562 631.199219 "/>
<path style=" stroke:none;fill-rule:evenodd;fill:rgb(24.705882%,24.705882%,24.705882%);fill-opacity:1;" d="M 573.601562 660 C 563.164062 673.871094 548.765625 680.269531 530.398438 679.199219 C 520.800781 678.398438 511.199219 677.601562 501.601562 676.800781 C 495.570312 674.796875 492.371094 670.800781 492 664.800781 C 519.6875 671.792969 546.886719 670.191406 573.601562 660 Z M 573.601562 660 "/>
<path style=" stroke:none;fill-rule:evenodd;fill:rgb(64.705882%,64.705882%,64.705882%);fill-opacity:1;" d="M 1178.398438 736.800781 C 1179.1875 749.699219 1178.386719 762.5 1176 775.199219 C 1174.160156 777.867188 1171.761719 779.46875 1168.800781 780 C 1170.519531 764.691406 1173.71875 750.292969 1178.398438 736.800781 Z M 1178.398438 736.800781 "/>
<path style=" stroke:none;fill-rule:evenodd;fill:rgb(29.019608%,29.019608%,29.019608%);fill-opacity:1;" d="M 1456.800781 852 C 1461.652344 824.203125 1453.652344 801.003906 1432.800781 782.398438 C 1420.59375 781.726562 1409.390625 778.53125 1399.199219 772.800781 C 1377.253906 768.542969 1356.457031 771.742188 1336.800781 782.398438 C 1330.449219 786.316406 1327.253906 791.917969 1327.199219 799.199219 C 1320.453125 801.46875 1317.25 806.269531 1317.601562 813.601562 C 1316 816.800781 1314.398438 820 1312.800781 823.199219 C 1311.203125 823.199219 1309.597656 823.199219 1308 823.199219 C 1325.878906 760.890625 1365.878906 740.890625 1428 763.199219 C 1459.28125 786.398438 1468.882812 816 1456.800781 852 Z M 1456.800781 852 "/>
<path style=" stroke:none;fill-rule:evenodd;fill:rgb(75.686275%,75.686275%,75.686275%);fill-opacity:1;" d="M 1452 866.398438 C 1452.46875 876.253906 1449.269531 884.257812 1442.398438 890.398438 C 1418.34375 913.953125 1389.542969 922.753906 1356 916.800781 C 1339.761719 908.152344 1324.558594 897.75 1310.398438 885.601562 C 1308.003906 864.859375 1307.203125 844.0625 1308 823.199219 C 1309.597656 823.199219 1311.203125 823.199219 1312.800781 823.199219 C 1311.488281 882.496094 1340.289062 910.496094 1399.199219 907.199219 C 1440.625 896.441406 1454.226562 871.640625 1440 832.800781 C 1427.40625 827.46875 1420.203125 817.867188 1418.398438 804 C 1382.417969 788.664062 1348.820312 791.867188 1317.601562 813.601562 C 1317.25 806.269531 1320.453125 801.46875 1327.199219 799.199219 C 1355.597656 782.546875 1386 780.148438 1418.398438 792 C 1445.628906 808.902344 1456.828125 833.703125 1452 866.398438 Z M 1452 866.398438 "/>
<path style=" stroke:none;fill-rule:evenodd;fill:rgb(98.431373%,98.431373%,98.431373%);fill-opacity:1;" d="M 1312.800781 823.199219 C 1314.398438 820 1316 816.800781 1317.601562 813.601562 C 1348.820312 791.867188 1382.417969 788.664062 1418.398438 804 C 1420.203125 817.867188 1427.40625 827.46875 1440 832.800781 C 1454.226562 871.640625 1440.625 896.441406 1399.199219 907.199219 C 1340.289062 910.496094 1311.488281 882.496094 1312.800781 823.199219 Z M 1312.800781 823.199219 "/>
<path style=" stroke:none;fill-rule:evenodd;fill:rgb(47.45098%,47.45098%,47.45098%);fill-opacity:1;" d="M 650.398438 789.601562 C 657.792969 800.824219 660.988281 813.625 660 828 C 653.914062 816.457031 650.710938 803.65625 650.398438 789.601562 Z M 650.398438 789.601562 "/>
<path style=" stroke:none;fill-rule:evenodd;fill:rgb(53.72549%,53.72549%,53.72549%);fill-opacity:1;" d="M 1456.800781 852 C 1457.9375 858.195312 1456.339844 862.996094 1452 866.398438 C 1456.828125 833.703125 1445.628906 808.902344 1418.398438 792 C 1386 780.148438 1355.597656 782.546875 1327.199219 799.199219 C 1327.253906 791.917969 1330.449219 786.316406 1336.800781 782.398438 C 1356.457031 771.742188 1377.253906 768.542969 1399.199219 772.800781 C 1409.390625 778.53125 1420.59375 781.726562 1432.800781 782.398438 C 1453.652344 801.003906 1461.652344 824.203125 1456.800781 852 Z M 1456.800781 852 "/>
<path style=" stroke:none;fill-rule:evenodd;fill:rgb(47.45098%,47.45098%,47.058824%);fill-opacity:1;" d="M 1308 823.199219 C 1307.203125 844.0625 1308.003906 864.859375 1310.398438 885.601562 C 1324.558594 897.75 1339.761719 908.152344 1356 916.800781 C 1389.542969 922.753906 1418.34375 913.953125 1442.398438 890.398438 C 1436.53125 907.433594 1426.929688 921.835938 1413.601562 933.601562 C 1387.824219 940.429688 1362.226562 939.628906 1336.800781 931.199219 C 1327.761719 916.578125 1316.5625 904.578125 1303.199219 895.199219 C 1296.308594 870.109375 1297.90625 846.109375 1308 823.199219 Z M 1308 823.199219 "/>
<path style=" stroke:none;fill-rule:evenodd;fill:rgb(55.294118%,55.294118%,55.294118%);fill-opacity:1;" d="M 890.398438 928.800781 C 904.777344 927.8125 917.578125 931.007812 928.800781 938.398438 C 914.425781 939.390625 901.621094 936.191406 890.398438 928.800781 Z M 890.398438 928.800781 "/>
<path style=" stroke:none;fill-rule:evenodd;fill:rgb(20.392157%,20.392157%,20.392157%);fill-opacity:1;" d="M 1303.199219 895.199219 C 1316.5625 904.578125 1327.761719 916.578125 1336.800781 931.199219 C 1362.226562 939.628906 1387.824219 940.429688 1413.601562 933.601562 C 1403.488281 943.929688 1390.683594 948.730469 1375.199219 948 C 1338.71875 946.640625 1314.71875 929.042969 1303.199219 895.199219 Z M 1303.199219 895.199219 "/>
<path style=" stroke:none;fill-rule:evenodd;fill:rgb(38.431373%,38.431373%,38.431373%);fill-opacity:1;" d="M 1072.800781 1010.398438 C 1070.53125 1017.148438 1065.730469 1020.351562 1058.398438 1020 C 1060.671875 1013.25 1065.46875 1010.050781 1072.800781 1010.398438 Z M 1072.800781 1010.398438 "/>
<path style=" stroke:none;fill-rule:evenodd;fill:rgb(44.313725%,44.313725%,44.313725%);fill-opacity:1;" d="M 861.601562 1020 C 875.976562 1019.011719 888.777344 1022.207031 900 1029.601562 C 885.945312 1029.289062 873.144531 1026.085938 861.601562 1020 Z M 861.601562 1020 "/>
<path style=" stroke:none;fill-rule:evenodd;fill:rgb(32.941176%,32.941176%,32.941176%);fill-opacity:1;" d="M 1048.800781 1020 C 1039.128906 1026.835938 1027.929688 1030.03125 1015.199219 1029.601562 C 1024.871094 1022.765625 1036.070312 1019.566406 1048.800781 1020 Z M 1048.800781 1020 "/>
</g>
</svg>
