<?xml version="1.0" encoding="UTF-8"?>
<svg xmlns="http://www.w3.org/2000/svg" xmlns:xlink="http://www.w3.org/1999/xlink" width="1920pt" height="1440pt" viewBox="0 0 1920 1440" version="1.1">
<g id="surface1">
<path style=" stroke:none;fill-rule:evenodd;fill:rgb(0%,0%,0%);fill-opacity:1;" d="M -2.398438 -2.398438 C 637.597656 -2.398438 1277.601562 -2.398438 1917.601562 -2.398438 C 1917.601562 477.601562 1917.601562 957.601562 1917.601562 1437.601562 C 1277.601562 1437.601562 637.597656 1437.601562 -2.398438 1437.601562 C -2.398438 957.601562 -2.398438 477.601562 -2.398438 -2.398438 Z M -2.398438 -2.398438 "/>
<path style=" stroke:none;fill-rule:evenodd;fill:rgb(98.039216%,98.039216%,98.039216%);fill-opacity:1;" d="M 1034.398438 391.199219 C 1042.628906 397.144531 1052.226562 400.34375 1063.199219 400.800781 C 1111.65625 417.816406 1154.855469 443.417969 1192.800781 477.601562 C 1195.585938 488.394531 1201.980469 496.390625 1212 501.601562 C 1238.492188 528.941406 1257.691406 560.941406 1269.601562 597.601562 C 1268.441406 609.109375 1271.644531 618.710938 1279.199219 626.398438 C 1296.339844 681.332031 1297.945312 737.332031 1284 794.398438 C 1278.058594 802.628906 1274.855469 812.226562 1274.398438 823.199219 C 1235.679688 930.71875 1162.078125 1002.71875 1053.601562 1039.199219 C 1040.871094 1038.769531 1029.671875 1041.964844 1020 1048.800781 C 930.292969 1062.378906 847.09375 1045.578125 770.398438 998.398438 C 759.539062 990.636719 749.9375 981.839844 741.601562 972 C 736.390625 961.980469 728.394531 955.585938 717.601562 952.800781 C 683.417969 914.855469 657.816406 871.65625 640.800781 823.199219 C 640.34375 812.226562 637.140625 802.628906 631.199219 794.398438 C 617.25 737.394531 618.847656 681.398438 636 626.398438 C 643.554688 618.710938 646.757812 609.109375 645.601562 597.601562 C 657.9375 558.484375 678.734375 524.886719 708 496.800781 C 717.601562 490.402344 725.601562 482.398438 732 472.800781 C 793.558594 412.875 867.960938 382.476562 955.199219 381.601562 C 982.113281 381.527344 1008.511719 384.730469 1034.398438 391.199219 Z M 1034.398438 391.199219 "/>
<path style=" stroke:none;fill-rule:evenodd;fill:rgb(44.313725%,44.313725%,43.921569%);fill-opacity:1;" d="M 1034.398438 391.199219 C 1045.910156 390.046875 1055.511719 393.246094 1063.199219 400.800781 C 1052.226562 400.34375 1042.628906 397.144531 1034.398438 391.199219 Z M 1034.398438 391.199219 "/>
<path style=" stroke:none;fill-rule:evenodd;fill:rgb(24.313725%,24.313725%,24.313725%);fill-opacity:1;" d="M 1375.199219 429.601562 C 1354.714844 425.410156 1333.910156 423.8125 1312.800781 424.800781 C 1334.824219 411.140625 1355.625 412.742188 1375.199219 429.601562 Z M 1375.199219 429.601562 "/>
<path style=" stroke:none;fill-rule:evenodd;fill:rgb(97.647059%,97.647059%,97.647059%);fill-opacity:1;" d="M 1413.601562 468 C 1417.621094 469.640625 1419.226562 472.839844 1418.398438 477.601562 C 1419.25 495.523438 1417.652344 513.125 1413.601562 530.398438 C 1402.066406 546.753906 1387.664062 559.554688 1370.398438 568.800781 C 1343.574219 571.191406 1317.972656 567.992188 1293.601562 559.199219 C 1284.882812 551.433594 1278.484375 541.832031 1274.398438 530.398438 C 1274.210938 492.835938 1288.613281 461.636719 1317.601562 436.800781 C 1335.203125 433.601562 1352.796875 433.601562 1370.398438 436.800781 C 1386.796875 444.390625 1401.195312 454.789062 1413.601562 468 Z M 1413.601562 468 "/>
<path style=" stroke:none;fill-rule:evenodd;fill:rgb(36.862745%,36.862745%,36.862745%);fill-opacity:1;" d="M 1308 434.398438 C 1295.097656 448.140625 1283.898438 463.339844 1274.398438 480 C 1270.328125 493.296875 1268.730469 506.894531 1269.601562 520.800781 C 1253.601562 479.210938 1266.402344 450.410156 1308 434.398438 Z M 1308 434.398438 "/>
<path style=" stroke:none;fill-rule:evenodd;fill:rgb(56.862745%,56.862745%,56.862745%);fill-opacity:1;" d="M 1192.800781 477.601562 C 1202.816406 482.808594 1209.214844 490.804688 1212 501.601562 C 1201.980469 496.390625 1195.585938 488.394531 1192.800781 477.601562 Z M 1192.800781 477.601562 "/>
<path style=" stroke:none;fill-rule:evenodd;fill:rgb(61.960784%,61.960784%,61.960784%);fill-opacity:1;" d="M 732 472.800781 C 725.601562 482.398438 717.601562 490.402344 708 496.800781 C 711.203125 484 719.199219 476 732 472.800781 Z M 732 472.800781 "/>
<path style=" stroke:none;fill-rule:evenodd;fill:rgb(62.352941%,62.352941%,62.352941%);fill-opacity:1;" d="M 1312.800781 424.800781 C 1333.910156 423.8125 1354.714844 425.410156 1375.199219 429.601562 C 1392.902344 437.703125 1405.703125 450.503906 1413.601562 468 C 1401.195312 454.789062 1386.796875 444.390625 1370.398438 436.800781 C 1352.796875 433.601562 1335.203125 433.601562 1317.601562 436.800781 C 1288.613281 461.636719 1274.210938 492.835938 1274.398438 530.398438 C 1270.378906 528.757812 1268.773438 525.5625 1269.601562 520.800781 C 1268.730469 506.894531 1270.328125 493.296875 1274.398438 480 C 1283.898438 463.339844 1295.097656 448.140625 1308 434.398438 C 1309.597656 431.199219 1311.203125 428 1312.800781 424.800781 Z M 1312.800781 424.800781 "/>
<path style=" stroke:none;fill-rule:evenodd;fill:rgb(69.803922%,69.803922%,69.803922%);fill-opacity:1;" d="M 1005.601562 501.601562 C 966.820312 494.503906 928.421875 496.109375 890.398438 506.398438 C 910.195312 496.066406 931.796875 491.265625 955.199219 492 C 973.355469 491.417969 990.152344 494.621094 1005.601562 501.601562 Z M 1005.601562 501.601562 "/>
<path style=" stroke:none;fill-rule:evenodd;fill:rgb(0.784314%,0.784314%,0.784314%);fill-opacity:1;" d="M 1005.601562 501.601562 C 1035.824219 511.929688 1064.625 524.726562 1092 540 C 1100 551.199219 1109.601562 560.796875 1120.800781 568.800781 C 1142.972656 592.339844 1158.96875 619.535156 1168.800781 650.398438 C 1169.113281 664.453125 1172.3125 677.257812 1178.398438 688.800781 C 1178.535156 714.539062 1176.929688 740.136719 1173.601562 765.601562 C 1148 852 1092 908 1005.601562 933.601562 C 980.136719 936.929688 954.539062 938.535156 928.800781 938.398438 C 917.257812 932.3125 904.453125 929.113281 890.398438 928.800781 C 780.910156 884.710938 729.710938 803.113281 736.800781 684 C 743.636719 674.328125 746.832031 663.128906 746.398438 650.398438 C 770.398438 578.398438 818.398438 530.398438 890.398438 506.398438 C 928.421875 496.109375 966.820312 494.503906 1005.601562 501.601562 Z M 1005.601562 501.601562 "/>
<path style=" stroke:none;fill-rule:evenodd;fill:rgb(66.666667%,66.666667%,66.666667%);fill-opacity:1;" d="M 1092 540 C 1106.398438 544.800781 1116 554.398438 1120.800781 568.800781 C 1109.601562 560.796875 1100 551.199219 1092 540 Z M 1092 540 "/>
<path style=" stroke:none;fill-rule:evenodd;fill:rgb(70.196078%,70.196078%,70.196078%);fill-opacity:1;" d="M 1413.601562 530.398438 C 1408.230469 553.371094 1393.828125 566.175781 1370.398438 568.800781 C 1387.664062 559.554688 1402.066406 546.753906 1413.601562 530.398438 Z M 1413.601562 530.398438 "/>
<path style=" stroke:none;fill-rule:evenodd;fill:rgb(45.490196%,45.490196%,45.490196%);fill-opacity:1;" d="M 1418.398438 477.601562 C 1425.585938 486.191406 1428.789062 496.589844 1428 508.800781 C 1426.921875 520.933594 1425.320312 532.933594 1423.199219 544.800781 C 1408.46875 559.570312 1392.464844 572.371094 1375.199219 583.199219 C 1358.515625 588.6875 1340.917969 589.488281 1322.398438 585.601562 C 1315.476562 583.789062 1310.679688 579.792969 1308 573.601562 C 1330.175781 581.429688 1350.980469 579.832031 1370.398438 568.800781 C 1393.828125 566.175781 1408.230469 553.371094 1413.601562 530.398438 C 1417.652344 513.125 1419.25 495.523438 1418.398438 477.601562 Z M 1418.398438 477.601562 "/>
<path style=" stroke:none;fill-rule:evenodd;fill:rgb(71.764706%,71.764706%,71.764706%);fill-opacity:1;" d="M 1293.601562 559.199219 C 1317.972656 567.992188 1343.574219 571.191406 1370.398438 568.800781 C 1350.980469 579.832031 1330.175781 581.429688 1308 573.601562 C 1301.601562 570.398438 1296.800781 565.597656 1293.601562 559.199219 Z M 1293.601562 559.199219 "/>
<path style=" stroke:none;fill-rule:evenodd;fill:rgb(27.45098%,27.45098%,27.45098%);fill-opacity:1;" d="M 1423.199219 544.800781 C 1414.335938 566.457031 1398.335938 579.257812 1375.199219 583.199219 C 1392.464844 572.371094 1408.46875 559.570312 1423.199219 544.800781 Z M 1423.199219 544.800781 "/>
<path style=" stroke:none;fill-rule:evenodd;fill:rgb(68.235294%,68.235294%,68.235294%);fill-opacity:1;" d="M 645.601562 597.601562 C 646.757812 609.109375 643.554688 618.710938 636 626.398438 C 634.84375 614.890625 638.042969 605.289062 645.601562 597.601562 Z M 645.601562 597.601562 "/>
<path style=" stroke:none;fill-rule:evenodd;fill:rgb(68.235294%,68.235294%,68.235294%);fill-opacity:1;" d="M 1269.601562 597.601562 C 1277.15625 605.289062 1280.355469 614.890625 1279.199219 626.398438 C 1271.644531 618.710938 1268.441406 609.109375 1269.601562 597.601562 Z M 1269.601562 597.601562 "/>
<path style=" stroke:none;fill-rule:evenodd;fill:rgb(56.470588%,56.470588%,56.470588%);fill-opacity:1;" d="M 746.398438 650.398438 C 746.832031 663.128906 743.636719 674.328125 736.800781 684 C 736.367188 671.269531 739.566406 660.070312 746.398438 650.398438 Z M 746.398438 650.398438 "/>
<path style=" stroke:none;fill-rule:evenodd;fill:rgb(54.509804%,54.509804%,54.509804%);fill-opacity:1;" d="M 1168.800781 650.398438 C 1176.191406 661.621094 1179.390625 674.425781 1178.398438 688.800781 C 1172.3125 677.257812 1169.113281 664.453125 1168.800781 650.398438 Z M 1168.800781 650.398438 "/>
<path style=" stroke:none;fill-rule:evenodd;fill:rgb(77.254902%,77.254902%,77.254902%);fill-opacity:1;" d="M 1178.398438 688.800781 C 1181.578125 697.460938 1183.175781 707.058594 1183.199219 717.601562 C 1183.691406 734.960938 1180.488281 750.960938 1173.601562 765.601562 C 1176.929688 740.136719 1178.535156 714.539062 1178.398438 688.800781 Z M 1178.398438 688.800781 "/>
<path style=" stroke:none;fill-rule:evenodd;fill:rgb(44.313725%,44.313725%,43.921569%);fill-opacity:1;" d="M 631.199219 794.398438 C 637.140625 802.628906 640.34375 812.226562 640.800781 823.199219 C 633.246094 815.511719 630.042969 805.910156 631.199219 794.398438 Z M 631.199219 794.398438 "/>
<path style=" stroke:none;fill-rule:evenodd;fill:rgb(44.313725%,44.313725%,43.921569%);fill-opacity:1;" d="M 1284 794.398438 C 1285.15625 805.910156 1281.957031 815.511719 1274.398438 823.199219 C 1274.855469 812.226562 1278.058594 802.628906 1284 794.398438 Z M 1284 794.398438 "/>
<path style=" stroke:none;fill-rule:evenodd;fill:rgb(26.666667%,26.666667%,26.666667%);fill-opacity:1;" d="M 592.800781 852 C 572 852 551.199219 852 530.398438 852 C 530.933594 849.039062 532.53125 846.636719 535.199219 844.800781 C 543.203125 844 551.199219 843.203125 559.199219 842.398438 C 572.183594 841.515625 583.382812 844.71875 592.800781 852 Z M 592.800781 852 "/>
<path style=" stroke:none;fill-rule:evenodd;fill:rgb(51.764706%,51.764706%,51.764706%);fill-opacity:1;" d="M 530.398438 852 C 551.199219 852 572 852 592.800781 852 C 611.660156 856.46875 624.457031 867.667969 631.199219 885.601562 C 626.398438 882.398438 621.601562 879.203125 616.800781 876 C 614.625 871.402344 611.429688 867.398438 607.199219 864 C 583.695312 853.785156 561.292969 854.582031 540 866.398438 C 506.433594 887.3125 492.035156 917.710938 496.800781 957.601562 C 492.777344 955.957031 491.175781 952.761719 492 948 C 488.914062 909.195312 501.710938 877.195312 530.398438 852 Z M 530.398438 852 "/>
<path style=" stroke:none;fill-rule:evenodd;fill:rgb(28.627451%,28.627451%,28.627451%);fill-opacity:1;" d="M 530.398438 852 C 501.710938 877.195312 488.914062 909.195312 492 948 C 484.421875 923.425781 486.820312 899.425781 499.199219 876 C 507.730469 865.007812 518.132812 857.007812 530.398438 852 Z M 530.398438 852 "/>
<path style=" stroke:none;fill-rule:evenodd;fill:rgb(98.823529%,98.823529%,98.823529%);fill-opacity:1;" d="M 540 866.398438 C 566.511719 864.332031 592.109375 867.53125 616.800781 876 C 621.601562 879.203125 626.398438 882.398438 631.199219 885.601562 C 635.503906 907.871094 636.308594 930.269531 633.601562 952.800781 C 628.585938 956.992188 624.585938 961.789062 621.601562 967.199219 C 593.371094 990.539062 561.371094 996.9375 525.601562 986.398438 C 520.296875 981.121094 513.898438 977.917969 506.398438 976.800781 C 505.632812 968.867188 502.433594 962.46875 496.800781 957.601562 C 492.035156 917.710938 506.433594 887.3125 540 866.398438 Z M 540 866.398438 "/>
<path style=" stroke:none;fill-rule:evenodd;fill:rgb(76.862745%,76.862745%,76.862745%);fill-opacity:1;" d="M 616.800781 876 C 592.109375 867.53125 566.511719 864.332031 540 866.398438 C 561.292969 854.582031 583.695312 853.785156 607.199219 864 C 611.429688 867.398438 614.625 871.402344 616.800781 876 Z M 616.800781 876 "/>
<path style=" stroke:none;fill-rule:evenodd;fill:rgb(55.686275%,55.686275%,55.686275%);fill-opacity:1;" d="M 890.398438 928.800781 C 904.453125 929.113281 917.257812 932.3125 928.800781 938.398438 C 914.425781 939.390625 901.621094 936.191406 890.398438 928.800781 Z M 890.398438 928.800781 "/>
<path style=" stroke:none;fill-rule:evenodd;fill:rgb(76.862745%,76.862745%,76.862745%);fill-opacity:1;" d="M 1005.601562 933.601562 C 990.960938 940.488281 974.960938 943.691406 957.601562 943.199219 C 947.058594 943.175781 937.460938 941.578125 928.800781 938.398438 C 954.539062 938.535156 980.136719 936.929688 1005.601562 933.601562 Z M 1005.601562 933.601562 "/>
<path style=" stroke:none;fill-rule:evenodd;fill:rgb(57.254902%,57.254902%,57.254902%);fill-opacity:1;" d="M 717.601562 952.800781 C 728.394531 955.585938 736.390625 961.980469 741.601562 972 C 730.804688 969.214844 722.808594 962.816406 717.601562 952.800781 Z M 717.601562 952.800781 "/>
<path style=" stroke:none;fill-rule:evenodd;fill:rgb(68.235294%,68.235294%,68.235294%);fill-opacity:1;" d="M 631.199219 885.601562 C 635.113281 890.058594 639.109375 894.859375 643.199219 900 C 645.59375 920.742188 646.398438 941.539062 645.601562 962.398438 C 633.832031 980.578125 617.832031 993.378906 597.601562 1000.800781 C 607.304688 991.050781 615.308594 979.847656 621.601562 967.199219 C 624.585938 961.789062 628.585938 956.992188 633.601562 952.800781 C 636.308594 930.269531 635.503906 907.871094 631.199219 885.601562 Z M 631.199219 885.601562 "/>
<path style=" stroke:none;fill-rule:evenodd;fill:rgb(28.235294%,28.235294%,28.235294%);fill-opacity:1;" d="M 645.601562 962.398438 C 635.871094 1000.515625 611.074219 1018.117188 571.199219 1015.199219 C 561.441406 1015.171875 552.644531 1013.574219 544.800781 1010.398438 C 559.285156 1011.191406 573.6875 1010.390625 588 1008 C 592.398438 1006.664062 595.59375 1004.265625 597.601562 1000.800781 C 617.832031 993.378906 633.832031 980.578125 645.601562 962.398438 Z M 645.601562 962.398438 "/>
<path style=" stroke:none;fill-rule:evenodd;fill:rgb(84.705882%,84.705882%,84.705882%);fill-opacity:1;" d="M 621.601562 967.199219 C 615.308594 979.847656 607.304688 991.050781 597.601562 1000.800781 C 579.925781 1001.59375 562.328125 1000.796875 544.800781 998.398438 C 536.0625 997.441406 529.664062 993.4375 525.601562 986.398438 C 561.371094 996.9375 593.371094 990.539062 621.601562 967.199219 Z M 621.601562 967.199219 "/>
<path style=" stroke:none;fill-rule:evenodd;fill:rgb(50.588235%,50.588235%,50.588235%);fill-opacity:1;" d="M 506.398438 976.800781 C 513.898438 977.917969 520.296875 981.121094 525.601562 986.398438 C 529.664062 993.4375 536.0625 997.441406 544.800781 998.398438 C 562.328125 1000.796875 579.925781 1001.59375 597.601562 1000.800781 C 595.59375 1004.265625 592.398438 1006.664062 588 1008 C 573.6875 1010.390625 559.285156 1011.191406 544.800781 1010.398438 C 529.035156 1002.636719 516.234375 991.441406 506.398438 976.800781 Z M 506.398438 976.800781 "/>
<path style=" stroke:none;fill-rule:evenodd;fill:rgb(23.529412%,23.529412%,23.529412%);fill-opacity:1;" d="M 1053.601562 1039.199219 C 1043.929688 1046.035156 1032.730469 1049.230469 1020 1048.800781 C 1029.671875 1041.964844 1040.871094 1038.769531 1053.601562 1039.199219 Z M 1053.601562 1039.199219 "/>
</g>
</svg>
