<?xml version="1.0" encoding="UTF-8"?>
<svg xmlns="http://www.w3.org/2000/svg" xmlns:xlink="http://www.w3.org/1999/xlink" width="1920pt" height="1440pt" viewBox="0 0 1920 1440" version="1.1">
<g id="surface1">
<path style=" stroke:none;fill-rule:evenodd;fill:rgb(0%,0%,0%);fill-opacity:1;" d="M -2.398438 -2.398438 C 637.597656 -2.398438 1277.601562 -2.398438 1917.601562 -2.398438 C 1917.601562 477.601562 1917.601562 957.601562 1917.601562 1437.601562 C 1277.601562 1437.601562 637.597656 1437.601562 -2.398438 1437.601562 C -2.398438 957.601562 -2.398438 477.601562 -2.398438 -2.398438 Z M -2.398438 -2.398438 "/>
<path style=" stroke:none;fill-rule:evenodd;fill:rgb(97.647059%,97.647059%,97.647059%);fill-opacity:1;" d="M 736.800781 247.199219 C 743.199219 247.199219 749.601562 247.199219 756 247.199219 C 767.648438 247.308594 778.847656 249.710938 789.601562 254.398438 C 796.976562 262.59375 804.980469 269.796875 813.601562 276 C 832.800781 308 832.800781 340 813.601562 372 C 812 375.199219 810.398438 378.398438 808.800781 381.601562 C 731.300781 387.3125 699.296875 352.113281 712.800781 276 C 724.386719 269.226562 732.390625 259.628906 736.800781 247.199219 Z M 736.800781 247.199219 "/>
<path style=" stroke:none;fill-rule:evenodd;fill:rgb(75.294118%,75.294118%,75.686275%);fill-opacity:1;" d="M 756 247.199219 C 784.035156 238.816406 803.238281 248.417969 813.601562 276 C 804.980469 269.796875 796.976562 262.59375 789.601562 254.398438 C 778.847656 249.710938 767.648438 247.308594 756 247.199219 Z M 756 247.199219 "/>
<path style=" stroke:none;fill-rule:evenodd;fill:rgb(56.078431%,56.078431%,56.078431%);fill-opacity:1;" d="M 760.800781 237.601562 C 826.949219 238.472656 854.945312 272.074219 844.800781 338.398438 C 843.730469 349.828125 838.128906 357.828125 828 362.398438 C 841.28125 334.667969 840.480469 307.46875 825.601562 280.800781 C 822.378906 277.1875 818.378906 275.589844 813.601562 276 C 803.238281 248.417969 784.035156 238.816406 756 247.199219 C 749.601562 247.199219 743.199219 247.199219 736.800781 247.199219 C 742.945312 240.328125 750.945312 237.128906 760.800781 237.601562 Z M 760.800781 237.601562 "/>
<path style=" stroke:none;fill-rule:evenodd;fill:rgb(78.823529%,78.823529%,78.823529%);fill-opacity:1;" d="M 813.601562 276 C 818.378906 275.589844 822.378906 277.1875 825.601562 280.800781 C 840.480469 307.46875 841.28125 334.667969 828 362.398438 C 825.730469 369.148438 820.929688 372.351562 813.601562 372 C 832.800781 340 832.800781 308 813.601562 276 Z M 813.601562 276 "/>
<path style=" stroke:none;fill-rule:evenodd;fill:rgb(45.490196%,45.490196%,45.490196%);fill-opacity:1;" d="M 693.601562 290.398438 C 691.316406 315.789062 695.320312 339.789062 705.601562 362.398438 C 715.433594 368.226562 722.636719 376.226562 727.199219 386.398438 C 709.535156 379.128906 697.535156 366.332031 691.199219 348 C 687.300781 327.894531 688.105469 308.695312 693.601562 290.398438 Z M 693.601562 290.398438 "/>
<path style=" stroke:none;fill-rule:evenodd;fill:rgb(35.294118%,35.294118%,35.294118%);fill-opacity:1;" d="M 760.800781 237.601562 C 801.742188 226.015625 833.742188 238.8125 856.800781 276 C 873.273438 326.542969 857.273438 361.742188 808.800781 381.601562 C 810.398438 378.398438 812 375.199219 813.601562 372 C 820.929688 372.351562 825.730469 369.148438 828 362.398438 C 838.128906 357.828125 843.730469 349.828125 844.800781 338.398438 C 854.945312 272.074219 826.949219 238.472656 760.800781 237.601562 Z M 760.800781 237.601562 "/>
<path style=" stroke:none;fill-rule:evenodd;fill:rgb(66.27451%,66.27451%,66.27451%);fill-opacity:1;" d="M 736.800781 247.199219 C 732.390625 259.628906 724.386719 269.226562 712.800781 276 C 699.296875 352.113281 731.300781 387.3125 808.800781 381.601562 C 803.933594 387.234375 797.535156 390.433594 789.601562 391.199219 C 768.570312 391.816406 747.769531 390.214844 727.199219 386.398438 C 722.636719 376.226562 715.433594 368.226562 705.601562 362.398438 C 695.320312 339.789062 691.316406 315.789062 693.601562 290.398438 C 699.609375 283.195312 704.410156 275.195312 708 266.398438 C 715.90625 257.632812 725.503906 251.234375 736.800781 247.199219 Z M 736.800781 247.199219 "/>
<path style=" stroke:none;fill-rule:evenodd;fill:rgb(28.627451%,28.627451%,28.627451%);fill-opacity:1;" d="M 708 266.398438 C 704.410156 275.195312 699.609375 283.195312 693.601562 290.398438 C 688.105469 308.695312 687.300781 327.894531 691.199219 348 C 697.535156 366.332031 709.535156 379.128906 727.199219 386.398438 C 747.769531 390.214844 768.570312 391.816406 789.601562 391.199219 C 698.496094 412.890625 664.09375 377.691406 686.398438 285.601562 C 692.671875 277.480469 699.875 271.078125 708 266.398438 Z M 708 266.398438 "/>
<path style=" stroke:none;fill-rule:evenodd;fill:rgb(74.117647%,74.117647%,74.117647%);fill-opacity:1;" d="M 1005.601562 405.601562 C 963.839844 404.589844 922.238281 406.1875 880.800781 410.398438 C 884.460938 406.714844 889.261719 404.3125 895.199219 403.199219 C 932.855469 399.253906 969.652344 400.050781 1005.601562 405.601562 Z M 1005.601562 405.601562 "/>
<path style=" stroke:none;fill-rule:evenodd;fill:rgb(98.431373%,98.431373%,98.431373%);fill-opacity:1;" d="M 1005.601562 405.601562 C 1127.007812 425.347656 1211.007812 492.546875 1257.601562 607.199219 C 1259.953125 613.40625 1260.753906 619.808594 1260 626.398438 C 1268.5625 672.25 1271.761719 718.652344 1269.601562 765.601562 C 1248.550781 881.03125 1184.554688 962.628906 1077.601562 1010.398438 C 1063.472656 1012.703125 1050.671875 1017.503906 1039.199219 1024.800781 C 1029.910156 1027.921875 1020.3125 1029.519531 1010.398438 1029.601562 C 961.851562 1031.808594 913.851562 1028.605469 866.398438 1020 C 835.554688 1013.179688 806.753906 1001.179688 780 984 C 708.371094 929.269531 663.566406 858.070312 645.601562 770.398438 C 643.390625 721.851562 646.59375 673.851562 655.199219 626.398438 C 680.246094 539.683594 733.046875 474.882812 813.601562 432 C 834.71875 420.632812 857.117188 413.433594 880.800781 410.398438 C 922.238281 406.1875 963.839844 404.589844 1005.601562 405.601562 Z M 1005.601562 405.601562 "/>
<path style=" stroke:none;fill-rule:evenodd;fill:rgb(1.176471%,1.176471%,1.176471%);fill-opacity:1;" d="M 880.800781 559.199219 C 888.734375 558.433594 895.132812 555.234375 900 549.601562 C 1017.105469 525.363281 1094.707031 570.167969 1132.800781 684 C 1140.6875 795.320312 1090.285156 864.921875 981.601562 892.800781 C 874.277344 897.585938 807.875 847.1875 782.398438 741.601562 C 774.351562 658.140625 807.148438 597.34375 880.800781 559.199219 Z M 880.800781 559.199219 "/>
<path style=" stroke:none;fill-rule:evenodd;fill:rgb(49.411765%,49.411765%,49.411765%);fill-opacity:1;" d="M 900 549.601562 C 895.132812 555.234375 888.734375 558.433594 880.800781 559.199219 C 884.578125 551.5 890.976562 548.300781 900 549.601562 Z M 900 549.601562 "/>
<path style=" stroke:none;fill-rule:evenodd;fill:rgb(69.803922%,69.803922%,69.803922%);fill-opacity:1;" d="M 655.199219 626.398438 C 646.59375 673.851562 643.390625 721.851562 645.601562 770.398438 C 640.050781 732.847656 639.25 694.449219 643.199219 655.199219 C 645.917969 644.53125 649.921875 634.929688 655.199219 626.398438 Z M 655.199219 626.398438 "/>
<path style=" stroke:none;fill-rule:evenodd;fill:rgb(60.392157%,60.392157%,60.392157%);fill-opacity:1;" d="M 1260 626.398438 C 1277.542969 665.742188 1283.144531 707.34375 1276.800781 751.199219 C 1275.6875 757.136719 1273.285156 761.9375 1269.601562 765.601562 C 1271.761719 718.652344 1268.5625 672.25 1260 626.398438 Z M 1260 626.398438 "/>
<path style=" stroke:none;fill-rule:evenodd;fill:rgb(45.882353%,45.882353%,45.882353%);fill-opacity:1;" d="M 1077.601562 1010.398438 C 1067.117188 1020.40625 1054.316406 1025.207031 1039.199219 1024.800781 C 1050.671875 1017.503906 1063.472656 1012.703125 1077.601562 1010.398438 Z M 1077.601562 1010.398438 "/>
<path style=" stroke:none;fill-rule:evenodd;fill:rgb(69.803922%,69.803922%,69.803922%);fill-opacity:1;" d="M 866.398438 1020 C 913.851562 1028.605469 961.851562 1031.808594 1010.398438 1029.601562 C 972.847656 1035.148438 934.449219 1035.949219 895.199219 1032 C 884.53125 1029.28125 874.929688 1025.28125 866.398438 1020 Z M 866.398438 1020 "/>
<path style=" stroke:none;fill-rule:evenodd;fill:rgb(21.568627%,21.568627%,21.568627%);fill-opacity:1;" d="M 1135.199219 1039.199219 C 1163.574219 1030.683594 1190.773438 1034.683594 1216.800781 1051.199219 C 1223.152344 1055.117188 1226.347656 1060.71875 1226.398438 1068 C 1209.96875 1060.460938 1193.964844 1051.65625 1178.398438 1041.601562 C 1164.085938 1039.210938 1149.6875 1038.40625 1135.199219 1039.199219 Z M 1135.199219 1039.199219 "/>
<path style=" stroke:none;fill-rule:evenodd;fill:rgb(98.039216%,98.039216%,98.039216%);fill-opacity:1;" d="M 1092 1068 C 1098.398438 1064.796875 1103.199219 1060 1106.398438 1053.601562 C 1122.320312 1050.140625 1138.324219 1049.335938 1154.398438 1051.199219 C 1168.464844 1063.925781 1182.066406 1077.523438 1195.199219 1092 C 1215.40625 1166.175781 1189.007812 1194.171875 1116 1176 C 1101.824219 1166.097656 1093.027344 1152.5 1089.601562 1135.199219 C 1086.160156 1112.542969 1086.960938 1090.148438 1092 1068 Z M 1092 1068 "/>
<path style=" stroke:none;fill-rule:evenodd;fill:rgb(41.568627%,41.568627%,41.568627%);fill-opacity:1;" d="M 1125.601562 1044 C 1127.242188 1039.976562 1130.4375 1038.375 1135.199219 1039.199219 C 1149.6875 1038.40625 1164.085938 1039.210938 1178.398438 1041.601562 C 1193.964844 1051.65625 1209.96875 1060.460938 1226.398438 1068 C 1230.636719 1090.09375 1232.242188 1112.496094 1231.199219 1135.199219 C 1225.617188 1159.191406 1211.21875 1175.195312 1188 1183.199219 C 1194.398438 1176.800781 1200.800781 1170.398438 1207.199219 1164 C 1220.621094 1142.207031 1224.621094 1118.207031 1219.199219 1092 C 1214.972656 1079.933594 1207.769531 1070.332031 1197.601562 1063.199219 C 1175.523438 1049.773438 1151.523438 1043.371094 1125.601562 1044 Z M 1125.601562 1044 "/>
<path style=" stroke:none;fill-rule:evenodd;fill:rgb(18.039216%,18.039216%,18.039216%);fill-opacity:1;" d="M 1226.398438 1068 C 1237.222656 1078.84375 1242.023438 1092.441406 1240.800781 1108.800781 C 1240 1116 1239.203125 1123.199219 1238.398438 1130.398438 C 1236.5625 1133.070312 1234.160156 1134.667969 1231.199219 1135.199219 C 1232.242188 1112.496094 1230.636719 1090.09375 1226.398438 1068 Z M 1226.398438 1068 "/>
<path style=" stroke:none;fill-rule:evenodd;fill:rgb(58.823529%,58.823529%,58.823529%);fill-opacity:1;" d="M 1197.601562 1063.199219 C 1207.769531 1070.332031 1214.972656 1079.933594 1219.199219 1092 C 1224.621094 1118.207031 1220.621094 1142.207031 1207.199219 1164 C 1215.878906 1128.859375 1212.675781 1095.257812 1197.601562 1063.199219 Z M 1197.601562 1063.199219 "/>
<path style=" stroke:none;fill-rule:evenodd;fill:rgb(21.568627%,21.568627%,21.568627%);fill-opacity:1;" d="M 1077.601562 1072.800781 C 1045.054688 1123.808594 1054.65625 1164.609375 1106.398438 1195.199219 C 1120.714844 1197.589844 1135.113281 1198.390625 1149.601562 1197.601562 C 1080.726562 1210.546875 1047.925781 1181.746094 1051.199219 1111.199219 C 1054.253906 1093.726562 1063.050781 1080.929688 1077.601562 1072.800781 Z M 1077.601562 1072.800781 "/>
<path style=" stroke:none;fill-rule:evenodd;fill:rgb(49.411765%,49.411765%,49.411765%);fill-opacity:1;" d="M 1106.398438 1053.601562 C 1103.199219 1060 1098.398438 1064.796875 1092 1068 C 1089.039062 1068.53125 1086.636719 1070.132812 1084.800781 1072.800781 C 1058.960938 1146.113281 1083.757812 1186.113281 1159.199219 1192.800781 C 1157.558594 1196.824219 1154.363281 1198.425781 1149.601562 1197.601562 C 1135.113281 1198.390625 1120.714844 1197.589844 1106.398438 1195.199219 C 1054.65625 1164.609375 1045.054688 1123.808594 1077.601562 1072.800781 C 1085.503906 1064.035156 1095.105469 1057.632812 1106.398438 1053.601562 Z M 1106.398438 1053.601562 "/>
<path style=" stroke:none;fill-rule:evenodd;fill:rgb(72.54902%,72.54902%,72.54902%);fill-opacity:1;" d="M 1125.601562 1044 C 1151.523438 1043.371094 1175.523438 1049.773438 1197.601562 1063.199219 C 1212.675781 1095.257812 1215.878906 1128.859375 1207.199219 1164 C 1200.800781 1170.398438 1194.398438 1176.800781 1188 1183.199219 C 1180.308594 1190.753906 1170.710938 1193.957031 1159.199219 1192.800781 C 1083.757812 1186.113281 1058.960938 1146.113281 1084.800781 1072.800781 C 1086.636719 1070.132812 1089.039062 1068.53125 1092 1068 C 1086.960938 1090.148438 1086.160156 1112.542969 1089.601562 1135.199219 C 1093.027344 1152.5 1101.824219 1166.097656 1116 1176 C 1189.007812 1194.171875 1215.40625 1166.175781 1195.199219 1092 C 1182.066406 1077.523438 1168.464844 1063.925781 1154.398438 1051.199219 C 1138.324219 1049.335938 1122.320312 1050.140625 1106.398438 1053.601562 C 1111.265625 1047.964844 1117.664062 1044.769531 1125.601562 1044 Z M 1125.601562 1044 "/>
</g>
</svg>
