<?xml version="1.0" encoding="UTF-8"?>
<svg xmlns="http://www.w3.org/2000/svg" xmlns:xlink="http://www.w3.org/1999/xlink" width="1920pt" height="1440pt" viewBox="0 0 1920 1440" version="1.1">
<g id="surface1">
<path style=" stroke:none;fill-rule:evenodd;fill:rgb(0%,0%,0%);fill-opacity:1;" d="M -2.398438 -2.398438 C 637.597656 -2.398438 1277.601562 -2.398438 1917.601562 -2.398438 C 1917.601562 477.601562 1917.601562 957.601562 1917.601562 1437.601562 C 1277.601562 1437.601562 637.597656 1437.601562 -2.398438 1437.601562 C -2.398438 957.601562 -2.398438 477.601562 -2.398438 -2.398438 Z M -2.398438 -2.398438 "/>
<path style=" stroke:none;fill-rule:evenodd;fill:rgb(98.039216%,98.039216%,98.039216%);fill-opacity:1;" d="M 1005.601562 343.199219 C 959.183594 347.195312 936.789062 325.59375 938.398438 278.398438 C 939.507812 262.648438 942.707031 247.445312 948 232.800781 C 957.054688 213.390625 972.25 205.390625 993.601562 208.800781 C 1037.636719 219.882812 1055.238281 248.683594 1046.398438 295.199219 C 1038.519531 316.253906 1024.914062 332.253906 1005.601562 343.199219 Z M 1005.601562 343.199219 "/>
<path style=" stroke:none;fill-rule:evenodd;fill:rgb(23.529412%,23.529412%,23.529412%);fill-opacity:1;" d="M 1024.800781 204 C 1074.757812 218.976562 1093.15625 252.578125 1080 304.800781 C 1073.644531 323.148438 1061.644531 335.949219 1044 343.199219 C 1049.898438 328.484375 1058.703125 315.683594 1070.398438 304.800781 C 1073.601562 284 1073.601562 263.199219 1070.398438 242.398438 C 1068.375 233.15625 1062.773438 228.355469 1053.601562 228 C 1042.035156 222.238281 1032.4375 214.238281 1024.800781 204 Z M 1024.800781 204 "/>
<path style=" stroke:none;fill-rule:evenodd;fill:rgb(29.411765%,29.411765%,29.411765%);fill-opacity:1;" d="M 938.398438 204 C 926.15625 218.613281 915.753906 234.613281 907.199219 252 C 904 268 904 284 907.199219 300 C 914.121094 309.078125 919.722656 318.675781 924 328.800781 C 892.851562 314.453125 882.453125 290.453125 892.800781 256.800781 C 900.121094 232.660156 915.320312 215.058594 938.398438 204 Z M 938.398438 204 "/>
<path style=" stroke:none;fill-rule:evenodd;fill:rgb(49.803922%,49.803922%,49.411765%);fill-opacity:1;" d="M 938.398438 204 C 944.796875 204 951.203125 204 957.601562 204 C 918.101562 232.988281 908.5 271.390625 928.800781 319.199219 C 930.992188 323.027344 934.195312 324.628906 938.398438 324 C 938.453125 331.285156 941.648438 336.882812 948 340.800781 C 966.695312 346.878906 985.894531 349.277344 1005.601562 348 C 1008.800781 348 1012 348 1015.199219 348 C 985.875 355.84375 957.078125 353.445312 928.800781 340.800781 C 925.191406 337.582031 923.585938 333.582031 924 328.800781 C 919.722656 318.675781 914.121094 309.078125 907.199219 300 C 904 284 904 268 907.199219 252 C 915.753906 234.613281 926.15625 218.613281 938.398438 204 Z M 938.398438 204 "/>
<path style=" stroke:none;fill-rule:evenodd;fill:rgb(87.45098%,87.45098%,87.45098%);fill-opacity:1;" d="M 948 232.800781 C 942.707031 247.445312 939.507812 262.648438 938.398438 278.398438 C 936.789062 325.59375 959.183594 347.195312 1005.601562 343.199219 C 1005.601562 344.800781 1005.601562 346.398438 1005.601562 348 C 985.894531 349.277344 966.695312 346.878906 948 340.800781 C 941.648438 336.882812 938.453125 331.285156 938.398438 324 C 934.003906 308.425781 929.203125 293.226562 924 278.398438 C 925.566406 265.617188 929.5625 253.617188 936 242.398438 C 939.398438 238.171875 943.402344 234.972656 948 232.800781 Z M 948 232.800781 "/>
<path style=" stroke:none;fill-rule:evenodd;fill:rgb(67.058824%,67.058824%,67.058824%);fill-opacity:1;" d="M 1024.800781 204 C 1032.4375 214.238281 1042.035156 222.238281 1053.601562 228 C 1062.308594 261.078125 1059.90625 293.078125 1046.398438 324 C 1038.097656 333.128906 1029.296875 341.128906 1020 348 C 1018.402344 348 1016.796875 348 1015.199219 348 C 1012 348 1008.800781 348 1005.601562 348 C 1005.601562 346.398438 1005.601562 344.800781 1005.601562 343.199219 C 1024.914062 332.253906 1038.519531 316.253906 1046.398438 295.199219 C 1055.238281 248.683594 1037.636719 219.882812 993.601562 208.800781 C 972.25 205.390625 957.054688 213.390625 948 232.800781 C 943.402344 234.972656 939.398438 238.171875 936 242.398438 C 929.5625 253.617188 925.566406 265.617188 924 278.398438 C 929.203125 293.226562 934.003906 308.425781 938.398438 324 C 934.195312 324.628906 930.992188 323.027344 928.800781 319.199219 C 908.5 271.390625 918.101562 232.988281 957.601562 204 C 979.300781 198.347656 1001.703125 198.347656 1024.800781 204 Z M 1024.800781 204 "/>
<path style=" stroke:none;fill-rule:evenodd;fill:rgb(42.745098%,42.745098%,42.745098%);fill-opacity:1;" d="M 1053.601562 228 C 1062.773438 228.355469 1068.375 233.15625 1070.398438 242.398438 C 1073.601562 263.199219 1073.601562 284 1070.398438 304.800781 C 1058.703125 315.683594 1049.898438 328.484375 1044 343.199219 C 1036.238281 345.78125 1028.238281 347.382812 1020 348 C 1029.296875 341.128906 1038.097656 333.128906 1046.398438 324 C 1059.90625 293.078125 1062.308594 261.078125 1053.601562 228 Z M 1053.601562 228 "/>
<path style=" stroke:none;fill-rule:evenodd;fill:rgb(98.039216%,98.039216%,98.039216%);fill-opacity:1;" d="M 1250.398438 607.199219 C 1249.96875 619.929688 1253.164062 631.128906 1260 640.800781 C 1278.269531 723.527344 1267.070312 801.925781 1226.398438 876 C 1219.652344 878.269531 1216.449219 883.070312 1216.800781 890.398438 C 1113.28125 1024.09375 982.085938 1060.890625 823.199219 1000.800781 C 820.929688 994.050781 816.128906 990.847656 808.800781 991.199219 C 716.394531 939.550781 662.796875 861.152344 648 756 C 644.796875 724 644.796875 692 648 660 C 649.007812 652.523438 651.40625 646.125 655.199219 640.800781 C 663.886719 628.105469 668.6875 613.703125 669.601562 597.601562 C 702.65625 515.625 760.257812 459.628906 842.398438 429.601562 C 856.304688 426.582031 869.105469 421.78125 880.800781 415.199219 C 1035.820312 386.625 1155.019531 439.421875 1238.398438 573.601562 C 1241.972656 585.121094 1245.96875 596.320312 1250.398438 607.199219 Z M 1250.398438 607.199219 "/>
<path style=" stroke:none;fill-rule:evenodd;fill:rgb(60.784314%,60.784314%,60.784314%);fill-opacity:1;" d="M 880.800781 415.199219 C 869.105469 421.78125 856.304688 426.582031 842.398438 429.601562 C 852.5625 419.257812 865.363281 414.457031 880.800781 415.199219 Z M 880.800781 415.199219 "/>
<path style=" stroke:none;fill-rule:evenodd;fill:rgb(1.176471%,1.176471%,1.176471%);fill-opacity:1;" d="M 1149.601562 741.601562 C 1142.765625 751.273438 1139.566406 762.46875 1140 775.199219 C 1087.46875 890.679688 999.46875 929.878906 876 892.800781 C 856.246094 881.050781 837.847656 867.453125 820.800781 852 C 807.609375 836.476562 795.609375 820.472656 784.800781 804 C 783.730469 786.421875 778.929688 770.425781 770.398438 756 C 766.585938 735.433594 764.984375 714.628906 765.601562 693.601562 C 772.433594 683.929688 775.632812 672.730469 775.199219 660 C 811.03125 565.242188 879.832031 521.246094 981.601562 528 C 1096.742188 552.691406 1152.742188 623.890625 1149.601562 741.601562 Z M 1149.601562 741.601562 "/>
<path style=" stroke:none;fill-rule:evenodd;fill:rgb(65.882353%,65.882353%,65.882353%);fill-opacity:1;" d="M 669.601562 597.601562 C 668.6875 613.703125 663.886719 628.105469 655.199219 640.800781 C 655.335938 624.402344 660.132812 610.003906 669.601562 597.601562 Z M 669.601562 597.601562 "/>
<path style=" stroke:none;fill-rule:evenodd;fill:rgb(58.039216%,58.039216%,58.039216%);fill-opacity:1;" d="M 1250.398438 607.199219 C 1257.234375 616.871094 1260.433594 628.070312 1260 640.800781 C 1253.164062 631.128906 1249.96875 619.929688 1250.398438 607.199219 Z M 1250.398438 607.199219 "/>
<path style=" stroke:none;fill-rule:evenodd;fill:rgb(65.490196%,65.490196%,65.490196%);fill-opacity:1;" d="M 775.199219 660 C 775.632812 672.730469 772.433594 683.929688 765.601562 693.601562 C 765.167969 680.871094 768.363281 669.671875 775.199219 660 Z M 775.199219 660 "/>
<path style=" stroke:none;fill-rule:evenodd;fill:rgb(54.509804%,54.509804%,54.509804%);fill-opacity:1;" d="M 770.398438 756 C 778.929688 770.425781 783.730469 786.421875 784.800781 804 C 776.269531 789.574219 771.46875 773.578125 770.398438 756 Z M 770.398438 756 "/>
<path style=" stroke:none;fill-rule:evenodd;fill:rgb(62.352941%,62.352941%,62.352941%);fill-opacity:1;" d="M 1149.601562 741.601562 C 1150.03125 754.328125 1146.835938 765.527344 1140 775.199219 C 1139.566406 762.46875 1142.765625 751.273438 1149.601562 741.601562 Z M 1149.601562 741.601562 "/>
<path style=" stroke:none;fill-rule:evenodd;fill:rgb(52.941176%,52.941176%,52.941176%);fill-opacity:1;" d="M 1226.398438 876 C 1226.75 883.328125 1223.546875 888.128906 1216.800781 890.398438 C 1216.449219 883.070312 1219.652344 878.269531 1226.398438 876 Z M 1226.398438 876 "/>
<path style=" stroke:none;fill-rule:evenodd;fill:rgb(50.588235%,50.588235%,50.588235%);fill-opacity:1;" d="M 808.800781 991.199219 C 816.128906 990.847656 820.929688 994.050781 823.199219 1000.800781 C 815.871094 1001.152344 811.070312 997.949219 808.800781 991.199219 Z M 808.800781 991.199219 "/>
<path style=" stroke:none;fill-rule:evenodd;fill:rgb(83.921569%,83.921569%,83.921569%);fill-opacity:1;" d="M 943.199219 1087.199219 C 946.402344 1087.199219 949.597656 1087.199219 952.800781 1087.199219 C 959.015625 1091.941406 965.414062 1096.742188 972 1101.601562 C 977.425781 1110.3125 980.621094 1119.910156 981.601562 1130.398438 C 969.371094 1118.09375 956.566406 1106.09375 943.199219 1094.398438 C 930.726562 1090.707031 918.726562 1091.511719 907.199219 1096.800781 C 879.632812 1127.5 873.230469 1162.699219 888 1202.398438 C 896.648438 1208.585938 902.25 1216.589844 904.800781 1226.398438 C 891.476562 1219.042969 882.671875 1207.84375 878.398438 1192.800781 C 870.183594 1165.703125 869.386719 1138.503906 876 1111.199219 C 886.316406 1105.210938 895.914062 1098.007812 904.800781 1089.601562 C 917.5 1087.214844 930.300781 1086.414062 943.199219 1087.199219 Z M 943.199219 1087.199219 "/>
<path style=" stroke:none;fill-rule:evenodd;fill:rgb(98.431373%,98.431373%,98.431373%);fill-opacity:1;" d="M 981.601562 1130.398438 C 986.554688 1139.683594 989.75 1150.078125 991.199219 1161.601562 C 983.113281 1211.175781 954.3125 1234.371094 904.800781 1231.199219 C 904.800781 1229.601562 904.800781 1228 904.800781 1226.398438 C 902.25 1216.589844 896.648438 1208.585938 888 1202.398438 C 873.230469 1162.699219 879.632812 1127.5 907.199219 1096.800781 C 918.726562 1091.511719 930.726562 1090.707031 943.199219 1094.398438 C 956.566406 1106.09375 969.371094 1118.09375 981.601562 1130.398438 Z M 981.601562 1130.398438 "/>
<path style=" stroke:none;fill-rule:evenodd;fill:rgb(47.843137%,47.843137%,47.843137%);fill-opacity:1;" d="M 895.199219 1082.398438 C 912.203125 1080.898438 928.199219 1082.5 943.199219 1087.199219 C 930.300781 1086.414062 917.5 1087.214844 904.800781 1089.601562 C 895.914062 1098.007812 886.316406 1105.210938 876 1111.199219 C 860.785156 1123.972656 854.378906 1140.773438 856.800781 1161.601562 C 856.21875 1185.207031 864.214844 1205.207031 880.800781 1221.601562 C 856.152344 1210.800781 843.351562 1191.601562 842.398438 1164 C 843.65625 1145.703125 847.65625 1128.101562 854.398438 1111.199219 C 868.742188 1102.085938 882.339844 1092.484375 895.199219 1082.398438 Z M 895.199219 1082.398438 "/>
<path style=" stroke:none;fill-rule:evenodd;fill:rgb(41.960784%,41.960784%,41.960784%);fill-opacity:1;" d="M 952.800781 1087.199219 C 1019.660156 1103.914062 1038.058594 1143.910156 1008 1207.199219 C 995.144531 1223.089844 978.34375 1231.089844 957.601562 1231.199219 C 968.699219 1220.945312 980.699219 1211.347656 993.601562 1202.398438 C 1004.6875 1170.925781 1003.089844 1140.527344 988.800781 1111.199219 C 984.882812 1104.847656 979.28125 1101.652344 972 1101.601562 C 965.414062 1096.742188 959.015625 1091.941406 952.800781 1087.199219 Z M 952.800781 1087.199219 "/>
<path style=" stroke:none;fill-rule:evenodd;fill:rgb(70.196078%,70.196078%,70.196078%);fill-opacity:1;" d="M 876 1111.199219 C 869.386719 1138.503906 870.183594 1165.703125 878.398438 1192.800781 C 882.671875 1207.84375 891.476562 1219.042969 904.800781 1226.398438 C 904.800781 1228 904.800781 1229.601562 904.800781 1231.199219 C 896.5625 1230.582031 888.5625 1228.980469 880.800781 1226.398438 C 880.800781 1224.800781 880.800781 1223.199219 880.800781 1221.601562 C 864.214844 1205.207031 856.21875 1185.207031 856.800781 1161.601562 C 854.378906 1140.773438 860.785156 1123.972656 876 1111.199219 Z M 876 1111.199219 "/>
<path style=" stroke:none;fill-rule:evenodd;fill:rgb(23.529412%,23.529412%,23.529412%);fill-opacity:1;" d="M 895.199219 1082.398438 C 882.339844 1092.484375 868.742188 1102.085938 854.398438 1111.199219 C 847.65625 1128.101562 843.65625 1145.703125 842.398438 1164 C 843.351562 1191.601562 856.152344 1210.800781 880.800781 1221.601562 C 880.800781 1223.199219 880.800781 1224.800781 880.800781 1226.398438 C 834.898438 1208.132812 819.699219 1174.53125 835.199219 1125.601562 C 848.992188 1102.328125 868.992188 1087.929688 895.199219 1082.398438 Z M 895.199219 1082.398438 "/>
<path style=" stroke:none;fill-rule:evenodd;fill:rgb(66.666667%,66.666667%,66.666667%);fill-opacity:1;" d="M 972 1101.601562 C 979.28125 1101.652344 984.882812 1104.847656 988.800781 1111.199219 C 1003.089844 1140.527344 1004.6875 1170.925781 993.601562 1202.398438 C 980.699219 1211.347656 968.699219 1220.945312 957.601562 1231.199219 C 939.511719 1237.378906 921.910156 1237.378906 904.800781 1231.199219 C 954.3125 1234.371094 983.113281 1211.175781 991.199219 1161.601562 C 989.75 1150.078125 986.554688 1139.683594 981.601562 1130.398438 C 980.621094 1119.910156 977.425781 1110.3125 972 1101.601562 Z M 972 1101.601562 "/>
</g>
</svg>
