<?xml version="1.0" encoding="UTF-8"?>
<svg xmlns="http://www.w3.org/2000/svg" xmlns:xlink="http://www.w3.org/1999/xlink" width="1920pt" height="1440pt" viewBox="0 0 1920 1440" version="1.1">
<g id="surface1">
<path style=" stroke:none;fill-rule:evenodd;fill:rgb(0%,0%,0%);fill-opacity:1;" d="M -2.398438 -2.398438 C 637.597656 -2.398438 1277.601562 -2.398438 1917.601562 -2.398438 C 1917.601562 477.601562 1917.601562 957.601562 1917.601562 1437.601562 C 1277.601562 1437.601562 637.597656 1437.601562 -2.398438 1437.601562 C -2.398438 957.601562 -2.398438 477.601562 -2.398438 -2.398438 Z M -2.398438 -2.398438 "/>
<path style=" stroke:none;fill-rule:evenodd;fill:rgb(48.235294%,48.235294%,47.843137%);fill-opacity:1;" d="M 919.199219 386.398438 C 907.65625 392.488281 894.855469 395.6875 880.800781 396 C 892.023438 388.609375 904.824219 385.410156 919.199219 386.398438 Z M 919.199219 386.398438 "/>
<path style=" stroke:none;fill-rule:evenodd;fill:rgb(98.039216%,98.039216%,98.039216%);fill-opacity:1;" d="M 919.199219 386.398438 C 1031.03125 377.964844 1126.230469 413.167969 1204.800781 492 C 1220.890625 511.433594 1234.488281 532.234375 1245.601562 554.398438 C 1245.25 561.730469 1248.453125 566.53125 1255.199219 568.800781 C 1266.875 591.460938 1274.875 615.460938 1279.199219 640.800781 C 1278.769531 653.53125 1281.964844 664.726562 1288.800781 674.398438 C 1297.695312 830.265625 1233.691406 944.667969 1096.800781 1017.601562 C 1075.023438 1027.261719 1052.621094 1034.460938 1029.601562 1039.199219 C 1016.871094 1038.769531 1005.671875 1041.964844 996 1048.800781 C 968.796875 1048.800781 941.601562 1048.800781 914.398438 1048.800781 C 904.726562 1041.964844 893.53125 1038.769531 880.800781 1039.199219 C 855.460938 1034.875 831.460938 1026.875 808.800781 1015.199219 C 806.53125 1008.453125 801.730469 1005.25 794.398438 1005.601562 C 772.234375 994.488281 751.433594 980.890625 732 964.800781 C 683.617188 915.238281 650.816406 856.839844 633.601562 789.601562 C 627.730469 751.425781 625.328125 713.027344 626.398438 674.398438 C 633.234375 664.726562 636.433594 653.53125 636 640.800781 C 640.324219 615.460938 648.328125 591.460938 660 568.800781 C 666.75 566.53125 669.949219 561.730469 669.601562 554.398438 C 715.328125 469.09375 785.730469 416.292969 880.800781 396 C 894.855469 395.6875 907.65625 392.488281 919.199219 386.398438 Z M 919.199219 386.398438 "/>
<path style=" stroke:none;fill-rule:evenodd;fill:rgb(71.372549%,71.372549%,71.372549%);fill-opacity:1;" d="M 981.601562 506.398438 C 959.027344 506.097656 936.625 507.699219 914.398438 511.199219 C 925.472656 503.773438 938.269531 500.578125 952.800781 501.601562 C 963.339844 501.625 972.941406 503.222656 981.601562 506.398438 Z M 981.601562 506.398438 "/>
<path style=" stroke:none;fill-rule:evenodd;fill:rgb(0.784314%,0.784314%,0.784314%);fill-opacity:1;" d="M 981.601562 506.398438 C 993.144531 512.488281 1005.945312 515.6875 1020 516 C 1026.863281 520.976562 1034.867188 524.179688 1044 525.601562 C 1107.941406 555.867188 1147.9375 605.46875 1164 674.398438 C 1170.398438 701.601562 1170.398438 728.796875 1164 756 C 1160.15625 763.402344 1158.558594 771.398438 1159.199219 780 C 1154.222656 786.863281 1151.019531 794.867188 1149.601562 804 C 1138.441406 826.304688 1124.835938 847.105469 1108.800781 866.398438 C 1089.125 883.824219 1067.523438 898.222656 1044 909.601562 C 1034.867188 911.019531 1026.863281 914.222656 1020 919.199219 C 990.089844 926.429688 959.691406 929.628906 928.800781 928.800781 C 853.441406 914.199219 799.042969 872.601562 765.601562 804 C 764.179688 794.867188 760.976562 786.863281 756 780 C 757.285156 772.324219 755.683594 765.925781 751.199219 760.800781 C 748.011719 736.929688 746.414062 712.929688 746.398438 688.800781 C 753.234375 679.128906 756.433594 667.929688 756 655.199219 C 781.414062 576.980469 834.214844 528.980469 914.398438 511.199219 C 936.625 507.699219 959.027344 506.097656 981.601562 506.398438 Z M 981.601562 506.398438 "/>
<path style=" stroke:none;fill-rule:evenodd;fill:rgb(56.078431%,56.078431%,56.078431%);fill-opacity:1;" d="M 1020 516 C 1030.550781 514.175781 1038.550781 517.378906 1044 525.601562 C 1034.867188 524.179688 1026.863281 520.976562 1020 516 Z M 1020 516 "/>
<path style=" stroke:none;fill-rule:evenodd;fill:rgb(50.196078%,50.196078%,50.196078%);fill-opacity:1;" d="M 669.601562 554.398438 C 669.949219 561.730469 666.75 566.53125 660 568.800781 C 659.648438 561.46875 662.851562 556.671875 669.601562 554.398438 Z M 669.601562 554.398438 "/>
<path style=" stroke:none;fill-rule:evenodd;fill:rgb(50.196078%,50.196078%,50.196078%);fill-opacity:1;" d="M 1245.601562 554.398438 C 1252.347656 556.671875 1255.550781 561.46875 1255.199219 568.800781 C 1248.453125 566.53125 1245.25 561.730469 1245.601562 554.398438 Z M 1245.601562 554.398438 "/>
<path style=" stroke:none;fill-rule:evenodd;fill:rgb(32.941176%,32.941176%,32.941176%);fill-opacity:1;" d="M 1456.800781 592.800781 C 1432.472656 565.460938 1402.074219 556.660156 1365.601562 566.398438 C 1352.660156 569.710938 1342.257812 576.910156 1334.398438 588 C 1329.445312 599.972656 1323.847656 611.175781 1317.601562 621.601562 C 1330.367188 560.195312 1367.167969 540.191406 1428 561.601562 C 1441.964844 568.347656 1451.5625 578.746094 1456.800781 592.800781 Z M 1456.800781 592.800781 "/>
<path style=" stroke:none;fill-rule:evenodd;fill:rgb(55.686275%,55.686275%,55.686275%);fill-opacity:1;" d="M 1456.800781 592.800781 C 1456.800781 596 1456.800781 599.199219 1456.800781 602.398438 C 1448.683594 595.851562 1440.679688 589.453125 1432.800781 583.199219 C 1430.121094 577.007812 1425.320312 573.007812 1418.398438 571.199219 C 1397.335938 568.429688 1376.539062 570.027344 1356 576 C 1348.125 581.417969 1343.324219 588.621094 1341.601562 597.601562 C 1325.15625 616.644531 1318.753906 639.046875 1322.398438 664.800781 C 1317.710938 651.421875 1316.113281 637.023438 1317.601562 621.601562 C 1323.847656 611.175781 1329.445312 599.972656 1334.398438 588 C 1342.257812 576.910156 1352.660156 569.710938 1365.601562 566.398438 C 1402.074219 556.660156 1432.472656 565.460938 1456.800781 592.800781 Z M 1456.800781 592.800781 "/>
<path style=" stroke:none;fill-rule:evenodd;fill:rgb(71.372549%,71.372549%,71.372549%);fill-opacity:1;" d="M 1432.800781 583.199219 C 1399.441406 573.226562 1369.035156 578.027344 1341.601562 597.601562 C 1343.324219 588.621094 1348.125 581.417969 1356 576 C 1376.539062 570.027344 1397.335938 568.429688 1418.398438 571.199219 C 1425.320312 573.007812 1430.121094 577.007812 1432.800781 583.199219 Z M 1432.800781 583.199219 "/>
<path style=" stroke:none;fill-rule:evenodd;fill:rgb(98.039216%,98.039216%,98.039216%);fill-opacity:1;" d="M 1432.800781 583.199219 C 1440.679688 589.453125 1448.683594 595.851562 1456.800781 602.398438 C 1463.546875 604.671875 1466.75 609.46875 1466.398438 616.800781 C 1467.886719 632.222656 1466.289062 646.621094 1461.601562 660 C 1451.519531 672.5 1440.320312 684.5 1428 696 C 1406.082031 702.28125 1383.679688 704.683594 1360.800781 703.199219 C 1346.398438 692 1333.597656 679.199219 1322.398438 664.800781 C 1318.753906 639.046875 1325.15625 616.644531 1341.601562 597.601562 C 1369.035156 578.027344 1399.441406 573.226562 1432.800781 583.199219 Z M 1432.800781 583.199219 "/>
<path style=" stroke:none;fill-rule:evenodd;fill:rgb(36.470588%,36.470588%,36.470588%);fill-opacity:1;" d="M 636 640.800781 C 636.433594 653.53125 633.234375 664.726562 626.398438 674.398438 C 625.96875 661.671875 629.164062 650.472656 636 640.800781 Z M 636 640.800781 "/>
<path style=" stroke:none;fill-rule:evenodd;fill:rgb(36.470588%,36.470588%,36.470588%);fill-opacity:1;" d="M 1279.199219 640.800781 C 1286.035156 650.472656 1289.230469 661.671875 1288.800781 674.398438 C 1281.964844 664.726562 1278.769531 653.53125 1279.199219 640.800781 Z M 1279.199219 640.800781 "/>
<path style=" stroke:none;fill-rule:evenodd;fill:rgb(47.45098%,47.45098%,47.45098%);fill-opacity:1;" d="M 756 655.199219 C 756.433594 667.929688 753.234375 679.128906 746.398438 688.800781 C 745.96875 676.070312 749.164062 664.871094 756 655.199219 Z M 756 655.199219 "/>
<path style=" stroke:none;fill-rule:evenodd;fill:rgb(76.078431%,76.078431%,76.078431%);fill-opacity:1;" d="M 1461.601562 660 C 1442.636719 708.980469 1409.035156 723.378906 1360.800781 703.199219 C 1383.679688 704.683594 1406.082031 702.28125 1428 696 C 1440.320312 684.5 1451.519531 672.5 1461.601562 660 Z M 1461.601562 660 "/>
<path style=" stroke:none;fill-rule:evenodd;fill:rgb(52.54902%,52.54902%,52.54902%);fill-opacity:1;" d="M 1466.398438 616.800781 C 1469.582031 626.269531 1471.179688 636.667969 1471.199219 648 C 1472.027344 664.691406 1468.828125 679.890625 1461.601562 693.601562 C 1448.101562 701.164062 1435.304688 709.96875 1423.199219 720 C 1405.597656 723.203125 1388 723.203125 1370.398438 720 C 1361.824219 713.667969 1352.222656 709.671875 1341.601562 708 C 1328.71875 696.621094 1322.3125 682.21875 1322.398438 664.800781 C 1333.597656 679.199219 1346.398438 692 1360.800781 703.199219 C 1409.035156 723.378906 1442.636719 708.980469 1461.601562 660 C 1466.289062 646.621094 1467.886719 632.222656 1466.398438 616.800781 Z M 1466.398438 616.800781 "/>
<path style=" stroke:none;fill-rule:evenodd;fill:rgb(41.568627%,41.568627%,41.568627%);fill-opacity:1;" d="M 554.398438 712.800781 C 563.238281 717.128906 569.636719 723.53125 573.601562 732 C 564.675781 732.1875 558.277344 728.1875 554.398438 720 C 513.613281 709.285156 480.015625 719.6875 453.601562 751.199219 C 453.601562 748 453.601562 744.800781 453.601562 741.601562 C 480.992188 711.144531 514.59375 701.542969 554.398438 712.800781 Z M 554.398438 712.800781 "/>
<path style=" stroke:none;fill-rule:evenodd;fill:rgb(22.352941%,22.352941%,22.352941%);fill-opacity:1;" d="M 554.398438 712.800781 C 514.59375 701.542969 480.992188 711.144531 453.601562 741.601562 C 473.664062 706.035156 504.066406 694.035156 544.800781 705.601562 C 549.195312 706.933594 552.394531 709.335938 554.398438 712.800781 Z M 554.398438 712.800781 "/>
<path style=" stroke:none;fill-rule:evenodd;fill:rgb(68.627451%,68.627451%,68.627451%);fill-opacity:1;" d="M 1164 674.398438 C 1171.425781 685.472656 1174.621094 698.269531 1173.601562 712.800781 C 1174.355469 728.707031 1171.15625 743.105469 1164 756 C 1170.398438 728.796875 1170.398438 701.601562 1164 674.398438 Z M 1164 674.398438 "/>
<path style=" stroke:none;fill-rule:evenodd;fill:rgb(72.156863%,72.156863%,72.156863%);fill-opacity:1;" d="M 746.398438 688.800781 C 746.414062 712.929688 748.011719 736.929688 751.199219 760.800781 C 747.734375 758.792969 745.335938 755.597656 744 751.199219 C 740.09375 729.503906 740.894531 708.699219 746.398438 688.800781 Z M 746.398438 688.800781 "/>
<path style=" stroke:none;fill-rule:evenodd;fill:rgb(25.098039%,25.098039%,25.098039%);fill-opacity:1;" d="M 1461.601562 693.601562 C 1441.714844 729.0625 1411.316406 741.0625 1370.398438 729.601562 C 1357.890625 725.796875 1348.292969 718.597656 1341.601562 708 C 1352.222656 709.671875 1361.824219 713.667969 1370.398438 720 C 1388 723.203125 1405.597656 723.203125 1423.199219 720 C 1435.304688 709.96875 1448.101562 701.164062 1461.601562 693.601562 Z M 1461.601562 693.601562 "/>
<path style=" stroke:none;fill-rule:evenodd;fill:rgb(97.647059%,97.647059%,97.647059%);fill-opacity:1;" d="M 568.800781 842.398438 C 543.820312 850.820312 518.222656 853.21875 492 849.601562 C 479.6875 839.617188 466.886719 830.816406 453.601562 823.199219 C 450.671875 818.921875 449.074219 814.125 448.800781 808.800781 C 451.960938 747.214844 483.960938 719.210938 544.800781 724.800781 C 564.800781 735.203125 580 750.398438 590.398438 770.398438 C 598.78125 799.957031 591.582031 823.957031 568.800781 842.398438 Z M 568.800781 842.398438 "/>
<path style=" stroke:none;fill-rule:evenodd;fill:rgb(56.078431%,56.078431%,56.078431%);fill-opacity:1;" d="M 756 780 C 760.976562 786.863281 764.179688 794.867188 765.601562 804 C 757.378906 798.550781 754.175781 790.550781 756 780 Z M 756 780 "/>
<path style=" stroke:none;fill-rule:evenodd;fill:rgb(56.078431%,56.078431%,56.078431%);fill-opacity:1;" d="M 1159.199219 780 C 1161.023438 790.550781 1157.824219 798.550781 1149.601562 804 C 1151.019531 794.867188 1154.222656 786.863281 1159.199219 780 Z M 1159.199219 780 "/>
<path style=" stroke:none;fill-rule:evenodd;fill:rgb(57.254902%,57.254902%,57.254902%);fill-opacity:1;" d="M 573.601562 732 C 585.523438 739.777344 592.722656 750.972656 595.199219 765.601562 C 599.105469 787.296875 598.304688 808.097656 592.800781 828 C 580.128906 843.867188 565.726562 858.269531 549.601562 871.199219 C 528.738281 871.996094 507.941406 871.195312 487.199219 868.800781 C 481.390625 863.8125 476.589844 858.210938 472.800781 852 C 507.730469 873.714844 539.730469 870.511719 568.800781 842.398438 C 591.582031 823.957031 598.78125 799.957031 590.398438 770.398438 C 580 750.398438 564.800781 735.203125 544.800781 724.800781 C 483.960938 719.210938 451.960938 747.214844 448.800781 808.800781 C 447.199219 808.800781 445.601562 808.800781 444 808.800781 C 443.207031 791.125 444.007812 773.53125 446.398438 756 C 448.238281 753.332031 450.636719 751.734375 453.601562 751.199219 C 480.015625 719.6875 513.613281 709.285156 554.398438 720 C 558.277344 728.1875 564.675781 732.1875 573.601562 732 Z M 573.601562 732 "/>
<path style=" stroke:none;fill-rule:evenodd;fill:rgb(76.862745%,76.862745%,76.862745%);fill-opacity:1;" d="M 453.601562 823.199219 C 466.886719 830.816406 479.6875 839.617188 492 849.601562 C 518.222656 853.21875 543.820312 850.820312 568.800781 842.398438 C 539.730469 870.511719 507.730469 873.714844 472.800781 852 C 468.28125 841.09375 461.882812 831.496094 453.601562 823.199219 Z M 453.601562 823.199219 "/>
<path style=" stroke:none;fill-rule:evenodd;fill:rgb(29.019608%,29.019608%,29.019608%);fill-opacity:1;" d="M 592.800781 828 C 592.234375 856.277344 577.832031 870.675781 549.601562 871.199219 C 565.726562 858.269531 580.128906 843.867188 592.800781 828 Z M 592.800781 828 "/>
<path style=" stroke:none;fill-rule:evenodd;fill:rgb(35.294118%,35.294118%,35.294118%);fill-opacity:1;" d="M 444 808.800781 C 445.601562 808.800781 447.199219 808.800781 448.800781 808.800781 C 449.074219 814.125 450.671875 818.921875 453.601562 823.199219 C 461.882812 831.496094 468.28125 841.09375 472.800781 852 C 476.589844 858.210938 481.390625 863.8125 487.199219 868.800781 C 507.941406 871.195312 528.738281 871.996094 549.601562 871.199219 C 542.167969 877.410156 532.570312 880.613281 520.800781 880.800781 C 507.382812 881.027344 494.585938 878.625 482.398438 873.601562 C 463.859375 854.847656 451.058594 833.246094 444 808.800781 Z M 444 808.800781 "/>
<path style=" stroke:none;fill-rule:evenodd;fill:rgb(56.078431%,56.078431%,56.078431%);fill-opacity:1;" d="M 1044 909.601562 C 1038.550781 917.824219 1030.550781 921.023438 1020 919.199219 C 1026.863281 914.222656 1034.867188 911.019531 1044 909.601562 Z M 1044 909.601562 "/>
<path style=" stroke:none;fill-rule:evenodd;fill:rgb(71.372549%,71.372549%,71.372549%);fill-opacity:1;" d="M 1020 919.199219 C 990.582031 933.25 960.183594 936.445312 928.800781 928.800781 C 959.691406 929.628906 990.089844 926.429688 1020 919.199219 Z M 1020 919.199219 "/>
<path style=" stroke:none;fill-rule:evenodd;fill:rgb(50.196078%,50.196078%,50.196078%);fill-opacity:1;" d="M 794.398438 1005.601562 C 801.730469 1005.25 806.53125 1008.453125 808.800781 1015.199219 C 801.46875 1015.550781 796.671875 1012.347656 794.398438 1005.601562 Z M 794.398438 1005.601562 "/>
<path style=" stroke:none;fill-rule:evenodd;fill:rgb(36.470588%,36.470588%,36.470588%);fill-opacity:1;" d="M 880.800781 1039.199219 C 893.53125 1038.769531 904.726562 1041.964844 914.398438 1048.800781 C 901.671875 1049.230469 890.472656 1046.035156 880.800781 1039.199219 Z M 880.800781 1039.199219 "/>
<path style=" stroke:none;fill-rule:evenodd;fill:rgb(37.254902%,37.254902%,37.254902%);fill-opacity:1;" d="M 1029.601562 1039.199219 C 1019.929688 1046.035156 1008.730469 1049.230469 996 1048.800781 C 1005.671875 1041.964844 1016.871094 1038.769531 1029.601562 1039.199219 Z M 1029.601562 1039.199219 "/>
</g>
</svg>
