<?xml version="1.0" encoding="UTF-8"?>
<svg xmlns="http://www.w3.org/2000/svg" xmlns:xlink="http://www.w3.org/1999/xlink" width="1920pt" height="1440pt" viewBox="0 0 1920 1440" version="1.1">
<g id="surface1">
<path style=" stroke:none;fill-rule:evenodd;fill:rgb(0%,0%,0%);fill-opacity:1;" d="M -2.398438 -2.398438 C 637.597656 -2.398438 1277.601562 -2.398438 1917.601562 -2.398438 C 1917.601562 477.601562 1917.601562 957.601562 1917.601562 1437.601562 C 1277.601562 1437.601562 637.597656 1437.601562 -2.398438 1437.601562 C -2.398438 957.601562 -2.398438 477.601562 -2.398438 -2.398438 Z M -2.398438 -2.398438 "/>
<path style=" stroke:none;fill-rule:evenodd;fill:rgb(20.392157%,20.392157%,20.392157%);fill-opacity:1;" d="M 1298.398438 338.398438 C 1226.082031 333.921875 1195.679688 367.523438 1207.199219 439.199219 C 1186.949219 368.914062 1214.152344 332.914062 1288.800781 331.199219 C 1293.195312 332.535156 1296.394531 334.9375 1298.398438 338.398438 Z M 1298.398438 338.398438 "/>
<path style=" stroke:none;fill-rule:evenodd;fill:rgb(34.901961%,34.901961%,34.901961%);fill-opacity:1;" d="M 1298.398438 338.398438 C 1303.160156 337.578125 1306.359375 339.175781 1308 343.199219 C 1289.890625 342.0625 1272.289062 344.464844 1255.199219 350.398438 C 1241.601562 360.800781 1228 371.199219 1214.398438 381.601562 C 1211.578125 405.734375 1212.375 429.734375 1216.800781 453.601562 C 1210.050781 451.328125 1206.847656 446.527344 1207.199219 439.199219 C 1195.679688 367.523438 1226.082031 333.921875 1298.398438 338.398438 Z M 1298.398438 338.398438 "/>
<path style=" stroke:none;fill-rule:evenodd;fill:rgb(60%,60%,59.607843%);fill-opacity:1;" d="M 1308 343.199219 C 1330.027344 350.996094 1346.03125 365.398438 1356 386.398438 C 1352.796875 384.800781 1349.601562 383.199219 1346.398438 381.601562 C 1346.398438 378.398438 1344.800781 376.800781 1341.601562 376.800781 C 1311.085938 352.125 1279.085938 351.324219 1245.601562 374.398438 C 1223.03125 400.296875 1216.632812 429.898438 1226.398438 463.199219 C 1220 463.199219 1216.800781 460 1216.800781 453.601562 C 1212.375 429.734375 1211.578125 405.734375 1214.398438 381.601562 C 1228 371.199219 1241.601562 360.800781 1255.199219 350.398438 C 1272.289062 344.464844 1289.890625 342.0625 1308 343.199219 Z M 1308 343.199219 "/>
<path style=" stroke:none;fill-rule:evenodd;fill:rgb(99.607843%,99.607843%,99.607843%);fill-opacity:1;" d="M 1341.601562 376.800781 C 1344.800781 376.800781 1346.398438 378.398438 1346.398438 381.601562 C 1348.914062 459.058594 1312.117188 489.460938 1236 472.800781 C 1221.546875 412.238281 1245.546875 377.035156 1308 367.199219 C 1319.285156 370.433594 1330.484375 373.632812 1341.601562 376.800781 Z M 1341.601562 376.800781 "/>
<path style=" stroke:none;fill-rule:evenodd;fill:rgb(87.058824%,87.058824%,87.058824%);fill-opacity:1;" d="M 1346.398438 381.601562 C 1349.601562 383.199219 1352.796875 384.800781 1356 386.398438 C 1356 389.601562 1356 392.800781 1356 396 C 1359.363281 436.351562 1343.367188 465.953125 1308 484.800781 C 1290.46875 487.195312 1272.875 487.992188 1255.199219 487.199219 C 1250.921875 484.273438 1246.125 482.671875 1240.800781 482.398438 C 1239.203125 479.199219 1237.597656 476 1236 472.800781 C 1312.117188 489.460938 1348.914062 459.058594 1346.398438 381.601562 Z M 1346.398438 381.601562 "/>
<path style=" stroke:none;fill-rule:evenodd;fill:rgb(85.490196%,85.490196%,85.490196%);fill-opacity:1;" d="M 1341.601562 376.800781 C 1330.484375 373.632812 1319.285156 370.433594 1308 367.199219 C 1245.546875 377.035156 1221.546875 412.238281 1236 472.800781 C 1231.199219 471.199219 1228 468 1226.398438 463.199219 C 1216.632812 429.898438 1223.03125 400.296875 1245.601562 374.398438 C 1279.085938 351.324219 1311.085938 352.125 1341.601562 376.800781 Z M 1341.601562 376.800781 "/>
<path style=" stroke:none;fill-rule:evenodd;fill:rgb(97.647059%,97.647059%,97.647059%);fill-opacity:1;" d="M 1250.398438 631.199219 C 1249.96875 643.929688 1253.164062 655.128906 1260 664.800781 C 1275.65625 842.6875 1198.859375 959.492188 1029.601562 1015.199219 C 989.683594 1018.488281 949.683594 1020.085938 909.601562 1020 C 908 1020 906.398438 1020 904.800781 1020 C 895.128906 1013.164062 883.929688 1009.96875 871.199219 1010.398438 C 781.945312 982.933594 717.144531 926.933594 676.800781 842.398438 C 651.945312 785.082031 644.746094 725.878906 655.199219 664.800781 C 662.035156 655.128906 665.230469 643.929688 664.800781 631.199219 C 696.800781 525.601562 765.601562 456.800781 871.199219 424.800781 C 883.929688 425.234375 895.128906 422.035156 904.800781 415.199219 C 1007.648438 401.21875 1097.25 429.21875 1173.601562 499.199219 C 1212.1875 535.566406 1237.785156 579.5625 1250.398438 631.199219 Z M 1250.398438 631.199219 "/>
<path style=" stroke:none;fill-rule:evenodd;fill:rgb(63.137255%,63.137255%,63.137255%);fill-opacity:1;" d="M 1356 396 C 1358.960938 396.53125 1361.363281 398.132812 1363.199219 400.800781 C 1367.980469 423.5 1365.582031 445.097656 1356 465.601562 C 1339.585938 478.84375 1321.988281 490.042969 1303.199219 499.199219 C 1290.398438 502.402344 1277.601562 502.402344 1264.800781 499.199219 C 1260.570312 495.800781 1257.375 491.796875 1255.199219 487.199219 C 1272.875 487.992188 1290.46875 487.195312 1308 484.800781 C 1343.367188 465.953125 1359.363281 436.351562 1356 396 Z M 1356 396 "/>
<path style=" stroke:none;fill-rule:evenodd;fill:rgb(61.568627%,61.568627%,61.568627%);fill-opacity:1;" d="M 904.800781 415.199219 C 895.128906 422.035156 883.929688 425.234375 871.199219 424.800781 C 880.871094 417.964844 892.070312 414.765625 904.800781 415.199219 Z M 904.800781 415.199219 "/>
<path style=" stroke:none;fill-rule:evenodd;fill:rgb(36.078431%,36.078431%,36.078431%);fill-opacity:1;" d="M 1356 386.398438 C 1380.882812 410.664062 1386.484375 439.464844 1372.800781 472.800781 C 1361.472656 492.464844 1344.671875 504.464844 1322.398438 508.800781 C 1288.300781 518.582031 1261.097656 509.777344 1240.800781 482.398438 C 1246.125 482.671875 1250.921875 484.273438 1255.199219 487.199219 C 1257.375 491.796875 1260.570312 495.800781 1264.800781 499.199219 C 1277.601562 502.402344 1290.398438 502.402344 1303.199219 499.199219 C 1321.988281 490.042969 1339.585938 478.84375 1356 465.601562 C 1365.582031 445.097656 1367.980469 423.5 1363.199219 400.800781 C 1361.363281 398.132812 1358.960938 396.53125 1356 396 C 1356 392.800781 1356 389.601562 1356 386.398438 Z M 1356 386.398438 "/>
<path style=" stroke:none;fill-rule:evenodd;fill:rgb(0.392157%,0.392157%,0.392157%);fill-opacity:1;" d="M 933.601562 511.199219 C 949.597656 511.199219 965.601562 511.199219 981.601562 511.199219 C 993.144531 517.285156 1005.945312 520.488281 1020 520.800781 C 1080.042969 542.433594 1123.242188 582.4375 1149.601562 640.800781 C 1151.644531 659.648438 1156.445312 677.246094 1164 693.601562 C 1164 709.597656 1164 725.601562 1164 741.601562 C 1157.914062 753.144531 1154.710938 765.945312 1154.398438 780 C 1130.398438 845.601562 1085.601562 890.398438 1020 914.398438 C 991.679688 921.394531 962.878906 924.589844 933.601562 924 C 917.246094 916.445312 899.648438 911.644531 880.800781 909.601562 C 822.4375 883.242188 782.433594 840.042969 760.800781 780 C 760.488281 765.945312 757.285156 753.144531 751.199219 741.601562 C 751.199219 725.601562 751.199219 709.597656 751.199219 693.601562 C 758.753906 677.246094 763.554688 659.648438 765.601562 640.800781 C 780.265625 599.46875 805.867188 566.667969 842.398438 542.398438 C 854.742188 535.421875 867.542969 529.824219 880.800781 525.601562 C 899.648438 523.554688 917.246094 518.753906 933.601562 511.199219 Z M 933.601562 511.199219 "/>
<path style=" stroke:none;fill-rule:evenodd;fill:rgb(32.941176%,32.941176%,32.941176%);fill-opacity:1;" d="M 933.601562 511.199219 C 917.246094 518.753906 899.648438 523.554688 880.800781 525.601562 C 896.636719 516.082031 914.238281 511.28125 933.601562 511.199219 Z M 933.601562 511.199219 "/>
<path style=" stroke:none;fill-rule:evenodd;fill:rgb(48.235294%,48.235294%,48.235294%);fill-opacity:1;" d="M 981.601562 511.199219 C 995.976562 510.210938 1008.777344 513.40625 1020 520.800781 C 1005.945312 520.488281 993.144531 517.285156 981.601562 511.199219 Z M 981.601562 511.199219 "/>
<path style=" stroke:none;fill-rule:evenodd;fill:rgb(55.686275%,55.686275%,55.686275%);fill-opacity:1;" d="M 664.800781 631.199219 C 665.230469 643.929688 662.035156 655.128906 655.199219 664.800781 C 654.769531 652.070312 657.964844 640.871094 664.800781 631.199219 Z M 664.800781 631.199219 "/>
<path style=" stroke:none;fill-rule:evenodd;fill:rgb(55.686275%,55.686275%,55.686275%);fill-opacity:1;" d="M 1250.398438 631.199219 C 1257.234375 640.871094 1260.433594 652.070312 1260 664.800781 C 1253.164062 655.128906 1249.96875 643.929688 1250.398438 631.199219 Z M 1250.398438 631.199219 "/>
<path style=" stroke:none;fill-rule:evenodd;fill:rgb(32.941176%,32.941176%,32.941176%);fill-opacity:1;" d="M 765.601562 640.800781 C 763.554688 659.648438 758.753906 677.246094 751.199219 693.601562 C 751.28125 674.238281 756.082031 656.636719 765.601562 640.800781 Z M 765.601562 640.800781 "/>
<path style=" stroke:none;fill-rule:evenodd;fill:rgb(32.54902%,32.54902%,32.54902%);fill-opacity:1;" d="M 1149.601562 640.800781 C 1159.117188 656.636719 1163.917969 674.238281 1164 693.601562 C 1156.445312 677.246094 1151.644531 659.648438 1149.601562 640.800781 Z M 1149.601562 640.800781 "/>
<path style=" stroke:none;fill-rule:evenodd;fill:rgb(48.235294%,48.235294%,48.235294%);fill-opacity:1;" d="M 751.199219 741.601562 C 757.285156 753.144531 760.488281 765.945312 760.800781 780 C 753.40625 768.777344 750.210938 755.976562 751.199219 741.601562 Z M 751.199219 741.601562 "/>
<path style=" stroke:none;fill-rule:evenodd;fill:rgb(48.235294%,48.235294%,48.235294%);fill-opacity:1;" d="M 1164 741.601562 C 1164.988281 755.976562 1161.792969 768.777344 1154.398438 780 C 1154.710938 765.945312 1157.914062 753.144531 1164 741.601562 Z M 1164 741.601562 "/>
<path style=" stroke:none;fill-rule:evenodd;fill:rgb(32.54902%,32.54902%,32.54902%);fill-opacity:1;" d="M 880.800781 909.601562 C 899.648438 911.644531 917.246094 916.445312 933.601562 924 C 932 924 930.398438 924 928.800781 924 C 911.222656 922.929688 895.222656 918.128906 880.800781 909.601562 Z M 880.800781 909.601562 "/>
<path style=" stroke:none;fill-rule:evenodd;fill:rgb(68.627451%,68.627451%,68.627451%);fill-opacity:1;" d="M 1020 914.398438 C 990.582031 928.449219 960.183594 931.644531 928.800781 924 C 930.398438 924 932 924 933.601562 924 C 962.878906 924.589844 991.679688 921.394531 1020 914.398438 Z M 1020 914.398438 "/>
<path style=" stroke:none;fill-rule:evenodd;fill:rgb(23.137255%,23.137255%,23.137255%);fill-opacity:1;" d="M 636 924 C 568.15625 926.269531 537.757812 961.472656 544.800781 1029.601562 C 525.875 984.882812 537.070312 948.882812 578.398438 921.601562 C 598.507812 917.703125 617.707031 918.503906 636 924 Z M 636 924 "/>
<path style=" stroke:none;fill-rule:evenodd;fill:rgb(82.745098%,82.745098%,82.745098%);fill-opacity:1;" d="M 660 952.800781 C 639.734375 950.773438 620.535156 953.976562 602.398438 962.398438 C 591.089844 974.503906 580.691406 987.300781 571.199219 1000.800781 C 568.804688 1018.328125 568.007812 1035.925781 568.800781 1053.601562 C 564 1052 560.796875 1048.800781 559.199219 1044 C 548.867188 984.726562 573.664062 951.125 633.601562 943.199219 C 643.734375 944.164062 652.535156 947.363281 660 952.800781 Z M 660 952.800781 "/>
<path style=" stroke:none;fill-rule:evenodd;fill:rgb(98.039216%,98.039216%,98.039216%);fill-opacity:1;" d="M 660 952.800781 C 666.398438 954.398438 672.800781 956 679.199219 957.601562 C 703.621094 1040.074219 673.222656 1078.472656 588 1072.800781 C 583.722656 1069.871094 578.921875 1068.273438 573.601562 1068 C 573.328125 1062.675781 571.726562 1057.875 568.800781 1053.601562 C 568.007812 1035.925781 568.804688 1018.328125 571.199219 1000.800781 C 580.691406 987.300781 591.089844 974.503906 602.398438 962.398438 C 620.535156 953.976562 639.734375 950.773438 660 952.800781 Z M 660 952.800781 "/>
<path style=" stroke:none;fill-rule:evenodd;fill:rgb(62.352941%,62.352941%,62.352941%);fill-opacity:1;" d="M 655.199219 938.398438 C 665.996094 941.183594 673.992188 947.582031 679.199219 957.601562 C 672.800781 956 666.398438 954.398438 660 952.800781 C 652.535156 947.363281 643.734375 944.164062 633.601562 943.199219 C 573.664062 951.125 548.867188 984.726562 559.199219 1044 C 557.601562 1044 556 1044 554.398438 1044 C 552.800781 1040.796875 551.199219 1037.601562 549.601562 1034.398438 C 548.257812 1011.296875 551.453125 988.894531 559.199219 967.199219 C 577.433594 959.203125 593.433594 948.804688 607.199219 936 C 623.273438 934.136719 639.277344 934.9375 655.199219 938.398438 Z M 655.199219 938.398438 "/>
<path style=" stroke:none;fill-rule:evenodd;fill:rgb(43.529412%,43.529412%,43.137255%);fill-opacity:1;" d="M 636 924 C 643.785156 926.984375 650.183594 931.785156 655.199219 938.398438 C 639.277344 934.9375 623.273438 934.136719 607.199219 936 C 593.433594 948.804688 577.433594 959.203125 559.199219 967.199219 C 551.453125 988.894531 548.257812 1011.296875 549.601562 1034.398438 C 546.398438 1034.398438 544.800781 1032.800781 544.800781 1029.601562 C 537.757812 961.472656 568.15625 926.269531 636 924 Z M 636 924 "/>
<path style=" stroke:none;fill-rule:evenodd;fill:rgb(55.686275%,55.686275%,55.686275%);fill-opacity:1;" d="M 871.199219 1010.398438 C 883.929688 1009.96875 895.128906 1013.164062 904.800781 1020 C 892.070312 1020.433594 880.871094 1017.234375 871.199219 1010.398438 Z M 871.199219 1010.398438 "/>
<path style=" stroke:none;fill-rule:evenodd;fill:rgb(51.372549%,51.372549%,51.372549%);fill-opacity:1;" d="M 1029.601562 1015.199219 C 1005.125 1021.9375 979.527344 1025.140625 952.800781 1024.800781 C 937.507812 1024.789062 923.105469 1023.191406 909.601562 1020 C 949.683594 1020.085938 989.683594 1018.488281 1029.601562 1015.199219 Z M 1029.601562 1015.199219 "/>
<path style=" stroke:none;fill-rule:evenodd;fill:rgb(35.294118%,35.294118%,35.294118%);fill-opacity:1;" d="M 554.398438 1044 C 556 1044 557.601562 1044 559.199219 1044 C 560.796875 1048.800781 564 1052 568.800781 1053.601562 C 571.726562 1057.875 573.328125 1062.675781 573.601562 1068 C 563.582031 1062.792969 557.183594 1054.796875 554.398438 1044 Z M 554.398438 1044 "/>
<path style=" stroke:none;fill-rule:evenodd;fill:rgb(45.882353%,45.882353%,45.490196%);fill-opacity:1;" d="M 693.601562 972 C 700.273438 978.714844 705.070312 986.71875 708 996 C 711.6875 1064.304688 679.683594 1097.902344 612 1096.800781 C 595.722656 1091.859375 582.925781 1082.261719 573.601562 1068 C 578.921875 1068.273438 583.722656 1069.871094 588 1072.800781 C 588.53125 1075.761719 590.132812 1078.160156 592.800781 1080 C 639.417969 1089.855469 673.8125 1074.652344 696 1034.398438 C 698.5625 1013.476562 697.765625 992.679688 693.601562 972 Z M 693.601562 972 "/>
<path style=" stroke:none;fill-rule:evenodd;fill:rgb(72.156863%,72.156863%,72.156863%);fill-opacity:1;" d="M 679.199219 957.601562 C 685.09375 961.46875 689.894531 966.269531 693.601562 972 C 697.765625 992.679688 698.5625 1013.476562 696 1034.398438 C 673.8125 1074.652344 639.417969 1089.855469 592.800781 1080 C 590.132812 1078.160156 588.53125 1075.761719 588 1072.800781 C 673.222656 1078.472656 703.621094 1040.074219 679.199219 957.601562 Z M 679.199219 957.601562 "/>
<path style=" stroke:none;fill-rule:evenodd;fill:rgb(21.568627%,21.568627%,21.568627%);fill-opacity:1;" d="M 708 996 C 715.359375 1006.242188 718.558594 1018.242188 717.601562 1032 C 707.371094 1093.84375 672.171875 1115.441406 612 1096.800781 C 679.683594 1097.902344 711.6875 1064.304688 708 996 Z M 708 996 "/>
</g>
</svg>
