<?xml version="1.0" encoding="UTF-8"?>
<svg xmlns="http://www.w3.org/2000/svg" xmlns:xlink="http://www.w3.org/1999/xlink" width="1920pt" height="1440pt" viewBox="0 0 1920 1440" version="1.1">
<g id="surface1">
<path style=" stroke:none;fill-rule:evenodd;fill:rgb(0%,0%,0%);fill-opacity:1;" d="M -2.398438 -2.398438 C 637.597656 -2.398438 1277.601562 -2.398438 1917.601562 -2.398438 C 1917.601562 477.601562 1917.601562 957.601562 1917.601562 1437.601562 C 1277.601562 1437.601562 637.597656 1437.601562 -2.398438 1437.601562 C -2.398438 957.601562 -2.398438 477.601562 -2.398438 -2.398438 Z M -2.398438 -2.398438 "/>
<path style=" stroke:none;fill-rule:evenodd;fill:rgb(74.901961%,74.901961%,74.901961%);fill-opacity:1;" d="M 1269.601562 304.800781 C 1269.601562 306.398438 1269.601562 308 1269.601562 309.601562 C 1194.558594 309.496094 1165.757812 346.296875 1183.199219 420 C 1178.398438 418.398438 1175.199219 415.199219 1173.601562 410.398438 C 1168.609375 389.855469 1167.8125 369.054688 1171.199219 348 C 1184.972656 332.621094 1200.167969 319.019531 1216.800781 307.199219 C 1234.328125 304.808594 1251.925781 304.007812 1269.601562 304.800781 Z M 1269.601562 304.800781 "/>
<path style=" stroke:none;fill-rule:evenodd;fill:rgb(99.215686%,99.215686%,99.215686%);fill-opacity:1;" d="M 1269.601562 309.601562 C 1285.050781 312.332031 1296.25 320.332031 1303.199219 333.601562 C 1303.472656 338.921875 1305.070312 343.722656 1308 348 C 1314.5625 423.050781 1280.960938 454.25 1207.199219 441.601562 C 1202.539062 434.488281 1196.140625 430.488281 1188 429.601562 C 1186.402344 426.398438 1184.796875 423.199219 1183.199219 420 C 1165.757812 346.296875 1194.558594 309.496094 1269.601562 309.601562 Z M 1269.601562 309.601562 "/>
<path style=" stroke:none;fill-rule:evenodd;fill:rgb(34.509804%,34.509804%,34.509804%);fill-opacity:1;" d="M 1269.601562 304.800781 C 1251.925781 304.007812 1234.328125 304.808594 1216.800781 307.199219 C 1200.167969 319.019531 1184.972656 332.621094 1171.199219 348 C 1167.8125 369.054688 1168.609375 389.855469 1173.601562 410.398438 C 1146.460938 358.113281 1160.859375 320.515625 1216.800781 297.601562 C 1235.890625 293.378906 1253.492188 295.777344 1269.601562 304.800781 Z M 1269.601562 304.800781 "/>
<path style=" stroke:none;fill-rule:evenodd;fill:rgb(81.568627%,81.568627%,81.568627%);fill-opacity:1;" d="M 1308 348 C 1319.789062 391.035156 1306.992188 424.636719 1269.601562 448.800781 C 1253.933594 452.757812 1237.929688 454.355469 1221.601562 453.601562 C 1206.363281 451.152344 1195.160156 443.152344 1188 429.601562 C 1196.140625 430.488281 1202.539062 434.488281 1207.199219 441.601562 C 1280.960938 454.25 1314.5625 423.050781 1308 348 Z M 1308 348 "/>
<path style=" stroke:none;fill-rule:evenodd;fill:rgb(56.470588%,56.470588%,56.470588%);fill-opacity:1;" d="M 996 381.601562 C 950.46875 380.125 905.667969 384.925781 861.601562 396 C 877.640625 387.191406 895.242188 381.59375 914.398438 379.199219 C 942.476562 375.273438 969.671875 376.070312 996 381.601562 Z M 996 381.601562 "/>
<path style=" stroke:none;fill-rule:evenodd;fill:rgb(98.039216%,98.039216%,98.039216%);fill-opacity:1;" d="M 996 381.601562 C 1007.070312 383.964844 1018.265625 385.5625 1029.601562 386.398438 C 1030.132812 389.363281 1031.730469 391.761719 1034.398438 393.601562 C 1047.207031 396.320312 1060.003906 398.722656 1072.800781 400.800781 C 1165.019531 435.425781 1230.621094 497.824219 1269.601562 588 C 1276.71875 621.503906 1283.917969 655.105469 1291.199219 688.800781 C 1293.59375 711.144531 1294.398438 733.539062 1293.601562 756 C 1291.234375 767.070312 1289.636719 778.265625 1288.800781 789.601562 C 1285.839844 790.132812 1283.4375 791.730469 1281.601562 794.398438 C 1278.878906 807.207031 1276.476562 820.003906 1274.398438 832.800781 C 1226.285156 953.644531 1138.28125 1025.644531 1010.398438 1048.800781 C 960.332031 1050.867188 910.726562 1047.667969 861.601562 1039.199219 C 797.332031 1023.421875 743.730469 989.824219 700.800781 938.398438 C 661.574219 890.363281 636.773438 835.957031 626.398438 775.199219 C 622.527344 746.574219 620.929688 717.773438 621.601562 688.800781 C 630.671875 655.992188 638.667969 622.390625 645.601562 588 C 687.75 489.820312 759.75 425.820312 861.601562 396 C 905.667969 384.925781 950.46875 380.125 996 381.601562 Z M 996 381.601562 "/>
<path style=" stroke:none;fill-rule:evenodd;fill:rgb(54.901961%,54.901961%,54.509804%);fill-opacity:1;" d="M 1029.601562 386.398438 C 1045.492188 388.238281 1059.894531 393.039062 1072.800781 400.800781 C 1060.003906 398.722656 1047.207031 396.320312 1034.398438 393.601562 C 1031.730469 391.761719 1030.132812 389.363281 1029.601562 386.398438 Z M 1029.601562 386.398438 "/>
<path style=" stroke:none;fill-rule:evenodd;fill:rgb(34.901961%,34.901961%,34.901961%);fill-opacity:1;" d="M 1322.398438 362.398438 C 1332.085938 403.527344 1317.6875 434.730469 1279.199219 456 C 1259.09375 459.898438 1239.894531 459.097656 1221.601562 453.601562 C 1237.929688 454.355469 1253.933594 452.757812 1269.601562 448.800781 C 1281.421875 447.449219 1291.824219 442.652344 1300.800781 434.398438 C 1316.195312 412.8125 1323.394531 388.8125 1322.398438 362.398438 Z M 1322.398438 362.398438 "/>
<path style=" stroke:none;fill-rule:evenodd;fill:rgb(58.039216%,58.039216%,58.039216%);fill-opacity:1;" d="M 1303.199219 333.601562 C 1314.34375 339.851562 1320.742188 349.449219 1322.398438 362.398438 C 1323.394531 388.8125 1316.195312 412.8125 1300.800781 434.398438 C 1291.824219 442.652344 1281.421875 447.449219 1269.601562 448.800781 C 1306.992188 424.636719 1319.789062 391.035156 1308 348 C 1305.070312 343.722656 1303.472656 338.921875 1303.199219 333.601562 Z M 1303.199219 333.601562 "/>
<path style=" stroke:none;fill-rule:evenodd;fill:rgb(0.392157%,0.392157%,0.392157%);fill-opacity:1;" d="M 924 487.199219 C 1063.199219 484.910156 1150.398438 550.511719 1185.601562 684 C 1184.796875 857.601562 1097.601562 944.796875 924 945.601562 C 789.800781 910.53125 725 823.328125 729.601562 684 C 753.667969 577.535156 818.46875 511.933594 924 487.199219 Z M 924 487.199219 "/>
<path style=" stroke:none;fill-rule:evenodd;fill:rgb(69.803922%,69.803922%,69.803922%);fill-opacity:1;" d="M 645.601562 588 C 638.667969 622.390625 630.671875 655.992188 621.601562 688.800781 C 621.601562 685.597656 621.601562 682.402344 621.601562 679.199219 C 624.859375 647.113281 632.855469 616.714844 645.601562 588 Z M 645.601562 588 "/>
<path style=" stroke:none;fill-rule:evenodd;fill:rgb(60.392157%,60.392157%,60.392157%);fill-opacity:1;" d="M 1269.601562 588 C 1295.710938 641.679688 1303.707031 697.679688 1293.601562 756 C 1294.398438 733.539062 1293.59375 711.144531 1291.199219 688.800781 C 1283.917969 655.105469 1276.71875 621.503906 1269.601562 588 Z M 1269.601562 588 "/>
<path style=" stroke:none;fill-rule:evenodd;fill:rgb(40.392157%,40.392157%,40.392157%);fill-opacity:1;" d="M 621.601562 679.199219 C 621.601562 682.402344 621.601562 685.597656 621.601562 688.800781 C 620.929688 717.773438 622.527344 746.574219 626.398438 775.199219 C 618.96875 758.238281 615.773438 739.839844 616.800781 720 C 616.808594 705.5 618.414062 691.902344 621.601562 679.199219 Z M 621.601562 679.199219 "/>
<path style=" stroke:none;fill-rule:evenodd;fill:rgb(54.901961%,54.901961%,54.509804%);fill-opacity:1;" d="M 1288.800781 789.601562 C 1286.960938 805.492188 1282.160156 819.894531 1274.398438 832.800781 C 1276.476562 820.003906 1278.878906 807.207031 1281.601562 794.398438 C 1283.4375 791.730469 1285.839844 790.132812 1288.800781 789.601562 Z M 1288.800781 789.601562 "/>
<path style=" stroke:none;fill-rule:evenodd;fill:rgb(32.54902%,32.54902%,32.54902%);fill-opacity:1;" d="M 688.800781 981.601562 C 616.589844 977.019531 586.191406 1010.621094 597.601562 1082.398438 C 576.859375 1028.660156 594.460938 992.660156 650.398438 974.398438 C 661.597656 971.199219 672.800781 971.199219 684 974.398438 C 686.667969 976.238281 688.265625 978.636719 688.800781 981.601562 Z M 688.800781 981.601562 "/>
<path style=" stroke:none;fill-rule:evenodd;fill:rgb(61.568627%,61.568627%,61.568627%);fill-opacity:1;" d="M 688.800781 981.601562 C 694.996094 980.460938 699.796875 982.0625 703.199219 986.398438 C 622.488281 981.089844 590.488281 1017.886719 607.199219 1096.800781 C 600.453125 1094.53125 597.25 1089.730469 597.601562 1082.398438 C 586.191406 1010.621094 616.589844 977.019531 688.800781 981.601562 Z M 688.800781 981.601562 "/>
<path style=" stroke:none;fill-rule:evenodd;fill:rgb(97.254902%,97.254902%,97.254902%);fill-opacity:1;" d="M 703.199219 986.398438 C 717.125 992.601562 728.324219 1002.203125 736.800781 1015.199219 C 754.507812 1103.09375 719.308594 1138.292969 631.199219 1120.800781 C 621.601562 1114.402344 613.597656 1106.398438 607.199219 1096.800781 C 590.488281 1017.886719 622.488281 981.089844 703.199219 986.398438 Z M 703.199219 986.398438 "/>
<path style=" stroke:none;fill-rule:evenodd;fill:rgb(66.666667%,66.666667%,66.666667%);fill-opacity:1;" d="M 861.601562 1039.199219 C 910.726562 1047.667969 960.332031 1050.867188 1010.398438 1048.800781 C 1006.738281 1052.488281 1001.9375 1054.886719 996 1056 C 949.027344 1062.308594 904.230469 1056.707031 861.601562 1039.199219 Z M 861.601562 1039.199219 "/>
<path style=" stroke:none;fill-rule:evenodd;fill:rgb(24.313725%,24.313725%,24.313725%);fill-opacity:1;" d="M 751.199219 1039.199219 C 761.058594 1068.695312 754.660156 1094.292969 732 1116 C 736.496094 1102.707031 742.097656 1089.90625 748.800781 1077.601562 C 751.1875 1064.898438 751.988281 1052.097656 751.199219 1039.199219 Z M 751.199219 1039.199219 "/>
<path style=" stroke:none;fill-rule:evenodd;fill:rgb(59.215686%,59.215686%,59.215686%);fill-opacity:1;" d="M 736.800781 1015.199219 C 745.199219 1020.761719 750 1028.765625 751.199219 1039.199219 C 751.988281 1052.097656 751.1875 1064.898438 748.800781 1077.601562 C 742.097656 1089.90625 736.496094 1102.707031 732 1116 C 702.511719 1136.078125 670.511719 1140.082031 636 1128 C 633.332031 1126.160156 631.734375 1123.761719 631.199219 1120.800781 C 719.308594 1138.292969 754.507812 1103.09375 736.800781 1015.199219 Z M 736.800781 1015.199219 "/>
</g>
</svg>
