<?xml version="1.0" encoding="UTF-8"?>
<svg xmlns="http://www.w3.org/2000/svg" xmlns:xlink="http://www.w3.org/1999/xlink" width="1920pt" height="1440pt" viewBox="0 0 1920 1440" version="1.1">
<g id="surface1">
<path style=" stroke:none;fill-rule:evenodd;fill:rgb(0%,0%,0%);fill-opacity:1;" d="M -2.398438 -2.398438 C 637.597656 -2.398438 1277.601562 -2.398438 1917.601562 -2.398438 C 1917.601562 477.601562 1917.601562 957.601562 1917.601562 1437.601562 C 1277.601562 1437.601562 637.597656 1437.601562 -2.398438 1437.601562 C -2.398438 957.601562 -2.398438 477.601562 -2.398438 -2.398438 Z M -2.398438 -2.398438 "/>
<path style=" stroke:none;fill-rule:evenodd;fill:rgb(97.647059%,97.647059%,97.647059%);fill-opacity:1;" d="M 1255.199219 607.199219 C 1254.769531 619.929688 1257.964844 631.128906 1264.800781 640.800781 C 1295.125 797.292969 1242.328125 915.695312 1106.398438 996 C 1099.070312 995.648438 1094.269531 998.851562 1092 1005.601562 C 1087.722656 1008.527344 1082.921875 1010.125 1077.601562 1010.398438 C 1059.5625 1009.894531 1043.558594 1014.695312 1029.601562 1024.800781 C 979.824219 1037.417969 930.226562 1037.417969 880.800781 1024.800781 C 871.128906 1017.964844 859.929688 1014.769531 847.199219 1015.199219 C 764.929688 983.335938 704.929688 927.335938 667.199219 847.199219 C 658.449219 818.628906 651.25 789.832031 645.601562 760.800781 C 645.925781 722.332031 647.523438 683.933594 650.398438 645.601562 C 650.398438 644 650.398438 642.398438 650.398438 640.800781 C 657.234375 631.128906 660.433594 619.929688 660 607.199219 C 669.902344 576.164062 685.902344 548.964844 708 525.601562 C 718.019531 520.390625 724.414062 512.394531 727.199219 501.601562 C 750.039062 474.992188 777.238281 454.191406 808.800781 439.199219 C 820.640625 437.976562 830.242188 433.175781 837.601562 424.800781 C 853.703125 423.890625 868.105469 419.089844 880.800781 410.398438 C 1008.773438 384.648438 1116.773438 419.847656 1204.800781 516 C 1226.660156 543.726562 1243.460938 574.128906 1255.199219 607.199219 Z M 1255.199219 607.199219 "/>
<path style=" stroke:none;fill-rule:evenodd;fill:rgb(56.470588%,56.470588%,56.470588%);fill-opacity:1;" d="M 880.800781 410.398438 C 868.105469 419.089844 853.703125 423.890625 837.601562 424.800781 C 850.003906 415.332031 864.402344 410.53125 880.800781 410.398438 Z M 880.800781 410.398438 "/>
<path style=" stroke:none;fill-rule:evenodd;fill:rgb(60.784314%,60.784314%,60.784314%);fill-opacity:1;" d="M 837.601562 424.800781 C 830.242188 433.175781 820.640625 437.976562 808.800781 439.199219 C 816.160156 430.824219 825.757812 426.023438 837.601562 424.800781 Z M 837.601562 424.800781 "/>
<path style=" stroke:none;fill-rule:evenodd;fill:rgb(22.352941%,22.352941%,22.352941%);fill-opacity:1;" d="M 612 588 C 614.324219 534.308594 588.71875 503.910156 535.199219 496.800781 C 521.089844 496.238281 508.285156 499.441406 496.800781 506.398438 C 507.425781 490.308594 522.628906 483.910156 542.398438 487.199219 C 557.828125 485.796875 571.429688 489.796875 583.199219 499.199219 C 594.316406 512.328125 604.714844 525.925781 614.398438 540 C 618.277344 556.929688 617.476562 572.929688 612 588 Z M 612 588 "/>
<path style=" stroke:none;fill-rule:evenodd;fill:rgb(43.529412%,43.529412%,43.529412%);fill-opacity:1;" d="M 612 588 C 612.824219 592.761719 611.222656 595.957031 607.199219 597.601562 C 607.21875 572.09375 599.21875 549.691406 583.199219 530.398438 C 575.054688 512.636719 560.65625 504.632812 540 506.398438 C 513.625 507.695312 491.222656 517.296875 472.800781 535.199219 C 477.214844 522.773438 485.210938 513.171875 496.800781 506.398438 C 508.285156 499.441406 521.089844 496.238281 535.199219 496.800781 C 588.71875 503.910156 614.324219 534.308594 612 588 Z M 612 588 "/>
<path style=" stroke:none;fill-rule:evenodd;fill:rgb(44.705882%,44.705882%,44.705882%);fill-opacity:1;" d="M 1020 506.398438 C 976.832031 500.15625 933.632812 500.15625 890.398438 506.398438 C 894.0625 502.714844 898.863281 500.3125 904.800781 499.199219 C 940 496 975.203125 496 1010.398438 499.199219 C 1014.796875 500.535156 1017.992188 502.933594 1020 506.398438 Z M 1020 506.398438 "/>
<path style=" stroke:none;fill-rule:evenodd;fill:rgb(0.392157%,0.392157%,0.392157%);fill-opacity:1;" d="M 1020 506.398438 C 1091.8125 531.816406 1141.410156 579.816406 1168.800781 650.398438 C 1172.789062 682.230469 1174.386719 714.230469 1173.601562 746.398438 C 1172.765625 757.734375 1171.167969 768.929688 1168.800781 780 C 1143.203125 853.597656 1093.597656 903.203125 1020 928.800781 C 1007.679688 929.859375 996.476562 933.0625 986.398438 938.398438 C 965.601562 938.398438 944.796875 938.398438 924 938.398438 C 914.328125 931.566406 903.128906 928.367188 890.398438 928.800781 C 819.816406 901.410156 771.816406 851.8125 746.398438 780 C 745.339844 767.679688 742.136719 756.476562 736.800781 746.398438 C 736.800781 725.601562 736.800781 704.796875 736.800781 684 C 743.636719 674.328125 746.832031 663.128906 746.398438 650.398438 C 770.566406 578.230469 818.566406 530.230469 890.398438 506.398438 C 933.632812 500.15625 976.832031 500.15625 1020 506.398438 Z M 1020 506.398438 "/>
<path style=" stroke:none;fill-rule:evenodd;fill:rgb(67.45098%,67.45098%,67.45098%);fill-opacity:1;" d="M 727.199219 501.601562 C 724.414062 512.394531 718.019531 520.390625 708 525.601562 C 710.785156 514.804688 717.183594 506.808594 727.199219 501.601562 Z M 727.199219 501.601562 "/>
<path style=" stroke:none;fill-rule:evenodd;fill:rgb(58.431373%,58.431373%,58.431373%);fill-opacity:1;" d="M 583.199219 530.398438 C 555.78125 514.828125 526.980469 512.429688 496.800781 523.199219 C 492.570312 526.597656 489.375 530.601562 487.199219 535.199219 C 476.054688 541.449219 469.65625 551.050781 468 564 C 466.398438 564 464.800781 564 463.199219 564 C 462.046875 552.488281 465.246094 542.890625 472.800781 535.199219 C 491.222656 517.296875 513.625 507.695312 540 506.398438 C 560.65625 504.632812 575.054688 512.636719 583.199219 530.398438 Z M 583.199219 530.398438 "/>
<path style=" stroke:none;fill-rule:evenodd;fill:rgb(98.431373%,98.431373%,98.431373%);fill-opacity:1;" d="M 468 564 C 469.65625 551.050781 476.054688 541.449219 487.199219 535.199219 C 542.585938 521.292969 580.988281 540.496094 602.398438 592.800781 C 597.960938 615.679688 585.160156 632.480469 564 643.199219 C 546.1875 647.160156 528.585938 646.363281 511.199219 640.800781 C 481.8125 623.625 467.414062 598.027344 468 564 Z M 468 564 "/>
<path style=" stroke:none;fill-rule:evenodd;fill:rgb(49.803922%,49.803922%,49.803922%);fill-opacity:1;" d="M 463.199219 564 C 460.691406 599.824219 473.492188 629.425781 501.601562 652.800781 C 542.136719 662.308594 575.734375 651.910156 602.398438 621.601562 C 594.527344 634.316406 586.527344 647.117188 578.398438 660 C 554.648438 665.082031 530.648438 665.886719 506.398438 662.398438 C 489.601562 649.589844 473.601562 635.992188 458.398438 621.601562 C 450.902344 601.160156 452.503906 581.960938 463.199219 564 Z M 463.199219 564 "/>
<path style=" stroke:none;fill-rule:evenodd;fill:rgb(48.235294%,48.235294%,48.235294%);fill-opacity:1;" d="M 660 607.199219 C 660.433594 619.929688 657.234375 631.128906 650.398438 640.800781 C 649.96875 628.070312 653.164062 616.871094 660 607.199219 Z M 660 607.199219 "/>
<path style=" stroke:none;fill-rule:evenodd;fill:rgb(48.235294%,48.235294%,48.235294%);fill-opacity:1;" d="M 1255.199219 607.199219 C 1262.035156 616.871094 1265.230469 628.070312 1264.800781 640.800781 C 1257.964844 631.128906 1254.769531 619.929688 1255.199219 607.199219 Z M 1255.199219 607.199219 "/>
<path style=" stroke:none;fill-rule:evenodd;fill:rgb(30.196078%,30.196078%,30.196078%);fill-opacity:1;" d="M 458.398438 621.601562 C 473.601562 635.992188 489.601562 649.589844 506.398438 662.398438 C 530.648438 665.886719 554.648438 665.082031 578.398438 660 C 573.246094 666.648438 566.847656 672.246094 559.199219 676.800781 C 530.808594 682.664062 504.40625 678.667969 480 664.800781 C 467.773438 652.929688 460.574219 638.53125 458.398438 621.601562 Z M 458.398438 621.601562 "/>
<path style=" stroke:none;fill-rule:evenodd;fill:rgb(76.862745%,76.862745%,76.862745%);fill-opacity:1;" d="M 583.199219 530.398438 C 599.21875 549.691406 607.21875 572.09375 607.199219 597.601562 C 606.582031 605.835938 604.980469 613.839844 602.398438 621.601562 C 575.734375 651.910156 542.136719 662.308594 501.601562 652.800781 C 473.492188 629.425781 460.691406 599.824219 463.199219 564 C 464.800781 564 466.398438 564 468 564 C 467.414062 598.027344 481.8125 623.625 511.199219 640.800781 C 528.585938 646.363281 546.1875 647.160156 564 643.199219 C 585.160156 632.480469 597.960938 615.679688 602.398438 592.800781 C 580.988281 540.496094 542.585938 521.292969 487.199219 535.199219 C 489.375 530.601562 492.570312 526.597656 496.800781 523.199219 C 526.980469 512.429688 555.78125 514.828125 583.199219 530.398438 Z M 583.199219 530.398438 "/>
<path style=" stroke:none;fill-rule:evenodd;fill:rgb(58.431373%,58.431373%,58.431373%);fill-opacity:1;" d="M 746.398438 650.398438 C 746.832031 663.128906 743.636719 674.328125 736.800781 684 C 736.367188 671.269531 739.566406 660.070312 746.398438 650.398438 Z M 746.398438 650.398438 "/>
<path style=" stroke:none;fill-rule:evenodd;fill:rgb(43.921569%,43.921569%,43.921569%);fill-opacity:1;" d="M 1168.800781 650.398438 C 1172.488281 654.0625 1174.886719 658.863281 1176 664.800781 C 1178.394531 691.953125 1179.195312 719.15625 1178.398438 746.398438 C 1176.800781 746.398438 1175.199219 746.398438 1173.601562 746.398438 C 1174.386719 714.230469 1172.789062 682.230469 1168.800781 650.398438 Z M 1168.800781 650.398438 "/>
<path style=" stroke:none;fill-rule:evenodd;fill:rgb(69.019608%,69.019608%,69.019608%);fill-opacity:1;" d="M 650.398438 645.601562 C 647.523438 683.933594 645.925781 722.332031 645.601562 760.800781 C 642.40625 747.292969 640.808594 732.894531 640.800781 717.601562 C 640.28125 692.425781 643.476562 668.425781 650.398438 645.601562 Z M 650.398438 645.601562 "/>
<path style=" stroke:none;fill-rule:evenodd;fill:rgb(60.392157%,60.392157%,60.392157%);fill-opacity:1;" d="M 736.800781 746.398438 C 742.136719 756.476562 745.339844 767.679688 746.398438 780 C 738.417969 770.699219 735.222656 759.496094 736.800781 746.398438 Z M 736.800781 746.398438 "/>
<path style=" stroke:none;fill-rule:evenodd;fill:rgb(61.176471%,61.176471%,61.176471%);fill-opacity:1;" d="M 1173.601562 746.398438 C 1175.199219 746.398438 1176.800781 746.398438 1178.398438 746.398438 C 1179.980469 759.496094 1176.78125 770.699219 1168.800781 780 C 1171.167969 768.929688 1172.765625 757.734375 1173.601562 746.398438 Z M 1173.601562 746.398438 "/>
<path style=" stroke:none;fill-rule:evenodd;fill:rgb(30.980392%,30.980392%,30.980392%);fill-opacity:1;" d="M 1456.800781 861.601562 C 1457.59375 845.519531 1456.789062 829.523438 1454.398438 813.601562 C 1447.820312 806.203125 1440.621094 799.800781 1432.800781 794.398438 C 1419.332031 776.730469 1400.933594 768.730469 1377.601562 770.398438 C 1355.050781 769.621094 1336.652344 777.625 1322.398438 794.398438 C 1327.40625 782.132812 1335.40625 771.730469 1346.398438 763.199219 C 1413.898438 742.363281 1452.296875 766.363281 1461.601562 835.199219 C 1461.570312 844.957031 1459.972656 853.757812 1456.800781 861.601562 Z M 1456.800781 861.601562 "/>
<path style=" stroke:none;fill-rule:evenodd;fill:rgb(50.196078%,50.196078%,50.196078%);fill-opacity:1;" d="M 1432.800781 794.398438 C 1424.660156 793.511719 1418.261719 789.507812 1413.601562 782.398438 C 1391.199219 779.199219 1368.800781 779.199219 1346.398438 782.398438 C 1337.175781 794.0625 1325.976562 802.863281 1312.800781 808.800781 C 1312.449219 801.46875 1315.652344 796.671875 1322.398438 794.398438 C 1336.652344 777.625 1355.050781 769.621094 1377.601562 770.398438 C 1400.933594 768.730469 1419.332031 776.730469 1432.800781 794.398438 Z M 1432.800781 794.398438 "/>
<path style=" stroke:none;fill-rule:evenodd;fill:rgb(97.647059%,97.647059%,97.647059%);fill-opacity:1;" d="M 1447.199219 876 C 1447.199219 879.203125 1447.199219 882.398438 1447.199219 885.601562 C 1439 895.40625 1429.402344 903.40625 1418.398438 909.601562 C 1395.375 911.417969 1372.972656 909.019531 1351.199219 902.398438 C 1325.75 879.589844 1312.949219 851.59375 1312.800781 818.398438 C 1345.851562 793.066406 1382.65625 787.46875 1423.199219 801.601562 C 1444.429688 821.859375 1452.433594 846.65625 1447.199219 876 Z M 1447.199219 876 "/>
<path style=" stroke:none;fill-rule:evenodd;fill:rgb(68.235294%,68.235294%,68.235294%);fill-opacity:1;" d="M 1432.800781 794.398438 C 1440.621094 799.800781 1447.820312 806.203125 1454.398438 813.601562 C 1456.789062 829.523438 1457.59375 845.519531 1456.800781 861.601562 C 1454.726562 867.40625 1451.523438 872.207031 1447.199219 876 C 1452.433594 846.65625 1444.429688 821.859375 1423.199219 801.601562 C 1382.65625 787.46875 1345.851562 793.066406 1312.800781 818.398438 C 1312.800781 815.199219 1312.800781 812 1312.800781 808.800781 C 1325.976562 802.863281 1337.175781 794.0625 1346.398438 782.398438 C 1368.800781 779.199219 1391.199219 779.199219 1413.601562 782.398438 C 1418.261719 789.507812 1424.660156 793.511719 1432.800781 794.398438 Z M 1432.800781 794.398438 "/>
<path style=" stroke:none;fill-rule:evenodd;fill:rgb(75.686275%,75.686275%,75.686275%);fill-opacity:1;" d="M 1312.800781 818.398438 C 1312.949219 851.59375 1325.75 879.589844 1351.199219 902.398438 C 1372.972656 909.019531 1395.375 911.417969 1418.398438 909.601562 C 1392.257812 921.476562 1365.058594 922.277344 1336.800781 912 C 1331.210938 900.824219 1323.214844 892.023438 1312.800781 885.601562 C 1309.441406 864.96875 1307.839844 844.171875 1308 823.199219 C 1308 820 1309.597656 818.398438 1312.800781 818.398438 Z M 1312.800781 818.398438 "/>
<path style=" stroke:none;fill-rule:evenodd;fill:rgb(52.54902%,52.54902%,52.54902%);fill-opacity:1;" d="M 1312.800781 885.601562 C 1323.214844 892.023438 1331.210938 900.824219 1336.800781 912 C 1365.058594 922.277344 1392.257812 921.476562 1418.398438 909.601562 C 1429.402344 903.40625 1439 895.40625 1447.199219 885.601562 C 1445.601562 892 1444 898.402344 1442.398438 904.800781 C 1429.042969 912.320312 1416.246094 921.121094 1404 931.199219 C 1357.300781 946.253906 1326.902344 931.054688 1312.800781 885.601562 Z M 1312.800781 885.601562 "/>
<path style=" stroke:none;fill-rule:evenodd;fill:rgb(58.431373%,58.431373%,58.431373%);fill-opacity:1;" d="M 890.398438 928.800781 C 903.128906 928.367188 914.328125 931.566406 924 938.398438 C 911.269531 938.832031 900.070312 935.636719 890.398438 928.800781 Z M 890.398438 928.800781 "/>
<path style=" stroke:none;fill-rule:evenodd;fill:rgb(60.784314%,60.784314%,60.784314%);fill-opacity:1;" d="M 1020 928.800781 C 1010.699219 936.78125 999.496094 939.980469 986.398438 938.398438 C 996.476562 933.0625 1007.679688 929.859375 1020 928.800781 Z M 1020 928.800781 "/>
<path style=" stroke:none;fill-rule:evenodd;fill:rgb(32.156863%,32.156863%,32.156863%);fill-opacity:1;" d="M 1308 823.199219 C 1307.839844 844.171875 1309.441406 864.96875 1312.800781 885.601562 C 1326.902344 931.054688 1357.300781 946.253906 1404 931.199219 C 1416.246094 921.121094 1429.042969 912.320312 1442.398438 904.800781 C 1414.472656 943.238281 1377.671875 953.640625 1332 936 C 1323.292969 920.917969 1312.890625 907.320312 1300.800781 895.199219 C 1296.476562 869.878906 1298.875 845.878906 1308 823.199219 Z M 1308 823.199219 "/>
<path style=" stroke:none;fill-rule:evenodd;fill:rgb(36.078431%,36.078431%,36.078431%);fill-opacity:1;" d="M 1106.398438 996 C 1104.128906 1002.75 1099.328125 1005.949219 1092 1005.601562 C 1094.269531 998.851562 1099.070312 995.648438 1106.398438 996 Z M 1106.398438 996 "/>
<path style=" stroke:none;fill-rule:evenodd;fill:rgb(62.352941%,62.352941%,62.352941%);fill-opacity:1;" d="M 1077.601562 1010.398438 C 1062.800781 1017.71875 1046.804688 1022.519531 1029.601562 1024.800781 C 1043.558594 1014.695312 1059.5625 1009.894531 1077.601562 1010.398438 Z M 1077.601562 1010.398438 "/>
<path style=" stroke:none;fill-rule:evenodd;fill:rgb(48.235294%,48.235294%,48.235294%);fill-opacity:1;" d="M 847.199219 1015.199219 C 859.929688 1014.769531 871.128906 1017.964844 880.800781 1024.800781 C 868.070312 1025.230469 856.871094 1022.035156 847.199219 1015.199219 Z M 847.199219 1015.199219 "/>
</g>
</svg>
