<?xml version="1.0" encoding="UTF-8"?>
<svg xmlns="http://www.w3.org/2000/svg" xmlns:xlink="http://www.w3.org/1999/xlink" width="1920pt" height="1440pt" viewBox="0 0 1920 1440" version="1.1">
<g id="surface1">
<path style=" stroke:none;fill-rule:evenodd;fill:rgb(0%,0%,0%);fill-opacity:1;" d="M -2.398438 -2.398438 C 637.597656 -2.398438 1277.601562 -2.398438 1917.601562 -2.398438 C 1917.601562 477.601562 1917.601562 957.601562 1917.601562 1437.601562 C 1277.601562 1437.601562 637.597656 1437.601562 -2.398438 1437.601562 C -2.398438 957.601562 -2.398438 477.601562 -2.398438 -2.398438 Z M -2.398438 -2.398438 "/>
<path style=" stroke:none;fill-rule:evenodd;fill:rgb(97.254902%,97.254902%,97.254902%);fill-opacity:1;" d="M 1274.398438 309.601562 C 1288.671875 315.890625 1299.875 325.488281 1308 338.398438 C 1320.628906 380.40625 1311.027344 415.609375 1279.199219 444 C 1260.984375 451.886719 1241.785156 455.085938 1221.601562 453.601562 C 1216.839844 454.421875 1213.640625 452.824219 1212 448.800781 C 1203.984375 436.792969 1193.585938 427.191406 1180.800781 420 C 1158.753906 338.8125 1189.953125 302.011719 1274.398438 309.601562 Z M 1274.398438 309.601562 "/>
<path style=" stroke:none;fill-rule:evenodd;fill:rgb(25.490196%,25.490196%,25.490196%);fill-opacity:1;" d="M 1202.398438 304.800781 C 1175.71875 327.191406 1162.914062 355.992188 1164 391.199219 C 1153.007812 352.347656 1165.808594 323.546875 1202.398438 304.800781 Z M 1202.398438 304.800781 "/>
<path style=" stroke:none;fill-rule:evenodd;fill:rgb(59.215686%,59.215686%,59.215686%);fill-opacity:1;" d="M 1308 338.398438 C 1316.398438 343.964844 1321.199219 351.964844 1322.398438 362.398438 C 1323.394531 388.8125 1316.195312 412.8125 1300.800781 434.398438 C 1294.414062 439.59375 1287.214844 442.792969 1279.199219 444 C 1311.027344 415.609375 1320.628906 380.40625 1308 338.398438 Z M 1308 338.398438 "/>
<path style=" stroke:none;fill-rule:evenodd;fill:rgb(56.862745%,56.862745%,56.862745%);fill-opacity:1;" d="M 1274.398438 309.601562 C 1189.953125 302.011719 1158.753906 338.8125 1180.800781 420 C 1193.585938 427.191406 1203.984375 436.792969 1212 448.800781 C 1183.9375 439.914062 1167.9375 420.714844 1164 391.199219 C 1162.914062 355.992188 1175.71875 327.191406 1202.398438 304.800781 C 1224.671875 300.492188 1247.070312 299.691406 1269.601562 302.398438 C 1272.269531 304.238281 1273.867188 306.636719 1274.398438 309.601562 Z M 1274.398438 309.601562 "/>
<path style=" stroke:none;fill-rule:evenodd;fill:rgb(65.490196%,65.490196%,65.490196%);fill-opacity:1;" d="M 1010.398438 386.398438 C 960.257812 384.152344 910.660156 387.351562 861.601562 396 C 877.640625 387.191406 895.242188 381.59375 914.398438 379.199219 C 941.601562 376 968.796875 376 996 379.199219 C 1001.9375 380.3125 1006.738281 382.714844 1010.398438 386.398438 Z M 1010.398438 386.398438 "/>
<path style=" stroke:none;fill-rule:evenodd;fill:rgb(98.039216%,98.039216%,98.039216%);fill-opacity:1;" d="M 1010.398438 386.398438 C 1104.445312 402.648438 1180.445312 449.050781 1238.398438 525.601562 C 1251.394531 545.1875 1261.796875 565.988281 1269.601562 588 C 1271.835938 612.796875 1277.4375 636.796875 1286.398438 660 C 1288.800781 696.761719 1289.597656 733.566406 1288.800781 770.398438 C 1262.703125 913.316406 1179.503906 1004.515625 1039.199219 1044 C 1012.03125 1047.191406 984.832031 1050.390625 957.601562 1053.601562 C 925.230469 1050.867188 893.226562 1046.070312 861.601562 1039.199219 C 728.6875 997.472656 650.285156 907.875 626.398438 770.398438 C 625.601562 733.566406 626.398438 696.761719 628.800781 660 C 637.761719 636.796875 643.363281 612.796875 645.601562 588 C 687.75 489.820312 759.75 425.820312 861.601562 396 C 910.660156 387.351562 960.257812 384.152344 1010.398438 386.398438 Z M 1010.398438 386.398438 "/>
<path style=" stroke:none;fill-rule:evenodd;fill:rgb(37.647059%,37.647059%,37.647059%);fill-opacity:1;" d="M 1322.398438 362.398438 C 1327.875 377.472656 1328.679688 393.472656 1324.800781 410.398438 C 1315.824219 419.546875 1308.625 429.945312 1303.199219 441.601562 C 1276.992188 457.183594 1249.796875 461.179688 1221.601562 453.601562 C 1241.785156 455.085938 1260.984375 451.886719 1279.199219 444 C 1287.214844 442.792969 1294.414062 439.59375 1300.800781 434.398438 C 1316.195312 412.8125 1323.394531 388.8125 1322.398438 362.398438 Z M 1322.398438 362.398438 "/>
<path style=" stroke:none;fill-rule:evenodd;fill:rgb(0.392157%,0.392157%,0.392157%);fill-opacity:1;" d="M 924 487.199219 C 1063.199219 484.910156 1150.398438 550.511719 1185.601562 684 C 1184.796875 857.601562 1097.601562 944.796875 924 945.601562 C 789.800781 910.53125 725 823.328125 729.601562 684 C 753.667969 577.535156 818.46875 511.933594 924 487.199219 Z M 924 487.199219 "/>
<path style=" stroke:none;fill-rule:evenodd;fill:rgb(68.235294%,68.235294%,68.235294%);fill-opacity:1;" d="M 645.601562 588 C 643.363281 612.796875 637.761719 636.796875 628.800781 660 C 626.398438 696.761719 625.601562 733.566406 626.398438 770.398438 C 622.933594 768.394531 620.535156 765.195312 619.199219 760.800781 C 611.980469 700.167969 620.777344 642.566406 645.601562 588 Z M 645.601562 588 "/>
<path style=" stroke:none;fill-rule:evenodd;fill:rgb(68.235294%,68.235294%,68.235294%);fill-opacity:1;" d="M 1269.601562 588 C 1294.714844 640.882812 1303.511719 696.878906 1296 756 C 1294.886719 761.9375 1292.488281 766.738281 1288.800781 770.398438 C 1289.597656 733.566406 1288.800781 696.761719 1286.398438 660 C 1277.4375 636.796875 1271.835938 612.796875 1269.601562 588 Z M 1269.601562 588 "/>
<path style=" stroke:none;fill-rule:evenodd;fill:rgb(30.588235%,30.588235%,30.588235%);fill-opacity:1;" d="M 684 976.800781 C 614.898438 978.71875 586.097656 1013.921875 597.601562 1082.398438 C 576.476562 1019.207031 599.679688 982.40625 667.199219 972 C 673.847656 972.066406 679.445312 973.671875 684 976.800781 Z M 684 976.800781 "/>
<path style=" stroke:none;fill-rule:evenodd;fill:rgb(60.784314%,60.784314%,60.784314%);fill-opacity:1;" d="M 684 976.800781 C 691.175781 979.148438 697.578125 982.34375 703.199219 986.398438 C 679.027344 984.296875 655.828125 987.496094 633.601562 996 C 621.96875 1009.195312 612.371094 1023.59375 604.800781 1039.199219 C 601.46875 1058.660156 602.269531 1077.859375 607.199219 1096.800781 C 600.453125 1094.53125 597.25 1089.730469 597.601562 1082.398438 C 586.097656 1013.921875 614.898438 978.71875 684 976.800781 Z M 684 976.800781 "/>
<path style=" stroke:none;fill-rule:evenodd;fill:rgb(98.431373%,98.431373%,98.431373%);fill-opacity:1;" d="M 703.199219 986.398438 C 710.984375 989.386719 717.382812 994.1875 722.398438 1000.800781 C 740.710938 1031.964844 741.507812 1063.964844 724.800781 1096.800781 C 716.101562 1105.441406 707.304688 1113.441406 698.398438 1120.800781 C 675.929688 1126.859375 653.53125 1126.859375 631.199219 1120.800781 C 621.601562 1114.402344 613.597656 1106.398438 607.199219 1096.800781 C 602.269531 1077.859375 601.46875 1058.660156 604.800781 1039.199219 C 612.371094 1023.59375 621.96875 1009.195312 633.601562 996 C 655.828125 987.496094 679.027344 984.296875 703.199219 986.398438 Z M 703.199219 986.398438 "/>
<path style=" stroke:none;fill-rule:evenodd;fill:rgb(29.803922%,29.803922%,29.411765%);fill-opacity:1;" d="M 741.601562 1020 C 757.820312 1043.628906 760.21875 1069.230469 748.800781 1096.800781 C 744.246094 1104.445312 738.648438 1110.84375 732 1116 C 736.800781 1103.199219 741.601562 1090.402344 746.398438 1077.601562 C 746.375 1058.238281 744.777344 1039.035156 741.601562 1020 Z M 741.601562 1020 "/>
<path style=" stroke:none;fill-rule:evenodd;fill:rgb(51.764706%,51.764706%,51.764706%);fill-opacity:1;" d="M 861.601562 1039.199219 C 893.226562 1046.070312 925.230469 1050.867188 957.601562 1053.601562 C 984.832031 1050.390625 1012.03125 1047.191406 1039.199219 1044 C 979.421875 1064.164062 920.21875 1062.566406 861.601562 1039.199219 Z M 861.601562 1039.199219 "/>
<path style=" stroke:none;fill-rule:evenodd;fill:rgb(77.254902%,77.254902%,77.254902%);fill-opacity:1;" d="M 722.398438 1000.800781 C 730.402344 1005.601562 736.800781 1012 741.601562 1020 C 744.777344 1039.035156 746.375 1058.238281 746.398438 1077.601562 C 737.011719 1092.1875 725.808594 1105.785156 712.800781 1118.398438 C 708.25 1120.71875 703.449219 1121.515625 698.398438 1120.800781 C 707.304688 1113.441406 716.101562 1105.441406 724.800781 1096.800781 C 741.507812 1063.964844 740.710938 1031.964844 722.398438 1000.800781 Z M 722.398438 1000.800781 "/>
<path style=" stroke:none;fill-rule:evenodd;fill:rgb(58.039216%,58.039216%,58.039216%);fill-opacity:1;" d="M 746.398438 1077.601562 C 741.601562 1090.402344 736.800781 1103.199219 732 1116 C 706.136719 1133.75 677.335938 1139.351562 645.601562 1132.800781 C 638.679688 1130.992188 633.878906 1126.992188 631.199219 1120.800781 C 653.53125 1126.859375 675.929688 1126.859375 698.398438 1120.800781 C 703.449219 1121.515625 708.25 1120.71875 712.800781 1118.398438 C 725.808594 1105.785156 737.011719 1092.1875 746.398438 1077.601562 Z M 746.398438 1077.601562 "/>
</g>
</svg>
