<?xml version="1.0" encoding="UTF-8"?>
<svg xmlns="http://www.w3.org/2000/svg" xmlns:xlink="http://www.w3.org/1999/xlink" width="1920pt" height="1440pt" viewBox="0 0 1920 1440" version="1.1">
<g id="surface1">
<path style=" stroke:none;fill-rule:evenodd;fill:rgb(0%,0%,0%);fill-opacity:1;" d="M -2.398438 -2.398438 C 637.597656 -2.398438 1277.601562 -2.398438 1917.601562 -2.398438 C 1917.601562 477.601562 1917.601562 957.601562 1917.601562 1437.601562 C 1277.601562 1437.601562 637.597656 1437.601562 -2.398438 1437.601562 C -2.398438 957.601562 -2.398438 477.601562 -2.398438 -2.398438 Z M -2.398438 -2.398438 "/>
<path style=" stroke:none;fill-rule:evenodd;fill:rgb(33.72549%,33.72549%,33.72549%);fill-opacity:1;" d="M 1336.800781 376.800781 C 1317.53125 376.003906 1298.332031 376.804688 1279.199219 379.199219 C 1248.484375 403.019531 1234.085938 434.21875 1236 472.800781 C 1226.625 444.234375 1231.425781 417.832031 1250.398438 393.601562 C 1259.785156 389.023438 1267.785156 382.625 1274.398438 374.398438 C 1296.097656 370.496094 1316.898438 371.292969 1336.800781 376.800781 Z M 1336.800781 376.800781 "/>
<path style=" stroke:none;fill-rule:evenodd;fill:rgb(98.039216%,98.039216%,98.039216%);fill-opacity:1;" d="M 1284 636 C 1289.765625 687.253906 1289.765625 738.457031 1284 789.601562 C 1279.453125 823.890625 1269.054688 855.886719 1252.800781 885.601562 C 1232.222656 909.960938 1212.226562 934.761719 1192.800781 960 C 1170.339844 979.210938 1146.339844 996.007812 1120.800781 1010.398438 C 1113.46875 1010.050781 1108.671875 1013.25 1106.398438 1020 C 1078.753906 1032.523438 1049.953125 1042.125 1020 1048.800781 C 968.332031 1050.917969 917.132812 1047.714844 866.398438 1039.199219 C 799.933594 1024.738281 744.734375 991.136719 700.800781 938.398438 C 663.089844 890.113281 638.289062 835.714844 626.398438 775.199219 C 626.398438 735.203125 626.398438 695.199219 626.398438 655.199219 C 633.234375 645.527344 636.433594 634.328125 636 621.601562 C 636 618.398438 636 615.203125 636 612 C 647.203125 603.957031 652.003906 592.757812 650.398438 578.398438 C 687.902344 496.09375 748.703125 438.496094 832.800781 405.601562 C 848.902344 404.691406 863.304688 399.890625 876 391.199219 C 1021.679688 361.417969 1140.878906 404.617188 1233.601562 520.800781 C 1258.367188 555.972656 1275.167969 594.375 1284 636 Z M 1284 636 "/>
<path style=" stroke:none;fill-rule:evenodd;fill:rgb(98.039216%,98.039216%,98.039216%);fill-opacity:1;" d="M 1351.199219 386.398438 C 1365.394531 394.355469 1376.59375 405.554688 1384.800781 420 C 1385.597656 439.265625 1384.796875 458.464844 1382.398438 477.601562 C 1381.066406 481.996094 1378.664062 485.195312 1375.199219 487.199219 C 1367.667969 500.292969 1356.46875 509.097656 1341.601562 513.601562 C 1319.199219 516.800781 1296.800781 516.800781 1274.398438 513.601562 C 1269.738281 506.492188 1263.339844 502.488281 1255.199219 501.601562 C 1253.601562 498.398438 1252 495.203125 1250.398438 492 C 1235.289062 443.65625 1249.691406 407.65625 1293.601562 384 C 1313.058594 380.671875 1332.257812 381.472656 1351.199219 386.398438 Z M 1351.199219 386.398438 "/>
<path style=" stroke:none;fill-rule:evenodd;fill:rgb(65.882353%,65.882353%,65.882353%);fill-opacity:1;" d="M 876 391.199219 C 863.304688 399.890625 848.902344 404.691406 832.800781 405.601562 C 845.203125 396.132812 859.601562 391.332031 876 391.199219 Z M 876 391.199219 "/>
<path style=" stroke:none;fill-rule:evenodd;fill:rgb(67.058824%,67.058824%,67.058824%);fill-opacity:1;" d="M 1336.800781 376.800781 C 1344.128906 376.449219 1348.929688 379.648438 1351.199219 386.398438 C 1332.257812 381.472656 1313.058594 380.671875 1293.601562 384 C 1249.691406 407.65625 1235.289062 443.65625 1250.398438 492 C 1243.886719 486.769531 1239.085938 480.363281 1236 472.800781 C 1234.085938 434.21875 1248.484375 403.019531 1279.199219 379.199219 C 1298.332031 376.804688 1317.53125 376.003906 1336.800781 376.800781 Z M 1336.800781 376.800781 "/>
<path style=" stroke:none;fill-rule:evenodd;fill:rgb(45.098039%,45.098039%,45.098039%);fill-opacity:1;" d="M 1384.800781 420 C 1387.761719 420.53125 1390.160156 422.132812 1392 424.800781 C 1398.546875 457.890625 1391.347656 486.691406 1370.398438 511.199219 C 1372.980469 503.4375 1374.582031 495.4375 1375.199219 487.199219 C 1378.664062 485.195312 1381.066406 481.996094 1382.398438 477.601562 C 1384.796875 458.464844 1385.597656 439.265625 1384.800781 420 Z M 1384.800781 420 "/>
<path style=" stroke:none;fill-rule:evenodd;fill:rgb(0.784314%,0.784314%,0.784314%);fill-opacity:1;" d="M 1034.398438 928.800781 C 1022.078125 929.859375 1010.875 933.0625 1000.800781 938.398438 C 880.175781 952.859375 794.578125 904.859375 744 794.398438 C 712.03125 676.863281 746.433594 584.859375 847.199219 518.398438 C 858.5 514.335938 869.703125 510.335938 880.800781 506.398438 C 892.308594 507.558594 901.910156 504.355469 909.601562 496.800781 C 1038.582031 482.476562 1127.378906 535.277344 1176 655.199219 C 1193.011719 739.503906 1173.015625 813.902344 1116 878.398438 C 1091.878906 900.066406 1064.683594 916.867188 1034.398438 928.800781 Z M 1034.398438 928.800781 "/>
<path style=" stroke:none;fill-rule:evenodd;fill:rgb(32.941176%,32.941176%,32.941176%);fill-opacity:1;" d="M 909.601562 496.800781 C 901.910156 504.355469 892.308594 507.558594 880.800781 506.398438 C 888.488281 498.84375 898.089844 495.644531 909.601562 496.800781 Z M 909.601562 496.800781 "/>
<path style=" stroke:none;fill-rule:evenodd;fill:rgb(78.431373%,78.431373%,78.431373%);fill-opacity:1;" d="M 1375.199219 487.199219 C 1374.582031 495.4375 1372.980469 503.4375 1370.398438 511.199219 C 1366.609375 515.523438 1361.808594 518.726562 1356 520.800781 C 1328.640625 525.816406 1301.4375 525.816406 1274.398438 520.800781 C 1266.398438 516 1260 509.601562 1255.199219 501.601562 C 1263.339844 502.488281 1269.738281 506.492188 1274.398438 513.601562 C 1296.800781 516.800781 1319.199219 516.800781 1341.601562 513.601562 C 1356.46875 509.097656 1367.667969 500.292969 1375.199219 487.199219 Z M 1375.199219 487.199219 "/>
<path style=" stroke:none;fill-rule:evenodd;fill:rgb(45.882353%,45.882353%,45.882353%);fill-opacity:1;" d="M 1274.398438 520.800781 C 1301.4375 525.816406 1328.640625 525.816406 1356 520.800781 C 1345.796875 530.625 1333 535.425781 1317.601562 535.199219 C 1308 534.398438 1298.398438 533.601562 1288.800781 532.800781 C 1281.878906 530.992188 1277.078125 526.992188 1274.398438 520.800781 Z M 1274.398438 520.800781 "/>
<path style=" stroke:none;fill-rule:evenodd;fill:rgb(62.352941%,62.352941%,62.352941%);fill-opacity:1;" d="M 650.398438 578.398438 C 652.003906 592.757812 647.203125 603.957031 636 612 C 638.089844 599.246094 642.886719 588.042969 650.398438 578.398438 Z M 650.398438 578.398438 "/>
<path style=" stroke:none;fill-rule:evenodd;fill:rgb(61.176471%,61.176471%,61.176471%);fill-opacity:1;" d="M 636 621.601562 C 636.433594 634.328125 633.234375 645.527344 626.398438 655.199219 C 625.96875 642.46875 629.164062 631.273438 636 621.601562 Z M 636 621.601562 "/>
<path style=" stroke:none;fill-rule:evenodd;fill:rgb(70.588235%,70.588235%,70.588235%);fill-opacity:1;" d="M 1284 636 C 1287.792969 641.324219 1290.191406 647.722656 1291.199219 655.199219 C 1294.402344 695.199219 1294.402344 735.203125 1291.199219 775.199219 C 1290.085938 781.136719 1287.6875 785.9375 1284 789.601562 C 1289.765625 738.457031 1289.765625 687.253906 1284 636 Z M 1284 636 "/>
<path style=" stroke:none;fill-rule:evenodd;fill:rgb(61.568627%,61.568627%,61.568627%);fill-opacity:1;" d="M 626.398438 655.199219 C 626.398438 695.199219 626.398438 735.203125 626.398438 775.199219 C 613.597656 735.203125 613.597656 695.199219 626.398438 655.199219 Z M 626.398438 655.199219 "/>
<path style=" stroke:none;fill-rule:evenodd;fill:rgb(63.529412%,63.529412%,63.529412%);fill-opacity:1;" d="M 626.398438 904.800781 C 629.601562 908 632.796875 911.199219 636 914.398438 C 615.140625 913.601562 594.339844 914.40625 573.601562 916.800781 C 560.480469 921.140625 549.277344 928.339844 540 938.398438 C 541.722656 929.417969 546.523438 922.21875 554.398438 916.800781 C 577.414062 907.042969 601.414062 903.042969 626.398438 904.800781 Z M 626.398438 904.800781 "/>
<path style=" stroke:none;fill-rule:evenodd;fill:rgb(81.568627%,81.568627%,81.568627%);fill-opacity:1;" d="M 636 914.398438 C 646.234375 914.660156 652.632812 919.460938 655.199219 928.800781 C 625.515625 917.269531 595.113281 916.46875 564 926.398438 C 556.621094 934.59375 548.621094 941.792969 540 948 C 540 944.796875 540 941.601562 540 938.398438 C 549.277344 928.339844 560.480469 921.140625 573.601562 916.800781 C 594.339844 914.40625 615.140625 913.601562 636 914.398438 Z M 636 914.398438 "/>
<path style=" stroke:none;fill-rule:evenodd;fill:rgb(98.431373%,98.431373%,98.431373%);fill-opacity:1;" d="M 655.199219 928.800781 C 663.65625 932.457031 668.457031 938.859375 669.601562 948 C 676.757812 1019.238281 644.761719 1052.835938 573.601562 1048.800781 C 569.324219 1045.871094 564.523438 1044.273438 559.199219 1044 C 546.289062 1035.875 536.6875 1024.671875 530.398438 1010.398438 C 528.265625 988.316406 531.464844 967.511719 540 948 C 548.621094 941.792969 556.621094 934.59375 564 926.398438 C 595.113281 916.46875 625.515625 917.269531 655.199219 928.800781 Z M 655.199219 928.800781 "/>
<path style=" stroke:none;fill-rule:evenodd;fill:rgb(30.196078%,30.196078%,30.196078%);fill-opacity:1;" d="M 626.398438 904.800781 C 601.414062 903.042969 577.414062 907.042969 554.398438 916.800781 C 546.523438 922.21875 541.722656 929.417969 540 938.398438 C 532.964844 942.464844 528.960938 948.863281 528 957.601562 C 525.613281 968.6875 524.816406 979.886719 525.601562 991.199219 C 520.113281 918.339844 553.714844 889.539062 626.398438 904.800781 Z M 626.398438 904.800781 "/>
<path style=" stroke:none;fill-rule:evenodd;fill:rgb(52.941176%,52.941176%,52.941176%);fill-opacity:1;" d="M 1034.398438 928.800781 C 1025.097656 936.78125 1013.894531 939.980469 1000.800781 938.398438 C 1010.875 933.0625 1022.078125 929.859375 1034.398438 928.800781 Z M 1034.398438 928.800781 "/>
<path style=" stroke:none;fill-rule:evenodd;fill:rgb(59.607843%,59.607843%,59.607843%);fill-opacity:1;" d="M 540 938.398438 C 540 941.601562 540 944.796875 540 948 C 531.464844 967.511719 528.265625 988.316406 530.398438 1010.398438 C 525.917969 1005.273438 524.3125 998.875 525.601562 991.199219 C 524.816406 979.886719 525.613281 968.6875 528 957.601562 C 528.960938 948.863281 532.964844 942.464844 540 938.398438 Z M 540 938.398438 "/>
<path style=" stroke:none;fill-rule:evenodd;fill:rgb(50.196078%,50.196078%,50.196078%);fill-opacity:1;" d="M 1120.800781 1010.398438 C 1118.53125 1017.148438 1113.730469 1020.351562 1106.398438 1020 C 1108.671875 1013.25 1113.46875 1010.050781 1120.800781 1010.398438 Z M 1120.800781 1010.398438 "/>
<path style=" stroke:none;fill-rule:evenodd;fill:rgb(25.490196%,25.490196%,25.490196%);fill-opacity:1;" d="M 679.199219 962.398438 C 687.980469 989.554688 683.980469 1015.152344 667.199219 1039.199219 C 663.980469 1042.808594 659.980469 1044.414062 655.199219 1044 C 662.871094 1033.449219 669.269531 1022.25 674.398438 1010.398438 C 678.789062 994.90625 680.386719 978.90625 679.199219 962.398438 Z M 679.199219 962.398438 "/>
<path style=" stroke:none;fill-rule:evenodd;fill:rgb(75.686275%,75.686275%,75.686275%);fill-opacity:1;" d="M 669.601562 948 C 676.347656 950.269531 679.550781 955.070312 679.199219 962.398438 C 680.386719 978.90625 678.789062 994.90625 674.398438 1010.398438 C 662.753906 1026.023438 648.355469 1039.621094 631.199219 1051.199219 C 611.09375 1055.097656 591.894531 1054.296875 573.601562 1048.800781 C 644.761719 1052.835938 676.757812 1019.238281 669.601562 948 Z M 669.601562 948 "/>
<path style=" stroke:none;fill-rule:evenodd;fill:rgb(73.72549%,73.72549%,73.72549%);fill-opacity:1;" d="M 866.398438 1039.199219 C 917.132812 1047.714844 968.332031 1050.917969 1020 1048.800781 C 980.851562 1054.355469 940.847656 1055.152344 900 1051.199219 C 887.082031 1050.453125 875.886719 1046.453125 866.398438 1039.199219 Z M 866.398438 1039.199219 "/>
<path style=" stroke:none;fill-rule:evenodd;fill:rgb(48.235294%,48.235294%,48.235294%);fill-opacity:1;" d="M 674.398438 1010.398438 C 669.269531 1022.25 662.871094 1033.449219 655.199219 1044 C 629.742188 1064.664062 600.941406 1068.664062 568.800781 1056 C 564.570312 1052.601562 561.375 1048.597656 559.199219 1044 C 564.523438 1044.273438 569.324219 1045.871094 573.601562 1048.800781 C 591.894531 1054.296875 611.09375 1055.097656 631.199219 1051.199219 C 648.355469 1039.621094 662.753906 1026.023438 674.398438 1010.398438 Z M 674.398438 1010.398438 "/>
</g>
</svg>
