<?xml version="1.0" encoding="UTF-8"?>
<svg xmlns="http://www.w3.org/2000/svg" xmlns:xlink="http://www.w3.org/1999/xlink" width="1920pt" height="1440pt" viewBox="0 0 1920 1440" version="1.1">
<g id="surface1">
<path style=" stroke:none;fill-rule:evenodd;fill:rgb(0%,0%,0%);fill-opacity:1;" d="M -2.398438 -2.398438 C 637.597656 -2.398438 1277.601562 -2.398438 1917.601562 -2.398438 C 1917.601562 477.601562 1917.601562 957.601562 1917.601562 1437.601562 C 1277.601562 1437.601562 637.597656 1437.601562 -2.398438 1437.601562 C -2.398438 957.601562 -2.398438 477.601562 -2.398438 -2.398438 Z M -2.398438 -2.398438 "/>
<path style=" stroke:none;fill-rule:evenodd;fill:rgb(99.215686%,99.215686%,99.215686%);fill-opacity:1;" d="M 1044 218.398438 C 1045.597656 218.398438 1047.203125 218.398438 1048.800781 218.398438 C 1063.285156 217.609375 1077.6875 218.410156 1092 220.800781 C 1104.488281 231.03125 1117.285156 239.832031 1130.398438 247.199219 C 1130.398438 253.601562 1130.398438 260 1130.398438 266.398438 C 1135.097656 303.660156 1122.300781 332.460938 1092 352.800781 C 1090.359375 356.824219 1087.160156 358.421875 1082.398438 357.601562 C 1065.707031 359.117188 1049.703125 356.714844 1034.398438 350.398438 C 1002 304.542969 1005.203125 260.542969 1044 218.398438 Z M 1044 218.398438 "/>
<path style=" stroke:none;fill-rule:evenodd;fill:rgb(45.490196%,45.490196%,45.490196%);fill-opacity:1;" d="M 1087.199219 213.601562 C 1073.351562 212.128906 1060.550781 213.730469 1048.800781 218.398438 C 1047.203125 218.398438 1045.597656 218.398438 1044 218.398438 C 1003.152344 237.242188 987.949219 269.242188 998.398438 314.398438 C 1008.382812 326.714844 1017.183594 339.511719 1024.800781 352.800781 C 1015.410156 345.054688 1005.8125 337.054688 996 328.800781 C 987.460938 307.128906 985.0625 284.726562 988.800781 261.601562 C 999.949219 243.269531 1013.546875 227.269531 1029.601562 213.601562 C 1048.800781 207.199219 1068 207.199219 1087.199219 213.601562 Z M 1087.199219 213.601562 "/>
<path style=" stroke:none;fill-rule:evenodd;fill:rgb(21.568627%,21.568627%,21.568627%);fill-opacity:1;" d="M 1029.601562 213.601562 C 1013.546875 227.269531 999.949219 243.269531 988.800781 261.601562 C 985.0625 284.726562 987.460938 307.128906 996 328.800781 C 975.351562 306.742188 971.347656 281.144531 984 252 C 995.753906 234.605469 1010.957031 221.808594 1029.601562 213.601562 Z M 1029.601562 213.601562 "/>
<path style=" stroke:none;fill-rule:evenodd;fill:rgb(81.176471%,81.176471%,81.176471%);fill-opacity:1;" d="M 1130.398438 266.398438 C 1136.390625 270.402344 1139.59375 276.800781 1140 285.601562 C 1140.039062 310.3125 1130.4375 330.3125 1111.199219 345.601562 C 1105.222656 349.398438 1098.824219 351.796875 1092 352.800781 C 1122.300781 332.460938 1135.097656 303.660156 1130.398438 266.398438 Z M 1130.398438 266.398438 "/>
<path style=" stroke:none;fill-rule:evenodd;fill:rgb(27.45098%,27.45098%,27.45098%);fill-opacity:1;" d="M 1135.199219 237.601562 C 1157.683594 258.148438 1164.882812 283.75 1156.800781 314.398438 C 1149.949219 341.257812 1133.152344 357.253906 1106.398438 362.398438 C 1114.90625 352.292969 1125.300781 344.292969 1137.601562 338.398438 C 1153.761719 304.25 1152.960938 270.648438 1135.199219 237.601562 Z M 1135.199219 237.601562 "/>
<path style=" stroke:none;fill-rule:evenodd;fill:rgb(80%,80%,80%);fill-opacity:1;" d="M 1044 218.398438 C 1005.203125 260.542969 1002 304.542969 1034.398438 350.398438 C 1049.703125 356.714844 1065.707031 359.117188 1082.398438 357.601562 C 1070.648438 362.269531 1057.847656 363.871094 1044 362.398438 C 1036.066406 361.632812 1029.667969 358.433594 1024.800781 352.800781 C 1017.183594 339.511719 1008.382812 326.714844 998.398438 314.398438 C 987.949219 269.242188 1003.152344 237.242188 1044 218.398438 Z M 1044 218.398438 "/>
<path style=" stroke:none;fill-rule:evenodd;fill:rgb(57.254902%,57.254902%,57.254902%);fill-opacity:1;" d="M 1048.800781 218.398438 C 1060.550781 213.730469 1073.351562 212.128906 1087.199219 213.601562 C 1105.378906 217.410156 1121.375 225.410156 1135.199219 237.601562 C 1152.960938 270.648438 1153.761719 304.25 1137.601562 338.398438 C 1125.300781 344.292969 1114.90625 352.292969 1106.398438 362.398438 C 1084.851562 367.542969 1064.054688 367.542969 1044 362.398438 C 1057.847656 363.871094 1070.648438 362.269531 1082.398438 357.601562 C 1087.160156 358.421875 1090.359375 356.824219 1092 352.800781 C 1098.824219 351.796875 1105.222656 349.398438 1111.199219 345.601562 C 1130.4375 330.3125 1140.039062 310.3125 1140 285.601562 C 1139.59375 276.800781 1136.390625 270.402344 1130.398438 266.398438 C 1130.398438 260 1130.398438 253.601562 1130.398438 247.199219 C 1117.285156 239.832031 1104.488281 231.03125 1092 220.800781 C 1077.6875 218.410156 1063.285156 217.609375 1048.800781 218.398438 Z M 1048.800781 218.398438 "/>
<path style=" stroke:none;fill-rule:evenodd;fill:rgb(98.039216%,98.039216%,98.039216%);fill-opacity:1;" d="M 996 386.398438 C 1015.507812 394.265625 1036.304688 399.0625 1058.398438 400.800781 C 1081.828125 408.292969 1104.230469 417.894531 1125.601562 429.601562 C 1127.871094 436.351562 1132.671875 439.550781 1140 439.199219 C 1200.980469 479.390625 1244.179688 533.789062 1269.601562 602.398438 C 1268.441406 613.910156 1271.644531 623.511719 1279.199219 631.199219 C 1287.351562 672.28125 1290.550781 713.886719 1288.800781 756 C 1280.9375 775.507812 1276.136719 796.304688 1274.398438 818.398438 C 1266.90625 841.828125 1257.308594 864.230469 1245.601562 885.601562 C 1238.851562 887.871094 1235.648438 892.671875 1236 900 C 1144.925781 1022.125 1023.328125 1068.527344 871.199219 1039.199219 C 863.511719 1031.644531 853.910156 1028.441406 842.398438 1029.601562 C 773.789062 1004.179688 719.390625 960.980469 679.199219 900 C 679.550781 892.671875 676.347656 887.871094 669.601562 885.601562 C 627.6875 805.253906 616.488281 720.457031 636 631.199219 C 643.554688 623.511719 646.757812 613.910156 645.601562 602.398438 C 680.796875 506.398438 746.398438 440.800781 842.398438 405.601562 C 853.910156 406.753906 863.511719 403.554688 871.199219 396 C 912.28125 387.847656 953.886719 384.648438 996 386.398438 Z M 996 386.398438 "/>
<path style=" stroke:none;fill-rule:evenodd;fill:rgb(53.333333%,53.333333%,53.333333%);fill-opacity:1;" d="M 996 386.398438 C 1013.582031 388.570312 1031.183594 390.96875 1048.800781 393.601562 C 1053.195312 394.9375 1056.394531 397.335938 1058.398438 400.800781 C 1036.304688 399.0625 1015.507812 394.265625 996 386.398438 Z M 996 386.398438 "/>
<path style=" stroke:none;fill-rule:evenodd;fill:rgb(62.352941%,62.352941%,62.352941%);fill-opacity:1;" d="M 871.199219 396 C 863.511719 403.554688 853.910156 406.753906 842.398438 405.601562 C 850.089844 398.046875 859.691406 394.84375 871.199219 396 Z M 871.199219 396 "/>
<path style=" stroke:none;fill-rule:evenodd;fill:rgb(41.568627%,41.568627%,41.568627%);fill-opacity:1;" d="M 1125.601562 429.601562 C 1132.929688 429.25 1137.730469 432.449219 1140 439.199219 C 1132.671875 439.550781 1127.871094 436.351562 1125.601562 429.601562 Z M 1125.601562 429.601562 "/>
<path style=" stroke:none;fill-rule:evenodd;fill:rgb(0.784314%,0.784314%,0.784314%);fill-opacity:1;" d="M 1000.800781 492 C 1014.4375 497.609375 1028.835938 502.410156 1044 506.398438 C 1151.730469 557.027344 1198.132812 641.828125 1183.199219 760.800781 C 1177.589844 774.4375 1172.789062 788.835938 1168.800781 804 C 1127.113281 896.132812 1055.113281 944.132812 952.800781 948 C 854.796875 941.105469 785.996094 893.105469 746.398438 804 C 742.410156 788.835938 737.609375 774.4375 732 760.800781 C 717.394531 642.007812 763.789062 556.410156 871.199219 504 C 913.230469 487.566406 956.429688 483.5625 1000.800781 492 Z M 1000.800781 492 "/>
<path style=" stroke:none;fill-rule:evenodd;fill:rgb(63.137255%,63.137255%,63.137255%);fill-opacity:1;" d="M 1000.800781 492 C 1017.988281 490.261719 1032.390625 495.0625 1044 506.398438 C 1028.835938 502.410156 1014.4375 497.609375 1000.800781 492 Z M 1000.800781 492 "/>
<path style=" stroke:none;fill-rule:evenodd;fill:rgb(56.470588%,56.470588%,56.470588%);fill-opacity:1;" d="M 645.601562 602.398438 C 646.757812 613.910156 643.554688 623.511719 636 631.199219 C 634.84375 619.691406 638.042969 610.089844 645.601562 602.398438 Z M 645.601562 602.398438 "/>
<path style=" stroke:none;fill-rule:evenodd;fill:rgb(56.470588%,56.470588%,56.470588%);fill-opacity:1;" d="M 1269.601562 602.398438 C 1277.15625 610.089844 1280.355469 619.691406 1279.199219 631.199219 C 1271.644531 623.511719 1268.441406 613.910156 1269.601562 602.398438 Z M 1269.601562 602.398438 "/>
<path style=" stroke:none;fill-rule:evenodd;fill:rgb(63.137255%,63.137255%,63.137255%);fill-opacity:1;" d="M 732 760.800781 C 737.609375 774.4375 742.410156 788.835938 746.398438 804 C 735.0625 792.390625 730.261719 777.988281 732 760.800781 Z M 732 760.800781 "/>
<path style=" stroke:none;fill-rule:evenodd;fill:rgb(63.137255%,63.137255%,63.137255%);fill-opacity:1;" d="M 1183.199219 760.800781 C 1184.9375 777.988281 1180.136719 792.390625 1168.800781 804 C 1172.789062 788.835938 1177.589844 774.4375 1183.199219 760.800781 Z M 1183.199219 760.800781 "/>
<path style=" stroke:none;fill-rule:evenodd;fill:rgb(53.333333%,53.333333%,53.333333%);fill-opacity:1;" d="M 1288.800781 756 C 1286.628906 773.582031 1284.230469 791.183594 1281.601562 808.800781 C 1280.265625 813.195312 1277.867188 816.394531 1274.398438 818.398438 C 1276.136719 796.304688 1280.9375 775.507812 1288.800781 756 Z M 1288.800781 756 "/>
<path style=" stroke:none;fill-rule:evenodd;fill:rgb(41.568627%,41.568627%,41.568627%);fill-opacity:1;" d="M 669.601562 885.601562 C 676.347656 887.871094 679.550781 892.671875 679.199219 900 C 672.453125 897.730469 669.25 892.929688 669.601562 885.601562 Z M 669.601562 885.601562 "/>
<path style=" stroke:none;fill-rule:evenodd;fill:rgb(41.568627%,41.568627%,41.568627%);fill-opacity:1;" d="M 1245.601562 885.601562 C 1245.949219 892.929688 1242.75 897.730469 1236 900 C 1235.648438 892.671875 1238.851562 887.871094 1245.601562 885.601562 Z M 1245.601562 885.601562 "/>
<path style=" stroke:none;fill-rule:evenodd;fill:rgb(56.470588%,56.470588%,56.470588%);fill-opacity:1;" d="M 842.398438 1029.601562 C 853.910156 1028.441406 863.511719 1031.644531 871.199219 1039.199219 C 859.691406 1040.355469 850.089844 1037.15625 842.398438 1029.601562 Z M 842.398438 1029.601562 "/>
<path style=" stroke:none;fill-rule:evenodd;fill:rgb(98.431373%,98.431373%,98.431373%);fill-opacity:1;" d="M 861.601562 1072.800781 C 868 1074.398438 874.402344 1076 880.800781 1077.601562 C 889.390625 1086.105469 895.789062 1095.707031 900 1106.398438 C 900.035156 1118.582031 901.636719 1130.582031 904.800781 1142.398438 C 901.027344 1193.390625 873.824219 1218.191406 823.199219 1216.800781 C 820 1216.800781 816.800781 1216.800781 813.601562 1216.800781 C 807.601562 1208.859375 801.195312 1200.859375 794.398438 1192.800781 C 776.1875 1150.886719 782.59375 1114.085938 813.601562 1082.398438 C 815.605469 1078.933594 818.804688 1076.535156 823.199219 1075.199219 C 835.902344 1072.8125 848.703125 1072.011719 861.601562 1072.800781 Z M 861.601562 1072.800781 "/>
<path style=" stroke:none;fill-rule:evenodd;fill:rgb(28.235294%,28.235294%,28.235294%);fill-opacity:1;" d="M 804 1072.800781 C 791.480469 1085.074219 779.480469 1097.871094 768 1111.199219 C 762.265625 1140.335938 766.261719 1167.53125 780 1192.800781 C 767.078125 1187.855469 759.878906 1178.257812 758.398438 1164 C 748.640625 1120.199219 763.839844 1089.800781 804 1072.800781 Z M 804 1072.800781 "/>
<path style=" stroke:none;fill-rule:evenodd;fill:rgb(75.686275%,75.686275%,75.686275%);fill-opacity:1;" d="M 813.601562 1082.398438 C 782.59375 1114.085938 776.1875 1150.886719 794.398438 1192.800781 C 786.546875 1186.804688 780.945312 1178.804688 777.601562 1168.800781 C 775.21875 1146.203125 776.824219 1123.800781 782.398438 1101.601562 C 792.332031 1093.992188 802.734375 1087.589844 813.601562 1082.398438 Z M 813.601562 1082.398438 "/>
<path style=" stroke:none;fill-rule:evenodd;fill:rgb(81.568627%,81.568627%,81.568627%);fill-opacity:1;" d="M 900 1106.398438 C 903.464844 1108.40625 905.867188 1111.601562 907.199219 1116 C 910.683594 1140.25 909.882812 1164.25 904.800781 1188 C 887.921875 1217.207031 862.324219 1228.40625 828 1221.601562 C 824.796875 1221.601562 823.199219 1220 823.199219 1216.800781 C 873.824219 1218.191406 901.027344 1193.390625 904.800781 1142.398438 C 901.636719 1130.582031 900.035156 1118.582031 900 1106.398438 Z M 900 1106.398438 "/>
<path style=" stroke:none;fill-rule:evenodd;fill:rgb(62.745098%,62.745098%,62.745098%);fill-opacity:1;" d="M 880.800781 1077.601562 C 886.125 1077.875 890.921875 1079.472656 895.199219 1082.398438 C 919.019531 1107.992188 928.617188 1138.398438 924 1173.601562 C 917.601562 1178.398438 911.199219 1183.199219 904.800781 1188 C 909.882812 1164.25 910.683594 1140.25 907.199219 1116 C 905.867188 1111.601562 903.464844 1108.40625 900 1106.398438 C 895.789062 1095.707031 889.390625 1086.105469 880.800781 1077.601562 Z M 880.800781 1077.601562 "/>
<path style=" stroke:none;fill-rule:evenodd;fill:rgb(54.509804%,54.509804%,54.509804%);fill-opacity:1;" d="M 861.601562 1072.800781 C 848.703125 1072.011719 835.902344 1072.8125 823.199219 1075.199219 C 818.804688 1076.535156 815.605469 1078.933594 813.601562 1082.398438 C 802.734375 1087.589844 792.332031 1093.992188 782.398438 1101.601562 C 776.824219 1123.800781 775.21875 1146.203125 777.601562 1168.800781 C 780.945312 1178.804688 786.546875 1186.804688 794.398438 1192.800781 C 801.195312 1200.859375 807.601562 1208.859375 813.601562 1216.800781 C 799.699219 1212.488281 788.5 1204.488281 780 1192.800781 C 766.261719 1167.53125 762.265625 1140.335938 768 1111.199219 C 779.480469 1097.871094 791.480469 1085.074219 804 1072.800781 C 823.199219 1066.402344 842.398438 1066.402344 861.601562 1072.800781 Z M 861.601562 1072.800781 "/>
<path style=" stroke:none;fill-rule:evenodd;fill:rgb(25.098039%,25.098039%,25.098039%);fill-opacity:1;" d="M 895.199219 1082.398438 C 922.96875 1096.738281 935.769531 1119.9375 933.601562 1152 C 935.605469 1177.882812 926.007812 1197.882812 904.800781 1212 C 909.257812 1198.023438 915.65625 1185.222656 924 1173.601562 C 928.617188 1138.398438 919.019531 1107.992188 895.199219 1082.398438 Z M 895.199219 1082.398438 "/>
<path style=" stroke:none;fill-rule:evenodd;fill:rgb(39.607843%,39.607843%,39.607843%);fill-opacity:1;" d="M 924 1173.601562 C 915.65625 1185.222656 909.257812 1198.023438 904.800781 1212 C 880.28125 1226.4375 854.679688 1229.640625 828 1221.601562 C 862.324219 1228.40625 887.921875 1217.207031 904.800781 1188 C 911.199219 1183.199219 917.601562 1178.398438 924 1173.601562 Z M 924 1173.601562 "/>
</g>
</svg>
