<?xml version="1.0" encoding="UTF-8"?>
<svg xmlns="http://www.w3.org/2000/svg" xmlns:xlink="http://www.w3.org/1999/xlink" width="1920pt" height="1440pt" viewBox="0 0 1920 1440" version="1.1">
<g id="surface1">
<path style=" stroke:none;fill-rule:evenodd;fill:rgb(0%,0%,0%);fill-opacity:1;" d="M -2.398438 -2.398438 C 637.597656 -2.398438 1277.601562 -2.398438 1917.601562 -2.398438 C 1917.601562 477.601562 1917.601562 957.601562 1917.601562 1437.601562 C 1277.601562 1437.601562 637.597656 1437.601562 -2.398438 1437.601562 C -2.398438 957.601562 -2.398438 477.601562 -2.398438 -2.398438 Z M -2.398438 -2.398438 "/>
<path style=" stroke:none;fill-rule:evenodd;fill:rgb(97.647059%,97.647059%,97.647059%);fill-opacity:1;" d="M 1063.199219 410.398438 C 1070.0625 415.378906 1078.066406 418.578125 1087.199219 420 C 1227.25 487.171875 1292.050781 599.175781 1281.601562 756 C 1277.546875 779.050781 1271.953125 801.445312 1264.800781 823.199219 C 1259.824219 830.0625 1256.621094 838.066406 1255.199219 847.199219 C 1210.976562 944.21875 1137.378906 1006.617188 1034.398438 1034.398438 C 1002.542969 1038.125 970.539062 1039.722656 938.398438 1039.199219 C 910 1035.558594 881.199219 1030.757812 852 1024.800781 C 761.945312 993.230469 697.945312 934.027344 660 847.199219 C 658.578125 838.066406 655.378906 830.0625 650.398438 823.199219 C 605.273438 661.445312 651.675781 532.644531 789.601562 436.800781 C 809.394531 425.292969 830.195312 416.492188 852 410.398438 C 869.578125 409.328125 885.574219 404.527344 900 396 C 955.238281 387.09375 1009.636719 391.894531 1063.199219 410.398438 Z M 1063.199219 410.398438 "/>
<path style=" stroke:none;fill-rule:evenodd;fill:rgb(61.568627%,61.568627%,61.568627%);fill-opacity:1;" d="M 900 396 C 885.574219 404.527344 869.578125 409.328125 852 410.398438 C 866.425781 401.871094 882.421875 397.074219 900 396 Z M 900 396 "/>
<path style=" stroke:none;fill-rule:evenodd;fill:rgb(37.647059%,37.647059%,37.647059%);fill-opacity:1;" d="M 1063.199219 410.398438 C 1073.75 408.578125 1081.753906 411.777344 1087.199219 420 C 1078.066406 418.578125 1070.0625 415.378906 1063.199219 410.398438 Z M 1063.199219 410.398438 "/>
<path style=" stroke:none;fill-rule:evenodd;fill:rgb(20.784314%,20.784314%,20.784314%);fill-opacity:1;" d="M 631.199219 482.398438 C 619.671875 470.835938 606.867188 461.234375 592.800781 453.601562 C 566.488281 446.042969 540.882812 447.640625 516 458.398438 C 528.152344 446.042969 543.355469 439.644531 561.601562 439.199219 C 595.429688 437.113281 618.628906 451.511719 631.199219 482.398438 Z M 631.199219 482.398438 "/>
<path style=" stroke:none;fill-rule:evenodd;fill:rgb(50.588235%,50.588235%,50.588235%);fill-opacity:1;" d="M 592.800781 453.601562 C 599.207031 464.625 608.007812 474.226562 619.199219 482.398438 C 629.300781 503.625 633.296875 526.023438 631.199219 549.601562 C 632.027344 554.363281 630.421875 557.558594 626.398438 559.199219 C 627.191406 544.714844 626.390625 530.3125 624 516 C 623.039062 507.265625 619.035156 500.867188 612 496.800781 C 612.816406 490.453125 611.21875 484.851562 607.199219 480 C 585.148438 460.453125 559.546875 454.050781 530.398438 460.800781 C 518.972656 461.871094 510.972656 467.472656 506.398438 477.601562 C 501.730469 485.46875 495.332031 491.871094 487.199219 496.800781 C 492.140625 480.523438 501.738281 467.722656 516 458.398438 C 540.882812 447.640625 566.488281 446.042969 592.800781 453.601562 Z M 592.800781 453.601562 "/>
<path style=" stroke:none;fill-rule:evenodd;fill:rgb(69.019608%,69.019608%,69.019608%);fill-opacity:1;" d="M 612 496.800781 C 581.609375 466.375 546.414062 459.976562 506.398438 477.601562 C 510.972656 467.472656 518.972656 461.871094 530.398438 460.800781 C 559.546875 454.050781 585.148438 460.453125 607.199219 480 C 611.21875 484.851562 612.816406 490.453125 612 496.800781 Z M 612 496.800781 "/>
<path style=" stroke:none;fill-rule:evenodd;fill:rgb(36.078431%,36.078431%,36.078431%);fill-opacity:1;" d="M 592.800781 453.601562 C 606.867188 461.234375 619.671875 470.835938 631.199219 482.398438 C 637.171875 505.429688 637.171875 527.832031 631.199219 549.601562 C 633.296875 526.023438 629.300781 503.625 619.199219 482.398438 C 608.007812 474.226562 599.207031 464.625 592.800781 453.601562 Z M 592.800781 453.601562 "/>
<path style=" stroke:none;fill-rule:evenodd;fill:rgb(99.215686%,99.215686%,99.215686%);fill-opacity:1;" d="M 621.601562 559.199219 C 618.398438 565.597656 615.203125 572 612 578.398438 C 600.757812 578.417969 591.160156 582.417969 583.199219 590.398438 C 537.003906 600.820312 506.601562 584.019531 492 540 C 488.746094 488.515625 512.746094 468.515625 564 480 C 603.625 491.160156 622.824219 517.558594 621.601562 559.199219 Z M 621.601562 559.199219 "/>
<path style=" stroke:none;fill-rule:evenodd;fill:rgb(88.235294%,88.235294%,88.235294%);fill-opacity:1;" d="M 612 496.800781 C 619.035156 500.867188 623.039062 507.265625 624 516 C 626.390625 530.3125 627.191406 544.714844 626.398438 559.199219 C 624.800781 559.199219 623.199219 559.199219 621.601562 559.199219 C 622.824219 517.558594 603.625 491.160156 564 480 C 512.746094 468.515625 488.746094 488.515625 492 540 C 487.308594 526.621094 485.710938 512.222656 487.199219 496.800781 C 495.332031 491.871094 501.730469 485.46875 506.398438 477.601562 C 546.414062 459.976562 581.609375 466.375 612 496.800781 Z M 612 496.800781 "/>
<path style=" stroke:none;fill-rule:evenodd;fill:rgb(0.784314%,0.784314%,0.784314%);fill-opacity:1;" d="M 914.398438 525.601562 C 1031.769531 514.339844 1109.371094 563.9375 1147.199219 674.398438 C 1160.542969 793.785156 1110.144531 871.386719 996 907.199219 C 879.152344 918.757812 803.15625 868.359375 768 756 C 755.1875 639.078125 803.992188 562.277344 914.398438 525.601562 Z M 914.398438 525.601562 "/>
<path style=" stroke:none;fill-rule:evenodd;fill:rgb(74.117647%,74.117647%,74.117647%);fill-opacity:1;" d="M 487.199219 496.800781 C 485.710938 512.222656 487.308594 526.621094 492 540 C 506.601562 584.019531 537.003906 600.820312 583.199219 590.398438 C 591.160156 582.417969 600.757812 578.417969 612 578.398438 C 605.898438 590.082031 596.300781 597.28125 583.199219 600 C 564 603.203125 544.800781 603.203125 525.601562 600 C 517.378906 593.386719 510.972656 585.382812 506.398438 576 C 498.8125 572.605469 491.609375 568.609375 484.800781 564 C 482.40625 544.867188 481.601562 525.667969 482.398438 506.398438 C 481.574219 501.636719 483.175781 498.441406 487.199219 496.800781 Z M 487.199219 496.800781 "/>
<path style=" stroke:none;fill-rule:evenodd;fill:rgb(23.137255%,23.137255%,23.137255%);fill-opacity:1;" d="M 482.398438 583.199219 C 495.839844 594.140625 510.238281 604.535156 525.601562 614.398438 C 534.398438 615.203125 543.203125 616 552 616.800781 C 568.746094 615.832031 583.945312 611.03125 597.601562 602.398438 C 593.808594 608.609375 589.007812 614.210938 583.199219 619.199219 C 560.796875 622.402344 538.402344 622.402344 516 619.199219 C 497.875 613.429688 486.671875 601.429688 482.398438 583.199219 Z M 482.398438 583.199219 "/>
<path style=" stroke:none;fill-rule:evenodd;fill:rgb(45.882353%,45.882353%,45.882353%);fill-opacity:1;" d="M 482.398438 506.398438 C 481.601562 525.667969 482.40625 544.867188 484.800781 564 C 491.609375 568.609375 498.8125 572.605469 506.398438 576 C 510.972656 585.382812 517.378906 593.386719 525.601562 600 C 544.800781 603.203125 564 603.203125 583.199219 600 C 596.300781 597.28125 605.898438 590.082031 612 578.398438 C 615.203125 572 618.398438 565.597656 621.601562 559.199219 C 623.199219 559.199219 624.800781 559.199219 626.398438 559.199219 C 622.738281 577.777344 613.136719 592.175781 597.601562 602.398438 C 583.945312 611.03125 568.746094 615.832031 552 616.800781 C 543.203125 616 534.398438 615.203125 525.601562 614.398438 C 510.238281 604.535156 495.839844 594.140625 482.398438 583.199219 C 479.4375 582.667969 477.035156 581.070312 475.199219 578.398438 C 474.398438 568.800781 473.601562 559.199219 472.800781 549.601562 C 472.042969 533.691406 475.246094 519.292969 482.398438 506.398438 Z M 482.398438 506.398438 "/>
<path style=" stroke:none;fill-rule:evenodd;fill:rgb(21.960784%,21.960784%,21.960784%);fill-opacity:1;" d="M 1404 823.199219 C 1376.195312 815.679688 1348.996094 817.28125 1322.398438 828 C 1341.28125 810.773438 1363.683594 805.175781 1389.601562 811.199219 C 1396.523438 813.007812 1401.320312 817.007812 1404 823.199219 Z M 1404 823.199219 "/>
<path style=" stroke:none;fill-rule:evenodd;fill:rgb(37.647059%,37.647059%,37.647059%);fill-opacity:1;" d="M 650.398438 823.199219 C 655.378906 830.0625 658.578125 838.066406 660 847.199219 C 651.777344 841.753906 648.574219 833.75 650.398438 823.199219 Z M 650.398438 823.199219 "/>
<path style=" stroke:none;fill-rule:evenodd;fill:rgb(37.647059%,37.647059%,37.647059%);fill-opacity:1;" d="M 1264.800781 823.199219 C 1266.625 833.75 1263.421875 841.753906 1255.199219 847.199219 C 1256.621094 838.066406 1259.824219 830.0625 1264.800781 823.199219 Z M 1264.800781 823.199219 "/>
<path style=" stroke:none;fill-rule:evenodd;fill:rgb(41.176471%,41.176471%,41.176471%);fill-opacity:1;" d="M 1404 823.199219 C 1412.140625 833.6875 1422.539062 841.691406 1435.199219 847.199219 C 1445.457031 873.875 1444.660156 899.472656 1432.800781 924 C 1437.441406 898.914062 1431.042969 878.117188 1413.601562 861.601562 C 1410.316406 849.464844 1403.914062 839.0625 1394.398438 830.398438 C 1375.199219 827.199219 1356 827.199219 1336.800781 830.398438 C 1328.0625 831.359375 1321.664062 835.363281 1317.601562 842.398438 C 1309.140625 846.058594 1304.34375 852.460938 1303.199219 861.601562 C 1300 863.199219 1296.800781 864.800781 1293.601562 866.398438 C 1297.695312 849.503906 1307.292969 836.703125 1322.398438 828 C 1348.996094 817.28125 1376.195312 815.679688 1404 823.199219 Z M 1404 823.199219 "/>
<path style=" stroke:none;fill-rule:evenodd;fill:rgb(64.705882%,64.705882%,64.705882%);fill-opacity:1;" d="M 1413.601562 861.601562 C 1385.488281 838.871094 1353.484375 832.472656 1317.601562 842.398438 C 1321.664062 835.363281 1328.0625 831.359375 1336.800781 830.398438 C 1356 827.199219 1375.199219 827.199219 1394.398438 830.398438 C 1403.914062 839.0625 1410.316406 849.464844 1413.601562 861.601562 Z M 1413.601562 861.601562 "/>
<path style=" stroke:none;fill-rule:evenodd;fill:rgb(84.313725%,84.313725%,84.313725%);fill-opacity:1;" d="M 1413.601562 861.601562 C 1431.042969 878.117188 1437.441406 898.914062 1432.800781 924 C 1429.871094 928.277344 1428.273438 933.078125 1428 938.398438 C 1426.402344 938.398438 1424.796875 938.398438 1423.199219 938.398438 C 1430.496094 881.734375 1405.695312 851.335938 1348.800781 847.199219 C 1333.007812 850.597656 1317.8125 855.398438 1303.199219 861.601562 C 1304.34375 852.460938 1309.140625 846.058594 1317.601562 842.398438 C 1353.484375 832.472656 1385.488281 838.871094 1413.601562 861.601562 Z M 1413.601562 861.601562 "/>
<path style=" stroke:none;fill-rule:evenodd;fill:rgb(99.607843%,99.607843%,99.607843%);fill-opacity:1;" d="M 1423.199219 938.398438 C 1419.003906 948.910156 1411.003906 953.710938 1399.199219 952.800781 C 1327.757812 967.726562 1292.558594 938.929688 1293.601562 866.398438 C 1296.800781 864.800781 1300 863.199219 1303.199219 861.601562 C 1317.8125 855.398438 1333.007812 850.597656 1348.800781 847.199219 C 1405.695312 851.335938 1430.496094 881.734375 1423.199219 938.398438 Z M 1423.199219 938.398438 "/>
<path style=" stroke:none;fill-rule:evenodd;fill:rgb(30.588235%,30.588235%,30.588235%);fill-opacity:1;" d="M 1284 885.601562 C 1280.429688 959.601562 1315.632812 990.800781 1389.601562 979.199219 C 1399.96875 972.804688 1409.566406 965.605469 1418.398438 957.601562 C 1418.347656 964.882812 1415.152344 970.484375 1408.800781 974.398438 C 1379.453125 996.332031 1347.453125 1001.132812 1312.800781 988.800781 C 1280.683594 960.25 1271.082031 925.847656 1284 885.601562 Z M 1284 885.601562 "/>
<path style=" stroke:none;fill-rule:evenodd;fill:rgb(81.960784%,81.960784%,81.960784%);fill-opacity:1;" d="M 1293.601562 866.398438 C 1292.558594 938.929688 1327.757812 967.726562 1399.199219 952.800781 C 1396.664062 958.660156 1393.464844 964.257812 1389.601562 969.601562 C 1372 972.800781 1354.402344 972.800781 1336.800781 969.601562 C 1324.621094 955.8125 1311.023438 943.8125 1296 933.601562 C 1289.921875 914.902344 1287.523438 895.703125 1288.800781 876 C 1287.972656 871.238281 1289.578125 868.042969 1293.601562 866.398438 Z M 1293.601562 866.398438 "/>
<path style=" stroke:none;fill-rule:evenodd;fill:rgb(58.823529%,58.823529%,58.823529%);fill-opacity:1;" d="M 1288.800781 876 C 1287.523438 895.703125 1289.921875 914.902344 1296 933.601562 C 1311.023438 943.8125 1324.621094 955.8125 1336.800781 969.601562 C 1354.402344 972.800781 1372 972.800781 1389.601562 969.601562 C 1393.464844 964.257812 1396.664062 958.660156 1399.199219 952.800781 C 1411.003906 953.710938 1419.003906 948.910156 1423.199219 938.398438 C 1424.796875 938.398438 1426.402344 938.398438 1428 938.398438 C 1424.796875 944.796875 1421.601562 951.203125 1418.398438 957.601562 C 1409.566406 965.605469 1399.96875 972.804688 1389.601562 979.199219 C 1315.632812 990.800781 1280.429688 959.601562 1284 885.601562 C 1283.175781 880.839844 1284.777344 877.640625 1288.800781 876 Z M 1288.800781 876 "/>
<path style=" stroke:none;fill-rule:evenodd;fill:rgb(76.862745%,76.862745%,76.862745%);fill-opacity:1;" d="M 852 1024.800781 C 881.199219 1030.757812 910 1035.558594 938.398438 1039.199219 C 925.597656 1039.199219 912.800781 1039.199219 900 1039.199219 C 882.421875 1038.128906 866.425781 1033.328125 852 1024.800781 Z M 852 1024.800781 "/>
<path style=" stroke:none;fill-rule:evenodd;fill:rgb(45.882353%,45.882353%,45.882353%);fill-opacity:1;" d="M 1034.398438 1034.398438 C 1010.070312 1041.875 984.46875 1045.074219 957.601562 1044 C 937.53125 1043.996094 918.332031 1042.398438 900 1039.199219 C 912.800781 1039.199219 925.597656 1039.199219 938.398438 1039.199219 C 970.539062 1039.722656 1002.542969 1038.125 1034.398438 1034.398438 Z M 1034.398438 1034.398438 "/>
</g>
</svg>
