<?xml version="1.0" encoding="UTF-8"?>
<svg xmlns="http://www.w3.org/2000/svg" xmlns:xlink="http://www.w3.org/1999/xlink" width="1920pt" height="1440pt" viewBox="0 0 1920 1440" version="1.1">
<g id="surface1">
<path style=" stroke:none;fill-rule:evenodd;fill:rgb(0%,0%,0%);fill-opacity:1;" d="M -2.398438 -2.398438 C 637.597656 -2.398438 1277.601562 -2.398438 1917.601562 -2.398438 C 1917.601562 477.601562 1917.601562 957.601562 1917.601562 1437.601562 C 1277.601562 1437.601562 637.597656 1437.601562 -2.398438 1437.601562 C -2.398438 957.601562 -2.398438 477.601562 -2.398438 -2.398438 Z M -2.398438 -2.398438 "/>
<path style=" stroke:none;fill-rule:evenodd;fill:rgb(65.490196%,65.490196%,65.490196%);fill-opacity:1;" d="M 650.398438 300 C 732.40625 294.417969 764.410156 331.21875 746.398438 410.398438 C 746.75 417.730469 743.546875 422.527344 736.800781 424.800781 C 743.796875 395.636719 742.996094 366.835938 734.398438 338.398438 C 714.097656 310.5625 687.695312 300.960938 655.199219 309.601562 C 644.710938 310.578125 635.113281 313.777344 626.398438 319.199219 C 631.609375 309.183594 639.605469 302.78125 650.398438 300 Z M 650.398438 300 "/>
<path style=" stroke:none;fill-rule:evenodd;fill:rgb(21.568627%,21.568627%,21.568627%);fill-opacity:1;" d="M 760.800781 391.199219 C 772.042969 359.835938 765.644531 333.4375 741.601562 312 C 718.140625 290.597656 690.941406 285 660 295.199219 C 707.984375 272.476562 743.984375 285.273438 768 333.601562 C 771.203125 349.601562 771.203125 365.601562 768 381.601562 C 766.664062 385.996094 764.265625 389.195312 760.800781 391.199219 Z M 760.800781 391.199219 "/>
<path style=" stroke:none;fill-rule:evenodd;fill:rgb(99.215686%,99.215686%,99.215686%);fill-opacity:1;" d="M 655.199219 309.601562 C 706.15625 312.558594 733.359375 339.757812 736.800781 391.199219 C 732.605469 401.984375 731 413.183594 732 424.800781 C 727.199219 426.398438 724 429.601562 722.398438 434.398438 C 719.199219 434.398438 716 434.398438 712.800781 434.398438 C 696.71875 435.191406 680.722656 434.390625 664.800781 432 C 659.015625 419.011719 649.414062 410.214844 636 405.601562 C 624.246094 381.644531 619.445312 356.042969 621.601562 328.800781 C 621.601562 327.199219 621.601562 325.601562 621.601562 324 C 621.601562 320.800781 623.199219 319.199219 626.398438 319.199219 C 635.113281 313.777344 644.710938 310.578125 655.199219 309.601562 Z M 655.199219 309.601562 "/>
<path style=" stroke:none;fill-rule:evenodd;fill:rgb(45.098039%,45.098039%,45.098039%);fill-opacity:1;" d="M 760.800781 391.199219 C 760.953125 401.371094 756.152344 407.769531 746.398438 410.398438 C 764.410156 331.21875 732.40625 294.417969 650.398438 300 C 652.042969 295.976562 655.238281 294.375 660 295.199219 C 690.941406 285 718.140625 290.597656 741.601562 312 C 765.644531 333.4375 772.042969 359.835938 760.800781 391.199219 Z M 760.800781 391.199219 "/>
<path style=" stroke:none;fill-rule:evenodd;fill:rgb(84.705882%,84.705882%,84.705882%);fill-opacity:1;" d="M 655.199219 309.601562 C 687.695312 300.960938 714.097656 310.5625 734.398438 338.398438 C 742.996094 366.835938 743.796875 395.636719 736.800781 424.800781 C 735.203125 424.800781 733.597656 424.800781 732 424.800781 C 731 413.183594 732.605469 401.984375 736.800781 391.199219 C 733.359375 339.757812 706.15625 312.558594 655.199219 309.601562 Z M 655.199219 309.601562 "/>
<path style=" stroke:none;fill-rule:evenodd;fill:rgb(58.431373%,58.431373%,58.431373%);fill-opacity:1;" d="M 1029.601562 405.601562 C 980 399.199219 930.398438 399.199219 880.800781 405.601562 C 906.878906 398.730469 934.074219 395.53125 962.398438 396 C 986.097656 395.039062 1008.5 398.242188 1029.601562 405.601562 Z M 1029.601562 405.601562 "/>
<path style=" stroke:none;fill-rule:evenodd;fill:rgb(84.313725%,84.313725%,84.313725%);fill-opacity:1;" d="M 621.601562 328.800781 C 619.445312 356.042969 624.246094 381.644531 636 405.601562 C 649.414062 410.214844 659.015625 419.011719 664.800781 432 C 680.722656 434.390625 696.71875 435.191406 712.800781 434.398438 C 650.070312 454.128906 616.46875 430.929688 612 364.800781 C 611.558594 351.257812 614.753906 339.257812 621.601562 328.800781 Z M 621.601562 328.800781 "/>
<path style=" stroke:none;fill-rule:evenodd;fill:rgb(98.039216%,98.039216%,98.039216%);fill-opacity:1;" d="M 1029.601562 405.601562 C 1132.8125 430.074219 1206.414062 490.875 1250.398438 588 C 1248.796875 602.355469 1253.597656 613.554688 1264.800781 621.601562 C 1291.019531 727.292969 1273.421875 824.890625 1212 914.398438 C 1201.980469 919.609375 1195.585938 927.605469 1192.800781 938.398438 C 1160.765625 967.203125 1125.566406 991.203125 1087.199219 1010.398438 C 1073.074219 1012.703125 1060.273438 1017.503906 1048.800781 1024.800781 C 869.726562 1063.660156 739.328125 1001.261719 657.601562 837.601562 C 655.246094 831.394531 654.445312 824.992188 655.199219 818.398438 C 652.175781 801.371094 647.375 785.371094 640.800781 770.398438 C 640.800781 768.800781 640.800781 767.199219 640.800781 765.601562 C 641.007812 725.53125 642.605469 685.53125 645.601562 645.601562 C 654.128906 631.175781 658.929688 615.175781 660 597.601562 C 702.417969 497.574219 776.015625 433.574219 880.800781 405.601562 C 930.398438 399.199219 980 399.199219 1029.601562 405.601562 Z M 1029.601562 405.601562 "/>
<path style=" stroke:none;fill-rule:evenodd;fill:rgb(23.921569%,23.921569%,23.921569%);fill-opacity:1;" d="M 597.601562 352.800781 C 595.949219 374.984375 599.152344 395.785156 607.199219 415.199219 C 609.902344 428.613281 616.300781 439.816406 626.398438 448.800781 C 619.117188 448.75 613.515625 445.550781 609.601562 439.199219 C 589.230469 415.710938 582.832031 388.511719 590.398438 357.601562 C 592.238281 354.929688 594.636719 353.332031 597.601562 352.800781 Z M 597.601562 352.800781 "/>
<path style=" stroke:none;fill-rule:evenodd;fill:rgb(58.823529%,58.823529%,58.823529%);fill-opacity:1;" d="M 621.601562 324 C 621.601562 325.601562 621.601562 327.199219 621.601562 328.800781 C 614.753906 339.257812 611.558594 351.257812 612 364.800781 C 616.46875 430.929688 650.070312 454.128906 712.800781 434.398438 C 716 434.398438 719.199219 434.398438 722.398438 434.398438 C 720.128906 441.148438 715.328125 444.351562 708 444 C 685.414062 450.726562 663.019531 449.925781 640.800781 441.601562 C 631.050781 430.398438 619.847656 421.601562 607.199219 415.199219 C 599.152344 395.785156 595.949219 374.984375 597.601562 352.800781 C 602.386719 340.054688 610.386719 330.457031 621.601562 324 Z M 621.601562 324 "/>
<path style=" stroke:none;fill-rule:evenodd;fill:rgb(40.784314%,40.784314%,40.784314%);fill-opacity:1;" d="M 607.199219 415.199219 C 619.847656 421.601562 631.050781 430.398438 640.800781 441.601562 C 663.019531 449.925781 685.414062 450.726562 708 444 C 698.363281 455.652344 685.566406 460.449219 669.601562 458.398438 C 654.277344 458.644531 639.878906 455.445312 626.398438 448.800781 C 616.300781 439.816406 609.902344 428.613281 607.199219 415.199219 Z M 607.199219 415.199219 "/>
<path style=" stroke:none;fill-rule:evenodd;fill:rgb(0.784314%,0.784314%,0.784314%);fill-opacity:1;" d="M 1015.199219 890.398438 C 988.175781 894.203125 960.972656 895.800781 933.601562 895.199219 C 862.804688 882.046875 813.203125 842.050781 784.800781 775.199219 C 780.863281 744.972656 779.265625 714.570312 780 684 C 794.996094 613.78125 836.59375 566.582031 904.800781 542.398438 C 1015.023438 525.863281 1091.019531 568.261719 1132.800781 669.601562 C 1147.664062 772.699219 1108.464844 846.296875 1015.199219 890.398438 Z M 1015.199219 890.398438 "/>
<path style=" stroke:none;fill-rule:evenodd;fill:rgb(59.215686%,59.215686%,59.215686%);fill-opacity:1;" d="M 660 597.601562 C 658.929688 615.175781 654.128906 631.175781 645.601562 645.601562 C 646.671875 628.023438 651.46875 612.023438 660 597.601562 Z M 660 597.601562 "/>
<path style=" stroke:none;fill-rule:evenodd;fill:rgb(62.745098%,62.745098%,62.745098%);fill-opacity:1;" d="M 1250.398438 588 C 1257.910156 597.644531 1262.710938 608.847656 1264.800781 621.601562 C 1253.597656 613.554688 1248.796875 602.355469 1250.398438 588 Z M 1250.398438 588 "/>
<path style=" stroke:none;fill-rule:evenodd;fill:rgb(61.960784%,61.960784%,61.960784%);fill-opacity:1;" d="M 645.601562 645.601562 C 642.605469 685.53125 641.007812 725.53125 640.800781 765.601562 C 637.609375 752.09375 636.007812 737.691406 636 722.398438 C 635.660156 695.671875 638.859375 670.074219 645.601562 645.601562 Z M 645.601562 645.601562 "/>
<path style=" stroke:none;fill-rule:evenodd;fill:rgb(78.431373%,78.431373%,78.431373%);fill-opacity:1;" d="M 780 684 C 779.265625 714.570312 780.863281 744.972656 784.800781 775.199219 C 774.792969 758.683594 769.992188 740.28125 770.398438 720 C 769.441406 706.242188 772.640625 694.242188 780 684 Z M 780 684 "/>
<path style=" stroke:none;fill-rule:evenodd;fill:rgb(40%,40%,40%);fill-opacity:1;" d="M 640.800781 770.398438 C 647.375 785.371094 652.175781 801.371094 655.199219 818.398438 C 644.734375 804.570312 639.9375 788.574219 640.800781 770.398438 Z M 640.800781 770.398438 "/>
<path style=" stroke:none;fill-rule:evenodd;fill:rgb(70.588235%,70.588235%,70.588235%);fill-opacity:1;" d="M 1015.199219 890.398438 C 1000.675781 897.691406 984.675781 900.886719 967.199219 900 C 955.078125 899.984375 943.875 898.382812 933.601562 895.199219 C 960.972656 895.800781 988.175781 894.203125 1015.199219 890.398438 Z M 1015.199219 890.398438 "/>
<path style=" stroke:none;fill-rule:evenodd;fill:rgb(28.235294%,28.235294%,28.235294%);fill-opacity:1;" d="M 1212 914.398438 C 1209.214844 925.195312 1202.816406 933.191406 1192.800781 938.398438 C 1195.585938 927.605469 1201.980469 919.609375 1212 914.398438 Z M 1212 914.398438 "/>
<path style=" stroke:none;fill-rule:evenodd;fill:rgb(53.333333%,53.333333%,53.333333%);fill-opacity:1;" d="M 1303.199219 1096.800781 C 1303.996094 1074.339844 1303.195312 1051.945312 1300.800781 1029.601562 C 1298.566406 1022.730469 1294.566406 1017.132812 1288.800781 1012.800781 C 1276.695312 1009.871094 1267.09375 1003.472656 1260 993.601562 C 1237.746094 989.09375 1216.949219 991.492188 1197.601562 1000.800781 C 1196 1000.800781 1194.398438 1000.800781 1192.800781 1000.800781 C 1195.367188 991.460938 1201.765625 986.660156 1212 986.398438 C 1239.382812 977.609375 1264.988281 980.8125 1288.800781 996 C 1293.230469 1007.636719 1300.429688 1017.234375 1310.398438 1024.800781 C 1313.601562 1045.597656 1313.601562 1066.402344 1310.398438 1087.199219 C 1309.066406 1091.597656 1306.664062 1094.792969 1303.199219 1096.800781 Z M 1303.199219 1096.800781 "/>
<path style=" stroke:none;fill-rule:evenodd;fill:rgb(29.803922%,29.803922%,29.803922%);fill-opacity:1;" d="M 1303.199219 1101.601562 C 1303.199219 1100 1303.199219 1098.398438 1303.199219 1096.800781 C 1306.664062 1094.792969 1309.066406 1091.597656 1310.398438 1087.199219 C 1313.601562 1066.402344 1313.601562 1045.597656 1310.398438 1024.800781 C 1300.429688 1017.234375 1293.230469 1007.636719 1288.800781 996 C 1264.988281 980.8125 1239.382812 977.609375 1212 986.398438 C 1214.679688 980.207031 1219.476562 976.210938 1226.398438 974.398438 C 1265.429688 966.816406 1296.628906 978.816406 1320 1010.398438 C 1326.992188 1030.757812 1328.597656 1051.554688 1324.800781 1072.800781 C 1320.894531 1085.648438 1313.691406 1095.25 1303.199219 1101.601562 Z M 1303.199219 1101.601562 "/>
<path style=" stroke:none;fill-rule:evenodd;fill:rgb(98.039216%,98.039216%,98.039216%);fill-opacity:1;" d="M 1178.398438 1020 C 1180 1016.796875 1181.601562 1013.601562 1183.199219 1010.398438 C 1184.796875 1005.601562 1188 1002.398438 1192.800781 1000.800781 C 1194.398438 1000.800781 1196 1000.800781 1197.601562 1000.800781 C 1213.523438 997.339844 1229.523438 996.539062 1245.601562 998.398438 C 1293.089844 1022.664062 1308.292969 1060.261719 1291.199219 1111.199219 C 1243.113281 1137.503906 1204.714844 1127.902344 1176 1082.398438 C 1172.609375 1061.34375 1173.40625 1040.542969 1178.398438 1020 Z M 1178.398438 1020 "/>
<path style=" stroke:none;fill-rule:evenodd;fill:rgb(40.392157%,40.392157%,40.392157%);fill-opacity:1;" d="M 1087.199219 1010.398438 C 1076.71875 1020.40625 1063.914062 1025.207031 1048.800781 1024.800781 C 1060.273438 1017.503906 1073.074219 1012.703125 1087.199219 1010.398438 Z M 1087.199219 1010.398438 "/>
<path style=" stroke:none;fill-rule:evenodd;fill:rgb(28.627451%,28.627451%,28.627451%);fill-opacity:1;" d="M 1164 1024.800781 C 1158.113281 1044.636719 1158.113281 1063.839844 1164 1082.398438 C 1166.246094 1107.691406 1179.042969 1125.292969 1202.398438 1135.199219 C 1221.566406 1140.542969 1240.765625 1140.542969 1260 1135.199219 C 1251.207031 1146.691406 1239.207031 1151.492188 1224 1149.601562 C 1173.308594 1149.3125 1146.90625 1123.707031 1144.800781 1072.800781 C 1143.414062 1053.246094 1149.8125 1037.242188 1164 1024.800781 Z M 1164 1024.800781 "/>
<path style=" stroke:none;fill-rule:evenodd;fill:rgb(53.333333%,53.333333%,53.333333%);fill-opacity:1;" d="M 1183.199219 1010.398438 C 1181.601562 1013.601562 1180 1016.796875 1178.398438 1020 C 1171.363281 1024.066406 1167.359375 1030.464844 1166.398438 1039.199219 C 1164.007812 1053.511719 1163.207031 1067.914062 1164 1082.398438 C 1158.113281 1063.839844 1158.113281 1044.636719 1164 1024.800781 C 1167.65625 1016.34375 1174.0625 1011.542969 1183.199219 1010.398438 Z M 1183.199219 1010.398438 "/>
<path style=" stroke:none;fill-rule:evenodd;fill:rgb(73.72549%,73.72549%,73.72549%);fill-opacity:1;" d="M 1303.199219 1096.800781 C 1303.199219 1098.398438 1303.199219 1100 1303.199219 1101.601562 C 1295.25 1117.140625 1282.449219 1126.742188 1264.800781 1130.398438 C 1241.917969 1131.882812 1219.515625 1129.484375 1197.601562 1123.199219 C 1183.851562 1111.570312 1172.65625 1097.972656 1164 1082.398438 C 1163.207031 1067.914062 1164.007812 1053.511719 1166.398438 1039.199219 C 1167.359375 1030.464844 1171.363281 1024.066406 1178.398438 1020 C 1173.40625 1040.542969 1172.609375 1061.34375 1176 1082.398438 C 1204.714844 1127.902344 1243.113281 1137.503906 1291.199219 1111.199219 C 1308.292969 1060.261719 1293.089844 1022.664062 1245.601562 998.398438 C 1229.523438 996.539062 1213.523438 997.339844 1197.601562 1000.800781 C 1216.949219 991.492188 1237.746094 989.09375 1260 993.601562 C 1267.09375 1003.472656 1276.695312 1009.871094 1288.800781 1012.800781 C 1294.566406 1017.132812 1298.566406 1022.730469 1300.800781 1029.601562 C 1303.195312 1051.945312 1303.996094 1074.339844 1303.199219 1096.800781 Z M 1303.199219 1096.800781 "/>
<path style=" stroke:none;fill-rule:evenodd;fill:rgb(59.215686%,59.215686%,59.215686%);fill-opacity:1;" d="M 1164 1082.398438 C 1172.65625 1097.972656 1183.851562 1111.570312 1197.601562 1123.199219 C 1219.515625 1129.484375 1241.917969 1131.882812 1264.800781 1130.398438 C 1264.800781 1133.601562 1263.203125 1135.199219 1260 1135.199219 C 1240.765625 1140.542969 1221.566406 1140.542969 1202.398438 1135.199219 C 1179.042969 1125.292969 1166.246094 1107.691406 1164 1082.398438 Z M 1164 1082.398438 "/>
</g>
</svg>
