<?xml version="1.0" encoding="UTF-8"?>
<svg xmlns="http://www.w3.org/2000/svg" xmlns:xlink="http://www.w3.org/1999/xlink" width="1920pt" height="1440pt" viewBox="0 0 1920 1440" version="1.1">
<g id="surface1">
<path style=" stroke:none;fill-rule:evenodd;fill:rgb(0%,0%,0%);fill-opacity:1;" d="M -2.398438 -2.398438 C 637.597656 -2.398438 1277.601562 -2.398438 1917.601562 -2.398438 C 1917.601562 477.601562 1917.601562 957.601562 1917.601562 1437.601562 C 1277.601562 1437.601562 637.597656 1437.601562 -2.398438 1437.601562 C -2.398438 957.601562 -2.398438 477.601562 -2.398438 -2.398438 Z M -2.398438 -2.398438 "/>
<path style=" stroke:none;fill-rule:evenodd;fill:rgb(97.254902%,97.254902%,97.254902%);fill-opacity:1;" d="M 1120.800781 448.800781 C 1123.070312 455.550781 1127.871094 458.75 1135.199219 458.398438 C 1255.996094 548.222656 1296.796875 666.621094 1257.601562 813.601562 C 1181.835938 992.546875 1048.234375 1060.550781 856.800781 1017.601562 C 702.898438 950.058594 633.296875 832.460938 648 664.800781 C 678.101562 529.09375 760.503906 443.496094 895.199219 408 C 975.5625 398.148438 1050.761719 411.75 1120.800781 448.800781 Z M 1120.800781 448.800781 "/>
<path style=" stroke:none;fill-rule:evenodd;fill:rgb(40.392157%,40.392157%,40.392157%);fill-opacity:1;" d="M 1120.800781 448.800781 C 1128.128906 448.449219 1132.929688 451.648438 1135.199219 458.398438 C 1127.871094 458.75 1123.070312 455.550781 1120.800781 448.800781 Z M 1120.800781 448.800781 "/>
<path style=" stroke:none;fill-rule:evenodd;fill:rgb(56.470588%,56.470588%,56.470588%);fill-opacity:1;" d="M 1039.199219 516 C 995.199219 502.199219 950.394531 499 904.800781 506.398438 C 919.324219 499.109375 935.324219 495.910156 952.800781 496.800781 C 975.371094 497.625 997.765625 500.027344 1020 504 C 1028.734375 504.960938 1035.132812 508.964844 1039.199219 516 Z M 1039.199219 516 "/>
<path style=" stroke:none;fill-rule:evenodd;fill:rgb(0.784314%,0.784314%,0.784314%);fill-opacity:1;" d="M 1039.199219 516 C 1145.726562 562.820312 1189.726562 644.417969 1171.199219 760.800781 C 1150.292969 850.628906 1095.089844 906.628906 1005.601562 928.800781 C 976.9375 932.355469 948.140625 933.960938 919.199219 933.601562 C 900.265625 927.382812 881.0625 920.980469 861.601562 914.398438 C 859.328125 907.652344 854.53125 904.449219 847.199219 904.800781 C 792.902344 871.53125 758.5 823.53125 744 760.800781 C 727.367188 630.742188 780.964844 545.941406 904.800781 506.398438 C 950.394531 499 995.199219 502.199219 1039.199219 516 Z M 1039.199219 516 "/>
<path style=" stroke:none;fill-rule:evenodd;fill:rgb(79.215686%,79.215686%,79.215686%);fill-opacity:1;" d="M 578.398438 650.398438 C 587.035156 671.535156 590.238281 693.9375 588 717.601562 C 586.402344 717.601562 584.796875 717.601562 583.199219 717.601562 C 576.886719 652.988281 541.691406 628.1875 477.601562 643.199219 C 464.800781 652.136719 453.601562 662.535156 444 674.398438 C 462.621094 633.574219 494.621094 618.375 540 628.800781 C 552.320312 637.1875 565.125 644.386719 578.398438 650.398438 Z M 578.398438 650.398438 "/>
<path style=" stroke:none;fill-rule:evenodd;fill:rgb(31.764706%,31.764706%,31.764706%);fill-opacity:1;" d="M 588 727.199219 C 588 724 588 720.800781 588 717.601562 C 590.238281 693.9375 587.035156 671.535156 578.398438 650.398438 C 573.144531 634.871094 561.945312 626.074219 544.800781 624 C 527.351562 608.136719 506.546875 603.335938 482.398438 609.601562 C 470.082031 621.101562 458.878906 633.101562 448.800781 645.601562 C 459.097656 612.929688 481.496094 596.929688 516 597.601562 C 552.558594 599.898438 577.359375 617.5 590.398438 650.398438 C 594.320312 676.875 593.523438 702.480469 588 727.199219 Z M 588 727.199219 "/>
<path style=" stroke:none;fill-rule:evenodd;fill:rgb(97.647059%,97.647059%,97.647059%);fill-opacity:1;" d="M 583.199219 717.601562 C 557.976562 753.433594 524.375 763.832031 482.398438 748.800781 C 467.078125 739.066406 454.277344 727.066406 444 712.800781 C 444 700 444 687.203125 444 674.398438 C 453.601562 662.535156 464.800781 652.136719 477.601562 643.199219 C 541.691406 628.1875 576.886719 652.988281 583.199219 717.601562 Z M 583.199219 717.601562 "/>
<path style=" stroke:none;fill-rule:evenodd;fill:rgb(29.803922%,29.803922%,29.803922%);fill-opacity:1;" d="M 1456.800781 674.398438 C 1417.890625 653.585938 1380.292969 655.191406 1344 679.199219 C 1336.996094 688.472656 1331.398438 698.074219 1327.199219 708 C 1338.921875 654.058594 1372.523438 634.054688 1428 648 C 1443.105469 651.113281 1452.707031 659.914062 1456.800781 674.398438 Z M 1456.800781 674.398438 "/>
<path style=" stroke:none;fill-rule:evenodd;fill:rgb(47.45098%,47.45098%,47.45098%);fill-opacity:1;" d="M 578.398438 650.398438 C 565.125 644.386719 552.320312 637.1875 540 628.800781 C 494.621094 618.375 462.621094 633.574219 444 674.398438 C 444 687.203125 444 700 444 712.800781 C 443.386719 723.144531 445.785156 732.742188 451.199219 741.601562 C 464.519531 744.652344 474.917969 751.851562 482.398438 763.199219 C 504.800781 766.402344 527.199219 766.402344 549.601562 763.199219 C 561.441406 750.097656 574.238281 738.097656 588 727.199219 C 583.136719 746.601562 573.539062 762.601562 559.199219 775.199219 C 534.222656 784.886719 508.621094 786.484375 482.398438 780 C 475.488281 773.03125 467.488281 768.230469 458.398438 765.601562 C 455.851562 755.789062 450.25 747.789062 441.601562 741.601562 C 438.398438 714.398438 438.398438 687.203125 441.601562 660 C 442.714844 654.0625 445.113281 649.261719 448.800781 645.601562 C 458.878906 633.101562 470.082031 621.101562 482.398438 609.601562 C 506.546875 603.335938 527.351562 608.136719 544.800781 624 C 561.945312 626.074219 573.144531 634.871094 578.398438 650.398438 Z M 578.398438 650.398438 "/>
<path style=" stroke:none;fill-rule:evenodd;fill:rgb(65.098039%,65.098039%,65.098039%);fill-opacity:1;" d="M 444 712.800781 C 454.277344 727.066406 467.078125 739.066406 482.398438 748.800781 C 524.375 763.832031 557.976562 753.433594 583.199219 717.601562 C 584.796875 717.601562 586.402344 717.601562 588 717.601562 C 588 720.800781 588 724 588 727.199219 C 574.238281 738.097656 561.441406 750.097656 549.601562 763.199219 C 527.199219 766.402344 504.800781 766.402344 482.398438 763.199219 C 474.917969 751.851562 464.519531 744.652344 451.199219 741.601562 C 445.785156 732.742188 443.386719 723.144531 444 712.800781 Z M 444 712.800781 "/>
<path style=" stroke:none;fill-rule:evenodd;fill:rgb(18.431373%,18.431373%,18.431373%);fill-opacity:1;" d="M 458.398438 765.601562 C 467.488281 768.230469 475.488281 773.03125 482.398438 780 C 508.621094 786.484375 534.222656 784.886719 559.199219 775.199219 C 556.523438 781.390625 551.722656 785.390625 544.800781 787.199219 C 522.398438 790.402344 500 790.402344 477.601562 787.199219 C 468.554688 782.164062 462.15625 774.964844 458.398438 765.601562 Z M 458.398438 765.601562 "/>
<path style=" stroke:none;fill-rule:evenodd;fill:rgb(51.372549%,51.372549%,51.372549%);fill-opacity:1;" d="M 1456.800781 674.398438 C 1473.210938 690.539062 1479.609375 710.539062 1476 734.398438 C 1478.636719 760.789062 1472.238281 783.988281 1456.800781 804 C 1443.847656 805.957031 1432.652344 811.554688 1423.199219 820.800781 C 1369.933594 833.417969 1337.933594 813.421875 1327.199219 760.800781 C 1325.601562 760.800781 1324 760.800781 1322.398438 760.800781 C 1320.886719 742.21875 1322.488281 724.617188 1327.199219 708 C 1331.398438 698.074219 1336.996094 688.472656 1344 679.199219 C 1380.292969 655.191406 1417.890625 653.585938 1456.800781 674.398438 Z M 1456.800781 674.398438 "/>
<path style=" stroke:none;fill-rule:evenodd;fill:rgb(98.823529%,98.823529%,98.823529%);fill-opacity:1;" d="M 1471.199219 732 C 1471.199219 740 1471.199219 748 1471.199219 756 C 1460.859375 771.863281 1446.460938 783.863281 1428 792 C 1408.800781 795.203125 1389.601562 795.203125 1370.398438 792 C 1361.199219 780.371094 1350 771.570312 1336.800781 765.601562 C 1333.597656 764 1330.402344 762.398438 1327.199219 760.800781 C 1326.140625 747.460938 1327.738281 734.660156 1332 722.398438 C 1357.011719 690.605469 1389.015625 681.003906 1428 693.601562 C 1445.449219 703.097656 1459.847656 715.902344 1471.199219 732 Z M 1471.199219 732 "/>
<path style=" stroke:none;fill-rule:evenodd;fill:rgb(84.313725%,84.313725%,84.313725%);fill-opacity:1;" d="M 1452 698.398438 C 1466.488281 704.902344 1472.886719 716.101562 1471.199219 732 C 1459.847656 715.902344 1445.449219 703.097656 1428 693.601562 C 1389.015625 681.003906 1357.011719 690.605469 1332 722.398438 C 1333.117188 714.902344 1336.320312 708.503906 1341.601562 703.199219 C 1348.019531 699.289062 1352.816406 693.6875 1356 686.398438 C 1390.464844 674.136719 1422.464844 678.132812 1452 698.398438 Z M 1452 698.398438 "/>
<path style=" stroke:none;fill-rule:evenodd;fill:rgb(68.235294%,68.235294%,68.235294%);fill-opacity:1;" d="M 1452 698.398438 C 1422.464844 678.132812 1390.464844 674.136719 1356 686.398438 C 1352.816406 693.6875 1348.019531 699.289062 1341.601562 703.199219 C 1343.230469 687.960938 1351.234375 677.5625 1365.601562 672 C 1390.027344 668.035156 1414.027344 669.636719 1437.601562 676.800781 C 1445.476562 682.21875 1450.277344 689.417969 1452 698.398438 Z M 1452 698.398438 "/>
<path style=" stroke:none;fill-rule:evenodd;fill:rgb(76.862745%,76.862745%,76.862745%);fill-opacity:1;" d="M 1471.199219 756 C 1460.804688 794.855469 1435.203125 812.453125 1394.398438 808.800781 C 1370.054688 810.90625 1351.65625 801.308594 1339.199219 780 C 1336.882812 775.449219 1336.085938 770.648438 1336.800781 765.601562 C 1350 771.570312 1361.199219 780.371094 1370.398438 792 C 1389.601562 795.203125 1408.800781 795.203125 1428 792 C 1446.460938 783.863281 1460.859375 771.863281 1471.199219 756 Z M 1471.199219 756 "/>
<path style=" stroke:none;fill-rule:evenodd;fill:rgb(29.803922%,29.803922%,29.803922%);fill-opacity:1;" d="M 1322.398438 760.800781 C 1324 760.800781 1325.601562 760.800781 1327.199219 760.800781 C 1337.933594 813.421875 1369.933594 833.417969 1423.199219 820.800781 C 1432.652344 811.554688 1443.847656 805.957031 1456.800781 804 C 1457.210938 808.78125 1455.609375 812.777344 1452 816 C 1441.09375 820.515625 1431.496094 826.914062 1423.199219 835.199219 C 1363.292969 846.53125 1329.691406 821.730469 1322.398438 760.800781 Z M 1322.398438 760.800781 "/>
<path style=" stroke:none;fill-rule:evenodd;fill:rgb(41.568627%,41.568627%,41.568627%);fill-opacity:1;" d="M 847.199219 904.800781 C 854.53125 904.449219 859.328125 907.652344 861.601562 914.398438 C 854.269531 914.75 849.46875 911.546875 847.199219 904.800781 Z M 847.199219 904.800781 "/>
<path style=" stroke:none;fill-rule:evenodd;fill:rgb(55.686275%,55.686275%,55.686275%);fill-opacity:1;" d="M 1005.601562 928.800781 C 989.347656 935.855469 971.746094 939.058594 952.800781 938.398438 C 940.679688 938.386719 929.476562 936.78125 919.199219 933.601562 C 948.140625 933.960938 976.9375 932.355469 1005.601562 928.800781 Z M 1005.601562 928.800781 "/>
</g>
</svg>
