<?xml version="1.0" encoding="UTF-8"?>
<svg xmlns="http://www.w3.org/2000/svg" xmlns:xlink="http://www.w3.org/1999/xlink" width="1920pt" height="1440pt" viewBox="0 0 1920 1440" version="1.1">
<g id="surface1">
<path style=" stroke:none;fill-rule:evenodd;fill:rgb(0%,0%,0%);fill-opacity:1;" d="M -2.398438 -2.398438 C 637.597656 -2.398438 1277.601562 -2.398438 1917.601562 -2.398438 C 1917.601562 477.601562 1917.601562 957.601562 1917.601562 1437.601562 C 1277.601562 1437.601562 637.597656 1437.601562 -2.398438 1437.601562 C -2.398438 957.601562 -2.398438 477.601562 -2.398438 -2.398438 Z M -2.398438 -2.398438 "/>
<path style=" stroke:none;fill-rule:evenodd;fill:rgb(98.431373%,98.431373%,98.431373%);fill-opacity:1;" d="M 1226.398438 276 C 1238.9375 282.136719 1250.136719 290.136719 1260 300 C 1260 303.199219 1260 306.398438 1260 309.601562 C 1265.914062 348.523438 1254.714844 380.523438 1226.398438 405.601562 C 1204.988281 416.324219 1182.589844 417.921875 1159.199219 410.398438 C 1151.199219 404 1143.203125 397.601562 1135.199219 391.199219 C 1131.0625 365.699219 1130.261719 340.097656 1132.800781 314.398438 C 1146.398438 307.199219 1156.800781 296.800781 1164 283.199219 C 1184.304688 277.007812 1205.105469 274.609375 1226.398438 276 Z M 1226.398438 276 "/>
<path style=" stroke:none;fill-rule:evenodd;fill:rgb(24.705882%,24.705882%,24.705882%);fill-opacity:1;" d="M 1159.199219 266.398438 C 1146.054688 279.515625 1134.847656 293.917969 1125.601562 309.601562 C 1116.964844 324.023438 1113.761719 340.023438 1116 357.601562 C 1103.546875 315.105469 1117.949219 284.703125 1159.199219 266.398438 Z M 1159.199219 266.398438 "/>
<path style=" stroke:none;fill-rule:evenodd;fill:rgb(42.745098%,42.745098%,42.745098%);fill-opacity:1;" d="M 1221.601562 271.199219 C 1202.332031 270.40625 1183.132812 271.207031 1164 273.601562 C 1151.828125 286.585938 1139.027344 298.585938 1125.601562 309.601562 C 1134.847656 293.917969 1146.054688 279.515625 1159.199219 266.398438 C 1181.058594 259.238281 1201.859375 260.839844 1221.601562 271.199219 Z M 1221.601562 271.199219 "/>
<path style=" stroke:none;fill-rule:evenodd;fill:rgb(66.27451%,66.27451%,66.27451%);fill-opacity:1;" d="M 1221.601562 271.199219 C 1224.800781 271.199219 1226.398438 272.800781 1226.398438 276 C 1205.105469 274.609375 1184.304688 277.007812 1164 283.199219 C 1156.800781 296.800781 1146.398438 307.199219 1132.800781 314.398438 C 1130.261719 340.097656 1131.0625 365.699219 1135.199219 391.199219 C 1127.0625 381.429688 1120.664062 370.230469 1116 357.601562 C 1113.761719 340.023438 1116.964844 324.023438 1125.601562 309.601562 C 1139.027344 298.585938 1151.828125 286.585938 1164 273.601562 C 1183.132812 271.207031 1202.332031 270.40625 1221.601562 271.199219 Z M 1221.601562 271.199219 "/>
<path style=" stroke:none;fill-rule:evenodd;fill:rgb(36.470588%,36.470588%,36.470588%);fill-opacity:1;" d="M 1260 300 C 1268.03125 304.046875 1273.632812 310.445312 1276.800781 319.199219 C 1280 338.398438 1280 357.601562 1276.800781 376.800781 C 1272.039062 390.351562 1263.238281 399.949219 1250.398438 405.601562 C 1251.519531 398.101562 1254.71875 391.703125 1260 386.398438 C 1270.328125 376.285156 1275.128906 363.484375 1274.398438 348 C 1275.128906 332.515625 1270.328125 319.714844 1260 309.601562 C 1260 306.398438 1260 303.199219 1260 300 Z M 1260 300 "/>
<path style=" stroke:none;fill-rule:evenodd;fill:rgb(34.901961%,34.901961%,34.901961%);fill-opacity:1;" d="M 909.601562 381.601562 C 899.929688 388.433594 888.730469 391.632812 876 391.199219 C 885.671875 384.367188 896.871094 381.164062 909.601562 381.601562 Z M 909.601562 381.601562 "/>
<path style=" stroke:none;fill-rule:evenodd;fill:rgb(98.039216%,98.039216%,98.039216%);fill-opacity:1;" d="M 909.601562 381.601562 C 946.539062 380.898438 983.335938 382.496094 1020 386.398438 C 1029.671875 393.234375 1040.871094 396.433594 1053.601562 396 C 1107.707031 414.960938 1155.707031 443.761719 1197.601562 482.398438 C 1200.382812 493.195312 1206.78125 501.191406 1216.800781 506.398438 C 1232.625 521.933594 1246.222656 539.535156 1257.601562 559.199219 C 1290.8125 629.351562 1301.210938 702.957031 1288.800781 780 C 1281.964844 789.671875 1278.769531 800.871094 1279.199219 813.601562 C 1240.890625 925.511719 1165.691406 1000.707031 1053.601562 1039.199219 C 1040.871094 1038.769531 1029.671875 1041.964844 1020 1048.800781 C 942.957031 1061.210938 869.351562 1050.8125 799.199219 1017.601562 C 779.535156 1006.222656 761.933594 992.625 746.398438 976.800781 C 741.191406 966.78125 733.195312 960.382812 722.398438 957.601562 C 616.355469 839.269531 594.753906 706.46875 657.601562 559.199219 C 668.53125 542.015625 680.53125 526.011719 693.601562 511.199219 C 712.800781 495.203125 730.402344 477.601562 746.398438 458.398438 C 782.199219 422.097656 825.398438 399.699219 876 391.199219 C 888.730469 391.632812 899.929688 388.433594 909.601562 381.601562 Z M 909.601562 381.601562 "/>
<path style=" stroke:none;fill-rule:evenodd;fill:rgb(76.862745%,76.862745%,76.862745%);fill-opacity:1;" d="M 1260 309.601562 C 1270.328125 319.714844 1275.128906 332.515625 1274.398438 348 C 1275.128906 363.484375 1270.328125 376.285156 1260 386.398438 C 1248.800781 392.800781 1237.597656 399.199219 1226.398438 405.601562 C 1254.714844 380.523438 1265.914062 348.523438 1260 309.601562 Z M 1260 309.601562 "/>
<path style=" stroke:none;fill-rule:evenodd;fill:rgb(39.215686%,39.215686%,39.215686%);fill-opacity:1;" d="M 1020 386.398438 C 1032.730469 385.964844 1043.929688 389.164062 1053.601562 396 C 1040.871094 396.433594 1029.671875 393.234375 1020 386.398438 Z M 1020 386.398438 "/>
<path style=" stroke:none;fill-rule:evenodd;fill:rgb(53.72549%,53.72549%,53.72549%);fill-opacity:1;" d="M 1260 386.398438 C 1254.71875 391.703125 1251.519531 398.101562 1250.398438 405.601562 C 1236.082031 419.453125 1218.484375 425.855469 1197.601562 424.800781 C 1181.636719 426.851562 1168.839844 422.050781 1159.199219 410.398438 C 1182.589844 417.921875 1204.988281 416.324219 1226.398438 405.601562 C 1237.597656 399.199219 1248.800781 392.800781 1260 386.398438 Z M 1260 386.398438 "/>
<path style=" stroke:none;fill-rule:evenodd;fill:rgb(67.45098%,67.45098%,67.45098%);fill-opacity:1;" d="M 746.398438 458.398438 C 730.402344 477.601562 712.800781 495.203125 693.601562 511.199219 C 706.402344 488.796875 724 471.199219 746.398438 458.398438 Z M 746.398438 458.398438 "/>
<path style=" stroke:none;fill-rule:evenodd;fill:rgb(61.568627%,61.568627%,61.568627%);fill-opacity:1;" d="M 1197.601562 482.398438 C 1207.617188 487.609375 1214.015625 495.605469 1216.800781 506.398438 C 1206.78125 501.191406 1200.382812 493.195312 1197.601562 482.398438 Z M 1197.601562 482.398438 "/>
<path style=" stroke:none;fill-rule:evenodd;fill:rgb(0.392157%,0.392157%,0.392157%);fill-opacity:1;" d="M 924 487.199219 C 1063.214844 484.929688 1150.414062 550.53125 1185.601562 684 C 1184.796875 857.601562 1097.601562 944.796875 924 945.601562 C 789.800781 910.53125 725 823.328125 729.601562 684 C 753.667969 577.535156 818.46875 511.933594 924 487.199219 Z M 924 487.199219 "/>
<path style=" stroke:none;fill-rule:evenodd;fill:rgb(39.215686%,39.215686%,39.215686%);fill-opacity:1;" d="M 1288.800781 780 C 1289.230469 792.730469 1286.035156 803.929688 1279.199219 813.601562 C 1278.769531 800.871094 1281.964844 789.671875 1288.800781 780 Z M 1288.800781 780 "/>
<path style=" stroke:none;fill-rule:evenodd;fill:rgb(61.176471%,61.176471%,61.176471%);fill-opacity:1;" d="M 722.398438 957.601562 C 733.195312 960.382812 741.191406 966.78125 746.398438 976.800781 C 735.605469 974.015625 727.609375 967.617188 722.398438 957.601562 Z M 722.398438 957.601562 "/>
<path style=" stroke:none;fill-rule:evenodd;fill:rgb(97.254902%,97.254902%,97.254902%);fill-opacity:1;" d="M 746.398438 1020 C 755.574219 1022.761719 763.574219 1027.558594 770.398438 1034.398438 C 771.519531 1041.898438 774.71875 1048.296875 780 1053.601562 C 792.152344 1099.695312 777.753906 1134.894531 736.800781 1159.199219 C 723.421875 1163.890625 709.023438 1165.488281 693.601562 1164 C 672.96875 1157.75 658.570312 1144.949219 650.398438 1125.601562 C 650.398438 1120.800781 650.398438 1116 650.398438 1111.199219 C 647.953125 1044.855469 679.949219 1014.453125 746.398438 1020 Z M 746.398438 1020 "/>
<path style=" stroke:none;fill-rule:evenodd;fill:rgb(40.784314%,40.784314%,40.784314%);fill-opacity:1;" d="M 736.800781 1015.199219 C 667.910156 1013.601562 639.109375 1045.601562 650.398438 1111.199219 C 650.398438 1116 650.398438 1120.800781 650.398438 1125.601562 C 644.207031 1122.921875 640.210938 1118.121094 638.398438 1111.199219 C 626.804688 1032.382812 659.605469 1000.382812 736.800781 1015.199219 Z M 736.800781 1015.199219 "/>
<path style=" stroke:none;fill-rule:evenodd;fill:rgb(67.058824%,67.058824%,67.058824%);fill-opacity:1;" d="M 736.800781 1015.199219 C 741.5625 1014.375 744.757812 1015.976562 746.398438 1020 C 679.949219 1014.453125 647.953125 1044.855469 650.398438 1111.199219 C 639.109375 1045.601562 667.910156 1013.601562 736.800781 1015.199219 Z M 736.800781 1015.199219 "/>
<path style=" stroke:none;fill-rule:evenodd;fill:rgb(33.72549%,33.72549%,33.72549%);fill-opacity:1;" d="M 1053.601562 1039.199219 C 1043.929688 1046.035156 1032.730469 1049.230469 1020 1048.800781 C 1029.671875 1041.964844 1040.871094 1038.769531 1053.601562 1039.199219 Z M 1053.601562 1039.199219 "/>
<path style=" stroke:none;fill-rule:evenodd;fill:rgb(38.431373%,38.431373%,38.431373%);fill-opacity:1;" d="M 770.398438 1034.398438 C 805.886719 1061.515625 813.085938 1095.113281 792 1135.199219 C 769.042969 1166.878906 737.839844 1178.878906 698.398438 1171.199219 C 695.730469 1169.363281 694.132812 1166.960938 693.601562 1164 C 709.023438 1165.488281 723.421875 1163.890625 736.800781 1159.199219 C 774.441406 1153.507812 793.640625 1131.105469 794.398438 1092 C 795.128906 1076.515625 790.328125 1063.714844 780 1053.601562 C 774.71875 1048.296875 771.519531 1041.898438 770.398438 1034.398438 Z M 770.398438 1034.398438 "/>
<path style=" stroke:none;fill-rule:evenodd;fill:rgb(67.843137%,67.843137%,67.843137%);fill-opacity:1;" d="M 780 1053.601562 C 790.328125 1063.714844 795.128906 1076.515625 794.398438 1092 C 793.640625 1131.105469 774.441406 1153.507812 736.800781 1159.199219 C 777.753906 1134.894531 792.152344 1099.695312 780 1053.601562 Z M 780 1053.601562 "/>
</g>
</svg>
