<?xml version="1.0" encoding="UTF-8"?>
<svg xmlns="http://www.w3.org/2000/svg" xmlns:xlink="http://www.w3.org/1999/xlink" width="1920pt" height="1440pt" viewBox="0 0 1920 1440" version="1.1">
<g id="surface1">
<path style=" stroke:none;fill-rule:evenodd;fill:rgb(0%,0%,0%);fill-opacity:1;" d="M -2.398438 -2.398438 C 637.597656 -2.398438 1277.601562 -2.398438 1917.601562 -2.398438 C 1917.601562 477.601562 1917.601562 957.601562 1917.601562 1437.601562 C 1277.601562 1437.601562 637.597656 1437.601562 -2.398438 1437.601562 C -2.398438 957.601562 -2.398438 477.601562 -2.398438 -2.398438 Z M -2.398438 -2.398438 "/>
<path style=" stroke:none;fill-rule:evenodd;fill:rgb(97.254902%,97.254902%,97.254902%);fill-opacity:1;" d="M 852 213.601562 C 912.941406 211.324219 939.339844 240.125 931.199219 300 C 925.53125 319.554688 916.734375 337.15625 904.800781 352.800781 C 875.730469 357.527344 850.132812 351.125 828 333.601562 C 802.292969 286.167969 810.292969 246.167969 852 213.601562 Z M 852 213.601562 "/>
<path style=" stroke:none;fill-rule:evenodd;fill:rgb(71.372549%,71.372549%,71.372549%);fill-opacity:1;" d="M 852 213.601562 C 870.488281 208.109375 889.691406 208.109375 909.601562 213.601562 C 948.570312 251.296875 953.371094 292.894531 924 338.398438 C 920.796875 343.199219 917.601562 348 914.398438 352.800781 C 911.199219 352.800781 908 352.800781 904.800781 352.800781 C 916.734375 337.15625 925.53125 319.554688 931.199219 300 C 939.339844 240.125 912.941406 211.324219 852 213.601562 Z M 852 213.601562 "/>
<path style=" stroke:none;fill-rule:evenodd;fill:rgb(70.588235%,70.588235%,70.588235%);fill-opacity:1;" d="M 842.398438 213.601562 C 845.601562 213.601562 848.796875 213.601562 852 213.601562 C 810.292969 246.167969 802.292969 286.167969 828 333.601562 C 817.890625 328.480469 810.691406 320.480469 806.398438 309.601562 C 793.996094 267.613281 805.996094 235.613281 842.398438 213.601562 Z M 842.398438 213.601562 "/>
<path style=" stroke:none;fill-rule:evenodd;fill:rgb(36.862745%,36.862745%,36.470588%);fill-opacity:1;" d="M 957.601562 237.601562 C 966.417969 271.035156 963.214844 303.035156 948 333.601562 C 937.449219 341.269531 926.25 347.671875 914.398438 352.800781 C 917.601562 348 920.796875 343.199219 924 338.398438 C 928.78125 338.8125 932.777344 337.210938 936 333.601562 C 959.203125 295.925781 957.605469 259.125 931.199219 223.199219 C 924.816406 218.003906 917.617188 214.804688 909.601562 213.601562 C 889.691406 208.109375 870.488281 208.109375 852 213.601562 C 848.796875 213.601562 845.601562 213.601562 842.398438 213.601562 C 842.933594 210.636719 844.53125 208.238281 847.199219 206.398438 C 885.160156 198.804688 920.355469 205.203125 952.800781 225.601562 C 956.410156 228.820312 958.011719 232.820312 957.601562 237.601562 Z M 957.601562 237.601562 "/>
<path style=" stroke:none;fill-rule:evenodd;fill:rgb(55.294118%,55.294118%,55.294118%);fill-opacity:1;" d="M 909.601562 213.601562 C 917.617188 214.804688 924.816406 218.003906 931.199219 223.199219 C 957.605469 259.125 959.203125 295.925781 936 333.601562 C 932.777344 337.210938 928.78125 338.8125 924 338.398438 C 953.371094 292.894531 948.570312 251.296875 909.601562 213.601562 Z M 909.601562 213.601562 "/>
<path style=" stroke:none;fill-rule:evenodd;fill:rgb(49.803922%,49.803922%,49.803922%);fill-opacity:1;" d="M 842.398438 213.601562 C 805.996094 235.613281 793.996094 267.613281 806.398438 309.601562 C 810.691406 320.480469 817.890625 328.480469 828 333.601562 C 850.132812 351.125 875.730469 357.527344 904.800781 352.800781 C 899.671875 357.285156 893.273438 358.886719 885.601562 357.601562 C 811.15625 360.703125 779.957031 325.503906 792 252 C 803.386719 241.425781 813.789062 230.226562 823.199219 218.398438 C 828.328125 213.914062 834.726562 212.316406 842.398438 213.601562 Z M 842.398438 213.601562 "/>
<path style=" stroke:none;fill-rule:evenodd;fill:rgb(20%,20%,20%);fill-opacity:1;" d="M 957.601562 237.601562 C 968.929688 249.171875 973.726562 263.574219 972 280.800781 C 970.539062 301.433594 962.539062 319.035156 948 333.601562 C 963.214844 303.035156 966.417969 271.035156 957.601562 237.601562 Z M 957.601562 237.601562 "/>
<path style=" stroke:none;fill-rule:evenodd;fill:rgb(27.45098%,27.45098%,27.45098%);fill-opacity:1;" d="M 823.199219 218.398438 C 813.789062 230.226562 803.386719 241.425781 792 252 C 779.957031 325.503906 811.15625 360.703125 885.601562 357.601562 C 842.164062 373.535156 809.367188 360.734375 787.199219 319.199219 C 768.234375 273.386719 780.234375 239.785156 823.199219 218.398438 Z M 823.199219 218.398438 "/>
<path style=" stroke:none;fill-rule:evenodd;fill:rgb(98.039216%,98.039216%,98.039216%);fill-opacity:1;" d="M 919.199219 400.800781 C 1079.828125 396.03125 1192.628906 466.429688 1257.601562 612 C 1299.246094 774.25 1250.449219 901.449219 1111.199219 993.601562 C 938.273438 1072 796.675781 1034.398438 686.398438 880.800781 C 599.320312 696.8125 640.117188 548.8125 808.800781 436.800781 C 844.789062 420.742188 881.59375 408.742188 919.199219 400.800781 Z M 919.199219 400.800781 "/>
<path style=" stroke:none;fill-rule:evenodd;fill:rgb(0.784314%,0.784314%,0.784314%);fill-opacity:1;" d="M 943.199219 535.199219 C 1014.089844 533.050781 1070.089844 560.25 1111.199219 616.800781 C 1110.847656 624.128906 1114.050781 628.929688 1120.800781 631.199219 C 1158.820312 724.210938 1139.621094 803.410156 1063.199219 868.800781 C 1042.179688 881.730469 1019.777344 890.53125 996 895.199219 C 965.710938 899.804688 935.3125 899.804688 904.800781 895.199219 C 892.894531 891.636719 881.699219 886.839844 871.199219 880.800781 C 868.929688 874.050781 864.128906 870.847656 856.800781 871.199219 C 812.859375 841.011719 785.660156 799.410156 775.199219 746.398438 C 774.945312 719.058594 776.542969 691.863281 780 664.800781 C 783.5625 652.894531 788.363281 641.699219 794.398438 631.199219 C 801.148438 628.929688 804.351562 624.128906 804 616.800781 C 826.300781 582.460938 856.699219 558.460938 895.199219 544.800781 C 912.191406 543.585938 928.191406 540.390625 943.199219 535.199219 Z M 943.199219 535.199219 "/>
<path style=" stroke:none;fill-rule:evenodd;fill:rgb(30.980392%,30.980392%,30.980392%);fill-opacity:1;" d="M 943.199219 535.199219 C 928.191406 540.390625 912.191406 543.585938 895.199219 544.800781 C 897.207031 541.335938 900.402344 538.933594 904.800781 537.601562 C 917.5 535.214844 930.300781 534.414062 943.199219 535.199219 Z M 943.199219 535.199219 "/>
<path style=" stroke:none;fill-rule:evenodd;fill:rgb(43.921569%,43.921569%,43.921569%);fill-opacity:1;" d="M 804 616.800781 C 804.351562 624.128906 801.148438 628.929688 794.398438 631.199219 C 794.050781 623.871094 797.25 619.070312 804 616.800781 Z M 804 616.800781 "/>
<path style=" stroke:none;fill-rule:evenodd;fill:rgb(43.921569%,43.921569%,43.921569%);fill-opacity:1;" d="M 1111.199219 616.800781 C 1117.949219 619.070312 1121.152344 623.871094 1120.800781 631.199219 C 1114.050781 628.929688 1110.847656 624.128906 1111.199219 616.800781 Z M 1111.199219 616.800781 "/>
<path style=" stroke:none;fill-rule:evenodd;fill:rgb(69.411765%,69.411765%,69.411765%);fill-opacity:1;" d="M 780 664.800781 C 776.542969 691.863281 774.945312 719.058594 775.199219 746.398438 C 769.679688 723.28125 768.882812 699.28125 772.800781 674.398438 C 774.132812 670.003906 776.535156 666.804688 780 664.800781 Z M 780 664.800781 "/>
<path style=" stroke:none;fill-rule:evenodd;fill:rgb(43.921569%,43.921569%,43.921569%);fill-opacity:1;" d="M 856.800781 871.199219 C 864.128906 870.847656 868.929688 874.050781 871.199219 880.800781 C 863.871094 881.152344 859.070312 877.949219 856.800781 871.199219 Z M 856.800781 871.199219 "/>
<path style=" stroke:none;fill-rule:evenodd;fill:rgb(52.156863%,52.156863%,52.156863%);fill-opacity:1;" d="M 904.800781 895.199219 C 935.3125 899.804688 965.710938 899.804688 996 895.199219 C 965.71875 907.441406 935.320312 907.441406 904.800781 895.199219 Z M 904.800781 895.199219 "/>
<path style=" stroke:none;fill-rule:evenodd;fill:rgb(24.705882%,24.705882%,24.705882%);fill-opacity:1;" d="M 1034.398438 1077.601562 C 1051.085938 1072.113281 1068.679688 1071.3125 1087.199219 1075.199219 C 1095.929688 1078.753906 1102.328125 1084.355469 1106.398438 1092 C 1091.019531 1085.273438 1075.023438 1080.476562 1058.398438 1077.601562 C 1050.398438 1077.601562 1042.402344 1077.601562 1034.398438 1077.601562 Z M 1034.398438 1077.601562 "/>
<path style=" stroke:none;fill-rule:evenodd;fill:rgb(48.235294%,48.235294%,48.235294%);fill-opacity:1;" d="M 1000.800781 1087.199219 C 953.492188 1135.011719 956.691406 1178.210938 1010.398438 1216.800781 C 1010.933594 1219.761719 1012.53125 1222.160156 1015.199219 1224 C 1031.121094 1226.390625 1047.121094 1227.191406 1063.199219 1226.398438 C 1044.96875 1231.117188 1025.769531 1232.722656 1005.601562 1231.199219 C 964.050781 1208.347656 948.847656 1173.144531 960 1125.601562 C 961.757812 1116.230469 965.753906 1108.234375 972 1101.601562 C 977.699219 1089.71875 987.296875 1084.921875 1000.800781 1087.199219 Z M 1000.800781 1087.199219 "/>
<path style=" stroke:none;fill-rule:evenodd;fill:rgb(25.490196%,25.490196%,25.490196%);fill-opacity:1;" d="M 972 1101.601562 C 965.753906 1108.234375 961.757812 1116.230469 960 1125.601562 C 948.847656 1173.144531 964.050781 1208.347656 1005.601562 1231.199219 C 958.695312 1214.257812 938.691406 1180.65625 945.601562 1130.398438 C 949.03125 1115.324219 957.832031 1105.722656 972 1101.601562 Z M 972 1101.601562 "/>
<path style=" stroke:none;fill-rule:evenodd;fill:rgb(72.941176%,72.941176%,72.941176%);fill-opacity:1;" d="M 1034.398438 1077.601562 C 1042.402344 1077.601562 1050.398438 1077.601562 1058.398438 1077.601562 C 1130.644531 1122.390625 1133.847656 1171.992188 1068 1226.398438 C 1066.402344 1226.398438 1064.796875 1226.398438 1063.199219 1226.398438 C 1047.121094 1227.191406 1031.121094 1226.390625 1015.199219 1224 C 1012.53125 1222.160156 1010.933594 1219.761719 1010.398438 1216.800781 C 956.691406 1178.210938 953.492188 1135.011719 1000.800781 1087.199219 C 1010.472656 1080.363281 1021.671875 1077.167969 1034.398438 1077.601562 Z M 1034.398438 1077.601562 "/>
<path style=" stroke:none;fill-rule:evenodd;fill:rgb(98.431373%,98.431373%,98.431373%);fill-opacity:1;" d="M 1010.398438 1216.800781 C 988.496094 1188.921875 981.296875 1156.921875 988.800781 1120.800781 C 999.5 1089.445312 1021.097656 1077.445312 1053.601562 1084.800781 C 1101.023438 1125.921875 1104.226562 1170.71875 1063.199219 1219.199219 C 1045.425781 1221.980469 1027.828125 1221.175781 1010.398438 1216.800781 Z M 1010.398438 1216.800781 "/>
<path style=" stroke:none;fill-rule:evenodd;fill:rgb(46.666667%,46.666667%,46.666667%);fill-opacity:1;" d="M 1058.398438 1077.601562 C 1075.023438 1080.476562 1091.019531 1085.273438 1106.398438 1092 C 1124.152344 1118.039062 1129.746094 1146.839844 1123.199219 1178.398438 C 1116.378906 1187.542969 1110.777344 1197.144531 1106.398438 1207.199219 C 1095.507812 1216.535156 1082.707031 1222.9375 1068 1226.398438 C 1133.847656 1171.992188 1130.644531 1122.390625 1058.398438 1077.601562 Z M 1058.398438 1077.601562 "/>
<path style=" stroke:none;fill-rule:evenodd;fill:rgb(25.882353%,25.882353%,25.882353%);fill-opacity:1;" d="M 1106.398438 1092 C 1129.160156 1105.03125 1138.761719 1125.035156 1135.199219 1152 C 1135.128906 1175.34375 1125.527344 1193.742188 1106.398438 1207.199219 C 1110.777344 1197.144531 1116.378906 1187.542969 1123.199219 1178.398438 C 1129.746094 1146.839844 1124.152344 1118.039062 1106.398438 1092 Z M 1106.398438 1092 "/>
</g>
</svg>
