<?xml version="1.0" encoding="UTF-8"?>
<svg xmlns="http://www.w3.org/2000/svg" xmlns:xlink="http://www.w3.org/1999/xlink" width="1920pt" height="1440pt" viewBox="0 0 1920 1440" version="1.1">
<g id="surface1">
<path style=" stroke:none;fill-rule:evenodd;fill:rgb(0%,0%,0%);fill-opacity:1;" d="M -2.398438 -2.398438 C 637.597656 -2.398438 1277.601562 -2.398438 1917.601562 -2.398438 C 1917.601562 477.601562 1917.601562 957.601562 1917.601562 1437.601562 C 1277.601562 1437.601562 637.597656 1437.601562 -2.398438 1437.601562 C -2.398438 957.601562 -2.398438 477.601562 -2.398438 -2.398438 Z M -2.398438 -2.398438 "/>
<path style=" stroke:none;fill-rule:evenodd;fill:rgb(26.666667%,26.666667%,26.666667%);fill-opacity:1;" d="M 1288.800781 333.601562 C 1272.820312 332.234375 1258.421875 335.433594 1245.601562 343.199219 C 1242.398438 343.199219 1239.203125 343.199219 1236 343.199219 C 1240.066406 336.160156 1246.464844 332.160156 1255.199219 331.199219 C 1267.386719 327.378906 1278.585938 328.179688 1288.800781 333.601562 Z M 1288.800781 333.601562 "/>
<path style=" stroke:none;fill-rule:evenodd;fill:rgb(99.215686%,99.215686%,99.215686%);fill-opacity:1;" d="M 1317.601562 348 C 1325.601562 354.398438 1333.597656 360.800781 1341.601562 367.199219 C 1360.0625 426.476562 1340.058594 464.875 1281.601562 482.398438 C 1262.070312 480.378906 1243.671875 475.582031 1226.398438 468 C 1220.210938 462.542969 1215.414062 456.144531 1212 448.800781 C 1202.867188 409.554688 1214.0625 378.351562 1245.601562 355.199219 C 1269.125 348.839844 1293.125 346.4375 1317.601562 348 Z M 1317.601562 348 "/>
<path style=" stroke:none;fill-rule:evenodd;fill:rgb(77.254902%,77.254902%,77.254902%);fill-opacity:1;" d="M 1288.800781 333.601562 C 1298.609375 338.4375 1308.210938 343.238281 1317.601562 348 C 1293.125 346.4375 1269.125 348.839844 1245.601562 355.199219 C 1214.0625 378.351562 1202.867188 409.554688 1212 448.800781 C 1207.976562 447.160156 1206.375 443.960938 1207.199219 439.199219 C 1206.402344 419.933594 1207.203125 400.734375 1209.601562 381.601562 C 1222.585938 369.425781 1234.585938 356.625 1245.601562 343.199219 C 1258.421875 335.433594 1272.820312 332.234375 1288.800781 333.601562 Z M 1288.800781 333.601562 "/>
<path style=" stroke:none;fill-rule:evenodd;fill:rgb(45.490196%,45.490196%,45.490196%);fill-opacity:1;" d="M 1236 343.199219 C 1239.203125 343.199219 1242.398438 343.199219 1245.601562 343.199219 C 1234.585938 356.625 1222.585938 369.425781 1209.601562 381.601562 C 1207.203125 400.734375 1206.402344 419.933594 1207.199219 439.199219 C 1197.894531 419.851562 1195.492188 399.050781 1200 376.800781 C 1208.332031 361.25 1220.332031 350.050781 1236 343.199219 Z M 1236 343.199219 "/>
<path style=" stroke:none;fill-rule:evenodd;fill:rgb(97.647059%,97.647059%,97.647059%);fill-opacity:1;" d="M 828 405.601562 C 844.105469 404.691406 858.503906 399.890625 871.199219 391.199219 C 1011.753906 360.242188 1129.355469 398.640625 1224 506.398438 C 1324.363281 649.882812 1322.765625 792.277344 1219.199219 933.601562 C 1085.125 1073.140625 933.925781 1094.742188 765.601562 998.398438 C 649.117188 911.5 601.921875 795.503906 624 650.398438 C 651.300781 534.339844 719.304688 452.742188 828 405.601562 Z M 828 405.601562 "/>
<path style=" stroke:none;fill-rule:evenodd;fill:rgb(67.058824%,67.058824%,67.058824%);fill-opacity:1;" d="M 871.199219 391.199219 C 858.503906 399.890625 844.105469 404.691406 828 405.601562 C 840.402344 396.132812 854.804688 391.332031 871.199219 391.199219 Z M 871.199219 391.199219 "/>
<path style=" stroke:none;fill-rule:evenodd;fill:rgb(69.411765%,69.411765%,69.411765%);fill-opacity:1;" d="M 1341.601562 367.199219 C 1350 372.765625 1354.800781 380.765625 1356 391.199219 C 1356.792969 408.871094 1355.996094 426.472656 1353.601562 444 C 1344.035156 459.164062 1332.035156 471.960938 1317.601562 482.398438 C 1297.113281 486.589844 1276.308594 488.1875 1255.199219 487.199219 C 1242.25 485.542969 1232.648438 479.144531 1226.398438 468 C 1243.671875 475.582031 1262.070312 480.378906 1281.601562 482.398438 C 1340.058594 464.875 1360.0625 426.476562 1341.601562 367.199219 Z M 1341.601562 367.199219 "/>
<path style=" stroke:none;fill-rule:evenodd;fill:rgb(30.980392%,30.980392%,30.980392%);fill-opacity:1;" d="M 1356 391.199219 C 1368.195312 426.015625 1360.199219 455.613281 1332 480 C 1327.449219 482.320312 1322.648438 483.113281 1317.601562 482.398438 C 1332.035156 471.960938 1344.035156 459.164062 1353.601562 444 C 1355.996094 426.472656 1356.792969 408.871094 1356 391.199219 Z M 1356 391.199219 "/>
<path style=" stroke:none;fill-rule:evenodd;fill:rgb(34.901961%,34.901961%,34.901961%);fill-opacity:1;" d="M 1317.601562 482.398438 C 1308.210938 492.230469 1296.210938 497.03125 1281.601562 496.800781 C 1270.9375 497.3125 1262.140625 494.113281 1255.199219 487.199219 C 1276.308594 488.1875 1297.113281 486.589844 1317.601562 482.398438 Z M 1317.601562 482.398438 "/>
<path style=" stroke:none;fill-rule:evenodd;fill:rgb(0.784314%,0.784314%,0.784314%);fill-opacity:1;" d="M 981.601562 492 C 1104.550781 512.546875 1173.355469 584.546875 1188 708 C 1173.453125 868.953125 1085.453125 948.152344 924 945.601562 C 789.949219 910.652344 725.152344 823.453125 729.601562 684 C 747.058594 590.582031 800.660156 529.785156 890.398438 501.601562 C 920.308594 494.371094 950.707031 491.167969 981.601562 492 Z M 981.601562 492 "/>
<path style=" stroke:none;fill-rule:evenodd;fill:rgb(22.352941%,22.352941%,22.352941%);fill-opacity:1;" d="M 981.601562 492 C 950.707031 491.167969 920.308594 494.371094 890.398438 501.601562 C 919.722656 487.160156 950.121094 483.964844 981.601562 492 Z M 981.601562 492 "/>
<path style=" stroke:none;fill-rule:evenodd;fill:rgb(98.431373%,98.431373%,98.431373%);fill-opacity:1;" d="M 621.601562 952.800781 C 639.523438 951.949219 657.125 953.546875 674.398438 957.601562 C 682.167969 968.566406 691.765625 978.167969 703.199219 986.398438 C 709.15625 1008.847656 709.15625 1031.246094 703.199219 1053.601562 C 704.027344 1058.363281 702.421875 1061.558594 698.398438 1063.199219 C 672.402344 1090.316406 640.402344 1099.117188 602.398438 1089.601562 C 598.828125 1084.613281 594.027344 1082.210938 588 1082.398438 C 581.601562 1074.398438 575.199219 1066.402344 568.800781 1058.398438 C 568.800781 1053.601562 568.800781 1048.800781 568.800781 1044 C 567.664062 1025.890625 570.0625 1008.289062 576 991.199219 C 589.414062 975.308594 604.613281 962.511719 621.601562 952.800781 Z M 621.601562 952.800781 "/>
<path style=" stroke:none;fill-rule:evenodd;fill:rgb(66.666667%,66.666667%,66.666667%);fill-opacity:1;" d="M 674.398438 957.601562 C 688.90625 962.503906 698.503906 972.105469 703.199219 986.398438 C 691.765625 978.167969 682.167969 968.566406 674.398438 957.601562 Z M 674.398438 957.601562 "/>
<path style=" stroke:none;fill-rule:evenodd;fill:rgb(57.254902%,57.254902%,57.254902%);fill-opacity:1;" d="M 645.601562 943.199219 C 658.027344 943.011719 667.628906 947.8125 674.398438 957.601562 C 657.125 953.546875 639.523438 951.949219 621.601562 952.800781 C 602.007812 956.390625 586.007812 965.992188 573.601562 981.601562 C 576.972656 970.964844 583.371094 962.164062 592.800781 955.199219 C 609.230469 946.0625 626.832031 942.0625 645.601562 943.199219 Z M 645.601562 943.199219 "/>
<path style=" stroke:none;fill-rule:evenodd;fill:rgb(82.352941%,82.352941%,82.352941%);fill-opacity:1;" d="M 621.601562 952.800781 C 604.613281 962.511719 589.414062 975.308594 576 991.199219 C 570.0625 1008.289062 567.664062 1025.890625 568.800781 1044 C 561.425781 1022.683594 563.027344 1001.886719 573.601562 981.601562 C 586.007812 965.992188 602.007812 956.390625 621.601562 952.800781 Z M 621.601562 952.800781 "/>
<path style=" stroke:none;fill-rule:evenodd;fill:rgb(36.862745%,36.862745%,36.862745%);fill-opacity:1;" d="M 645.601562 943.199219 C 626.832031 942.0625 609.230469 946.0625 592.800781 955.199219 C 583.371094 962.164062 576.972656 970.964844 573.601562 981.601562 C 563.027344 1001.886719 561.425781 1022.683594 568.800781 1044 C 568.800781 1048.800781 568.800781 1053.601562 568.800781 1058.398438 C 540.390625 1006.964844 553.191406 967.761719 607.199219 940.800781 C 620.960938 936.957031 633.761719 937.757812 645.601562 943.199219 Z M 645.601562 943.199219 "/>
<path style=" stroke:none;fill-rule:evenodd;fill:rgb(31.372549%,31.372549%,31.372549%);fill-opacity:1;" d="M 712.800781 1000.800781 C 722.300781 1029.125 717.5 1054.722656 698.398438 1077.601562 C 698.398438 1072.800781 698.398438 1068 698.398438 1063.199219 C 702.421875 1061.558594 704.027344 1058.363281 703.199219 1053.601562 C 706.664062 1051.59375 709.066406 1048.398438 710.398438 1044 C 712.789062 1029.6875 713.59375 1015.285156 712.800781 1000.800781 Z M 712.800781 1000.800781 "/>
<path style=" stroke:none;fill-rule:evenodd;fill:rgb(58.431373%,58.431373%,58.431373%);fill-opacity:1;" d="M 703.199219 986.398438 C 707.523438 990.191406 710.726562 994.992188 712.800781 1000.800781 C 713.59375 1015.285156 712.789062 1029.6875 710.398438 1044 C 709.066406 1048.398438 706.664062 1051.59375 703.199219 1053.601562 C 709.15625 1031.246094 709.15625 1008.847656 703.199219 986.398438 Z M 703.199219 986.398438 "/>
<path style=" stroke:none;fill-rule:evenodd;fill:rgb(52.941176%,52.941176%,52.941176%);fill-opacity:1;" d="M 698.398438 1063.199219 C 698.398438 1068 698.398438 1072.800781 698.398438 1077.601562 C 683.488281 1096.609375 663.488281 1104.609375 638.398438 1101.601562 C 617.125 1105.21875 600.328125 1098.820312 588 1082.398438 C 594.027344 1082.210938 598.828125 1084.613281 602.398438 1089.601562 C 640.402344 1099.117188 672.402344 1090.316406 698.398438 1063.199219 Z M 698.398438 1063.199219 "/>
</g>
</svg>
