<?xml version="1.0" encoding="UTF-8"?>
<svg xmlns="http://www.w3.org/2000/svg" xmlns:xlink="http://www.w3.org/1999/xlink" width="1920pt" height="1440pt" viewBox="0 0 1920 1440" version="1.1">
<g id="surface1">
<path style=" stroke:none;fill-rule:evenodd;fill:rgb(0%,0%,0%);fill-opacity:1;" d="M -2.398438 -2.398438 C 637.597656 -2.398438 1277.601562 -2.398438 1917.601562 -2.398438 C 1917.601562 477.601562 1917.601562 957.601562 1917.601562 1437.601562 C 1277.601562 1437.601562 637.597656 1437.601562 -2.398438 1437.601562 C -2.398438 957.601562 -2.398438 477.601562 -2.398438 -2.398438 Z M -2.398438 -2.398438 "/>
<path style=" stroke:none;fill-rule:evenodd;fill:rgb(98.039216%,98.039216%,98.039216%);fill-opacity:1;" d="M 1245.601562 564 C 1245.25 571.328125 1248.453125 576.128906 1255.199219 578.398438 C 1259.941406 590.765625 1264.742188 603.566406 1269.601562 616.800781 C 1269.167969 629.53125 1272.363281 640.726562 1279.199219 650.398438 C 1300.503906 815.8125 1238.101562 937.410156 1092 1015.199219 C 1080.160156 1016.425781 1070.558594 1021.222656 1063.199219 1029.601562 C 994.691406 1047.707031 925.886719 1048.507812 856.800781 1032 C 849.28125 1029.082031 842.878906 1025.078125 837.601562 1020 C 829.910156 1012.445312 820.308594 1009.242188 808.800781 1010.398438 C 722.261719 962.242188 665.457031 890.242188 638.398438 794.398438 C 632.457031 754.621094 630.058594 714.625 631.199219 674.398438 C 637.285156 662.855469 640.488281 650.054688 640.800781 636 C 661.785156 554.964844 706.585938 490.167969 775.199219 441.601562 C 800.152344 424.320312 827.351562 412.320312 856.800781 405.601562 C 869.53125 406.035156 880.726562 402.835938 890.398438 396 C 1021.707031 375.511719 1131.308594 415.511719 1219.199219 516 C 1229.335938 531.488281 1238.136719 547.488281 1245.601562 564 Z M 1245.601562 564 "/>
<path style=" stroke:none;fill-rule:evenodd;fill:rgb(56.470588%,56.470588%,56.470588%);fill-opacity:1;" d="M 890.398438 396 C 880.726562 402.835938 869.53125 406.035156 856.800781 405.601562 C 866.472656 398.765625 877.671875 395.566406 890.398438 396 Z M 890.398438 396 "/>
<path style=" stroke:none;fill-rule:evenodd;fill:rgb(27.843137%,27.843137%,27.843137%);fill-opacity:1;" d="M 976.800781 520.800781 C 951.203125 522.398438 925.597656 524 900 525.601562 C 925.28125 516.34375 950.878906 514.746094 976.800781 520.800781 Z M 976.800781 520.800781 "/>
<path style=" stroke:none;fill-rule:evenodd;fill:rgb(0.784314%,0.784314%,0.784314%);fill-opacity:1;" d="M 976.800781 520.800781 C 1062.902344 531.695312 1120.503906 578.09375 1149.601562 660 C 1156 698.398438 1156 736.800781 1149.601562 775.199219 C 1104.714844 888.253906 1021.511719 933.855469 900 912 C 838.609375 888.210938 795.40625 845.808594 770.398438 784.800781 C 759.421875 743.730469 757.824219 702.128906 765.601562 660 C 771.511719 639.707031 780.3125 620.503906 792 602.398438 C 808.800781 585.601562 825.601562 568.800781 842.398438 552 C 859.839844 539.28125 879.039062 530.480469 900 525.601562 C 925.597656 524 951.203125 522.398438 976.800781 520.800781 Z M 976.800781 520.800781 "/>
<path style=" stroke:none;fill-rule:evenodd;fill:rgb(28.235294%,28.235294%,28.235294%);fill-opacity:1;" d="M 588 564 C 580 560.796875 572 557.601562 564 554.398438 C 562.171875 547.53125 557.371094 543.53125 549.601562 542.398438 C 532.070312 540.003906 514.472656 539.207031 496.800781 540 C 497.332031 537.039062 498.929688 534.636719 501.601562 532.800781 C 522.582031 528.824219 543.382812 529.628906 564 535.199219 C 574.316406 543.132812 582.316406 552.734375 588 564 Z M 588 564 "/>
<path style=" stroke:none;fill-rule:evenodd;fill:rgb(46.666667%,46.666667%,46.666667%);fill-opacity:1;" d="M 496.800781 540 C 514.472656 539.207031 532.070312 540.003906 549.601562 542.398438 C 557.371094 543.53125 562.171875 547.53125 564 554.398438 C 544.105469 545.519531 523.300781 543.121094 501.601562 547.199219 C 491.230469 551.980469 483.230469 559.179688 477.601562 568.800781 C 473.941406 577.257812 467.542969 582.058594 458.398438 583.199219 C 464.074219 572.09375 470.472656 560.890625 477.601562 549.601562 C 482.984375 544.175781 489.390625 540.972656 496.800781 540 Z M 496.800781 540 "/>
<path style=" stroke:none;fill-rule:evenodd;fill:rgb(97.647059%,97.647059%,97.647059%);fill-opacity:1;" d="M 592.800781 645.601562 C 584.113281 658.027344 572.914062 668.429688 559.199219 676.800781 C 532.242188 685.234375 505.042969 686.03125 477.601562 679.199219 C 467.800781 668.425781 460.601562 655.621094 456 640.800781 C 453.609375 624.878906 452.808594 608.878906 453.601562 592.800781 C 457.625 591.160156 459.222656 587.960938 458.398438 583.199219 C 467.542969 582.058594 473.941406 577.257812 477.601562 568.800781 C 551.09375 543.207031 589.492188 568.804688 592.800781 645.601562 Z M 592.800781 645.601562 "/>
<path style=" stroke:none;fill-rule:evenodd;fill:rgb(67.058824%,67.058824%,67.058824%);fill-opacity:1;" d="M 564 554.398438 C 572 557.601562 580 560.796875 588 564 C 592.023438 565.640625 593.625 568.839844 592.800781 573.601562 C 598.804688 598.230469 598.804688 622.230469 592.800781 645.601562 C 589.492188 568.804688 551.09375 543.207031 477.601562 568.800781 C 483.230469 559.179688 491.230469 551.980469 501.601562 547.199219 C 523.300781 543.121094 544.105469 545.519531 564 554.398438 Z M 564 554.398438 "/>
<path style=" stroke:none;fill-rule:evenodd;fill:rgb(51.372549%,51.372549%,50.980392%);fill-opacity:1;" d="M 1245.601562 564 C 1252.347656 566.269531 1255.550781 571.070312 1255.199219 578.398438 C 1248.453125 576.128906 1245.25 571.328125 1245.601562 564 Z M 1245.601562 564 "/>
<path style=" stroke:none;fill-rule:evenodd;fill:rgb(51.764706%,51.764706%,51.372549%);fill-opacity:1;" d="M 1269.601562 616.800781 C 1276.433594 626.472656 1279.632812 637.671875 1279.199219 650.398438 C 1272.363281 640.726562 1269.167969 629.53125 1269.601562 616.800781 Z M 1269.601562 616.800781 "/>
<path style=" stroke:none;fill-rule:evenodd;fill:rgb(33.333333%,33.333333%,33.333333%);fill-opacity:1;" d="M 592.800781 573.601562 C 604.292969 582.394531 609.089844 594.394531 607.199219 609.601562 C 608.660156 649.628906 592.660156 679.230469 559.199219 698.398438 C 559.199219 695.199219 559.199219 692 559.199219 688.800781 C 564.585938 681.855469 571.785156 677.054688 580.800781 674.398438 C 588.28125 666.160156 592.28125 656.558594 592.800781 645.601562 C 598.804688 622.230469 598.804688 598.230469 592.800781 573.601562 Z M 592.800781 573.601562 "/>
<path style=" stroke:none;fill-rule:evenodd;fill:rgb(40.784314%,40.784314%,40.784314%);fill-opacity:1;" d="M 640.800781 636 C 640.488281 650.054688 637.285156 662.855469 631.199219 674.398438 C 630.210938 660.023438 633.40625 647.222656 640.800781 636 Z M 640.800781 636 "/>
<path style=" stroke:none;fill-rule:evenodd;fill:rgb(22.352941%,22.352941%,22.352941%);fill-opacity:1;" d="M 448.800781 597.601562 C 448.003906 616.867188 448.804688 636.066406 451.199219 655.199219 C 459.382812 665.167969 464.984375 676.367188 468 688.800781 C 456.539062 685.347656 449.335938 677.351562 446.398438 664.800781 C 442.488281 641.511719 443.289062 619.109375 448.800781 597.601562 Z M 448.800781 597.601562 "/>
<path style=" stroke:none;fill-rule:evenodd;fill:rgb(70.980392%,70.980392%,70.980392%);fill-opacity:1;" d="M 592.800781 645.601562 C 592.28125 656.558594 588.28125 666.160156 580.800781 674.398438 C 571.785156 677.054688 564.585938 681.855469 559.199219 688.800781 C 547.210938 694.210938 534.414062 697.410156 520.800781 698.398438 C 502.691406 699.335938 488.289062 692.933594 477.601562 679.199219 C 505.042969 686.03125 532.242188 685.234375 559.199219 676.800781 C 572.914062 668.429688 584.113281 658.027344 592.800781 645.601562 Z M 592.800781 645.601562 "/>
<path style=" stroke:none;fill-rule:evenodd;fill:rgb(45.882353%,45.882353%,45.882353%);fill-opacity:1;" d="M 453.601562 592.800781 C 452.808594 608.878906 453.609375 624.878906 456 640.800781 C 460.601562 655.621094 467.800781 668.425781 477.601562 679.199219 C 488.289062 692.933594 502.691406 699.335938 520.800781 698.398438 C 534.414062 697.410156 547.210938 694.210938 559.199219 688.800781 C 559.199219 692 559.199219 695.199219 559.199219 698.398438 C 556 698.398438 554.398438 700 554.398438 703.199219 C 530.175781 703.980469 506.175781 702.378906 482.398438 698.398438 C 475.070312 698.75 470.269531 695.546875 468 688.800781 C 464.984375 676.367188 459.382812 665.167969 451.199219 655.199219 C 448.804688 636.066406 448.003906 616.867188 448.800781 597.601562 C 448.800781 594.398438 450.398438 592.800781 453.601562 592.800781 Z M 453.601562 592.800781 "/>
<path style=" stroke:none;fill-rule:evenodd;fill:rgb(26.666667%,26.666667%,26.666667%);fill-opacity:1;" d="M 482.398438 698.398438 C 506.175781 702.378906 530.175781 703.980469 554.398438 703.199219 C 544.15625 710.558594 532.15625 713.761719 518.398438 712.800781 C 509.601562 712 500.796875 711.203125 492 710.398438 C 485.972656 708.398438 482.769531 704.398438 482.398438 698.398438 Z M 482.398438 698.398438 "/>
<path style=" stroke:none;fill-rule:evenodd;fill:rgb(49.803922%,49.803922%,49.803922%);fill-opacity:1;" d="M 1149.601562 660 C 1157.0625 677.773438 1160.265625 696.972656 1159.199219 717.601562 C 1160.265625 738.226562 1157.0625 757.425781 1149.601562 775.199219 C 1156 736.800781 1156 698.398438 1149.601562 660 Z M 1149.601562 660 "/>
<path style=" stroke:none;fill-rule:evenodd;fill:rgb(53.72549%,53.72549%,53.72549%);fill-opacity:1;" d="M 765.601562 660 C 757.824219 702.128906 759.421875 743.730469 770.398438 784.800781 C 763.363281 780.734375 759.359375 774.335938 758.398438 765.601562 C 755.199219 735.203125 755.199219 704.796875 758.398438 674.398438 C 759.511719 668.460938 761.914062 663.664062 765.601562 660 Z M 765.601562 660 "/>
<path style=" stroke:none;fill-rule:evenodd;fill:rgb(20.784314%,20.784314%,20.784314%);fill-opacity:1;" d="M 1432.800781 732 C 1400.816406 723.519531 1370.417969 726.714844 1341.601562 741.601562 C 1346.175781 731.472656 1354.171875 725.871094 1365.601562 724.800781 C 1384.800781 721.597656 1404 721.597656 1423.199219 724.800781 C 1427.597656 726.132812 1430.792969 728.535156 1432.800781 732 Z M 1432.800781 732 "/>
<path style=" stroke:none;fill-rule:evenodd;fill:rgb(42.745098%,42.745098%,42.745098%);fill-opacity:1;" d="M 1432.800781 732 C 1442.199219 747.800781 1453.398438 762.203125 1466.398438 775.199219 C 1467.195312 799.253906 1466.394531 823.253906 1464 847.199219 C 1462.160156 849.867188 1459.761719 851.46875 1456.800781 852 C 1458.398438 845.601562 1460 839.199219 1461.601562 832.800781 C 1461.601562 823.199219 1461.601562 813.601562 1461.601562 804 C 1462.472656 793.964844 1460.871094 784.363281 1456.800781 775.199219 C 1442.398438 763.199219 1428 751.199219 1413.601562 739.199219 C 1377 734.027344 1348.199219 746.027344 1327.199219 775.199219 C 1321.296875 783.824219 1318.097656 793.425781 1317.601562 804 C 1316 804 1314.398438 804 1312.800781 804 C 1313.480469 778.664062 1323.082031 757.863281 1341.601562 741.601562 C 1370.417969 726.714844 1400.816406 723.519531 1432.800781 732 Z M 1432.800781 732 "/>
<path style=" stroke:none;fill-rule:evenodd;fill:rgb(21.960784%,21.960784%,21.960784%);fill-opacity:1;" d="M 1432.800781 732 C 1449.390625 742.191406 1460.585938 756.589844 1466.398438 775.199219 C 1453.398438 762.203125 1442.199219 747.800781 1432.800781 732 Z M 1432.800781 732 "/>
<path style=" stroke:none;fill-rule:evenodd;fill:rgb(68.627451%,68.627451%,68.627451%);fill-opacity:1;" d="M 1461.601562 804 C 1441.40625 758.480469 1406.203125 741.679688 1356 753.601562 C 1348.253906 763.808594 1338.652344 771.007812 1327.199219 775.199219 C 1348.199219 746.027344 1377 734.027344 1413.601562 739.199219 C 1428 751.199219 1442.398438 763.199219 1456.800781 775.199219 C 1460.871094 784.363281 1462.472656 793.964844 1461.601562 804 Z M 1461.601562 804 "/>
<path style=" stroke:none;fill-rule:evenodd;fill:rgb(98.039216%,98.039216%,98.039216%);fill-opacity:1;" d="M 1461.601562 804 C 1461.601562 813.601562 1461.601562 823.199219 1461.601562 832.800781 C 1425.855469 881.773438 1383.453125 888.171875 1334.398438 852 C 1322.730469 838 1317.128906 822 1317.601562 804 C 1318.097656 793.425781 1321.296875 783.824219 1327.199219 775.199219 C 1338.652344 771.007812 1348.253906 763.808594 1356 753.601562 C 1406.203125 741.679688 1441.40625 758.480469 1461.601562 804 Z M 1461.601562 804 "/>
<path style=" stroke:none;fill-rule:evenodd;fill:rgb(69.019608%,69.019608%,69.019608%);fill-opacity:1;" d="M 1312.800781 804 C 1314.398438 804 1316 804 1317.601562 804 C 1317.128906 822 1322.730469 838 1334.398438 852 C 1383.453125 888.171875 1425.855469 881.773438 1461.601562 832.800781 C 1460 839.199219 1458.398438 845.601562 1456.800781 852 C 1447.40625 861.558594 1437.804688 871.15625 1428 880.800781 C 1388.980469 891.277344 1353.78125 884.875 1322.398438 861.601562 C 1313.992188 843.710938 1310.789062 824.511719 1312.800781 804 Z M 1312.800781 804 "/>
<path style=" stroke:none;fill-rule:evenodd;fill:rgb(28.627451%,28.627451%,28.627451%);fill-opacity:1;" d="M 1456.800781 852 C 1446.546875 890.289062 1420.949219 907.886719 1380 904.800781 C 1372 904 1364 903.203125 1356 902.398438 C 1349.972656 900.398438 1346.769531 896.398438 1346.398438 890.398438 C 1368.621094 895.109375 1391.019531 895.910156 1413.601562 892.800781 C 1421.371094 891.667969 1426.171875 887.667969 1428 880.800781 C 1437.804688 871.15625 1447.40625 861.558594 1456.800781 852 Z M 1456.800781 852 "/>
<path style=" stroke:none;fill-rule:evenodd;fill:rgb(45.882353%,45.882353%,45.882353%);fill-opacity:1;" d="M 1322.398438 861.601562 C 1353.78125 884.875 1388.980469 891.277344 1428 880.800781 C 1426.171875 887.667969 1421.371094 891.667969 1413.601562 892.800781 C 1391.019531 895.910156 1368.621094 895.109375 1346.398438 890.398438 C 1333.886719 884.582031 1325.886719 874.980469 1322.398438 861.601562 Z M 1322.398438 861.601562 "/>
<path style=" stroke:none;fill-rule:evenodd;fill:rgb(69.019608%,69.019608%,69.019608%);fill-opacity:1;" d="M 808.800781 1010.398438 C 820.308594 1009.242188 829.910156 1012.445312 837.601562 1020 C 826.089844 1021.15625 816.488281 1017.957031 808.800781 1010.398438 Z M 808.800781 1010.398438 "/>
<path style=" stroke:none;fill-rule:evenodd;fill:rgb(36.470588%,36.470588%,36.470588%);fill-opacity:1;" d="M 1092 1015.199219 C 1084.640625 1023.574219 1075.042969 1028.375 1063.199219 1029.601562 C 1070.558594 1021.222656 1080.160156 1016.425781 1092 1015.199219 Z M 1092 1015.199219 "/>
</g>
</svg>
