<?xml version="1.0" encoding="UTF-8"?>
<svg xmlns="http://www.w3.org/2000/svg" xmlns:xlink="http://www.w3.org/1999/xlink" width="1920pt" height="1440pt" viewBox="0 0 1920 1440" version="1.1">
<g id="surface1">
<path style=" stroke:none;fill-rule:evenodd;fill:rgb(0%,0%,0%);fill-opacity:1;" d="M -2.398438 -2.398438 C 637.597656 -2.398438 1277.601562 -2.398438 1917.601562 -2.398438 C 1917.601562 477.601562 1917.601562 957.601562 1917.601562 1437.601562 C 1277.601562 1437.601562 637.597656 1437.601562 -2.398438 1437.601562 C -2.398438 957.601562 -2.398438 477.601562 -2.398438 -2.398438 Z M -2.398438 -2.398438 "/>
<path style=" stroke:none;fill-rule:evenodd;fill:rgb(29.019608%,29.019608%,29.019608%);fill-opacity:1;" d="M 708 261.601562 C 731.546875 255.128906 755.546875 255.929688 780 264 C 790.992188 272.53125 798.992188 282.929688 804 295.199219 C 795.621094 286.792969 786.019531 280.390625 775.199219 276 C 770.742188 272.089844 765.941406 268.089844 760.800781 264 C 743.269531 261.605469 725.671875 260.804688 708 261.601562 Z M 708 261.601562 "/>
<path style=" stroke:none;fill-rule:evenodd;fill:rgb(97.647059%,97.647059%,97.647059%);fill-opacity:1;" d="M 746.398438 280.800781 C 766.820312 286.007812 780.417969 298.808594 787.199219 319.199219 C 789.589844 335.121094 790.390625 351.121094 789.601562 367.199219 C 789.601562 372 789.601562 376.800781 789.601562 381.601562 C 779.761719 391.429688 768.5625 399.425781 756 405.601562 C 739.691406 407.136719 723.6875 405.539062 708 400.800781 C 696.699219 385.496094 683.097656 372.699219 667.199219 362.398438 C 656.535156 297.074219 682.933594 269.875 746.398438 280.800781 Z M 746.398438 280.800781 "/>
<path style=" stroke:none;fill-rule:evenodd;fill:rgb(64.705882%,64.705882%,64.705882%);fill-opacity:1;" d="M 708 261.601562 C 725.671875 260.804688 743.269531 261.605469 760.800781 264 C 765.941406 268.089844 770.742188 272.089844 775.199219 276 C 797.644531 300.3125 804.84375 329.113281 796.800781 362.398438 C 794.960938 365.070312 792.5625 366.667969 789.601562 367.199219 C 790.390625 351.121094 789.589844 335.121094 787.199219 319.199219 C 780.417969 298.808594 766.820312 286.007812 746.398438 280.800781 C 744.394531 277.335938 741.195312 274.9375 736.800781 273.601562 C 722.488281 271.210938 708.085938 270.410156 693.601562 271.199219 C 695.871094 264.449219 700.671875 261.25 708 261.601562 Z M 708 261.601562 "/>
<path style=" stroke:none;fill-rule:evenodd;fill:rgb(78.039216%,78.039216%,78.039216%);fill-opacity:1;" d="M 693.601562 271.199219 C 708.085938 270.410156 722.488281 271.210938 736.800781 273.601562 C 741.195312 274.9375 744.394531 277.335938 746.398438 280.800781 C 682.933594 269.875 656.535156 297.074219 667.199219 362.398438 C 683.097656 372.699219 696.699219 385.496094 708 400.800781 C 723.6875 405.539062 739.691406 407.136719 756 405.601562 C 756 408.800781 754.402344 410.398438 751.199219 410.398438 C 681.78125 415.382812 650.582031 383.382812 657.601562 314.398438 C 661.9375 301.28125 669.140625 290.078125 679.199219 280.800781 C 681.46875 274.050781 686.269531 270.847656 693.601562 271.199219 Z M 693.601562 271.199219 "/>
<path style=" stroke:none;fill-rule:evenodd;fill:rgb(43.921569%,43.921569%,43.921569%);fill-opacity:1;" d="M 775.199219 276 C 786.019531 280.390625 795.621094 286.792969 804 295.199219 C 810.992188 322.886719 809.390625 350.085938 799.199219 376.800781 C 796 378.398438 792.800781 380 789.601562 381.601562 C 789.601562 376.800781 789.601562 372 789.601562 367.199219 C 792.5625 366.667969 794.960938 365.070312 796.800781 362.398438 C 804.84375 329.113281 797.644531 300.3125 775.199219 276 Z M 775.199219 276 "/>
<path style=" stroke:none;fill-rule:evenodd;fill:rgb(24.313725%,24.313725%,24.313725%);fill-opacity:1;" d="M 804 295.199219 C 807.121094 296.660156 810.320312 298.257812 813.601562 300 C 823.09375 329.257812 818.292969 354.855469 799.199219 376.800781 C 809.390625 350.085938 810.992188 322.886719 804 295.199219 Z M 804 295.199219 "/>
<path style=" stroke:none;fill-rule:evenodd;fill:rgb(53.333333%,53.333333%,53.333333%);fill-opacity:1;" d="M 679.199219 280.800781 C 669.140625 290.078125 661.9375 301.28125 657.601562 314.398438 C 650.582031 383.382812 681.78125 415.382812 751.199219 410.398438 C 751.199219 413.601562 749.601562 415.199219 746.398438 415.199219 C 658.660156 421.878906 628.261719 383.480469 655.199219 300 C 660.40625 289.984375 668.40625 283.582031 679.199219 280.800781 Z M 679.199219 280.800781 "/>
<path style=" stroke:none;fill-rule:evenodd;fill:rgb(44.705882%,44.705882%,44.705882%);fill-opacity:1;" d="M 991.199219 396 C 952.410156 395.113281 914.011719 398.3125 876 405.601562 C 887.09375 398.074219 899.894531 394.074219 914.398438 393.601562 C 940.875 389.675781 966.480469 390.476562 991.199219 396 Z M 991.199219 396 "/>
<path style=" stroke:none;fill-rule:evenodd;fill:rgb(30.980392%,30.980392%,30.980392%);fill-opacity:1;" d="M 655.199219 300 C 628.261719 383.480469 658.660156 421.878906 746.398438 415.199219 C 708.667969 430.675781 675.867188 422.679688 648 391.199219 C 636.476562 368.488281 633.273438 344.488281 638.398438 319.199219 C 641.566406 310.445312 647.167969 304.046875 655.199219 300 Z M 655.199219 300 "/>
<path style=" stroke:none;fill-rule:evenodd;fill:rgb(97.647059%,97.647059%,97.647059%);fill-opacity:1;" d="M 991.199219 396 C 1003.808594 398.839844 1016.609375 400.441406 1029.601562 400.800781 C 1044.023438 409.328125 1060.023438 414.128906 1077.601562 415.199219 C 1155.296875 448.089844 1212.898438 502.488281 1250.398438 578.398438 C 1248.796875 592.757812 1253.597656 603.957031 1264.800781 612 C 1268.730469 622.90625 1271.929688 634.109375 1274.398438 645.601562 C 1277.367188 680.722656 1278.964844 715.925781 1279.199219 751.199219 C 1276.359375 763.808594 1274.761719 776.609375 1274.398438 789.601562 C 1265.871094 804.023438 1261.070312 820.023438 1260 837.601562 C 1208.230469 951.714844 1120.230469 1018.914062 996 1039.199219 C 959.121094 1039.089844 922.320312 1037.488281 885.601562 1034.398438 C 874.109375 1031.929688 862.90625 1028.730469 852 1024.800781 C 843.957031 1013.597656 832.757812 1008.796875 818.398438 1010.398438 C 742.488281 972.898438 688.089844 915.296875 655.199219 837.601562 C 654.128906 820.023438 649.328125 804.023438 640.800781 789.601562 C 641.050781 778.066406 639.453125 766.867188 636 756 C 636.109375 719.121094 637.714844 682.320312 640.800781 645.601562 C 643.273438 634.109375 646.46875 622.90625 650.398438 612 C 661.601562 603.957031 666.402344 592.757812 664.800781 578.398438 C 707.933594 487.253906 778.328125 429.652344 876 405.601562 C 914.011719 398.3125 952.410156 395.113281 991.199219 396 Z M 991.199219 396 "/>
<path style=" stroke:none;fill-rule:evenodd;fill:rgb(34.117647%,34.117647%,34.117647%);fill-opacity:1;" d="M 1029.601562 400.800781 C 1047.175781 401.871094 1063.175781 406.671875 1077.601562 415.199219 C 1060.023438 414.128906 1044.023438 409.328125 1029.601562 400.800781 Z M 1029.601562 400.800781 "/>
<path style=" stroke:none;fill-rule:evenodd;fill:rgb(0.784314%,0.784314%,0.784314%);fill-opacity:1;" d="M 1005.601562 496.800781 C 1013.828125 502.742188 1023.425781 505.945312 1034.398438 506.398438 C 1097.957031 529.953125 1142.761719 573.152344 1168.800781 636 C 1167.644531 647.511719 1170.84375 657.109375 1178.398438 664.800781 C 1184.539062 698.375 1184.539062 731.976562 1178.398438 765.601562 C 1172.457031 773.828125 1169.257812 783.425781 1168.800781 794.398438 C 1128.636719 890.945312 1055.835938 940.550781 950.398438 943.199219 C 850.921875 936.300781 782.917969 886.699219 746.398438 794.398438 C 745.945312 783.425781 742.742188 773.828125 736.800781 765.601562 C 730.660156 731.976562 730.660156 698.375 736.800781 664.800781 C 744.355469 657.109375 747.558594 647.511719 746.398438 636 C 772 575.199219 815.199219 532 876 506.398438 C 887.511719 507.558594 897.109375 504.355469 904.800781 496.800781 C 938.375 490.660156 971.976562 490.660156 1005.601562 496.800781 Z M 1005.601562 496.800781 "/>
<path style=" stroke:none;fill-rule:evenodd;fill:rgb(47.45098%,47.45098%,47.45098%);fill-opacity:1;" d="M 1005.601562 496.800781 C 1017.109375 495.644531 1026.710938 498.84375 1034.398438 506.398438 C 1023.425781 505.945312 1013.828125 502.742188 1005.601562 496.800781 Z M 1005.601562 496.800781 "/>
<path style=" stroke:none;fill-rule:evenodd;fill:rgb(39.215686%,39.215686%,39.215686%);fill-opacity:1;" d="M 904.800781 496.800781 C 897.109375 504.355469 887.511719 507.558594 876 506.398438 C 883.691406 498.84375 893.289062 495.644531 904.800781 496.800781 Z M 904.800781 496.800781 "/>
<path style=" stroke:none;fill-rule:evenodd;fill:rgb(65.098039%,65.098039%,65.098039%);fill-opacity:1;" d="M 664.800781 578.398438 C 666.402344 592.757812 661.601562 603.957031 650.398438 612 C 652.488281 599.246094 657.289062 588.042969 664.800781 578.398438 Z M 664.800781 578.398438 "/>
<path style=" stroke:none;fill-rule:evenodd;fill:rgb(65.098039%,65.098039%,65.098039%);fill-opacity:1;" d="M 1250.398438 578.398438 C 1257.910156 588.042969 1262.710938 599.246094 1264.800781 612 C 1253.597656 603.957031 1248.796875 592.757812 1250.398438 578.398438 Z M 1250.398438 578.398438 "/>
<path style=" stroke:none;fill-rule:evenodd;fill:rgb(47.843137%,47.843137%,47.843137%);fill-opacity:1;" d="M 746.398438 636 C 747.558594 647.511719 744.355469 657.109375 736.800781 664.800781 C 735.644531 653.289062 738.84375 643.691406 746.398438 636 Z M 746.398438 636 "/>
<path style=" stroke:none;fill-rule:evenodd;fill:rgb(47.843137%,47.843137%,47.843137%);fill-opacity:1;" d="M 1168.800781 636 C 1176.355469 643.691406 1179.558594 653.289062 1178.398438 664.800781 C 1170.84375 657.109375 1167.644531 647.511719 1168.800781 636 Z M 1168.800781 636 "/>
<path style=" stroke:none;fill-rule:evenodd;fill:rgb(41.960784%,41.960784%,41.568627%);fill-opacity:1;" d="M 640.800781 645.601562 C 637.714844 682.320312 636.109375 719.121094 636 756 C 632.8125 743.300781 631.210938 729.699219 631.199219 715.199219 C 630.742188 690.820312 633.945312 667.621094 640.800781 645.601562 Z M 640.800781 645.601562 "/>
<path style=" stroke:none;fill-rule:evenodd;fill:rgb(42.745098%,42.745098%,42.745098%);fill-opacity:1;" d="M 1274.398438 645.601562 C 1281.175781 666.820312 1284.378906 689.222656 1284 712.800781 C 1283.984375 726.503906 1282.386719 739.304688 1279.199219 751.199219 C 1278.964844 715.925781 1277.367188 680.722656 1274.398438 645.601562 Z M 1274.398438 645.601562 "/>
<path style=" stroke:none;fill-rule:evenodd;fill:rgb(47.45098%,47.45098%,47.45098%);fill-opacity:1;" d="M 736.800781 765.601562 C 742.742188 773.828125 745.945312 783.425781 746.398438 794.398438 C 738.84375 786.710938 735.644531 777.109375 736.800781 765.601562 Z M 736.800781 765.601562 "/>
<path style=" stroke:none;fill-rule:evenodd;fill:rgb(47.45098%,47.45098%,47.45098%);fill-opacity:1;" d="M 1178.398438 765.601562 C 1179.558594 777.109375 1176.355469 786.710938 1168.800781 794.398438 C 1169.257812 783.425781 1172.457031 773.828125 1178.398438 765.601562 Z M 1178.398438 765.601562 "/>
<path style=" stroke:none;fill-rule:evenodd;fill:rgb(34.117647%,34.117647%,34.117647%);fill-opacity:1;" d="M 640.800781 789.601562 C 649.328125 804.023438 654.128906 820.023438 655.199219 837.601562 C 646.671875 823.175781 641.871094 807.175781 640.800781 789.601562 Z M 640.800781 789.601562 "/>
<path style=" stroke:none;fill-rule:evenodd;fill:rgb(34.117647%,34.117647%,34.117647%);fill-opacity:1;" d="M 1274.398438 789.601562 C 1273.328125 807.175781 1268.53125 823.175781 1260 837.601562 C 1261.070312 820.023438 1265.871094 804.023438 1274.398438 789.601562 Z M 1274.398438 789.601562 "/>
<path style=" stroke:none;fill-rule:evenodd;fill:rgb(65.098039%,65.098039%,65.098039%);fill-opacity:1;" d="M 818.398438 1010.398438 C 832.757812 1008.796875 843.957031 1013.597656 852 1024.800781 C 839.246094 1022.710938 828.042969 1017.910156 818.398438 1010.398438 Z M 818.398438 1010.398438 "/>
<path style=" stroke:none;fill-rule:evenodd;fill:rgb(68.235294%,68.235294%,68.235294%);fill-opacity:1;" d="M 1168.800781 1020 C 1187.9375 1018.964844 1206.335938 1022.164062 1224 1029.601562 C 1232.285156 1040.273438 1242.679688 1048.277344 1255.199219 1053.601562 C 1266.078125 1080.152344 1267.675781 1107.355469 1260 1135.199219 C 1252 1141.597656 1244 1148 1236 1154.398438 C 1238.363281 1143.164062 1243.964844 1133.5625 1252.800781 1125.601562 C 1256.894531 1048.753906 1220.894531 1018.347656 1144.800781 1034.398438 C 1150.363281 1026 1158.363281 1021.199219 1168.800781 1020 Z M 1168.800781 1020 "/>
<path style=" stroke:none;fill-rule:evenodd;fill:rgb(34.117647%,34.117647%,34.117647%);fill-opacity:1;" d="M 1260 1135.199219 C 1267.675781 1107.355469 1266.078125 1080.152344 1255.199219 1053.601562 C 1242.679688 1048.277344 1232.285156 1040.273438 1224 1029.601562 C 1206.335938 1022.164062 1187.9375 1018.964844 1168.800781 1020 C 1169.332031 1017.039062 1170.929688 1014.636719 1173.601562 1012.800781 C 1194.398438 1009.597656 1215.203125 1009.597656 1236 1012.800781 C 1243.441406 1024.921875 1253.839844 1033.722656 1267.199219 1039.199219 C 1285.644531 1073.605469 1283.246094 1105.609375 1260 1135.199219 Z M 1260 1135.199219 "/>
<path style=" stroke:none;fill-rule:evenodd;fill:rgb(97.647059%,97.647059%,97.647059%);fill-opacity:1;" d="M 1236 1154.398438 C 1234.402344 1154.398438 1232.796875 1154.398438 1231.199219 1154.398438 C 1144.820312 1170.898438 1112.816406 1135.699219 1135.199219 1048.800781 C 1138.402344 1044 1141.597656 1039.199219 1144.800781 1034.398438 C 1220.894531 1018.347656 1256.894531 1048.753906 1252.800781 1125.601562 C 1243.964844 1133.5625 1238.363281 1143.164062 1236 1154.398438 Z M 1236 1154.398438 "/>
<path style=" stroke:none;fill-rule:evenodd;fill:rgb(42.352941%,42.352941%,42.352941%);fill-opacity:1;" d="M 885.601562 1034.398438 C 922.320312 1037.488281 959.121094 1039.089844 996 1039.199219 C 983.300781 1042.386719 969.699219 1043.992188 955.199219 1044 C 930.820312 1044.457031 907.621094 1041.253906 885.601562 1034.398438 Z M 885.601562 1034.398438 "/>
<path style=" stroke:none;fill-rule:evenodd;fill:rgb(46.666667%,46.666667%,46.666667%);fill-opacity:1;" d="M 1144.800781 1034.398438 C 1141.597656 1039.199219 1138.402344 1044 1135.199219 1048.800781 C 1123.527344 1061.433594 1117.125 1076.636719 1116 1094.398438 C 1119.441406 1120.191406 1129.042969 1143.390625 1144.800781 1164 C 1136.796875 1160.796875 1128.800781 1157.601562 1120.800781 1154.398438 C 1104.105469 1122.859375 1102.503906 1090.859375 1116 1058.398438 C 1122.773438 1046.8125 1132.371094 1038.8125 1144.800781 1034.398438 Z M 1144.800781 1034.398438 "/>
<path style=" stroke:none;fill-rule:evenodd;fill:rgb(20%,20%,20%);fill-opacity:1;" d="M 1116 1058.398438 C 1102.503906 1090.859375 1104.105469 1122.859375 1120.800781 1154.398438 C 1113.519531 1154.347656 1107.917969 1151.152344 1104 1144.800781 C 1094.742188 1119.125 1094.742188 1093.527344 1104 1068 C 1107.398438 1063.769531 1111.402344 1060.574219 1116 1058.398438 Z M 1116 1058.398438 "/>
<path style=" stroke:none;fill-rule:evenodd;fill:rgb(69.019608%,69.019608%,69.019608%);fill-opacity:1;" d="M 1135.199219 1048.800781 C 1112.816406 1135.699219 1144.820312 1170.898438 1231.199219 1154.398438 C 1224.078125 1161.957031 1216.074219 1168.355469 1207.199219 1173.601562 C 1185.574219 1174.699219 1164.773438 1171.503906 1144.800781 1164 C 1129.042969 1143.390625 1119.441406 1120.191406 1116 1094.398438 C 1117.125 1076.636719 1123.527344 1061.433594 1135.199219 1048.800781 Z M 1135.199219 1048.800781 "/>
<path style=" stroke:none;fill-rule:evenodd;fill:rgb(29.803922%,29.803922%,29.803922%);fill-opacity:1;" d="M 1120.800781 1154.398438 C 1128.800781 1157.601562 1136.796875 1160.796875 1144.800781 1164 C 1164.773438 1171.503906 1185.574219 1174.699219 1207.199219 1173.601562 C 1182.054688 1180.128906 1156.453125 1179.328125 1130.398438 1171.199219 C 1126.535156 1165.859375 1123.335938 1160.261719 1120.800781 1154.398438 Z M 1120.800781 1154.398438 "/>
</g>
</svg>
