<?xml version="1.0" encoding="UTF-8"?>
<svg xmlns="http://www.w3.org/2000/svg" xmlns:xlink="http://www.w3.org/1999/xlink" width="1920pt" height="1440pt" viewBox="0 0 1920 1440" version="1.1">
<g id="surface1">
<path style=" stroke:none;fill-rule:evenodd;fill:rgb(0%,0%,0%);fill-opacity:1;" d="M -2.398438 -2.398438 C 637.597656 -2.398438 1277.601562 -2.398438 1917.601562 -2.398438 C 1917.601562 477.601562 1917.601562 957.601562 1917.601562 1437.601562 C 1277.601562 1437.601562 637.597656 1437.601562 -2.398438 1437.601562 C -2.398438 957.601562 -2.398438 477.601562 -2.398438 -2.398438 Z M -2.398438 -2.398438 "/>
<path style=" stroke:none;fill-rule:evenodd;fill:rgb(98.431373%,98.431373%,98.431373%);fill-opacity:1;" d="M 775.199219 391.199219 C 771.542969 399.660156 765.140625 404.460938 756 405.601562 C 686.839844 408.507812 657.246094 374.90625 667.199219 304.800781 C 674.308594 300.140625 678.3125 293.738281 679.199219 285.601562 C 679.199219 284 679.199219 282.398438 679.199219 280.800781 C 738.585938 264.832031 773.785156 286.429688 784.800781 345.601562 C 780.855469 360.675781 777.652344 375.875 775.199219 391.199219 Z M 775.199219 391.199219 "/>
<path style=" stroke:none;fill-rule:evenodd;fill:rgb(74.901961%,74.901961%,74.901961%);fill-opacity:1;" d="M 693.601562 271.199219 C 778.414062 264.707031 810.417969 301.507812 789.601562 381.601562 C 787.328125 388.351562 782.53125 391.550781 775.199219 391.199219 C 777.652344 375.875 780.855469 360.675781 784.800781 345.601562 C 773.785156 286.429688 738.585938 264.832031 679.199219 280.800781 C 681.46875 274.050781 686.269531 270.847656 693.601562 271.199219 Z M 693.601562 271.199219 "/>
<path style=" stroke:none;fill-rule:evenodd;fill:rgb(21.960784%,21.960784%,21.960784%);fill-opacity:1;" d="M 708 261.601562 C 748.246094 248.683594 782.648438 258.285156 811.199219 290.398438 C 818.5625 310.613281 820.160156 331.414062 816 352.800781 C 811.671875 362.066406 806.070312 370.066406 799.199219 376.800781 C 822.5 296.085938 792.097656 257.683594 708 261.601562 Z M 708 261.601562 "/>
<path style=" stroke:none;fill-rule:evenodd;fill:rgb(51.372549%,51.372549%,51.372549%);fill-opacity:1;" d="M 708 261.601562 C 792.097656 257.683594 822.5 296.085938 799.199219 376.800781 C 796 378.398438 792.800781 380 789.601562 381.601562 C 810.417969 301.507812 778.414062 264.707031 693.601562 271.199219 C 695.871094 264.449219 700.671875 261.25 708 261.601562 Z M 708 261.601562 "/>
<path style=" stroke:none;fill-rule:evenodd;fill:rgb(25.882353%,25.882353%,25.882353%);fill-opacity:1;" d="M 655.199219 300 C 640.808594 323.964844 637.609375 349.566406 645.601562 376.800781 C 642.636719 376.269531 640.238281 374.667969 638.398438 372 C 635.199219 354.398438 635.199219 336.800781 638.398438 319.199219 C 641.566406 310.445312 647.167969 304.046875 655.199219 300 Z M 655.199219 300 "/>
<path style=" stroke:none;fill-rule:evenodd;fill:rgb(50.196078%,50.196078%,50.196078%);fill-opacity:1;" d="M 679.199219 280.800781 C 679.199219 282.398438 679.199219 284 679.199219 285.601562 C 667.515625 291.703125 660.316406 301.300781 657.601562 314.398438 C 647.644531 385.648438 678.84375 417.648438 751.199219 410.398438 C 751.199219 413.601562 749.601562 415.199219 746.398438 415.199219 C 705.585938 423.535156 671.984375 412.335938 645.601562 381.601562 C 645.601562 380 645.601562 378.398438 645.601562 376.800781 C 637.609375 349.566406 640.808594 323.964844 655.199219 300 C 660.40625 289.984375 668.40625 283.582031 679.199219 280.800781 Z M 679.199219 280.800781 "/>
<path style=" stroke:none;fill-rule:evenodd;fill:rgb(74.117647%,74.117647%,74.117647%);fill-opacity:1;" d="M 679.199219 285.601562 C 678.3125 293.738281 674.308594 300.140625 667.199219 304.800781 C 657.246094 374.90625 686.839844 408.507812 756 405.601562 C 756 408.800781 754.402344 410.398438 751.199219 410.398438 C 678.84375 417.648438 647.644531 385.648438 657.601562 314.398438 C 660.316406 301.300781 667.515625 291.703125 679.199219 285.601562 Z M 679.199219 285.601562 "/>
<path style=" stroke:none;fill-rule:evenodd;fill:rgb(44.705882%,44.705882%,44.705882%);fill-opacity:1;" d="M 991.199219 396 C 952.410156 395.113281 914.011719 398.3125 876 405.601562 C 887.09375 398.074219 899.894531 394.074219 914.398438 393.601562 C 940.875 389.675781 966.480469 390.476562 991.199219 396 Z M 991.199219 396 "/>
<path style=" stroke:none;fill-rule:evenodd;fill:rgb(98.039216%,98.039216%,98.039216%);fill-opacity:1;" d="M 991.199219 396 C 1003.808594 398.839844 1016.609375 400.441406 1029.601562 400.800781 C 1044.023438 409.328125 1060.023438 414.128906 1077.601562 415.199219 C 1155.296875 448.089844 1212.898438 502.488281 1250.398438 578.398438 C 1248.796875 592.757812 1253.597656 603.957031 1264.800781 612 C 1268.730469 622.90625 1271.929688 634.109375 1274.398438 645.601562 C 1277.367188 680.722656 1278.964844 715.925781 1279.199219 751.199219 C 1276.359375 763.808594 1274.761719 776.609375 1274.398438 789.601562 C 1265.871094 804.023438 1261.070312 820.023438 1260 837.601562 C 1208.230469 951.714844 1120.230469 1018.914062 996 1039.199219 C 959.121094 1039.089844 922.320312 1037.488281 885.601562 1034.398438 C 874.109375 1031.929688 862.90625 1028.730469 852 1024.800781 C 843.957031 1013.597656 832.757812 1008.796875 818.398438 1010.398438 C 742.488281 972.898438 688.089844 915.296875 655.199219 837.601562 C 654.128906 820.023438 649.328125 804.023438 640.800781 789.601562 C 641.050781 778.066406 639.453125 766.867188 636 756 C 636.109375 719.121094 637.714844 682.320312 640.800781 645.601562 C 643.273438 634.109375 646.46875 622.90625 650.398438 612 C 661.601562 603.957031 666.402344 592.757812 664.800781 578.398438 C 707.933594 487.253906 778.328125 429.652344 876 405.601562 C 914.011719 398.3125 952.410156 395.113281 991.199219 396 Z M 991.199219 396 "/>
<path style=" stroke:none;fill-rule:evenodd;fill:rgb(34.117647%,34.117647%,34.117647%);fill-opacity:1;" d="M 1029.601562 400.800781 C 1047.175781 401.871094 1063.175781 406.671875 1077.601562 415.199219 C 1060.023438 414.128906 1044.023438 409.328125 1029.601562 400.800781 Z M 1029.601562 400.800781 "/>
<path style=" stroke:none;fill-rule:evenodd;fill:rgb(32.156863%,32.156863%,32.156863%);fill-opacity:1;" d="M 645.601562 381.601562 C 671.984375 412.335938 705.585938 423.535156 746.398438 415.199219 C 742.738281 418.886719 737.9375 421.285156 732 422.398438 C 689.554688 435.566406 660.753906 421.964844 645.601562 381.601562 Z M 645.601562 381.601562 "/>
<path style=" stroke:none;fill-rule:evenodd;fill:rgb(0.784314%,0.784314%,0.784314%);fill-opacity:1;" d="M 1005.601562 496.800781 C 1013.828125 502.742188 1023.425781 505.945312 1034.398438 506.398438 C 1097.957031 529.953125 1142.761719 573.152344 1168.800781 636 C 1167.644531 647.511719 1170.84375 657.109375 1178.398438 664.800781 C 1184.539062 698.375 1184.539062 731.976562 1178.398438 765.601562 C 1172.457031 773.828125 1169.257812 783.425781 1168.800781 794.398438 C 1142.886719 863.515625 1094.886719 909.917969 1024.800781 933.601562 C 986.660156 943.179688 948.257812 944.777344 909.601562 938.398438 C 908 938.398438 906.398438 938.398438 904.800781 938.398438 C 897.109375 930.84375 887.511719 927.644531 876 928.800781 C 813.171875 902.773438 769.972656 857.976562 746.398438 794.398438 C 745.945312 783.425781 742.742188 773.828125 736.800781 765.601562 C 736.800781 764 736.800781 762.398438 736.800781 760.800781 C 730.714844 730.425781 730.714844 700.027344 736.800781 669.601562 C 736.800781 668 736.800781 666.398438 736.800781 664.800781 C 744.355469 657.109375 747.558594 647.511719 746.398438 636 C 772 575.199219 815.199219 532 876 506.398438 C 887.511719 507.558594 897.109375 504.355469 904.800781 496.800781 C 938.375 490.660156 971.976562 490.660156 1005.601562 496.800781 Z M 1005.601562 496.800781 "/>
<path style=" stroke:none;fill-rule:evenodd;fill:rgb(47.45098%,47.45098%,47.45098%);fill-opacity:1;" d="M 1005.601562 496.800781 C 1017.109375 495.644531 1026.710938 498.84375 1034.398438 506.398438 C 1023.425781 505.945312 1013.828125 502.742188 1005.601562 496.800781 Z M 1005.601562 496.800781 "/>
<path style=" stroke:none;fill-rule:evenodd;fill:rgb(39.215686%,39.215686%,39.215686%);fill-opacity:1;" d="M 904.800781 496.800781 C 897.109375 504.355469 887.511719 507.558594 876 506.398438 C 883.691406 498.84375 893.289062 495.644531 904.800781 496.800781 Z M 904.800781 496.800781 "/>
<path style=" stroke:none;fill-rule:evenodd;fill:rgb(65.098039%,65.098039%,65.098039%);fill-opacity:1;" d="M 664.800781 578.398438 C 666.402344 592.757812 661.601562 603.957031 650.398438 612 C 652.488281 599.246094 657.289062 588.042969 664.800781 578.398438 Z M 664.800781 578.398438 "/>
<path style=" stroke:none;fill-rule:evenodd;fill:rgb(65.098039%,65.098039%,65.098039%);fill-opacity:1;" d="M 1250.398438 578.398438 C 1257.910156 588.042969 1262.710938 599.246094 1264.800781 612 C 1253.597656 603.957031 1248.796875 592.757812 1250.398438 578.398438 Z M 1250.398438 578.398438 "/>
<path style=" stroke:none;fill-rule:evenodd;fill:rgb(47.843137%,47.843137%,47.843137%);fill-opacity:1;" d="M 746.398438 636 C 747.558594 647.511719 744.355469 657.109375 736.800781 664.800781 C 735.644531 653.289062 738.84375 643.691406 746.398438 636 Z M 746.398438 636 "/>
<path style=" stroke:none;fill-rule:evenodd;fill:rgb(47.843137%,47.843137%,47.843137%);fill-opacity:1;" d="M 1168.800781 636 C 1176.355469 643.691406 1179.558594 653.289062 1178.398438 664.800781 C 1170.84375 657.109375 1167.644531 647.511719 1168.800781 636 Z M 1168.800781 636 "/>
<path style=" stroke:none;fill-rule:evenodd;fill:rgb(41.960784%,41.960784%,41.568627%);fill-opacity:1;" d="M 640.800781 645.601562 C 637.714844 682.320312 636.109375 719.121094 636 756 C 632.8125 743.300781 631.210938 729.699219 631.199219 715.199219 C 630.742188 690.820312 633.945312 667.621094 640.800781 645.601562 Z M 640.800781 645.601562 "/>
<path style=" stroke:none;fill-rule:evenodd;fill:rgb(42.745098%,42.745098%,42.745098%);fill-opacity:1;" d="M 1274.398438 645.601562 C 1281.175781 666.820312 1284.378906 689.222656 1284 712.800781 C 1283.984375 726.503906 1282.386719 739.304688 1279.199219 751.199219 C 1278.964844 715.925781 1277.367188 680.722656 1274.398438 645.601562 Z M 1274.398438 645.601562 "/>
<path style=" stroke:none;fill-rule:evenodd;fill:rgb(74.901961%,74.901961%,74.901961%);fill-opacity:1;" d="M 736.800781 669.601562 C 730.714844 700.027344 730.714844 730.425781 736.800781 760.800781 C 733.839844 760.265625 731.4375 758.667969 729.601562 756 C 728.796875 744 728 732 727.199219 720 C 726.257812 701.734375 729.457031 684.9375 736.800781 669.601562 Z M 736.800781 669.601562 "/>
<path style=" stroke:none;fill-rule:evenodd;fill:rgb(47.45098%,47.45098%,47.45098%);fill-opacity:1;" d="M 736.800781 765.601562 C 742.742188 773.828125 745.945312 783.425781 746.398438 794.398438 C 738.84375 786.710938 735.644531 777.109375 736.800781 765.601562 Z M 736.800781 765.601562 "/>
<path style=" stroke:none;fill-rule:evenodd;fill:rgb(47.45098%,47.45098%,47.45098%);fill-opacity:1;" d="M 1178.398438 765.601562 C 1179.558594 777.109375 1176.355469 786.710938 1168.800781 794.398438 C 1169.257812 783.425781 1172.457031 773.828125 1178.398438 765.601562 Z M 1178.398438 765.601562 "/>
<path style=" stroke:none;fill-rule:evenodd;fill:rgb(34.117647%,34.117647%,34.117647%);fill-opacity:1;" d="M 640.800781 789.601562 C 649.328125 804.023438 654.128906 820.023438 655.199219 837.601562 C 646.671875 823.175781 641.871094 807.175781 640.800781 789.601562 Z M 640.800781 789.601562 "/>
<path style=" stroke:none;fill-rule:evenodd;fill:rgb(34.117647%,34.117647%,34.117647%);fill-opacity:1;" d="M 1274.398438 789.601562 C 1273.328125 807.175781 1268.53125 823.175781 1260 837.601562 C 1261.070312 820.023438 1265.871094 804.023438 1274.398438 789.601562 Z M 1274.398438 789.601562 "/>
<path style=" stroke:none;fill-rule:evenodd;fill:rgb(47.843137%,47.843137%,47.843137%);fill-opacity:1;" d="M 876 928.800781 C 887.511719 927.644531 897.109375 930.84375 904.800781 938.398438 C 893.289062 939.558594 883.691406 936.355469 876 928.800781 Z M 876 928.800781 "/>
<path style=" stroke:none;fill-rule:evenodd;fill:rgb(79.607843%,79.607843%,79.607843%);fill-opacity:1;" d="M 1024.800781 933.601562 C 1024.265625 936.5625 1022.667969 938.960938 1020 940.800781 C 986.667969 947.785156 953.070312 949.382812 919.199219 945.601562 C 914.804688 944.265625 911.605469 941.867188 909.601562 938.398438 C 948.257812 944.777344 986.660156 943.179688 1024.800781 933.601562 Z M 1024.800781 933.601562 "/>
<path style=" stroke:none;fill-rule:evenodd;fill:rgb(65.098039%,65.098039%,65.098039%);fill-opacity:1;" d="M 818.398438 1010.398438 C 832.757812 1008.796875 843.957031 1013.597656 852 1024.800781 C 839.246094 1022.710938 828.042969 1017.910156 818.398438 1010.398438 Z M 818.398438 1010.398438 "/>
<path style=" stroke:none;fill-rule:evenodd;fill:rgb(98.431373%,98.431373%,98.431373%);fill-opacity:1;" d="M 1144.800781 1034.398438 C 1167.679688 1032.917969 1190.082031 1035.316406 1212 1041.601562 C 1223.554688 1052.566406 1235.554688 1062.964844 1248 1072.800781 C 1251.878906 1082.03125 1254.277344 1091.628906 1255.199219 1101.601562 C 1252.496094 1120.9375 1246.097656 1138.539062 1236 1154.398438 C 1232.796875 1156 1229.601562 1157.601562 1226.398438 1159.199219 C 1197.675781 1157.058594 1169.679688 1150.660156 1142.398438 1140 C 1129.117188 1110.886719 1126.71875 1080.488281 1135.199219 1048.800781 C 1138.402344 1044 1141.597656 1039.199219 1144.800781 1034.398438 Z M 1144.800781 1034.398438 "/>
<path style=" stroke:none;fill-rule:evenodd;fill:rgb(42.352941%,42.352941%,42.352941%);fill-opacity:1;" d="M 885.601562 1034.398438 C 922.320312 1037.488281 959.121094 1039.089844 996 1039.199219 C 983.300781 1042.386719 969.699219 1043.992188 955.199219 1044 C 930.820312 1044.457031 907.621094 1041.253906 885.601562 1034.398438 Z M 885.601562 1034.398438 "/>
<path style=" stroke:none;fill-rule:evenodd;fill:rgb(35.686275%,35.686275%,35.294118%);fill-opacity:1;" d="M 1260 1135.199219 C 1279.609375 1055.722656 1249.203125 1017.320312 1168.800781 1020 C 1169.332031 1017.039062 1170.929688 1014.636719 1173.601562 1012.800781 C 1250.410156 1001.617188 1284.8125 1034.417969 1276.800781 1111.199219 C 1272.46875 1120.46875 1266.867188 1128.464844 1260 1135.199219 Z M 1260 1135.199219 "/>
<path style=" stroke:none;fill-rule:evenodd;fill:rgb(57.647059%,57.647059%,57.254902%);fill-opacity:1;" d="M 1159.199219 1024.800781 C 1160.839844 1020.777344 1164.039062 1019.175781 1168.800781 1020 C 1249.203125 1017.320312 1279.609375 1055.722656 1260 1135.199219 C 1258.402344 1135.199219 1256.796875 1135.199219 1255.199219 1135.199219 C 1270.734375 1056.359375 1238.730469 1019.5625 1159.199219 1024.800781 Z M 1159.199219 1024.800781 "/>
<path style=" stroke:none;fill-rule:evenodd;fill:rgb(75.686275%,75.686275%,75.686275%);fill-opacity:1;" d="M 1159.199219 1024.800781 C 1238.730469 1019.5625 1270.734375 1056.359375 1255.199219 1135.199219 C 1250.398438 1143.203125 1244 1149.601562 1236 1154.398438 C 1246.097656 1138.539062 1252.496094 1120.9375 1255.199219 1101.601562 C 1254.277344 1091.628906 1251.878906 1082.03125 1248 1072.800781 C 1235.554688 1062.964844 1223.554688 1052.566406 1212 1041.601562 C 1190.082031 1035.316406 1167.679688 1032.917969 1144.800781 1034.398438 C 1147.070312 1027.652344 1151.871094 1024.449219 1159.199219 1024.800781 Z M 1159.199219 1024.800781 "/>
<path style=" stroke:none;fill-rule:evenodd;fill:rgb(72.156863%,72.156863%,72.156863%);fill-opacity:1;" d="M 1135.199219 1048.800781 C 1126.71875 1080.488281 1129.117188 1110.886719 1142.398438 1140 C 1169.679688 1150.660156 1197.675781 1157.058594 1226.398438 1159.199219 C 1221.53125 1164.835938 1215.132812 1168.03125 1207.199219 1168.800781 C 1140.023438 1171.234375 1110.421875 1139.230469 1118.398438 1072.800781 C 1122.730469 1063.53125 1128.332031 1055.535156 1135.199219 1048.800781 Z M 1135.199219 1048.800781 "/>
<path style=" stroke:none;fill-rule:evenodd;fill:rgb(40.784314%,40.784314%,40.784314%);fill-opacity:1;" d="M 1144.800781 1034.398438 C 1141.597656 1039.199219 1138.402344 1044 1135.199219 1048.800781 C 1128.332031 1055.535156 1122.730469 1063.53125 1118.398438 1072.800781 C 1110.421875 1139.230469 1140.023438 1171.234375 1207.199219 1168.800781 C 1183.261719 1180.328125 1157.664062 1181.125 1130.398438 1171.199219 C 1120.988281 1154.777344 1112.1875 1137.980469 1104 1120.800781 C 1094.246094 1080.273438 1107.847656 1051.472656 1144.800781 1034.398438 Z M 1144.800781 1034.398438 "/>
</g>
</svg>
