<?xml version="1.0" encoding="UTF-8"?>
<svg xmlns="http://www.w3.org/2000/svg" xmlns:xlink="http://www.w3.org/1999/xlink" width="1920pt" height="1440pt" viewBox="0 0 1920 1440" version="1.1">
<g id="surface1">
<path style=" stroke:none;fill-rule:evenodd;fill:rgb(0%,0%,0%);fill-opacity:1;" d="M -2.398438 -2.398438 C 637.597656 -2.398438 1277.601562 -2.398438 1917.601562 -2.398438 C 1917.601562 477.601562 1917.601562 957.601562 1917.601562 1437.601562 C 1277.601562 1437.601562 637.597656 1437.601562 -2.398438 1437.601562 C -2.398438 957.601562 -2.398438 477.601562 -2.398438 -2.398438 Z M -2.398438 -2.398438 "/>
<path style=" stroke:none;fill-rule:evenodd;fill:rgb(98.039216%,98.039216%,98.039216%);fill-opacity:1;" d="M 847.199219 232.800781 C 856.84375 246.496094 865.644531 260.898438 873.601562 276 C 884.933594 314.183594 874.53125 343.785156 842.398438 364.800781 C 823.085938 367.1875 803.886719 366.386719 784.800781 362.398438 C 778.863281 349.226562 770.0625 338.027344 758.398438 328.800781 C 756.003906 306.457031 755.203125 284.058594 756 261.601562 C 777.988281 228.515625 808.386719 218.914062 847.199219 232.800781 Z M 847.199219 232.800781 "/>
<path style=" stroke:none;fill-rule:evenodd;fill:rgb(15.686275%,15.686275%,15.686275%);fill-opacity:1;" d="M 880.800781 237.601562 C 907.90625 256.1875 916.703125 281.785156 907.199219 314.398438 C 905.390625 321.324219 901.390625 326.121094 895.199219 328.800781 C 904.554688 295.71875 899.753906 265.316406 880.800781 237.601562 Z M 880.800781 237.601562 "/>
<path style=" stroke:none;fill-rule:evenodd;fill:rgb(48.627451%,48.627451%,48.627451%);fill-opacity:1;" d="M 880.800781 237.601562 C 899.753906 265.316406 904.554688 295.71875 895.199219 328.800781 C 888.800781 338.398438 880.800781 346.398438 871.199219 352.800781 C 895.84375 320.292969 896.644531 286.691406 873.601562 252 C 866.636719 242.574219 857.835938 236.171875 847.199219 232.800781 C 808.386719 218.914062 777.988281 228.515625 756 261.601562 C 753.039062 262.132812 750.636719 263.730469 748.800781 266.398438 C 742.789062 297.699219 748.386719 326.496094 765.601562 352.800781 C 770.984375 358.226562 777.390625 361.425781 784.800781 362.398438 C 797.390625 370.875 811.789062 374.074219 828 372 C 826.359375 376.023438 823.160156 377.625 818.398438 376.800781 C 744.222656 372.589844 717.023438 334.191406 736.800781 261.601562 C 778.117188 213.945312 826.117188 205.945312 880.800781 237.601562 Z M 880.800781 237.601562 "/>
<path style=" stroke:none;fill-rule:evenodd;fill:rgb(65.098039%,65.098039%,65.098039%);fill-opacity:1;" d="M 847.199219 232.800781 C 857.835938 236.171875 866.636719 242.574219 873.601562 252 C 896.644531 286.691406 895.84375 320.292969 871.199219 352.800781 C 859.992188 365.589844 845.59375 371.992188 828 372 C 811.789062 374.074219 797.390625 370.875 784.800781 362.398438 C 803.886719 366.386719 823.085938 367.1875 842.398438 364.800781 C 874.53125 343.785156 884.933594 314.183594 873.601562 276 C 865.644531 260.898438 856.84375 246.496094 847.199219 232.800781 Z M 847.199219 232.800781 "/>
<path style=" stroke:none;fill-rule:evenodd;fill:rgb(76.470588%,76.470588%,76.470588%);fill-opacity:1;" d="M 756 261.601562 C 755.203125 284.058594 756.003906 306.457031 758.398438 328.800781 C 770.0625 338.027344 778.863281 349.226562 784.800781 362.398438 C 777.390625 361.425781 770.984375 358.226562 765.601562 352.800781 C 748.386719 326.496094 742.789062 297.699219 748.800781 266.398438 C 750.636719 263.730469 753.039062 262.132812 756 261.601562 Z M 756 261.601562 "/>
<path style=" stroke:none;fill-rule:evenodd;fill:rgb(24.705882%,24.705882%,24.705882%);fill-opacity:1;" d="M 736.800781 261.601562 C 717.023438 334.191406 744.222656 372.589844 818.398438 376.800781 C 781.070312 388.699219 751.46875 377.496094 729.601562 343.199219 C 722.515625 321.234375 720.910156 298.835938 724.800781 276 C 726.609375 269.078125 730.609375 264.277344 736.800781 261.601562 Z M 736.800781 261.601562 "/>
<path style=" stroke:none;fill-rule:evenodd;fill:rgb(97.254902%,97.254902%,97.254902%);fill-opacity:1;" d="M 904.800781 391.199219 C 1048.871094 382.042969 1161.671875 436.445312 1243.199219 554.398438 C 1311.078125 698.585938 1292.679688 830.585938 1188 950.398438 C 1055.125 1062.476562 914.324219 1073.671875 765.601562 984 C 637.726562 875.53125 601.726562 741.929688 657.601562 583.199219 C 710.175781 480.164062 792.570312 416.164062 904.800781 391.199219 Z M 904.800781 391.199219 "/>
<path style=" stroke:none;fill-rule:evenodd;fill:rgb(55.686275%,55.686275%,55.686275%);fill-opacity:1;" d="M 981.601562 492 C 950.609375 490.714844 920.210938 493.914062 890.398438 501.601562 C 919.722656 487.160156 950.121094 483.964844 981.601562 492 Z M 981.601562 492 "/>
<path style=" stroke:none;fill-rule:evenodd;fill:rgb(0.392157%,0.392157%,0.392157%);fill-opacity:1;" d="M 981.601562 492 C 983.199219 492 984.800781 492 986.398438 492 C 997.945312 498.085938 1010.746094 501.289062 1024.800781 501.601562 C 1077.203125 519.773438 1118.804688 551.773438 1149.601562 597.601562 C 1149.25 604.929688 1152.453125 609.730469 1159.199219 612 C 1164 624.800781 1168.800781 637.597656 1173.601562 650.398438 C 1181.285156 680.210938 1184.488281 710.609375 1183.199219 741.601562 C 1183.199219 743.199219 1183.199219 744.800781 1183.199219 746.398438 C 1177.113281 757.945312 1173.910156 770.746094 1173.601562 784.800781 C 1148 858.398438 1098.398438 908 1024.800781 933.601562 C 1010.746094 933.910156 997.945312 937.113281 986.398438 943.199219 C 965.601562 943.199219 944.796875 943.199219 924 943.199219 C 914.328125 936.363281 903.128906 933.167969 890.398438 933.601562 C 877.597656 928.800781 864.800781 924 852 919.199219 C 849.730469 912.453125 844.929688 909.25 837.601562 909.601562 C 785.257812 874.832031 751.65625 826.832031 736.800781 765.601562 C 733.34375 738.539062 731.746094 711.339844 732 684 C 738.835938 674.328125 742.03125 663.128906 741.601562 650.398438 C 746.398438 637.597656 751.199219 624.800781 756 612 C 762.75 609.730469 765.949219 604.929688 765.601562 597.601562 C 794.542969 549.488281 836.144531 517.492188 890.398438 501.601562 C 920.210938 493.914062 950.609375 490.714844 981.601562 492 Z M 981.601562 492 "/>
<path style=" stroke:none;fill-rule:evenodd;fill:rgb(64.705882%,64.705882%,64.705882%);fill-opacity:1;" d="M 986.398438 492 C 1001.75 489.425781 1014.550781 492.628906 1024.800781 501.601562 C 1010.746094 501.289062 997.945312 498.085938 986.398438 492 Z M 986.398438 492 "/>
<path style=" stroke:none;fill-rule:evenodd;fill:rgb(41.568627%,41.568627%,41.568627%);fill-opacity:1;" d="M 765.601562 597.601562 C 765.949219 604.929688 762.75 609.730469 756 612 C 755.648438 604.671875 758.851562 599.871094 765.601562 597.601562 Z M 765.601562 597.601562 "/>
<path style=" stroke:none;fill-rule:evenodd;fill:rgb(41.568627%,41.568627%,41.568627%);fill-opacity:1;" d="M 1149.601562 597.601562 C 1156.347656 599.871094 1159.550781 604.671875 1159.199219 612 C 1152.453125 609.730469 1149.25 604.929688 1149.601562 597.601562 Z M 1149.601562 597.601562 "/>
<path style=" stroke:none;fill-rule:evenodd;fill:rgb(41.960784%,41.960784%,41.960784%);fill-opacity:1;" d="M 741.601562 650.398438 C 742.03125 663.128906 738.835938 674.328125 732 684 C 731.566406 671.269531 734.765625 660.070312 741.601562 650.398438 Z M 741.601562 650.398438 "/>
<path style=" stroke:none;fill-rule:evenodd;fill:rgb(57.647059%,57.647059%,57.647059%);fill-opacity:1;" d="M 1173.601562 650.398438 C 1188.039062 679.722656 1191.234375 710.121094 1183.199219 741.601562 C 1184.488281 710.609375 1181.285156 680.210938 1173.601562 650.398438 Z M 1173.601562 650.398438 "/>
<path style=" stroke:none;fill-rule:evenodd;fill:rgb(58.823529%,58.823529%,58.823529%);fill-opacity:1;" d="M 732 684 C 731.746094 711.339844 733.34375 738.539062 736.800781 765.601562 C 729.820312 750.152344 726.621094 733.355469 727.199219 715.199219 C 727.21875 703.867188 728.816406 693.46875 732 684 Z M 732 684 "/>
<path style=" stroke:none;fill-rule:evenodd;fill:rgb(64.705882%,64.705882%,64.705882%);fill-opacity:1;" d="M 1183.199219 746.398438 C 1185.773438 761.75 1182.570312 774.550781 1173.601562 784.800781 C 1173.910156 770.746094 1177.113281 757.945312 1183.199219 746.398438 Z M 1183.199219 746.398438 "/>
<path style=" stroke:none;fill-rule:evenodd;fill:rgb(41.568627%,41.568627%,41.568627%);fill-opacity:1;" d="M 837.601562 909.601562 C 844.929688 909.25 849.730469 912.453125 852 919.199219 C 844.671875 919.550781 839.871094 916.347656 837.601562 909.601562 Z M 837.601562 909.601562 "/>
<path style=" stroke:none;fill-rule:evenodd;fill:rgb(41.568627%,41.568627%,41.568627%);fill-opacity:1;" d="M 890.398438 933.601562 C 903.128906 933.167969 914.328125 936.363281 924 943.199219 C 911.269531 943.632812 900.070312 940.433594 890.398438 933.601562 Z M 890.398438 933.601562 "/>
<path style=" stroke:none;fill-rule:evenodd;fill:rgb(64.705882%,64.705882%,64.705882%);fill-opacity:1;" d="M 1024.800781 933.601562 C 1014.550781 942.570312 1001.75 945.773438 986.398438 943.199219 C 997.945312 937.113281 1010.746094 933.910156 1024.800781 933.601562 Z M 1024.800781 933.601562 "/>
<path style=" stroke:none;fill-rule:evenodd;fill:rgb(50.588235%,50.588235%,50.588235%);fill-opacity:1;" d="M 1092 1058.398438 C 1160.789062 1056.707031 1189.589844 1088.707031 1178.398438 1154.398438 C 1179.789062 1139.285156 1177.386719 1124.886719 1171.199219 1111.199219 C 1163.238281 1104.878906 1157.636719 1096.882812 1154.398438 1087.199219 C 1143.0625 1080.574219 1131.863281 1074.175781 1120.800781 1068 C 1103.351562 1062.820312 1085.753906 1062.820312 1068 1068 C 1074.863281 1063.023438 1082.867188 1059.820312 1092 1058.398438 Z M 1092 1058.398438 "/>
<path style=" stroke:none;fill-rule:evenodd;fill:rgb(98.039216%,98.039216%,98.039216%);fill-opacity:1;" d="M 1120.800781 1068 C 1136.515625 1083.46875 1151.71875 1099.46875 1166.398438 1116 C 1173.496094 1153.199219 1161.496094 1182 1130.398438 1202.398438 C 1066.925781 1202.101562 1040.523438 1170.105469 1051.199219 1106.398438 C 1055.703125 1096.859375 1059.707031 1087.257812 1063.199219 1077.601562 C 1064.796875 1074.398438 1066.402344 1071.203125 1068 1068 C 1085.753906 1062.820312 1103.351562 1062.820312 1120.800781 1068 Z M 1120.800781 1068 "/>
<path style=" stroke:none;fill-rule:evenodd;fill:rgb(61.176471%,61.176471%,61.176471%);fill-opacity:1;" d="M 1068 1068 C 1066.402344 1071.203125 1064.796875 1074.398438 1063.199219 1077.601562 C 1048.238281 1085.488281 1039.441406 1098.28125 1036.800781 1116 C 1034.027344 1137.382812 1036.425781 1158.183594 1044 1178.398438 C 1030.929688 1170.398438 1024.53125 1158.398438 1024.800781 1142.398438 C 1025.542969 1126.597656 1028.746094 1111.398438 1034.398438 1096.800781 C 1037.601562 1092 1040.796875 1087.199219 1044 1082.398438 C 1049.5625 1074 1057.566406 1069.199219 1068 1068 Z M 1068 1068 "/>
<path style=" stroke:none;fill-rule:evenodd;fill:rgb(23.529412%,23.529412%,23.529412%);fill-opacity:1;" d="M 1044 1082.398438 C 1040.796875 1087.199219 1037.601562 1092 1034.398438 1096.800781 C 1014.8125 1118.722656 1010.011719 1144.320312 1020 1173.601562 C 1017.039062 1173.066406 1014.636719 1171.46875 1012.800781 1168.800781 C 1009.597656 1149.601562 1009.597656 1130.398438 1012.800781 1111.199219 C 1019.546875 1097.238281 1029.945312 1087.636719 1044 1082.398438 Z M 1044 1082.398438 "/>
<path style=" stroke:none;fill-rule:evenodd;fill:rgb(66.666667%,66.666667%,66.666667%);fill-opacity:1;" d="M 1120.800781 1068 C 1131.863281 1074.175781 1143.0625 1080.574219 1154.398438 1087.199219 C 1157.636719 1096.882812 1163.238281 1104.878906 1171.199219 1111.199219 C 1177.386719 1124.886719 1179.789062 1139.285156 1178.398438 1154.398438 C 1169.132812 1171.683594 1157.929688 1187.683594 1144.800781 1202.398438 C 1140.523438 1205.328125 1135.722656 1206.925781 1130.398438 1207.199219 C 1130.398438 1205.601562 1130.398438 1204 1130.398438 1202.398438 C 1161.496094 1182 1173.496094 1153.199219 1166.398438 1116 C 1151.71875 1099.46875 1136.515625 1083.46875 1120.800781 1068 Z M 1120.800781 1068 "/>
<path style=" stroke:none;fill-rule:evenodd;fill:rgb(28.627451%,28.627451%,28.627451%);fill-opacity:1;" d="M 1092 1058.398438 C 1132.195312 1050.027344 1165 1062.824219 1190.398438 1096.800781 C 1202.6875 1127.074219 1197.886719 1154.269531 1176 1178.398438 C 1167.503906 1189.160156 1157.101562 1197.160156 1144.800781 1202.398438 C 1157.929688 1187.683594 1169.132812 1171.683594 1178.398438 1154.398438 C 1189.589844 1088.707031 1160.789062 1056.707031 1092 1058.398438 Z M 1092 1058.398438 "/>
<path style=" stroke:none;fill-rule:evenodd;fill:rgb(86.27451%,86.27451%,86.27451%);fill-opacity:1;" d="M 1063.199219 1077.601562 C 1059.707031 1087.257812 1055.703125 1096.859375 1051.199219 1106.398438 C 1040.523438 1170.105469 1066.925781 1202.101562 1130.398438 1202.398438 C 1130.398438 1204 1130.398438 1205.601562 1130.398438 1207.199219 C 1115.914062 1207.992188 1101.511719 1207.191406 1087.199219 1204.800781 C 1073.195312 1196.289062 1058.792969 1189.089844 1044 1183.199219 C 1044 1181.601562 1044 1180 1044 1178.398438 C 1036.425781 1158.183594 1034.027344 1137.382812 1036.800781 1116 C 1039.441406 1098.28125 1048.238281 1085.488281 1063.199219 1077.601562 Z M 1063.199219 1077.601562 "/>
<path style=" stroke:none;fill-rule:evenodd;fill:rgb(64.705882%,64.705882%,64.705882%);fill-opacity:1;" d="M 1044 1183.199219 C 1058.792969 1189.089844 1073.195312 1196.289062 1087.199219 1204.800781 C 1101.511719 1207.191406 1115.914062 1207.992188 1130.398438 1207.199219 C 1125.273438 1211.683594 1118.875 1213.285156 1111.199219 1212 C 1081.488281 1217.914062 1059.085938 1208.3125 1044 1183.199219 Z M 1044 1183.199219 "/>
<path style=" stroke:none;fill-rule:evenodd;fill:rgb(38.431373%,38.431373%,38.431373%);fill-opacity:1;" d="M 1034.398438 1096.800781 C 1028.746094 1111.398438 1025.542969 1126.597656 1024.800781 1142.398438 C 1024.53125 1158.398438 1030.929688 1170.398438 1044 1178.398438 C 1044 1180 1044 1181.601562 1044 1183.199219 C 1059.085938 1208.3125 1081.488281 1217.914062 1111.199219 1212 C 1083.191406 1220.308594 1056.792969 1215.507812 1032 1197.601562 C 1026.75 1190.027344 1022.746094 1182.023438 1020 1173.601562 C 1010.011719 1144.320312 1014.8125 1118.722656 1034.398438 1096.800781 Z M 1034.398438 1096.800781 "/>
</g>
</svg>
