<?xml version="1.0" encoding="UTF-8"?>
<svg xmlns="http://www.w3.org/2000/svg" xmlns:xlink="http://www.w3.org/1999/xlink" width="1920pt" height="1440pt" viewBox="0 0 1920 1440" version="1.1">
<g id="surface1">
<path style=" stroke:none;fill-rule:evenodd;fill:rgb(0%,0%,0%);fill-opacity:1;" d="M -2.398438 -2.398438 C 637.597656 -2.398438 1277.601562 -2.398438 1917.601562 -2.398438 C 1917.601562 477.601562 1917.601562 957.601562 1917.601562 1437.601562 C 1277.601562 1437.601562 637.597656 1437.601562 -2.398438 1437.601562 C -2.398438 957.601562 -2.398438 477.601562 -2.398438 -2.398438 Z M -2.398438 -2.398438 "/>
<path style=" stroke:none;fill-rule:evenodd;fill:rgb(58.039216%,58.039216%,58.039216%);fill-opacity:1;" d="M 842.398438 223.199219 C 844 226.398438 845.601562 229.601562 847.199219 232.800781 C 808.386719 218.914062 777.988281 228.515625 756 261.601562 C 752.796875 263.199219 749.601562 264.800781 746.398438 266.398438 C 750.792969 255.582031 757.191406 245.980469 765.601562 237.601562 C 788.664062 218.976562 814.261719 214.179688 842.398438 223.199219 Z M 842.398438 223.199219 "/>
<path style=" stroke:none;fill-rule:evenodd;fill:rgb(36.470588%,36.470588%,36.470588%);fill-opacity:1;" d="M 842.398438 223.199219 C 896.207031 234.9375 916.203125 268.539062 902.398438 324 C 892.621094 334.589844 882.226562 344.1875 871.199219 352.800781 C 894.558594 319.539062 895.355469 285.9375 873.601562 252 C 868.09375 240.871094 859.292969 234.46875 847.199219 232.800781 C 845.601562 229.601562 844 226.398438 842.398438 223.199219 Z M 842.398438 223.199219 "/>
<path style=" stroke:none;fill-rule:evenodd;fill:rgb(98.039216%,98.039216%,98.039216%);fill-opacity:1;" d="M 847.199219 232.800781 C 847.199219 236 847.199219 239.199219 847.199219 242.398438 C 849.695312 255.324219 856.894531 264.925781 868.800781 271.199219 C 871.195312 291.9375 871.996094 312.738281 871.199219 333.601562 C 851.136719 367.589844 822.335938 376.390625 784.800781 360 C 777.800781 348.191406 769.003906 337.792969 758.398438 328.800781 C 756.003906 306.457031 755.203125 284.058594 756 261.601562 C 777.988281 228.515625 808.386719 218.914062 847.199219 232.800781 Z M 847.199219 232.800781 "/>
<path style=" stroke:none;fill-rule:evenodd;fill:rgb(81.568627%,81.568627%,81.568627%);fill-opacity:1;" d="M 847.199219 242.398438 C 881.113281 266.109375 889.109375 296.511719 871.199219 333.601562 C 871.996094 312.738281 871.195312 291.9375 868.800781 271.199219 C 856.894531 264.925781 849.695312 255.324219 847.199219 242.398438 Z M 847.199219 242.398438 "/>
<path style=" stroke:none;fill-rule:evenodd;fill:rgb(20.392157%,20.392157%,20.392157%);fill-opacity:1;" d="M 741.601562 256.800781 C 729.269531 280.582031 724.46875 306.179688 727.199219 333.601562 C 712.304688 304.597656 717.105469 278.996094 741.601562 256.800781 Z M 741.601562 256.800781 "/>
<path style=" stroke:none;fill-rule:evenodd;fill:rgb(56.862745%,56.862745%,56.862745%);fill-opacity:1;" d="M 746.398438 271.199219 C 744.582031 299.714844 749.378906 326.914062 760.800781 352.800781 C 742.273438 343.855469 734.269531 328.65625 736.800781 307.199219 C 737.601562 296.800781 738.398438 286.398438 739.199219 276 C 741.039062 273.332031 743.4375 271.730469 746.398438 271.199219 Z M 746.398438 271.199219 "/>
<path style=" stroke:none;fill-rule:evenodd;fill:rgb(64.705882%,64.705882%,64.705882%);fill-opacity:1;" d="M 847.199219 232.800781 C 859.292969 234.46875 868.09375 240.871094 873.601562 252 C 895.355469 285.9375 894.558594 319.539062 871.199219 352.800781 C 856.894531 367.136719 839.292969 375.140625 818.398438 376.800781 C 794.101562 379.929688 774.902344 371.929688 760.800781 352.800781 C 749.378906 326.914062 744.582031 299.714844 746.398438 271.199219 C 746.398438 269.601562 746.398438 268 746.398438 266.398438 C 749.601562 264.800781 752.796875 263.199219 756 261.601562 C 755.203125 284.058594 756.003906 306.457031 758.398438 328.800781 C 769.003906 337.792969 777.800781 348.191406 784.800781 360 C 822.335938 376.390625 851.136719 367.589844 871.199219 333.601562 C 889.109375 296.511719 881.113281 266.109375 847.199219 242.398438 C 847.199219 239.199219 847.199219 236 847.199219 232.800781 Z M 847.199219 232.800781 "/>
<path style=" stroke:none;fill-rule:evenodd;fill:rgb(32.941176%,32.941176%,32.941176%);fill-opacity:1;" d="M 765.601562 237.601562 C 757.191406 245.980469 750.792969 255.582031 746.398438 266.398438 C 746.398438 268 746.398438 269.601562 746.398438 271.199219 C 743.4375 271.730469 741.039062 273.332031 739.199219 276 C 738.398438 286.398438 737.601562 296.800781 736.800781 307.199219 C 734.269531 328.65625 742.273438 343.855469 760.800781 352.800781 C 774.902344 371.929688 794.101562 379.929688 818.398438 376.800781 C 776.871094 387.246094 746.46875 372.847656 727.199219 333.601562 C 724.46875 306.179688 729.269531 280.582031 741.601562 256.800781 C 746.808594 246.78125 754.804688 240.382812 765.601562 237.601562 Z M 765.601562 237.601562 "/>
<path style=" stroke:none;fill-rule:evenodd;fill:rgb(97.254902%,97.254902%,97.254902%);fill-opacity:1;" d="M 904.800781 391.199219 C 1048.871094 382.042969 1161.671875 436.445312 1243.199219 554.398438 C 1311.078125 698.585938 1292.679688 830.585938 1188 950.398438 C 1055.125 1062.476562 914.324219 1073.671875 765.601562 984 C 637.726562 875.53125 601.726562 741.929688 657.601562 583.199219 C 710.175781 480.164062 792.570312 416.164062 904.800781 391.199219 Z M 904.800781 391.199219 "/>
<path style=" stroke:none;fill-rule:evenodd;fill:rgb(55.686275%,55.686275%,55.686275%);fill-opacity:1;" d="M 981.601562 492 C 950.609375 490.714844 920.210938 493.914062 890.398438 501.601562 C 919.722656 487.160156 950.121094 483.964844 981.601562 492 Z M 981.601562 492 "/>
<path style=" stroke:none;fill-rule:evenodd;fill:rgb(0.392157%,0.392157%,0.392157%);fill-opacity:1;" d="M 981.601562 492 C 983.199219 492 984.800781 492 986.398438 492 C 997.945312 498.085938 1010.746094 501.289062 1024.800781 501.601562 C 1077.203125 519.773438 1118.804688 551.773438 1149.601562 597.601562 C 1149.25 604.929688 1152.453125 609.730469 1159.199219 612 C 1164 624.800781 1168.800781 637.597656 1173.601562 650.398438 C 1180.828125 680.308594 1184.03125 710.707031 1183.199219 741.601562 C 1177.644531 754.910156 1174.445312 769.308594 1173.601562 784.800781 C 1148 858.398438 1098.398438 908 1024.800781 933.601562 C 1010.746094 933.910156 997.945312 937.113281 986.398438 943.199219 C 965.601562 943.199219 944.796875 943.199219 924 943.199219 C 914.328125 936.363281 903.128906 933.167969 890.398438 933.601562 C 877.597656 928.800781 864.800781 924 852 919.199219 C 849.730469 912.453125 844.929688 909.25 837.601562 909.601562 C 791.773438 878.804688 759.773438 837.203125 741.601562 784.800781 C 741.289062 770.746094 738.085938 757.945312 732 746.398438 C 732 725.601562 732 704.796875 732 684 C 738.835938 674.328125 742.03125 663.128906 741.601562 650.398438 C 746.398438 637.597656 751.199219 624.800781 756 612 C 762.75 609.730469 765.949219 604.929688 765.601562 597.601562 C 794.542969 549.488281 836.144531 517.492188 890.398438 501.601562 C 920.210938 493.914062 950.609375 490.714844 981.601562 492 Z M 981.601562 492 "/>
<path style=" stroke:none;fill-rule:evenodd;fill:rgb(64.705882%,64.705882%,64.705882%);fill-opacity:1;" d="M 986.398438 492 C 1001.75 489.425781 1014.550781 492.628906 1024.800781 501.601562 C 1010.746094 501.289062 997.945312 498.085938 986.398438 492 Z M 986.398438 492 "/>
<path style=" stroke:none;fill-rule:evenodd;fill:rgb(41.568627%,41.568627%,41.568627%);fill-opacity:1;" d="M 765.601562 597.601562 C 765.949219 604.929688 762.75 609.730469 756 612 C 755.648438 604.671875 758.851562 599.871094 765.601562 597.601562 Z M 765.601562 597.601562 "/>
<path style=" stroke:none;fill-rule:evenodd;fill:rgb(41.568627%,41.568627%,41.568627%);fill-opacity:1;" d="M 1149.601562 597.601562 C 1156.347656 599.871094 1159.550781 604.671875 1159.199219 612 C 1152.453125 609.730469 1149.25 604.929688 1149.601562 597.601562 Z M 1149.601562 597.601562 "/>
<path style=" stroke:none;fill-rule:evenodd;fill:rgb(41.568627%,41.568627%,41.568627%);fill-opacity:1;" d="M 741.601562 650.398438 C 742.03125 663.128906 738.835938 674.328125 732 684 C 731.566406 671.269531 734.765625 660.070312 741.601562 650.398438 Z M 741.601562 650.398438 "/>
<path style=" stroke:none;fill-rule:evenodd;fill:rgb(56.862745%,56.862745%,56.862745%);fill-opacity:1;" d="M 1173.601562 650.398438 C 1188.039062 679.722656 1191.234375 710.121094 1183.199219 741.601562 C 1184.03125 710.707031 1180.828125 680.308594 1173.601562 650.398438 Z M 1173.601562 650.398438 "/>
<path style=" stroke:none;fill-rule:evenodd;fill:rgb(64.705882%,64.705882%,64.705882%);fill-opacity:1;" d="M 732 746.398438 C 738.085938 757.945312 741.289062 770.746094 741.601562 784.800781 C 732.628906 774.550781 729.425781 761.75 732 746.398438 Z M 732 746.398438 "/>
<path style=" stroke:none;fill-rule:evenodd;fill:rgb(62.745098%,62.745098%,62.745098%);fill-opacity:1;" d="M 1183.199219 741.601562 C 1185.863281 758.457031 1182.664062 772.859375 1173.601562 784.800781 C 1174.445312 769.308594 1177.644531 754.910156 1183.199219 741.601562 Z M 1183.199219 741.601562 "/>
<path style=" stroke:none;fill-rule:evenodd;fill:rgb(41.568627%,41.568627%,41.568627%);fill-opacity:1;" d="M 837.601562 909.601562 C 844.929688 909.25 849.730469 912.453125 852 919.199219 C 844.671875 919.550781 839.871094 916.347656 837.601562 909.601562 Z M 837.601562 909.601562 "/>
<path style=" stroke:none;fill-rule:evenodd;fill:rgb(41.960784%,41.960784%,41.960784%);fill-opacity:1;" d="M 890.398438 933.601562 C 903.128906 933.167969 914.328125 936.363281 924 943.199219 C 911.269531 943.632812 900.070312 940.433594 890.398438 933.601562 Z M 890.398438 933.601562 "/>
<path style=" stroke:none;fill-rule:evenodd;fill:rgb(64.705882%,64.705882%,64.705882%);fill-opacity:1;" d="M 1024.800781 933.601562 C 1014.550781 942.570312 1001.75 945.773438 986.398438 943.199219 C 997.945312 937.113281 1010.746094 933.910156 1024.800781 933.601562 Z M 1024.800781 933.601562 "/>
<path style=" stroke:none;fill-rule:evenodd;fill:rgb(23.529412%,23.529412%,23.529412%);fill-opacity:1;" d="M 1092 1058.398438 C 1132.296875 1050.085938 1165.097656 1062.886719 1190.398438 1096.800781 C 1192.800781 1108.800781 1195.199219 1120.800781 1197.601562 1132.800781 C 1197.480469 1141.804688 1194.28125 1149.003906 1188 1154.398438 C 1189.597656 1088.796875 1157.601562 1056.800781 1092 1058.398438 Z M 1092 1058.398438 "/>
<path style=" stroke:none;fill-rule:evenodd;fill:rgb(98.823529%,98.823529%,98.823529%);fill-opacity:1;" d="M 1144.800781 1197.601562 C 1139.476562 1197.875 1134.675781 1199.472656 1130.398438 1202.398438 C 1055.410156 1200.90625 1028.207031 1164.109375 1048.800781 1092 C 1075.507812 1069.722656 1105.105469 1066.523438 1137.601562 1082.398438 C 1163.5625 1119.210938 1165.964844 1157.609375 1144.800781 1197.601562 Z M 1144.800781 1197.601562 "/>
<path style=" stroke:none;fill-rule:evenodd;fill:rgb(73.72549%,73.72549%,73.72549%);fill-opacity:1;" d="M 1087.199219 1063.199219 C 1128.363281 1062.070312 1157.964844 1079.671875 1176 1116 C 1179.203125 1132 1179.203125 1148 1176 1164 C 1164.613281 1174.574219 1154.210938 1185.777344 1144.800781 1197.601562 C 1165.964844 1157.609375 1163.5625 1119.210938 1137.601562 1082.398438 C 1105.105469 1066.523438 1075.507812 1069.722656 1048.800781 1092 C 1049.917969 1084.503906 1053.121094 1078.105469 1058.398438 1072.800781 C 1066.089844 1065.246094 1075.691406 1062.042969 1087.199219 1063.199219 Z M 1087.199219 1063.199219 "/>
<path style=" stroke:none;fill-rule:evenodd;fill:rgb(28.627451%,28.627451%,28.627451%);fill-opacity:1;" d="M 1044 1082.398438 C 1033.9375 1091.679688 1026.738281 1102.882812 1022.398438 1116 C 1020.003906 1135.132812 1019.203125 1154.332031 1020 1173.601562 C 1017.039062 1173.066406 1014.636719 1171.46875 1012.800781 1168.800781 C 1009.804688 1146.128906 1011.40625 1123.726562 1017.601562 1101.601562 C 1024.566406 1092.171875 1033.363281 1085.773438 1044 1082.398438 Z M 1044 1082.398438 "/>
<path style=" stroke:none;fill-rule:evenodd;fill:rgb(42.352941%,42.352941%,42.352941%);fill-opacity:1;" d="M 1087.199219 1063.199219 C 1087.199219 1060 1088.796875 1058.398438 1092 1058.398438 C 1157.601562 1056.800781 1189.597656 1088.796875 1188 1154.398438 C 1180.769531 1185.191406 1161.570312 1202.792969 1130.398438 1207.199219 C 1130.398438 1205.601562 1130.398438 1204 1130.398438 1202.398438 C 1134.675781 1199.472656 1139.476562 1197.875 1144.800781 1197.601562 C 1154.210938 1185.777344 1164.613281 1174.574219 1176 1164 C 1179.203125 1148 1179.203125 1132 1176 1116 C 1157.964844 1079.671875 1128.363281 1062.070312 1087.199219 1063.199219 Z M 1087.199219 1063.199219 "/>
<path style=" stroke:none;fill-rule:evenodd;fill:rgb(49.019608%,49.019608%,49.019608%);fill-opacity:1;" d="M 1058.398438 1072.800781 C 1053.121094 1078.105469 1049.917969 1084.503906 1048.800781 1092 C 1044.203125 1094.175781 1040.199219 1097.371094 1036.800781 1101.601562 C 1033.359375 1129.078125 1034.957031 1156.277344 1041.601562 1183.199219 C 1067.480469 1202.972656 1097.082031 1210.96875 1130.398438 1207.199219 C 1101.667969 1220.742188 1072.867188 1219.9375 1044 1204.800781 C 1033.007812 1196.269531 1025.007812 1185.867188 1020 1173.601562 C 1019.203125 1154.332031 1020.003906 1135.132812 1022.398438 1116 C 1026.738281 1102.882812 1033.9375 1091.679688 1044 1082.398438 C 1046.269531 1075.652344 1051.070312 1072.449219 1058.398438 1072.800781 Z M 1058.398438 1072.800781 "/>
<path style=" stroke:none;fill-rule:evenodd;fill:rgb(80%,80%,80%);fill-opacity:1;" d="M 1048.800781 1092 C 1028.207031 1164.109375 1055.410156 1200.90625 1130.398438 1202.398438 C 1130.398438 1204 1130.398438 1205.601562 1130.398438 1207.199219 C 1097.082031 1210.96875 1067.480469 1202.972656 1041.601562 1183.199219 C 1034.957031 1156.277344 1033.359375 1129.078125 1036.800781 1101.601562 C 1040.199219 1097.371094 1044.203125 1094.175781 1048.800781 1092 Z M 1048.800781 1092 "/>
</g>
</svg>
