<?xml version="1.0" encoding="UTF-8"?>
<svg xmlns="http://www.w3.org/2000/svg" xmlns:xlink="http://www.w3.org/1999/xlink" width="1920pt" height="1440pt" viewBox="0 0 1920 1440" version="1.1">
<g id="surface1">
<path style=" stroke:none;fill-rule:evenodd;fill:rgb(0%,0%,0%);fill-opacity:1;" d="M -2.398438 -2.398438 C 637.597656 -2.398438 1277.601562 -2.398438 1917.601562 -2.398438 C 1917.601562 477.601562 1917.601562 957.601562 1917.601562 1437.601562 C 1277.601562 1437.601562 637.597656 1437.601562 -2.398438 1437.601562 C -2.398438 957.601562 -2.398438 477.601562 -2.398438 -2.398438 Z M -2.398438 -2.398438 "/>
<path style=" stroke:none;fill-rule:evenodd;fill:rgb(98.039216%,98.039216%,98.039216%);fill-opacity:1;" d="M 1010.398438 204 C 1020.632812 204.261719 1027.03125 209.0625 1029.601562 218.398438 C 1050.679688 253.523438 1053.882812 290.324219 1039.199219 328.800781 C 1016.660156 346.613281 991.054688 352.214844 962.398438 345.601562 C 959.730469 343.761719 958.132812 341.363281 957.601562 338.398438 C 946.578125 329.277344 937.78125 318.078125 931.199219 304.800781 C 927.390625 278.296875 930.589844 252.695312 940.800781 228 C 959.40625 207.144531 982.601562 199.144531 1010.398438 204 Z M 1010.398438 204 "/>
<path style=" stroke:none;fill-rule:evenodd;fill:rgb(29.803922%,29.803922%,29.803922%);fill-opacity:1;" d="M 957.601562 204 C 943.199219 215.199219 930.398438 228 919.199219 242.398438 C 916.238281 242.929688 913.839844 244.53125 912 247.199219 C 909.003906 269.871094 910.609375 292.273438 916.800781 314.398438 C 922.140625 318.265625 927.738281 321.464844 933.601562 324 C 933.875 329.324219 935.472656 334.125 938.398438 338.398438 C 901.726562 318.980469 889.726562 288.582031 902.398438 247.199219 C 911.898438 220.851562 930.296875 206.449219 957.601562 204 Z M 957.601562 204 "/>
<path style=" stroke:none;fill-rule:evenodd;fill:rgb(19.607843%,19.607843%,19.607843%);fill-opacity:1;" d="M 1068 237.601562 C 1080.058594 245.9375 1084.859375 257.9375 1082.398438 273.601562 C 1084.296875 294.453125 1077.898438 311.253906 1063.199219 324 C 1073.082031 295.59375 1074.679688 266.792969 1068 237.601562 Z M 1068 237.601562 "/>
<path style=" stroke:none;fill-rule:evenodd;fill:rgb(52.941176%,52.941176%,52.54902%);fill-opacity:1;" d="M 919.199219 242.398438 C 916.273438 271.398438 921.070312 298.601562 933.601562 324 C 927.738281 321.464844 922.140625 318.265625 916.800781 314.398438 C 910.609375 292.273438 909.003906 269.871094 912 247.199219 C 913.839844 244.53125 916.238281 242.929688 919.199219 242.398438 Z M 919.199219 242.398438 "/>
<path style=" stroke:none;fill-rule:evenodd;fill:rgb(78.039216%,78.039216%,78.039216%);fill-opacity:1;" d="M 1029.601562 218.398438 C 1041.902344 223.640625 1052.304688 231.640625 1060.800781 242.398438 C 1069.324219 276.09375 1062.125 304.890625 1039.199219 328.800781 C 1053.882812 290.324219 1050.679688 253.523438 1029.601562 218.398438 Z M 1029.601562 218.398438 "/>
<path style=" stroke:none;fill-rule:evenodd;fill:rgb(70.196078%,70.196078%,70.196078%);fill-opacity:1;" d="M 1010.398438 199.199219 C 1010.398438 200.800781 1010.398438 202.398438 1010.398438 204 C 982.601562 199.144531 959.40625 207.144531 940.800781 228 C 930.589844 252.695312 927.390625 278.296875 931.199219 304.800781 C 937.78125 318.078125 946.578125 329.277344 957.601562 338.398438 C 951.203125 338.398438 944.796875 338.398438 938.398438 338.398438 C 935.472656 334.125 933.875 329.324219 933.601562 324 C 921.070312 298.601562 916.273438 271.398438 919.199219 242.398438 C 930.398438 228 943.199219 215.199219 957.601562 204 C 974.21875 199.289062 991.820312 197.6875 1010.398438 199.199219 Z M 1010.398438 199.199219 "/>
<path style=" stroke:none;fill-rule:evenodd;fill:rgb(45.098039%,45.098039%,45.098039%);fill-opacity:1;" d="M 1010.398438 204 C 1010.398438 202.398438 1010.398438 200.800781 1010.398438 199.199219 C 1038.042969 200.167969 1057.242188 212.964844 1068 237.601562 C 1074.679688 266.792969 1073.082031 295.59375 1063.199219 324 C 1053.0625 336.300781 1040.261719 345.101562 1024.800781 350.398438 C 1002.398438 353.601562 980 353.601562 957.601562 350.398438 C 948.863281 349.4375 942.464844 345.4375 938.398438 338.398438 C 944.796875 338.398438 951.203125 338.398438 957.601562 338.398438 C 958.132812 341.363281 959.730469 343.761719 962.398438 345.601562 C 991.054688 352.214844 1016.660156 346.613281 1039.199219 328.800781 C 1062.125 304.890625 1069.324219 276.09375 1060.800781 242.398438 C 1052.304688 231.640625 1041.902344 223.640625 1029.601562 218.398438 C 1027.03125 209.0625 1020.632812 204.261719 1010.398438 204 Z M 1010.398438 204 "/>
<path style=" stroke:none;fill-rule:evenodd;fill:rgb(97.647059%,97.647059%,97.647059%);fill-opacity:1;" d="M 914.398438 386.398438 C 1045.761719 380.273438 1152.160156 428.273438 1233.601562 530.398438 C 1313.574219 670.035156 1305.574219 804.4375 1209.601562 933.601562 C 1078.261719 1062.988281 931.863281 1082.992188 770.398438 993.601562 C 629.226562 877.027344 593.226562 733.824219 662.398438 564 C 718.304688 463.976562 802.304688 404.773438 914.398438 386.398438 Z M 914.398438 386.398438 "/>
<path style=" stroke:none;fill-rule:evenodd;fill:rgb(1.176471%,1.176471%,1.176471%);fill-opacity:1;" d="M 986.398438 492 C 991.199219 492 996 492 1000.800781 492 C 1010.472656 498.835938 1021.671875 502.03125 1034.398438 501.601562 C 1148.394531 550.324219 1197.992188 636.726562 1183.199219 760.800781 C 1176.363281 770.472656 1173.167969 781.671875 1173.601562 794.398438 C 1133.492188 891.894531 1059.894531 943.089844 952.800781 948 C 851.035156 938.921875 780.632812 887.726562 741.601562 794.398438 C 742.03125 781.671875 738.835938 770.472656 732 760.800781 C 717.46875 661.070312 751.070312 581.871094 832.800781 523.199219 C 850.652344 511.851562 869.851562 504.652344 890.398438 501.601562 C 921.8125 493.765625 953.8125 490.566406 986.398438 492 Z M 986.398438 492 "/>
<path style=" stroke:none;fill-rule:evenodd;fill:rgb(60%,60%,60%);fill-opacity:1;" d="M 1000.800781 492 C 1013.53125 491.566406 1024.726562 494.765625 1034.398438 501.601562 C 1021.671875 502.03125 1010.472656 498.835938 1000.800781 492 Z M 1000.800781 492 "/>
<path style=" stroke:none;fill-rule:evenodd;fill:rgb(24.705882%,24.705882%,24.705882%);fill-opacity:1;" d="M 986.398438 492 C 953.8125 490.566406 921.8125 493.765625 890.398438 501.601562 C 898.929688 496.320312 908.53125 492.316406 919.199219 489.601562 C 942.488281 485.6875 964.890625 486.488281 986.398438 492 Z M 986.398438 492 "/>
<path style=" stroke:none;fill-rule:evenodd;fill:rgb(60%,60%,60%);fill-opacity:1;" d="M 732 760.800781 C 738.835938 770.472656 742.03125 781.671875 741.601562 794.398438 C 734.765625 784.726562 731.566406 773.53125 732 760.800781 Z M 732 760.800781 "/>
<path style=" stroke:none;fill-rule:evenodd;fill:rgb(60%,60%,60%);fill-opacity:1;" d="M 1183.199219 760.800781 C 1183.632812 773.53125 1180.433594 784.726562 1173.601562 794.398438 C 1173.167969 781.671875 1176.363281 770.472656 1183.199219 760.800781 Z M 1183.199219 760.800781 "/>
<path style=" stroke:none;fill-rule:evenodd;fill:rgb(97.647059%,97.647059%,97.647059%);fill-opacity:1;" d="M 952.800781 1092 C 964 1100 973.597656 1109.601562 981.601562 1120.800781 C 994.902344 1168.761719 980.5 1205.558594 938.398438 1231.199219 C 923.621094 1232.351562 909.222656 1230.753906 895.199219 1226.398438 C 844.359375 1181.582031 844.359375 1136.785156 895.199219 1092 C 914.398438 1085.601562 933.601562 1085.601562 952.800781 1092 Z M 952.800781 1092 "/>
<path style=" stroke:none;fill-rule:evenodd;fill:rgb(59.607843%,59.607843%,59.607843%);fill-opacity:1;" d="M 876 1092 C 882.398438 1092 888.800781 1092 895.199219 1092 C 844.359375 1136.785156 844.359375 1181.582031 895.199219 1226.398438 C 909.222656 1230.753906 923.621094 1232.351562 938.398438 1231.199219 C 943.199219 1231.199219 948 1231.199219 952.800781 1231.199219 C 934.507812 1236.695312 915.308594 1237.496094 895.199219 1233.601562 C 885.644531 1231.804688 877.640625 1227.804688 871.199219 1221.601562 C 832.03125 1177.167969 833.636719 1133.964844 876 1092 Z M 876 1092 "/>
<path style=" stroke:none;fill-rule:evenodd;fill:rgb(27.45098%,27.45098%,27.45098%);fill-opacity:1;" d="M 876 1092 C 833.636719 1133.964844 832.03125 1177.167969 871.199219 1221.601562 C 832.441406 1194.570312 823.640625 1159.371094 844.800781 1116 C 853.328125 1105.007812 863.730469 1097.007812 876 1092 Z M 876 1092 "/>
<path style=" stroke:none;fill-rule:evenodd;fill:rgb(71.372549%,71.372549%,71.372549%);fill-opacity:1;" d="M 981.601562 1120.800781 C 984.71875 1122.257812 987.921875 1123.859375 991.199219 1125.601562 C 997.695312 1151.761719 996.089844 1177.359375 986.398438 1202.398438 C 982.558594 1212.351562 976.160156 1220.351562 967.199219 1226.398438 C 963.796875 1230.738281 958.996094 1232.335938 952.800781 1231.199219 C 948 1231.199219 943.199219 1231.199219 938.398438 1231.199219 C 980.5 1205.558594 994.902344 1168.761719 981.601562 1120.800781 Z M 981.601562 1120.800781 "/>
<path style=" stroke:none;fill-rule:evenodd;fill:rgb(30.980392%,30.980392%,30.980392%);fill-opacity:1;" d="M 967.199219 1226.398438 C 976.160156 1220.351562 982.558594 1212.351562 986.398438 1202.398438 C 992.609375 1198.609375 998.210938 1193.808594 1003.199219 1188 C 1009.886719 1157.164062 1004.289062 1129.167969 986.398438 1104 C 975.101562 1099.933594 963.898438 1095.9375 952.800781 1092 C 933.601562 1085.601562 914.398438 1085.601562 895.199219 1092 C 888.800781 1092 882.398438 1092 876 1092 C 878.007812 1088.535156 881.203125 1086.132812 885.601562 1084.800781 C 922.558594 1078.398438 957.757812 1083.195312 991.199219 1099.199219 C 1024.652344 1140.882812 1023.054688 1180.886719 986.398438 1219.199219 C 980.425781 1222.996094 974.027344 1225.398438 967.199219 1226.398438 Z M 967.199219 1226.398438 "/>
<path style=" stroke:none;fill-rule:evenodd;fill:rgb(54.509804%,54.509804%,54.509804%);fill-opacity:1;" d="M 952.800781 1092 C 963.898438 1095.9375 975.101562 1099.933594 986.398438 1104 C 1004.289062 1129.167969 1009.886719 1157.164062 1003.199219 1188 C 998.210938 1193.808594 992.609375 1198.609375 986.398438 1202.398438 C 996.089844 1177.359375 997.695312 1151.761719 991.199219 1125.601562 C 987.921875 1123.859375 984.71875 1122.257812 981.601562 1120.800781 C 973.597656 1109.601562 964 1100 952.800781 1092 Z M 952.800781 1092 "/>
</g>
</svg>
