<?xml version="1.0" encoding="UTF-8"?>
<svg xmlns="http://www.w3.org/2000/svg" xmlns:xlink="http://www.w3.org/1999/xlink" width="1920pt" height="1440pt" viewBox="0 0 1920 1440" version="1.1">
<g id="surface1">
<path style=" stroke:none;fill-rule:evenodd;fill:rgb(0%,0%,0%);fill-opacity:1;" d="M -2.398438 -2.398438 C 637.597656 -2.398438 1277.601562 -2.398438 1917.601562 -2.398438 C 1917.601562 477.601562 1917.601562 957.601562 1917.601562 1437.601562 C 1277.601562 1437.601562 637.597656 1437.601562 -2.398438 1437.601562 C -2.398438 957.601562 -2.398438 477.601562 -2.398438 -2.398438 Z M -2.398438 -2.398438 "/>
<path style=" stroke:none;fill-rule:evenodd;fill:rgb(70.980392%,70.980392%,70.980392%);fill-opacity:1;" d="M 991.199219 410.398438 C 955.945312 411.019531 920.746094 412.621094 885.601562 415.199219 C 920.53125 405.507812 955.726562 403.910156 991.199219 410.398438 Z M 991.199219 410.398438 "/>
<path style=" stroke:none;fill-rule:evenodd;fill:rgb(98.039216%,98.039216%,98.039216%);fill-opacity:1;" d="M 991.199219 410.398438 C 1131.5625 430.757812 1221.160156 509.160156 1260 645.601562 C 1262.582031 680.746094 1264.179688 715.945312 1264.800781 751.199219 C 1239.773438 905.828125 1150.171875 997.027344 996 1024.800781 C 959.140625 1024.339844 922.339844 1022.734375 885.601562 1020 C 751.339844 981.738281 672.941406 893.742188 650.398438 756 C 650.859375 719.140625 652.464844 682.339844 655.199219 645.601562 C 687.203125 524 764 447.199219 885.601562 415.199219 C 920.746094 412.621094 955.945312 411.019531 991.199219 410.398438 Z M 991.199219 410.398438 "/>
<path style=" stroke:none;fill-rule:evenodd;fill:rgb(0.784314%,0.784314%,0.784314%);fill-opacity:1;" d="M 928.800781 506.398438 C 972.152344 502.449219 1013.753906 508.847656 1053.601562 525.601562 C 1100.386719 548.378906 1133.984375 583.578125 1154.398438 631.199219 C 1157.417969 645.105469 1162.21875 657.90625 1168.800781 669.601562 C 1168.800781 676 1168.800781 682.402344 1168.800781 688.800781 C 1172.75 732.152344 1166.351562 773.753906 1149.601562 813.601562 C 1128.800781 856.800781 1096.800781 888.800781 1053.601562 909.601562 C 1041.757812 910.824219 1032.160156 915.625 1024.800781 924 C 986.761719 933.941406 948.359375 935.539062 909.601562 928.800781 C 897.90625 922.21875 885.105469 917.417969 871.199219 914.398438 C 823.578125 893.984375 788.378906 860.386719 765.601562 813.601562 C 760.980469 794.902344 754.578125 777.308594 746.398438 760.800781 C 740 730.402344 740 700 746.398438 669.601562 C 752.980469 657.90625 757.78125 645.105469 760.800781 631.199219 C 783.652344 580.34375 820.453125 542.746094 871.199219 518.398438 C 889.503906 509.894531 908.703125 505.894531 928.800781 506.398438 Z M 928.800781 506.398438 "/>
<path style=" stroke:none;fill-rule:evenodd;fill:rgb(49.411765%,49.411765%,49.411765%);fill-opacity:1;" d="M 928.800781 506.398438 C 953.519531 500.875 979.125 500.078125 1005.601562 504 C 1023.667969 508.089844 1039.664062 515.289062 1053.601562 525.601562 C 1013.753906 508.847656 972.152344 502.449219 928.800781 506.398438 Z M 928.800781 506.398438 "/>
<path style=" stroke:none;fill-rule:evenodd;fill:rgb(22.352941%,22.352941%,22.352941%);fill-opacity:1;" d="M 1447.199219 564 C 1398.75 527.363281 1356.351562 533.765625 1320 583.199219 C 1314.484375 597.085938 1312.085938 611.488281 1312.800781 626.398438 C 1311.546875 542.242188 1351.546875 514.238281 1432.800781 542.398438 C 1440.675781 547.820312 1445.476562 555.019531 1447.199219 564 Z M 1447.199219 564 "/>
<path style=" stroke:none;fill-rule:evenodd;fill:rgb(45.490196%,45.490196%,45.490196%);fill-opacity:1;" d="M 1447.199219 564 C 1455.421875 569.449219 1458.625 577.449219 1456.800781 588 C 1453.597656 586.402344 1450.402344 584.796875 1447.199219 583.199219 C 1409.300781 545.167969 1370.101562 545.167969 1329.601562 583.199219 C 1320.054688 601.214844 1316.054688 620.414062 1317.601562 640.800781 C 1313.261719 637.398438 1311.664062 632.597656 1312.800781 626.398438 C 1312.085938 611.488281 1314.484375 597.085938 1320 583.199219 C 1356.351562 533.765625 1398.75 527.363281 1447.199219 564 Z M 1447.199219 564 "/>
<path style=" stroke:none;fill-rule:evenodd;fill:rgb(61.176471%,61.176471%,61.176471%);fill-opacity:1;" d="M 760.800781 631.199219 C 757.78125 645.105469 752.980469 657.90625 746.398438 669.601562 C 745.65625 654.164062 750.457031 641.363281 760.800781 631.199219 Z M 760.800781 631.199219 "/>
<path style=" stroke:none;fill-rule:evenodd;fill:rgb(61.568627%,61.568627%,61.568627%);fill-opacity:1;" d="M 1154.398438 631.199219 C 1164.742188 641.363281 1169.542969 654.164062 1168.800781 669.601562 C 1162.21875 657.90625 1157.417969 645.105469 1154.398438 631.199219 Z M 1154.398438 631.199219 "/>
<path style=" stroke:none;fill-rule:evenodd;fill:rgb(73.72549%,73.72549%,73.72549%);fill-opacity:1;" d="M 1447.199219 583.199219 C 1450.402344 584.796875 1453.597656 586.402344 1456.800781 588 C 1460 588 1461.601562 589.597656 1461.601562 592.800781 C 1461.601562 599.199219 1461.601562 605.601562 1461.601562 612 C 1462.554688 628.515625 1460.15625 644.515625 1454.398438 660 C 1442.269531 672.128906 1430.269531 684.128906 1418.398438 696 C 1393.675781 699.925781 1369.675781 697.527344 1346.398438 688.800781 C 1340 679.199219 1332 671.199219 1322.398438 664.800781 C 1319.816406 657.039062 1318.21875 649.035156 1317.601562 640.800781 C 1316.054688 620.414062 1320.054688 601.214844 1329.601562 583.199219 C 1370.101562 545.167969 1409.300781 545.167969 1447.199219 583.199219 Z M 1447.199219 583.199219 "/>
<path style=" stroke:none;fill-rule:evenodd;fill:rgb(98.039216%,98.039216%,98.039216%);fill-opacity:1;" d="M 1447.199219 583.199219 C 1465.535156 624.910156 1454.332031 656.910156 1413.601562 679.199219 C 1352.195312 696.882812 1322.59375 674.480469 1324.800781 612 C 1337.910156 583.085938 1360.304688 570.28125 1392 573.601562 C 1411.070312 574.0625 1429.472656 577.257812 1447.199219 583.199219 Z M 1447.199219 583.199219 "/>
<path style=" stroke:none;fill-rule:evenodd;fill:rgb(54.901961%,54.901961%,54.901961%);fill-opacity:1;" d="M 1461.601562 612 C 1471.316406 648.003906 1461.714844 678.402344 1432.800781 703.199219 C 1399.769531 719.496094 1370.972656 714.695312 1346.398438 688.800781 C 1369.675781 697.527344 1393.675781 699.925781 1418.398438 696 C 1430.269531 684.128906 1442.269531 672.128906 1454.398438 660 C 1460.15625 644.515625 1462.554688 628.515625 1461.601562 612 Z M 1461.601562 612 "/>
<path style=" stroke:none;fill-rule:evenodd;fill:rgb(22.352941%,22.352941%,22.352941%);fill-opacity:1;" d="M 578.398438 741.601562 C 548.101562 714.414062 514.503906 710.414062 477.601562 729.601562 C 471.25 733.515625 468.050781 739.117188 468 746.398438 C 450.898438 765.207031 444.5 787.609375 448.800781 813.601562 C 435.621094 773.355469 446.820312 740.558594 482.398438 715.199219 C 516.039062 702.0625 546.4375 706.863281 573.601562 729.601562 C 577.210938 732.820312 578.8125 736.820312 578.398438 741.601562 Z M 578.398438 741.601562 "/>
<path style=" stroke:none;fill-rule:evenodd;fill:rgb(63.921569%,63.921569%,63.921569%);fill-opacity:1;" d="M 655.199219 645.601562 C 652.464844 682.339844 650.859375 719.140625 650.398438 756 C 643.8125 718.929688 645.414062 682.132812 655.199219 645.601562 Z M 655.199219 645.601562 "/>
<path style=" stroke:none;fill-rule:evenodd;fill:rgb(65.882353%,65.882353%,65.882353%);fill-opacity:1;" d="M 1260 645.601562 C 1269.691406 680.53125 1271.289062 715.726562 1264.800781 751.199219 C 1264.179688 715.945312 1262.582031 680.746094 1260 645.601562 Z M 1260 645.601562 "/>
<path style=" stroke:none;fill-rule:evenodd;fill:rgb(26.27451%,26.27451%,26.27451%);fill-opacity:1;" d="M 1461.601562 592.800781 C 1474.761719 626.113281 1473.960938 659.710938 1459.199219 693.601562 C 1435.703125 720.671875 1406.101562 731.074219 1370.398438 724.800781 C 1358.347656 711.152344 1344.75 699.152344 1329.601562 688.800781 C 1326.679688 680.859375 1324.28125 672.859375 1322.398438 664.800781 C 1332 671.199219 1340 679.199219 1346.398438 688.800781 C 1370.972656 714.695312 1399.769531 719.496094 1432.800781 703.199219 C 1461.714844 678.402344 1471.316406 648.003906 1461.601562 612 C 1461.601562 605.601562 1461.601562 599.199219 1461.601562 592.800781 Z M 1461.601562 592.800781 "/>
<path style=" stroke:none;fill-rule:evenodd;fill:rgb(41.176471%,41.176471%,41.176471%);fill-opacity:1;" d="M 578.398438 741.601562 C 589.601562 749.644531 594.402344 760.84375 592.800781 775.199219 C 591.203125 775.199219 589.597656 775.199219 588 775.199219 C 585.214844 764.40625 578.816406 756.40625 568.800781 751.199219 C 568.429688 745.199219 565.230469 741.203125 559.199219 739.199219 C 527.429688 728.785156 497.03125 731.183594 468 746.398438 C 468.050781 739.117188 471.25 733.515625 477.601562 729.601562 C 514.503906 710.414062 548.101562 714.414062 578.398438 741.601562 Z M 578.398438 741.601562 "/>
<path style=" stroke:none;fill-rule:evenodd;fill:rgb(81.176471%,81.176471%,81.176471%);fill-opacity:1;" d="M 568.800781 751.199219 C 578.816406 756.40625 585.214844 764.40625 588 775.199219 C 580.980469 770.601562 574.585938 765.003906 568.800781 758.398438 C 532.175781 750.960938 498.574219 757.363281 468 777.601562 C 461.851562 784.363281 457.050781 791.5625 453.601562 799.199219 C 468.273438 752.617188 500.273438 734.210938 549.601562 744 C 555.574219 747.796875 561.972656 750.195312 568.800781 751.199219 Z M 568.800781 751.199219 "/>
<path style=" stroke:none;fill-rule:evenodd;fill:rgb(98.431373%,98.431373%,98.431373%);fill-opacity:1;" d="M 588 775.199219 C 589.597656 775.199219 591.203125 775.199219 592.800781 775.199219 C 594.316406 791.894531 591.917969 807.898438 585.601562 823.199219 C 572.609375 834.308594 560.609375 846.308594 549.601562 859.199219 C 525.171875 863.164062 501.171875 861.5625 477.601562 854.398438 C 458.53125 841.042969 450.53125 822.644531 453.601562 799.199219 C 457.050781 791.5625 461.851562 784.363281 468 777.601562 C 498.574219 757.363281 532.175781 750.960938 568.800781 758.398438 C 574.585938 765.003906 580.980469 770.601562 588 775.199219 Z M 588 775.199219 "/>
<path style=" stroke:none;fill-rule:evenodd;fill:rgb(52.54902%,52.54902%,52.54902%);fill-opacity:1;" d="M 746.398438 760.800781 C 754.578125 777.308594 760.980469 794.902344 765.601562 813.601562 C 753.648438 798.59375 747.25 781 746.398438 760.800781 Z M 746.398438 760.800781 "/>
<path style=" stroke:none;fill-rule:evenodd;fill:rgb(49.411765%,49.411765%,49.411765%);fill-opacity:1;" d="M 1168.800781 688.800781 C 1174.324219 713.519531 1175.121094 739.125 1171.199219 765.601562 C 1167.109375 783.667969 1159.910156 799.664062 1149.601562 813.601562 C 1166.351562 773.753906 1172.75 732.152344 1168.800781 688.800781 Z M 1168.800781 688.800781 "/>
<path style=" stroke:none;fill-rule:evenodd;fill:rgb(67.45098%,67.45098%,67.45098%);fill-opacity:1;" d="M 568.800781 751.199219 C 561.972656 750.195312 555.574219 747.796875 549.601562 744 C 500.273438 734.210938 468.273438 752.617188 453.601562 799.199219 C 450.53125 822.644531 458.53125 841.042969 477.601562 854.398438 C 501.171875 861.5625 525.171875 863.164062 549.601562 859.199219 C 560.609375 846.308594 572.609375 834.308594 585.601562 823.199219 C 591.917969 807.898438 594.316406 791.894531 592.800781 775.199219 C 596.824219 776.839844 598.425781 780.039062 597.601562 784.800781 C 605.628906 843.949219 580.03125 875.945312 520.800781 880.800781 C 507.714844 879.925781 494.914062 877.527344 482.398438 873.601562 C 473.804688 865.097656 465.804688 856.300781 458.398438 847.199219 C 455.4375 846.667969 453.035156 845.070312 451.199219 842.398438 C 448.820312 832.929688 448.023438 823.328125 448.800781 813.601562 C 444.5 787.609375 450.898438 765.207031 468 746.398438 C 497.03125 731.183594 527.429688 728.785156 559.199219 739.199219 C 565.230469 741.203125 568.429688 745.199219 568.800781 751.199219 Z M 568.800781 751.199219 "/>
<path style=" stroke:none;fill-rule:evenodd;fill:rgb(38.431373%,38.431373%,38.431373%);fill-opacity:1;" d="M 597.601562 784.800781 C 615.867188 867.097656 582.269531 904.695312 496.800781 897.601562 C 475.636719 886.875 462.835938 870.078125 458.398438 847.199219 C 465.804688 856.300781 473.804688 865.097656 482.398438 873.601562 C 494.914062 877.527344 507.714844 879.925781 520.800781 880.800781 C 580.03125 875.945312 605.628906 843.949219 597.601562 784.800781 Z M 597.601562 784.800781 "/>
<path style=" stroke:none;fill-rule:evenodd;fill:rgb(57.647059%,57.647059%,57.647059%);fill-opacity:1;" d="M 1053.601562 909.601562 C 1046.242188 917.976562 1036.640625 922.777344 1024.800781 924 C 1032.160156 915.625 1041.757812 910.824219 1053.601562 909.601562 Z M 1053.601562 909.601562 "/>
<path style=" stroke:none;fill-rule:evenodd;fill:rgb(61.176471%,61.176471%,61.176471%);fill-opacity:1;" d="M 871.199219 914.398438 C 885.105469 917.417969 897.90625 922.21875 909.601562 928.800781 C 894.164062 929.542969 881.363281 924.742188 871.199219 914.398438 Z M 871.199219 914.398438 "/>
<path style=" stroke:none;fill-rule:evenodd;fill:rgb(63.921569%,63.921569%,63.921569%);fill-opacity:1;" d="M 885.601562 1020 C 922.339844 1022.734375 959.140625 1024.339844 996 1024.800781 C 958.929688 1031.386719 922.132812 1029.789062 885.601562 1020 Z M 885.601562 1020 "/>
</g>
</svg>
