<?xml version="1.0" encoding="UTF-8"?>
<svg xmlns="http://www.w3.org/2000/svg" xmlns:xlink="http://www.w3.org/1999/xlink" width="1920pt" height="1440pt" viewBox="0 0 1920 1440" version="1.1">
<g id="surface1">
<path style=" stroke:none;fill-rule:evenodd;fill:rgb(0%,0%,0%);fill-opacity:1;" d="M -2.398438 -2.398438 C 637.597656 -2.398438 1277.601562 -2.398438 1917.601562 -2.398438 C 1917.601562 477.601562 1917.601562 957.601562 1917.601562 1437.601562 C 1277.601562 1437.601562 637.597656 1437.601562 -2.398438 1437.601562 C -2.398438 957.601562 -2.398438 477.601562 -2.398438 -2.398438 Z M -2.398438 -2.398438 "/>
<path style=" stroke:none;fill-rule:evenodd;fill:rgb(98.039216%,98.039216%,98.039216%);fill-opacity:1;" d="M 1010.398438 391.199219 C 1023.453125 397.980469 1037.851562 401.183594 1053.601562 400.800781 C 1160.371094 435.761719 1232.371094 506.160156 1269.601562 612 C 1270.671875 629.578125 1275.46875 645.574219 1284 660 C 1290.398438 696.800781 1290.398438 733.597656 1284 770.398438 C 1277.21875 783.453125 1274.015625 797.851562 1274.398438 813.601562 C 1207.109375 983.269531 1082.308594 1060.070312 900 1044 C 885.574219 1035.46875 869.578125 1030.671875 852 1029.601562 C 746.160156 992.371094 675.757812 920.371094 640.800781 813.601562 C 641.183594 797.851562 637.980469 783.453125 631.199219 770.398438 C 625.167969 733.695312 625.167969 696.898438 631.199219 660 C 639.730469 645.574219 644.53125 629.578125 645.601562 612 C 676.550781 518.65625 737.347656 453.054688 828 415.199219 C 853.699219 411.089844 877.699219 403.089844 900 391.199219 C 936.800781 384.800781 973.597656 384.800781 1010.398438 391.199219 Z M 1010.398438 391.199219 "/>
<path style=" stroke:none;fill-rule:evenodd;fill:rgb(38.823529%,38.823529%,38.823529%);fill-opacity:1;" d="M 1010.398438 391.199219 C 1026.148438 390.816406 1040.546875 394.019531 1053.601562 400.800781 C 1037.851562 401.183594 1023.453125 397.980469 1010.398438 391.199219 Z M 1010.398438 391.199219 "/>
<path style=" stroke:none;fill-rule:evenodd;fill:rgb(72.941176%,72.941176%,72.941176%);fill-opacity:1;" d="M 900 391.199219 C 877.699219 403.089844 853.699219 411.089844 828 415.199219 C 850.007812 402.53125 874.007812 394.53125 900 391.199219 Z M 900 391.199219 "/>
<path style=" stroke:none;fill-rule:evenodd;fill:rgb(0.784314%,0.784314%,0.784314%);fill-opacity:1;" d="M 981.601562 511.199219 C 993.144531 517.285156 1005.945312 520.488281 1020 520.800781 C 1120.089844 560.144531 1168.089844 633.742188 1164 741.601562 C 1157.914062 753.144531 1154.710938 765.945312 1154.398438 780 C 1105.285156 890.972656 1020.484375 936.570312 900 916.800781 C 832.175781 892.976562 785.773438 847.378906 760.800781 780 C 760.488281 765.945312 757.285156 753.144531 751.199219 741.601562 C 748.324219 631.757812 797.929688 557.355469 900 518.398438 C 926.886719 512.558594 954.085938 510.160156 981.601562 511.199219 Z M 981.601562 511.199219 "/>
<path style=" stroke:none;fill-rule:evenodd;fill:rgb(64.705882%,64.705882%,64.705882%);fill-opacity:1;" d="M 981.601562 511.199219 C 995.976562 510.210938 1008.777344 513.40625 1020 520.800781 C 1005.945312 520.488281 993.144531 517.285156 981.601562 511.199219 Z M 981.601562 511.199219 "/>
<path style=" stroke:none;fill-rule:evenodd;fill:rgb(25.098039%,25.098039%,25.098039%);fill-opacity:1;" d="M 583.199219 664.800781 C 570.414062 652.832031 556.8125 641.636719 542.398438 631.199219 C 522.667969 626.859375 502.664062 625.261719 482.398438 626.398438 C 526.894531 608.71875 560.496094 621.519531 583.199219 664.800781 Z M 583.199219 664.800781 "/>
<path style=" stroke:none;fill-rule:evenodd;fill:rgb(21.176471%,21.176471%,21.176471%);fill-opacity:1;" d="M 1442.398438 650.398438 C 1413.734375 637.929688 1384.933594 637.929688 1356 650.398438 C 1365.964844 635.03125 1380.363281 628.632812 1399.199219 631.199219 C 1418.347656 628.800781 1432.746094 635.203125 1442.398438 650.398438 Z M 1442.398438 650.398438 "/>
<path style=" stroke:none;fill-rule:evenodd;fill:rgb(58.039216%,58.039216%,58.039216%);fill-opacity:1;" d="M 645.601562 612 C 644.53125 629.578125 639.730469 645.574219 631.199219 660 C 632.269531 642.421875 637.070312 626.425781 645.601562 612 Z M 645.601562 612 "/>
<path style=" stroke:none;fill-rule:evenodd;fill:rgb(58.039216%,58.039216%,58.039216%);fill-opacity:1;" d="M 1269.601562 612 C 1278.128906 626.425781 1282.929688 642.421875 1284 660 C 1275.46875 645.574219 1270.671875 629.578125 1269.601562 612 Z M 1269.601562 612 "/>
<path style=" stroke:none;fill-rule:evenodd;fill:rgb(44.313725%,44.313725%,44.313725%);fill-opacity:1;" d="M 482.398438 626.398438 C 502.664062 625.261719 522.667969 626.859375 542.398438 631.199219 C 556.8125 641.636719 570.414062 652.832031 583.199219 664.800781 C 586.664062 666.804688 589.066406 670.003906 590.398438 674.398438 C 591.203125 684.800781 592 695.199219 592.800781 705.601562 C 593.625 722.289062 590.429688 737.492188 583.199219 751.199219 C 583.199219 746.398438 583.199219 741.601562 583.199219 736.800781 C 589.378906 718.714844 589.378906 701.113281 583.199219 684 C 578.195312 671.730469 570.191406 661.328125 559.199219 652.800781 C 533.726562 635.210938 506.523438 632.015625 477.601562 643.199219 C 461.839844 656.503906 449.039062 671.707031 439.199219 688.800781 C 440.609375 658.714844 455.011719 637.914062 482.398438 626.398438 Z M 482.398438 626.398438 "/>
<path style=" stroke:none;fill-rule:evenodd;fill:rgb(98.823529%,98.823529%,98.823529%);fill-opacity:1;" d="M 583.199219 684 C 589.378906 701.113281 589.378906 718.714844 583.199219 736.800781 C 570.121094 742.621094 558.917969 751.421875 549.601562 763.199219 C 512.183594 770.953125 478.582031 763.753906 448.800781 741.601562 C 437.257812 707.828125 446.859375 681.425781 477.601562 662.398438 C 517.539062 648.582031 552.738281 655.78125 583.199219 684 Z M 583.199219 684 "/>
<path style=" stroke:none;fill-rule:evenodd;fill:rgb(46.666667%,46.666667%,46.666667%);fill-opacity:1;" d="M 1442.398438 650.398438 C 1461.175781 656.371094 1470.777344 669.171875 1471.199219 688.800781 C 1438.300781 653.574219 1399.902344 646.371094 1356 667.199219 C 1345.007812 675.730469 1337.007812 686.132812 1332 698.398438 C 1330.402344 698.398438 1328.796875 698.398438 1327.199219 698.398438 C 1327.167969 676.148438 1336.765625 660.148438 1356 650.398438 C 1384.933594 637.929688 1413.734375 637.929688 1442.398438 650.398438 Z M 1442.398438 650.398438 "/>
<path style=" stroke:none;fill-rule:evenodd;fill:rgb(80%,80%,80%);fill-opacity:1;" d="M 583.199219 684 C 552.738281 655.78125 517.539062 648.582031 477.601562 662.398438 C 446.859375 681.425781 437.257812 707.828125 448.800781 741.601562 C 445.601562 740 442.398438 738.398438 439.199219 736.800781 C 439.199219 720.800781 439.199219 704.796875 439.199219 688.800781 C 449.039062 671.707031 461.839844 656.503906 477.601562 643.199219 C 506.523438 632.015625 533.726562 635.210938 559.199219 652.800781 C 570.191406 661.328125 578.195312 671.730469 583.199219 684 Z M 583.199219 684 "/>
<path style=" stroke:none;fill-rule:evenodd;fill:rgb(98.431373%,98.431373%,98.431373%);fill-opacity:1;" d="M 1471.199219 746.398438 C 1444.386719 783.320312 1409.1875 793.722656 1365.601562 777.601562 C 1356.476562 769.734375 1346.875 762.53125 1336.800781 756 C 1333.597656 752.796875 1330.402344 749.601562 1327.199219 746.398438 C 1327.199219 730.402344 1327.199219 714.398438 1327.199219 698.398438 C 1328.796875 698.398438 1330.402344 698.398438 1332 698.398438 C 1376.992188 653.671875 1422.589844 653.671875 1468.800781 698.398438 C 1471.191406 714.320312 1471.992188 730.320312 1471.199219 746.398438 Z M 1471.199219 746.398438 "/>
<path style=" stroke:none;fill-rule:evenodd;fill:rgb(74.901961%,74.901961%,74.901961%);fill-opacity:1;" d="M 1471.199219 688.800781 C 1475.917969 707.03125 1477.523438 726.230469 1476 746.398438 C 1474.402344 746.398438 1472.796875 746.398438 1471.199219 746.398438 C 1471.992188 730.320312 1471.191406 714.320312 1468.800781 698.398438 C 1422.589844 653.671875 1376.992188 653.671875 1332 698.398438 C 1337.007812 686.132812 1345.007812 675.730469 1356 667.199219 C 1399.902344 646.371094 1438.300781 653.574219 1471.199219 688.800781 Z M 1471.199219 688.800781 "/>
<path style=" stroke:none;fill-rule:evenodd;fill:rgb(43.137255%,43.137255%,43.137255%);fill-opacity:1;" d="M 439.199219 736.800781 C 442.398438 738.398438 445.601562 740 448.800781 741.601562 C 448.988281 746.796875 450.589844 751.597656 453.601562 756 C 464.308594 763.726562 473.910156 772.527344 482.398438 782.398438 C 503.199219 785.601562 524 785.601562 544.800781 782.398438 C 556.875 771.125 569.679688 760.722656 583.199219 751.199219 C 578.890625 765.101562 570.886719 776.300781 559.199219 784.800781 C 523.402344 799.839844 489.800781 796.636719 458.398438 775.199219 C 447.5 765.0625 441.101562 752.261719 439.199219 736.800781 Z M 439.199219 736.800781 "/>
<path style=" stroke:none;fill-rule:evenodd;fill:rgb(72.941176%,72.941176%,72.941176%);fill-opacity:1;" d="M 583.199219 736.800781 C 583.199219 741.601562 583.199219 746.398438 583.199219 751.199219 C 569.679688 760.722656 556.875 771.125 544.800781 782.398438 C 524 785.601562 503.199219 785.601562 482.398438 782.398438 C 473.910156 772.527344 464.308594 763.726562 453.601562 756 C 450.589844 751.597656 448.988281 746.796875 448.800781 741.601562 C 478.582031 763.753906 512.183594 770.953125 549.601562 763.199219 C 558.917969 751.421875 570.121094 742.621094 583.199219 736.800781 Z M 583.199219 736.800781 "/>
<path style=" stroke:none;fill-rule:evenodd;fill:rgb(22.352941%,22.352941%,22.352941%);fill-opacity:1;" d="M 458.398438 775.199219 C 489.800781 796.636719 523.402344 799.839844 559.199219 784.800781 C 532.972656 806.851562 504.171875 809.25 472.800781 792 C 466.992188 787.011719 462.191406 781.410156 458.398438 775.199219 Z M 458.398438 775.199219 "/>
<path style=" stroke:none;fill-rule:evenodd;fill:rgb(64.705882%,64.705882%,64.705882%);fill-opacity:1;" d="M 751.199219 741.601562 C 757.285156 753.144531 760.488281 765.945312 760.800781 780 C 753.40625 768.777344 750.210938 755.976562 751.199219 741.601562 Z M 751.199219 741.601562 "/>
<path style=" stroke:none;fill-rule:evenodd;fill:rgb(64.705882%,64.705882%,64.705882%);fill-opacity:1;" d="M 1164 741.601562 C 1164.988281 755.976562 1161.792969 768.777344 1154.398438 780 C 1154.710938 765.945312 1157.914062 753.144531 1164 741.601562 Z M 1164 741.601562 "/>
<path style=" stroke:none;fill-rule:evenodd;fill:rgb(38.823529%,38.823529%,38.823529%);fill-opacity:1;" d="M 631.199219 770.398438 C 637.980469 783.453125 641.183594 797.851562 640.800781 813.601562 C 634.019531 800.546875 630.816406 786.148438 631.199219 770.398438 Z M 631.199219 770.398438 "/>
<path style=" stroke:none;fill-rule:evenodd;fill:rgb(38.823529%,38.823529%,38.823529%);fill-opacity:1;" d="M 1284 770.398438 C 1284.382812 786.148438 1281.183594 800.546875 1274.398438 813.601562 C 1274.015625 797.851562 1277.21875 783.453125 1284 770.398438 Z M 1284 770.398438 "/>
<path style=" stroke:none;fill-rule:evenodd;fill:rgb(43.921569%,43.921569%,43.529412%);fill-opacity:1;" d="M 1327.199219 746.398438 C 1330.402344 749.601562 1333.597656 752.796875 1336.800781 756 C 1349.726562 784.398438 1372.128906 798.796875 1404 799.199219 C 1437.0625 795.4375 1459.460938 777.839844 1471.199219 746.398438 C 1472.796875 746.398438 1474.402344 746.398438 1476 746.398438 C 1475.558594 766.484375 1467.558594 782.480469 1452 794.398438 C 1410.210938 811.117188 1371.8125 806.320312 1336.800781 780 C 1329.921875 770.121094 1326.71875 758.917969 1327.199219 746.398438 Z M 1327.199219 746.398438 "/>
<path style=" stroke:none;fill-rule:evenodd;fill:rgb(73.333333%,73.333333%,73.333333%);fill-opacity:1;" d="M 1471.199219 746.398438 C 1459.460938 777.839844 1437.0625 795.4375 1404 799.199219 C 1372.128906 798.796875 1349.726562 784.398438 1336.800781 756 C 1346.875 762.53125 1356.476562 769.734375 1365.601562 777.601562 C 1409.1875 793.722656 1444.386719 783.320312 1471.199219 746.398438 Z M 1471.199219 746.398438 "/>
<path style=" stroke:none;fill-rule:evenodd;fill:rgb(29.019608%,29.019608%,29.019608%);fill-opacity:1;" d="M 1336.800781 780 C 1371.8125 806.320312 1410.210938 811.117188 1452 794.398438 C 1446.003906 802.253906 1438.003906 807.855469 1428 811.199219 C 1407.203125 814.402344 1386.398438 814.402344 1365.601562 811.199219 C 1351.636719 804.453125 1342.035156 794.054688 1336.800781 780 Z M 1336.800781 780 "/>
<path style=" stroke:none;fill-rule:evenodd;fill:rgb(58.039216%,58.039216%,58.039216%);fill-opacity:1;" d="M 852 1029.601562 C 869.578125 1030.671875 885.574219 1035.46875 900 1044 C 882.421875 1042.929688 866.425781 1038.128906 852 1029.601562 Z M 852 1029.601562 "/>
</g>
</svg>
