<?xml version="1.0" encoding="UTF-8"?>
<svg xmlns="http://www.w3.org/2000/svg" xmlns:xlink="http://www.w3.org/1999/xlink" width="1920pt" height="1440pt" viewBox="0 0 1920 1440" version="1.1">
<g id="surface1">
<path style=" stroke:none;fill-rule:evenodd;fill:rgb(0%,0%,0%);fill-opacity:1;" d="M -2.398438 -2.398438 C 637.597656 -2.398438 1277.601562 -2.398438 1917.601562 -2.398438 C 1917.601562 477.601562 1917.601562 957.601562 1917.601562 1437.601562 C 1277.601562 1437.601562 637.597656 1437.601562 -2.398438 1437.601562 C -2.398438 957.601562 -2.398438 477.601562 -2.398438 -2.398438 Z M -2.398438 -2.398438 "/>
<path style=" stroke:none;fill-rule:evenodd;fill:rgb(98.039216%,98.039216%,98.039216%);fill-opacity:1;" d="M 1072.800781 405.601562 C 1076.578125 413.300781 1082.976562 416.5 1092 415.199219 C 1099.359375 423.578125 1108.957031 428.375 1120.800781 429.601562 C 1242.710938 503.804688 1298.707031 612.601562 1288.800781 756 C 1282.714844 767.542969 1279.511719 780.34375 1279.199219 794.398438 C 1253.523438 900.078125 1191.125 975.277344 1092 1020 C 1082.867188 1021.421875 1074.863281 1024.621094 1068 1029.601562 C 1058.867188 1031.019531 1050.863281 1034.222656 1044 1039.199219 C 1033.820312 1038.359375 1024.21875 1039.964844 1015.199219 1044 C 983.371094 1047.988281 951.371094 1049.585938 919.199219 1048.800781 C 772.261719 1022.691406 677.0625 937.890625 633.601562 794.398438 C 622.253906 735.503906 624.652344 677.902344 640.800781 621.601562 C 648.355469 613.910156 651.558594 604.308594 650.398438 592.800781 C 651.820312 583.664062 655.023438 575.664062 660 568.800781 C 666.75 566.53125 669.949219 561.730469 669.601562 554.398438 C 673.644531 539.921875 680.847656 527.121094 691.199219 516 C 712.800781 494.398438 734.398438 472.800781 756 451.199219 C 767.121094 440.847656 779.921875 433.648438 794.398438 429.601562 C 801.730469 429.949219 806.53125 426.75 808.800781 420 C 815.664062 415.019531 823.664062 411.820312 832.800781 410.398438 C 850.003906 408.117188 866 403.316406 880.800781 396 C 945.027344 381.609375 1009.03125 384.8125 1072.800781 405.601562 Z M 1072.800781 405.601562 "/>
<path style=" stroke:none;fill-rule:evenodd;fill:rgb(61.960784%,61.960784%,61.960784%);fill-opacity:1;" d="M 880.800781 396 C 866 403.316406 850.003906 408.117188 832.800781 410.398438 C 846.628906 399.9375 862.628906 395.136719 880.800781 396 Z M 880.800781 396 "/>
<path style=" stroke:none;fill-rule:evenodd;fill:rgb(58.431373%,58.431373%,58.431373%);fill-opacity:1;" d="M 1072.800781 405.601562 C 1080.734375 406.367188 1087.132812 409.566406 1092 415.199219 C 1082.976562 416.5 1076.578125 413.300781 1072.800781 405.601562 Z M 1072.800781 405.601562 "/>
<path style=" stroke:none;fill-rule:evenodd;fill:rgb(56.862745%,56.862745%,56.862745%);fill-opacity:1;" d="M 808.800781 420 C 806.53125 426.75 801.730469 429.949219 794.398438 429.601562 C 796.671875 422.851562 801.46875 419.648438 808.800781 420 Z M 808.800781 420 "/>
<path style=" stroke:none;fill-rule:evenodd;fill:rgb(54.117647%,54.117647%,54.117647%);fill-opacity:1;" d="M 1092 415.199219 C 1103.839844 416.421875 1113.441406 421.222656 1120.800781 429.601562 C 1108.957031 428.375 1099.359375 423.578125 1092 415.199219 Z M 1092 415.199219 "/>
<path style=" stroke:none;fill-rule:evenodd;fill:rgb(27.058824%,27.058824%,27.058824%);fill-opacity:1;" d="M 948 506.398438 C 932.851562 510.882812 916.851562 514.085938 900 516 C 902.007812 512.535156 905.203125 510.132812 909.601562 508.800781 C 922.300781 506.414062 935.101562 505.613281 948 506.398438 Z M 948 506.398438 "/>
<path style=" stroke:none;fill-rule:evenodd;fill:rgb(0.784314%,0.784314%,0.784314%);fill-opacity:1;" d="M 948 506.398438 C 959.199219 506.398438 970.402344 506.398438 981.601562 506.398438 C 993.144531 512.488281 1005.945312 515.6875 1020 516 C 1026.863281 520.976562 1034.867188 524.179688 1044 525.601562 C 1137.332031 573.59375 1178.132812 650.394531 1166.398438 756 C 1149.191406 826.726562 1108.390625 877.925781 1044 909.601562 C 1024.035156 915.1875 1004.835938 921.585938 986.398438 928.800781 C 898.769531 935.40625 829.96875 903.40625 780 832.800781 C 780.351562 825.46875 777.148438 820.671875 770.398438 818.398438 C 770.125 813.078125 768.527344 808.277344 765.601562 804 C 764.179688 794.867188 760.976562 786.863281 756 780 C 752.15625 772.597656 750.558594 764.601562 751.199219 756 C 747.699219 733.777344 746.097656 711.375 746.398438 688.800781 C 749.921875 683 751.523438 676.601562 751.199219 669.601562 C 756.175781 662.734375 759.378906 654.734375 760.800781 645.601562 C 783.839844 577.777344 830.238281 534.574219 900 516 C 916.851562 514.085938 932.851562 510.882812 948 506.398438 Z M 948 506.398438 "/>
<path style=" stroke:none;fill-rule:evenodd;fill:rgb(56.862745%,56.862745%,56.862745%);fill-opacity:1;" d="M 981.601562 506.398438 C 995.976562 505.410156 1008.777344 508.609375 1020 516 C 1005.945312 515.6875 993.144531 512.488281 981.601562 506.398438 Z M 981.601562 506.398438 "/>
<path style=" stroke:none;fill-rule:evenodd;fill:rgb(56.078431%,56.078431%,56.078431%);fill-opacity:1;" d="M 1020 516 C 1030.550781 514.175781 1038.550781 517.378906 1044 525.601562 C 1034.867188 524.179688 1026.863281 520.976562 1020 516 Z M 1020 516 "/>
<path style=" stroke:none;fill-rule:evenodd;fill:rgb(48.627451%,48.627451%,48.235294%);fill-opacity:1;" d="M 669.601562 554.398438 C 669.949219 561.730469 666.75 566.53125 660 568.800781 C 659.648438 561.46875 662.851562 556.671875 669.601562 554.398438 Z M 669.601562 554.398438 "/>
<path style=" stroke:none;fill-rule:evenodd;fill:rgb(41.960784%,41.960784%,41.960784%);fill-opacity:1;" d="M 1456.800781 592.800781 C 1425.195312 568.011719 1390 562.410156 1351.199219 576 C 1334.546875 586.992188 1324.949219 602.1875 1322.398438 621.601562 C 1317.789062 630.070312 1316.183594 639.671875 1317.601562 650.398438 C 1308.945312 608.539062 1324.949219 578.140625 1365.601562 559.199219 C 1404.144531 550.550781 1434.542969 561.75 1456.800781 592.800781 Z M 1456.800781 592.800781 "/>
<path style=" stroke:none;fill-rule:evenodd;fill:rgb(72.156863%,72.156863%,72.156863%);fill-opacity:1;" d="M 1456.800781 592.800781 C 1456.800781 596 1456.800781 599.199219 1456.800781 602.398438 C 1445.039062 596.269531 1433.839844 589.070312 1423.199219 580.800781 C 1404 577.597656 1384.800781 577.597656 1365.601562 580.800781 C 1337.785156 600.421875 1324.980469 626.824219 1327.199219 660 C 1322.53125 648.25 1320.929688 635.449219 1322.398438 621.601562 C 1324.949219 602.1875 1334.546875 586.992188 1351.199219 576 C 1390 562.410156 1425.195312 568.011719 1456.800781 592.800781 Z M 1456.800781 592.800781 "/>
<path style=" stroke:none;fill-rule:evenodd;fill:rgb(98.431373%,98.431373%,98.431373%);fill-opacity:1;" d="M 1456.800781 602.398438 C 1463.546875 604.671875 1466.75 609.46875 1466.398438 616.800781 C 1466.769531 638.21875 1463.566406 659.015625 1456.800781 679.199219 C 1420.152344 699.964844 1381.753906 703.160156 1341.601562 688.800781 C 1334.609375 680.238281 1329.8125 670.636719 1327.199219 660 C 1324.980469 626.824219 1337.785156 600.421875 1365.601562 580.800781 C 1384.800781 577.597656 1404 577.597656 1423.199219 580.800781 C 1433.839844 589.070312 1445.039062 596.269531 1456.800781 602.398438 Z M 1456.800781 602.398438 "/>
<path style=" stroke:none;fill-rule:evenodd;fill:rgb(64.705882%,64.705882%,64.705882%);fill-opacity:1;" d="M 650.398438 592.800781 C 651.558594 604.308594 648.355469 613.910156 640.800781 621.601562 C 639.644531 610.089844 642.84375 600.488281 650.398438 592.800781 Z M 650.398438 592.800781 "/>
<path style=" stroke:none;fill-rule:evenodd;fill:rgb(55.294118%,55.294118%,55.294118%);fill-opacity:1;" d="M 1466.398438 616.800781 C 1469.574219 624.644531 1471.171875 633.441406 1471.199219 643.199219 C 1471.292969 660.792969 1468.089844 677.59375 1461.601562 693.601562 C 1460 693.601562 1458.398438 693.601562 1456.800781 693.601562 C 1456.800781 688.800781 1456.800781 684 1456.800781 679.199219 C 1463.566406 659.015625 1466.769531 638.21875 1466.398438 616.800781 Z M 1466.398438 616.800781 "/>
<path style=" stroke:none;fill-rule:evenodd;fill:rgb(50.588235%,50.588235%,50.588235%);fill-opacity:1;" d="M 760.800781 645.601562 C 759.378906 654.734375 756.175781 662.734375 751.199219 669.601562 C 749.375 659.050781 752.578125 651.046875 760.800781 645.601562 Z M 760.800781 645.601562 "/>
<path style=" stroke:none;fill-rule:evenodd;fill:rgb(85.490196%,85.490196%,85.490196%);fill-opacity:1;" d="M 1456.800781 679.199219 C 1456.800781 684 1456.800781 688.800781 1456.800781 693.601562 C 1436.015625 700.785156 1415.21875 707.183594 1394.398438 712.800781 C 1372.535156 713.027344 1354.933594 705.027344 1341.601562 688.800781 C 1381.753906 703.160156 1420.152344 699.964844 1456.800781 679.199219 Z M 1456.800781 679.199219 "/>
<path style=" stroke:none;fill-rule:evenodd;fill:rgb(29.803922%,29.803922%,29.803922%);fill-opacity:1;" d="M 583.199219 741.601562 C 574.175781 742.902344 567.777344 739.699219 564 732 C 557.226562 722.210938 547.628906 717.414062 535.199219 717.601562 C 514.355469 711.007812 493.554688 712.609375 472.800781 722.398438 C 475.785156 713.59375 482.1875 707.992188 492 705.601562 C 519.089844 700.464844 544.691406 704.46875 568.800781 717.601562 C 575.769531 724.511719 580.570312 732.507812 583.199219 741.601562 Z M 583.199219 741.601562 "/>
<path style=" stroke:none;fill-rule:evenodd;fill:rgb(24.313725%,24.313725%,24.313725%);fill-opacity:1;" d="M 1456.800781 693.601562 C 1458.398438 693.601562 1460 693.601562 1461.601562 693.601562 C 1452.539062 711.421875 1438.136719 723.421875 1418.398438 729.601562 C 1399.199219 732.800781 1380 732.800781 1360.800781 729.601562 C 1354.992188 724.613281 1350.191406 719.011719 1346.398438 712.800781 C 1388.371094 730.839844 1425.171875 724.441406 1456.800781 693.601562 Z M 1456.800781 693.601562 "/>
<path style=" stroke:none;fill-rule:evenodd;fill:rgb(70.588235%,70.588235%,70.588235%);fill-opacity:1;" d="M 746.398438 688.800781 C 746.097656 711.375 747.699219 733.777344 751.199219 756 C 743.773438 744.925781 740.578125 732.128906 741.601562 717.601562 C 741.625 707.058594 743.222656 697.460938 746.398438 688.800781 Z M 746.398438 688.800781 "/>
<path style=" stroke:none;fill-rule:evenodd;fill:rgb(51.764706%,51.764706%,51.764706%);fill-opacity:1;" d="M 1322.398438 621.601562 C 1320.929688 635.449219 1322.53125 648.25 1327.199219 660 C 1329.8125 670.636719 1334.609375 680.238281 1341.601562 688.800781 C 1354.933594 705.027344 1372.535156 713.027344 1394.398438 712.800781 C 1415.21875 707.183594 1436.015625 700.785156 1456.800781 693.601562 C 1425.171875 724.441406 1388.371094 730.839844 1346.398438 712.800781 C 1329.445312 695.601562 1319.847656 674.804688 1317.601562 650.398438 C 1316.183594 639.671875 1317.789062 630.070312 1322.398438 621.601562 Z M 1322.398438 621.601562 "/>
<path style=" stroke:none;fill-rule:evenodd;fill:rgb(63.921569%,63.921569%,63.921569%);fill-opacity:1;" d="M 535.199219 717.601562 C 547.628906 717.414062 557.226562 722.210938 564 732 C 538.574219 728.28125 512.976562 726.679688 487.199219 727.199219 C 487.914062 732.25 487.117188 737.050781 484.800781 741.601562 C 472.425781 747.316406 462.023438 755.3125 453.601562 765.601562 C 466.585938 726.511719 493.785156 710.515625 535.199219 717.601562 Z M 535.199219 717.601562 "/>
<path style=" stroke:none;fill-rule:evenodd;fill:rgb(45.490196%,45.490196%,45.490196%);fill-opacity:1;" d="M 535.199219 717.601562 C 493.785156 710.515625 466.585938 726.511719 453.601562 765.601562 C 447.628906 787.367188 447.628906 809.769531 453.601562 832.800781 C 450.636719 832.265625 448.238281 830.667969 446.398438 828 C 437.378906 787.140625 446.179688 751.9375 472.800781 722.398438 C 493.554688 712.609375 514.355469 711.007812 535.199219 717.601562 Z M 535.199219 717.601562 "/>
<path style=" stroke:none;fill-rule:evenodd;fill:rgb(96.862745%,96.862745%,96.862745%);fill-opacity:1;" d="M 564 732 C 567.777344 739.699219 574.175781 742.902344 583.199219 741.601562 C 582.042969 753.109375 585.246094 762.710938 592.800781 770.398438 C 593.765625 785.894531 592.160156 801.097656 588 816 C 576.832031 827.914062 568.832031 841.515625 564 856.800781 C 522.3125 868.53125 485.511719 860.53125 453.601562 832.800781 C 447.628906 809.769531 447.628906 787.367188 453.601562 765.601562 C 462.023438 755.3125 472.425781 747.316406 484.800781 741.601562 C 487.117188 737.050781 487.914062 732.25 487.199219 727.199219 C 512.976562 726.679688 538.574219 728.28125 564 732 Z M 564 732 "/>
<path style=" stroke:none;fill-rule:evenodd;fill:rgb(50.588235%,50.588235%,50.588235%);fill-opacity:1;" d="M 583.199219 741.601562 C 590.753906 749.289062 593.957031 758.890625 592.800781 770.398438 C 585.246094 762.710938 582.042969 753.109375 583.199219 741.601562 Z M 583.199219 741.601562 "/>
<path style=" stroke:none;fill-rule:evenodd;fill:rgb(41.568627%,41.568627%,41.568627%);fill-opacity:1;" d="M 1288.800781 756 C 1289.789062 770.375 1286.59375 783.175781 1279.199219 794.398438 C 1279.511719 780.34375 1282.714844 767.542969 1288.800781 756 Z M 1288.800781 756 "/>
<path style=" stroke:none;fill-rule:evenodd;fill:rgb(56.470588%,56.470588%,56.470588%);fill-opacity:1;" d="M 756 780 C 760.976562 786.863281 764.179688 794.867188 765.601562 804 C 757.378906 798.550781 754.175781 790.550781 756 780 Z M 756 780 "/>
<path style=" stroke:none;fill-rule:evenodd;fill:rgb(56.862745%,56.862745%,56.862745%);fill-opacity:1;" d="M 770.398438 818.398438 C 777.148438 820.671875 780.351562 825.46875 780 832.800781 C 773.25 830.53125 770.050781 825.730469 770.398438 818.398438 Z M 770.398438 818.398438 "/>
<path style=" stroke:none;fill-rule:evenodd;fill:rgb(56.862745%,56.862745%,56.862745%);fill-opacity:1;" d="M 592.800781 770.398438 C 597.140625 773.804688 598.738281 778.601562 597.601562 784.800781 C 602.785156 817.320312 591.585938 841.320312 564 856.800781 C 568.832031 841.515625 576.832031 827.914062 588 816 C 592.160156 801.097656 593.765625 785.894531 592.800781 770.398438 Z M 592.800781 770.398438 "/>
<path style=" stroke:none;fill-rule:evenodd;fill:rgb(55.686275%,55.686275%,55.686275%);fill-opacity:1;" d="M 453.601562 832.800781 C 485.511719 860.53125 522.3125 868.53125 564 856.800781 C 531.316406 876.90625 499.320312 875.308594 468 852 C 458.660156 849.433594 453.859375 843.035156 453.601562 832.800781 Z M 453.601562 832.800781 "/>
<path style=" stroke:none;fill-rule:evenodd;fill:rgb(27.058824%,27.058824%,27.058824%);fill-opacity:1;" d="M 597.601562 784.800781 C 603.867188 800.097656 603.867188 816.097656 597.601562 832.800781 C 575.707031 876.171875 540.503906 891.375 492 878.398438 C 485.28125 871.496094 477.277344 867.5 468 866.398438 C 468 861.601562 468 856.800781 468 852 C 499.320312 875.308594 531.316406 876.90625 564 856.800781 C 591.585938 841.320312 602.785156 817.320312 597.601562 784.800781 Z M 597.601562 784.800781 "/>
<path style=" stroke:none;fill-rule:evenodd;fill:rgb(64.313725%,64.313725%,64.313725%);fill-opacity:1;" d="M 1044 909.601562 C 1027.578125 922.539062 1008.378906 928.945312 986.398438 928.800781 C 1004.835938 921.585938 1024.035156 915.1875 1044 909.601562 Z M 1044 909.601562 "/>
<path style=" stroke:none;fill-rule:evenodd;fill:rgb(35.686275%,35.686275%,35.686275%);fill-opacity:1;" d="M 1092 1020 C 1086.550781 1028.222656 1078.550781 1031.425781 1068 1029.601562 C 1074.863281 1024.621094 1082.867188 1021.421875 1092 1020 Z M 1092 1020 "/>
<path style=" stroke:none;fill-rule:evenodd;fill:rgb(34.509804%,34.509804%,34.509804%);fill-opacity:1;" d="M 1068 1029.601562 C 1062.550781 1037.824219 1054.550781 1041.023438 1044 1039.199219 C 1050.863281 1034.222656 1058.867188 1031.019531 1068 1029.601562 Z M 1068 1029.601562 "/>
<path style=" stroke:none;fill-rule:evenodd;fill:rgb(20.392157%,20.392157%,20.392157%);fill-opacity:1;" d="M 1015.199219 1044 C 998.238281 1051.429688 979.839844 1054.628906 960 1053.601562 C 945.5 1053.589844 931.902344 1051.988281 919.199219 1048.800781 C 951.371094 1049.585938 983.371094 1047.988281 1015.199219 1044 Z M 1015.199219 1044 "/>
</g>
</svg>
