<?xml version="1.0" encoding="UTF-8"?>
<svg xmlns="http://www.w3.org/2000/svg" xmlns:xlink="http://www.w3.org/1999/xlink" width="1920pt" height="1440pt" viewBox="0 0 1920 1440" version="1.1">
<g id="surface1">
<path style=" stroke:none;fill-rule:evenodd;fill:rgb(0%,0%,0%);fill-opacity:1;" d="M -2.398438 -2.398438 C 637.597656 -2.398438 1277.601562 -2.398438 1917.601562 -2.398438 C 1917.601562 477.601562 1917.601562 957.601562 1917.601562 1437.601562 C 1277.601562 1437.601562 637.597656 1437.601562 -2.398438 1437.601562 C -2.398438 957.601562 -2.398438 477.601562 -2.398438 -2.398438 Z M -2.398438 -2.398438 "/>
<path style=" stroke:none;fill-rule:evenodd;fill:rgb(99.215686%,99.215686%,99.215686%);fill-opacity:1;" d="M 664.800781 492 C 664.800781 495.203125 663.203125 496.800781 660 496.800781 C 642.3125 499.21875 624.714844 502.414062 607.199219 506.398438 C 598.566406 506.03125 590.5625 503.628906 583.199219 499.199219 C 555.089844 475.824219 542.289062 446.222656 544.800781 410.398438 C 549.601562 402.398438 556 396 564 391.199219 C 641.050781 381.847656 674.648438 415.449219 664.800781 492 Z M 664.800781 492 "/>
<path style=" stroke:none;fill-rule:evenodd;fill:rgb(76.470588%,76.470588%,76.470588%);fill-opacity:1;" d="M 679.199219 463.199219 C 675.675781 468.996094 674.078125 475.398438 674.398438 482.398438 C 672.800781 487.199219 669.601562 490.402344 664.800781 492 C 674.648438 415.449219 641.050781 381.847656 564 391.199219 C 574.84375 380.375 588.441406 375.574219 604.800781 376.800781 C 654.644531 384.230469 679.441406 413.03125 679.199219 463.199219 Z M 679.199219 463.199219 "/>
<path style=" stroke:none;fill-rule:evenodd;fill:rgb(53.72549%,53.72549%,53.72549%);fill-opacity:1;" d="M 679.199219 463.199219 C 679.441406 413.03125 654.644531 384.230469 604.800781 376.800781 C 588.441406 375.574219 574.84375 380.375 564 391.199219 C 556 396 549.601562 402.398438 544.800781 410.398438 C 543.203125 410.398438 541.597656 410.398438 540 410.398438 C 549.601562 391.199219 564 376.800781 583.199219 367.199219 C 605.460938 358.984375 626.261719 361.382812 645.601562 374.398438 C 659.386719 386.574219 671.386719 400.175781 681.601562 415.199219 C 685.476562 432.128906 684.675781 448.128906 679.199219 463.199219 Z M 679.199219 463.199219 "/>
<path style=" stroke:none;fill-rule:evenodd;fill:rgb(30.196078%,30.196078%,30.196078%);fill-opacity:1;" d="M 674.398438 482.398438 C 674.078125 475.398438 675.675781 468.996094 679.199219 463.199219 C 684.675781 448.128906 685.476562 432.128906 681.601562 415.199219 C 671.386719 400.175781 659.386719 386.574219 645.601562 374.398438 C 626.261719 361.382812 605.460938 358.984375 583.199219 367.199219 C 628.628906 345.875 664.628906 357.074219 691.199219 400.800781 C 694.402344 420 694.402344 439.199219 691.199219 458.398438 C 686.257812 467.261719 680.660156 475.261719 674.398438 482.398438 Z M 674.398438 482.398438 "/>
<path style=" stroke:none;fill-rule:evenodd;fill:rgb(98.039216%,98.039216%,98.039216%);fill-opacity:1;" d="M 1015.199219 1034.398438 C 983.34375 1038.125 951.339844 1039.722656 919.199219 1039.199219 C 741.445312 1005.238281 647.042969 898.035156 636 717.601562 C 639.585938 576.800781 705.1875 476.804688 832.800781 417.601562 C 945.128906 378.121094 1050.730469 390.917969 1149.601562 456 C 1273.292969 559.503906 1309.292969 688.300781 1257.601562 842.398438 C 1208.5625 946.652344 1127.765625 1010.648438 1015.199219 1034.398438 Z M 1015.199219 1034.398438 "/>
<path style=" stroke:none;fill-rule:evenodd;fill:rgb(20.784314%,20.784314%,20.784314%);fill-opacity:1;" d="M 525.601562 429.601562 C 525.015625 452.3125 527.414062 474.710938 532.800781 496.800781 C 542.855469 504.425781 550.054688 514.027344 554.398438 525.601562 C 536.367188 519.519531 525.964844 506.71875 523.199219 487.199219 C 519.300781 467.09375 520.105469 447.894531 525.601562 429.601562 Z M 525.601562 429.601562 "/>
<path style=" stroke:none;fill-rule:evenodd;fill:rgb(82.745098%,82.745098%,82.745098%);fill-opacity:1;" d="M 540 410.398438 C 541.597656 410.398438 543.203125 410.398438 544.800781 410.398438 C 542.289062 446.222656 555.089844 475.824219 583.199219 499.199219 C 590.5625 503.628906 598.566406 506.03125 607.199219 506.398438 C 624.714844 502.414062 642.3125 499.21875 660 496.800781 C 658.402344 501.601562 655.199219 504.800781 650.398438 506.398438 C 621.550781 512.730469 592.753906 511.933594 564 504 C 555.054688 491.097656 545.453125 479.097656 535.199219 468 C 534.273438 448.480469 535.871094 429.28125 540 410.398438 Z M 540 410.398438 "/>
<path style=" stroke:none;fill-rule:evenodd;fill:rgb(61.960784%,61.960784%,61.960784%);fill-opacity:1;" d="M 535.199219 468 C 545.453125 479.097656 555.054688 491.097656 564 504 C 592.753906 511.933594 621.550781 512.730469 650.398438 506.398438 C 648.800781 509.601562 647.199219 512.796875 645.601562 516 C 621.777344 520.78125 597.777344 521.582031 573.601562 518.398438 C 550.160156 509.617188 537.359375 492.816406 535.199219 468 Z M 535.199219 468 "/>
<path style=" stroke:none;fill-rule:evenodd;fill:rgb(41.568627%,41.568627%,41.568627%);fill-opacity:1;" d="M 540 410.398438 C 535.871094 429.28125 534.273438 448.480469 535.199219 468 C 537.359375 492.816406 550.160156 509.617188 573.601562 518.398438 C 597.777344 521.582031 621.777344 520.78125 645.601562 516 C 640.320312 521.078125 633.917969 525.082031 626.398438 528 C 602.152344 531.484375 578.152344 530.683594 554.398438 525.601562 C 550.054688 514.027344 542.855469 504.425781 532.800781 496.800781 C 527.414062 474.710938 525.015625 452.3125 525.601562 429.601562 C 528.125 421.292969 532.925781 414.894531 540 410.398438 Z M 540 410.398438 "/>
<path style=" stroke:none;fill-rule:evenodd;fill:rgb(1.176471%,1.176471%,1.176471%);fill-opacity:1;" d="M 1144.800781 736.800781 C 1138.714844 748.34375 1135.511719 761.144531 1135.199219 775.199219 C 1085.734375 884.433594 1002.53125 923.628906 885.601562 892.800781 C 804.910156 849.058594 767.3125 781.054688 772.800781 688.800781 C 778.292969 643.554688 798.292969 605.957031 832.800781 576 C 847.527344 560.640625 865.125 550.242188 885.601562 544.800781 C 897.109375 545.957031 906.710938 542.753906 914.398438 535.199219 C 981.484375 524.503906 1040.683594 541.304688 1092 585.601562 C 1131.945312 627.589844 1149.546875 677.992188 1144.800781 736.800781 Z M 1144.800781 736.800781 "/>
<path style=" stroke:none;fill-rule:evenodd;fill:rgb(32.54902%,32.54902%,32.54902%);fill-opacity:1;" d="M 914.398438 535.199219 C 906.710938 542.753906 897.109375 545.957031 885.601562 544.800781 C 893.289062 537.246094 902.890625 534.042969 914.398438 535.199219 Z M 914.398438 535.199219 "/>
<path style=" stroke:none;fill-rule:evenodd;fill:rgb(52.941176%,52.941176%,52.941176%);fill-opacity:1;" d="M 1144.800781 736.800781 C 1145.789062 751.175781 1142.59375 763.976562 1135.199219 775.199219 C 1135.511719 761.144531 1138.714844 748.34375 1144.800781 736.800781 Z M 1144.800781 736.800781 "/>
<path style=" stroke:none;fill-rule:evenodd;fill:rgb(49.803922%,49.803922%,49.803922%);fill-opacity:1;" d="M 1288.800781 904.800781 C 1304.878906 904.007812 1320.878906 904.808594 1336.800781 907.199219 C 1378.808594 928.007812 1394.8125 962.410156 1384.800781 1010.398438 C 1384.800781 1013.601562 1383.203125 1015.199219 1380 1015.199219 C 1386.425781 976.066406 1373.628906 944.867188 1341.601562 921.601562 C 1319.199219 912 1296.800781 912 1274.398438 921.601562 C 1271.730469 923.4375 1270.132812 925.839844 1269.601562 928.800781 C 1261.597656 935.199219 1253.601562 941.601562 1245.601562 948 C 1255.199219 928.800781 1269.601562 914.398438 1288.800781 904.800781 Z M 1288.800781 904.800781 "/>
<path style=" stroke:none;fill-rule:evenodd;fill:rgb(98.431373%,98.431373%,98.431373%);fill-opacity:1;" d="M 1365.601562 1034.398438 C 1352.859375 1043.121094 1338.460938 1047.921875 1322.398438 1048.800781 C 1307.847656 1047.332031 1293.445312 1044.929688 1279.199219 1041.601562 C 1265.179688 1030.011719 1253.980469 1016.414062 1245.601562 1000.800781 C 1240.808594 983.972656 1240.808594 966.375 1245.601562 948 C 1253.601562 941.601562 1261.597656 935.199219 1269.601562 928.800781 C 1288.539062 923.871094 1307.742188 923.070312 1327.199219 926.398438 C 1332.800781 938.398438 1341.601562 947.199219 1353.601562 952.800781 C 1371.960938 977.566406 1375.957031 1004.765625 1365.601562 1034.398438 Z M 1365.601562 1034.398438 "/>
<path style=" stroke:none;fill-rule:evenodd;fill:rgb(74.901961%,74.901961%,74.901961%);fill-opacity:1;" d="M 1380 1015.199219 C 1375.140625 1021.785156 1370.34375 1028.183594 1365.601562 1034.398438 C 1375.957031 1004.765625 1371.960938 977.566406 1353.601562 952.800781 C 1341.601562 947.199219 1332.800781 938.398438 1327.199219 926.398438 C 1307.742188 923.070312 1288.539062 923.871094 1269.601562 928.800781 C 1270.132812 925.839844 1271.730469 923.4375 1274.398438 921.601562 C 1296.800781 912 1319.199219 912 1341.601562 921.601562 C 1373.628906 944.867188 1386.425781 976.066406 1380 1015.199219 Z M 1380 1015.199219 "/>
<path style=" stroke:none;fill-rule:evenodd;fill:rgb(28.235294%,28.235294%,28.235294%);fill-opacity:1;" d="M 1384.800781 1010.398438 C 1394.8125 962.410156 1378.808594 928.007812 1336.800781 907.199219 C 1320.878906 904.808594 1304.878906 904.007812 1288.800781 904.800781 C 1290.804688 901.335938 1294.003906 898.933594 1298.398438 897.601562 C 1354.683594 891.316406 1386.679688 916.117188 1394.398438 972 C 1394.964844 986.332031 1391.769531 999.128906 1384.800781 1010.398438 Z M 1384.800781 1010.398438 "/>
<path style=" stroke:none;fill-rule:evenodd;fill:rgb(58.431373%,58.431373%,58.431373%);fill-opacity:1;" d="M 1245.601562 948 C 1240.808594 966.375 1240.808594 983.972656 1245.601562 1000.800781 C 1247.847656 1026.089844 1260.644531 1043.691406 1284 1053.601562 C 1304.789062 1059.042969 1325.585938 1059.042969 1346.398438 1053.601562 C 1344.800781 1056.800781 1343.199219 1060 1341.601562 1063.199219 C 1266.582031 1076.222656 1229.777344 1044.222656 1231.199219 967.199219 C 1232.34375 958.0625 1237.140625 951.65625 1245.601562 948 Z M 1245.601562 948 "/>
<path style=" stroke:none;fill-rule:evenodd;fill:rgb(31.372549%,31.372549%,30.980392%);fill-opacity:1;" d="M 1231.199219 967.199219 C 1229.777344 1044.222656 1266.582031 1076.222656 1341.601562 1063.199219 C 1336.320312 1068.277344 1329.917969 1072.28125 1322.398438 1075.199219 C 1273.128906 1089.371094 1240.328125 1072.570312 1224 1024.800781 C 1220.796875 1008.800781 1220.796875 992.796875 1224 976.800781 C 1225.335938 972.402344 1227.734375 969.207031 1231.199219 967.199219 Z M 1231.199219 967.199219 "/>
<path style=" stroke:none;fill-rule:evenodd;fill:rgb(32.54902%,32.54902%,32.54902%);fill-opacity:1;" d="M 1015.199219 1034.398438 C 997.328125 1041.585938 978.128906 1044.78125 957.601562 1044 C 943.894531 1043.984375 931.09375 1042.386719 919.199219 1039.199219 C 951.339844 1039.722656 983.34375 1038.125 1015.199219 1034.398438 Z M 1015.199219 1034.398438 "/>
<path style=" stroke:none;fill-rule:evenodd;fill:rgb(77.647059%,77.647059%,77.647059%);fill-opacity:1;" d="M 1245.601562 1000.800781 C 1253.980469 1016.414062 1265.179688 1030.011719 1279.199219 1041.601562 C 1293.445312 1044.929688 1307.847656 1047.332031 1322.398438 1048.800781 C 1338.460938 1047.921875 1352.859375 1043.121094 1365.601562 1034.398438 C 1360.800781 1042.402344 1354.402344 1048.800781 1346.398438 1053.601562 C 1325.585938 1059.042969 1304.789062 1059.042969 1284 1053.601562 C 1260.644531 1043.691406 1247.847656 1026.089844 1245.601562 1000.800781 Z M 1245.601562 1000.800781 "/>
</g>
</svg>
