<?xml version="1.0" encoding="UTF-8"?>
<svg xmlns="http://www.w3.org/2000/svg" xmlns:xlink="http://www.w3.org/1999/xlink" width="1920pt" height="1440pt" viewBox="0 0 1920 1440" version="1.1">
<g id="surface1">
<path style=" stroke:none;fill-rule:evenodd;fill:rgb(0%,0%,0%);fill-opacity:1;" d="M -2.398438 -2.398438 C 637.597656 -2.398438 1277.601562 -2.398438 1917.601562 -2.398438 C 1917.601562 477.601562 1917.601562 957.601562 1917.601562 1437.601562 C 1277.601562 1437.601562 637.597656 1437.601562 -2.398438 1437.601562 C -2.398438 957.601562 -2.398438 477.601562 -2.398438 -2.398438 Z M -2.398438 -2.398438 "/>
<path style=" stroke:none;fill-rule:evenodd;fill:rgb(98.431373%,98.431373%,98.431373%);fill-opacity:1;" d="M 1154.398438 266.398438 C 1162.867188 329.710938 1135.671875 361.710938 1072.800781 362.398438 C 1063.515625 359.46875 1055.515625 354.671875 1048.800781 348 C 1038.648438 308.609375 1046.648438 273.40625 1072.800781 242.398438 C 1089.773438 234.769531 1107.375 232.367188 1125.601562 235.199219 C 1136.867188 244.1875 1146.464844 254.589844 1154.398438 266.398438 Z M 1154.398438 266.398438 "/>
<path style=" stroke:none;fill-rule:evenodd;fill:rgb(48.627451%,48.627451%,48.235294%);fill-opacity:1;" d="M 1053.601562 218.398438 C 1075.355469 216.871094 1096.15625 218.472656 1116 223.199219 C 1097.722656 221.582031 1080.125 223.984375 1063.199219 230.398438 C 1024.003906 265.621094 1019.203125 304.824219 1048.800781 348 C 1055.515625 354.671875 1063.515625 359.46875 1072.800781 362.398438 C 1072.800781 364 1072.800781 365.601562 1072.800781 367.199219 C 1058.441406 368.800781 1047.246094 364 1039.199219 352.800781 C 1003.804688 303.984375 1008.605469 259.183594 1053.601562 218.398438 Z M 1053.601562 218.398438 "/>
<path style=" stroke:none;fill-rule:evenodd;fill:rgb(23.529412%,23.529412%,23.529412%);fill-opacity:1;" d="M 1154.398438 237.601562 C 1182.058594 252.804688 1196.457031 276.804688 1197.601562 309.601562 C 1183.964844 366.015625 1148.761719 388.414062 1092 376.800781 C 1162.050781 381.425781 1191.652344 349.425781 1180.800781 280.800781 C 1179.839844 272.066406 1175.835938 265.664062 1168.800781 261.601562 C 1166.039062 252.425781 1161.238281 244.425781 1154.398438 237.601562 Z M 1154.398438 237.601562 "/>
<path style=" stroke:none;fill-rule:evenodd;fill:rgb(78.039216%,78.039216%,78.039216%);fill-opacity:1;" d="M 1116 223.199219 C 1127.777344 226.691406 1138.976562 231.488281 1149.601562 237.601562 C 1149.679688 247.511719 1151.28125 257.109375 1154.398438 266.398438 C 1146.464844 254.589844 1136.867188 244.1875 1125.601562 235.199219 C 1107.375 232.367188 1089.773438 234.769531 1072.800781 242.398438 C 1046.648438 273.40625 1038.648438 308.609375 1048.800781 348 C 1019.203125 304.824219 1024.003906 265.621094 1063.199219 230.398438 C 1080.125 223.984375 1097.722656 221.582031 1116 223.199219 Z M 1116 223.199219 "/>
<path style=" stroke:none;fill-rule:evenodd;fill:rgb(61.960784%,61.960784%,61.960784%);fill-opacity:1;" d="M 1149.601562 237.601562 C 1151.199219 237.601562 1152.800781 237.601562 1154.398438 237.601562 C 1161.238281 244.425781 1166.039062 252.425781 1168.800781 261.601562 C 1178.753906 294.003906 1173.957031 323.601562 1154.398438 350.398438 C 1148.425781 354.199219 1142.027344 356.597656 1135.199219 357.601562 C 1164.589844 332.09375 1170.992188 301.695312 1154.398438 266.398438 C 1151.28125 257.109375 1149.679688 247.511719 1149.601562 237.601562 Z M 1149.601562 237.601562 "/>
<path style=" stroke:none;fill-rule:evenodd;fill:rgb(21.960784%,21.960784%,21.960784%);fill-opacity:1;" d="M 1053.601562 218.398438 C 1008.605469 259.183594 1003.804688 303.984375 1039.199219 352.800781 C 1003.636719 332.734375 991.636719 302.335938 1003.199219 261.601562 C 1015.003906 240.96875 1031.804688 226.566406 1053.601562 218.398438 Z M 1053.601562 218.398438 "/>
<path style=" stroke:none;fill-rule:evenodd;fill:rgb(41.960784%,41.960784%,41.960784%);fill-opacity:1;" d="M 1168.800781 261.601562 C 1175.835938 265.664062 1179.839844 272.066406 1180.800781 280.800781 C 1191.652344 349.425781 1162.050781 381.425781 1092 376.800781 C 1087.238281 377.625 1084.042969 376.023438 1082.398438 372 C 1096.886719 372.789062 1111.285156 371.992188 1125.601562 369.601562 C 1129.828125 366.199219 1133.027344 362.199219 1135.199219 357.601562 C 1142.027344 356.597656 1148.425781 354.199219 1154.398438 350.398438 C 1173.957031 323.601562 1178.753906 294.003906 1168.800781 261.601562 Z M 1168.800781 261.601562 "/>
<path style=" stroke:none;fill-rule:evenodd;fill:rgb(76.862745%,76.862745%,76.862745%);fill-opacity:1;" d="M 1154.398438 266.398438 C 1170.992188 301.695312 1164.589844 332.09375 1135.199219 357.601562 C 1133.027344 362.199219 1129.828125 366.199219 1125.601562 369.601562 C 1111.285156 371.992188 1096.886719 372.789062 1082.398438 372 C 1077.636719 372.824219 1074.441406 371.222656 1072.800781 367.199219 C 1072.800781 365.601562 1072.800781 364 1072.800781 362.398438 C 1135.671875 361.710938 1162.867188 329.710938 1154.398438 266.398438 Z M 1154.398438 266.398438 "/>
<path style=" stroke:none;fill-rule:evenodd;fill:rgb(97.647059%,97.647059%,97.647059%);fill-opacity:1;" d="M 909.601562 410.398438 C 941.601562 410.398438 973.597656 410.398438 1005.601562 410.398438 C 1018.652344 417.183594 1033.050781 420.382812 1048.800781 420 C 1153.195312 455.59375 1221.992188 525.992188 1255.199219 631.199219 C 1254.769531 643.929688 1257.964844 655.128906 1264.800781 664.800781 C 1264.800781 698.398438 1264.800781 732 1264.800781 765.601562 C 1258.019531 778.652344 1254.816406 793.050781 1255.199219 808.800781 C 1192.523438 963.402344 1077.320312 1035.402344 909.601562 1024.800781 C 898.054688 1018.714844 885.253906 1015.511719 871.199219 1015.199219 C 764.335938 981.140625 693.132812 910.738281 657.601562 804 C 651.691406 759.398438 649.292969 714.59375 650.398438 669.601562 C 656.488281 658.054688 659.6875 645.253906 660 631.199219 C 693.601562 524 764 453.601562 871.199219 420 C 885.253906 419.6875 898.054688 416.488281 909.601562 410.398438 Z M 909.601562 410.398438 "/>
<path style=" stroke:none;fill-rule:evenodd;fill:rgb(32.941176%,32.941176%,32.941176%);fill-opacity:1;" d="M 1005.601562 410.398438 C 1021.347656 410.015625 1035.75 413.21875 1048.800781 420 C 1033.050781 420.382812 1018.652344 417.183594 1005.601562 410.398438 Z M 1005.601562 410.398438 "/>
<path style=" stroke:none;fill-rule:evenodd;fill:rgb(50.196078%,50.196078%,50.196078%);fill-opacity:1;" d="M 909.601562 410.398438 C 898.054688 416.488281 885.253906 419.6875 871.199219 420 C 882.421875 412.609375 895.222656 409.410156 909.601562 410.398438 Z M 909.601562 410.398438 "/>
<path style=" stroke:none;fill-rule:evenodd;fill:rgb(1.176471%,1.176471%,1.176471%);fill-opacity:1;" d="M 914.398438 520.800781 C 1033.421875 511.109375 1112.621094 562.308594 1152 674.398438 C 1163.980469 795.277344 1111.976562 874.476562 996 912 C 876.601562 923.058594 799 871.0625 763.199219 756 C 753.265625 676.765625 778.0625 611.167969 837.601562 559.199219 C 862.695312 544.96875 888.292969 532.167969 914.398438 520.800781 Z M 914.398438 520.800781 "/>
<path style=" stroke:none;fill-rule:evenodd;fill:rgb(43.137255%,43.137255%,43.137255%);fill-opacity:1;" d="M 660 631.199219 C 659.6875 645.253906 656.488281 658.054688 650.398438 669.601562 C 649.410156 655.222656 652.609375 642.421875 660 631.199219 Z M 660 631.199219 "/>
<path style=" stroke:none;fill-rule:evenodd;fill:rgb(41.960784%,41.960784%,41.960784%);fill-opacity:1;" d="M 1255.199219 631.199219 C 1262.035156 640.871094 1265.230469 652.070312 1264.800781 664.800781 C 1257.964844 655.128906 1254.769531 643.929688 1255.199219 631.199219 Z M 1255.199219 631.199219 "/>
<path style=" stroke:none;fill-rule:evenodd;fill:rgb(32.941176%,32.941176%,32.941176%);fill-opacity:1;" d="M 1264.800781 765.601562 C 1265.183594 781.347656 1261.980469 795.75 1255.199219 808.800781 C 1254.816406 793.050781 1258.019531 778.652344 1264.800781 765.601562 Z M 1264.800781 765.601562 "/>
<path style=" stroke:none;fill-rule:evenodd;fill:rgb(43.137255%,43.137255%,43.137255%);fill-opacity:1;" d="M 871.199219 1015.199219 C 885.253906 1015.511719 898.054688 1018.714844 909.601562 1024.800781 C 895.222656 1025.789062 882.421875 1022.59375 871.199219 1015.199219 Z M 871.199219 1015.199219 "/>
<path style=" stroke:none;fill-rule:evenodd;fill:rgb(98.823529%,98.823529%,98.823529%);fill-opacity:1;" d="M 789.601562 1202.398438 C 786.398438 1202.398438 784.800781 1200.800781 784.800781 1197.601562 C 764.289062 1167.921875 760.292969 1135.921875 772.800781 1101.601562 C 808.671875 1062.085938 842.269531 1063.683594 873.601562 1106.398438 C 876.800781 1124 876.800781 1141.597656 873.601562 1159.199219 C 862.511719 1167.058594 855.3125 1177.460938 852 1190.398438 C 832.21875 1199.515625 811.421875 1203.511719 789.601562 1202.398438 Z M 789.601562 1202.398438 "/>
<path style=" stroke:none;fill-rule:evenodd;fill:rgb(37.254902%,37.254902%,37.254902%);fill-opacity:1;" d="M 828 1063.199219 C 761.636719 1064.699219 733.636719 1098.296875 744 1164 C 754.292969 1173.4375 761.492188 1184.640625 765.601562 1197.601562 C 754.59375 1187.460938 742.59375 1177.863281 729.601562 1168.800781 C 707.703125 1089.945312 737.304688 1052.34375 818.398438 1056 C 822.796875 1057.335938 825.992188 1059.734375 828 1063.199219 Z M 828 1063.199219 "/>
<path style=" stroke:none;fill-rule:evenodd;fill:rgb(30.196078%,30.196078%,30.196078%);fill-opacity:1;" d="M 871.199219 1077.601562 C 917.945312 1106.753906 926.75 1145.15625 897.601562 1192.800781 C 873.40625 1217.164062 845.40625 1225.167969 813.601562 1216.800781 C 827.503906 1217.667969 841.105469 1216.070312 854.398438 1212 C 882.550781 1193.304688 896.152344 1166.902344 895.199219 1132.800781 C 894.445312 1119.960938 889.644531 1109.5625 880.800781 1101.601562 C 877.597656 1093.597656 874.402344 1085.601562 871.199219 1077.601562 Z M 871.199219 1077.601562 "/>
<path style=" stroke:none;fill-rule:evenodd;fill:rgb(74.901961%,74.901961%,74.901961%);fill-opacity:1;" d="M 828 1063.199219 C 842.753906 1067.050781 857.15625 1071.847656 871.199219 1077.601562 C 874.402344 1085.601562 877.597656 1093.597656 880.800781 1101.601562 C 897.375 1179.191406 866.972656 1212.792969 789.601562 1202.398438 C 811.421875 1203.511719 832.21875 1199.515625 852 1190.398438 C 855.3125 1177.460938 862.511719 1167.058594 873.601562 1159.199219 C 876.800781 1141.597656 876.800781 1124 873.601562 1106.398438 C 842.269531 1063.683594 808.671875 1062.085938 772.800781 1101.601562 C 760.292969 1135.921875 764.289062 1167.921875 784.800781 1197.601562 C 778.402344 1197.601562 772 1197.601562 765.601562 1197.601562 C 761.492188 1184.640625 754.292969 1173.4375 744 1164 C 733.636719 1098.296875 761.636719 1064.699219 828 1063.199219 Z M 828 1063.199219 "/>
<path style=" stroke:none;fill-rule:evenodd;fill:rgb(54.509804%,54.509804%,54.509804%);fill-opacity:1;" d="M 880.800781 1101.601562 C 889.644531 1109.5625 894.445312 1119.960938 895.199219 1132.800781 C 896.152344 1166.902344 882.550781 1193.304688 854.398438 1212 C 841.105469 1216.070312 827.503906 1217.667969 813.601562 1216.800781 C 795.082031 1215.503906 779.082031 1209.105469 765.601562 1197.601562 C 772 1197.601562 778.402344 1197.601562 784.800781 1197.601562 C 784.800781 1200.800781 786.398438 1202.398438 789.601562 1202.398438 C 866.972656 1212.792969 897.375 1179.191406 880.800781 1101.601562 Z M 880.800781 1101.601562 "/>
</g>
</svg>
