<?xml version="1.0" encoding="UTF-8"?>
<svg xmlns="http://www.w3.org/2000/svg" xmlns:xlink="http://www.w3.org/1999/xlink" width="1920pt" height="1440pt" viewBox="0 0 1920 1440" version="1.1">
<g id="surface1">
<path style=" stroke:none;fill-rule:evenodd;fill:rgb(0%,0%,0%);fill-opacity:1;" d="M -2.398438 -2.398438 C 637.597656 -2.398438 1277.601562 -2.398438 1917.601562 -2.398438 C 1917.601562 477.601562 1917.601562 957.601562 1917.601562 1437.601562 C 1277.601562 1437.601562 637.597656 1437.601562 -2.398438 1437.601562 C -2.398438 957.601562 -2.398438 477.601562 -2.398438 -2.398438 Z M -2.398438 -2.398438 "/>
<path style=" stroke:none;fill-rule:evenodd;fill:rgb(51.764706%,51.764706%,51.764706%);fill-opacity:1;" d="M 991.199219 396 C 943.859375 393.199219 897.457031 398 852 410.398438 C 866.679688 402.566406 882.675781 396.964844 900 393.601562 C 931.265625 389.664062 961.664062 390.464844 991.199219 396 Z M 991.199219 396 "/>
<path style=" stroke:none;fill-rule:evenodd;fill:rgb(98.039216%,98.039216%,98.039216%);fill-opacity:1;" d="M 991.199219 396 C 997.597656 396 1004 396 1010.398438 396 C 1020.476562 401.335938 1031.679688 404.535156 1044 405.601562 C 1160.371094 437.34375 1235.574219 510.941406 1269.601562 626.398438 C 1269.167969 639.128906 1272.363281 650.328125 1279.199219 660 C 1290.777344 733.695312 1279.578125 804.097656 1245.601562 871.199219 C 1238.851562 873.46875 1235.648438 878.269531 1236 885.601562 C 1190.433594 955.570312 1128.035156 1003.570312 1048.800781 1029.601562 C 1007.226562 1033.152344 965.628906 1036.355469 924 1039.199219 C 910.152344 1040.667969 897.351562 1039.070312 885.601562 1034.398438 C 875.929688 1027.566406 864.730469 1024.367188 852 1024.800781 C 733.210938 979.617188 661.210938 894.816406 636 770.398438 C 635.75 727.113281 637.355469 683.914062 640.800781 640.800781 C 669.511719 525.761719 739.914062 448.960938 852 410.398438 C 897.457031 398 943.859375 393.199219 991.199219 396 Z M 991.199219 396 "/>
<path style=" stroke:none;fill-rule:evenodd;fill:rgb(45.882353%,45.882353%,45.490196%);fill-opacity:1;" d="M 1010.398438 396 C 1023.496094 394.417969 1034.699219 397.617188 1044 405.601562 C 1031.679688 404.535156 1020.476562 401.335938 1010.398438 396 Z M 1010.398438 396 "/>
<path style=" stroke:none;fill-rule:evenodd;fill:rgb(58.823529%,58.823529%,58.823529%);fill-opacity:1;" d="M 583.199219 453.601562 C 588.25 452.882812 593.050781 453.683594 597.601562 456 C 625.089844 477.316406 636.289062 505.320312 631.199219 540 C 632.726562 554.308594 627.925781 565.511719 616.800781 573.601562 C 627.757812 539.101562 621.359375 508.703125 597.601562 482.398438 C 593.027344 472.273438 585.027344 466.671875 573.601562 465.601562 C 554.140625 462.269531 534.941406 463.070312 516 468 C 520.066406 460.960938 526.464844 456.960938 535.199219 456 C 551.121094 453.609375 567.121094 452.808594 583.199219 453.601562 Z M 583.199219 453.601562 "/>
<path style=" stroke:none;fill-rule:evenodd;fill:rgb(27.45098%,27.45098%,27.45098%);fill-opacity:1;" d="M 530.398438 448.800781 C 578.175781 433.527344 614.175781 447.929688 638.398438 492 C 641.601562 504.800781 641.601562 517.597656 638.398438 530.398438 C 637.066406 534.796875 634.664062 537.992188 631.199219 540 C 636.289062 505.320312 625.089844 477.316406 597.601562 456 C 593.050781 453.683594 588.25 452.882812 583.199219 453.601562 C 566.582031 448.886719 548.980469 447.289062 530.398438 448.800781 Z M 530.398438 448.800781 "/>
<path style=" stroke:none;fill-rule:evenodd;fill:rgb(39.607843%,39.607843%,39.607843%);fill-opacity:1;" d="M 530.398438 448.800781 C 548.980469 447.289062 566.582031 448.886719 583.199219 453.601562 C 567.121094 452.808594 551.121094 453.609375 535.199219 456 C 526.464844 456.960938 520.066406 460.960938 516 468 C 509.601562 471.199219 504.800781 476 501.601562 482.398438 C 498.398438 488.796875 493.597656 493.597656 487.199219 496.800781 C 494.902344 474.699219 509.304688 458.699219 530.398438 448.800781 Z M 530.398438 448.800781 "/>
<path style=" stroke:none;fill-rule:evenodd;fill:rgb(77.647059%,77.647059%,77.647059%);fill-opacity:1;" d="M 597.601562 482.398438 C 581.054688 475.78125 563.453125 472.582031 544.800781 472.800781 C 529.113281 472.054688 514.714844 475.253906 501.601562 482.398438 C 504.800781 476 509.601562 471.199219 516 468 C 534.941406 463.070312 554.140625 462.269531 573.601562 465.601562 C 585.027344 466.671875 593.027344 472.273438 597.601562 482.398438 Z M 597.601562 482.398438 "/>
<path style=" stroke:none;fill-rule:evenodd;fill:rgb(98.823529%,98.823529%,98.823529%);fill-opacity:1;" d="M 597.601562 482.398438 C 621.359375 508.703125 627.757812 539.101562 616.800781 573.601562 C 566.152344 600.246094 523.753906 590.644531 489.601562 544.800781 C 487.210938 530.488281 486.40625 516.085938 487.199219 501.601562 C 487.199219 500 487.199219 498.398438 487.199219 496.800781 C 493.597656 493.597656 498.398438 488.796875 501.601562 482.398438 C 514.714844 475.253906 529.113281 472.054688 544.800781 472.800781 C 563.453125 472.582031 581.054688 475.78125 597.601562 482.398438 Z M 597.601562 482.398438 "/>
<path style=" stroke:none;fill-rule:evenodd;fill:rgb(0.784314%,0.784314%,0.784314%);fill-opacity:1;" d="M 1010.398438 530.398438 C 1020.042969 537.910156 1031.246094 542.710938 1044 544.800781 C 1077.628906 564.042969 1104.832031 589.640625 1125.601562 621.601562 C 1125.25 628.929688 1128.453125 633.730469 1135.199219 636 C 1168.757812 729.789062 1147.953125 808.988281 1072.800781 873.601562 C 1019.765625 908.472656 962.164062 918.875 900 904.800781 C 892.640625 896.425781 883.042969 891.625 871.199219 890.398438 C 834.503906 869.703125 805.703125 840.902344 784.800781 804 C 780.859375 786.589844 774.460938 770.59375 765.601562 756 C 752.617188 665.210938 784.617188 596.410156 861.601562 549.601562 C 868.929688 549.949219 873.730469 546.75 876 540 C 919.683594 524.894531 964.484375 521.699219 1010.398438 530.398438 Z M 1010.398438 530.398438 "/>
<path style=" stroke:none;fill-rule:evenodd;fill:rgb(62.745098%,62.745098%,62.745098%);fill-opacity:1;" d="M 1010.398438 530.398438 C 1024.757812 528.796875 1035.957031 533.597656 1044 544.800781 C 1031.246094 542.710938 1020.042969 537.910156 1010.398438 530.398438 Z M 1010.398438 530.398438 "/>
<path style=" stroke:none;fill-rule:evenodd;fill:rgb(37.254902%,37.254902%,37.254902%);fill-opacity:1;" d="M 876 540 C 873.730469 546.75 868.929688 549.949219 861.601562 549.601562 C 863.871094 542.851562 868.671875 539.648438 876 540 Z M 876 540 "/>
<path style=" stroke:none;fill-rule:evenodd;fill:rgb(83.921569%,83.921569%,83.921569%);fill-opacity:1;" d="M 487.199219 501.601562 C 486.40625 516.085938 487.210938 530.488281 489.601562 544.800781 C 523.753906 590.644531 566.152344 600.246094 616.800781 573.601562 C 616.800781 575.199219 616.800781 576.800781 616.800781 578.398438 C 612 581.601562 607.199219 584.796875 602.398438 588 C 551.601562 607.84375 512.40625 595.042969 484.800781 549.601562 C 482.410156 535.285156 481.609375 520.886719 482.398438 506.398438 C 482.398438 503.199219 484 501.601562 487.199219 501.601562 Z M 487.199219 501.601562 "/>
<path style=" stroke:none;fill-rule:evenodd;fill:rgb(63.529412%,63.529412%,63.529412%);fill-opacity:1;" d="M 482.398438 506.398438 C 481.609375 520.886719 482.410156 535.285156 484.800781 549.601562 C 512.40625 595.042969 551.601562 607.84375 602.398438 588 C 597.941406 591.910156 593.140625 595.910156 588 600 C 564.054688 602.394531 540.054688 603.195312 516 602.398438 C 503.457031 589.007812 491.457031 574.609375 480 559.199219 C 477.613281 546.5 476.8125 533.699219 477.601562 520.800781 C 476.460938 514.601562 478.0625 509.804688 482.398438 506.398438 Z M 482.398438 506.398438 "/>
<path style=" stroke:none;fill-rule:evenodd;fill:rgb(49.019608%,49.019608%,49.019608%);fill-opacity:1;" d="M 616.800781 578.398438 C 610.246094 594.550781 599.042969 605.753906 583.199219 612 C 559.425781 613.808594 537.027344 610.613281 516 602.398438 C 540.054688 603.195312 564.054688 602.394531 588 600 C 593.140625 595.910156 597.941406 591.910156 602.398438 588 C 607.199219 584.796875 612 581.601562 616.800781 578.398438 Z M 616.800781 578.398438 "/>
<path style=" stroke:none;fill-rule:evenodd;fill:rgb(31.372549%,31.372549%,31.372549%);fill-opacity:1;" d="M 477.601562 520.800781 C 476.8125 533.699219 477.613281 546.5 480 559.199219 C 491.457031 574.609375 503.457031 589.007812 516 602.398438 C 537.027344 610.613281 559.425781 613.808594 583.199219 612 C 572.261719 620.460938 559.464844 625.261719 544.800781 626.398438 C 525.589844 618.167969 506.390625 609.371094 487.199219 600 C 472.492188 574.535156 469.292969 548.136719 477.601562 520.800781 Z M 477.601562 520.800781 "/>
<path style=" stroke:none;fill-rule:evenodd;fill:rgb(48.235294%,48.235294%,48.235294%);fill-opacity:1;" d="M 1125.601562 621.601562 C 1132.347656 623.871094 1135.550781 628.671875 1135.199219 636 C 1128.453125 633.730469 1125.25 628.929688 1125.601562 621.601562 Z M 1125.601562 621.601562 "/>
<path style=" stroke:none;fill-rule:evenodd;fill:rgb(51.764706%,51.764706%,51.764706%);fill-opacity:1;" d="M 1269.601562 626.398438 C 1276.433594 636.070312 1279.632812 647.269531 1279.199219 660 C 1272.363281 650.328125 1269.167969 639.128906 1269.601562 626.398438 Z M 1269.601562 626.398438 "/>
<path style=" stroke:none;fill-rule:evenodd;fill:rgb(52.54902%,52.54902%,52.54902%);fill-opacity:1;" d="M 640.800781 640.800781 C 637.355469 683.914062 635.75 727.113281 636 770.398438 C 632.808594 755.285156 631.210938 739.285156 631.199219 722.398438 C 630.730469 694.074219 633.929688 666.878906 640.800781 640.800781 Z M 640.800781 640.800781 "/>
<path style=" stroke:none;fill-rule:evenodd;fill:rgb(66.666667%,66.666667%,66.666667%);fill-opacity:1;" d="M 765.601562 756 C 774.460938 770.59375 780.859375 786.589844 784.800781 804 C 771.929688 791.078125 765.53125 775.078125 765.601562 756 Z M 765.601562 756 "/>
<path style=" stroke:none;fill-rule:evenodd;fill:rgb(36.078431%,36.078431%,36.078431%);fill-opacity:1;" d="M 1408.800781 832.800781 C 1384.105469 827.082031 1360.105469 827.082031 1336.800781 832.800781 C 1321.714844 841.160156 1307.3125 850.761719 1293.601562 861.601562 C 1311.945312 819.636719 1343.945312 804.4375 1389.601562 816 C 1398.332031 819.550781 1404.730469 825.152344 1408.800781 832.800781 Z M 1408.800781 832.800781 "/>
<path style=" stroke:none;fill-rule:evenodd;fill:rgb(99.215686%,99.215686%,99.215686%);fill-opacity:1;" d="M 1418.398438 876 C 1426.402344 894.425781 1428.800781 913.628906 1425.601562 933.601562 C 1413.570312 944.941406 1399.972656 952.945312 1384.800781 957.601562 C 1341.867188 962.730469 1312.273438 945.128906 1296 904.800781 C 1294.425781 891.804688 1296.023438 879.003906 1300.800781 866.398438 C 1314.632812 862.28125 1326.632812 855.082031 1336.800781 844.800781 C 1353.035156 840.84375 1369.035156 841.644531 1384.800781 847.199219 C 1393.148438 860.367188 1404.351562 869.964844 1418.398438 876 Z M 1418.398438 876 "/>
<path style=" stroke:none;fill-rule:evenodd;fill:rgb(40.784314%,40.784314%,40.784314%);fill-opacity:1;" d="M 1245.601562 871.199219 C 1245.949219 878.53125 1242.75 883.328125 1236 885.601562 C 1235.648438 878.269531 1238.851562 873.46875 1245.601562 871.199219 Z M 1245.601562 871.199219 "/>
<path style=" stroke:none;fill-rule:evenodd;fill:rgb(56.078431%,56.078431%,56.078431%);fill-opacity:1;" d="M 1336.800781 832.800781 C 1360.105469 827.082031 1384.105469 827.082031 1408.800781 832.800781 C 1413.5625 831.972656 1416.757812 833.578125 1418.398438 837.601562 C 1435.433594 859.929688 1441.832031 885.527344 1437.601562 914.398438 C 1438.738281 920.597656 1437.140625 925.398438 1432.800781 928.800781 C 1433.585938 915.902344 1432.785156 903.101562 1430.398438 890.398438 C 1428.589844 883.476562 1424.59375 878.679688 1418.398438 876 C 1403.175781 840.375 1375.976562 825.972656 1336.800781 832.800781 Z M 1336.800781 832.800781 "/>
<path style=" stroke:none;fill-rule:evenodd;fill:rgb(84.705882%,84.705882%,84.705882%);fill-opacity:1;" d="M 1336.800781 832.800781 C 1375.976562 825.972656 1403.175781 840.375 1418.398438 876 C 1404.351562 869.964844 1393.148438 860.367188 1384.800781 847.199219 C 1369.035156 841.644531 1353.035156 840.84375 1336.800781 844.800781 C 1326.632812 855.082031 1314.632812 862.28125 1300.800781 866.398438 C 1296.023438 879.003906 1294.425781 891.804688 1296 904.800781 C 1312.273438 945.128906 1341.867188 962.730469 1384.800781 957.601562 C 1368.113281 963.085938 1350.519531 963.886719 1332 960 C 1322.269531 950.980469 1311.070312 945.378906 1298.398438 943.199219 C 1295.945312 927.875 1292.746094 912.675781 1288.800781 897.601562 C 1290.800781 885.609375 1292.40625 873.609375 1293.601562 861.601562 C 1307.3125 850.761719 1321.714844 841.160156 1336.800781 832.800781 Z M 1336.800781 832.800781 "/>
<path style=" stroke:none;fill-rule:evenodd;fill:rgb(50.980392%,50.980392%,50.980392%);fill-opacity:1;" d="M 871.199219 890.398438 C 883.042969 891.625 892.640625 896.425781 900 904.800781 C 888.160156 903.574219 878.558594 898.777344 871.199219 890.398438 Z M 871.199219 890.398438 "/>
<path style=" stroke:none;fill-rule:evenodd;fill:rgb(26.666667%,26.666667%,26.666667%);fill-opacity:1;" d="M 1418.398438 837.601562 C 1429.210938 839.597656 1436.410156 845.996094 1440 856.800781 C 1443.898438 876.90625 1443.097656 896.105469 1437.601562 914.398438 C 1441.832031 885.527344 1435.433594 859.929688 1418.398438 837.601562 Z M 1418.398438 837.601562 "/>
<path style=" stroke:none;fill-rule:evenodd;fill:rgb(48.235294%,48.235294%,48.235294%);fill-opacity:1;" d="M 1293.601562 861.601562 C 1292.40625 873.609375 1290.800781 885.609375 1288.800781 897.601562 C 1292.746094 912.675781 1295.945312 927.875 1298.398438 943.199219 C 1302.128906 955.738281 1310.132812 964.535156 1322.398438 969.601562 C 1354.382812 975.214844 1384.78125 971.21875 1413.601562 957.601562 C 1412.457031 966.738281 1407.65625 973.140625 1399.199219 976.800781 C 1370.578125 981.742188 1341.777344 982.546875 1312.800781 979.199219 C 1307.210938 968.027344 1299.214844 959.222656 1288.800781 952.800781 C 1275.265625 921.195312 1276.867188 890.792969 1293.601562 861.601562 Z M 1293.601562 861.601562 "/>
<path style=" stroke:none;fill-rule:evenodd;fill:rgb(72.941176%,72.941176%,72.941176%);fill-opacity:1;" d="M 1418.398438 876 C 1424.59375 878.679688 1428.589844 883.476562 1430.398438 890.398438 C 1432.785156 903.101562 1433.585938 915.902344 1432.800781 928.800781 C 1430.125 941.039062 1423.726562 950.640625 1413.601562 957.601562 C 1384.78125 971.21875 1354.382812 975.214844 1322.398438 969.601562 C 1310.132812 964.535156 1302.128906 955.738281 1298.398438 943.199219 C 1311.070312 945.378906 1322.269531 950.980469 1332 960 C 1350.519531 963.886719 1368.113281 963.085938 1384.800781 957.601562 C 1399.972656 952.945312 1413.570312 944.941406 1425.601562 933.601562 C 1428.800781 913.628906 1426.402344 894.425781 1418.398438 876 Z M 1418.398438 876 "/>
<path style=" stroke:none;fill-rule:evenodd;fill:rgb(27.058824%,27.058824%,27.058824%);fill-opacity:1;" d="M 1288.800781 952.800781 C 1299.214844 959.222656 1307.210938 968.027344 1312.800781 979.199219 C 1341.777344 982.546875 1370.578125 981.742188 1399.199219 976.800781 C 1362.925781 1003.882812 1327.726562 1002.277344 1293.601562 972 C 1289.140625 966.292969 1287.542969 959.894531 1288.800781 952.800781 Z M 1288.800781 952.800781 "/>
<path style=" stroke:none;fill-rule:evenodd;fill:rgb(66.666667%,66.666667%,66.666667%);fill-opacity:1;" d="M 852 1024.800781 C 864.730469 1024.367188 875.929688 1027.566406 885.601562 1034.398438 C 872.871094 1034.832031 861.671875 1031.636719 852 1024.800781 Z M 852 1024.800781 "/>
<path style=" stroke:none;fill-rule:evenodd;fill:rgb(73.333333%,73.333333%,73.333333%);fill-opacity:1;" d="M 1048.800781 1029.601562 C 1007.832031 1042.808594 966.230469 1046.011719 924 1039.199219 C 965.628906 1036.355469 1007.226562 1033.152344 1048.800781 1029.601562 Z M 1048.800781 1029.601562 "/>
</g>
</svg>
