<?xml version="1.0" encoding="UTF-8"?>
<svg xmlns="http://www.w3.org/2000/svg" xmlns:xlink="http://www.w3.org/1999/xlink" width="1920pt" height="1440pt" viewBox="0 0 1920 1440" version="1.1">
<g id="surface1">
<path style=" stroke:none;fill-rule:evenodd;fill:rgb(0%,0%,0%);fill-opacity:1;" d="M -2.398438 -2.398438 C 637.597656 -2.398438 1277.601562 -2.398438 1917.601562 -2.398438 C 1917.601562 477.601562 1917.601562 957.601562 1917.601562 1437.601562 C 1277.601562 1437.601562 637.597656 1437.601562 -2.398438 1437.601562 C -2.398438 957.601562 -2.398438 477.601562 -2.398438 -2.398438 Z M -2.398438 -2.398438 "/>
<path style=" stroke:none;fill-rule:evenodd;fill:rgb(70.980392%,70.980392%,70.980392%);fill-opacity:1;" d="M 991.199219 410.398438 C 955.945312 411.019531 920.746094 412.621094 885.601562 415.199219 C 920.53125 405.507812 955.726562 403.910156 991.199219 410.398438 Z M 991.199219 410.398438 "/>
<path style=" stroke:none;fill-rule:evenodd;fill:rgb(98.039216%,98.039216%,98.039216%);fill-opacity:1;" d="M 991.199219 410.398438 C 1131.5625 430.757812 1221.160156 509.160156 1260 645.601562 C 1262.582031 680.746094 1264.179688 715.945312 1264.800781 751.199219 C 1239.773438 905.828125 1150.171875 997.027344 996 1024.800781 C 959.140625 1024.339844 922.339844 1022.734375 885.601562 1020 C 751.339844 981.738281 672.941406 893.742188 650.398438 756 C 650.859375 719.140625 652.464844 682.339844 655.199219 645.601562 C 679.703125 548.230469 737.304688 477.03125 828 432 C 846.945312 424.878906 866.144531 419.277344 885.601562 415.199219 C 920.746094 412.621094 955.945312 411.019531 991.199219 410.398438 Z M 991.199219 410.398438 "/>
<path style=" stroke:none;fill-rule:evenodd;fill:rgb(0.784314%,0.784314%,0.784314%);fill-opacity:1;" d="M 928.800781 506.398438 C 972.152344 502.449219 1013.753906 508.847656 1053.601562 525.601562 C 1100.386719 548.378906 1133.984375 583.578125 1154.398438 631.199219 C 1157.417969 645.105469 1162.21875 657.90625 1168.800781 669.601562 C 1168.800781 676 1168.800781 682.402344 1168.800781 688.800781 C 1172.75 732.152344 1166.351562 773.753906 1149.601562 813.601562 C 1128.800781 856.800781 1096.800781 888.800781 1053.601562 909.601562 C 1041.757812 910.824219 1032.160156 915.625 1024.800781 924 C 986.761719 933.941406 948.359375 935.539062 909.601562 928.800781 C 897.90625 922.21875 885.105469 917.417969 871.199219 914.398438 C 823.578125 893.984375 788.378906 860.386719 765.601562 813.601562 C 760.980469 794.902344 754.578125 777.308594 746.398438 760.800781 C 740 730.402344 740 700 746.398438 669.601562 C 752.980469 657.90625 757.78125 645.105469 760.800781 631.199219 C 783.652344 580.34375 820.453125 542.746094 871.199219 518.398438 C 889.503906 509.894531 908.703125 505.894531 928.800781 506.398438 Z M 928.800781 506.398438 "/>
<path style=" stroke:none;fill-rule:evenodd;fill:rgb(49.411765%,49.411765%,49.411765%);fill-opacity:1;" d="M 928.800781 506.398438 C 953.519531 500.875 979.125 500.078125 1005.601562 504 C 1023.667969 508.089844 1039.664062 515.289062 1053.601562 525.601562 C 1013.753906 508.847656 972.152344 502.449219 928.800781 506.398438 Z M 928.800781 506.398438 "/>
<path style=" stroke:none;fill-rule:evenodd;fill:rgb(25.490196%,25.490196%,25.490196%);fill-opacity:1;" d="M 1447.199219 564 C 1426.148438 544.628906 1402.148438 539.828125 1375.199219 549.601562 C 1373.601562 549.601562 1372 549.601562 1370.398438 549.601562 C 1363.808594 548.847656 1357.40625 549.648438 1351.199219 552 C 1340.625 563.386719 1329.421875 573.789062 1317.601562 583.199219 C 1330.929688 540.519531 1359.730469 523.71875 1404 532.800781 C 1425.582031 534.238281 1439.980469 544.640625 1447.199219 564 Z M 1447.199219 564 "/>
<path style=" stroke:none;fill-rule:evenodd;fill:rgb(43.921569%,43.921569%,43.921569%);fill-opacity:1;" d="M 1370.398438 549.601562 C 1331.269531 569.140625 1313.667969 601.136719 1317.601562 645.601562 C 1311.203125 624.800781 1311.203125 604 1317.601562 583.199219 C 1329.421875 573.789062 1340.625 563.386719 1351.199219 552 C 1357.40625 549.648438 1363.808594 548.847656 1370.398438 549.601562 Z M 1370.398438 549.601562 "/>
<path style=" stroke:none;fill-rule:evenodd;fill:rgb(41.176471%,41.176471%,41.176471%);fill-opacity:1;" d="M 1375.199219 549.601562 C 1402.148438 539.828125 1426.148438 544.628906 1447.199219 564 C 1455.574219 571.359375 1460.375 580.957031 1461.601562 592.800781 C 1441.511719 562.042969 1412.710938 547.640625 1375.199219 549.601562 Z M 1375.199219 549.601562 "/>
<path style=" stroke:none;fill-rule:evenodd;fill:rgb(65.098039%,65.098039%,64.705882%);fill-opacity:1;" d="M 1370.398438 549.601562 C 1372 549.601562 1373.601562 549.601562 1375.199219 549.601562 C 1412.710938 547.640625 1441.511719 562.042969 1461.601562 592.800781 C 1461.601562 596 1461.601562 599.199219 1461.601562 602.398438 C 1448.328125 594.175781 1437.128906 583.777344 1428 571.199219 C 1381.445312 556.757812 1347.042969 570.355469 1324.800781 612 C 1319.761719 632.195312 1323.757812 649.796875 1336.800781 664.800781 C 1366.414062 692.371094 1400.015625 696.371094 1437.601562 676.800781 C 1450.335938 666.558594 1459.933594 654.558594 1466.398438 640.800781 C 1456.71875 697.46875 1423.117188 719.070312 1365.601562 705.601562 C 1351.746094 691.574219 1337.347656 677.976562 1322.398438 664.800781 C 1320.800781 658.402344 1319.199219 652 1317.601562 645.601562 C 1313.667969 601.136719 1331.269531 569.140625 1370.398438 549.601562 Z M 1370.398438 549.601562 "/>
<path style=" stroke:none;fill-rule:evenodd;fill:rgb(98.039216%,98.039216%,98.039216%);fill-opacity:1;" d="M 1461.601562 602.398438 C 1461.601562 605.601562 1461.601562 608.796875 1461.601562 612 C 1442.425781 679.136719 1400.824219 696.738281 1336.800781 664.800781 C 1323.757812 649.796875 1319.761719 632.195312 1324.800781 612 C 1347.042969 570.355469 1381.445312 556.757812 1428 571.199219 C 1437.128906 583.777344 1448.328125 594.175781 1461.601562 602.398438 Z M 1461.601562 602.398438 "/>
<path style=" stroke:none;fill-rule:evenodd;fill:rgb(61.176471%,61.176471%,61.176471%);fill-opacity:1;" d="M 760.800781 631.199219 C 757.78125 645.105469 752.980469 657.90625 746.398438 669.601562 C 745.65625 654.164062 750.457031 641.363281 760.800781 631.199219 Z M 760.800781 631.199219 "/>
<path style=" stroke:none;fill-rule:evenodd;fill:rgb(61.176471%,61.176471%,61.176471%);fill-opacity:1;" d="M 1154.398438 631.199219 C 1164.742188 641.363281 1169.542969 654.164062 1168.800781 669.601562 C 1162.21875 657.90625 1157.417969 645.105469 1154.398438 631.199219 Z M 1154.398438 631.199219 "/>
<path style=" stroke:none;fill-rule:evenodd;fill:rgb(82.745098%,82.745098%,82.745098%);fill-opacity:1;" d="M 1461.601562 612 C 1466.210938 620.472656 1467.816406 630.070312 1466.398438 640.800781 C 1459.933594 654.558594 1450.335938 666.558594 1437.601562 676.800781 C 1400.015625 696.371094 1366.414062 692.371094 1336.800781 664.800781 C 1400.824219 696.738281 1442.425781 679.136719 1461.601562 612 Z M 1461.601562 612 "/>
<path style=" stroke:none;fill-rule:evenodd;fill:rgb(16.862745%,16.862745%,16.862745%);fill-opacity:1;" d="M 1336.800781 693.601562 C 1364.835938 717.425781 1396.839844 723.832031 1432.800781 712.800781 C 1431.402344 718.316406 1427.40625 721.515625 1420.800781 722.398438 C 1393.761719 731.226562 1368.960938 727.230469 1346.398438 710.398438 C 1340.050781 706.484375 1336.851562 700.882812 1336.800781 693.601562 Z M 1336.800781 693.601562 "/>
<path style=" stroke:none;fill-rule:evenodd;fill:rgb(32.54902%,32.54902%,32.54902%);fill-opacity:1;" d="M 1461.601562 592.800781 C 1465.285156 596.460938 1467.6875 601.261719 1468.800781 607.199219 C 1474.210938 637.222656 1471.007812 666.023438 1459.199219 693.601562 C 1451.273438 701.808594 1442.476562 708.210938 1432.800781 712.800781 C 1396.839844 723.832031 1364.835938 717.425781 1336.800781 693.601562 C 1328.425781 686.242188 1323.625 676.640625 1322.398438 664.800781 C 1337.347656 677.976562 1351.746094 691.574219 1365.601562 705.601562 C 1423.117188 719.070312 1456.71875 697.46875 1466.398438 640.800781 C 1467.816406 630.070312 1466.210938 620.472656 1461.601562 612 C 1461.601562 608.796875 1461.601562 605.601562 1461.601562 602.398438 C 1461.601562 599.199219 1461.601562 596 1461.601562 592.800781 Z M 1461.601562 592.800781 "/>
<path style=" stroke:none;fill-rule:evenodd;fill:rgb(63.921569%,63.921569%,63.921569%);fill-opacity:1;" d="M 655.199219 645.601562 C 652.464844 682.339844 650.859375 719.140625 650.398438 756 C 643.8125 718.929688 645.414062 682.132812 655.199219 645.601562 Z M 655.199219 645.601562 "/>
<path style=" stroke:none;fill-rule:evenodd;fill:rgb(65.882353%,65.882353%,65.882353%);fill-opacity:1;" d="M 1260 645.601562 C 1269.691406 680.53125 1271.289062 715.726562 1264.800781 751.199219 C 1264.179688 715.945312 1262.582031 680.746094 1260 645.601562 Z M 1260 645.601562 "/>
<path style=" stroke:none;fill-rule:evenodd;fill:rgb(39.607843%,39.607843%,39.607843%);fill-opacity:1;" d="M 578.398438 741.601562 C 589.617188 753.433594 596.816406 767.832031 600 784.800781 C 602.394531 802.328125 603.191406 819.925781 602.398438 837.601562 C 594.035156 863.558594 576.433594 879.5625 549.601562 885.601562 C 566.941406 877.859375 579.742188 865.054688 588 847.199219 C 596.980469 827.851562 598.578125 808.652344 592.800781 789.601562 C 593.9375 783.402344 592.339844 778.601562 588 775.199219 C 585.214844 764.40625 578.816406 756.40625 568.800781 751.199219 C 564.671875 741.054688 556.671875 735.457031 544.800781 734.398438 C 525.148438 730.71875 505.949219 732.316406 487.199219 739.199219 C 476.722656 750.480469 465.523438 760.882812 453.601562 770.398438 C 448.875 784.453125 447.277344 798.855469 448.800781 813.601562 C 445.625 805.757812 444.027344 796.957031 444 787.199219 C 443.039062 773.441406 446.238281 761.441406 453.601562 751.199219 C 492.269531 711.570312 533.867188 708.371094 578.398438 741.601562 Z M 578.398438 741.601562 "/>
<path style=" stroke:none;fill-rule:evenodd;fill:rgb(19.215686%,19.215686%,19.215686%);fill-opacity:1;" d="M 578.398438 741.601562 C 533.867188 708.371094 492.269531 711.570312 453.601562 751.199219 C 472.425781 713.964844 502.824219 700.363281 544.800781 710.398438 C 552.75 719.179688 562.347656 725.582031 573.601562 729.601562 C 577.210938 732.820312 578.8125 736.820312 578.398438 741.601562 Z M 578.398438 741.601562 "/>
<path style=" stroke:none;fill-rule:evenodd;fill:rgb(63.137255%,63.137255%,63.137255%);fill-opacity:1;" d="M 568.800781 751.199219 C 515.71875 727.246094 478.914062 741.648438 458.398438 794.398438 C 452.070312 812.515625 453.671875 830.117188 463.199219 847.199219 C 460 845.601562 456.800781 844 453.601562 842.398438 C 450.480469 833.113281 448.882812 823.511719 448.800781 813.601562 C 447.277344 798.855469 448.875 784.453125 453.601562 770.398438 C 465.523438 760.882812 476.722656 750.480469 487.199219 739.199219 C 505.949219 732.316406 525.148438 730.71875 544.800781 734.398438 C 556.671875 735.457031 564.671875 741.054688 568.800781 751.199219 Z M 568.800781 751.199219 "/>
<path style=" stroke:none;fill-rule:evenodd;fill:rgb(82.352941%,82.352941%,82.352941%);fill-opacity:1;" d="M 568.800781 751.199219 C 578.816406 756.40625 585.214844 764.40625 588 775.199219 C 559.695312 759.277344 529.292969 753.675781 496.800781 758.398438 C 484.753906 771.25 471.953125 783.25 458.398438 794.398438 C 478.914062 741.648438 515.71875 727.246094 568.800781 751.199219 Z M 568.800781 751.199219 "/>
<path style=" stroke:none;fill-rule:evenodd;fill:rgb(98.823529%,98.823529%,98.823529%);fill-opacity:1;" d="M 588 775.199219 C 592.339844 778.601562 593.9375 783.402344 592.800781 789.601562 C 593.769531 801.546875 591.371094 812.75 585.601562 823.199219 C 572.609375 834.308594 560.609375 846.308594 549.601562 859.199219 C 525.464844 862.023438 501.464844 861.226562 477.601562 856.800781 C 475.328125 850.050781 470.527344 846.847656 463.199219 847.199219 C 453.671875 830.117188 452.070312 812.515625 458.398438 794.398438 C 471.953125 783.25 484.753906 771.25 496.800781 758.398438 C 529.292969 753.675781 559.695312 759.277344 588 775.199219 Z M 588 775.199219 "/>
<path style=" stroke:none;fill-rule:evenodd;fill:rgb(52.54902%,52.54902%,52.54902%);fill-opacity:1;" d="M 746.398438 760.800781 C 754.578125 777.308594 760.980469 794.902344 765.601562 813.601562 C 753.648438 798.59375 747.25 781 746.398438 760.800781 Z M 746.398438 760.800781 "/>
<path style=" stroke:none;fill-rule:evenodd;fill:rgb(49.411765%,49.411765%,49.411765%);fill-opacity:1;" d="M 1168.800781 688.800781 C 1174.324219 713.519531 1175.121094 739.125 1171.199219 765.601562 C 1167.109375 783.667969 1159.910156 799.664062 1149.601562 813.601562 C 1166.351562 773.753906 1172.75 732.152344 1168.800781 688.800781 Z M 1168.800781 688.800781 "/>
<path style=" stroke:none;fill-rule:evenodd;fill:rgb(78.039216%,78.039216%,78.039216%);fill-opacity:1;" d="M 592.800781 789.601562 C 598.578125 808.652344 596.980469 827.851562 588 847.199219 C 571.867188 852.882812 557.46875 861.679688 544.800781 873.601562 C 525.355469 876.085938 506.15625 874.484375 487.199219 868.800781 C 482.972656 865.402344 479.773438 861.398438 477.601562 856.800781 C 501.464844 861.226562 525.464844 862.023438 549.601562 859.199219 C 560.609375 846.308594 572.609375 834.308594 585.601562 823.199219 C 591.371094 812.75 593.769531 801.546875 592.800781 789.601562 Z M 592.800781 789.601562 "/>
<path style=" stroke:none;fill-rule:evenodd;fill:rgb(41.568627%,41.568627%,41.568627%);fill-opacity:1;" d="M 453.601562 842.398438 C 456.800781 844 460 845.601562 463.199219 847.199219 C 467.929688 864.730469 479.128906 875.929688 496.800781 880.800781 C 514.113281 885.546875 531.714844 887.152344 549.601562 885.601562 C 525.28125 892.777344 501.28125 891.175781 477.601562 880.800781 C 462.566406 872.625 454.566406 859.824219 453.601562 842.398438 Z M 453.601562 842.398438 "/>
<path style=" stroke:none;fill-rule:evenodd;fill:rgb(59.607843%,59.607843%,59.607843%);fill-opacity:1;" d="M 463.199219 847.199219 C 470.527344 846.847656 475.328125 850.050781 477.601562 856.800781 C 479.773438 861.398438 482.972656 865.402344 487.199219 868.800781 C 506.15625 874.484375 525.355469 876.085938 544.800781 873.601562 C 557.46875 861.679688 571.867188 852.882812 588 847.199219 C 579.742188 865.054688 566.941406 877.859375 549.601562 885.601562 C 531.714844 887.152344 514.113281 885.546875 496.800781 880.800781 C 479.128906 875.929688 467.929688 864.730469 463.199219 847.199219 Z M 463.199219 847.199219 "/>
<path style=" stroke:none;fill-rule:evenodd;fill:rgb(23.529412%,23.529412%,23.529412%);fill-opacity:1;" d="M 602.398438 837.601562 C 603.152344 844.191406 602.351562 850.59375 600 856.800781 C 593.375 870.453125 586.175781 883.246094 578.398438 895.199219 C 547.992188 907.601562 517.589844 907.601562 487.199219 895.199219 C 482.761719 891.085938 479.558594 886.285156 477.601562 880.800781 C 501.28125 891.175781 525.28125 892.777344 549.601562 885.601562 C 576.433594 879.5625 594.035156 863.558594 602.398438 837.601562 Z M 602.398438 837.601562 "/>
<path style=" stroke:none;fill-rule:evenodd;fill:rgb(57.647059%,57.647059%,57.647059%);fill-opacity:1;" d="M 1053.601562 909.601562 C 1046.242188 917.976562 1036.640625 922.777344 1024.800781 924 C 1032.160156 915.625 1041.757812 910.824219 1053.601562 909.601562 Z M 1053.601562 909.601562 "/>
<path style=" stroke:none;fill-rule:evenodd;fill:rgb(61.176471%,61.176471%,61.176471%);fill-opacity:1;" d="M 871.199219 914.398438 C 885.105469 917.417969 897.90625 922.21875 909.601562 928.800781 C 894.164062 929.542969 881.363281 924.742188 871.199219 914.398438 Z M 871.199219 914.398438 "/>
<path style=" stroke:none;fill-rule:evenodd;fill:rgb(63.921569%,63.921569%,63.921569%);fill-opacity:1;" d="M 885.601562 1020 C 922.339844 1022.734375 959.140625 1024.339844 996 1024.800781 C 958.929688 1031.386719 922.132812 1029.789062 885.601562 1020 Z M 885.601562 1020 "/>
</g>
</svg>
