<?xml version="1.0" encoding="UTF-8"?>
<svg xmlns="http://www.w3.org/2000/svg" xmlns:xlink="http://www.w3.org/1999/xlink" width="1920pt" height="1440pt" viewBox="0 0 1920 1440" version="1.1">
<g id="surface1">
<path style=" stroke:none;fill-rule:evenodd;fill:rgb(0%,0%,0%);fill-opacity:1;" d="M -2.398438 -2.398438 C 637.597656 -2.398438 1277.601562 -2.398438 1917.601562 -2.398438 C 1917.601562 477.601562 1917.601562 957.601562 1917.601562 1437.601562 C 1277.601562 1437.601562 637.597656 1437.601562 -2.398438 1437.601562 C -2.398438 957.601562 -2.398438 477.601562 -2.398438 -2.398438 Z M -2.398438 -2.398438 "/>
<path style=" stroke:none;fill-rule:evenodd;fill:rgb(22.352941%,22.352941%,22.352941%);fill-opacity:1;" d="M 924 208.800781 C 933.730469 215.695312 944.132812 222.09375 955.199219 228 C 970.675781 251.339844 975.476562 276.9375 969.601562 304.800781 C 966.203125 309.027344 962.199219 312.226562 957.601562 314.398438 C 962.53125 295.460938 963.332031 276.257812 960 256.800781 C 950.230469 238.355469 938.230469 222.355469 924 208.800781 Z M 924 208.800781 "/>
<path style=" stroke:none;fill-rule:evenodd;fill:rgb(81.568627%,81.568627%,81.568627%);fill-opacity:1;" d="M 924 338.398438 C 914.859375 339.539062 908.457031 344.339844 904.800781 352.800781 C 903.203125 352.800781 901.597656 352.800781 900 352.800781 C 882.328125 353.59375 864.730469 352.792969 847.199219 350.398438 C 835.199219 335.199219 823.199219 320 811.199219 304.800781 C 799.507812 265.503906 809.910156 235.105469 842.398438 213.601562 C 845.601562 213.601562 848.796875 213.601562 852 213.601562 C 867.550781 207.636719 883.554688 208.4375 900 216 C 912.078125 228.878906 924.878906 240.878906 938.398438 252 C 947.34375 283.589844 942.542969 312.390625 924 338.398438 Z M 924 338.398438 "/>
<path style=" stroke:none;fill-rule:evenodd;fill:rgb(99.215686%,99.215686%,99.215686%);fill-opacity:1;" d="M 852 213.601562 C 910.414062 220.167969 935.21875 252.167969 926.398438 309.601562 C 915.058594 346.554688 891.859375 356.953125 856.800781 340.800781 C 824.433594 321.960938 814.03125 293.957031 825.601562 256.800781 C 833.425781 241.78125 842.226562 227.382812 852 213.601562 Z M 852 213.601562 "/>
<path style=" stroke:none;fill-rule:evenodd;fill:rgb(41.176471%,41.176471%,41.176471%);fill-opacity:1;" d="M 904.800781 208.800781 C 911.199219 208.800781 917.601562 208.800781 924 208.800781 C 938.230469 222.355469 950.230469 238.355469 960 256.800781 C 963.332031 276.257812 962.53125 295.460938 957.601562 314.398438 C 948.101562 337.617188 930.5 350.417969 904.800781 352.800781 C 908.457031 344.339844 914.859375 339.539062 924 338.398438 C 937.222656 331.386719 946.023438 320.1875 950.398438 304.800781 C 953.601562 287.199219 953.601562 269.601562 950.398438 252 C 937.539062 234.835938 922.339844 220.433594 904.800781 208.800781 Z M 904.800781 208.800781 "/>
<path style=" stroke:none;fill-rule:evenodd;fill:rgb(56.078431%,56.078431%,56.078431%);fill-opacity:1;" d="M 904.800781 208.800781 C 922.339844 220.433594 937.539062 234.835938 950.398438 252 C 953.601562 269.601562 953.601562 287.199219 950.398438 304.800781 C 946.023438 320.1875 937.222656 331.386719 924 338.398438 C 942.542969 312.390625 947.34375 283.589844 938.398438 252 C 924.878906 240.878906 912.078125 228.878906 900 216 C 883.554688 208.4375 867.550781 207.636719 852 213.601562 C 848.796875 213.601562 845.601562 213.601562 842.398438 213.601562 C 842.933594 210.636719 844.53125 208.238281 847.199219 206.398438 C 867.308594 202.503906 886.507812 203.300781 904.800781 208.800781 Z M 904.800781 208.800781 "/>
<path style=" stroke:none;fill-rule:evenodd;fill:rgb(50.980392%,50.980392%,50.980392%);fill-opacity:1;" d="M 842.398438 213.601562 C 809.910156 235.105469 799.507812 265.503906 811.199219 304.800781 C 823.199219 320 835.199219 335.199219 847.199219 350.398438 C 864.730469 352.792969 882.328125 353.59375 900 352.800781 C 894.875 357.285156 888.476562 358.886719 880.800781 357.601562 C 839.335938 363.667969 809.734375 347.667969 792 309.601562 C 788.203125 288.359375 789.804688 267.558594 796.800781 247.199219 C 806.59375 238.222656 815.390625 228.621094 823.199219 218.398438 C 828.328125 213.914062 834.726562 212.316406 842.398438 213.601562 Z M 842.398438 213.601562 "/>
<path style=" stroke:none;fill-rule:evenodd;fill:rgb(26.27451%,26.27451%,26.27451%);fill-opacity:1;" d="M 823.199219 218.398438 C 815.390625 228.621094 806.59375 238.222656 796.800781 247.199219 C 789.804688 267.558594 788.203125 288.359375 792 309.601562 C 809.734375 347.667969 839.335938 363.667969 880.800781 357.601562 C 835.636719 369.835938 802.839844 353.832031 782.398438 309.601562 C 771.648438 267.207031 785.25 236.804688 823.199219 218.398438 Z M 823.199219 218.398438 "/>
<path style=" stroke:none;fill-rule:evenodd;fill:rgb(98.039216%,98.039216%,98.039216%);fill-opacity:1;" d="M 1250.398438 602.398438 C 1249.992188 617.515625 1254.792969 630.316406 1264.800781 640.800781 C 1292.070312 814.347656 1226.46875 938.347656 1068 1012.800781 C 900.46875 1063.390625 770.871094 1014.59375 679.199219 866.398438 C 680.5 857.375 677.300781 850.976562 669.601562 847.199219 C 608.601562 685.972656 647 553.972656 784.800781 451.199219 C 902.59375 382.664062 1019.394531 384.261719 1135.199219 456 C 1176.40625 487.597656 1210.808594 525.195312 1238.398438 568.800781 C 1243.851562 579.566406 1247.855469 590.765625 1250.398438 602.398438 Z M 1250.398438 602.398438 "/>
<path style=" stroke:none;fill-rule:evenodd;fill:rgb(1.176471%,1.176471%,1.176471%);fill-opacity:1;" d="M 933.601562 535.199219 C 1008.320312 530.179688 1067.519531 557.378906 1111.199219 616.800781 C 1110.847656 624.128906 1114.050781 628.929688 1120.800781 631.199219 C 1159.921875 724.386719 1140.71875 803.585938 1063.199219 868.800781 C 1014.195312 897.949219 961.398438 907.550781 904.800781 897.601562 C 893.347656 891.875 882.144531 886.273438 871.199219 880.800781 C 868.929688 874.050781 864.128906 870.847656 856.800781 871.199219 C 775.1875 807.160156 754.386719 727.15625 794.398438 631.199219 C 801.148438 628.929688 804.351562 624.128906 804 616.800781 C 826.53125 582.394531 856.933594 558.394531 895.199219 544.800781 C 909.253906 544.488281 922.054688 541.285156 933.601562 535.199219 Z M 933.601562 535.199219 "/>
<path style=" stroke:none;fill-rule:evenodd;fill:rgb(30.980392%,30.980392%,30.980392%);fill-opacity:1;" d="M 933.601562 535.199219 C 922.054688 541.285156 909.253906 544.488281 895.199219 544.800781 C 906.421875 537.40625 919.222656 534.210938 933.601562 535.199219 Z M 933.601562 535.199219 "/>
<path style=" stroke:none;fill-rule:evenodd;fill:rgb(43.921569%,43.921569%,43.921569%);fill-opacity:1;" d="M 804 616.800781 C 804.351562 624.128906 801.148438 628.929688 794.398438 631.199219 C 794.050781 623.871094 797.25 619.070312 804 616.800781 Z M 804 616.800781 "/>
<path style=" stroke:none;fill-rule:evenodd;fill:rgb(43.921569%,43.921569%,43.921569%);fill-opacity:1;" d="M 1111.199219 616.800781 C 1117.949219 619.070312 1121.152344 623.871094 1120.800781 631.199219 C 1114.050781 628.929688 1110.847656 624.128906 1111.199219 616.800781 Z M 1111.199219 616.800781 "/>
<path style=" stroke:none;fill-rule:evenodd;fill:rgb(56.078431%,56.078431%,56.078431%);fill-opacity:1;" d="M 1250.398438 602.398438 C 1258.882812 613.402344 1263.679688 626.199219 1264.800781 640.800781 C 1254.792969 630.316406 1249.992188 617.515625 1250.398438 602.398438 Z M 1250.398438 602.398438 "/>
<path style=" stroke:none;fill-rule:evenodd;fill:rgb(49.803922%,49.803922%,49.803922%);fill-opacity:1;" d="M 669.601562 847.199219 C 677.300781 850.976562 680.5 857.375 679.199219 866.398438 C 673.566406 861.53125 670.367188 855.132812 669.601562 847.199219 Z M 669.601562 847.199219 "/>
<path style=" stroke:none;fill-rule:evenodd;fill:rgb(43.921569%,43.921569%,43.921569%);fill-opacity:1;" d="M 856.800781 871.199219 C 864.128906 870.847656 868.929688 874.050781 871.199219 880.800781 C 863.871094 881.152344 859.070312 877.949219 856.800781 871.199219 Z M 856.800781 871.199219 "/>
<path style=" stroke:none;fill-rule:evenodd;fill:rgb(98.039216%,98.039216%,98.039216%);fill-opacity:1;" d="M 1058.398438 1087.199219 C 1086.320312 1112.574219 1096.722656 1144.574219 1089.601562 1183.199219 C 1081.070312 1195.484375 1073.871094 1208.285156 1068 1221.601562 C 1016.519531 1228.78125 987.71875 1207.179688 981.601562 1156.800781 C 982.488281 1135.476562 987.289062 1115.476562 996 1096.800781 C 1004.140625 1095.910156 1010.539062 1091.910156 1015.199219 1084.800781 C 1029.863281 1081.757812 1044.265625 1082.554688 1058.398438 1087.199219 Z M 1058.398438 1087.199219 "/>
<path style=" stroke:none;fill-rule:evenodd;fill:rgb(43.921569%,43.921569%,43.921569%);fill-opacity:1;" d="M 1005.601562 1082.398438 C 1002.398438 1087.199219 999.203125 1092 996 1096.800781 C 972.585938 1115.007812 963.789062 1139.007812 969.601562 1168.800781 C 979.988281 1187.113281 990.390625 1205.515625 1000.800781 1224 C 1018.328125 1226.394531 1035.925781 1227.191406 1053.601562 1226.398438 C 1030.050781 1232.871094 1006.050781 1232.074219 981.601562 1224 C 973.476562 1217.726562 967.078125 1210.527344 962.398438 1202.398438 C 961.546875 1185.710938 958.34375 1169.710938 952.800781 1154.398438 C 954.417969 1141.554688 956.015625 1128.753906 957.601562 1116 C 968.039062 1097.664062 984.039062 1086.464844 1005.601562 1082.398438 Z M 1005.601562 1082.398438 "/>
<path style=" stroke:none;fill-rule:evenodd;fill:rgb(58.039216%,58.039216%,58.039216%);fill-opacity:1;" d="M 1024.800781 1077.601562 C 1096.996094 1070.605469 1129.800781 1102.601562 1123.199219 1173.601562 C 1115.46875 1190.101562 1105.070312 1204.503906 1092 1216.800781 C 1087.722656 1219.726562 1082.921875 1221.328125 1077.601562 1221.601562 C 1091.320312 1202.136719 1100.917969 1180.535156 1106.398438 1156.800781 C 1107.695312 1133.453125 1098.898438 1115.054688 1080 1101.601562 C 1077.679688 1097.050781 1076.886719 1092.25 1077.601562 1087.199219 C 1071.203125 1087.199219 1064.796875 1087.199219 1058.398438 1087.199219 C 1044.265625 1082.554688 1029.863281 1081.757812 1015.199219 1084.800781 C 1010.539062 1091.910156 1004.140625 1095.910156 996 1096.800781 C 999.203125 1092 1002.398438 1087.199219 1005.601562 1082.398438 C 1011.398438 1078.875 1017.796875 1077.277344 1024.800781 1077.601562 Z M 1024.800781 1077.601562 "/>
<path style=" stroke:none;fill-rule:evenodd;fill:rgb(21.568627%,21.568627%,21.568627%);fill-opacity:1;" d="M 957.601562 1116 C 956.015625 1128.753906 954.417969 1141.554688 952.800781 1154.398438 C 958.34375 1169.710938 961.546875 1185.710938 962.398438 1202.398438 C 957.800781 1200.226562 953.796875 1197.027344 950.398438 1192.800781 C 943.714844 1170.742188 942.113281 1148.347656 945.601562 1125.601562 C 949 1121.371094 953 1118.175781 957.601562 1116 Z M 957.601562 1116 "/>
<path style=" stroke:none;fill-rule:evenodd;fill:rgb(26.666667%,26.666667%,26.666667%);fill-opacity:1;" d="M 1024.800781 1077.601562 C 1044.699219 1072.09375 1065.503906 1071.292969 1087.199219 1075.199219 C 1138.007812 1105.554688 1148.410156 1146.355469 1118.398438 1197.601562 C 1111.433594 1207.027344 1102.636719 1213.425781 1092 1216.800781 C 1105.070312 1204.503906 1115.46875 1190.101562 1123.199219 1173.601562 C 1129.800781 1102.601562 1096.996094 1070.605469 1024.800781 1077.601562 Z M 1024.800781 1077.601562 "/>
<path style=" stroke:none;fill-rule:evenodd;fill:rgb(82.745098%,82.745098%,82.745098%);fill-opacity:1;" d="M 1058.398438 1087.199219 C 1064.796875 1087.199219 1071.203125 1087.199219 1077.601562 1087.199219 C 1076.886719 1092.25 1077.679688 1097.050781 1080 1101.601562 C 1098.898438 1115.054688 1107.695312 1133.453125 1106.398438 1156.800781 C 1100.917969 1180.535156 1091.320312 1202.136719 1077.601562 1221.601562 C 1074.398438 1221.601562 1071.203125 1221.601562 1068 1221.601562 C 1073.871094 1208.285156 1081.070312 1195.484375 1089.601562 1183.199219 C 1096.722656 1144.574219 1086.320312 1112.574219 1058.398438 1087.199219 Z M 1058.398438 1087.199219 "/>
<path style=" stroke:none;fill-rule:evenodd;fill:rgb(68.627451%,68.627451%,68.627451%);fill-opacity:1;" d="M 996 1096.800781 C 987.289062 1115.476562 982.488281 1135.476562 981.601562 1156.800781 C 987.71875 1207.179688 1016.519531 1228.78125 1068 1221.601562 C 1064.597656 1225.9375 1059.796875 1227.539062 1053.601562 1226.398438 C 1035.925781 1227.191406 1018.328125 1226.394531 1000.800781 1224 C 990.390625 1205.515625 979.988281 1187.113281 969.601562 1168.800781 C 963.789062 1139.007812 972.585938 1115.007812 996 1096.800781 Z M 996 1096.800781 "/>
</g>
</svg>
