<?xml version="1.0" encoding="UTF-8"?>
<svg xmlns="http://www.w3.org/2000/svg" xmlns:xlink="http://www.w3.org/1999/xlink" width="1920pt" height="1440pt" viewBox="0 0 1920 1440" version="1.1">
<g id="surface1">
<path style=" stroke:none;fill-rule:evenodd;fill:rgb(0%,0%,0%);fill-opacity:1;" d="M -2.398438 -2.398438 C 637.597656 -2.398438 1277.601562 -2.398438 1917.601562 -2.398438 C 1917.601562 477.601562 1917.601562 957.601562 1917.601562 1437.601562 C 1277.601562 1437.601562 637.597656 1437.601562 -2.398438 1437.601562 C -2.398438 957.601562 -2.398438 477.601562 -2.398438 -2.398438 Z M -2.398438 -2.398438 "/>
<path style=" stroke:none;fill-rule:evenodd;fill:rgb(97.647059%,97.647059%,97.647059%);fill-opacity:1;" d="M 1255.199219 640.800781 C 1254.210938 655.175781 1257.40625 667.976562 1264.800781 679.199219 C 1265.449219 714.539062 1263.847656 749.742188 1260 784.800781 C 1253.417969 796.492188 1248.621094 809.292969 1245.601562 823.199219 C 1201.699219 938.25 1118.5 1004.648438 996 1022.398438 C 962.160156 1026.046875 928.558594 1025.246094 895.199219 1020 C 885.527344 1013.164062 874.328125 1009.96875 861.601562 1010.398438 C 852.378906 1006.257812 842.777344 1003.0625 832.800781 1000.800781 C 830.53125 994.050781 825.730469 990.847656 818.398438 991.199219 C 746.957031 954.929688 697.355469 898.933594 669.601562 823.199219 C 666.582031 809.292969 661.78125 796.492188 655.199219 784.800781 C 651.609375 749.71875 650.007812 714.519531 650.398438 679.199219 C 657.792969 667.976562 660.988281 655.175781 660 640.800781 C 688.980469 533.308594 756.183594 461.308594 861.601562 424.800781 C 874.695312 426.382812 885.898438 423.179688 895.199219 415.199219 C 1048.679688 395.539062 1163.078125 453.140625 1238.398438 588 C 1246.84375 604.84375 1252.445312 622.441406 1255.199219 640.800781 Z M 1255.199219 640.800781 "/>
<path style=" stroke:none;fill-rule:evenodd;fill:rgb(59.607843%,59.607843%,59.607843%);fill-opacity:1;" d="M 895.199219 415.199219 C 885.898438 423.179688 874.695312 426.382812 861.601562 424.800781 C 871.273438 417.964844 882.46875 414.765625 895.199219 415.199219 Z M 895.199219 415.199219 "/>
<path style=" stroke:none;fill-rule:evenodd;fill:rgb(31.372549%,31.372549%,31.372549%);fill-opacity:1;" d="M 1413.601562 468 C 1374.796875 433.347656 1333.199219 430.148438 1288.800781 458.398438 C 1276.992188 479.25 1272.191406 501.652344 1274.398438 525.601562 C 1262.753906 450.839844 1294.757812 418.839844 1370.398438 429.601562 C 1381.632812 440.019531 1394.429688 448.019531 1408.800781 453.601562 C 1411.808594 458 1413.414062 462.800781 1413.601562 468 Z M 1413.601562 468 "/>
<path style=" stroke:none;fill-rule:evenodd;fill:rgb(55.294118%,55.294118%,55.294118%);fill-opacity:1;" d="M 1413.601562 468 C 1418.878906 473.304688 1422.082031 479.703125 1423.199219 487.199219 C 1421.601562 487.199219 1420 487.199219 1418.398438 487.199219 C 1409.910156 473.871094 1398.710938 464.273438 1384.800781 458.398438 C 1314.90625 443.433594 1281.308594 472.234375 1284 544.800781 C 1278.363281 539.933594 1275.167969 533.535156 1274.398438 525.601562 C 1272.191406 501.652344 1276.992188 479.25 1288.800781 458.398438 C 1333.199219 430.148438 1374.796875 433.347656 1413.601562 468 Z M 1413.601562 468 "/>
<path style=" stroke:none;fill-rule:evenodd;fill:rgb(98.431373%,98.431373%,98.431373%);fill-opacity:1;" d="M 1384.800781 458.398438 C 1398.710938 464.273438 1409.910156 473.871094 1418.398438 487.199219 C 1417.445312 541.761719 1389.445312 570.5625 1334.398438 573.601562 C 1318.8125 568.492188 1303.613281 562.089844 1288.800781 554.398438 C 1288.800781 552.800781 1288.800781 551.199219 1288.800781 549.601562 C 1286.011719 483.605469 1318.011719 453.203125 1384.800781 458.398438 Z M 1384.800781 458.398438 "/>
<path style=" stroke:none;fill-rule:evenodd;fill:rgb(75.686275%,75.686275%,75.686275%);fill-opacity:1;" d="M 1384.800781 458.398438 C 1318.011719 453.203125 1286.011719 483.605469 1288.800781 549.601562 C 1285.597656 549.601562 1284 548 1284 544.800781 C 1281.308594 472.234375 1314.90625 443.433594 1384.800781 458.398438 Z M 1384.800781 458.398438 "/>
<path style=" stroke:none;fill-rule:evenodd;fill:rgb(0.784314%,0.784314%,0.784314%);fill-opacity:1;" d="M 1164 765.601562 C 1157.417969 777.292969 1152.621094 790.09375 1149.601562 804 C 1138.441406 826.304688 1124.835938 847.105469 1108.800781 866.398438 C 1089.125 883.824219 1067.523438 898.222656 1044 909.601562 C 1030.09375 912.621094 1017.292969 917.417969 1005.601562 924 C 1004 924 1002.398438 924 1000.800781 924 C 972 930.398438 943.199219 930.398438 914.398438 924 C 826.589844 903.390625 772.191406 848.992188 751.199219 760.800781 C 747.867188 735.335938 746.265625 709.738281 746.398438 684 C 767.824219 588.183594 827.019531 529.785156 924 508.800781 C 1053.75 501.144531 1134.550781 559.539062 1166.398438 684 C 1169.058594 711.300781 1168.257812 738.503906 1164 765.601562 Z M 1164 765.601562 "/>
<path style=" stroke:none;fill-rule:evenodd;fill:rgb(68.235294%,68.235294%,68.235294%);fill-opacity:1;" d="M 1423.199219 487.199219 C 1427.222656 488.839844 1428.824219 492.039062 1428 496.800781 C 1429.535156 513.109375 1427.9375 529.113281 1423.199219 544.800781 C 1400.699219 588.917969 1367.097656 601.714844 1322.398438 583.199219 C 1341.667969 583.996094 1360.867188 583.195312 1380 580.800781 C 1387.199219 567.203125 1397.601562 556.800781 1411.199219 549.601562 C 1421.039062 530.210938 1425.042969 509.414062 1423.199219 487.199219 Z M 1423.199219 487.199219 "/>
<path style=" stroke:none;fill-rule:evenodd;fill:rgb(82.745098%,82.745098%,82.745098%);fill-opacity:1;" d="M 1418.398438 487.199219 C 1420 487.199219 1421.601562 487.199219 1423.199219 487.199219 C 1425.042969 509.414062 1421.039062 530.210938 1411.199219 549.601562 C 1397.601562 556.800781 1387.199219 567.203125 1380 580.800781 C 1360.867188 583.195312 1341.667969 583.996094 1322.398438 583.199219 C 1314.960938 578.683594 1306.964844 575.488281 1298.398438 573.601562 C 1295.199219 567.203125 1292 560.796875 1288.800781 554.398438 C 1303.613281 562.089844 1318.8125 568.492188 1334.398438 573.601562 C 1389.445312 570.5625 1417.445312 541.761719 1418.398438 487.199219 Z M 1418.398438 487.199219 "/>
<path style=" stroke:none;fill-rule:evenodd;fill:rgb(43.529412%,43.529412%,43.529412%);fill-opacity:1;" d="M 1428 496.800781 C 1449.175781 577.316406 1417.179688 613.316406 1332 604.800781 C 1317.210938 598.585938 1306.011719 588.1875 1298.398438 573.601562 C 1306.964844 575.488281 1314.960938 578.683594 1322.398438 583.199219 C 1367.097656 601.714844 1400.699219 588.917969 1423.199219 544.800781 C 1427.9375 529.113281 1429.535156 513.109375 1428 496.800781 Z M 1428 496.800781 "/>
<path style=" stroke:none;fill-rule:evenodd;fill:rgb(47.45098%,47.45098%,47.45098%);fill-opacity:1;" d="M 660 640.800781 C 660.988281 655.175781 657.792969 667.976562 650.398438 679.199219 C 650.710938 665.144531 653.914062 652.34375 660 640.800781 Z M 660 640.800781 "/>
<path style=" stroke:none;fill-rule:evenodd;fill:rgb(46.27451%,46.27451%,46.27451%);fill-opacity:1;" d="M 1255.199219 640.800781 C 1261.285156 652.34375 1264.488281 665.144531 1264.800781 679.199219 C 1257.40625 667.976562 1254.210938 655.175781 1255.199219 640.800781 Z M 1255.199219 640.800781 "/>
<path style=" stroke:none;fill-rule:evenodd;fill:rgb(74.901961%,74.901961%,74.901961%);fill-opacity:1;" d="M 746.398438 684 C 746.265625 709.738281 747.867188 735.335938 751.199219 760.800781 C 743.972656 747.089844 740.773438 731.890625 741.601562 715.199219 C 741.621094 703.867188 743.21875 693.46875 746.398438 684 Z M 746.398438 684 "/>
<path style=" stroke:none;fill-rule:evenodd;fill:rgb(56.078431%,56.078431%,56.078431%);fill-opacity:1;" d="M 1164 765.601562 C 1164.742188 781.035156 1159.945312 793.839844 1149.601562 804 C 1152.621094 790.09375 1157.417969 777.292969 1164 765.601562 Z M 1164 765.601562 "/>
<path style=" stroke:none;fill-rule:evenodd;fill:rgb(30.588235%,30.588235%,30.588235%);fill-opacity:1;" d="M 655.199219 784.800781 C 661.78125 796.492188 666.582031 809.292969 669.601562 823.199219 C 659.257812 813.039062 654.457031 800.238281 655.199219 784.800781 Z M 655.199219 784.800781 "/>
<path style=" stroke:none;fill-rule:evenodd;fill:rgb(30.196078%,30.196078%,30.196078%);fill-opacity:1;" d="M 1260 784.800781 C 1260.742188 800.238281 1255.945312 813.039062 1245.601562 823.199219 C 1248.621094 809.292969 1253.417969 796.492188 1260 784.800781 Z M 1260 784.800781 "/>
<path style=" stroke:none;fill-rule:evenodd;fill:rgb(24.705882%,24.705882%,24.705882%);fill-opacity:1;" d="M 607.199219 847.199219 C 570.886719 828.867188 534.089844 828.867188 496.800781 847.199219 C 507.738281 829.988281 523.738281 820.386719 544.800781 818.398438 C 572.222656 815.898438 593.027344 825.5 607.199219 847.199219 Z M 607.199219 847.199219 "/>
<path style=" stroke:none;fill-rule:evenodd;fill:rgb(21.176471%,21.176471%,21.176471%);fill-opacity:1;" d="M 496.800781 847.199219 C 484.464844 871.128906 479.664062 896.726562 482.398438 924 C 469.546875 899.878906 471.144531 875.878906 487.199219 852 C 489.394531 848.167969 492.59375 846.570312 496.800781 847.199219 Z M 496.800781 847.199219 "/>
<path style=" stroke:none;fill-rule:evenodd;fill:rgb(98.039216%,98.039216%,98.039216%);fill-opacity:1;" d="M 621.601562 938.398438 C 587.113281 971.398438 547.113281 979.402344 501.601562 962.398438 C 500 959.199219 498.398438 956 496.800781 952.800781 C 488.730469 880.066406 520.734375 848.867188 592.800781 859.199219 C 616.757812 864.714844 627.957031 879.917969 626.398438 904.800781 C 625.1875 916.117188 623.585938 927.320312 621.601562 938.398438 Z M 621.601562 938.398438 "/>
<path style=" stroke:none;fill-rule:evenodd;fill:rgb(43.921569%,43.921569%,43.921569%);fill-opacity:1;" d="M 607.199219 847.199219 C 615.65625 850.859375 620.457031 857.261719 621.601562 866.398438 C 587.097656 840.789062 550.296875 836.789062 511.199219 854.398438 C 500.609375 862.484375 493.410156 872.886719 489.601562 885.601562 C 486.6875 904.976562 487.488281 924.175781 492 943.199219 C 484.300781 939.421875 481.097656 933.023438 482.398438 924 C 479.664062 896.726562 484.464844 871.128906 496.800781 847.199219 C 534.089844 828.867188 570.886719 828.867188 607.199219 847.199219 Z M 607.199219 847.199219 "/>
<path style=" stroke:none;fill-rule:evenodd;fill:rgb(60%,60%,60%);fill-opacity:1;" d="M 1044 909.601562 C 1033.839844 919.945312 1021.035156 924.742188 1005.601562 924 C 1017.292969 917.417969 1030.09375 912.621094 1044 909.601562 Z M 1044 909.601562 "/>
<path style=" stroke:none;fill-rule:evenodd;fill:rgb(72.54902%,72.54902%,72.54902%);fill-opacity:1;" d="M 914.398438 924 C 943.199219 930.398438 972 930.398438 1000.800781 924 C 987.90625 931.15625 973.507812 934.355469 957.601562 933.601562 C 941.691406 934.355469 927.292969 931.15625 914.398438 924 Z M 914.398438 924 "/>
<path style=" stroke:none;fill-rule:evenodd;fill:rgb(65.098039%,65.098039%,65.098039%);fill-opacity:1;" d="M 621.601562 866.398438 C 627.234375 871.265625 630.433594 877.664062 631.199219 885.601562 C 635.503906 907.871094 636.308594 930.269531 633.601562 952.800781 C 621.601562 964.800781 609.601562 976.800781 597.601562 988.800781 C 567.003906 1001.34375 539.808594 997.34375 516 976.800781 C 529.105469 976.671875 541.105469 979.871094 552 986.398438 C 587.578125 987.222656 610.777344 971.222656 621.601562 938.398438 C 623.585938 927.320312 625.1875 916.117188 626.398438 904.800781 C 627.957031 879.917969 616.757812 864.714844 592.800781 859.199219 C 520.734375 848.867188 488.730469 880.066406 496.800781 952.800781 C 492.777344 951.160156 491.175781 947.960938 492 943.199219 C 487.488281 924.175781 486.6875 904.976562 489.601562 885.601562 C 493.410156 872.886719 500.609375 862.484375 511.199219 854.398438 C 550.296875 836.789062 587.097656 840.789062 621.601562 866.398438 Z M 621.601562 866.398438 "/>
<path style=" stroke:none;fill-rule:evenodd;fill:rgb(77.647059%,77.647059%,77.647059%);fill-opacity:1;" d="M 621.601562 938.398438 C 610.777344 971.222656 587.578125 987.222656 552 986.398438 C 541.105469 979.871094 529.105469 976.671875 516 976.800781 C 514.359375 972.777344 511.160156 971.175781 506.398438 972 C 504.800781 968.796875 503.199219 965.601562 501.601562 962.398438 C 547.113281 979.402344 587.113281 971.398438 621.601562 938.398438 Z M 621.601562 938.398438 "/>
<path style=" stroke:none;fill-rule:evenodd;fill:rgb(34.117647%,34.117647%,34.117647%);fill-opacity:1;" d="M 631.199219 885.601562 C 661.234375 941.886719 646.832031 982.683594 588 1008 C 550.324219 1017.644531 523.125 1005.644531 506.398438 972 C 511.160156 971.175781 514.359375 972.777344 516 976.800781 C 539.808594 997.34375 567.003906 1001.34375 597.601562 988.800781 C 609.601562 976.800781 621.601562 964.800781 633.601562 952.800781 C 636.308594 930.269531 635.503906 907.871094 631.199219 885.601562 Z M 631.199219 885.601562 "/>
<path style=" stroke:none;fill-rule:evenodd;fill:rgb(50.980392%,50.980392%,50.980392%);fill-opacity:1;" d="M 818.398438 991.199219 C 825.730469 990.847656 830.53125 994.050781 832.800781 1000.800781 C 825.46875 1001.152344 820.671875 997.949219 818.398438 991.199219 Z M 818.398438 991.199219 "/>
<path style=" stroke:none;fill-rule:evenodd;fill:rgb(53.333333%,53.333333%,53.333333%);fill-opacity:1;" d="M 861.601562 1010.398438 C 874.328125 1009.96875 885.527344 1013.164062 895.199219 1020 C 882.46875 1020.433594 871.273438 1017.234375 861.601562 1010.398438 Z M 861.601562 1010.398438 "/>
</g>
</svg>
