<?xml version="1.0" encoding="UTF-8"?>
<svg xmlns="http://www.w3.org/2000/svg" xmlns:xlink="http://www.w3.org/1999/xlink" width="1920pt" height="1440pt" viewBox="0 0 1920 1440" version="1.1">
<g id="surface1">
<path style=" stroke:none;fill-rule:evenodd;fill:rgb(0%,0%,0%);fill-opacity:1;" d="M -2.398438 -2.398438 C 637.597656 -2.398438 1277.601562 -2.398438 1917.601562 -2.398438 C 1917.601562 477.601562 1917.601562 957.601562 1917.601562 1437.601562 C 1277.601562 1437.601562 637.597656 1437.601562 -2.398438 1437.601562 C -2.398438 957.601562 -2.398438 477.601562 -2.398438 -2.398438 Z M -2.398438 -2.398438 "/>
<path style=" stroke:none;fill-rule:evenodd;fill:rgb(97.647059%,97.647059%,97.647059%);fill-opacity:1;" d="M 1226.398438 276 C 1238.9375 282.136719 1250.136719 290.136719 1260 300 C 1277.625 384.746094 1244.027344 421.546875 1159.199219 410.398438 C 1149.601562 404 1141.597656 396 1135.199219 386.398438 C 1126.222656 354.015625 1129.425781 323.617188 1144.800781 295.199219 C 1154.609375 292.648438 1162.613281 287.050781 1168.800781 278.398438 C 1187.933594 276.003906 1207.132812 275.207031 1226.398438 276 Z M 1226.398438 276 "/>
<path style=" stroke:none;fill-rule:evenodd;fill:rgb(71.372549%,71.372549%,71.372549%);fill-opacity:1;" d="M 1221.601562 271.199219 C 1224.800781 271.199219 1226.398438 272.800781 1226.398438 276 C 1207.132812 275.207031 1187.933594 276.003906 1168.800781 278.398438 C 1162.613281 287.050781 1154.609375 292.648438 1144.800781 295.199219 C 1150.199219 287.382812 1156.601562 280.183594 1164 273.601562 C 1183.132812 271.207031 1202.332031 270.40625 1221.601562 271.199219 Z M 1221.601562 271.199219 "/>
<path style=" stroke:none;fill-rule:evenodd;fill:rgb(25.490196%,25.490196%,25.490196%);fill-opacity:1;" d="M 1159.199219 266.398438 C 1149.789062 278.226562 1139.386719 289.425781 1128 300 C 1118.453125 318.015625 1114.453125 337.214844 1116 357.601562 C 1103.878906 315.160156 1118.28125 284.757812 1159.199219 266.398438 Z M 1159.199219 266.398438 "/>
<path style=" stroke:none;fill-rule:evenodd;fill:rgb(53.333333%,53.333333%,53.333333%);fill-opacity:1;" d="M 1221.601562 271.199219 C 1202.332031 270.40625 1183.132812 271.207031 1164 273.601562 C 1156.601562 280.183594 1150.199219 287.382812 1144.800781 295.199219 C 1129.425781 323.617188 1126.222656 354.015625 1135.199219 386.398438 C 1126.242188 379.199219 1119.84375 369.597656 1116 357.601562 C 1114.453125 337.214844 1118.453125 318.015625 1128 300 C 1139.386719 289.425781 1149.789062 278.226562 1159.199219 266.398438 C 1181.058594 259.238281 1201.859375 260.839844 1221.601562 271.199219 Z M 1221.601562 271.199219 "/>
<path style=" stroke:none;fill-rule:evenodd;fill:rgb(34.901961%,34.901961%,34.901961%);fill-opacity:1;" d="M 909.601562 381.601562 C 899.929688 388.433594 888.730469 391.632812 876 391.199219 C 885.671875 384.367188 896.871094 381.164062 909.601562 381.601562 Z M 909.601562 381.601562 "/>
<path style=" stroke:none;fill-rule:evenodd;fill:rgb(97.647059%,97.647059%,97.647059%);fill-opacity:1;" d="M 909.601562 381.601562 C 1021.738281 372.199219 1117.738281 405.800781 1197.601562 482.398438 C 1200.382812 493.195312 1206.78125 501.191406 1216.800781 506.398438 C 1283.871094 585.027344 1307.871094 676.230469 1288.800781 780 C 1281.964844 789.671875 1278.769531 800.871094 1279.199219 813.601562 C 1232.976562 947 1140.171875 1026.203125 1000.800781 1051.199219 C 968.796875 1054.402344 936.800781 1054.402344 904.800781 1051.199219 C 868.445312 1042.925781 833.242188 1031.726562 799.199219 1017.601562 C 779.535156 1006.222656 761.933594 992.625 746.398438 976.800781 C 741.191406 966.78125 733.195312 960.382812 722.398438 957.601562 C 616.355469 839.269531 594.753906 706.46875 657.601562 559.199219 C 668.53125 542.015625 680.53125 526.011719 693.601562 511.199219 C 712.800781 495.203125 730.402344 477.601562 746.398438 458.398438 C 782.199219 422.097656 825.398438 399.699219 876 391.199219 C 888.730469 391.632812 899.929688 388.433594 909.601562 381.601562 Z M 909.601562 381.601562 "/>
<path style=" stroke:none;fill-rule:evenodd;fill:rgb(50.588235%,50.588235%,50.588235%);fill-opacity:1;" d="M 1260 300 C 1266.210938 303.792969 1271.8125 308.589844 1276.800781 314.398438 C 1291.957031 368.09375 1273.554688 404.09375 1221.601562 422.398438 C 1205.601562 425.601562 1189.597656 425.601562 1173.601562 422.398438 C 1166.679688 420.589844 1161.878906 416.589844 1159.199219 410.398438 C 1244.027344 421.546875 1277.625 384.746094 1260 300 Z M 1260 300 "/>
<path style=" stroke:none;fill-rule:evenodd;fill:rgb(67.843137%,67.843137%,67.843137%);fill-opacity:1;" d="M 746.398438 458.398438 C 730.402344 477.601562 712.800781 495.203125 693.601562 511.199219 C 706.402344 488.796875 724 471.199219 746.398438 458.398438 Z M 746.398438 458.398438 "/>
<path style=" stroke:none;fill-rule:evenodd;fill:rgb(61.176471%,61.176471%,61.176471%);fill-opacity:1;" d="M 1197.601562 482.398438 C 1207.617188 487.609375 1214.015625 495.605469 1216.800781 506.398438 C 1206.78125 501.191406 1200.382812 493.195312 1197.601562 482.398438 Z M 1197.601562 482.398438 "/>
<path style=" stroke:none;fill-rule:evenodd;fill:rgb(0.392157%,0.392157%,0.392157%);fill-opacity:1;" d="M 924 487.199219 C 1063.199219 484.910156 1150.398438 550.511719 1185.601562 684 C 1189.851562 825.3125 1123.449219 912.511719 986.398438 945.601562 C 843.277344 950.398438 757.675781 882.398438 729.601562 741.601562 C 727.34375 605.230469 792.144531 520.429688 924 487.199219 Z M 924 487.199219 "/>
<path style=" stroke:none;fill-rule:evenodd;fill:rgb(39.215686%,39.215686%,39.215686%);fill-opacity:1;" d="M 1288.800781 780 C 1289.230469 792.730469 1286.035156 803.929688 1279.199219 813.601562 C 1278.769531 800.871094 1281.964844 789.671875 1288.800781 780 Z M 1288.800781 780 "/>
<path style=" stroke:none;fill-rule:evenodd;fill:rgb(61.960784%,61.960784%,61.960784%);fill-opacity:1;" d="M 722.398438 957.601562 C 733.195312 960.382812 741.191406 966.78125 746.398438 976.800781 C 735.605469 974.015625 727.609375 967.617188 722.398438 957.601562 Z M 722.398438 957.601562 "/>
<path style=" stroke:none;fill-rule:evenodd;fill:rgb(98.039216%,98.039216%,98.039216%);fill-opacity:1;" d="M 746.398438 1020 C 758.9375 1026.140625 770.136719 1034.136719 780 1044 C 780 1047.203125 780 1050.398438 780 1053.601562 C 791.957031 1128.929688 759.957031 1164.132812 684 1159.199219 C 680.453125 1159.828125 677.25 1159.027344 674.398438 1156.800781 C 668.539062 1147.035156 662.136719 1138.238281 655.199219 1130.398438 C 640.96875 1087.496094 652.171875 1053.097656 688.800781 1027.199219 C 707.496094 1021.125 726.695312 1018.722656 746.398438 1020 Z M 746.398438 1020 "/>
<path style=" stroke:none;fill-rule:evenodd;fill:rgb(31.764706%,31.764706%,31.764706%);fill-opacity:1;" d="M 736.800781 1015.199219 C 661.296875 1012.265625 630.898438 1047.464844 645.601562 1120.800781 C 623.851562 1074.964844 635.050781 1038.964844 679.199219 1012.800781 C 699.308594 1008.902344 718.507812 1009.703125 736.800781 1015.199219 Z M 736.800781 1015.199219 "/>
<path style=" stroke:none;fill-rule:evenodd;fill:rgb(65.490196%,65.490196%,65.490196%);fill-opacity:1;" d="M 736.800781 1015.199219 C 741.5625 1014.375 744.757812 1015.976562 746.398438 1020 C 726.695312 1018.722656 707.496094 1021.125 688.800781 1027.199219 C 652.171875 1053.097656 640.96875 1087.496094 655.199219 1130.398438 C 650.398438 1128.800781 647.199219 1125.601562 645.601562 1120.800781 C 630.898438 1047.464844 661.296875 1012.265625 736.800781 1015.199219 Z M 736.800781 1015.199219 "/>
<path style=" stroke:none;fill-rule:evenodd;fill:rgb(70.196078%,70.196078%,70.196078%);fill-opacity:1;" d="M 780 1053.601562 C 798.207031 1079.515625 799.007812 1106.71875 782.398438 1135.199219 C 757.527344 1158.691406 727.925781 1168.292969 693.601562 1164 C 688.839844 1164.824219 685.640625 1163.222656 684 1159.199219 C 759.957031 1164.132812 791.957031 1128.929688 780 1053.601562 Z M 780 1053.601562 "/>
<path style=" stroke:none;fill-rule:evenodd;fill:rgb(39.215686%,39.215686%,39.215686%);fill-opacity:1;" d="M 780 1044 C 802.484375 1064.546875 809.683594 1090.152344 801.601562 1120.800781 C 780.390625 1163.140625 745.988281 1179.941406 698.398438 1171.199219 C 695.730469 1169.363281 694.132812 1166.960938 693.601562 1164 C 727.925781 1168.292969 757.527344 1158.691406 782.398438 1135.199219 C 799.007812 1106.71875 798.207031 1079.515625 780 1053.601562 C 780 1050.398438 780 1047.203125 780 1044 Z M 780 1044 "/>
</g>
</svg>
