<?xml version="1.0" encoding="UTF-8"?>
<svg xmlns="http://www.w3.org/2000/svg" xmlns:xlink="http://www.w3.org/1999/xlink" width="1920pt" height="1440pt" viewBox="0 0 1920 1440" version="1.1">
<g id="surface1">
<path style=" stroke:none;fill-rule:evenodd;fill:rgb(0%,0%,0%);fill-opacity:1;" d="M -2.398438 -2.398438 C 637.597656 -2.398438 1277.601562 -2.398438 1917.601562 -2.398438 C 1917.601562 477.601562 1917.601562 957.601562 1917.601562 1437.601562 C 1277.601562 1437.601562 637.597656 1437.601562 -2.398438 1437.601562 C -2.398438 957.601562 -2.398438 477.601562 -2.398438 -2.398438 Z M -2.398438 -2.398438 "/>
<path style=" stroke:none;fill-rule:evenodd;fill:rgb(97.647059%,97.647059%,97.647059%);fill-opacity:1;" d="M 904.800781 410.398438 C 1041.523438 395.972656 1147.925781 445.570312 1224 559.199219 C 1296.296875 711.476562 1271.496094 845.074219 1149.601562 960 C 1024.027344 1043.871094 897.628906 1045.472656 770.398438 964.800781 C 663.1875 873.53125 627.1875 759.132812 662.398438 621.601562 C 707.019531 508.9375 787.820312 438.539062 904.800781 410.398438 Z M 904.800781 410.398438 "/>
<path style=" stroke:none;fill-rule:evenodd;fill:rgb(25.882353%,25.882353%,25.882353%);fill-opacity:1;" d="M 1394.398438 448.800781 C 1320.113281 418.917969 1280.117188 444.519531 1274.398438 525.601562 C 1262.242188 452.132812 1294.242188 419.332031 1370.398438 427.199219 C 1380.566406 432.234375 1388.5625 439.4375 1394.398438 448.800781 Z M 1394.398438 448.800781 "/>
<path style=" stroke:none;fill-rule:evenodd;fill:rgb(68.627451%,68.627451%,68.627451%);fill-opacity:1;" d="M 1408.800781 463.199219 C 1412.824219 464.839844 1414.425781 468.039062 1413.601562 472.800781 C 1368.519531 448.660156 1328.519531 455.058594 1293.601562 492 C 1285.949219 508.757812 1282.746094 526.359375 1284 544.800781 C 1280.796875 544.800781 1279.199219 543.203125 1279.199219 540 C 1276.976562 510.160156 1284.980469 483.757812 1303.199219 460.800781 C 1339.003906 444.074219 1374.203125 444.875 1408.800781 463.199219 Z M 1408.800781 463.199219 "/>
<path style=" stroke:none;fill-rule:evenodd;fill:rgb(46.666667%,46.666667%,46.666667%);fill-opacity:1;" d="M 1394.398438 448.800781 C 1404 448.800781 1408.800781 453.601562 1408.800781 463.199219 C 1374.203125 444.875 1339.003906 444.074219 1303.199219 460.800781 C 1284.980469 483.757812 1276.976562 510.160156 1279.199219 540 C 1274.859375 536.597656 1273.261719 531.796875 1274.398438 525.601562 C 1280.117188 444.519531 1320.113281 418.917969 1394.398438 448.800781 Z M 1394.398438 448.800781 "/>
<path style=" stroke:none;fill-rule:evenodd;fill:rgb(97.254902%,97.254902%,97.254902%);fill-opacity:1;" d="M 1413.601562 472.800781 C 1422 566.796875 1381.996094 597.195312 1293.601562 564 C 1293.949219 556.671875 1290.75 551.871094 1284 549.601562 C 1284 548 1284 546.398438 1284 544.800781 C 1282.746094 526.359375 1285.949219 508.757812 1293.601562 492 C 1328.519531 455.058594 1368.519531 448.660156 1413.601562 472.800781 Z M 1413.601562 472.800781 "/>
<path style=" stroke:none;fill-rule:evenodd;fill:rgb(0.784314%,0.784314%,0.784314%);fill-opacity:1;" d="M 924 506.398438 C 943.199219 506.398438 962.398438 506.398438 981.601562 506.398438 C 993.144531 512.488281 1005.945312 515.6875 1020 516 C 1087.746094 538.011719 1134.148438 582.816406 1159.199219 650.398438 C 1158.769531 663.128906 1161.964844 674.328125 1168.800781 684 C 1168.800781 703.199219 1168.800781 722.398438 1168.800781 741.601562 C 1162.714844 753.144531 1159.511719 765.945312 1159.199219 780 C 1139.222656 834.4375 1104.019531 876.835938 1053.601562 907.199219 C 1041.101562 909.070312 1029.898438 913.074219 1020 919.199219 C 1005.945312 919.511719 993.144531 922.714844 981.601562 928.800781 C 962.398438 928.800781 943.199219 928.800781 924 928.800781 C 914.328125 921.964844 903.128906 918.769531 890.398438 919.199219 C 822.816406 894.148438 778.011719 847.746094 756 780 C 755.6875 765.945312 752.488281 753.144531 746.398438 741.601562 C 746.398438 722.398438 746.398438 703.199219 746.398438 684 C 753.234375 674.328125 756.433594 663.128906 756 650.398438 C 778.550781 586.246094 821.75 543.046875 885.601562 520.800781 C 899.503906 517.78125 912.308594 512.980469 924 506.398438 Z M 924 506.398438 "/>
<path style=" stroke:none;fill-rule:evenodd;fill:rgb(51.764706%,51.764706%,51.764706%);fill-opacity:1;" d="M 981.601562 506.398438 C 995.976562 505.410156 1008.777344 508.609375 1020 516 C 1005.945312 515.6875 993.144531 512.488281 981.601562 506.398438 Z M 981.601562 506.398438 "/>
<path style=" stroke:none;fill-rule:evenodd;fill:rgb(50.196078%,50.196078%,50.196078%);fill-opacity:1;" d="M 924 506.398438 C 912.308594 512.980469 899.503906 517.78125 885.601562 520.800781 C 895.761719 510.457031 908.5625 505.65625 924 506.398438 Z M 924 506.398438 "/>
<path style=" stroke:none;fill-rule:evenodd;fill:rgb(74.117647%,74.117647%,74.117647%);fill-opacity:1;" d="M 1413.601562 472.800781 C 1420.347656 475.070312 1423.550781 479.871094 1423.199219 487.199219 C 1434.699219 560.53125 1402.699219 594.128906 1327.199219 588 C 1313.28125 583.472656 1302.082031 575.472656 1293.601562 564 C 1381.996094 597.195312 1422 566.796875 1413.601562 472.800781 Z M 1413.601562 472.800781 "/>
<path style=" stroke:none;fill-rule:evenodd;fill:rgb(35.686275%,35.686275%,35.686275%);fill-opacity:1;" d="M 1432.800781 506.398438 C 1444.355469 591.601562 1407.550781 624.402344 1322.398438 604.800781 C 1302.664062 590.75 1289.859375 572.351562 1284 549.601562 C 1290.75 551.871094 1293.949219 556.671875 1293.601562 564 C 1302.082031 575.472656 1313.28125 583.472656 1327.199219 588 C 1327.734375 590.960938 1329.332031 593.363281 1332 595.199219 C 1353.246094 598.996094 1374.042969 597.394531 1394.398438 590.398438 C 1406.53125 578.269531 1418.53125 566.269531 1430.398438 554.398438 C 1432.789062 538.476562 1433.59375 522.480469 1432.800781 506.398438 Z M 1432.800781 506.398438 "/>
<path style=" stroke:none;fill-rule:evenodd;fill:rgb(56.862745%,56.862745%,56.862745%);fill-opacity:1;" d="M 1423.199219 487.199219 C 1428.835938 492.066406 1432.03125 498.464844 1432.800781 506.398438 C 1433.59375 522.480469 1432.789062 538.476562 1430.398438 554.398438 C 1418.53125 566.269531 1406.53125 578.269531 1394.398438 590.398438 C 1374.042969 597.394531 1353.246094 598.996094 1332 595.199219 C 1329.332031 593.363281 1327.734375 590.960938 1327.199219 588 C 1402.699219 594.128906 1434.699219 560.53125 1423.199219 487.199219 Z M 1423.199219 487.199219 "/>
<path style=" stroke:none;fill-rule:evenodd;fill:rgb(58.823529%,58.823529%,58.823529%);fill-opacity:1;" d="M 756 650.398438 C 756.433594 663.128906 753.234375 674.328125 746.398438 684 C 745.96875 671.269531 749.164062 660.070312 756 650.398438 Z M 756 650.398438 "/>
<path style=" stroke:none;fill-rule:evenodd;fill:rgb(58.823529%,58.823529%,58.823529%);fill-opacity:1;" d="M 1159.199219 650.398438 C 1166.035156 660.070312 1169.230469 671.269531 1168.800781 684 C 1161.964844 674.328125 1158.769531 663.128906 1159.199219 650.398438 Z M 1159.199219 650.398438 "/>
<path style=" stroke:none;fill-rule:evenodd;fill:rgb(51.764706%,51.764706%,51.764706%);fill-opacity:1;" d="M 746.398438 741.601562 C 752.488281 753.144531 755.6875 765.945312 756 780 C 748.609375 768.777344 745.410156 755.976562 746.398438 741.601562 Z M 746.398438 741.601562 "/>
<path style=" stroke:none;fill-rule:evenodd;fill:rgb(51.764706%,51.764706%,51.764706%);fill-opacity:1;" d="M 1168.800781 741.601562 C 1169.789062 755.976562 1166.59375 768.777344 1159.199219 780 C 1159.511719 765.945312 1162.714844 753.144531 1168.800781 741.601562 Z M 1168.800781 741.601562 "/>
<path style=" stroke:none;fill-rule:evenodd;fill:rgb(30.196078%,30.196078%,30.196078%);fill-opacity:1;" d="M 621.601562 866.398438 C 611.734375 856.535156 600.539062 848.539062 588 842.398438 C 587.46875 839.4375 585.867188 837.039062 583.199219 835.199219 C 562.460938 832.804688 541.660156 832.003906 520.800781 832.800781 C 564.402344 813.707031 598.003906 824.902344 621.601562 866.398438 Z M 621.601562 866.398438 "/>
<path style=" stroke:none;fill-rule:evenodd;fill:rgb(26.666667%,26.666667%,26.666667%);fill-opacity:1;" d="M 520.800781 832.800781 C 492.421875 854.378906 479.621094 883.179688 482.398438 919.199219 C 472.230469 888.289062 478.632812 861.085938 501.601562 837.601562 C 507.308594 833.140625 513.707031 831.542969 520.800781 832.800781 Z M 520.800781 832.800781 "/>
<path style=" stroke:none;fill-rule:evenodd;fill:rgb(45.882353%,45.882353%,45.882353%);fill-opacity:1;" d="M 520.800781 832.800781 C 541.660156 832.003906 562.460938 832.804688 583.199219 835.199219 C 585.867188 837.039062 587.46875 839.4375 588 842.398438 C 518.746094 836.886719 485.144531 868.886719 487.199219 938.398438 C 482.71875 933.273438 481.113281 926.875 482.398438 919.199219 C 479.621094 883.179688 492.421875 854.378906 520.800781 832.800781 Z M 520.800781 832.800781 "/>
<path style=" stroke:none;fill-rule:evenodd;fill:rgb(69.411765%,69.411765%,69.411765%);fill-opacity:1;" d="M 588 842.398438 C 600.539062 848.539062 611.734375 856.535156 621.601562 866.398438 C 625.621094 868.042969 627.226562 871.238281 626.398438 876 C 596.992188 855.75 564.988281 851.746094 530.398438 864 C 501.816406 880.363281 489.015625 905.164062 492 938.398438 C 490.402344 938.398438 488.796875 938.398438 487.199219 938.398438 C 485.144531 868.886719 518.746094 836.886719 588 842.398438 Z M 588 842.398438 "/>
<path style=" stroke:none;fill-rule:evenodd;fill:rgb(97.647059%,97.647059%,97.647059%);fill-opacity:1;" d="M 626.398438 876 C 632.703125 915.355469 619.902344 946.554688 588 969.601562 C 553.125 983.300781 522.71875 977.703125 496.800781 952.800781 C 493.871094 948.523438 492.273438 943.722656 492 938.398438 C 489.015625 905.164062 501.816406 880.363281 530.398438 864 C 564.988281 851.746094 596.992188 855.75 626.398438 876 Z M 626.398438 876 "/>
<path style=" stroke:none;fill-rule:evenodd;fill:rgb(58.823529%,58.823529%,58.823529%);fill-opacity:1;" d="M 890.398438 919.199219 C 903.128906 918.769531 914.328125 921.964844 924 928.800781 C 911.269531 929.230469 900.070312 926.035156 890.398438 919.199219 Z M 890.398438 919.199219 "/>
<path style=" stroke:none;fill-rule:evenodd;fill:rgb(54.117647%,54.117647%,54.117647%);fill-opacity:1;" d="M 1020 919.199219 C 1008.777344 926.59375 995.976562 929.789062 981.601562 928.800781 C 993.144531 922.714844 1005.945312 919.511719 1020 919.199219 Z M 1020 919.199219 "/>
<path style=" stroke:none;fill-rule:evenodd;fill:rgb(28.235294%,28.235294%,28.235294%);fill-opacity:1;" d="M 640.800781 904.800781 C 654.679688 954.378906 637.078125 988.777344 588 1008 C 567.835938 1012.425781 548.636719 1010.027344 530.398438 1000.800781 C 525.960938 996.6875 522.757812 991.886719 520.800781 986.398438 C 598.382812 1014.417969 638.378906 987.214844 640.800781 904.800781 Z M 640.800781 904.800781 "/>
<path style=" stroke:none;fill-rule:evenodd;fill:rgb(69.019608%,69.019608%,69.019608%);fill-opacity:1;" d="M 626.398438 876 C 632.035156 880.867188 635.230469 887.265625 636 895.199219 C 639.453125 925.460938 631.453125 951.859375 612 974.398438 C 576.125 990.832031 540.921875 990.027344 506.398438 972 C 503.199219 965.601562 500 959.199219 496.800781 952.800781 C 522.71875 977.703125 553.125 983.300781 588 969.601562 C 619.902344 946.554688 632.703125 915.355469 626.398438 876 Z M 626.398438 876 "/>
<path style=" stroke:none;fill-rule:evenodd;fill:rgb(49.019608%,49.019608%,49.019608%);fill-opacity:1;" d="M 636 895.199219 C 640.023438 896.839844 641.625 900.039062 640.800781 904.800781 C 638.378906 987.214844 598.382812 1014.417969 520.800781 986.398438 C 514.402344 983.199219 509.601562 978.398438 506.398438 972 C 540.921875 990.027344 576.125 990.832031 612 974.398438 C 631.453125 951.859375 639.453125 925.460938 636 895.199219 Z M 636 895.199219 "/>
</g>
</svg>
