<?xml version="1.0" encoding="UTF-8"?>
<svg xmlns="http://www.w3.org/2000/svg" xmlns:xlink="http://www.w3.org/1999/xlink" width="1920pt" height="1440pt" viewBox="0 0 1920 1440" version="1.1">
<g id="surface1">
<path style=" stroke:none;fill-rule:evenodd;fill:rgb(0%,0%,0%);fill-opacity:1;" d="M -2.398438 -2.398438 C 637.597656 -2.398438 1277.601562 -2.398438 1917.601562 -2.398438 C 1917.601562 477.601562 1917.601562 957.601562 1917.601562 1437.601562 C 1277.601562 1437.601562 637.597656 1437.601562 -2.398438 1437.601562 C -2.398438 957.601562 -2.398438 477.601562 -2.398438 -2.398438 Z M -2.398438 -2.398438 "/>
<path style=" stroke:none;fill-rule:evenodd;fill:rgb(97.647059%,97.647059%,97.647059%);fill-opacity:1;" d="M 1317.601562 348 C 1330.152344 352.558594 1339.753906 360.558594 1346.398438 372 C 1363.0625 462.535156 1326.257812 497.734375 1236 477.601562 C 1229.601562 469.601562 1223.199219 461.601562 1216.800781 453.601562 C 1201.429688 405.148438 1215.832031 369.945312 1260 348 C 1278.5625 342.113281 1297.761719 342.113281 1317.601562 348 Z M 1317.601562 348 "/>
<path style=" stroke:none;fill-rule:evenodd;fill:rgb(49.803922%,49.803922%,49.803922%);fill-opacity:1;" d="M 1317.601562 348 C 1297.761719 342.113281 1278.5625 342.113281 1260 348 C 1215.835938 359.394531 1198.234375 388.195312 1207.199219 434.398438 C 1190.628906 401.179688 1197.027344 371.578125 1226.398438 345.601562 C 1253.855469 334.660156 1281.859375 332.261719 1310.398438 338.398438 C 1315.34375 340.011719 1317.742188 343.214844 1317.601562 348 Z M 1317.601562 348 "/>
<path style=" stroke:none;fill-rule:evenodd;fill:rgb(80.784314%,80.784314%,80.784314%);fill-opacity:1;" d="M 1260 348 C 1215.832031 369.945312 1201.429688 405.148438 1216.800781 453.601562 C 1209.101562 449.824219 1205.898438 443.421875 1207.199219 434.398438 C 1198.234375 388.195312 1215.835938 359.394531 1260 348 Z M 1260 348 "/>
<path style=" stroke:none;fill-rule:evenodd;fill:rgb(98.039216%,98.039216%,98.039216%);fill-opacity:1;" d="M 1250.398438 549.601562 C 1250.050781 556.929688 1253.25 561.730469 1260 564 C 1326.546875 722.578125 1297.746094 860.976562 1173.601562 979.199219 C 1032.519531 1083.113281 890.117188 1084.71875 746.398438 984 C 616.1875 862.253906 586.585938 719.054688 657.601562 554.398438 C 754.136719 404.15625 889.339844 350.554688 1063.199219 393.601562 C 1144.867188 423.132812 1207.265625 475.132812 1250.398438 549.601562 Z M 1250.398438 549.601562 "/>
<path style=" stroke:none;fill-rule:evenodd;fill:rgb(53.333333%,53.333333%,52.941176%);fill-opacity:1;" d="M 1346.398438 372 C 1371.875 422.84375 1359.070312 462.042969 1308 489.601562 C 1290.398438 492.800781 1272.800781 492.800781 1255.199219 489.601562 C 1247.683594 486.679688 1241.28125 482.679688 1236 477.601562 C 1326.257812 497.734375 1363.0625 462.535156 1346.398438 372 Z M 1346.398438 372 "/>
<path style=" stroke:none;fill-rule:evenodd;fill:rgb(0.784314%,0.784314%,0.784314%);fill-opacity:1;" d="M 1000.800781 492 C 1014.4375 497.609375 1028.835938 502.410156 1044 506.398438 C 1092.761719 524.769531 1129.558594 556.769531 1154.398438 602.398438 C 1154.050781 609.730469 1157.25 614.53125 1164 616.800781 C 1204.09375 718.074219 1186.496094 808.476562 1111.199219 888 C 1081.460938 912.46875 1047.859375 929.269531 1010.398438 938.398438 C 984.898438 941.269531 959.300781 942.867188 933.601562 943.199219 C 872.597656 938.699219 822.195312 913.097656 782.398438 866.398438 C 766.171875 843.503906 752.574219 819.503906 741.601562 794.398438 C 742.03125 781.671875 738.835938 770.472656 732 760.800781 C 717.109375 656.222656 753.910156 576.222656 842.398438 520.800781 C 849.730469 521.152344 854.53125 517.949219 856.800781 511.199219 C 902.5 488.453125 950.5 482.054688 1000.800781 492 Z M 1000.800781 492 "/>
<path style=" stroke:none;fill-rule:evenodd;fill:rgb(65.882353%,65.882353%,65.882353%);fill-opacity:1;" d="M 1000.800781 492 C 1017.988281 490.261719 1032.390625 495.0625 1044 506.398438 C 1028.835938 502.410156 1014.4375 497.609375 1000.800781 492 Z M 1000.800781 492 "/>
<path style=" stroke:none;fill-rule:evenodd;fill:rgb(40%,40%,39.607843%);fill-opacity:1;" d="M 856.800781 511.199219 C 854.53125 517.949219 849.730469 521.152344 842.398438 520.800781 C 844.671875 514.050781 849.46875 510.847656 856.800781 511.199219 Z M 856.800781 511.199219 "/>
<path style=" stroke:none;fill-rule:evenodd;fill:rgb(51.372549%,51.372549%,51.372549%);fill-opacity:1;" d="M 1250.398438 549.601562 C 1257.148438 551.871094 1260.351562 556.671875 1260 564 C 1253.25 561.730469 1250.050781 556.929688 1250.398438 549.601562 Z M 1250.398438 549.601562 "/>
<path style=" stroke:none;fill-rule:evenodd;fill:rgb(47.843137%,47.843137%,47.843137%);fill-opacity:1;" d="M 1154.398438 602.398438 C 1161.148438 604.671875 1164.351562 609.46875 1164 616.800781 C 1157.25 614.53125 1154.050781 609.730469 1154.398438 602.398438 Z M 1154.398438 602.398438 "/>
<path style=" stroke:none;fill-rule:evenodd;fill:rgb(58.039216%,58.039216%,58.039216%);fill-opacity:1;" d="M 732 760.800781 C 738.835938 770.472656 742.03125 781.671875 741.601562 794.398438 C 734.765625 784.726562 731.566406 773.53125 732 760.800781 Z M 732 760.800781 "/>
<path style=" stroke:none;fill-rule:evenodd;fill:rgb(31.372549%,31.372549%,31.372549%);fill-opacity:1;" d="M 1010.398438 938.398438 C 985.175781 948.113281 959.574219 949.714844 933.601562 943.199219 C 959.300781 942.867188 984.898438 941.269531 1010.398438 938.398438 Z M 1010.398438 938.398438 "/>
<path style=" stroke:none;fill-rule:evenodd;fill:rgb(98.823529%,98.823529%,98.823529%);fill-opacity:1;" d="M 664.800781 957.601562 C 668 957.601562 671.199219 957.601562 674.398438 957.601562 C 683.539062 958.742188 689.941406 963.542969 693.601562 972 C 721.652344 1056.867188 691.253906 1096.871094 602.398438 1092 C 556.273438 1046.523438 557.871094 1002.523438 607.199219 960 C 626.332031 957.605469 645.53125 956.804688 664.800781 957.601562 Z M 664.800781 957.601562 "/>
<path style=" stroke:none;fill-rule:evenodd;fill:rgb(34.901961%,34.901961%,34.901961%);fill-opacity:1;" d="M 674.398438 957.601562 C 671.199219 957.601562 668 957.601562 664.800781 957.601562 C 594.695312 936.296875 559.496094 963.5 559.199219 1039.199219 C 546.925781 976.964844 573.328125 944.960938 638.398438 943.199219 C 654.0625 940.742188 666.0625 945.542969 674.398438 957.601562 Z M 674.398438 957.601562 "/>
<path style=" stroke:none;fill-rule:evenodd;fill:rgb(76.470588%,76.470588%,76.470588%);fill-opacity:1;" d="M 664.800781 957.601562 C 645.53125 956.804688 626.332031 957.605469 607.199219 960 C 557.871094 1002.523438 556.273438 1046.523438 602.398438 1092 C 580.054688 1080.910156 565.65625 1063.308594 559.199219 1039.199219 C 559.496094 963.5 594.695312 936.296875 664.800781 957.601562 Z M 664.800781 957.601562 "/>
<path style=" stroke:none;fill-rule:evenodd;fill:rgb(66.27451%,66.27451%,66.27451%);fill-opacity:1;" d="M 693.601562 972 C 708.503906 985.089844 714.902344 1001.890625 712.800781 1022.398438 C 713.628906 1047.972656 705.632812 1069.574219 688.800781 1087.199219 C 662.347656 1095.40625 635.152344 1098.609375 607.199219 1096.800781 C 604 1096.800781 602.398438 1095.203125 602.398438 1092 C 691.253906 1096.871094 721.652344 1056.867188 693.601562 972 Z M 693.601562 972 "/>
<path style=" stroke:none;fill-rule:evenodd;fill:rgb(34.117647%,34.117647%,33.72549%);fill-opacity:1;" d="M 688.800781 1087.199219 C 677.636719 1099.96875 663.234375 1106.367188 645.601562 1106.398438 C 631.496094 1106.074219 618.695312 1102.875 607.199219 1096.800781 C 635.152344 1098.609375 662.347656 1095.40625 688.800781 1087.199219 Z M 688.800781 1087.199219 "/>
</g>
</svg>
