<?xml version="1.0" encoding="UTF-8"?>
<svg xmlns="http://www.w3.org/2000/svg" xmlns:xlink="http://www.w3.org/1999/xlink" width="1920pt" height="1440pt" viewBox="0 0 1920 1440" version="1.1">
<g id="surface1">
<path style=" stroke:none;fill-rule:evenodd;fill:rgb(0%,0%,0%);fill-opacity:1;" d="M -2.398438 -2.398438 C 637.597656 -2.398438 1277.601562 -2.398438 1917.601562 -2.398438 C 1917.601562 477.601562 1917.601562 957.601562 1917.601562 1437.601562 C 1277.601562 1437.601562 637.597656 1437.601562 -2.398438 1437.601562 C -2.398438 957.601562 -2.398438 477.601562 -2.398438 -2.398438 Z M -2.398438 -2.398438 "/>
<path style=" stroke:none;fill-rule:evenodd;fill:rgb(21.568627%,21.568627%,21.568627%);fill-opacity:1;" d="M 1212 266.398438 C 1153.414062 257.996094 1121.417969 282.796875 1116 340.800781 C 1115.984375 352.722656 1119.183594 363.121094 1125.601562 372 C 1131.621094 384.449219 1139.617188 395.648438 1149.601562 405.601562 C 1126.925781 395.636719 1113.320312 378.035156 1108.800781 352.800781 C 1106.21875 279.4375 1140.621094 250.636719 1212 266.398438 Z M 1212 266.398438 "/>
<path style=" stroke:none;fill-rule:evenodd;fill:rgb(97.647059%,97.647059%,97.647059%);fill-opacity:1;" d="M 1245.601562 290.398438 C 1247.199219 290.398438 1248.800781 290.398438 1250.398438 290.398438 C 1266.175781 331.585938 1261.378906 369.984375 1236 405.601562 C 1214.367188 413.339844 1191.96875 416.539062 1168.800781 415.199219 C 1159.0625 403.878906 1149.460938 392.679688 1140 381.601562 C 1133.710938 324.757812 1158.507812 292.757812 1214.398438 285.601562 C 1225.035156 286.332031 1235.4375 287.933594 1245.601562 290.398438 Z M 1245.601562 290.398438 "/>
<path style=" stroke:none;fill-rule:evenodd;fill:rgb(43.137255%,43.137255%,43.137255%);fill-opacity:1;" d="M 1212 266.398438 C 1217.808594 268.472656 1222.609375 271.671875 1226.398438 276 C 1206.71875 274.734375 1187.519531 276.335938 1168.800781 280.800781 C 1148.378906 286.007812 1134.78125 298.808594 1128 319.199219 C 1125.605469 336.726562 1124.808594 354.328125 1125.601562 372 C 1119.183594 363.121094 1115.984375 352.722656 1116 340.800781 C 1121.417969 282.796875 1153.414062 257.996094 1212 266.398438 Z M 1212 266.398438 "/>
<path style=" stroke:none;fill-rule:evenodd;fill:rgb(72.941176%,72.941176%,72.941176%);fill-opacity:1;" d="M 1226.398438 276 C 1234.703125 278.523438 1241.105469 283.324219 1245.601562 290.398438 C 1235.4375 287.933594 1225.035156 286.332031 1214.398438 285.601562 C 1158.507812 292.757812 1133.710938 324.757812 1140 381.601562 C 1130.75 368.945312 1128.351562 354.542969 1132.800781 338.398438 C 1139.121094 315.121094 1151.121094 295.921875 1168.800781 280.800781 C 1187.519531 276.335938 1206.71875 274.734375 1226.398438 276 Z M 1226.398438 276 "/>
<path style=" stroke:none;fill-rule:evenodd;fill:rgb(69.803922%,69.803922%,69.803922%);fill-opacity:1;" d="M 1250.398438 290.398438 C 1255.199219 293.601562 1260 296.800781 1264.800781 300 C 1265.074219 305.324219 1266.671875 310.125 1269.601562 314.398438 C 1280.582031 348.085938 1274.183594 377.6875 1250.398438 403.199219 C 1245.847656 405.515625 1241.050781 406.316406 1236 405.601562 C 1261.378906 369.984375 1266.175781 331.585938 1250.398438 290.398438 Z M 1250.398438 290.398438 "/>
<path style=" stroke:none;fill-rule:evenodd;fill:rgb(58.039216%,58.039216%,58.039216%);fill-opacity:1;" d="M 1168.800781 280.800781 C 1151.121094 295.921875 1139.121094 315.121094 1132.800781 338.398438 C 1128.351562 354.542969 1130.75 368.945312 1140 381.601562 C 1149.460938 392.679688 1159.0625 403.878906 1168.800781 415.199219 C 1161.300781 414.082031 1154.902344 410.882812 1149.601562 405.601562 C 1139.617188 395.648438 1131.621094 384.449219 1125.601562 372 C 1124.808594 354.328125 1125.605469 336.726562 1128 319.199219 C 1134.78125 298.808594 1148.378906 286.007812 1168.800781 280.800781 Z M 1168.800781 280.800781 "/>
<path style=" stroke:none;fill-rule:evenodd;fill:rgb(56.862745%,56.862745%,56.862745%);fill-opacity:1;" d="M 1269.601562 314.398438 C 1272.5625 314.929688 1274.960938 316.53125 1276.800781 319.199219 C 1283.804688 350.96875 1278.203125 379.765625 1260 405.601562 C 1252.863281 411.855469 1244.859375 417.457031 1236 422.398438 C 1216.867188 424.792969 1197.667969 425.59375 1178.398438 424.800781 C 1173.601562 423.199219 1170.398438 420 1168.800781 415.199219 C 1191.96875 416.539062 1214.367188 413.339844 1236 405.601562 C 1241.050781 406.316406 1245.847656 405.515625 1250.398438 403.199219 C 1274.183594 377.6875 1280.582031 348.085938 1269.601562 314.398438 Z M 1269.601562 314.398438 "/>
<path style=" stroke:none;fill-rule:evenodd;fill:rgb(26.27451%,26.27451%,26.27451%);fill-opacity:1;" d="M 1288.800781 328.800781 C 1303.574219 404.476562 1271.574219 438.878906 1192.800781 432 C 1186.863281 430.886719 1182.0625 428.484375 1178.398438 424.800781 C 1197.667969 425.59375 1216.867188 424.792969 1236 422.398438 C 1244.859375 417.457031 1252.863281 411.855469 1260 405.601562 C 1285.414062 387.070312 1295.015625 361.472656 1288.800781 328.800781 Z M 1288.800781 328.800781 "/>
<path style=" stroke:none;fill-rule:evenodd;fill:rgb(39.607843%,39.607843%,39.607843%);fill-opacity:1;" d="M 1264.800781 300 C 1276.273438 306.675781 1284.273438 316.277344 1288.800781 328.800781 C 1295.015625 361.472656 1285.414062 387.070312 1260 405.601562 C 1278.203125 379.765625 1283.804688 350.96875 1276.800781 319.199219 C 1274.960938 316.53125 1272.5625 314.929688 1269.601562 314.398438 C 1266.671875 310.125 1265.074219 305.324219 1264.800781 300 Z M 1264.800781 300 "/>
<path style=" stroke:none;fill-rule:evenodd;fill:rgb(97.647059%,97.647059%,97.647059%);fill-opacity:1;" d="M 1250.398438 626.398438 C 1248.820312 639.496094 1252.019531 650.699219 1260 660 C 1278.398438 811.195312 1220.796875 923.996094 1087.199219 998.398438 C 1026.898438 1022.535156 964.496094 1029.734375 900 1020 C 890.699219 1012.019531 879.496094 1008.820312 866.398438 1010.398438 C 730.222656 960.542969 658.222656 862.945312 650.398438 717.601562 C 651.546875 698.324219 653.144531 679.125 655.199219 660 C 663.183594 650.699219 666.378906 639.496094 664.800781 626.398438 C 711.601562 493.777344 805.199219 421.777344 945.601562 410.398438 C 1062.238281 410.277344 1153.441406 458.277344 1219.199219 554.398438 C 1234.65625 576.257812 1245.058594 600.257812 1250.398438 626.398438 Z M 1250.398438 626.398438 "/>
<path style=" stroke:none;fill-rule:evenodd;fill:rgb(69.411765%,69.411765%,69.411765%);fill-opacity:1;" d="M 981.601562 516 C 957.46875 516.015625 933.46875 517.613281 909.601562 520.800781 C 923.433594 514.019531 938.636719 510.820312 955.199219 511.199219 C 964.957031 511.230469 973.757812 512.828125 981.601562 516 Z M 981.601562 516 "/>
<path style=" stroke:none;fill-rule:evenodd;fill:rgb(0.784314%,0.784314%,0.784314%);fill-opacity:1;" d="M 981.601562 516 C 1117.785156 549.164062 1174.589844 635.5625 1152 775.199219 C 1127.289062 847.117188 1078.488281 893.515625 1005.601562 914.398438 C 973.574219 920.515625 941.574219 920.515625 909.601562 914.398438 C 830.847656 891.644531 781.246094 840.445312 760.800781 760.800781 C 754.714844 730.371094 754.714844 699.972656 760.800781 669.601562 C 763.402344 654.371094 768.203125 639.96875 775.199219 626.398438 C 781.949219 624.128906 785.152344 619.328125 784.800781 612 C 802.402344 584.796875 824.796875 562.402344 852 544.800781 C 859.328125 545.152344 864.128906 541.949219 866.398438 535.199219 C 879.96875 528.203125 894.371094 523.402344 909.601562 520.800781 C 933.46875 517.613281 957.46875 516.015625 981.601562 516 Z M 981.601562 516 "/>
<path style=" stroke:none;fill-rule:evenodd;fill:rgb(42.745098%,42.745098%,42.745098%);fill-opacity:1;" d="M 866.398438 535.199219 C 864.128906 541.949219 859.328125 545.152344 852 544.800781 C 854.269531 538.050781 859.070312 534.847656 866.398438 535.199219 Z M 866.398438 535.199219 "/>
<path style=" stroke:none;fill-rule:evenodd;fill:rgb(52.156863%,52.156863%,52.156863%);fill-opacity:1;" d="M 784.800781 612 C 785.152344 619.328125 781.949219 624.128906 775.199219 626.398438 C 774.847656 619.070312 778.050781 614.269531 784.800781 612 Z M 784.800781 612 "/>
<path style=" stroke:none;fill-rule:evenodd;fill:rgb(57.647059%,57.647059%,57.647059%);fill-opacity:1;" d="M 664.800781 626.398438 C 666.378906 639.496094 663.183594 650.699219 655.199219 660 C 654.769531 647.269531 657.964844 636.070312 664.800781 626.398438 Z M 664.800781 626.398438 "/>
<path style=" stroke:none;fill-rule:evenodd;fill:rgb(57.647059%,57.647059%,57.647059%);fill-opacity:1;" d="M 1250.398438 626.398438 C 1257.234375 636.070312 1260.433594 647.269531 1260 660 C 1252.019531 650.699219 1248.820312 639.496094 1250.398438 626.398438 Z M 1250.398438 626.398438 "/>
<path style=" stroke:none;fill-rule:evenodd;fill:rgb(68.627451%,68.627451%,68.627451%);fill-opacity:1;" d="M 760.800781 669.601562 C 754.714844 699.972656 754.714844 730.371094 760.800781 760.800781 C 753.570312 747.089844 750.375 731.890625 751.199219 715.199219 C 750.375 698.511719 753.570312 683.308594 760.800781 669.601562 Z M 760.800781 669.601562 "/>
<path style=" stroke:none;fill-rule:evenodd;fill:rgb(71.372549%,71.372549%,71.372549%);fill-opacity:1;" d="M 909.601562 914.398438 C 941.574219 920.515625 973.574219 920.515625 1005.601562 914.398438 C 990.152344 921.378906 973.355469 924.582031 955.199219 924 C 938.511719 924.824219 923.308594 921.628906 909.601562 914.398438 Z M 909.601562 914.398438 "/>
<path style=" stroke:none;fill-rule:evenodd;fill:rgb(57.647059%,57.647059%,57.647059%);fill-opacity:1;" d="M 866.398438 1010.398438 C 879.496094 1008.820312 890.699219 1012.019531 900 1020 C 887.269531 1020.433594 876.070312 1017.234375 866.398438 1010.398438 Z M 866.398438 1010.398438 "/>
<path style=" stroke:none;fill-rule:evenodd;fill:rgb(78.039216%,78.039216%,78.039216%);fill-opacity:1;" d="M 736.800781 1020 C 740 1020 743.199219 1020 746.398438 1020 C 752.796875 1023.203125 759.203125 1026.398438 765.601562 1029.601562 C 770.878906 1034.902344 774.082031 1041.300781 775.199219 1048.800781 C 775.992188 1066.472656 775.195312 1084.070312 772.800781 1101.601562 C 770.410156 1111.410156 764.808594 1117.8125 756 1120.800781 C 774.96875 1091.46875 774.96875 1061.867188 756 1032 C 735.527344 1023.558594 714.730469 1022.753906 693.601562 1029.601562 C 678.734375 1040.25 665.9375 1053.054688 655.199219 1068 C 648.253906 1089.699219 649.859375 1110.503906 660 1130.398438 C 656.796875 1130.398438 653.601562 1130.398438 650.398438 1130.398438 C 646.0625 1126.996094 644.460938 1122.195312 645.601562 1116 C 639.84375 1049.753906 670.242188 1017.753906 736.800781 1020 Z M 736.800781 1020 "/>
<path style=" stroke:none;fill-rule:evenodd;fill:rgb(98.039216%,98.039216%,98.039216%);fill-opacity:1;" d="M 756 1120.800781 C 738.742188 1149.734375 713.140625 1160.136719 679.199219 1152 C 671.804688 1145.417969 665.398438 1138.21875 660 1130.398438 C 649.859375 1110.503906 648.253906 1089.699219 655.199219 1068 C 665.9375 1053.054688 678.734375 1040.25 693.601562 1029.601562 C 714.730469 1022.753906 735.527344 1023.558594 756 1032 C 774.96875 1061.867188 774.96875 1091.46875 756 1120.800781 Z M 756 1120.800781 "/>
<path style=" stroke:none;fill-rule:evenodd;fill:rgb(42.745098%,42.745098%,42.745098%);fill-opacity:1;" d="M 722.398438 1005.601562 C 732.3125 1007.773438 740.3125 1012.574219 746.398438 1020 C 743.199219 1020 740 1020 736.800781 1020 C 657.675781 1004.734375 627.277344 1036.734375 645.601562 1116 C 644.460938 1122.195312 646.0625 1126.996094 650.398438 1130.398438 C 650.398438 1132 650.398438 1133.601562 650.398438 1135.199219 C 638.992188 1126.90625 630.988281 1115.707031 626.398438 1101.601562 C 624.847656 1083.714844 626.453125 1066.113281 631.199219 1048.800781 C 641.453125 1044.132812 647.054688 1036.132812 648 1024.800781 C 670.160156 1009.160156 694.964844 1002.761719 722.398438 1005.601562 Z M 722.398438 1005.601562 "/>
<path style=" stroke:none;fill-rule:evenodd;fill:rgb(20.392157%,20.392157%,20.392157%);fill-opacity:1;" d="M 722.398438 1005.601562 C 694.964844 1002.761719 670.160156 1009.160156 648 1024.800781 C 647.054688 1036.132812 641.453125 1044.132812 631.199219 1048.800781 C 626.453125 1066.113281 624.847656 1083.714844 626.398438 1101.601562 C 619.074219 1096.839844 615.875 1089.636719 616.800781 1080 C 621.023438 1022.789062 651.425781 995.585938 708 998.398438 C 713.9375 999.511719 718.738281 1001.914062 722.398438 1005.601562 Z M 722.398438 1005.601562 "/>
<path style=" stroke:none;fill-rule:evenodd;fill:rgb(61.960784%,61.960784%,61.960784%);fill-opacity:1;" d="M 736.800781 1020 C 670.242188 1017.753906 639.84375 1049.753906 645.601562 1116 C 627.277344 1036.734375 657.675781 1004.734375 736.800781 1020 Z M 736.800781 1020 "/>
<path style=" stroke:none;fill-rule:evenodd;fill:rgb(67.058824%,67.058824%,67.058824%);fill-opacity:1;" d="M 775.199219 1048.800781 C 778.160156 1049.332031 780.5625 1050.929688 782.398438 1053.601562 C 792.609375 1096.785156 780.609375 1131.988281 746.398438 1159.199219 C 729.085938 1163.945312 711.484375 1165.550781 693.601562 1164 C 676.691406 1158.3125 662.289062 1148.710938 650.398438 1135.199219 C 650.398438 1133.601562 650.398438 1132 650.398438 1130.398438 C 653.601562 1130.398438 656.796875 1130.398438 660 1130.398438 C 665.398438 1138.21875 671.804688 1145.417969 679.199219 1152 C 713.140625 1160.136719 738.742188 1149.734375 756 1120.800781 C 764.808594 1117.8125 770.410156 1111.410156 772.800781 1101.601562 C 775.195312 1084.070312 775.992188 1066.472656 775.199219 1048.800781 Z M 775.199219 1048.800781 "/>
<path style=" stroke:none;fill-rule:evenodd;fill:rgb(20.784314%,20.784314%,20.784314%);fill-opacity:1;" d="M 799.199219 1068 C 802.160156 1068.53125 804.5625 1070.132812 806.398438 1072.800781 C 810.558594 1097.804688 807.355469 1121.804688 796.800781 1144.800781 C 786.3125 1154.59375 774.3125 1160.996094 760.800781 1164 C 794.582031 1141.128906 807.382812 1109.132812 799.199219 1068 Z M 799.199219 1068 "/>
<path style=" stroke:none;fill-rule:evenodd;fill:rgb(40.784314%,40.784314%,40.784314%);fill-opacity:1;" d="M 765.601562 1029.601562 C 776.113281 1035.847656 785.710938 1043.851562 794.398438 1053.601562 C 797.410156 1058 799.011719 1062.800781 799.199219 1068 C 807.382812 1109.132812 794.582031 1141.128906 760.800781 1164 C 760.265625 1166.960938 758.667969 1169.363281 756 1171.199219 C 736.800781 1174.402344 717.601562 1174.402344 698.398438 1171.199219 C 695.730469 1169.363281 694.132812 1166.960938 693.601562 1164 C 711.484375 1165.550781 729.085938 1163.945312 746.398438 1159.199219 C 780.609375 1131.988281 792.609375 1096.785156 782.398438 1053.601562 C 780.5625 1050.929688 778.160156 1049.332031 775.199219 1048.800781 C 774.082031 1041.300781 770.878906 1034.902344 765.601562 1029.601562 Z M 765.601562 1029.601562 "/>
</g>
</svg>
