<?xml version="1.0" encoding="UTF-8"?>
<svg xmlns="http://www.w3.org/2000/svg" xmlns:xlink="http://www.w3.org/1999/xlink" width="1920pt" height="1440pt" viewBox="0 0 1920 1440" version="1.1">
<g id="surface1">
<path style=" stroke:none;fill-rule:evenodd;fill:rgb(0%,0%,0%);fill-opacity:1;" d="M -2.398438 -2.398438 C 637.597656 -2.398438 1277.601562 -2.398438 1917.601562 -2.398438 C 1917.601562 477.601562 1917.601562 957.601562 1917.601562 1437.601562 C 1277.601562 1437.601562 637.597656 1437.601562 -2.398438 1437.601562 C -2.398438 957.601562 -2.398438 477.601562 -2.398438 -2.398438 Z M -2.398438 -2.398438 "/>
<path style=" stroke:none;fill-rule:evenodd;fill:rgb(53.333333%,53.333333%,53.333333%);fill-opacity:1;" d="M 1308 343.199219 C 1316.304688 345.722656 1322.707031 350.523438 1327.199219 357.601562 C 1282.433594 345.527344 1246.433594 358.328125 1219.199219 396 C 1216.808594 410.3125 1216.007812 424.710938 1216.800781 439.199219 C 1206.382812 371.160156 1236.789062 339.160156 1308 343.199219 Z M 1308 343.199219 "/>
<path style=" stroke:none;fill-rule:evenodd;fill:rgb(30.196078%,30.196078%,30.196078%);fill-opacity:1;" d="M 1308 343.199219 C 1236.789062 339.160156 1206.382812 371.160156 1216.800781 439.199219 C 1216.800781 444 1216.800781 448.800781 1216.800781 453.601562 C 1205.183594 440.195312 1200.382812 424.195312 1202.398438 405.601562 C 1202.207031 371.671875 1218.207031 348.472656 1250.398438 336 C 1266.398438 332.800781 1282.402344 332.800781 1298.398438 336 C 1302.796875 337.335938 1305.992188 339.734375 1308 343.199219 Z M 1308 343.199219 "/>
<path style=" stroke:none;fill-rule:evenodd;fill:rgb(98.431373%,98.431373%,98.431373%);fill-opacity:1;" d="M 1346.398438 381.601562 C 1353.699219 467.175781 1316.898438 497.578125 1236 472.800781 C 1231.199219 471.199219 1228 468 1226.398438 463.199219 C 1220.070312 388.726562 1253.667969 355.925781 1327.199219 364.800781 C 1335.957031 367.96875 1342.355469 373.566406 1346.398438 381.601562 Z M 1346.398438 381.601562 "/>
<path style=" stroke:none;fill-rule:evenodd;fill:rgb(69.019608%,69.019608%,69.019608%);fill-opacity:1;" d="M 1327.199219 357.601562 C 1340 360.800781 1348 368.800781 1351.199219 381.601562 C 1349.601562 381.601562 1348 381.601562 1346.398438 381.601562 C 1342.355469 373.566406 1335.957031 367.96875 1327.199219 364.800781 C 1253.667969 355.925781 1220.070312 388.726562 1226.398438 463.199219 C 1220 463.199219 1216.800781 460 1216.800781 453.601562 C 1216.800781 448.800781 1216.800781 444 1216.800781 439.199219 C 1216.007812 424.710938 1216.808594 410.3125 1219.199219 396 C 1246.433594 358.328125 1282.433594 345.527344 1327.199219 357.601562 Z M 1327.199219 357.601562 "/>
<path style=" stroke:none;fill-rule:evenodd;fill:rgb(48.235294%,48.235294%,47.843137%);fill-opacity:1;" d="M 919.199219 415.199219 C 932.707031 412.007812 947.105469 410.410156 962.398438 410.398438 C 986.035156 409.699219 1008.4375 412.898438 1029.601562 420 C 992.898438 416.605469 956.097656 415.007812 919.199219 415.199219 Z M 919.199219 415.199219 "/>
<path style=" stroke:none;fill-rule:evenodd;fill:rgb(97.647059%,97.647059%,97.647059%);fill-opacity:1;" d="M 904.800781 415.199219 C 909.601562 415.199219 914.398438 415.199219 919.199219 415.199219 C 956.097656 415.007812 992.898438 416.605469 1029.601562 420 C 1142.257812 449.457031 1215.859375 519.855469 1250.398438 631.199219 C 1249.96875 643.929688 1253.164062 655.128906 1260 664.800781 C 1274.601562 815.617188 1215.398438 926.8125 1082.398438 998.398438 C 1064.746094 1004.035156 1047.148438 1009.636719 1029.601562 1015.199219 C 991.320312 1018.925781 952.921875 1020.527344 914.398438 1020 C 779.304688 996.121094 693.707031 917.722656 657.601562 784.800781 C 649.203125 743.300781 648.402344 701.703125 655.199219 660 C 662.753906 652.308594 665.957031 642.710938 664.800781 631.199219 C 696.800781 525.601562 765.601562 456.800781 871.199219 424.800781 C 884.292969 426.382812 895.496094 423.179688 904.800781 415.199219 Z M 904.800781 415.199219 "/>
<path style=" stroke:none;fill-rule:evenodd;fill:rgb(63.137255%,63.137255%,63.137255%);fill-opacity:1;" d="M 904.800781 415.199219 C 895.496094 423.179688 884.292969 426.382812 871.199219 424.800781 C 880.871094 417.964844 892.070312 414.765625 904.800781 415.199219 Z M 904.800781 415.199219 "/>
<path style=" stroke:none;fill-rule:evenodd;fill:rgb(81.568627%,81.568627%,81.568627%);fill-opacity:1;" d="M 1346.398438 381.601562 C 1348 381.601562 1349.601562 381.601562 1351.199219 381.601562 C 1361.835938 463.765625 1326.632812 498.964844 1245.601562 487.199219 C 1242.398438 482.398438 1239.203125 477.601562 1236 472.800781 C 1316.898438 497.578125 1353.699219 467.175781 1346.398438 381.601562 Z M 1346.398438 381.601562 "/>
<path style=" stroke:none;fill-rule:evenodd;fill:rgb(58.039216%,58.039216%,58.039216%);fill-opacity:1;" d="M 1351.199219 381.601562 C 1356 383.199219 1359.203125 386.398438 1360.800781 391.199219 C 1370.121094 410.761719 1372.523438 431.5625 1368 453.601562 C 1354.988281 465.800781 1342.988281 478.601562 1332 492 C 1307.113281 502.84375 1281.507812 504.441406 1255.199219 496.800781 C 1250.398438 495.203125 1247.199219 492 1245.601562 487.199219 C 1326.632812 498.964844 1361.835938 463.765625 1351.199219 381.601562 Z M 1351.199219 381.601562 "/>
<path style=" stroke:none;fill-rule:evenodd;fill:rgb(32.941176%,32.941176%,32.941176%);fill-opacity:1;" d="M 1360.800781 391.199219 C 1375.007812 402.496094 1381.40625 417.699219 1380 436.800781 C 1375.824219 489.757812 1347.023438 514.554688 1293.601562 511.199219 C 1277.636719 513.25 1264.839844 508.449219 1255.199219 496.800781 C 1281.507812 504.441406 1307.113281 502.84375 1332 492 C 1342.988281 478.601562 1354.988281 465.800781 1368 453.601562 C 1372.523438 431.5625 1370.121094 410.761719 1360.800781 391.199219 Z M 1360.800781 391.199219 "/>
<path style=" stroke:none;fill-rule:evenodd;fill:rgb(66.666667%,66.666667%,66.666667%);fill-opacity:1;" d="M 976.800781 511.199219 C 954.332031 512.011719 931.929688 513.609375 909.601562 516 C 921.679688 508.929688 935.28125 505.726562 950.398438 506.398438 C 960.160156 506.429688 968.957031 508.027344 976.800781 511.199219 Z M 976.800781 511.199219 "/>
<path style=" stroke:none;fill-rule:evenodd;fill:rgb(0.784314%,0.784314%,0.784314%);fill-opacity:1;" d="M 976.800781 511.199219 C 1070.566406 526.597656 1131.371094 579.398438 1159.199219 669.601562 C 1165.253906 698.429688 1165.253906 727.230469 1159.199219 756 C 1142.640625 830.199219 1099.441406 883 1029.601562 914.398438 C 996.363281 921.058594 962.765625 924.257812 928.800781 924 C 853.769531 910.371094 799.371094 868.777344 765.601562 799.199219 C 763.554688 780.351562 758.753906 762.753906 751.199219 746.398438 C 742.863281 641.351562 786.0625 567.75 880.800781 525.601562 C 892.308594 526.757812 901.910156 523.554688 909.601562 516 C 931.929688 513.609375 954.332031 512.011719 976.800781 511.199219 Z M 976.800781 511.199219 "/>
<path style=" stroke:none;fill-rule:evenodd;fill:rgb(27.843137%,27.843137%,27.843137%);fill-opacity:1;" d="M 909.601562 516 C 901.910156 523.554688 892.308594 526.757812 880.800781 525.601562 C 888.488281 518.042969 898.089844 514.84375 909.601562 516 Z M 909.601562 516 "/>
<path style=" stroke:none;fill-rule:evenodd;fill:rgb(47.45098%,47.45098%,47.45098%);fill-opacity:1;" d="M 664.800781 631.199219 C 665.957031 642.710938 662.753906 652.308594 655.199219 660 C 654.042969 648.488281 657.246094 638.890625 664.800781 631.199219 Z M 664.800781 631.199219 "/>
<path style=" stroke:none;fill-rule:evenodd;fill:rgb(56.078431%,56.078431%,56.078431%);fill-opacity:1;" d="M 1250.398438 631.199219 C 1257.234375 640.871094 1260.433594 652.070312 1260 664.800781 C 1253.164062 655.128906 1249.96875 643.929688 1250.398438 631.199219 Z M 1250.398438 631.199219 "/>
<path style=" stroke:none;fill-rule:evenodd;fill:rgb(65.490196%,65.490196%,65.490196%);fill-opacity:1;" d="M 1159.199219 669.601562 C 1166.355469 682.492188 1169.554688 696.894531 1168.800781 712.800781 C 1169.554688 728.707031 1166.355469 743.105469 1159.199219 756 C 1165.253906 727.230469 1165.253906 698.429688 1159.199219 669.601562 Z M 1159.199219 669.601562 "/>
<path style=" stroke:none;fill-rule:evenodd;fill:rgb(58.431373%,58.431373%,58.431373%);fill-opacity:1;" d="M 751.199219 746.398438 C 758.753906 762.753906 763.554688 780.351562 765.601562 799.199219 C 756.082031 783.363281 751.28125 765.761719 751.199219 746.398438 Z M 751.199219 746.398438 "/>
<path style=" stroke:none;fill-rule:evenodd;fill:rgb(74.117647%,74.117647%,74.117647%);fill-opacity:1;" d="M 1029.601562 914.398438 C 1016.886719 922.125 1002.484375 926.125 986.398438 926.398438 C 966.292969 930.296875 947.09375 929.496094 928.800781 924 C 962.765625 924.257812 996.363281 921.058594 1029.601562 914.398438 Z M 1029.601562 914.398438 "/>
<path style=" stroke:none;fill-rule:evenodd;fill:rgb(29.803922%,29.803922%,29.803922%);fill-opacity:1;" d="M 636 928.800781 C 602.5625 922.945312 576.960938 934.148438 559.199219 962.398438 C 555.238281 966.652344 550.441406 968.25 544.800781 967.199219 C 544.171875 963.652344 544.972656 960.453125 547.199219 957.601562 C 559.84375 947.71875 571.84375 937.320312 583.199219 926.398438 C 593.1875 922.230469 603.585938 919.828125 614.398438 919.199219 C 624.039062 918.273438 631.238281 921.476562 636 928.800781 Z M 636 928.800781 "/>
<path style=" stroke:none;fill-rule:evenodd;fill:rgb(46.666667%,46.666667%,46.27451%);fill-opacity:1;" d="M 636 928.800781 C 645.023438 927.5 651.421875 930.699219 655.199219 938.398438 C 630.5 936.867188 606.5 940.066406 583.199219 948 C 573.546875 960.046875 563.144531 971.246094 552 981.601562 C 549.609375 997.523438 548.808594 1013.519531 549.601562 1029.601562 C 548 1029.601562 546.398438 1029.601562 544.800781 1029.601562 C 544.800781 1010.398438 544.800781 991.199219 544.800781 972 C 544.800781 970.402344 544.800781 968.796875 544.800781 967.199219 C 550.441406 968.25 555.238281 966.652344 559.199219 962.398438 C 576.960938 934.148438 602.5625 922.945312 636 928.800781 Z M 636 928.800781 "/>
<path style=" stroke:none;fill-rule:evenodd;fill:rgb(98.823529%,98.823529%,98.823529%);fill-opacity:1;" d="M 684 1020 C 660.882812 1068.609375 624.082031 1083.007812 573.601562 1063.199219 C 574.425781 1058.4375 572.824219 1055.242188 568.800781 1053.601562 C 562.53125 1007.894531 580.132812 975.097656 621.601562 955.199219 C 641.921875 953.074219 661.125 957.078125 679.199219 967.199219 C 683.945312 984.511719 685.550781 1002.113281 684 1020 Z M 684 1020 "/>
<path style=" stroke:none;fill-rule:evenodd;fill:rgb(84.705882%,84.705882%,84.705882%);fill-opacity:1;" d="M 679.199219 957.601562 C 685.949219 959.871094 689.152344 964.671875 688.800781 972 C 688.800781 975.203125 688.800781 978.398438 688.800781 981.601562 C 690.269531 995.449219 688.671875 1008.25 684 1020 C 685.550781 1002.113281 683.945312 984.511719 679.199219 967.199219 C 661.125 957.078125 641.921875 953.074219 621.601562 955.199219 C 580.132812 975.097656 562.53125 1007.894531 568.800781 1053.601562 C 543.558594 992.460938 563.558594 957.257812 628.800781 948 C 646.042969 949.316406 662.839844 952.515625 679.199219 957.601562 Z M 679.199219 957.601562 "/>
<path style=" stroke:none;fill-rule:evenodd;fill:rgb(20.784314%,20.784314%,20.784314%);fill-opacity:1;" d="M 544.800781 972 C 544.800781 991.199219 544.800781 1010.398438 544.800781 1029.601562 C 537.519531 1020.183594 534.316406 1008.984375 535.199219 996 C 535.46875 985.726562 538.671875 977.730469 544.800781 972 Z M 544.800781 972 "/>
<path style=" stroke:none;fill-rule:evenodd;fill:rgb(63.529412%,63.529412%,63.529412%);fill-opacity:1;" d="M 655.199219 938.398438 C 666.019531 941.394531 674.019531 947.792969 679.199219 957.601562 C 662.839844 952.515625 646.042969 949.316406 628.800781 948 C 563.558594 957.257812 543.558594 992.460938 568.800781 1053.601562 C 572.824219 1055.242188 574.425781 1058.4375 573.601562 1063.199219 C 559.789062 1056.460938 551.789062 1045.261719 549.601562 1029.601562 C 548.808594 1013.519531 549.609375 997.523438 552 981.601562 C 563.144531 971.246094 573.546875 960.046875 583.199219 948 C 606.5 940.066406 630.5 936.867188 655.199219 938.398438 Z M 655.199219 938.398438 "/>
<path style=" stroke:none;fill-rule:evenodd;fill:rgb(41.960784%,41.960784%,41.568627%);fill-opacity:1;" d="M 1029.601562 1015.199219 C 1025.9375 1018.886719 1021.136719 1021.285156 1015.199219 1022.398438 C 980.742188 1026.339844 947.140625 1025.542969 914.398438 1020 C 952.921875 1020.527344 991.320312 1018.925781 1029.601562 1015.199219 Z M 1029.601562 1015.199219 "/>
<path style=" stroke:none;fill-rule:evenodd;fill:rgb(46.27451%,46.27451%,46.27451%);fill-opacity:1;" d="M 688.800781 972 C 698.605469 977.179688 705.003906 985.179688 708 996 C 712.96875 1075.824219 676.167969 1107.824219 597.601562 1092 C 594.398438 1088.796875 591.203125 1085.601562 588 1082.398438 C 622.902344 1086.753906 654.902344 1079.554688 684 1060.800781 C 697.28125 1037.679688 701.285156 1012.875 696 986.398438 C 694.160156 983.730469 691.761719 982.132812 688.800781 981.601562 C 688.800781 978.398438 688.800781 975.203125 688.800781 972 Z M 688.800781 972 "/>
<path style=" stroke:none;fill-rule:evenodd;fill:rgb(73.333333%,73.333333%,73.333333%);fill-opacity:1;" d="M 688.800781 981.601562 C 691.761719 982.132812 694.160156 983.730469 696 986.398438 C 701.285156 1012.875 697.28125 1037.679688 684 1060.800781 C 654.902344 1079.554688 622.902344 1086.753906 588 1082.398438 C 583.199219 1076 578.398438 1069.597656 573.601562 1063.199219 C 624.082031 1083.007812 660.882812 1068.609375 684 1020 C 688.671875 1008.25 690.269531 995.449219 688.800781 981.601562 Z M 688.800781 981.601562 "/>
<path style=" stroke:none;fill-rule:evenodd;fill:rgb(20.392157%,20.392157%,20.392157%);fill-opacity:1;" d="M 708 996 C 710.960938 996.53125 713.363281 998.132812 715.199219 1000.800781 C 724.035156 1060.753906 698.4375 1094.351562 638.398438 1101.601562 C 623.28125 1102.273438 609.679688 1099.070312 597.601562 1092 C 676.167969 1107.824219 712.96875 1075.824219 708 996 Z M 708 996 "/>
</g>
</svg>
