<?xml version="1.0" encoding="UTF-8"?>
<svg xmlns="http://www.w3.org/2000/svg" xmlns:xlink="http://www.w3.org/1999/xlink" width="1920pt" height="1440pt" viewBox="0 0 1920 1440" version="1.1">
<g id="surface1">
<path style=" stroke:none;fill-rule:evenodd;fill:rgb(0%,0%,0%);fill-opacity:1;" d="M -2.398438 -2.398438 C 637.597656 -2.398438 1277.601562 -2.398438 1917.601562 -2.398438 C 1917.601562 477.601562 1917.601562 957.601562 1917.601562 1437.601562 C 1277.601562 1437.601562 637.597656 1437.601562 -2.398438 1437.601562 C -2.398438 957.601562 -2.398438 477.601562 -2.398438 -2.398438 Z M -2.398438 -2.398438 "/>
<path style=" stroke:none;fill-rule:evenodd;fill:rgb(32.941176%,32.941176%,32.941176%);fill-opacity:1;" d="M 756 400.800781 C 767.054688 352.941406 751.054688 318.542969 708 297.601562 C 688.539062 294.269531 669.339844 295.070312 650.398438 300 C 689.265625 277.359375 725.265625 282.160156 758.398438 314.398438 C 765.042969 341.320312 766.640625 368.519531 763.199219 396 C 761.363281 398.667969 758.960938 400.269531 756 400.800781 Z M 756 400.800781 "/>
<path style=" stroke:none;fill-rule:evenodd;fill:rgb(59.215686%,59.215686%,58.823529%);fill-opacity:1;" d="M 756 400.800781 C 754.402344 405.601562 751.199219 408.800781 746.398438 410.398438 C 750.566406 389.722656 751.363281 368.921875 748.800781 348 C 741.046875 343.746094 733.847656 338.945312 727.199219 333.601562 C 697.078125 298.789062 663.480469 295.589844 626.398438 324 C 618.878906 329.667969 614.875 337.667969 614.398438 348 C 612.003906 367.132812 611.203125 386.332031 612 405.601562 C 599.246094 381.820312 599.246094 357.820312 612 333.601562 C 611.585938 328.820312 613.191406 324.820312 616.800781 321.601562 C 627.523438 313.199219 638.726562 306 650.398438 300 C 669.339844 295.070312 688.539062 294.269531 708 297.601562 C 751.054688 318.542969 767.054688 352.941406 756 400.800781 Z M 756 400.800781 "/>
<path style=" stroke:none;fill-rule:evenodd;fill:rgb(98.039216%,98.039216%,98.039216%);fill-opacity:1;" d="M 727.199219 333.601562 C 734.75 348.722656 739.550781 364.722656 741.601562 381.601562 C 737.15625 395.855469 733.957031 410.253906 732 424.800781 C 732 428 730.402344 429.601562 727.199219 429.601562 C 713.667969 431.371094 700.070312 432.96875 686.398438 434.398438 C 673.96875 434.996094 662.769531 431.796875 652.800781 424.800781 C 641.992188 412.96875 632.390625 400.171875 624 386.398438 C 620.609375 365.34375 621.40625 344.542969 626.398438 324 C 663.480469 295.589844 697.078125 298.789062 727.199219 333.601562 Z M 727.199219 333.601562 "/>
<path style=" stroke:none;fill-rule:evenodd;fill:rgb(75.686275%,75.686275%,75.686275%);fill-opacity:1;" d="M 727.199219 333.601562 C 733.847656 338.945312 741.046875 343.746094 748.800781 348 C 751.363281 368.921875 750.566406 389.722656 746.398438 410.398438 C 742.695312 416.128906 737.894531 420.929688 732 424.800781 C 733.957031 410.253906 737.15625 395.855469 741.601562 381.601562 C 739.550781 364.722656 734.75 348.722656 727.199219 333.601562 Z M 727.199219 333.601562 "/>
<path style=" stroke:none;fill-rule:evenodd;fill:rgb(98.039216%,98.039216%,98.039216%);fill-opacity:1;" d="M 1015.199219 400.800781 C 1024.871094 407.632812 1036.070312 410.835938 1048.800781 410.398438 C 1157.457031 445.457031 1229.457031 517.453125 1264.800781 626.398438 C 1264.367188 639.128906 1267.566406 650.328125 1274.398438 660 C 1280.617188 698.367188 1280.617188 736.765625 1274.398438 775.199219 C 1267.566406 784.871094 1264.367188 796.070312 1264.800781 808.800781 C 1229.601562 917.601562 1157.601562 989.601562 1048.800781 1024.800781 C 1036.070312 1024.367188 1024.871094 1027.566406 1015.199219 1034.398438 C 835.390625 1051.761719 713.792969 976.558594 650.398438 808.800781 C 650.832031 796.070312 647.636719 784.871094 640.800781 775.199219 C 634.402344 736.800781 634.402344 698.398438 640.800781 660 C 647.636719 650.328125 650.832031 639.128906 650.398438 626.398438 C 649.574219 621.636719 651.175781 618.441406 655.199219 616.800781 C 662.753906 609.109375 665.957031 599.511719 664.800781 588 C 705.152344 498.035156 772.355469 438.832031 866.398438 410.398438 C 879.128906 410.835938 890.328125 407.632812 900 400.800781 C 938.367188 394.585938 976.765625 394.585938 1015.199219 400.800781 Z M 1015.199219 400.800781 "/>
<path style=" stroke:none;fill-rule:evenodd;fill:rgb(34.117647%,34.117647%,34.117647%);fill-opacity:1;" d="M 1015.199219 400.800781 C 1027.929688 400.367188 1039.128906 403.566406 1048.800781 410.398438 C 1036.070312 410.835938 1024.871094 407.632812 1015.199219 400.800781 Z M 1015.199219 400.800781 "/>
<path style=" stroke:none;fill-rule:evenodd;fill:rgb(49.411765%,49.411765%,49.411765%);fill-opacity:1;" d="M 900 400.800781 C 890.328125 407.632812 879.128906 410.835938 866.398438 410.398438 C 876.070312 403.566406 887.269531 400.367188 900 400.800781 Z M 900 400.800781 "/>
<path style=" stroke:none;fill-rule:evenodd;fill:rgb(79.215686%,79.215686%,79.215686%);fill-opacity:1;" d="M 626.398438 324 C 621.40625 344.542969 620.609375 365.34375 624 386.398438 C 632.390625 400.171875 641.992188 412.96875 652.800781 424.800781 C 662.769531 431.796875 673.96875 434.996094 686.398438 434.398438 C 700.070312 432.96875 713.667969 431.371094 727.199219 429.601562 C 725.601562 434.398438 722.398438 437.601562 717.601562 439.199219 C 697.054688 444.191406 676.257812 444.988281 655.199219 441.601562 C 638.492188 431.746094 624.089844 419.746094 612 405.601562 C 611.203125 386.332031 612.003906 367.132812 614.398438 348 C 614.875 337.667969 618.878906 329.667969 626.398438 324 Z M 626.398438 324 "/>
<path style=" stroke:none;fill-rule:evenodd;fill:rgb(47.843137%,47.843137%,47.45098%);fill-opacity:1;" d="M 612 333.601562 C 599.246094 357.820312 599.246094 381.820312 612 405.601562 C 624.089844 419.746094 638.492188 431.746094 655.199219 441.601562 C 676.257812 444.988281 697.054688 444.191406 717.601562 439.199219 C 715.328125 445.949219 710.53125 449.152344 703.199219 448.800781 C 678.8125 455.734375 654.8125 454.933594 631.199219 446.398438 C 617.414062 434.222656 605.414062 420.625 595.199219 405.601562 C 592.808594 391.289062 592.007812 376.886719 592.800781 362.398438 C 594.457031 349.449219 600.855469 339.851562 612 333.601562 Z M 612 333.601562 "/>
<path style=" stroke:none;fill-rule:evenodd;fill:rgb(20.784314%,20.784314%,20.784314%);fill-opacity:1;" d="M 592.800781 362.398438 C 592.007812 376.886719 592.808594 391.289062 595.199219 405.601562 C 605.414062 420.625 617.414062 434.222656 631.199219 446.398438 C 654.8125 454.933594 678.8125 455.734375 703.199219 448.800781 C 673.054688 468 642.65625 467.199219 612 446.398438 C 589.175781 421.65625 582.777344 393.65625 592.800781 362.398438 Z M 592.800781 362.398438 "/>
<path style=" stroke:none;fill-rule:evenodd;fill:rgb(67.45098%,67.45098%,67.45098%);fill-opacity:1;" d="M 928.800781 540 C 939.886719 536.8125 951.886719 535.214844 964.800781 535.199219 C 983.0625 534.257812 999.863281 537.457031 1015.199219 544.800781 C 986.574219 540.925781 957.773438 539.328125 928.800781 540 Z M 928.800781 540 "/>
<path style=" stroke:none;fill-rule:evenodd;fill:rgb(0.784314%,0.784314%,0.784314%);fill-opacity:1;" d="M 928.800781 540 C 957.773438 539.328125 986.574219 540.925781 1015.199219 544.800781 C 1069.664062 569.664062 1108.863281 609.667969 1132.800781 664.800781 C 1135.171875 672.644531 1135.96875 680.644531 1135.199219 688.800781 C 1135.871094 717.773438 1134.273438 746.574219 1130.398438 775.199219 C 1120.597656 790.148438 1112.597656 806.152344 1106.398438 823.199219 C 1090.402344 836 1076 850.402344 1063.199219 866.398438 C 1046.152344 872.597656 1030.148438 880.597656 1015.199219 890.398438 C 988.175781 894.203125 960.972656 895.800781 933.601562 895.199219 C 882.945312 889.421875 842.144531 865.421875 811.199219 823.199219 C 802.804688 806.644531 794 790.640625 784.800781 775.199219 C 781 748.175781 779.398438 720.972656 780 693.601562 C 793.796875 607.804688 843.394531 556.601562 928.800781 540 Z M 928.800781 540 "/>
<path style=" stroke:none;fill-rule:evenodd;fill:rgb(68.627451%,68.627451%,68.627451%);fill-opacity:1;" d="M 664.800781 588 C 665.957031 599.511719 662.753906 609.109375 655.199219 616.800781 C 654.042969 605.289062 657.246094 595.691406 664.800781 588 Z M 664.800781 588 "/>
<path style=" stroke:none;fill-rule:evenodd;fill:rgb(44.705882%,44.705882%,44.705882%);fill-opacity:1;" d="M 650.398438 626.398438 C 650.832031 639.128906 647.636719 650.328125 640.800781 660 C 640.367188 647.269531 643.566406 636.070312 650.398438 626.398438 Z M 650.398438 626.398438 "/>
<path style=" stroke:none;fill-rule:evenodd;fill:rgb(44.705882%,44.705882%,44.705882%);fill-opacity:1;" d="M 1264.800781 626.398438 C 1271.636719 636.070312 1274.832031 647.269531 1274.398438 660 C 1267.566406 650.328125 1264.367188 639.128906 1264.800781 626.398438 Z M 1264.800781 626.398438 "/>
<path style=" stroke:none;fill-rule:evenodd;fill:rgb(66.666667%,66.666667%,66.666667%);fill-opacity:1;" d="M 1135.199219 688.800781 C 1138.386719 699.886719 1139.984375 711.886719 1140 724.800781 C 1140.941406 743.0625 1137.742188 759.863281 1130.398438 775.199219 C 1134.273438 746.574219 1135.871094 717.773438 1135.199219 688.800781 Z M 1135.199219 688.800781 "/>
<path style=" stroke:none;fill-rule:evenodd;fill:rgb(67.45098%,67.45098%,67.45098%);fill-opacity:1;" d="M 780 693.601562 C 779.398438 720.972656 781 748.175781 784.800781 775.199219 C 777.507812 760.675781 774.3125 744.675781 775.199219 727.199219 C 775.214844 715.078125 776.816406 703.875 780 693.601562 Z M 780 693.601562 "/>
<path style=" stroke:none;fill-rule:evenodd;fill:rgb(34.117647%,34.117647%,34.117647%);fill-opacity:1;" d="M 640.800781 775.199219 C 647.636719 784.871094 650.832031 796.070312 650.398438 808.800781 C 643.566406 799.128906 640.367188 787.929688 640.800781 775.199219 Z M 640.800781 775.199219 "/>
<path style=" stroke:none;fill-rule:evenodd;fill:rgb(34.117647%,34.117647%,34.117647%);fill-opacity:1;" d="M 1274.398438 775.199219 C 1274.832031 787.929688 1271.636719 799.128906 1264.800781 808.800781 C 1264.367188 796.070312 1267.566406 784.871094 1274.398438 775.199219 Z M 1274.398438 775.199219 "/>
<path style=" stroke:none;fill-rule:evenodd;fill:rgb(74.901961%,74.901961%,74.901961%);fill-opacity:1;" d="M 1106.398438 823.199219 C 1096.800781 842.398438 1082.398438 856.800781 1063.199219 866.398438 C 1076 850.402344 1090.402344 836 1106.398438 823.199219 Z M 1106.398438 823.199219 "/>
<path style=" stroke:none;fill-rule:evenodd;fill:rgb(69.411765%,69.411765%,69.411765%);fill-opacity:1;" d="M 1015.199219 890.398438 C 1000.675781 897.691406 984.675781 900.886719 967.199219 900 C 955.078125 899.984375 943.875 898.382812 933.601562 895.199219 C 960.972656 895.800781 988.175781 894.203125 1015.199219 890.398438 Z M 1015.199219 890.398438 "/>
<path style=" stroke:none;fill-rule:evenodd;fill:rgb(27.843137%,27.843137%,27.843137%);fill-opacity:1;" d="M 1221.601562 981.601562 C 1241.679688 975.308594 1262.476562 975.308594 1284 981.601562 C 1285.742188 984.878906 1287.339844 988.078125 1288.800781 991.199219 C 1267.167969 983.457031 1244.769531 980.261719 1221.601562 981.601562 Z M 1221.601562 981.601562 "/>
<path style=" stroke:none;fill-rule:evenodd;fill:rgb(98.039216%,98.039216%,98.039216%);fill-opacity:1;" d="M 1284 1116 C 1282.402344 1120.800781 1279.199219 1124 1274.398438 1125.601562 C 1255.167969 1130.941406 1235.964844 1130.941406 1216.800781 1125.601562 C 1212.132812 1115.347656 1204.132812 1109.746094 1192.800781 1108.800781 C 1176.230469 1083.292969 1169.832031 1055.289062 1173.601562 1024.800781 C 1173.601562 1021.597656 1175.199219 1020 1178.398438 1020 C 1186.242188 1016.605469 1192.644531 1011.007812 1197.601562 1003.199219 C 1216.800781 1000 1236 1000 1255.199219 1003.199219 C 1264.398438 1020.40625 1277.996094 1032.40625 1296 1039.199219 C 1299.203125 1058.398438 1299.203125 1077.601562 1296 1096.800781 C 1287.8125 1100.679688 1283.8125 1107.078125 1284 1116 Z M 1284 1116 "/>
<path style=" stroke:none;fill-rule:evenodd;fill:rgb(29.019608%,29.019608%,29.019608%);fill-opacity:1;" d="M 1288.800781 991.199219 C 1307.414062 995.308594 1319.414062 1006.507812 1324.800781 1024.800781 C 1329.175781 1045.46875 1326.777344 1064.667969 1317.601562 1082.398438 C 1319.394531 1047.816406 1309.796875 1017.417969 1288.800781 991.199219 Z M 1288.800781 991.199219 "/>
<path style=" stroke:none;fill-rule:evenodd;fill:rgb(31.372549%,31.372549%,31.372549%);fill-opacity:1;" d="M 1048.800781 1024.800781 C 1039.128906 1031.636719 1027.929688 1034.832031 1015.199219 1034.398438 C 1024.871094 1027.566406 1036.070312 1024.367188 1048.800781 1024.800781 Z M 1048.800781 1024.800781 "/>
<path style=" stroke:none;fill-rule:evenodd;fill:rgb(70.588235%,70.588235%,70.588235%);fill-opacity:1;" d="M 1173.601562 1024.800781 C 1169.832031 1055.289062 1176.230469 1083.292969 1192.800781 1108.800781 C 1204.132812 1109.746094 1212.132812 1115.347656 1216.800781 1125.601562 C 1235.964844 1130.941406 1255.167969 1130.941406 1274.398438 1125.601562 C 1267.367188 1131.539062 1259.367188 1136.335938 1250.398438 1140 C 1236.550781 1141.46875 1223.75 1139.871094 1212 1135.199219 C 1197.898438 1123.515625 1184.300781 1110.714844 1171.199219 1096.800781 C 1164.113281 1074.835938 1162.511719 1052.433594 1166.398438 1029.601562 C 1168.238281 1026.929688 1170.636719 1025.332031 1173.601562 1024.800781 Z M 1173.601562 1024.800781 "/>
<path style=" stroke:none;fill-rule:evenodd;fill:rgb(52.54902%,52.54902%,52.54902%);fill-opacity:1;" d="M 1221.601562 981.601562 C 1244.769531 980.261719 1267.167969 983.457031 1288.800781 991.199219 C 1309.796875 1017.417969 1319.394531 1047.816406 1317.601562 1082.398438 C 1316.457031 1091.539062 1311.65625 1097.941406 1303.199219 1101.601562 C 1320.945312 1053.175781 1306.546875 1018.78125 1260 998.398438 C 1239.257812 996.003906 1218.460938 995.203125 1197.601562 996 C 1203.164062 987.601562 1211.164062 982.800781 1221.601562 981.601562 Z M 1221.601562 981.601562 "/>
<path style=" stroke:none;fill-rule:evenodd;fill:rgb(76.470588%,76.470588%,76.470588%);fill-opacity:1;" d="M 1197.601562 996 C 1218.460938 995.203125 1239.257812 996.003906 1260 998.398438 C 1306.546875 1018.78125 1320.945312 1053.175781 1303.199219 1101.601562 C 1299.667969 1109.898438 1293.265625 1114.699219 1284 1116 C 1283.8125 1107.078125 1287.8125 1100.679688 1296 1096.800781 C 1299.203125 1077.601562 1299.203125 1058.398438 1296 1039.199219 C 1277.996094 1032.40625 1264.398438 1020.40625 1255.199219 1003.199219 C 1236 1000 1216.800781 1000 1197.601562 1003.199219 C 1192.644531 1011.007812 1186.242188 1016.605469 1178.398438 1020 C 1178.398438 1016.796875 1178.398438 1013.601562 1178.398438 1010.398438 C 1184.796875 1005.601562 1191.203125 1000.800781 1197.601562 996 Z M 1197.601562 996 "/>
<path style=" stroke:none;fill-rule:evenodd;fill:rgb(52.156863%,52.156863%,52.156863%);fill-opacity:1;" d="M 1178.398438 1010.398438 C 1178.398438 1013.601562 1178.398438 1016.796875 1178.398438 1020 C 1175.199219 1020 1173.601562 1021.597656 1173.601562 1024.800781 C 1170.636719 1025.332031 1168.238281 1026.929688 1166.398438 1029.601562 C 1162.511719 1052.433594 1164.113281 1074.835938 1171.199219 1096.800781 C 1184.300781 1110.714844 1197.898438 1123.515625 1212 1135.199219 C 1193.644531 1131.191406 1178.449219 1121.59375 1166.398438 1106.398438 C 1160.039062 1082.875 1157.640625 1058.875 1159.199219 1034.398438 C 1161.984375 1023.605469 1168.382812 1015.609375 1178.398438 1010.398438 Z M 1178.398438 1010.398438 "/>
<path style=" stroke:none;fill-rule:evenodd;fill:rgb(38.823529%,38.431373%,38.823529%);fill-opacity:1;" d="M 1159.199219 1034.398438 C 1157.640625 1058.875 1160.039062 1082.875 1166.398438 1106.398438 C 1178.449219 1121.59375 1193.644531 1131.191406 1212 1135.199219 C 1223.75 1139.871094 1236.550781 1141.46875 1250.398438 1140 C 1250.398438 1143.203125 1248.800781 1144.800781 1245.601562 1144.800781 C 1170.734375 1146.792969 1140.332031 1111.589844 1154.398438 1039.199219 C 1154.398438 1036 1156 1034.398438 1159.199219 1034.398438 Z M 1159.199219 1034.398438 "/>
<path style=" stroke:none;fill-rule:evenodd;fill:rgb(16.862745%,16.862745%,16.862745%);fill-opacity:1;" d="M 1154.398438 1039.199219 C 1140.332031 1111.589844 1170.734375 1146.792969 1245.601562 1144.800781 C 1187.324219 1160.300781 1152.125 1137.898438 1140 1077.601562 C 1139.621094 1062.441406 1144.421875 1049.640625 1154.398438 1039.199219 Z M 1154.398438 1039.199219 "/>
</g>
</svg>
