<?xml version="1.0" encoding="UTF-8"?>
<svg xmlns="http://www.w3.org/2000/svg" xmlns:xlink="http://www.w3.org/1999/xlink" width="1920pt" height="1440pt" viewBox="0 0 1920 1440" version="1.1">
<g id="surface1">
<path style=" stroke:none;fill-rule:evenodd;fill:rgb(0%,0%,0%);fill-opacity:1;" d="M -2.398438 -2.398438 C 637.597656 -2.398438 1277.601562 -2.398438 1917.601562 -2.398438 C 1917.601562 477.601562 1917.601562 957.601562 1917.601562 1437.601562 C 1277.601562 1437.601562 637.597656 1437.601562 -2.398438 1437.601562 C -2.398438 957.601562 -2.398438 477.601562 -2.398438 -2.398438 Z M -2.398438 -2.398438 "/>
<path style=" stroke:none;fill-rule:evenodd;fill:rgb(25.882353%,25.882353%,25.882353%);fill-opacity:1;" d="M 1120.800781 232.800781 C 1073.828125 246.832031 1053.027344 278.832031 1058.398438 328.800781 C 1043.773438 274.511719 1064.574219 242.511719 1120.800781 232.800781 Z M 1120.800781 232.800781 "/>
<path style=" stroke:none;fill-rule:evenodd;fill:rgb(98.431373%,98.431373%,98.431373%);fill-opacity:1;" d="M 1192.800781 261.601562 C 1209.613281 303.738281 1203.214844 342.136719 1173.601562 376.800781 C 1172 376.800781 1170.398438 376.800781 1168.800781 376.800781 C 1144.734375 382.894531 1120.734375 382.894531 1096.800781 376.800781 C 1088.515625 368.507812 1082.117188 358.90625 1077.601562 348 C 1067.429688 255.84375 1105.828125 227.042969 1192.800781 261.601562 Z M 1192.800781 261.601562 "/>
<path style=" stroke:none;fill-rule:evenodd;fill:rgb(49.803922%,49.803922%,49.803922%);fill-opacity:1;" d="M 1120.800781 232.800781 C 1138.1875 231.945312 1154.1875 235.144531 1168.800781 242.398438 C 1131.714844 235.164062 1100.515625 244.761719 1075.199219 271.199219 C 1064.898438 297.929688 1065.699219 323.527344 1077.601562 348 C 1082.117188 358.90625 1088.515625 368.507812 1096.800781 376.800781 C 1082.722656 370.734375 1071.523438 361.132812 1063.199219 348 C 1058.742188 342.292969 1057.140625 335.894531 1058.398438 328.800781 C 1053.027344 278.832031 1073.828125 246.832031 1120.800781 232.800781 Z M 1120.800781 232.800781 "/>
<path style=" stroke:none;fill-rule:evenodd;fill:rgb(75.294118%,75.294118%,75.294118%);fill-opacity:1;" d="M 1168.800781 242.398438 C 1178.210938 247.007812 1186.210938 253.410156 1192.800781 261.601562 C 1105.828125 227.042969 1067.429688 255.84375 1077.601562 348 C 1065.699219 323.527344 1064.898438 297.929688 1075.199219 271.199219 C 1100.515625 244.761719 1131.714844 235.164062 1168.800781 242.398438 Z M 1168.800781 242.398438 "/>
<path style=" stroke:none;fill-rule:evenodd;fill:rgb(72.941176%,72.941176%,72.941176%);fill-opacity:1;" d="M 1192.800781 261.601562 C 1197.601562 264.800781 1202.398438 268 1207.199219 271.199219 C 1213.363281 299.9375 1213.363281 328.734375 1207.199219 357.601562 C 1196 364 1184.796875 370.398438 1173.601562 376.800781 C 1203.214844 342.136719 1209.613281 303.738281 1192.800781 261.601562 Z M 1192.800781 261.601562 "/>
<path style=" stroke:none;fill-rule:evenodd;fill:rgb(41.176471%,41.176471%,41.176471%);fill-opacity:1;" d="M 1207.199219 271.199219 C 1218.527344 282.773438 1223.328125 297.171875 1221.601562 314.398438 C 1223.328125 331.628906 1218.527344 346.027344 1207.199219 357.601562 C 1213.363281 328.734375 1213.363281 299.9375 1207.199219 271.199219 Z M 1207.199219 271.199219 "/>
<path style=" stroke:none;fill-rule:evenodd;fill:rgb(69.019608%,69.019608%,69.019608%);fill-opacity:1;" d="M 1096.800781 376.800781 C 1120.734375 382.894531 1144.734375 382.894531 1168.800781 376.800781 C 1168.265625 379.761719 1166.667969 382.164062 1164 384 C 1148.078125 386.390625 1132.078125 387.191406 1116 386.398438 C 1106.976562 387.699219 1100.578125 384.5 1096.800781 376.800781 Z M 1096.800781 376.800781 "/>
<path style=" stroke:none;fill-rule:evenodd;fill:rgb(97.647059%,97.647059%,97.647059%);fill-opacity:1;" d="M 914.398438 381.601562 C 1065.699219 374.089844 1180.105469 434.890625 1257.601562 564 C 1322.152344 717.1875 1295.75 852.382812 1178.398438 969.601562 C 1036.546875 1077.714844 892.546875 1080.917969 746.398438 979.199219 C 599.769531 835.070312 582.96875 677.472656 696 506.398438 C 754.9375 438.976562 827.734375 397.375 914.398438 381.601562 Z M 914.398438 381.601562 "/>
<path style=" stroke:none;fill-rule:evenodd;fill:rgb(44.705882%,44.705882%,44.705882%);fill-opacity:1;" d="M 1207.199219 357.601562 C 1200.414062 372.285156 1189.214844 382.6875 1173.601562 388.800781 C 1153.492188 392.695312 1134.292969 391.898438 1116 386.398438 C 1132.078125 387.191406 1148.078125 386.390625 1164 384 C 1166.667969 382.164062 1168.265625 379.761719 1168.800781 376.800781 C 1170.398438 376.800781 1172 376.800781 1173.601562 376.800781 C 1184.796875 370.398438 1196 364 1207.199219 357.601562 Z M 1207.199219 357.601562 "/>
<path style=" stroke:none;fill-rule:evenodd;fill:rgb(0.784314%,0.784314%,0.784314%);fill-opacity:1;" d="M 924 487.199219 C 1019.867188 480.496094 1095.863281 515.699219 1152 592.800781 C 1210.652344 704.285156 1195.453125 804.289062 1106.398438 892.800781 C 991.136719 973.230469 883.136719 964.429688 782.398438 866.398438 C 695.398438 736.785156 712.199219 622.386719 832.800781 523.199219 C 862.308594 507.496094 892.707031 495.496094 924 487.199219 Z M 924 487.199219 "/>
<path style=" stroke:none;fill-rule:evenodd;fill:rgb(98.039216%,98.039216%,98.039216%);fill-opacity:1;" d="M 832.800781 1077.601562 C 837.601562 1079.199219 840.800781 1082.398438 842.398438 1087.199219 C 843.960938 1111.675781 841.558594 1135.675781 835.199219 1159.199219 C 822.230469 1168.808594 809.433594 1178.410156 796.800781 1188 C 780.28125 1192.234375 763.484375 1193.835938 746.398438 1192.800781 C 737.226562 1190.039062 729.226562 1185.238281 722.398438 1178.398438 C 722.398438 1176.800781 722.398438 1175.199219 722.398438 1173.601562 C 704.265625 1129.152344 712.265625 1089.949219 746.398438 1056 C 779.644531 1048.507812 808.445312 1055.707031 832.800781 1077.601562 Z M 832.800781 1077.601562 "/>
<path style=" stroke:none;fill-rule:evenodd;fill:rgb(70.980392%,70.980392%,70.980392%);fill-opacity:1;" d="M 799.199219 1048.800781 C 811.050781 1053.929688 822.25 1060.328125 832.800781 1068 C 832.800781 1071.203125 832.800781 1074.398438 832.800781 1077.601562 C 808.445312 1055.707031 779.644531 1048.507812 746.398438 1056 C 712.265625 1089.949219 704.265625 1129.152344 722.398438 1173.601562 C 717.800781 1171.425781 713.796875 1168.230469 710.398438 1164 C 690.171875 1118.636719 700.570312 1081.03125 741.601562 1051.199219 C 760.734375 1048.804688 779.933594 1048.003906 799.199219 1048.800781 Z M 799.199219 1048.800781 "/>
<path style=" stroke:none;fill-rule:evenodd;fill:rgb(33.72549%,33.72549%,33.72549%);fill-opacity:1;" d="M 799.199219 1048.800781 C 779.933594 1048.003906 760.734375 1048.804688 741.601562 1051.199219 C 700.570312 1081.03125 690.171875 1118.636719 710.398438 1164 C 713.796875 1168.230469 717.800781 1171.425781 722.398438 1173.601562 C 722.398438 1175.199219 722.398438 1176.800781 722.398438 1178.398438 C 715.117188 1178.347656 709.515625 1175.152344 705.601562 1168.800781 C 676.238281 1118.929688 685.035156 1078.128906 732 1046.398438 C 755.289062 1042.488281 777.691406 1043.289062 799.199219 1048.800781 Z M 799.199219 1048.800781 "/>
<path style=" stroke:none;fill-rule:evenodd;fill:rgb(32.156863%,32.156863%,32.156863%);fill-opacity:1;" d="M 832.800781 1068 C 844.011719 1075.21875 852.8125 1084.820312 859.199219 1096.800781 C 863.460938 1121.367188 861.863281 1145.367188 854.398438 1168.800781 C 841.132812 1178.832031 827.535156 1188.433594 813.601562 1197.601562 C 795.289062 1203.878906 777.691406 1203.878906 760.800781 1197.601562 C 812.554688 1199.007812 844.554688 1175.007812 856.800781 1125.601562 C 857.53125 1110.113281 852.730469 1097.3125 842.398438 1087.199219 C 840.800781 1082.398438 837.601562 1079.199219 832.800781 1077.601562 C 832.800781 1074.398438 832.800781 1071.203125 832.800781 1068 Z M 832.800781 1068 "/>
<path style=" stroke:none;fill-rule:evenodd;fill:rgb(63.529412%,63.529412%,63.529412%);fill-opacity:1;" d="M 842.398438 1087.199219 C 852.730469 1097.3125 857.53125 1110.113281 856.800781 1125.601562 C 844.554688 1175.007812 812.554688 1199.007812 760.800781 1197.601562 C 754.601562 1198.738281 749.804688 1197.140625 746.398438 1192.800781 C 763.484375 1193.835938 780.28125 1192.234375 796.800781 1188 C 809.433594 1178.410156 822.230469 1168.808594 835.199219 1159.199219 C 841.558594 1135.675781 843.960938 1111.675781 842.398438 1087.199219 Z M 842.398438 1087.199219 "/>
</g>
</svg>
