<?xml version="1.0" encoding="UTF-8"?>
<svg xmlns="http://www.w3.org/2000/svg" xmlns:xlink="http://www.w3.org/1999/xlink" width="1920pt" height="1440pt" viewBox="0 0 1920 1440" version="1.1">
<g id="surface1">
<path style=" stroke:none;fill-rule:evenodd;fill:rgb(0%,0%,0%);fill-opacity:1;" d="M -2.398438 -2.398438 C 637.597656 -2.398438 1277.601562 -2.398438 1917.601562 -2.398438 C 1917.601562 477.601562 1917.601562 957.601562 1917.601562 1437.601562 C 1277.601562 1437.601562 637.597656 1437.601562 -2.398438 1437.601562 C -2.398438 957.601562 -2.398438 477.601562 -2.398438 -2.398438 Z M -2.398438 -2.398438 "/>
<path style=" stroke:none;fill-rule:evenodd;fill:rgb(26.27451%,26.27451%,26.27451%);fill-opacity:1;" d="M 708 261.601562 C 733.074219 255.382812 758.671875 256.183594 784.800781 264 C 788.410156 267.21875 790.011719 271.21875 789.601562 276 C 764.285156 263.472656 737.082031 258.675781 708 261.601562 Z M 708 261.601562 "/>
<path style=" stroke:none;fill-rule:evenodd;fill:rgb(98.823529%,98.823529%,98.823529%);fill-opacity:1;" d="M 775.199219 396 C 769.894531 401.28125 763.496094 404.480469 756 405.601562 C 741.511719 406.390625 727.113281 405.589844 712.800781 403.199219 C 671.808594 382.710938 656.605469 349.910156 667.199219 304.800781 C 687.183594 275.367188 713.582031 268.164062 746.398438 283.199219 C 779.34375 314.214844 788.941406 351.816406 775.199219 396 Z M 775.199219 396 "/>
<path style=" stroke:none;fill-rule:evenodd;fill:rgb(34.117647%,34.117647%,34.117647%);fill-opacity:1;" d="M 789.601562 285.601562 C 797.246094 289.667969 802.847656 296.070312 806.398438 304.800781 C 808.796875 322.328125 809.59375 339.929688 808.800781 357.601562 C 806.097656 375.890625 796.496094 388.691406 780 396 C 781.597656 392.800781 783.203125 389.601562 784.800781 386.398438 C 801.085938 374.929688 807.488281 358.929688 804 338.398438 C 802.757812 319.621094 797.957031 302.023438 789.601562 285.601562 Z M 789.601562 285.601562 "/>
<path style=" stroke:none;fill-rule:evenodd;fill:rgb(21.176471%,21.176471%,21.176471%);fill-opacity:1;" d="M 789.601562 276 C 802.035156 279.621094 810.835938 287.621094 816 300 C 819.203125 317.601562 819.203125 335.199219 816 352.800781 C 814.160156 355.46875 811.761719 357.070312 808.800781 357.601562 C 809.59375 339.929688 808.796875 322.328125 806.398438 304.800781 C 802.847656 296.070312 797.246094 289.667969 789.601562 285.601562 C 789.601562 282.398438 789.601562 279.199219 789.601562 276 Z M 789.601562 276 "/>
<path style=" stroke:none;fill-rule:evenodd;fill:rgb(55.686275%,55.686275%,55.686275%);fill-opacity:1;" d="M 660 304.800781 C 646.078125 378.855469 676.484375 414.054688 751.199219 410.398438 C 751.199219 413.601562 749.601562 415.199219 746.398438 415.199219 C 683.628906 425.183594 650.03125 398.78125 645.601562 336 C 643.398438 321.792969 648.195312 311.394531 660 304.800781 Z M 660 304.800781 "/>
<path style=" stroke:none;fill-rule:evenodd;fill:rgb(56.078431%,56.078431%,56.078431%);fill-opacity:1;" d="M 708 261.601562 C 737.082031 258.675781 764.285156 263.472656 789.601562 276 C 789.601562 279.199219 789.601562 282.398438 789.601562 285.601562 C 797.957031 302.023438 802.757812 319.621094 804 338.398438 C 807.488281 358.929688 801.085938 374.929688 784.800781 386.398438 C 809.425781 304.449219 779.027344 266.050781 693.601562 271.199219 C 695.871094 264.449219 700.671875 261.25 708 261.601562 Z M 708 261.601562 "/>
<path style=" stroke:none;fill-rule:evenodd;fill:rgb(78.039216%,78.039216%,78.039216%);fill-opacity:1;" d="M 693.601562 271.199219 C 779.027344 266.050781 809.425781 304.449219 784.800781 386.398438 C 783.203125 389.601562 781.597656 392.800781 780 396 C 778.402344 396 776.796875 396 775.199219 396 C 788.941406 351.816406 779.34375 314.214844 746.398438 283.199219 C 713.582031 268.164062 687.183594 275.367188 667.199219 304.800781 C 656.605469 349.910156 671.808594 382.710938 712.800781 403.199219 C 727.113281 405.589844 741.511719 406.390625 756 405.601562 C 756 408.800781 754.402344 410.398438 751.199219 410.398438 C 676.484375 414.054688 646.078125 378.855469 660 304.800781 C 668 295.199219 676 285.601562 684 276 C 685.640625 271.976562 688.839844 270.375 693.601562 271.199219 Z M 693.601562 271.199219 "/>
<path style=" stroke:none;fill-rule:evenodd;fill:rgb(45.098039%,45.098039%,45.098039%);fill-opacity:1;" d="M 991.199219 396 C 952.40625 395.113281 914.007812 398.3125 876 405.601562 C 887.09375 398.074219 899.894531 394.074219 914.398438 393.601562 C 940.875 389.675781 966.480469 390.476562 991.199219 396 Z M 991.199219 396 "/>
<path style=" stroke:none;fill-rule:evenodd;fill:rgb(31.764706%,31.764706%,31.764706%);fill-opacity:1;" d="M 684 276 C 676 285.601562 668 295.199219 660 304.800781 C 648.195312 311.394531 643.398438 321.792969 645.601562 336 C 650.03125 398.78125 683.628906 425.183594 746.398438 415.199219 C 697.695312 438.050781 661.695312 425.25 638.398438 376.800781 C 625.171875 329.6875 640.371094 296.089844 684 276 Z M 684 276 "/>
<path style=" stroke:none;fill-rule:evenodd;fill:rgb(97.647059%,97.647059%,97.647059%);fill-opacity:1;" d="M 991.199219 396 C 1004 397.601562 1016.796875 399.199219 1029.601562 400.800781 C 1044.023438 409.328125 1060.023438 414.128906 1077.601562 415.199219 C 1181.175781 459.574219 1246.777344 536.375 1274.398438 645.601562 C 1277.367188 680.722656 1278.964844 715.925781 1279.199219 751.199219 C 1276.359375 763.808594 1274.761719 776.609375 1274.398438 789.601562 C 1265.871094 804.023438 1261.070312 820.023438 1260 837.601562 C 1208.230469 951.714844 1120.230469 1018.914062 996 1039.199219 C 959.121094 1039.089844 922.320312 1037.488281 885.601562 1034.398438 C 874.109375 1031.929688 862.90625 1028.730469 852 1024.800781 C 843.957031 1013.597656 832.757812 1008.796875 818.398438 1010.398438 C 713.089844 957.835938 652.285156 873.035156 636 756 C 636.460938 719.140625 638.0625 682.339844 640.800781 645.601562 C 663.726562 552.667969 716.523438 481.464844 799.199219 432 C 823.078125 417.90625 848.679688 409.109375 876 405.601562 C 914.007812 398.3125 952.40625 395.113281 991.199219 396 Z M 991.199219 396 "/>
<path style=" stroke:none;fill-rule:evenodd;fill:rgb(34.117647%,34.117647%,34.117647%);fill-opacity:1;" d="M 1029.601562 400.800781 C 1047.175781 401.871094 1063.175781 406.671875 1077.601562 415.199219 C 1060.023438 414.128906 1044.023438 409.328125 1029.601562 400.800781 Z M 1029.601562 400.800781 "/>
<path style=" stroke:none;fill-rule:evenodd;fill:rgb(0.784314%,0.784314%,0.784314%);fill-opacity:1;" d="M 1005.601562 496.800781 C 1013.828125 502.742188 1023.425781 505.945312 1034.398438 506.398438 C 1111.300781 535.300781 1159.300781 589.699219 1178.398438 669.601562 C 1184.488281 700.027344 1184.488281 730.425781 1178.398438 760.800781 C 1178.398438 762.398438 1178.398438 764 1178.398438 765.601562 C 1172.457031 773.828125 1169.257812 783.425781 1168.800781 794.398438 C 1128.636719 890.945312 1055.835938 940.550781 950.398438 943.199219 C 849.214844 938.648438 781.214844 889.046875 746.398438 794.398438 C 745.945312 783.425781 742.742188 773.828125 736.800781 765.601562 C 730.660156 731.976562 730.660156 698.375 736.800781 664.800781 C 744.355469 657.109375 747.558594 647.511719 746.398438 636 C 772 575.199219 815.199219 532 876 506.398438 C 887.511719 507.558594 897.109375 504.355469 904.800781 496.800781 C 938.375 490.660156 971.976562 490.660156 1005.601562 496.800781 Z M 1005.601562 496.800781 "/>
<path style=" stroke:none;fill-rule:evenodd;fill:rgb(47.45098%,47.45098%,47.45098%);fill-opacity:1;" d="M 1005.601562 496.800781 C 1017.109375 495.644531 1026.710938 498.84375 1034.398438 506.398438 C 1023.425781 505.945312 1013.828125 502.742188 1005.601562 496.800781 Z M 1005.601562 496.800781 "/>
<path style=" stroke:none;fill-rule:evenodd;fill:rgb(39.215686%,38.823529%,38.823529%);fill-opacity:1;" d="M 904.800781 496.800781 C 897.109375 504.355469 887.511719 507.558594 876 506.398438 C 883.691406 498.84375 893.289062 495.644531 904.800781 496.800781 Z M 904.800781 496.800781 "/>
<path style=" stroke:none;fill-rule:evenodd;fill:rgb(47.45098%,47.45098%,47.45098%);fill-opacity:1;" d="M 746.398438 636 C 747.558594 647.511719 744.355469 657.109375 736.800781 664.800781 C 735.644531 653.289062 738.84375 643.691406 746.398438 636 Z M 746.398438 636 "/>
<path style=" stroke:none;fill-rule:evenodd;fill:rgb(43.137255%,43.137255%,43.137255%);fill-opacity:1;" d="M 640.800781 645.601562 C 638.0625 682.339844 636.460938 719.140625 636 756 C 632.8125 743.300781 631.210938 729.699219 631.199219 715.199219 C 630.742188 690.820312 633.945312 667.621094 640.800781 645.601562 Z M 640.800781 645.601562 "/>
<path style=" stroke:none;fill-rule:evenodd;fill:rgb(43.137255%,43.137255%,43.137255%);fill-opacity:1;" d="M 1274.398438 645.601562 C 1281.175781 666.820312 1284.378906 689.222656 1284 712.800781 C 1283.984375 726.503906 1282.386719 739.304688 1279.199219 751.199219 C 1278.964844 715.925781 1277.367188 680.722656 1274.398438 645.601562 Z M 1274.398438 645.601562 "/>
<path style=" stroke:none;fill-rule:evenodd;fill:rgb(74.117647%,74.117647%,74.117647%);fill-opacity:1;" d="M 1178.398438 669.601562 C 1185.628906 683.308594 1188.824219 698.511719 1188 715.199219 C 1188.824219 731.890625 1185.628906 747.089844 1178.398438 760.800781 C 1184.488281 730.425781 1184.488281 700.027344 1178.398438 669.601562 Z M 1178.398438 669.601562 "/>
<path style=" stroke:none;fill-rule:evenodd;fill:rgb(47.45098%,47.45098%,47.45098%);fill-opacity:1;" d="M 736.800781 765.601562 C 742.742188 773.828125 745.945312 783.425781 746.398438 794.398438 C 738.84375 786.710938 735.644531 777.109375 736.800781 765.601562 Z M 736.800781 765.601562 "/>
<path style=" stroke:none;fill-rule:evenodd;fill:rgb(47.45098%,47.45098%,47.45098%);fill-opacity:1;" d="M 1178.398438 765.601562 C 1179.558594 777.109375 1176.355469 786.710938 1168.800781 794.398438 C 1169.257812 783.425781 1172.457031 773.828125 1178.398438 765.601562 Z M 1178.398438 765.601562 "/>
<path style=" stroke:none;fill-rule:evenodd;fill:rgb(34.117647%,34.117647%,34.117647%);fill-opacity:1;" d="M 1274.398438 789.601562 C 1273.328125 807.175781 1268.53125 823.175781 1260 837.601562 C 1261.070312 820.023438 1265.871094 804.023438 1274.398438 789.601562 Z M 1274.398438 789.601562 "/>
<path style=" stroke:none;fill-rule:evenodd;fill:rgb(65.098039%,65.098039%,65.098039%);fill-opacity:1;" d="M 818.398438 1010.398438 C 832.757812 1008.796875 843.957031 1013.597656 852 1024.800781 C 839.246094 1022.710938 828.042969 1017.910156 818.398438 1010.398438 Z M 818.398438 1010.398438 "/>
<path style=" stroke:none;fill-rule:evenodd;fill:rgb(23.137255%,23.137255%,23.137255%);fill-opacity:1;" d="M 1245.601562 1024.800781 C 1223.210938 1014.863281 1200.816406 1013.265625 1178.398438 1020 C 1175.199219 1020 1172 1020 1168.800781 1020 C 1169.332031 1017.039062 1170.929688 1014.636719 1173.601562 1012.800781 C 1192.800781 1009.597656 1212 1009.597656 1231.199219 1012.800781 C 1238.121094 1014.609375 1242.921875 1018.609375 1245.601562 1024.800781 Z M 1245.601562 1024.800781 "/>
<path style=" stroke:none;fill-rule:evenodd;fill:rgb(97.647059%,97.647059%,97.647059%);fill-opacity:1;" d="M 1236 1154.398438 C 1230.695312 1159.679688 1224.296875 1162.882812 1216.800781 1164 C 1141.492188 1160.597656 1114.292969 1122.195312 1135.199219 1048.800781 C 1138.402344 1044 1141.597656 1039.199219 1144.800781 1034.398438 C 1224.308594 1017.097656 1258.707031 1049.09375 1248 1130.398438 C 1241.097656 1137.121094 1237.097656 1145.121094 1236 1154.398438 Z M 1236 1154.398438 "/>
<path style=" stroke:none;fill-rule:evenodd;fill:rgb(42.352941%,42.352941%,42.352941%);fill-opacity:1;" d="M 885.601562 1034.398438 C 922.320312 1037.488281 959.121094 1039.089844 996 1039.199219 C 983.300781 1042.386719 969.699219 1043.992188 955.199219 1044 C 930.820312 1044.457031 907.621094 1041.253906 885.601562 1034.398438 Z M 885.601562 1034.398438 "/>
<path style=" stroke:none;fill-rule:evenodd;fill:rgb(52.156863%,52.156863%,52.156863%);fill-opacity:1;" d="M 1178.398438 1020 C 1200.816406 1013.265625 1223.210938 1014.863281 1245.601562 1024.800781 C 1254.664062 1047.523438 1262.664062 1070.726562 1269.601562 1094.398438 C 1267.851562 1108.421875 1264.652344 1122.019531 1260 1135.199219 C 1258.402344 1135.199219 1256.796875 1135.199219 1255.199219 1135.199219 C 1267.253906 1093.042969 1257.652344 1057.042969 1226.398438 1027.199219 C 1210.914062 1021.445312 1194.917969 1019.042969 1178.398438 1020 Z M 1178.398438 1020 "/>
<path style=" stroke:none;fill-rule:evenodd;fill:rgb(30.196078%,30.196078%,30.196078%);fill-opacity:1;" d="M 1245.601562 1024.800781 C 1263.632812 1030.882812 1274.035156 1043.683594 1276.800781 1063.199219 C 1283.15625 1090.679688 1277.554688 1114.679688 1260 1135.199219 C 1264.652344 1122.019531 1267.851562 1108.421875 1269.601562 1094.398438 C 1262.664062 1070.726562 1254.664062 1047.523438 1245.601562 1024.800781 Z M 1245.601562 1024.800781 "/>
<path style=" stroke:none;fill-rule:evenodd;fill:rgb(69.411765%,69.411765%,69.411765%);fill-opacity:1;" d="M 1168.800781 1020 C 1172 1020 1175.199219 1020 1178.398438 1020 C 1194.917969 1019.042969 1210.914062 1021.445312 1226.398438 1027.199219 C 1257.652344 1057.042969 1267.253906 1093.042969 1255.199219 1135.199219 C 1250.398438 1143.203125 1244 1149.601562 1236 1154.398438 C 1237.097656 1145.121094 1241.097656 1137.121094 1248 1130.398438 C 1258.707031 1049.09375 1224.308594 1017.097656 1144.800781 1034.398438 C 1150.363281 1026 1158.363281 1021.199219 1168.800781 1020 Z M 1168.800781 1020 "/>
<path style=" stroke:none;fill-rule:evenodd;fill:rgb(23.921569%,23.921569%,23.921569%);fill-opacity:1;" d="M 1116 1058.398438 C 1105.152344 1084.660156 1103.554688 1111.863281 1111.199219 1140 C 1099.550781 1130.363281 1094.75 1117.566406 1096.800781 1101.601562 C 1094.230469 1082.765625 1100.628906 1068.363281 1116 1058.398438 Z M 1116 1058.398438 "/>
<path style=" stroke:none;fill-rule:evenodd;fill:rgb(49.803922%,49.803922%,49.803922%);fill-opacity:1;" d="M 1144.800781 1034.398438 C 1141.597656 1039.199219 1138.402344 1044 1135.199219 1048.800781 C 1128.164062 1052.867188 1124.160156 1059.265625 1123.199219 1068 C 1119.859375 1089.144531 1121.457031 1109.945312 1128 1130.398438 C 1137.832031 1141.003906 1146.628906 1152.203125 1154.398438 1164 C 1147.808594 1164.753906 1141.40625 1163.953125 1135.199219 1161.601562 C 1130.828125 1150.007812 1122.824219 1142.808594 1111.199219 1140 C 1103.554688 1111.863281 1105.152344 1084.660156 1116 1058.398438 C 1122.773438 1046.8125 1132.371094 1038.8125 1144.800781 1034.398438 Z M 1144.800781 1034.398438 "/>
<path style=" stroke:none;fill-rule:evenodd;fill:rgb(66.27451%,66.27451%,66.27451%);fill-opacity:1;" d="M 1135.199219 1048.800781 C 1114.292969 1122.195312 1141.492188 1160.597656 1216.800781 1164 C 1213.023438 1171.699219 1206.625 1174.902344 1197.601562 1173.601562 C 1181.621094 1174.96875 1167.222656 1171.765625 1154.398438 1164 C 1146.628906 1152.203125 1137.832031 1141.003906 1128 1130.398438 C 1121.457031 1109.945312 1119.859375 1089.144531 1123.199219 1068 C 1124.160156 1059.265625 1128.164062 1052.867188 1135.199219 1048.800781 Z M 1135.199219 1048.800781 "/>
<path style=" stroke:none;fill-rule:evenodd;fill:rgb(25.490196%,25.490196%,25.490196%);fill-opacity:1;" d="M 1111.199219 1140 C 1122.824219 1142.808594 1130.828125 1150.007812 1135.199219 1161.601562 C 1141.40625 1163.953125 1147.808594 1164.753906 1154.398438 1164 C 1167.222656 1171.765625 1181.621094 1174.96875 1197.601562 1173.601562 C 1191.46875 1180.308594 1183.472656 1183.507812 1173.601562 1183.199219 C 1141.765625 1183.429688 1120.964844 1169.03125 1111.199219 1140 Z M 1111.199219 1140 "/>
</g>
</svg>
