<?xml version="1.0" encoding="UTF-8"?>
<svg xmlns="http://www.w3.org/2000/svg" xmlns:xlink="http://www.w3.org/1999/xlink" width="1920pt" height="1440pt" viewBox="0 0 1920 1440" version="1.1">
<g id="surface1">
<path style=" stroke:none;fill-rule:evenodd;fill:rgb(0%,0%,0%);fill-opacity:1;" d="M -2.398438 -2.398438 C 637.597656 -2.398438 1277.601562 -2.398438 1917.601562 -2.398438 C 1917.601562 477.601562 1917.601562 957.601562 1917.601562 1437.601562 C 1277.601562 1437.601562 637.597656 1437.601562 -2.398438 1437.601562 C -2.398438 957.601562 -2.398438 477.601562 -2.398438 -2.398438 Z M -2.398438 -2.398438 "/>
<path style=" stroke:none;fill-rule:evenodd;fill:rgb(98.039216%,98.039216%,98.039216%);fill-opacity:1;" d="M 996 391.199219 C 1019.992188 395.425781 1043.992188 401.828125 1068 410.398438 C 1148.019531 437.625 1207.21875 488.828125 1245.601562 564 C 1245.25 571.328125 1248.453125 576.128906 1255.199219 578.398438 C 1259.796875 587.050781 1263 596.648438 1264.800781 607.199219 C 1266.222656 616.335938 1269.421875 624.335938 1274.398438 631.199219 C 1293.539062 716.390625 1283.9375 797.992188 1245.601562 876 C 1238.851562 878.269531 1235.648438 883.070312 1236 890.398438 C 1201.492188 947.289062 1153.492188 988.890625 1092 1015.199219 C 1082.867188 1016.621094 1074.863281 1019.824219 1068 1024.800781 C 1043.992188 1033.371094 1019.992188 1039.769531 996 1044 C 933.355469 1050.792969 874.15625 1041.191406 818.398438 1015.199219 C 816.128906 1008.453125 811.328125 1005.25 804 1005.601562 C 728.828125 967.21875 677.625 908.019531 650.398438 828 C 647.378906 814.09375 642.582031 801.292969 636 789.601562 C 624.574219 716.203125 632.574219 645.804688 660 578.398438 C 666.75 576.128906 669.949219 571.328125 669.601562 564 C 691.273438 518.324219 723.269531 481.523438 765.601562 453.601562 C 777.4375 449.769531 787.035156 443.371094 794.398438 434.398438 C 801.742188 425.535156 811.34375 420.738281 823.199219 420 C 832.335938 418.578125 840.335938 415.378906 847.199219 410.398438 C 864.800781 401.546875 884 395.945312 904.800781 393.601562 C 935.160156 391.203125 965.558594 390.402344 996 391.199219 Z M 996 391.199219 "/>
<path style=" stroke:none;fill-rule:evenodd;fill:rgb(25.490196%,25.490196%,25.490196%);fill-opacity:1;" d="M 996 391.199219 C 1023.234375 388.050781 1047.234375 394.449219 1068 410.398438 C 1043.992188 401.828125 1019.992188 395.425781 996 391.199219 Z M 996 391.199219 "/>
<path style=" stroke:none;fill-rule:evenodd;fill:rgb(55.294118%,55.294118%,55.294118%);fill-opacity:1;" d="M 847.199219 410.398438 C 840.335938 415.378906 832.335938 418.578125 823.199219 420 C 828.648438 411.777344 836.648438 408.578125 847.199219 410.398438 Z M 847.199219 410.398438 "/>
<path style=" stroke:none;fill-rule:evenodd;fill:rgb(67.45098%,67.45098%,67.45098%);fill-opacity:1;" d="M 794.398438 434.398438 C 787.035156 443.371094 777.4375 449.769531 765.601562 453.601562 C 771.847656 442.457031 781.449219 436.054688 794.398438 434.398438 Z M 794.398438 434.398438 "/>
<path style=" stroke:none;fill-rule:evenodd;fill:rgb(0.784314%,0.784314%,0.784314%);fill-opacity:1;" d="M 765.601562 765.601562 C 761.878906 740.175781 760.28125 714.574219 760.800781 688.800781 C 776.25 608.472656 822.652344 553.273438 900 523.199219 C 990.226562 505.535156 1064.625 531.9375 1123.199219 602.398438 C 1153.335938 652.546875 1162.933594 706.949219 1152 765.601562 C 1108.386719 882.636719 1024.386719 931.433594 900 912 C 830.796875 885.214844 786 836.414062 765.601562 765.601562 Z M 765.601562 765.601562 "/>
<path style=" stroke:none;fill-rule:evenodd;fill:rgb(32.941176%,32.941176%,32.941176%);fill-opacity:1;" d="M 597.601562 573.601562 C 574.699219 557.175781 549.101562 547.574219 520.800781 544.800781 C 508.96875 544.695312 497.769531 547.09375 487.199219 552 C 477.035156 560.492188 467.4375 569.289062 458.398438 578.398438 C 476.746094 536.4375 508.746094 521.238281 554.398438 532.800781 C 574.460938 540.867188 588.859375 554.472656 597.601562 573.601562 Z M 597.601562 573.601562 "/>
<path style=" stroke:none;fill-rule:evenodd;fill:rgb(82.745098%,82.745098%,82.745098%);fill-opacity:1;" d="M 597.601562 640.800781 C 597.601562 642.398438 597.601562 644 597.601562 645.601562 C 596 645.601562 594.398438 645.601562 592.800781 645.601562 C 593.582031 634.285156 592.785156 623.089844 590.398438 612 C 580 598.402344 569.601562 584.796875 559.199219 571.199219 C 535.8125 564.539062 511.8125 562.136719 487.199219 564 C 528.824219 546.902344 564.023438 556.503906 592.800781 592.800781 C 597.539062 608.488281 599.136719 624.488281 597.601562 640.800781 Z M 597.601562 640.800781 "/>
<path style=" stroke:none;fill-rule:evenodd;fill:rgb(98.823529%,98.823529%,98.823529%);fill-opacity:1;" d="M 487.199219 564 C 511.8125 562.136719 535.8125 564.539062 559.199219 571.199219 C 569.601562 584.796875 580 598.402344 590.398438 612 C 592.785156 623.089844 593.582031 634.285156 592.800781 645.601562 C 591.203125 648.800781 589.597656 652 588 655.199219 C 556.347656 679.851562 521.144531 685.453125 482.398438 672 C 472.558594 662.566406 464.558594 652.167969 458.398438 640.800781 C 446.503906 607.011719 456.101562 581.414062 487.199219 564 Z M 487.199219 564 "/>
<path style=" stroke:none;fill-rule:evenodd;fill:rgb(50.588235%,50.588235%,50.588235%);fill-opacity:1;" d="M 669.601562 564 C 669.949219 571.328125 666.75 576.128906 660 578.398438 C 659.648438 571.070312 662.851562 566.269531 669.601562 564 Z M 669.601562 564 "/>
<path style=" stroke:none;fill-rule:evenodd;fill:rgb(50.588235%,50.588235%,50.588235%);fill-opacity:1;" d="M 1245.601562 564 C 1252.347656 566.269531 1255.550781 571.070312 1255.199219 578.398438 C 1248.453125 576.128906 1245.25 571.328125 1245.601562 564 Z M 1245.601562 564 "/>
<path style=" stroke:none;fill-rule:evenodd;fill:rgb(35.686275%,35.686275%,35.686275%);fill-opacity:1;" d="M 1264.800781 607.199219 C 1273.023438 612.648438 1276.222656 620.648438 1274.398438 631.199219 C 1269.421875 624.335938 1266.222656 616.335938 1264.800781 607.199219 Z M 1264.800781 607.199219 "/>
<path style=" stroke:none;fill-rule:evenodd;fill:rgb(27.843137%,27.843137%,27.843137%);fill-opacity:1;" d="M 448.800781 602.398438 C 448.253906 630.605469 453.054688 657.800781 463.199219 684 C 458.601562 681.824219 454.601562 678.628906 451.199219 674.398438 C 444.398438 649.765625 443.597656 625.765625 448.800781 602.398438 Z M 448.800781 602.398438 "/>
<path style=" stroke:none;fill-rule:evenodd;fill:rgb(76.078431%,76.078431%,76.078431%);fill-opacity:1;" d="M 458.398438 640.800781 C 464.558594 652.167969 472.558594 662.566406 482.398438 672 C 521.144531 685.453125 556.347656 679.851562 588 655.199219 C 582.210938 668.628906 572.609375 679.03125 559.199219 686.398438 C 526.199219 693.144531 495.800781 687.546875 468 669.601562 C 462.011719 660.847656 458.8125 651.25 458.398438 640.800781 Z M 458.398438 640.800781 "/>
<path style=" stroke:none;fill-rule:evenodd;fill:rgb(55.686275%,55.686275%,55.686275%);fill-opacity:1;" d="M 597.601562 573.601562 C 603.570312 596.628906 603.570312 619.03125 597.601562 640.800781 C 599.136719 624.488281 597.539062 608.488281 592.800781 592.800781 C 564.023438 556.503906 528.824219 546.902344 487.199219 564 C 456.101562 581.414062 446.503906 607.011719 458.398438 640.800781 C 458.8125 651.25 462.011719 660.847656 468 669.601562 C 495.800781 687.546875 526.199219 693.144531 559.199219 686.398438 C 572.609375 679.03125 582.210938 668.628906 588 655.199219 C 589.597656 652 591.203125 648.800781 592.800781 645.601562 C 594.398438 645.601562 596 645.601562 597.601562 645.601562 C 595.339844 655.578125 592.140625 665.179688 588 674.398438 C 549.097656 709.0625 507.5 712.261719 463.199219 684 C 453.054688 657.800781 448.253906 630.605469 448.800781 602.398438 C 450.21875 593.265625 453.421875 585.265625 458.398438 578.398438 C 467.4375 569.289062 477.035156 560.492188 487.199219 552 C 497.769531 547.09375 508.96875 544.695312 520.800781 544.800781 C 549.101562 547.574219 574.699219 557.175781 597.601562 573.601562 Z M 597.601562 573.601562 "/>
<path style=" stroke:none;fill-rule:evenodd;fill:rgb(27.843137%,27.843137%,27.843137%);fill-opacity:1;" d="M 588 674.398438 C 566.378906 710.847656 534.382812 722.847656 492 710.398438 C 479.792969 703.765625 470.191406 694.96875 463.199219 684 C 507.5 712.261719 549.097656 709.0625 588 674.398438 Z M 588 674.398438 "/>
<path style=" stroke:none;fill-rule:evenodd;fill:rgb(45.490196%,45.490196%,45.098039%);fill-opacity:1;" d="M 760.800781 688.800781 C 760.28125 714.574219 761.878906 740.175781 765.601562 765.601562 C 758.371094 751.890625 755.175781 736.691406 756 720 C 756.019531 708.667969 757.617188 698.269531 760.800781 688.800781 Z M 760.800781 688.800781 "/>
<path style=" stroke:none;fill-rule:evenodd;fill:rgb(36.862745%,36.862745%,36.862745%);fill-opacity:1;" d="M 1466.398438 818.398438 C 1467.226562 813.636719 1465.621094 810.441406 1461.601562 808.800781 C 1461.601562 804 1461.601562 799.199219 1461.601562 794.398438 C 1439.449219 735.394531 1399.449219 720.195312 1341.601562 748.800781 C 1337.992188 752.019531 1336.386719 756.019531 1336.800781 760.800781 C 1331.164062 765.667969 1327.96875 772.066406 1327.199219 780 C 1325.125 785.808594 1321.925781 790.609375 1317.601562 794.398438 C 1319.972656 766.429688 1332.773438 744.832031 1356 729.601562 C 1421.105469 710.105469 1459.507812 733.308594 1471.199219 799.199219 C 1471.148438 806.617188 1469.546875 813.015625 1466.398438 818.398438 Z M 1466.398438 818.398438 "/>
<path style=" stroke:none;fill-rule:evenodd;fill:rgb(63.921569%,63.921569%,63.921569%);fill-opacity:1;" d="M 1461.601562 794.398438 C 1456.800781 791.199219 1452 788 1447.199219 784.800781 C 1447.148438 777.519531 1443.949219 771.917969 1437.601562 768 C 1405.214844 742.433594 1371.613281 740.035156 1336.800781 760.800781 C 1336.386719 756.019531 1337.992188 752.019531 1341.601562 748.800781 C 1399.449219 720.195312 1439.449219 735.394531 1461.601562 794.398438 Z M 1461.601562 794.398438 "/>
<path style=" stroke:none;fill-rule:evenodd;fill:rgb(98.431373%,98.431373%,98.431373%);fill-opacity:1;" d="M 1447.199219 784.800781 C 1452 788 1456.800781 791.199219 1461.601562 794.398438 C 1461.601562 799.199219 1461.601562 804 1461.601562 808.800781 C 1462.367188 816.957031 1461.570312 824.957031 1459.199219 832.800781 C 1433.667969 876.964844 1397.667969 887.363281 1351.199219 864 C 1326.085938 847.609375 1314.886719 824.410156 1317.601562 794.398438 C 1321.925781 790.609375 1325.125 785.808594 1327.199219 780 C 1345.242188 767.835938 1365.238281 759.835938 1387.199219 756 C 1408.875 762.441406 1428.878906 772.042969 1447.199219 784.800781 Z M 1447.199219 784.800781 "/>
<path style=" stroke:none;fill-rule:evenodd;fill:rgb(84.705882%,84.705882%,84.705882%);fill-opacity:1;" d="M 1447.199219 784.800781 C 1428.878906 772.042969 1408.875 762.441406 1387.199219 756 C 1365.238281 759.835938 1345.242188 767.835938 1327.199219 780 C 1327.96875 772.066406 1331.164062 765.667969 1336.800781 760.800781 C 1371.613281 740.035156 1405.214844 742.433594 1437.601562 768 C 1443.949219 771.917969 1447.148438 777.519531 1447.199219 784.800781 Z M 1447.199219 784.800781 "/>
<path style=" stroke:none;fill-rule:evenodd;fill:rgb(27.843137%,27.843137%,27.843137%);fill-opacity:1;" d="M 636 789.601562 C 642.582031 801.292969 647.378906 814.09375 650.398438 828 C 640.054688 817.839844 635.257812 805.035156 636 789.601562 Z M 636 789.601562 "/>
<path style=" stroke:none;fill-rule:evenodd;fill:rgb(64.705882%,64.705882%,64.705882%);fill-opacity:1;" d="M 1317.601562 794.398438 C 1314.886719 824.410156 1326.085938 847.609375 1351.199219 864 C 1397.667969 887.363281 1433.667969 876.964844 1459.199219 832.800781 C 1461.570312 824.957031 1462.367188 816.957031 1461.601562 808.800781 C 1465.621094 810.441406 1467.226562 813.636719 1466.398438 818.398438 C 1465.789062 841.113281 1457.792969 860.3125 1442.398438 876 C 1417.171875 888.949219 1389.96875 893.75 1360.800781 890.398438 C 1360.800781 885.601562 1360.800781 880.800781 1360.800781 876 C 1355.75 876.714844 1350.949219 875.917969 1346.398438 873.601562 C 1343.503906 863.660156 1337.105469 858.058594 1327.199219 856.800781 C 1314.9375 841.746094 1310.136719 824.144531 1312.800781 804 C 1311.972656 799.238281 1313.578125 796.042969 1317.601562 794.398438 Z M 1317.601562 794.398438 "/>
<path style=" stroke:none;fill-rule:evenodd;fill:rgb(41.176471%,41.176471%,41.176471%);fill-opacity:1;" d="M 1245.601562 876 C 1245.949219 883.328125 1242.75 888.128906 1236 890.398438 C 1235.648438 883.070312 1238.851562 878.269531 1245.601562 876 Z M 1245.601562 876 "/>
<path style=" stroke:none;fill-rule:evenodd;fill:rgb(25.882353%,25.882353%,25.882353%);fill-opacity:1;" d="M 1312.800781 804 C 1310.136719 824.144531 1314.9375 841.746094 1327.199219 856.800781 C 1333.28125 879.066406 1347.679688 892.664062 1370.398438 897.601562 C 1391.785156 900.375 1412.582031 897.972656 1432.800781 890.398438 C 1398.886719 910.492188 1365.289062 908.894531 1332 885.601562 C 1328.941406 876.945312 1323.34375 870.546875 1315.199219 866.398438 C 1308.253906 845 1307.453125 824.203125 1312.800781 804 Z M 1312.800781 804 "/>
<path style=" stroke:none;fill-rule:evenodd;fill:rgb(42.745098%,42.352941%,42.352941%);fill-opacity:1;" d="M 1327.199219 856.800781 C 1337.105469 858.058594 1343.503906 863.660156 1346.398438 873.601562 C 1350.949219 875.917969 1355.75 876.714844 1360.800781 876 C 1360.800781 880.800781 1360.800781 885.601562 1360.800781 890.398438 C 1389.96875 893.75 1417.171875 888.949219 1442.398438 876 C 1439.199219 880.800781 1436 885.601562 1432.800781 890.398438 C 1412.582031 897.972656 1391.785156 900.375 1370.398438 897.601562 C 1347.679688 892.664062 1333.28125 879.066406 1327.199219 856.800781 Z M 1327.199219 856.800781 "/>
<path style=" stroke:none;fill-rule:evenodd;fill:rgb(50.588235%,50.588235%,50.588235%);fill-opacity:1;" d="M 804 1005.601562 C 811.328125 1005.25 816.128906 1008.453125 818.398438 1015.199219 C 811.070312 1015.550781 806.269531 1012.347656 804 1005.601562 Z M 804 1005.601562 "/>
<path style=" stroke:none;fill-rule:evenodd;fill:rgb(41.176471%,41.176471%,41.176471%);fill-opacity:1;" d="M 1092 1015.199219 C 1086.550781 1023.421875 1078.550781 1026.625 1068 1024.800781 C 1074.863281 1019.824219 1082.867188 1016.621094 1092 1015.199219 Z M 1092 1015.199219 "/>
<path style=" stroke:none;fill-rule:evenodd;fill:rgb(21.176471%,21.176471%,21.176471%);fill-opacity:1;" d="M 1068 1024.800781 C 1047.234375 1040.75 1023.234375 1047.148438 996 1044 C 1019.992188 1039.769531 1043.992188 1033.371094 1068 1024.800781 Z M 1068 1024.800781 "/>
</g>
</svg>
