<?xml version="1.0" encoding="UTF-8"?>
<svg xmlns="http://www.w3.org/2000/svg" xmlns:xlink="http://www.w3.org/1999/xlink" width="1920pt" height="1440pt" viewBox="0 0 1920 1440" version="1.1">
<g id="surface1">
<path style=" stroke:none;fill-rule:evenodd;fill:rgb(0%,0%,0%);fill-opacity:1;" d="M -2.398438 -2.398438 C 637.597656 -2.398438 1277.601562 -2.398438 1917.601562 -2.398438 C 1917.601562 477.601562 1917.601562 957.601562 1917.601562 1437.601562 C 1277.601562 1437.601562 637.597656 1437.601562 -2.398438 1437.601562 C -2.398438 957.601562 -2.398438 477.601562 -2.398438 -2.398438 Z M -2.398438 -2.398438 "/>
<path style=" stroke:none;fill-rule:evenodd;fill:rgb(17.647059%,17.647059%,17.647059%);fill-opacity:1;" d="M 660 496.800781 C 661.488281 481.378906 659.890625 466.976562 655.199219 453.601562 C 653.324219 423.714844 637.324219 406.917969 607.199219 403.199219 C 591.277344 400.808594 575.28125 400.007812 559.199219 400.800781 C 566.960938 393.734375 576.5625 390.53125 588 391.199219 C 625.707031 388.433594 650.503906 404.433594 662.398438 439.199219 C 666.296875 459.304688 665.496094 478.507812 660 496.800781 Z M 660 496.800781 "/>
<path style=" stroke:none;fill-rule:evenodd;fill:rgb(97.254902%,97.254902%,97.254902%);fill-opacity:1;" d="M 712.800781 516 C 725.964844 507.652344 735.566406 496.449219 741.601562 482.398438 C 849.898438 388.945312 969.898438 372.148438 1101.601562 432 C 1259.886719 525.980469 1310.285156 661.175781 1252.800781 837.601562 C 1185.398438 977.304688 1074.203125 1043.703125 919.199219 1036.800781 C 762.027344 1007.628906 668.429688 914.03125 638.398438 756 C 632.265625 686.488281 645.066406 620.886719 676.800781 559.199219 C 686.601562 542.6875 698.601562 528.289062 712.800781 516 Z M 712.800781 516 "/>
<path style=" stroke:none;fill-rule:evenodd;fill:rgb(41.176471%,41.176471%,41.176471%);fill-opacity:1;" d="M 559.199219 400.800781 C 575.28125 400.007812 591.277344 400.808594 607.199219 403.199219 C 637.324219 406.917969 653.324219 423.714844 655.199219 453.601562 C 646.714844 443.960938 638.71875 433.5625 631.199219 422.398438 C 605.09375 411.019531 577.890625 407.820312 549.601562 412.800781 C 546.929688 414.636719 545.332031 417.035156 544.800781 420 C 536.796875 426.398438 528.800781 432.800781 520.800781 439.199219 C 528.800781 421.601562 541.597656 408.800781 559.199219 400.800781 Z M 559.199219 400.800781 "/>
<path style=" stroke:none;fill-rule:evenodd;fill:rgb(98.431373%,98.431373%,98.431373%);fill-opacity:1;" d="M 645.601562 520.800781 C 645.601562 522.398438 645.601562 524 645.601562 525.601562 C 636.925781 535.566406 625.722656 541.964844 612 544.800781 C 595.921875 545.59375 579.921875 544.789062 564 542.398438 C 555.738281 535.070312 546.140625 530.269531 535.199219 528 C 518.324219 504.503906 511.925781 478.105469 516 448.800781 C 565.566406 417.132812 607.167969 425.132812 640.800781 472.800781 C 645.539062 488.488281 647.136719 504.488281 645.601562 520.800781 Z M 645.601562 520.800781 "/>
<path style=" stroke:none;fill-rule:evenodd;fill:rgb(79.607843%,79.607843%,79.607843%);fill-opacity:1;" d="M 650.398438 516 C 650.398438 519.203125 648.800781 520.800781 645.601562 520.800781 C 647.136719 504.488281 645.539062 488.488281 640.800781 472.800781 C 607.167969 425.132812 565.566406 417.132812 516 448.800781 C 515.175781 444.039062 516.777344 440.839844 520.800781 439.199219 C 528.800781 432.800781 536.796875 426.398438 544.800781 420 C 620.902344 406.492188 656.101562 438.492188 650.398438 516 Z M 650.398438 516 "/>
<path style=" stroke:none;fill-rule:evenodd;fill:rgb(54.509804%,54.509804%,54.509804%);fill-opacity:1;" d="M 655.199219 453.601562 C 659.890625 466.976562 661.488281 481.378906 660 496.800781 C 661.300781 505.824219 658.097656 512.222656 650.398438 516 C 656.101562 438.492188 620.902344 406.492188 544.800781 420 C 545.332031 417.035156 546.929688 414.636719 549.601562 412.800781 C 577.890625 407.820312 605.09375 411.019531 631.199219 422.398438 C 638.71875 433.5625 646.714844 443.960938 655.199219 453.601562 Z M 655.199219 453.601562 "/>
<path style=" stroke:none;fill-rule:evenodd;fill:rgb(25.490196%,25.490196%,25.490196%);fill-opacity:1;" d="M 501.601562 468 C 500.113281 483.421875 501.710938 497.824219 506.398438 511.199219 C 512.605469 550.160156 535.808594 569.363281 576 568.800781 C 591.800781 568.054688 607.003906 564.855469 621.601562 559.199219 C 615.605469 567.054688 607.601562 572.65625 597.601562 576 C 576.800781 579.203125 556 579.203125 535.199219 576 C 518.015625 559.933594 504.417969 541.535156 494.398438 520.800781 C 490.824219 501.847656 493.222656 484.246094 501.601562 468 Z M 501.601562 468 "/>
<path style=" stroke:none;fill-rule:evenodd;fill:rgb(66.666667%,66.666667%,66.666667%);fill-opacity:1;" d="M 741.601562 482.398438 C 735.566406 496.449219 725.964844 507.652344 712.800781 516 C 718.832031 501.949219 728.433594 490.746094 741.601562 482.398438 Z M 741.601562 482.398438 "/>
<path style=" stroke:none;fill-rule:evenodd;fill:rgb(50.980392%,50.980392%,50.980392%);fill-opacity:1;" d="M 1005.601562 501.601562 C 971.980469 495.511719 938.378906 495.511719 904.800781 501.601562 C 938.355469 489.058594 971.957031 489.058594 1005.601562 501.601562 Z M 1005.601562 501.601562 "/>
<path style=" stroke:none;fill-rule:evenodd;fill:rgb(0.392157%,0.392157%,0.392157%);fill-opacity:1;" d="M 1005.601562 501.601562 C 1087.753906 521.375 1142.152344 570.972656 1168.800781 650.398438 C 1172.753906 671.035156 1175.957031 691.839844 1178.398438 712.800781 C 1176.269531 730.382812 1174.664062 747.980469 1173.601562 765.601562 C 1172.980469 773.835938 1171.382812 781.839844 1168.800781 789.601562 C 1158.796875 801.855469 1152.398438 816.253906 1149.601562 832.800781 C 1115.238281 885.234375 1067.238281 918.835938 1005.601562 933.601562 C 987.980469 934.664062 970.382812 936.269531 952.800781 938.398438 C 931.839844 935.957031 911.035156 932.753906 890.398438 928.800781 C 810.972656 902.152344 761.375 847.753906 741.601562 765.601562 C 740.535156 747.980469 738.929688 730.382812 736.800781 712.800781 C 739.242188 691.839844 742.445312 671.035156 746.398438 650.398438 C 772.84375 572.753906 825.644531 523.15625 904.800781 501.601562 C 938.378906 495.511719 971.980469 495.511719 1005.601562 501.601562 Z M 1005.601562 501.601562 "/>
<path style=" stroke:none;fill-rule:evenodd;fill:rgb(77.647059%,77.647059%,77.647059%);fill-opacity:1;" d="M 516 448.800781 C 511.925781 478.105469 518.324219 504.503906 535.199219 528 C 546.140625 530.269531 555.738281 535.070312 564 542.398438 C 579.921875 544.789062 595.921875 545.59375 612 544.800781 C 608.207031 549.125 603.40625 552.328125 597.601562 554.398438 C 531.734375 554.0625 502.933594 520.464844 511.199219 453.601562 C 511.199219 450.398438 512.796875 448.800781 516 448.800781 Z M 516 448.800781 "/>
<path style=" stroke:none;fill-rule:evenodd;fill:rgb(60.392157%,60.392157%,60.392157%);fill-opacity:1;" d="M 511.199219 453.601562 C 502.933594 520.464844 531.734375 554.0625 597.601562 554.398438 C 553.304688 568.46875 522.902344 554.070312 506.398438 511.199219 C 501.710938 497.824219 500.113281 483.421875 501.601562 468 C 501.25 460.671875 504.453125 455.871094 511.199219 453.601562 Z M 511.199219 453.601562 "/>
<path style=" stroke:none;fill-rule:evenodd;fill:rgb(48.627451%,48.627451%,48.627451%);fill-opacity:1;" d="M 506.398438 511.199219 C 522.902344 554.070312 553.304688 568.46875 597.601562 554.398438 C 603.40625 552.328125 608.207031 549.125 612 544.800781 C 625.722656 541.964844 636.925781 535.566406 645.601562 525.601562 C 638.816406 537.753906 630.816406 548.957031 621.601562 559.199219 C 607.003906 564.855469 591.800781 568.054688 576 568.800781 C 535.808594 569.363281 512.605469 550.160156 506.398438 511.199219 Z M 506.398438 511.199219 "/>
<path style=" stroke:none;fill-rule:evenodd;fill:rgb(49.411765%,49.411765%,49.411765%);fill-opacity:1;" d="M 746.398438 650.398438 C 742.445312 671.035156 739.242188 691.839844 736.800781 712.800781 C 738.929688 730.382812 740.535156 747.980469 741.601562 765.601562 C 734.621094 750.152344 731.417969 733.355469 732 715.199219 C 731.265625 691.796875 736.066406 670.195312 746.398438 650.398438 Z M 746.398438 650.398438 "/>
<path style=" stroke:none;fill-rule:evenodd;fill:rgb(49.019608%,49.019608%,49.019608%);fill-opacity:1;" d="M 1168.800781 650.398438 C 1185.816406 688.195312 1187.417969 726.59375 1173.601562 765.601562 C 1174.664062 747.980469 1176.269531 730.382812 1178.398438 712.800781 C 1175.957031 691.839844 1172.753906 671.035156 1168.800781 650.398438 Z M 1168.800781 650.398438 "/>
<path style=" stroke:none;fill-rule:evenodd;fill:rgb(62.352941%,62.352941%,62.352941%);fill-opacity:1;" d="M 1168.800781 789.601562 C 1169.554688 796.191406 1168.753906 802.59375 1166.398438 808.800781 C 1162.070312 818.070312 1156.46875 826.066406 1149.601562 832.800781 C 1152.398438 816.253906 1158.796875 801.855469 1168.800781 789.601562 Z M 1168.800781 789.601562 "/>
<path style=" stroke:none;fill-rule:evenodd;fill:rgb(25.490196%,25.490196%,25.490196%);fill-opacity:1;" d="M 1413.601562 962.398438 C 1417.273438 887.699219 1382.074219 857.300781 1308 871.199219 C 1308.371094 865.199219 1311.570312 861.203125 1317.601562 859.199219 C 1398.847656 849.214844 1430.851562 883.617188 1413.601562 962.398438 Z M 1413.601562 962.398438 "/>
<path style=" stroke:none;fill-rule:evenodd;fill:rgb(69.019608%,69.019608%,69.019608%);fill-opacity:1;" d="M 1408.800781 967.199219 C 1409.625 971.960938 1408.023438 975.160156 1404 976.800781 C 1402.578125 911.394531 1368.980469 880.996094 1303.199219 885.601562 C 1303.734375 882.636719 1305.332031 880.238281 1308 878.398438 C 1334.289062 872.769531 1358.289062 877.570312 1380 892.800781 C 1387 904.609375 1395.796875 915.007812 1406.398438 924 C 1408.789062 938.3125 1409.59375 952.714844 1408.800781 967.199219 Z M 1408.800781 967.199219 "/>
<path style=" stroke:none;fill-rule:evenodd;fill:rgb(85.882353%,85.882353%,85.882353%);fill-opacity:1;" d="M 1303.199219 885.601562 C 1368.980469 880.996094 1402.578125 911.394531 1404 976.800781 C 1403.726562 982.125 1402.128906 986.921875 1399.199219 991.199219 C 1397.601562 991.199219 1396 991.199219 1394.398438 991.199219 C 1401.128906 970.074219 1400.328125 949.273438 1392 928.800781 C 1360.410156 894.917969 1322.8125 886.914062 1279.199219 904.800781 C 1284.40625 894.78125 1292.40625 888.382812 1303.199219 885.601562 Z M 1303.199219 885.601562 "/>
<path style=" stroke:none;fill-rule:evenodd;fill:rgb(97.647059%,97.647059%,97.647059%);fill-opacity:1;" d="M 1394.398438 991.199219 C 1369.296875 1009.808594 1340.496094 1015.40625 1308 1008 C 1294.949219 999.75 1285.347656 988.546875 1279.199219 974.398438 C 1274.648438 972.082031 1269.847656 971.285156 1264.800781 972 C 1264.800781 954.398438 1264.800781 936.800781 1264.800781 919.199219 C 1266.875 913.390625 1270.074219 908.59375 1274.398438 904.800781 C 1276 904.800781 1277.601562 904.800781 1279.199219 904.800781 C 1322.8125 886.914062 1360.410156 894.917969 1392 928.800781 C 1400.328125 949.273438 1401.128906 970.074219 1394.398438 991.199219 Z M 1394.398438 991.199219 "/>
<path style=" stroke:none;fill-rule:evenodd;fill:rgb(48.627451%,48.627451%,48.627451%);fill-opacity:1;" d="M 1413.601562 962.398438 C 1413.601562 965.601562 1412 967.199219 1408.800781 967.199219 C 1409.59375 952.714844 1408.789062 938.3125 1406.398438 924 C 1395.796875 915.007812 1387 904.609375 1380 892.800781 C 1358.289062 877.570312 1334.289062 872.769531 1308 878.398438 C 1305.332031 880.238281 1303.734375 882.636719 1303.199219 885.601562 C 1292.40625 888.382812 1284.40625 894.78125 1279.199219 904.800781 C 1277.601562 904.800781 1276 904.800781 1274.398438 904.800781 C 1280.300781 888.125 1291.496094 876.925781 1308 871.199219 C 1382.074219 857.300781 1417.273438 887.699219 1413.601562 962.398438 Z M 1413.601562 962.398438 "/>
<path style=" stroke:none;fill-rule:evenodd;fill:rgb(50.588235%,50.588235%,50.588235%);fill-opacity:1;" d="M 890.398438 928.800781 C 911.035156 932.753906 931.839844 935.957031 952.800781 938.398438 C 970.382812 936.269531 987.980469 934.664062 1005.601562 933.601562 C 991.074219 940.890625 975.078125 944.089844 957.601562 943.199219 C 933.351562 944.320312 910.953125 939.519531 890.398438 928.800781 Z M 890.398438 928.800781 "/>
<path style=" stroke:none;fill-rule:evenodd;fill:rgb(66.666667%,66.666667%,66.666667%);fill-opacity:1;" d="M 1264.800781 972 C 1269.847656 971.285156 1274.648438 972.082031 1279.199219 974.398438 C 1285.347656 988.546875 1294.949219 999.75 1308 1008 C 1340.496094 1015.40625 1369.296875 1009.808594 1394.398438 991.199219 C 1396 991.199219 1397.601562 991.199219 1399.199219 991.199219 C 1399.550781 998.53125 1396.347656 1003.328125 1389.601562 1005.601562 C 1383.203125 1010.398438 1376.796875 1015.199219 1370.398438 1020 C 1335.046875 1031.488281 1303.847656 1025.089844 1276.800781 1000.800781 C 1269.316406 992.558594 1265.320312 982.957031 1264.800781 972 Z M 1264.800781 972 "/>
<path style=" stroke:none;fill-rule:evenodd;fill:rgb(45.882353%,45.882353%,45.882353%);fill-opacity:1;" d="M 1264.800781 919.199219 C 1264.800781 936.800781 1264.800781 954.398438 1264.800781 972 C 1265.320312 982.957031 1269.316406 992.558594 1276.800781 1000.800781 C 1303.847656 1025.089844 1335.046875 1031.488281 1370.398438 1020 C 1327.886719 1044.46875 1291.886719 1036.46875 1262.398438 996 C 1256.324219 977.304688 1253.921875 958.105469 1255.199219 938.398438 C 1255.96875 930.464844 1259.164062 924.066406 1264.800781 919.199219 Z M 1264.800781 919.199219 "/>
<path style=" stroke:none;fill-rule:evenodd;fill:rgb(23.529412%,23.529412%,23.529412%);fill-opacity:1;" d="M 1255.199219 938.398438 C 1253.921875 958.105469 1256.324219 977.304688 1262.398438 996 C 1291.886719 1036.46875 1327.886719 1044.46875 1370.398438 1020 C 1376.796875 1015.199219 1383.203125 1010.398438 1389.601562 1005.601562 C 1383.917969 1021.675781 1372.71875 1032.070312 1356 1036.800781 C 1325.175781 1042.597656 1296.375 1037.796875 1269.601562 1022.398438 C 1260.0625 1016.070312 1254.460938 1007.269531 1252.800781 996 C 1248.902344 975.894531 1249.703125 956.691406 1255.199219 938.398438 Z M 1255.199219 938.398438 "/>
</g>
</svg>
