<?xml version="1.0" encoding="UTF-8"?>
<svg xmlns="http://www.w3.org/2000/svg" xmlns:xlink="http://www.w3.org/1999/xlink" width="1920pt" height="1440pt" viewBox="0 0 1920 1440" version="1.1">
<g id="surface1">
<path style=" stroke:none;fill-rule:evenodd;fill:rgb(0%,0%,0%);fill-opacity:1;" d="M -2.398438 -2.398438 C 637.597656 -2.398438 1277.601562 -2.398438 1917.601562 -2.398438 C 1917.601562 477.601562 1917.601562 957.601562 1917.601562 1437.601562 C 1277.601562 1437.601562 637.597656 1437.601562 -2.398438 1437.601562 C -2.398438 957.601562 -2.398438 477.601562 -2.398438 -2.398438 Z M -2.398438 -2.398438 "/>
<path style=" stroke:none;fill-rule:evenodd;fill:rgb(98.039216%,98.039216%,98.039216%);fill-opacity:1;" d="M 1010.398438 391.199219 C 1023.453125 397.980469 1037.851562 401.183594 1053.601562 400.800781 C 1160.371094 435.761719 1232.371094 506.160156 1269.601562 612 C 1270.671875 629.578125 1275.46875 645.574219 1284 660 C 1290.398438 696.800781 1290.398438 733.597656 1284 770.398438 C 1277.21875 783.453125 1274.015625 797.851562 1274.398438 813.601562 C 1207.300781 983.1875 1082.5 1059.988281 900 1044 C 885.574219 1035.46875 869.578125 1030.671875 852 1029.601562 C 746.160156 992.371094 675.757812 920.371094 640.800781 813.601562 C 641.183594 797.851562 637.980469 783.453125 631.199219 770.398438 C 625.167969 733.695312 625.167969 696.898438 631.199219 660 C 639.730469 645.574219 644.53125 629.578125 645.601562 612 C 676.550781 518.65625 737.347656 453.054688 828 415.199219 C 853.699219 411.089844 877.699219 403.089844 900 391.199219 C 936.800781 384.800781 973.597656 384.800781 1010.398438 391.199219 Z M 1010.398438 391.199219 "/>
<path style=" stroke:none;fill-rule:evenodd;fill:rgb(38.823529%,38.823529%,38.823529%);fill-opacity:1;" d="M 1010.398438 391.199219 C 1026.148438 390.816406 1040.546875 394.019531 1053.601562 400.800781 C 1037.851562 401.183594 1023.453125 397.980469 1010.398438 391.199219 Z M 1010.398438 391.199219 "/>
<path style=" stroke:none;fill-rule:evenodd;fill:rgb(72.941176%,72.941176%,72.941176%);fill-opacity:1;" d="M 900 391.199219 C 877.699219 403.089844 853.699219 411.089844 828 415.199219 C 850.007812 402.53125 874.007812 394.53125 900 391.199219 Z M 900 391.199219 "/>
<path style=" stroke:none;fill-rule:evenodd;fill:rgb(0.784314%,0.784314%,0.784314%);fill-opacity:1;" d="M 981.601562 511.199219 C 993.144531 517.285156 1005.945312 520.488281 1020 520.800781 C 1120.089844 560.144531 1168.089844 633.742188 1164 741.601562 C 1157.914062 753.144531 1154.710938 765.945312 1154.398438 780 C 1105.285156 890.972656 1020.484375 936.570312 900 916.800781 C 832.175781 892.976562 785.773438 847.378906 760.800781 780 C 760.488281 765.945312 757.285156 753.144531 751.199219 741.601562 C 747.550781 699.039062 755.554688 659.039062 775.199219 621.601562 C 781.949219 619.328125 785.152344 614.53125 784.800781 607.199219 C 811.632812 562.585938 850.03125 532.988281 900 518.398438 C 926.886719 512.558594 954.085938 510.160156 981.601562 511.199219 Z M 981.601562 511.199219 "/>
<path style=" stroke:none;fill-rule:evenodd;fill:rgb(64.705882%,65.098039%,64.705882%);fill-opacity:1;" d="M 981.601562 511.199219 C 995.976562 510.210938 1008.777344 513.40625 1020 520.800781 C 1005.945312 520.488281 993.144531 517.285156 981.601562 511.199219 Z M 981.601562 511.199219 "/>
<path style=" stroke:none;fill-rule:evenodd;fill:rgb(40%,40%,40%);fill-opacity:1;" d="M 784.800781 607.199219 C 785.152344 614.53125 781.949219 619.328125 775.199219 621.601562 C 774.847656 614.269531 778.050781 609.46875 784.800781 607.199219 Z M 784.800781 607.199219 "/>
<path style=" stroke:none;fill-rule:evenodd;fill:rgb(27.45098%,27.45098%,27.45098%);fill-opacity:1;" d="M 588 732 C 594.539062 697.230469 584.9375 668.429688 559.199219 645.601562 C 554.625 635.472656 546.628906 629.871094 535.199219 628.800781 C 517.671875 626.40625 500.074219 625.609375 482.398438 626.398438 C 532.191406 608.449219 568.191406 624.453125 590.398438 674.398438 C 594.296875 694.507812 593.496094 713.707031 588 732 Z M 588 732 "/>
<path style=" stroke:none;fill-rule:evenodd;fill:rgb(41.960784%,41.960784%,41.960784%);fill-opacity:1;" d="M 482.398438 626.398438 C 500.074219 625.609375 517.671875 626.40625 535.199219 628.800781 C 546.628906 629.871094 554.625 635.472656 559.199219 645.601562 C 505.167969 623.0625 465.167969 637.464844 439.199219 688.800781 C 440.609375 658.714844 455.011719 637.914062 482.398438 626.398438 Z M 482.398438 626.398438 "/>
<path style=" stroke:none;fill-rule:evenodd;fill:rgb(21.960784%,21.960784%,21.960784%);fill-opacity:1;" d="M 1456.800781 660 C 1425.222656 638.539062 1391.621094 635.335938 1356 650.398438 C 1365.964844 635.03125 1380.363281 628.632812 1399.199219 631.199219 C 1423.769531 630.6875 1442.972656 640.285156 1456.800781 660 Z M 1456.800781 660 "/>
<path style=" stroke:none;fill-rule:evenodd;fill:rgb(58.039216%,58.039216%,58.039216%);fill-opacity:1;" d="M 645.601562 612 C 644.53125 629.578125 639.730469 645.574219 631.199219 660 C 632.269531 642.421875 637.070312 626.425781 645.601562 612 Z M 645.601562 612 "/>
<path style=" stroke:none;fill-rule:evenodd;fill:rgb(58.039216%,58.039216%,58.039216%);fill-opacity:1;" d="M 1269.601562 612 C 1278.128906 626.425781 1282.929688 642.421875 1284 660 C 1275.46875 645.574219 1270.671875 629.578125 1269.601562 612 Z M 1269.601562 612 "/>
<path style=" stroke:none;fill-rule:evenodd;fill:rgb(73.72549%,73.72549%,73.72549%);fill-opacity:1;" d="M 559.199219 645.601562 C 584.9375 668.429688 594.539062 697.230469 588 732 C 584.796875 733.597656 581.601562 735.203125 578.398438 736.800781 C 583.972656 666.636719 551.976562 640.238281 482.398438 657.601562 C 463.757812 671.371094 450.960938 688.96875 444 710.398438 C 446.769531 720.65625 448.367188 731.058594 448.800781 741.601562 C 445.601562 740 442.398438 738.398438 439.199219 736.800781 C 439.199219 720.800781 439.199219 704.796875 439.199219 688.800781 C 465.167969 637.464844 505.167969 623.0625 559.199219 645.601562 Z M 559.199219 645.601562 "/>
<path style=" stroke:none;fill-rule:evenodd;fill:rgb(49.019608%,49.019608%,49.019608%);fill-opacity:1;" d="M 1456.800781 660 C 1468.679688 665.699219 1473.480469 675.296875 1471.199219 688.800781 C 1438.300781 653.574219 1399.902344 646.371094 1356 667.199219 C 1345.007812 675.730469 1337.007812 686.132812 1332 698.398438 C 1332 701.601562 1330.402344 703.199219 1327.199219 703.199219 C 1326.082031 679.066406 1335.679688 661.464844 1356 650.398438 C 1391.621094 635.335938 1425.222656 638.539062 1456.800781 660 Z M 1456.800781 660 "/>
<path style=" stroke:none;fill-rule:evenodd;fill:rgb(99.215686%,99.215686%,99.215686%);fill-opacity:1;" d="M 578.398438 736.800781 C 578.398438 738.398438 578.398438 740 578.398438 741.601562 C 566.726562 747.601562 555.523438 754.800781 544.800781 763.199219 C 527.199219 766.402344 509.601562 766.402344 492 763.199219 C 479.566406 756.265625 466.765625 750.664062 453.601562 746.398438 C 450.398438 746.398438 448.800781 744.800781 448.800781 741.601562 C 448.367188 731.058594 446.769531 720.65625 444 710.398438 C 450.960938 688.96875 463.757812 671.371094 482.398438 657.601562 C 551.976562 640.238281 583.972656 666.636719 578.398438 736.800781 Z M 578.398438 736.800781 "/>
<path style=" stroke:none;fill-rule:evenodd;fill:rgb(98.431373%,98.431373%,98.431373%);fill-opacity:1;" d="M 1341.601562 760.800781 C 1335.707031 756.929688 1330.90625 752.132812 1327.199219 746.398438 C 1327.199219 732 1327.199219 717.601562 1327.199219 703.199219 C 1330.402344 703.199219 1332 701.601562 1332 698.398438 C 1366.929688 661.027344 1406.929688 655.425781 1452 681.601562 C 1479.007812 713.53125 1477.40625 743.933594 1447.199219 772.800781 C 1408.832031 790.800781 1373.636719 786.800781 1341.601562 760.800781 Z M 1341.601562 760.800781 "/>
<path style=" stroke:none;fill-rule:evenodd;fill:rgb(79.607843%,79.607843%,79.607843%);fill-opacity:1;" d="M 578.398438 741.601562 C 553.742188 777.019531 520.140625 788.21875 477.601562 775.199219 C 466.160156 768.550781 458.160156 758.953125 453.601562 746.398438 C 466.765625 750.664062 479.566406 756.265625 492 763.199219 C 509.601562 766.402344 527.199219 766.402344 544.800781 763.199219 C 555.523438 754.800781 566.726562 747.601562 578.398438 741.601562 Z M 578.398438 741.601562 "/>
<path style=" stroke:none;fill-rule:evenodd;fill:rgb(23.137255%,23.137255%,23.137255%);fill-opacity:1;" d="M 458.398438 775.199219 C 486.046875 794.292969 516.445312 799.09375 549.601562 789.601562 C 525.265625 807.824219 499.664062 808.628906 472.800781 792 C 466.992188 787.011719 462.191406 781.410156 458.398438 775.199219 Z M 458.398438 775.199219 "/>
<path style=" stroke:none;fill-rule:evenodd;fill:rgb(64.705882%,64.705882%,64.705882%);fill-opacity:1;" d="M 751.199219 741.601562 C 757.285156 753.144531 760.488281 765.945312 760.800781 780 C 753.40625 768.777344 750.210938 755.976562 751.199219 741.601562 Z M 751.199219 741.601562 "/>
<path style=" stroke:none;fill-rule:evenodd;fill:rgb(65.098039%,65.098039%,65.098039%);fill-opacity:1;" d="M 1164 741.601562 C 1164.988281 755.976562 1161.792969 768.777344 1154.398438 780 C 1154.710938 765.945312 1157.914062 753.144531 1164 741.601562 Z M 1164 741.601562 "/>
<path style=" stroke:none;fill-rule:evenodd;fill:rgb(57.647059%,57.647059%,57.647059%);fill-opacity:1;" d="M 588 732 C 584.796875 741.601562 581.601562 751.199219 578.398438 760.800781 C 568.492188 762.058594 562.09375 767.660156 559.199219 777.601562 C 539.332031 787.523438 518.53125 790.722656 496.800781 787.199219 C 488.0625 786.238281 481.664062 782.238281 477.601562 775.199219 C 520.140625 788.21875 553.742188 777.019531 578.398438 741.601562 C 578.398438 740 578.398438 738.398438 578.398438 736.800781 C 581.601562 735.203125 584.796875 733.597656 588 732 Z M 588 732 "/>
<path style=" stroke:none;fill-rule:evenodd;fill:rgb(38.823529%,38.823529%,38.823529%);fill-opacity:1;" d="M 631.199219 770.398438 C 637.980469 783.453125 641.183594 797.851562 640.800781 813.601562 C 634.019531 800.546875 630.816406 786.148438 631.199219 770.398438 Z M 631.199219 770.398438 "/>
<path style=" stroke:none;fill-rule:evenodd;fill:rgb(38.823529%,38.823529%,38.823529%);fill-opacity:1;" d="M 1284 770.398438 C 1284.382812 786.148438 1281.183594 800.546875 1274.398438 813.601562 C 1274.015625 797.851562 1277.21875 783.453125 1284 770.398438 Z M 1284 770.398438 "/>
<path style=" stroke:none;fill-rule:evenodd;fill:rgb(40%,40%,40%);fill-opacity:1;" d="M 439.199219 736.800781 C 442.398438 738.398438 445.601562 740 448.800781 741.601562 C 448.800781 744.800781 450.398438 746.398438 453.601562 746.398438 C 458.160156 758.953125 466.160156 768.550781 477.601562 775.199219 C 481.664062 782.238281 488.0625 786.238281 496.800781 787.199219 C 518.53125 790.722656 539.332031 787.523438 559.199219 777.601562 C 562.09375 767.660156 568.492188 762.058594 578.398438 760.800781 C 573.335938 775.464844 563.734375 785.0625 549.601562 789.601562 C 516.445312 799.09375 486.046875 794.292969 458.398438 775.199219 C 447.5 765.0625 441.101562 752.261719 439.199219 736.800781 Z M 439.199219 736.800781 "/>
<path style=" stroke:none;fill-rule:evenodd;fill:rgb(71.764706%,71.764706%,71.764706%);fill-opacity:1;" d="M 1471.199219 688.800781 C 1474.386719 700.695312 1475.984375 713.496094 1476 727.199219 C 1475.121094 744.078125 1471.921875 760.074219 1466.398438 775.199219 C 1456.246094 786.675781 1443.453125 793.074219 1428 794.398438 C 1405.117188 795.882812 1382.71875 793.484375 1360.800781 787.199219 C 1349.667969 781.695312 1343.269531 772.890625 1341.601562 760.800781 C 1373.636719 786.800781 1408.832031 790.800781 1447.199219 772.800781 C 1477.40625 743.933594 1479.007812 713.53125 1452 681.601562 C 1406.929688 655.425781 1366.929688 661.027344 1332 698.398438 C 1337.007812 686.132812 1345.007812 675.730469 1356 667.199219 C 1399.902344 646.371094 1438.300781 653.574219 1471.199219 688.800781 Z M 1471.199219 688.800781 "/>
<path style=" stroke:none;fill-rule:evenodd;fill:rgb(29.411765%,29.411765%,29.411765%);fill-opacity:1;" d="M 1466.398438 775.199219 C 1454.320312 801.277344 1433.519531 814.078125 1404 813.601562 C 1387.765625 812.753906 1371.769531 810.355469 1356 806.398438 C 1346.574219 799.433594 1340.175781 790.636719 1336.800781 780 C 1364.628906 804.757812 1395.027344 809.558594 1428 794.398438 C 1443.453125 793.074219 1456.246094 786.675781 1466.398438 775.199219 Z M 1466.398438 775.199219 "/>
<path style=" stroke:none;fill-rule:evenodd;fill:rgb(51.764706%,51.764706%,51.764706%);fill-opacity:1;" d="M 1327.199219 746.398438 C 1330.90625 752.132812 1335.707031 756.929688 1341.601562 760.800781 C 1343.269531 772.890625 1349.667969 781.695312 1360.800781 787.199219 C 1382.71875 793.484375 1405.117188 795.882812 1428 794.398438 C 1395.027344 809.558594 1364.628906 804.757812 1336.800781 780 C 1329.921875 770.121094 1326.71875 758.917969 1327.199219 746.398438 Z M 1327.199219 746.398438 "/>
<path style=" stroke:none;fill-rule:evenodd;fill:rgb(58.039216%,58.039216%,58.039216%);fill-opacity:1;" d="M 852 1029.601562 C 869.578125 1030.671875 885.574219 1035.46875 900 1044 C 882.421875 1042.929688 866.425781 1038.128906 852 1029.601562 Z M 852 1029.601562 "/>
</g>
</svg>
