<?xml version="1.0" encoding="UTF-8"?>
<svg xmlns="http://www.w3.org/2000/svg" xmlns:xlink="http://www.w3.org/1999/xlink" width="1921pt" height="1441pt" viewBox="0 0 1921 1441" version="1.1">
<g id="surface1">
<path style=" stroke:none;fill-rule:nonzero;fill:rgb(0%,0%,0%);fill-opacity:1;" d="M 0 720.5 L 0 1441 L 1921 1441 L 1921 0 L 0 0 Z M 1323.089844 351.125 C 1331.253906 355.925781 1342.777344 368.414062 1348.542969 378.503906 C 1377.355469 429.898438 1342.296875 489.941406 1283.707031 489.941406 C 1228.480469 489.941406 1192.460938 438.0625 1212.152344 386.667969 C 1229.441406 341.996094 1281.308594 325.1875 1323.089844 351.125 Z M 1039.742188 391.953125 C 1190.539062 428.457031 1298.117188 565.351562 1298.117188 720.5 C 1298.117188 905.429688 1147.796875 1056.734375 962.902344 1058.175781 C 775.125 1059.136719 623.363281 908.308594 623.363281 720.5 C 623.363281 501.46875 826.992188 340.554688 1039.742188 391.953125 Z M 687.238281 967.871094 C 715.574219 994.769531 722.296875 1025.03125 706.449219 1059.617188 C 681.476562 1114.375 602.714844 1115.8125 572.457031 1062.496094 C 553.246094 1027.433594 563.8125 982.761719 596.46875 961.148438 C 609.4375 952.5 617.601562 951.058594 642.09375 952.5 C 667.546875 953.460938 674.269531 955.863281 687.238281 967.871094 Z M 687.238281 967.871094 "/>
<path style=" stroke:none;fill-rule:nonzero;fill:rgb(0%,0%,0%);fill-opacity:1;" d="M 904.3125 499.546875 C 859.648438 511.074219 830.351562 528.367188 797.214844 561.988281 C 764.558594 595.132812 746.308594 630.199219 735.742188 681.113281 C 728.058594 718.097656 728.058594 722.902344 735.742188 759.886719 C 746.789062 811.761719 765.039062 846.347656 799.617188 881.410156 C 834.675781 915.996094 869.253906 934.25 921.121094 945.296875 C 958.097656 952.980469 962.902344 952.980469 999.878906 945.296875 C 1051.746094 934.25 1086.324219 915.996094 1121.382812 881.410156 C 1155.960938 846.347656 1174.210938 811.761719 1185.257812 759.886719 C 1192.941406 722.902344 1192.941406 718.097656 1185.257812 681.113281 C 1174.691406 630.199219 1156.441406 595.132812 1123.785156 561.988281 C 1090.167969 527.886719 1061.351562 511.074219 1014.769531 499.546875 C 969.625 488.019531 948.972656 488.019531 904.3125 499.546875 Z M 904.3125 499.546875 "/>
</g>
</svg>
