<?xml version="1.0" encoding="UTF-8"?>
<svg xmlns="http://www.w3.org/2000/svg" xmlns:xlink="http://www.w3.org/1999/xlink" width="1920pt" height="1440pt" viewBox="0 0 1920 1440" version="1.1">
<g id="surface1">
<path style=" stroke:none;fill-rule:evenodd;fill:rgb(0%,0%,0%);fill-opacity:1;" d="M -2.398438 -2.398438 C 637.597656 -2.398438 1277.601562 -2.398438 1917.601562 -2.398438 C 1917.601562 477.601562 1917.601562 957.601562 1917.601562 1437.601562 C 1277.601562 1437.601562 637.597656 1437.601562 -2.398438 1437.601562 C -2.398438 957.601562 -2.398438 477.601562 -2.398438 -2.398438 Z M -2.398438 -2.398438 "/>
<path style=" stroke:none;fill-rule:evenodd;fill:rgb(79.215686%,79.215686%,79.215686%);fill-opacity:1;" d="M 880.800781 208.800781 C 896.796875 202.398438 912.800781 202.398438 928.800781 208.800781 C 934.53125 212.503906 939.332031 217.304688 943.199219 223.199219 C 933.96875 221.785156 925.96875 217.785156 919.199219 211.199219 C 906.5 208.8125 893.699219 208.011719 880.800781 208.800781 Z M 880.800781 208.800781 "/>
<path style=" stroke:none;fill-rule:evenodd;fill:rgb(98.039216%,98.039216%,98.039216%);fill-opacity:1;" d="M 871.199219 208.800781 C 874.402344 208.800781 877.597656 208.800781 880.800781 208.800781 C 893.699219 208.011719 906.5 208.8125 919.199219 211.199219 C 925.96875 217.785156 933.96875 221.785156 943.199219 223.199219 C 944.796875 223.199219 946.402344 223.199219 948 223.199219 C 960 238.359375 966.398438 255.960938 967.199219 276 C 964.902344 294.519531 960.101562 312.117188 952.800781 328.800781 C 949.597656 328.800781 948 330.398438 948 333.601562 C 909.960938 355.855469 877.160156 349.453125 849.601562 314.398438 C 834.238281 273.738281 841.441406 238.539062 871.199219 208.800781 Z M 871.199219 208.800781 "/>
<path style=" stroke:none;fill-rule:evenodd;fill:rgb(33.333333%,33.333333%,33.333333%);fill-opacity:1;" d="M 952.800781 343.199219 C 989.414062 303.605469 991.011719 262.003906 957.601562 218.398438 C 948.941406 212.3125 939.339844 209.113281 928.800781 208.800781 C 912.800781 202.398438 896.796875 202.398438 880.800781 208.800781 C 877.597656 208.800781 874.402344 208.800781 871.199219 208.800781 C 868 208.800781 864.800781 208.800781 861.601562 208.800781 C 892.890625 196.417969 924.894531 196.417969 957.601562 208.800781 C 965.710938 220.914062 976.113281 230.515625 988.800781 237.601562 C 1003.871094 282.371094 991.871094 317.570312 952.800781 343.199219 Z M 952.800781 343.199219 "/>
<path style=" stroke:none;fill-rule:evenodd;fill:rgb(27.843137%,27.843137%,27.843137%);fill-opacity:1;" d="M 861.601562 208.800781 C 854.515625 218.398438 845.71875 226.398438 835.199219 232.800781 C 832.882812 237.351562 832.085938 242.152344 832.800781 247.199219 C 829.839844 247.730469 827.4375 249.332031 825.601562 252 C 823.203125 271.132812 822.402344 290.332031 823.199219 309.601562 C 820.238281 309.070312 817.839844 307.46875 816 304.800781 C 804.152344 258.679688 819.355469 226.679688 861.601562 208.800781 Z M 861.601562 208.800781 "/>
<path style=" stroke:none;fill-rule:evenodd;fill:rgb(44.313725%,44.313725%,43.921569%);fill-opacity:1;" d="M 832.800781 247.199219 C 831.390625 280.320312 836.1875 312.320312 847.199219 343.199219 C 833.734375 336.101562 825.734375 324.902344 823.199219 309.601562 C 822.402344 290.332031 823.203125 271.132812 825.601562 252 C 827.4375 249.332031 829.839844 247.730469 832.800781 247.199219 Z M 832.800781 247.199219 "/>
<path style=" stroke:none;fill-rule:evenodd;fill:rgb(73.333333%,73.333333%,73.333333%);fill-opacity:1;" d="M 948 223.199219 C 967.089844 237.140625 975.085938 256.34375 972 280.800781 C 975.488281 301.332031 969.085938 317.332031 952.800781 328.800781 C 960.101562 312.117188 964.902344 294.519531 967.199219 276 C 966.398438 255.960938 960 238.359375 948 223.199219 Z M 948 223.199219 "/>
<path style=" stroke:none;fill-rule:evenodd;fill:rgb(52.941176%,52.941176%,52.54902%);fill-opacity:1;" d="M 928.800781 208.800781 C 939.339844 209.113281 948.941406 212.3125 957.601562 218.398438 C 991.011719 262.003906 989.414062 303.605469 952.800781 343.199219 C 947.671875 347.6875 941.273438 349.285156 933.601562 348 C 939.332031 344.292969 944.132812 339.496094 948 333.601562 C 948 330.398438 949.597656 328.800781 952.800781 328.800781 C 969.085938 317.332031 975.488281 301.332031 972 280.800781 C 975.085938 256.34375 967.089844 237.140625 948 223.199219 C 946.402344 223.199219 944.796875 223.199219 943.199219 223.199219 C 939.332031 217.304688 934.53125 212.503906 928.800781 208.800781 Z M 928.800781 208.800781 "/>
<path style=" stroke:none;fill-rule:evenodd;fill:rgb(63.137255%,63.137255%,63.137255%);fill-opacity:1;" d="M 861.601562 208.800781 C 864.800781 208.800781 868 208.800781 871.199219 208.800781 C 841.441406 238.539062 834.238281 273.738281 849.601562 314.398438 C 877.160156 349.453125 909.960938 355.855469 948 333.601562 C 944.132812 339.496094 939.332031 344.292969 933.601562 348 C 904.953125 354.792969 876.152344 353.195312 847.199219 343.199219 C 836.1875 312.320312 831.390625 280.320312 832.800781 247.199219 C 832.085938 242.152344 832.882812 237.351562 835.199219 232.800781 C 845.71875 226.398438 854.515625 218.398438 861.601562 208.800781 Z M 861.601562 208.800781 "/>
<path style=" stroke:none;fill-rule:evenodd;fill:rgb(54.117647%,54.117647%,54.117647%);fill-opacity:1;" d="M 991.199219 391.199219 C 957.550781 392.003906 923.953125 393.605469 890.398438 396 C 909.957031 389.019531 930.753906 385.820312 952.800781 386.398438 C 966.503906 386.410156 979.304688 388.011719 991.199219 391.199219 Z M 991.199219 391.199219 "/>
<path style=" stroke:none;fill-rule:evenodd;fill:rgb(98.039216%,98.039216%,98.039216%);fill-opacity:1;" d="M 991.199219 391.199219 C 1018.964844 395.34375 1046.164062 401.742188 1072.800781 410.398438 C 1079.664062 415.378906 1087.664062 418.578125 1096.800781 420 C 1167.203125 455.199219 1220 508 1255.199219 578.398438 C 1253.597656 592.757812 1258.398438 603.957031 1269.601562 612 C 1269.167969 624.730469 1272.363281 635.929688 1279.199219 645.601562 C 1279.199219 647.199219 1279.199219 648.800781 1279.199219 650.398438 C 1281.859375 682.335938 1283.460938 714.335938 1284 746.398438 C 1281.777344 760.714844 1280.179688 775.113281 1279.199219 789.601562 C 1273.257812 797.828125 1270.054688 807.425781 1269.601562 818.398438 C 1239.382812 907.828125 1181.785156 973.429688 1096.800781 1015.199219 C 1087.664062 1016.621094 1079.664062 1019.824219 1072.800781 1024.800781 C 1050.960938 1029.421875 1030.160156 1035.824219 1010.398438 1044 C 1005.601562 1044 1000.800781 1044 996 1044 C 960.726562 1043.765625 925.523438 1042.167969 890.398438 1039.199219 C 888.800781 1039.199219 887.199219 1039.199219 885.601562 1039.199219 C 875.929688 1032.363281 864.730469 1029.167969 852 1029.601562 C 761.671875 995.269531 696.078125 934.46875 655.199219 847.199219 C 657.023438 836.648438 653.824219 828.648438 645.601562 823.199219 C 645.601562 821.601562 645.601562 820 645.601562 818.398438 C 645.144531 807.425781 641.941406 797.828125 636 789.601562 C 636.25 778.066406 634.652344 766.867188 631.199219 756 C 631.308594 719.121094 632.914062 682.320312 636 645.601562 C 642.835938 635.929688 646.03125 624.730469 645.601562 612 C 656.804688 603.957031 661.601562 592.757812 660 578.398438 C 700.070312 494.34375 764.070312 436.742188 852 405.601562 C 864.730469 406.035156 875.929688 402.835938 885.601562 396 C 887.199219 396 888.800781 396 890.398438 396 C 923.953125 393.605469 957.550781 392.003906 991.199219 391.199219 Z M 991.199219 391.199219 "/>
<path style=" stroke:none;fill-rule:evenodd;fill:rgb(51.764706%,51.764706%,51.764706%);fill-opacity:1;" d="M 885.601562 396 C 875.929688 402.835938 864.730469 406.035156 852 405.601562 C 861.671875 398.765625 872.871094 395.566406 885.601562 396 Z M 885.601562 396 "/>
<path style=" stroke:none;fill-rule:evenodd;fill:rgb(34.117647%,34.117647%,34.117647%);fill-opacity:1;" d="M 1072.800781 410.398438 C 1083.351562 408.578125 1091.351562 411.777344 1096.800781 420 C 1087.664062 418.578125 1079.664062 415.378906 1072.800781 410.398438 Z M 1072.800781 410.398438 "/>
<path style=" stroke:none;fill-rule:evenodd;fill:rgb(0.784314%,0.784314%,0.784314%);fill-opacity:1;" d="M 981.601562 492 C 1056.605469 502.691406 1115 539.492188 1156.800781 602.398438 C 1166.566406 617.09375 1172.164062 633.097656 1173.601562 650.398438 C 1173.167969 663.128906 1176.363281 674.328125 1183.199219 684 C 1189.914062 792.234375 1146.714844 872.238281 1053.601562 924 C 1034.902344 928.617188 1017.308594 935.019531 1000.800781 943.199219 C 994.402344 943.199219 988 943.199219 981.601562 943.199219 C 950.707031 944.03125 920.308594 940.828125 890.398438 933.601562 C 805.988281 908.371094 754.789062 852.375 736.800781 765.601562 C 729.707031 726.820312 731.308594 688.421875 741.601562 650.398438 C 764 573.601562 813.601562 524 890.398438 501.601562 C 920.308594 494.371094 950.707031 491.167969 981.601562 492 Z M 981.601562 492 "/>
<path style=" stroke:none;fill-rule:evenodd;fill:rgb(31.764706%,31.764706%,31.764706%);fill-opacity:1;" d="M 981.601562 492 C 950.707031 491.167969 920.308594 494.371094 890.398438 501.601562 C 919.820312 487.550781 950.21875 484.355469 981.601562 492 Z M 981.601562 492 "/>
<path style=" stroke:none;fill-rule:evenodd;fill:rgb(65.882353%,65.882353%,65.882353%);fill-opacity:1;" d="M 660 578.398438 C 661.601562 592.757812 656.804688 603.957031 645.601562 612 C 647.6875 599.246094 652.488281 588.042969 660 578.398438 Z M 660 578.398438 "/>
<path style=" stroke:none;fill-rule:evenodd;fill:rgb(66.27451%,66.27451%,66.27451%);fill-opacity:1;" d="M 1255.199219 578.398438 C 1262.710938 588.042969 1267.511719 599.246094 1269.601562 612 C 1258.398438 603.957031 1253.597656 592.757812 1255.199219 578.398438 Z M 1255.199219 578.398438 "/>
<path style=" stroke:none;fill-rule:evenodd;fill:rgb(48.235294%,48.235294%,48.235294%);fill-opacity:1;" d="M 645.601562 612 C 646.03125 624.730469 642.835938 635.929688 636 645.601562 C 635.566406 632.871094 638.765625 621.671875 645.601562 612 Z M 645.601562 612 "/>
<path style=" stroke:none;fill-rule:evenodd;fill:rgb(48.627451%,48.627451%,48.627451%);fill-opacity:1;" d="M 1269.601562 612 C 1276.433594 621.671875 1279.632812 632.871094 1279.199219 645.601562 C 1272.363281 635.929688 1269.167969 624.730469 1269.601562 612 Z M 1269.601562 612 "/>
<path style=" stroke:none;fill-rule:evenodd;fill:rgb(28.235294%,28.235294%,28.235294%);fill-opacity:1;" d="M 1173.601562 650.398438 C 1180.433594 660.070312 1183.632812 671.269531 1183.199219 684 C 1176.363281 674.328125 1173.167969 663.128906 1173.601562 650.398438 Z M 1173.601562 650.398438 "/>
<path style=" stroke:none;fill-rule:evenodd;fill:rgb(43.529412%,43.529412%,43.529412%);fill-opacity:1;" d="M 1279.199219 650.398438 C 1286.113281 669.148438 1289.308594 689.152344 1288.800781 710.398438 C 1288.785156 723.3125 1287.1875 735.3125 1284 746.398438 C 1283.460938 714.335938 1281.859375 682.335938 1279.199219 650.398438 Z M 1279.199219 650.398438 "/>
<path style=" stroke:none;fill-rule:evenodd;fill:rgb(41.176471%,41.176471%,41.176471%);fill-opacity:1;" d="M 636 645.601562 C 632.914062 682.320312 631.308594 719.121094 631.199219 756 C 624.613281 718.929688 626.210938 682.132812 636 645.601562 Z M 636 645.601562 "/>
<path style=" stroke:none;fill-rule:evenodd;fill:rgb(39.607843%,39.607843%,39.607843%);fill-opacity:1;" d="M 741.601562 650.398438 C 731.308594 688.421875 729.707031 726.820312 736.800781 765.601562 C 729.820312 750.152344 726.621094 733.355469 727.199219 715.199219 C 726.464844 691.796875 731.265625 670.195312 741.601562 650.398438 Z M 741.601562 650.398438 "/>
<path style=" stroke:none;fill-rule:evenodd;fill:rgb(39.215686%,39.215686%,39.215686%);fill-opacity:1;" d="M 636 789.601562 C 641.941406 797.828125 645.144531 807.425781 645.601562 818.398438 C 638.042969 810.710938 634.84375 801.109375 636 789.601562 Z M 636 789.601562 "/>
<path style=" stroke:none;fill-rule:evenodd;fill:rgb(39.215686%,39.215686%,39.215686%);fill-opacity:1;" d="M 1279.199219 789.601562 C 1280.355469 801.109375 1277.15625 810.710938 1269.601562 818.398438 C 1270.054688 807.425781 1273.257812 797.828125 1279.199219 789.601562 Z M 1279.199219 789.601562 "/>
<path style=" stroke:none;fill-rule:evenodd;fill:rgb(55.294118%,55.294118%,55.294118%);fill-opacity:1;" d="M 645.601562 823.199219 C 653.824219 828.648438 657.023438 836.648438 655.199219 847.199219 C 650.222656 840.335938 647.019531 832.335938 645.601562 823.199219 Z M 645.601562 823.199219 "/>
<path style=" stroke:none;fill-rule:evenodd;fill:rgb(61.960784%,61.960784%,61.960784%);fill-opacity:1;" d="M 1053.601562 924 C 1038.59375 935.953125 1021 942.351562 1000.800781 943.199219 C 1017.308594 935.019531 1034.902344 928.617188 1053.601562 924 Z M 1053.601562 924 "/>
<path style=" stroke:none;fill-rule:evenodd;fill:rgb(41.176471%,41.176471%,41.176471%);fill-opacity:1;" d="M 890.398438 933.601562 C 920.308594 940.828125 950.707031 944.03125 981.601562 943.199219 C 950.21875 950.847656 919.820312 947.648438 890.398438 933.601562 Z M 890.398438 933.601562 "/>
<path style=" stroke:none;fill-rule:evenodd;fill:rgb(34.509804%,34.509804%,34.509804%);fill-opacity:1;" d="M 1096.800781 1015.199219 C 1091.351562 1023.421875 1083.351562 1026.625 1072.800781 1024.800781 C 1079.664062 1019.824219 1087.664062 1016.621094 1096.800781 1015.199219 Z M 1096.800781 1015.199219 "/>
<path style=" stroke:none;fill-rule:evenodd;fill:rgb(48.235294%,48.235294%,48.235294%);fill-opacity:1;" d="M 852 1029.601562 C 864.730469 1029.167969 875.929688 1032.363281 885.601562 1039.199219 C 872.871094 1039.632812 861.671875 1036.433594 852 1029.601562 Z M 852 1029.601562 "/>
<path style=" stroke:none;fill-rule:evenodd;fill:rgb(30.588235%,30.588235%,30.588235%);fill-opacity:1;" d="M 1072.800781 1024.800781 C 1072.265625 1027.761719 1070.667969 1030.160156 1068 1032 C 1049.257812 1038.523438 1030.054688 1042.523438 1010.398438 1044 C 1030.160156 1035.824219 1050.960938 1029.421875 1072.800781 1024.800781 Z M 1072.800781 1024.800781 "/>
<path style=" stroke:none;fill-rule:evenodd;fill:rgb(43.137255%,43.137255%,43.137255%);fill-opacity:1;" d="M 890.398438 1039.199219 C 925.523438 1042.167969 960.726562 1043.765625 996 1044 C 984.105469 1047.1875 971.304688 1048.785156 957.601562 1048.800781 C 934.023438 1049.179688 911.621094 1045.976562 890.398438 1039.199219 Z M 890.398438 1039.199219 "/>
<path style=" stroke:none;fill-rule:evenodd;fill:rgb(41.960784%,41.960784%,41.960784%);fill-opacity:1;" d="M 996 1082.398438 C 1016.824219 1075.804688 1037.621094 1077.402344 1058.398438 1087.199219 C 1069.414062 1100.625 1081.414062 1113.425781 1094.398438 1125.601562 C 1096.796875 1144.734375 1097.597656 1163.933594 1096.800781 1183.199219 C 1092 1189.597656 1087.199219 1196 1082.398438 1202.398438 C 1091.121094 1179.183594 1093.523438 1155.183594 1089.601562 1130.398438 C 1081.675781 1122.191406 1072.875 1115.789062 1063.199219 1111.199219 C 1047.066406 1088.769531 1024.664062 1079.167969 996 1082.398438 Z M 996 1082.398438 "/>
<path style=" stroke:none;fill-rule:evenodd;fill:rgb(62.352941%,62.352941%,62.352941%);fill-opacity:1;" d="M 1063.199219 1111.199219 C 1072.875 1115.789062 1081.675781 1122.191406 1089.601562 1130.398438 C 1093.523438 1155.183594 1091.121094 1179.183594 1082.398438 1202.398438 C 1077.078125 1202.671875 1072.277344 1204.273438 1068 1207.199219 C 1080.558594 1181.074219 1080.558594 1155.46875 1068 1130.398438 C 1066.402344 1124 1064.796875 1117.597656 1063.199219 1111.199219 Z M 1063.199219 1111.199219 "/>
<path style=" stroke:none;fill-rule:evenodd;fill:rgb(21.568627%,21.568627%,21.568627%);fill-opacity:1;" d="M 1058.398438 1087.199219 C 1101.832031 1107.527344 1114.632812 1139.523438 1096.800781 1183.199219 C 1097.597656 1163.933594 1096.796875 1144.734375 1094.398438 1125.601562 C 1081.414062 1113.425781 1069.414062 1100.625 1058.398438 1087.199219 Z M 1058.398438 1087.199219 "/>
<path style=" stroke:none;fill-rule:evenodd;fill:rgb(54.901961%,54.901961%,54.901961%);fill-opacity:1;" d="M 981.601562 1087.199219 C 969.101562 1097.28125 957.101562 1108.476562 945.601562 1120.800781 C 942.398438 1140 942.398438 1159.199219 945.601562 1178.398438 C 956.867188 1201.65625 973.664062 1219.257812 996 1231.199219 C 962.363281 1228.796875 940.761719 1211.195312 931.199219 1178.398438 C 927.519531 1158.75 929.117188 1139.546875 936 1120.800781 C 945.792969 1111.824219 954.589844 1102.222656 962.398438 1092 C 967.527344 1087.515625 973.925781 1085.914062 981.601562 1087.199219 Z M 981.601562 1087.199219 "/>
<path style=" stroke:none;fill-rule:evenodd;fill:rgb(80%,80%,80%);fill-opacity:1;" d="M 996 1082.398438 C 1024.664062 1079.167969 1047.066406 1088.769531 1063.199219 1111.199219 C 1064.796875 1117.597656 1066.402344 1124 1068 1130.398438 C 1080.558594 1155.46875 1080.558594 1181.074219 1068 1207.199219 C 1058.398438 1215.203125 1048.800781 1223.199219 1039.199219 1231.199219 C 1036 1231.199219 1032.800781 1231.199219 1029.601562 1231.199219 C 1018.402344 1231.199219 1007.199219 1231.199219 996 1231.199219 C 973.664062 1219.257812 956.867188 1201.65625 945.601562 1178.398438 C 942.398438 1159.199219 942.398438 1140 945.601562 1120.800781 C 957.101562 1108.476562 969.101562 1097.28125 981.601562 1087.199219 C 985.003906 1082.859375 989.804688 1081.261719 996 1082.398438 Z M 996 1082.398438 "/>
<path style=" stroke:none;fill-rule:evenodd;fill:rgb(99.215686%,99.215686%,99.215686%);fill-opacity:1;" d="M 1068 1130.398438 C 1072.9375 1163.734375 1064.941406 1193.335938 1044 1219.199219 C 1024.703125 1228.195312 1005.503906 1228.195312 986.398438 1219.199219 C 948.992188 1186.152344 943.390625 1148.546875 969.601562 1106.398438 C 995.273438 1081.722656 1021.675781 1080.925781 1048.800781 1104 C 1054.796875 1113.503906 1061.195312 1122.300781 1068 1130.398438 Z M 1068 1130.398438 "/>
<path style=" stroke:none;fill-rule:evenodd;fill:rgb(27.058824%,27.058824%,27.058824%);fill-opacity:1;" d="M 962.398438 1092 C 954.589844 1102.222656 945.792969 1111.824219 936 1120.800781 C 929.117188 1139.546875 927.519531 1158.75 931.199219 1178.398438 C 940.761719 1211.195312 962.363281 1228.796875 996 1231.199219 C 1007.199219 1231.199219 1018.402344 1231.199219 1029.601562 1231.199219 C 982.230469 1246.589844 946.230469 1232.1875 921.601562 1188 C 909.753906 1144.148438 923.351562 1112.152344 962.398438 1092 Z M 962.398438 1092 "/>
<path style=" stroke:none;fill-rule:evenodd;fill:rgb(36.470588%,36.470588%,36.470588%);fill-opacity:1;" d="M 1082.398438 1202.398438 C 1071.949219 1218.019531 1057.550781 1227.621094 1039.199219 1231.199219 C 1048.800781 1223.199219 1058.398438 1215.203125 1068 1207.199219 C 1072.277344 1204.273438 1077.078125 1202.671875 1082.398438 1202.398438 Z M 1082.398438 1202.398438 "/>
</g>
</svg>
