<?xml version="1.0" encoding="UTF-8"?>
<svg xmlns="http://www.w3.org/2000/svg" xmlns:xlink="http://www.w3.org/1999/xlink" width="1920pt" height="1440pt" viewBox="0 0 1920 1440" version="1.1">
<g id="surface1">
<path style=" stroke:none;fill-rule:evenodd;fill:rgb(0%,0%,0%);fill-opacity:1;" d="M -2.398438 -2.398438 C 637.597656 -2.398438 1277.601562 -2.398438 1917.601562 -2.398438 C 1917.601562 477.601562 1917.601562 957.601562 1917.601562 1437.601562 C 1277.601562 1437.601562 637.597656 1437.601562 -2.398438 1437.601562 C -2.398438 957.601562 -2.398438 477.601562 -2.398438 -2.398438 Z M -2.398438 -2.398438 "/>
<path style=" stroke:none;fill-rule:evenodd;fill:rgb(97.647059%,97.647059%,97.647059%);fill-opacity:1;" d="M 1255.199219 616.800781 C 1263.757812 661.191406 1268.558594 705.992188 1269.601562 751.199219 C 1243.011719 907.386719 1151.8125 1000.191406 996 1029.601562 C 949.132812 1029.1875 902.730469 1024.386719 856.800781 1015.199219 C 736.339844 969.421875 665.9375 883.023438 645.601562 756 C 646.734375 709.210938 651.53125 662.8125 660 616.800781 C 712.074219 483.105469 809.671875 412.703125 952.800781 405.601562 C 1100.828125 408.410156 1201.628906 478.8125 1255.199219 616.800781 Z M 1255.199219 616.800781 "/>
<path style=" stroke:none;fill-rule:evenodd;fill:rgb(54.117647%,54.117647%,54.117647%);fill-opacity:1;" d="M 924 501.601562 C 933.46875 498.417969 943.867188 496.820312 955.199219 496.800781 C 973.355469 496.21875 990.152344 499.421875 1005.601562 506.398438 C 978.539062 502.945312 951.339844 501.34375 924 501.601562 Z M 924 501.601562 "/>
<path style=" stroke:none;fill-rule:evenodd;fill:rgb(0.784314%,0.784314%,0.784314%);fill-opacity:1;" d="M 924 501.601562 C 951.339844 501.34375 978.539062 502.945312 1005.601562 506.398438 C 1099.523438 529.914062 1155.519531 589.113281 1173.601562 684 C 1173.855469 711.339844 1172.257812 738.539062 1168.800781 765.601562 C 1148 853.597656 1093.597656 908 1005.601562 928.800781 C 976.9375 932.355469 948.140625 933.960938 919.199219 933.601562 C 826.9375 913.34375 769.339844 857.34375 746.398438 765.601562 C 742.84375 736.9375 741.238281 708.140625 741.601562 679.199219 C 764.671875 580.925781 825.476562 521.722656 924 501.601562 Z M 924 501.601562 "/>
<path style=" stroke:none;fill-rule:evenodd;fill:rgb(66.666667%,66.666667%,66.666667%);fill-opacity:1;" d="M 588 717.601562 C 587.019531 728.089844 583.824219 737.6875 578.398438 746.398438 C 519.859375 787.027344 473.460938 777.425781 439.199219 717.601562 C 439.199219 701.601562 439.199219 685.597656 439.199219 669.601562 C 450.847656 649.140625 466.84375 632.34375 487.199219 619.199219 C 561.058594 610.660156 594.65625 643.460938 588 717.601562 Z M 588 717.601562 "/>
<path style=" stroke:none;fill-rule:evenodd;fill:rgb(34.901961%,34.901961%,34.509804%);fill-opacity:1;" d="M 588 717.601562 C 594.65625 643.460938 561.058594 610.660156 487.199219 619.199219 C 466.84375 632.34375 450.847656 649.140625 439.199219 669.601562 C 449.707031 613.136719 483.308594 589.933594 540 600 C 587.605469 627.109375 603.605469 666.3125 588 717.601562 Z M 588 717.601562 "/>
<path style=" stroke:none;fill-rule:evenodd;fill:rgb(96.862745%,96.862745%,96.862745%);fill-opacity:1;" d="M 487.199219 636 C 526.449219 626.867188 557.648438 638.0625 580.800781 669.601562 C 587.976562 734.398438 558.378906 762.398438 492 753.601562 C 430.09375 716.054688 428.496094 676.851562 487.199219 636 Z M 487.199219 636 "/>
<path style=" stroke:none;fill-rule:evenodd;fill:rgb(33.333333%,33.333333%,33.333333%);fill-opacity:1;" d="M 1476 712.800781 C 1460.921875 692.375 1441.722656 676.378906 1418.398438 664.800781 C 1385.785156 656.980469 1356.984375 664.976562 1332 688.800781 C 1341.730469 665.519531 1359.332031 651.917969 1384.800781 648 C 1436.992188 638.898438 1467.390625 660.5 1476 712.800781 Z M 1476 712.800781 "/>
<path style=" stroke:none;fill-rule:evenodd;fill:rgb(57.647059%,57.647059%,57.647059%);fill-opacity:1;" d="M 660 616.800781 C 651.53125 662.8125 646.734375 709.210938 645.601562 756 C 637.078125 708.378906 641.878906 661.980469 660 616.800781 Z M 660 616.800781 "/>
<path style=" stroke:none;fill-rule:evenodd;fill:rgb(57.254902%,57.254902%,57.254902%);fill-opacity:1;" d="M 1255.199219 616.800781 C 1273.136719 660.371094 1277.9375 705.171875 1269.601562 751.199219 C 1268.558594 705.992188 1263.757812 661.191406 1255.199219 616.800781 Z M 1255.199219 616.800781 "/>
<path style=" stroke:none;fill-rule:evenodd;fill:rgb(67.843137%,67.843137%,67.843137%);fill-opacity:1;" d="M 1418.398438 664.800781 C 1441.722656 676.378906 1460.921875 692.375 1476 712.800781 C 1477.511719 731.378906 1475.914062 748.980469 1471.199219 765.601562 C 1471.992188 751.113281 1471.191406 736.714844 1468.800781 722.398438 C 1463.8125 716.59375 1458.210938 711.792969 1452 708 C 1429.84375 679.113281 1401.042969 671.914062 1365.601562 686.398438 C 1355.199219 696.800781 1344.800781 707.199219 1334.398438 717.601562 C 1332.007812 731.914062 1331.207031 746.3125 1332 760.800781 C 1320.710938 695.203125 1349.511719 663.203125 1418.398438 664.800781 Z M 1418.398438 664.800781 "/>
<path style=" stroke:none;fill-rule:evenodd;fill:rgb(98.039216%,98.039216%,98.039216%);fill-opacity:1;" d="M 1452 708 C 1472.351562 732.414062 1470.753906 755.609375 1447.199219 777.601562 C 1436.261719 779.871094 1426.660156 784.671875 1418.398438 792 C 1383.90625 796.566406 1355.105469 786.164062 1332 760.800781 C 1331.207031 746.3125 1332.007812 731.914062 1334.398438 717.601562 C 1344.800781 707.199219 1355.199219 696.800781 1365.601562 686.398438 C 1401.042969 671.914062 1429.84375 679.113281 1452 708 Z M 1452 708 "/>
<path style=" stroke:none;fill-rule:evenodd;fill:rgb(56.862745%,56.862745%,56.862745%);fill-opacity:1;" d="M 741.601562 679.199219 C 741.238281 708.140625 742.84375 736.9375 746.398438 765.601562 C 739.054688 750.265625 735.859375 733.464844 736.800781 715.199219 C 736.8125 702.289062 738.414062 690.289062 741.601562 679.199219 Z M 741.601562 679.199219 "/>
<path style=" stroke:none;fill-rule:evenodd;fill:rgb(54.117647%,54.117647%,54.117647%);fill-opacity:1;" d="M 1173.601562 684 C 1176.78125 693.46875 1178.378906 703.867188 1178.398438 715.199219 C 1178.980469 733.355469 1175.777344 750.152344 1168.800781 765.601562 C 1172.257812 738.539062 1173.855469 711.339844 1173.601562 684 Z M 1173.601562 684 "/>
<path style=" stroke:none;fill-rule:evenodd;fill:rgb(42.745098%,42.745098%,42.745098%);fill-opacity:1;" d="M 439.199219 717.601562 C 473.460938 777.425781 519.859375 787.027344 578.398438 746.398438 C 578.398438 749.601562 578.398438 752.796875 578.398438 756 C 536.640625 787.972656 495.039062 787.972656 453.601562 756 C 441.6875 746.386719 436.886719 733.589844 439.199219 717.601562 Z M 439.199219 717.601562 "/>
<path style=" stroke:none;fill-rule:evenodd;fill:rgb(22.352941%,22.352941%,22.352941%);fill-opacity:1;" d="M 453.601562 756 C 495.039062 787.972656 536.640625 787.972656 578.398438 756 C 553.261719 790.847656 519.664062 801.25 477.601562 787.199219 C 470.402344 776.027344 462.402344 765.625 453.601562 756 Z M 453.601562 756 "/>
<path style=" stroke:none;fill-rule:evenodd;fill:rgb(85.098039%,85.098039%,85.098039%);fill-opacity:1;" d="M 1452 708 C 1458.210938 711.792969 1463.8125 716.59375 1468.800781 722.398438 C 1471.191406 736.714844 1471.992188 751.113281 1471.199219 765.601562 C 1439.121094 800.859375 1400.722656 810.460938 1356 794.398438 C 1340.546875 788.542969 1332.550781 777.34375 1332 760.800781 C 1355.105469 786.164062 1383.90625 796.566406 1418.398438 792 C 1426.660156 784.671875 1436.261719 779.871094 1447.199219 777.601562 C 1470.753906 755.609375 1472.351562 732.414062 1452 708 Z M 1452 708 "/>
<path style=" stroke:none;fill-rule:evenodd;fill:rgb(69.803922%,69.803922%,69.803922%);fill-opacity:1;" d="M 1471.199219 765.601562 C 1471.199219 768.800781 1471.199219 772 1471.199219 775.199219 C 1446.292969 801.886719 1415.894531 813.886719 1380 811.199219 C 1368.570312 810.128906 1360.574219 804.527344 1356 794.398438 C 1400.722656 810.460938 1439.121094 800.859375 1471.199219 765.601562 Z M 1471.199219 765.601562 "/>
<path style=" stroke:none;fill-rule:evenodd;fill:rgb(47.45098%,47.45098%,47.45098%);fill-opacity:1;" d="M 1418.398438 664.800781 C 1349.511719 663.203125 1320.710938 695.203125 1332 760.800781 C 1332.550781 777.34375 1340.546875 788.542969 1356 794.398438 C 1360.574219 804.527344 1368.570312 810.128906 1380 811.199219 C 1415.894531 813.886719 1446.292969 801.886719 1471.199219 775.199219 C 1468.8125 796.046875 1459.214844 812.042969 1442.398438 823.199219 C 1396.65625 838.339844 1359.855469 827.140625 1332 789.601562 C 1319.53125 756.398438 1319.53125 722.796875 1332 688.800781 C 1356.984375 664.976562 1385.785156 656.980469 1418.398438 664.800781 Z M 1418.398438 664.800781 "/>
<path style=" stroke:none;fill-rule:evenodd;fill:rgb(18.431373%,18.431373%,18.431373%);fill-opacity:1;" d="M 1332 789.601562 C 1359.855469 827.140625 1396.65625 838.339844 1442.398438 823.199219 C 1392.359375 857.152344 1355.558594 845.953125 1332 789.601562 Z M 1332 789.601562 "/>
<path style=" stroke:none;fill-rule:evenodd;fill:rgb(56.862745%,56.862745%,56.862745%);fill-opacity:1;" d="M 1005.601562 928.800781 C 990.265625 936.144531 973.464844 939.339844 955.199219 938.398438 C 942.289062 938.386719 930.289062 936.789062 919.199219 933.601562 C 948.140625 933.960938 976.9375 932.355469 1005.601562 928.800781 Z M 1005.601562 928.800781 "/>
<path style=" stroke:none;fill-rule:evenodd;fill:rgb(56.862745%,56.862745%,56.862745%);fill-opacity:1;" d="M 856.800781 1015.199219 C 902.730469 1024.386719 949.132812 1029.1875 996 1029.601562 C 948.378906 1038.121094 901.980469 1033.320312 856.800781 1015.199219 Z M 856.800781 1015.199219 "/>
</g>
</svg>
