<?xml version="1.0" encoding="UTF-8"?>
<svg xmlns="http://www.w3.org/2000/svg" xmlns:xlink="http://www.w3.org/1999/xlink" width="1920pt" height="1440pt" viewBox="0 0 1920 1440" version="1.1">
<g id="surface1">
<path style=" stroke:none;fill-rule:evenodd;fill:rgb(0%,0%,0%);fill-opacity:1;" d="M -2.398438 -2.398438 C 637.597656 -2.398438 1277.601562 -2.398438 1917.601562 -2.398438 C 1917.601562 477.601562 1917.601562 957.601562 1917.601562 1437.601562 C 1277.601562 1437.601562 637.597656 1437.601562 -2.398438 1437.601562 C -2.398438 957.601562 -2.398438 477.601562 -2.398438 -2.398438 Z M -2.398438 -2.398438 "/>
<path style=" stroke:none;fill-rule:evenodd;fill:rgb(32.941176%,32.941176%,32.941176%);fill-opacity:1;" d="M 1346.398438 381.601562 C 1341.601562 381.601562 1336.800781 381.601562 1332 381.601562 C 1313.769531 376.878906 1294.570312 375.28125 1274.398438 376.800781 C 1299.226562 363.421875 1323.226562 365.019531 1346.398438 381.601562 Z M 1346.398438 381.601562 "/>
<path style=" stroke:none;fill-rule:evenodd;fill:rgb(35.294118%,35.294118%,35.294118%);fill-opacity:1;" d="M 991.199219 381.601562 C 960.628906 380.867188 930.226562 382.464844 900 386.398438 C 916.152344 379.011719 933.75 375.8125 952.800781 376.800781 C 966.503906 376.8125 979.304688 378.414062 991.199219 381.601562 Z M 991.199219 381.601562 "/>
<path style=" stroke:none;fill-rule:evenodd;fill:rgb(98.039216%,98.039216%,98.039216%);fill-opacity:1;" d="M 991.199219 381.601562 C 1015.382812 385.648438 1039.382812 390.449219 1063.199219 396 C 1069.894531 405.019531 1079.496094 409.820312 1092 410.398438 C 1175.199219 445.601562 1234.402344 504.800781 1269.601562 588 C 1271.210938 613.851562 1277.617188 637.851562 1288.800781 660 C 1289.273438 703.300781 1287.675781 746.5 1284 789.601562 C 1280.796875 805.597656 1277.601562 821.601562 1274.398438 837.601562 C 1267.652344 839.871094 1264.449219 844.671875 1264.800781 852 C 1217.972656 954.839844 1139.574219 1018.84375 1029.601562 1044 C 986.476562 1048.472656 943.277344 1049.273438 900 1046.398438 C 876.796875 1037.4375 852.796875 1031.835938 828 1029.601562 C 744.800781 994.402344 685.597656 935.199219 650.398438 852 C 649.820312 839.496094 645.019531 829.894531 636 823.199219 C 635.164062 811.867188 633.566406 800.667969 631.199219 789.601562 C 627.523438 746.5 625.925781 703.300781 626.398438 660 C 637.585938 637.851562 643.988281 613.851562 645.601562 588 C 680.945312 504.652344 740.152344 445.453125 823.199219 410.398438 C 837.105469 407.378906 849.90625 402.582031 861.601562 396 C 875.65625 395.6875 888.457031 392.488281 900 386.398438 C 930.226562 382.464844 960.628906 380.867188 991.199219 381.601562 Z M 991.199219 381.601562 "/>
<path style=" stroke:none;fill-rule:evenodd;fill:rgb(65.882353%,65.882353%,65.882353%);fill-opacity:1;" d="M 900 386.398438 C 888.457031 392.488281 875.65625 395.6875 861.601562 396 C 872.824219 388.609375 885.625 385.410156 900 386.398438 Z M 900 386.398438 "/>
<path style=" stroke:none;fill-rule:evenodd;fill:rgb(97.647059%,97.647059%,97.647059%);fill-opacity:1;" d="M 1332 381.601562 C 1336.800781 381.601562 1341.601562 381.601562 1346.398438 381.601562 C 1353.539062 387.855469 1361.539062 393.457031 1370.398438 398.398438 C 1374.007812 401.621094 1375.613281 405.621094 1375.199219 410.398438 C 1379.328125 429.28125 1380.925781 448.480469 1380 468 C 1380 472.800781 1380 477.601562 1380 482.398438 C 1364.953125 495.539062 1348.953125 507.539062 1332 518.398438 C 1306.703125 520.585938 1282.703125 516.585938 1260 506.398438 C 1251.542969 502.742188 1246.742188 496.339844 1245.601562 487.199219 C 1240.746094 469.863281 1239.945312 452.261719 1243.199219 434.398438 C 1251.675781 424.339844 1258.074219 413.140625 1262.398438 400.800781 C 1283.113281 386.175781 1306.308594 379.773438 1332 381.601562 Z M 1332 381.601562 "/>
<path style=" stroke:none;fill-rule:evenodd;fill:rgb(61.960784%,61.960784%,61.960784%);fill-opacity:1;" d="M 861.601562 396 C 849.90625 402.582031 837.105469 407.378906 823.199219 410.398438 C 833.363281 400.058594 846.164062 395.257812 861.601562 396 Z M 861.601562 396 "/>
<path style=" stroke:none;fill-rule:evenodd;fill:rgb(56.078431%,56.078431%,56.078431%);fill-opacity:1;" d="M 1063.199219 396 C 1075.042969 397.222656 1084.640625 402.023438 1092 410.398438 C 1079.496094 409.820312 1069.894531 405.019531 1063.199219 396 Z M 1063.199219 396 "/>
<path style=" stroke:none;fill-rule:evenodd;fill:rgb(48.627451%,48.627451%,48.627451%);fill-opacity:1;" d="M 1274.398438 376.800781 C 1294.570312 375.28125 1313.769531 376.878906 1332 381.601562 C 1306.308594 379.773438 1283.113281 386.175781 1262.398438 400.800781 C 1258.074219 413.140625 1251.675781 424.339844 1243.199219 434.398438 C 1239.945312 452.261719 1240.746094 469.863281 1245.601562 487.199219 C 1237.902344 483.421875 1234.699219 477.023438 1236 468 C 1234.890625 446.433594 1238.09375 425.632812 1245.601562 405.601562 C 1250.398438 391.199219 1260 381.601562 1274.398438 376.800781 Z M 1274.398438 376.800781 "/>
<path style=" stroke:none;fill-rule:evenodd;fill:rgb(26.666667%,26.666667%,26.666667%);fill-opacity:1;" d="M 1245.601562 405.601562 C 1238.09375 425.632812 1234.890625 446.433594 1236 468 C 1230.523438 452.929688 1229.722656 436.929688 1233.601562 420 C 1235.410156 413.078125 1239.40625 408.277344 1245.601562 405.601562 Z M 1245.601562 405.601562 "/>
<path style=" stroke:none;fill-rule:evenodd;fill:rgb(67.843137%,67.843137%,67.843137%);fill-opacity:1;" d="M 1375.199219 410.398438 C 1382.273438 414.894531 1387.074219 421.292969 1389.601562 429.601562 C 1392.171875 444.949219 1388.972656 457.75 1380 468 C 1380.925781 448.480469 1379.328125 429.28125 1375.199219 410.398438 Z M 1375.199219 410.398438 "/>
<path style=" stroke:none;fill-rule:evenodd;fill:rgb(0.784314%,0.784314%,0.784314%);fill-opacity:1;" d="M 1000.800781 496.800781 C 1012.34375 502.886719 1025.144531 506.089844 1039.199219 506.398438 C 1162.722656 567.910156 1205.121094 665.511719 1166.398438 799.199219 C 1106.300781 917.636719 1011.097656 961.636719 880.800781 931.199219 C 813.839844 905.039062 769.042969 857.839844 746.398438 789.601562 C 744.601562 779.050781 741.398438 769.449219 736.800781 760.800781 C 723.65625 602.746094 795.65625 513.144531 952.800781 492 C 968.960938 492.695312 984.964844 494.292969 1000.800781 496.800781 Z M 1000.800781 496.800781 "/>
<path style=" stroke:none;fill-rule:evenodd;fill:rgb(54.901961%,54.901961%,54.901961%);fill-opacity:1;" d="M 1000.800781 496.800781 C 1015.175781 495.8125 1027.976562 499.007812 1039.199219 506.398438 C 1025.144531 506.089844 1012.34375 502.886719 1000.800781 496.800781 Z M 1000.800781 496.800781 "/>
<path style=" stroke:none;fill-rule:evenodd;fill:rgb(42.352941%,42.352941%,42.352941%);fill-opacity:1;" d="M 1389.601562 429.601562 C 1404.34375 494.242188 1377.945312 529.441406 1310.398438 535.199219 C 1295.195312 537.089844 1283.195312 532.292969 1274.398438 520.800781 C 1309.527344 530.617188 1342.324219 525.816406 1372.800781 506.398438 C 1377.644531 499.078125 1380.042969 491.078125 1380 482.398438 C 1380 477.601562 1380 472.800781 1380 468 C 1388.972656 457.75 1392.171875 444.949219 1389.601562 429.601562 Z M 1389.601562 429.601562 "/>
<path style=" stroke:none;fill-rule:evenodd;fill:rgb(73.333333%,73.333333%,73.333333%);fill-opacity:1;" d="M 1380 482.398438 C 1380.042969 491.078125 1377.644531 499.078125 1372.800781 506.398438 C 1342.324219 525.816406 1309.527344 530.617188 1274.398438 520.800781 C 1268 517.597656 1263.203125 512.796875 1260 506.398438 C 1282.703125 516.585938 1306.703125 520.585938 1332 518.398438 C 1348.953125 507.539062 1364.953125 495.539062 1380 482.398438 Z M 1380 482.398438 "/>
<path style=" stroke:none;fill-rule:evenodd;fill:rgb(71.372549%,71.372549%,71.372549%);fill-opacity:1;" d="M 645.601562 588 C 643.988281 613.851562 637.585938 637.851562 626.398438 660 C 629.054688 634.53125 635.453125 610.53125 645.601562 588 Z M 645.601562 588 "/>
<path style=" stroke:none;fill-rule:evenodd;fill:rgb(71.372549%,71.372549%,71.372549%);fill-opacity:1;" d="M 1269.601562 588 C 1279.746094 610.53125 1286.144531 634.53125 1288.800781 660 C 1277.617188 637.851562 1271.210938 613.851562 1269.601562 588 Z M 1269.601562 588 "/>
<path style=" stroke:none;fill-rule:evenodd;fill:rgb(76.862745%,76.862745%,76.862745%);fill-opacity:1;" d="M 1288.800781 660 C 1291.992188 677.523438 1293.59375 695.929688 1293.601562 715.199219 C 1294.652344 741.273438 1291.449219 766.074219 1284 789.601562 C 1287.675781 746.5 1289.273438 703.300781 1288.800781 660 Z M 1288.800781 660 "/>
<path style=" stroke:none;fill-rule:evenodd;fill:rgb(75.294118%,75.294118%,75.294118%);fill-opacity:1;" d="M 626.398438 660 C 625.925781 703.300781 627.523438 746.5 631.199219 789.601562 C 623.75 766.074219 620.546875 741.273438 621.601562 715.199219 C 621.605469 695.929688 623.207031 677.523438 626.398438 660 Z M 626.398438 660 "/>
<path style=" stroke:none;fill-rule:evenodd;fill:rgb(50.588235%,50.588235%,50.588235%);fill-opacity:1;" d="M 736.800781 760.800781 C 741.398438 769.449219 744.601562 779.050781 746.398438 789.601562 C 737.855469 782.449219 734.660156 772.847656 736.800781 760.800781 Z M 736.800781 760.800781 "/>
<path style=" stroke:none;fill-rule:evenodd;fill:rgb(56.078431%,56.078431%,56.078431%);fill-opacity:1;" d="M 636 823.199219 C 645.019531 829.894531 649.820312 839.496094 650.398438 852 C 642.023438 844.640625 637.222656 835.042969 636 823.199219 Z M 636 823.199219 "/>
<path style=" stroke:none;fill-rule:evenodd;fill:rgb(50.588235%,50.588235%,50.588235%);fill-opacity:1;" d="M 1274.398438 837.601562 C 1274.75 844.929688 1271.546875 849.730469 1264.800781 852 C 1264.449219 844.671875 1267.652344 839.871094 1274.398438 837.601562 Z M 1274.398438 837.601562 "/>
<path style=" stroke:none;fill-rule:evenodd;fill:rgb(30.196078%,30.196078%,30.196078%);fill-opacity:1;" d="M 636 909.601562 C 646.796875 912.382812 654.792969 918.78125 660 928.800781 C 652.503906 927.679688 646.105469 924.480469 640.800781 919.199219 C 639.203125 916 637.597656 912.800781 636 909.601562 Z M 636 909.601562 "/>
<path style=" stroke:none;fill-rule:evenodd;fill:rgb(36.862745%,36.862745%,36.862745%);fill-opacity:1;" d="M 636 909.601562 C 613.285156 902.804688 590.890625 903.605469 568.800781 912 C 556.722656 924.878906 543.921875 936.878906 530.398438 948 C 525.652344 965.3125 524.050781 982.914062 525.601562 1000.800781 C 511.089844 941.996094 534.289062 906.796875 595.199219 895.199219 C 610.757812 895.84375 624.359375 900.644531 636 909.601562 Z M 636 909.601562 "/>
<path style=" stroke:none;fill-rule:evenodd;fill:rgb(98.431373%,98.431373%,98.431373%);fill-opacity:1;" d="M 640.800781 919.199219 C 646.105469 924.480469 652.503906 927.679688 660 928.800781 C 665.28125 934.105469 668.480469 940.503906 669.601562 948 C 672.910156 981.082031 666.507812 1011.484375 650.398438 1039.199219 C 616.304688 1051.28125 582.707031 1051.28125 549.601562 1039.199219 C 546.398438 1034.398438 543.203125 1029.601562 540 1024.800781 C 524.09375 943.097656 557.691406 907.902344 640.800781 919.199219 Z M 640.800781 919.199219 "/>
<path style=" stroke:none;fill-rule:evenodd;fill:rgb(71.372549%,71.372549%,71.372549%);fill-opacity:1;" d="M 636 909.601562 C 637.597656 912.800781 639.203125 916 640.800781 919.199219 C 557.691406 907.902344 524.09375 943.097656 540 1024.800781 C 531.601562 1019.238281 526.800781 1011.234375 525.601562 1000.800781 C 524.050781 982.914062 525.652344 965.3125 530.398438 948 C 543.921875 936.878906 556.722656 924.878906 568.800781 912 C 590.890625 903.605469 613.285156 902.804688 636 909.601562 Z M 636 909.601562 "/>
<path style=" stroke:none;fill-rule:evenodd;fill:rgb(28.627451%,28.627451%,28.627451%);fill-opacity:1;" d="M 679.199219 962.398438 C 684.6875 979.085938 685.488281 996.679688 681.601562 1015.199219 C 679.761719 1017.867188 677.363281 1019.46875 674.398438 1020 C 677.578125 1000.964844 679.175781 981.761719 679.199219 962.398438 Z M 679.199219 962.398438 "/>
<path style=" stroke:none;fill-rule:evenodd;fill:rgb(63.529412%,63.529412%,63.529412%);fill-opacity:1;" d="M 669.601562 948 C 676.347656 950.269531 679.550781 955.070312 679.199219 962.398438 C 679.175781 981.761719 677.578125 1000.964844 674.398438 1020 C 666.398438 1026.398438 658.402344 1032.800781 650.398438 1039.199219 C 666.507812 1011.484375 672.910156 981.082031 669.601562 948 Z M 669.601562 948 "/>
<path style=" stroke:none;fill-rule:evenodd;fill:rgb(65.490196%,65.490196%,65.490196%);fill-opacity:1;" d="M 549.601562 1039.199219 C 582.707031 1051.28125 616.304688 1051.28125 650.398438 1039.199219 C 645.824219 1049.328125 637.828125 1054.929688 626.398438 1056 C 608.871094 1058.394531 591.273438 1059.191406 573.601562 1058.398438 C 562.78125 1055.40625 554.777344 1049.007812 549.601562 1039.199219 Z M 549.601562 1039.199219 "/>
<path style=" stroke:none;fill-rule:evenodd;fill:rgb(32.941176%,32.941176%,32.941176%);fill-opacity:1;" d="M 674.398438 1020 C 667.703125 1038.714844 654.902344 1052.3125 636 1060.800781 C 614.304688 1064.707031 593.5 1063.90625 573.601562 1058.398438 C 591.273438 1059.191406 608.871094 1058.394531 626.398438 1056 C 637.828125 1054.929688 645.824219 1049.328125 650.398438 1039.199219 C 658.402344 1032.800781 666.398438 1026.398438 674.398438 1020 Z M 674.398438 1020 "/>
<path style=" stroke:none;fill-rule:evenodd;fill:rgb(73.333333%,73.333333%,73.333333%);fill-opacity:1;" d="M 828 1029.601562 C 852.796875 1031.835938 876.796875 1037.4375 900 1046.398438 C 943.277344 1049.273438 986.476562 1048.472656 1029.601562 1044 C 1024.277344 1047.792969 1017.878906 1050.191406 1010.398438 1051.199219 C 970.402344 1054.402344 930.398438 1054.402344 890.398438 1051.199219 C 868.789062 1044.648438 847.988281 1037.449219 828 1029.601562 Z M 828 1029.601562 "/>
</g>
</svg>
