<?xml version="1.0" encoding="UTF-8"?>
<svg xmlns="http://www.w3.org/2000/svg" xmlns:xlink="http://www.w3.org/1999/xlink" width="1920pt" height="1440pt" viewBox="0 0 1920 1440" version="1.1">
<g id="surface1">
<path style=" stroke:none;fill-rule:evenodd;fill:rgb(0%,0%,0%);fill-opacity:1;" d="M -2.398438 -2.398438 C 637.597656 -2.398438 1277.601562 -2.398438 1917.601562 -2.398438 C 1917.601562 477.601562 1917.601562 957.601562 1917.601562 1437.601562 C 1277.601562 1437.601562 637.597656 1437.601562 -2.398438 1437.601562 C -2.398438 957.601562 -2.398438 477.601562 -2.398438 -2.398438 Z M -2.398438 -2.398438 "/>
<path style=" stroke:none;fill-rule:evenodd;fill:rgb(98.431373%,98.431373%,98.431373%);fill-opacity:1;" d="M 1149.601562 252 C 1152.527344 256.277344 1154.125 261.078125 1154.398438 266.398438 C 1155.191406 284.070312 1154.394531 301.671875 1152 319.199219 C 1141.070312 326.945312 1133.871094 337.34375 1130.398438 350.398438 C 1064.617188 374.691406 1036.613281 351.492188 1046.398438 280.800781 C 1069.820312 230.847656 1104.222656 221.25 1149.601562 252 Z M 1149.601562 252 "/>
<path style=" stroke:none;fill-rule:evenodd;fill:rgb(56.078431%,56.078431%,56.078431%);fill-opacity:1;" d="M 1077.601562 223.199219 C 1028.601562 255.84375 1017.402344 299.042969 1044 352.800781 C 1039.238281 353.625 1036.042969 352.023438 1034.398438 348 C 1015.355469 313.570312 1015.355469 279.167969 1034.398438 244.800781 C 1047.773438 234.914062 1062.171875 227.714844 1077.601562 223.199219 Z M 1077.601562 223.199219 "/>
<path style=" stroke:none;fill-rule:evenodd;fill:rgb(29.803922%,29.803922%,29.803922%);fill-opacity:1;" d="M 1135.199219 228 C 1116.164062 224.820312 1096.964844 223.222656 1077.601562 223.199219 C 1062.171875 227.714844 1047.773438 234.914062 1034.398438 244.800781 C 1015.355469 279.167969 1015.355469 313.570312 1034.398438 348 C 1002.671875 332.253906 992.269531 306.652344 1003.199219 271.199219 C 1009.496094 248.863281 1023.097656 232.0625 1044 220.800781 C 1071.203125 217.601562 1098.398438 217.601562 1125.601562 220.800781 C 1129.996094 222.136719 1133.195312 224.535156 1135.199219 228 Z M 1135.199219 228 "/>
<path style=" stroke:none;fill-rule:evenodd;fill:rgb(59.215686%,59.215686%,59.215686%);fill-opacity:1;" d="M 1144.800781 237.601562 C 1152.296875 238.71875 1158.695312 241.917969 1164 247.199219 C 1168.660156 256.71875 1173.460938 266.320312 1178.398438 276 C 1185.207031 310.324219 1174.007812 335.921875 1144.800781 352.800781 C 1155.203125 336.113281 1161.601562 317.714844 1164 297.601562 C 1162.550781 286.082031 1159.355469 275.683594 1154.398438 266.398438 C 1154.125 261.078125 1152.527344 256.277344 1149.601562 252 C 1149.328125 246.675781 1147.726562 241.875 1144.800781 237.601562 Z M 1144.800781 237.601562 "/>
<path style=" stroke:none;fill-rule:evenodd;fill:rgb(26.27451%,26.27451%,26.27451%);fill-opacity:1;" d="M 1164 247.199219 C 1185.394531 258.765625 1194.992188 277.167969 1192.800781 302.398438 C 1191.648438 331.128906 1178.851562 352.726562 1154.398438 367.199219 C 1164.230469 355.691406 1173.027344 342.890625 1180.800781 328.800781 C 1184.6875 310.285156 1183.886719 292.683594 1178.398438 276 C 1173.460938 266.320312 1168.660156 256.71875 1164 247.199219 Z M 1164 247.199219 "/>
<path style=" stroke:none;fill-rule:evenodd;fill:rgb(43.921569%,43.921569%,43.921569%);fill-opacity:1;" d="M 1178.398438 276 C 1183.886719 292.683594 1184.6875 310.285156 1180.800781 328.800781 C 1173.027344 342.890625 1164.230469 355.691406 1154.398438 367.199219 C 1125.019531 379.769531 1096.21875 379.769531 1068 367.199219 C 1078.722656 366.625 1089.125 368.226562 1099.199219 372 C 1114.972656 366.542969 1130.167969 360.144531 1144.800781 352.800781 C 1174.007812 335.921875 1185.207031 310.324219 1178.398438 276 Z M 1178.398438 276 "/>
<path style=" stroke:none;fill-rule:evenodd;fill:rgb(78.823529%,78.823529%,78.823529%);fill-opacity:1;" d="M 1077.601562 223.199219 C 1096.964844 223.222656 1116.164062 224.820312 1135.199219 228 C 1138.402344 231.199219 1141.597656 234.398438 1144.800781 237.601562 C 1147.726562 241.875 1149.328125 246.675781 1149.601562 252 C 1104.222656 221.25 1069.820312 230.847656 1046.398438 280.800781 C 1036.613281 351.492188 1064.617188 374.691406 1130.398438 350.398438 C 1133.871094 337.34375 1141.070312 326.945312 1152 319.199219 C 1154.394531 301.671875 1155.191406 284.070312 1154.398438 266.398438 C 1159.355469 275.683594 1162.550781 286.082031 1164 297.601562 C 1161.601562 317.714844 1155.203125 336.113281 1144.800781 352.800781 C 1130.167969 360.144531 1114.972656 366.542969 1099.199219 372 C 1089.125 368.226562 1078.722656 366.625 1068 367.199219 C 1059.035156 363.535156 1051.03125 358.738281 1044 352.800781 C 1017.402344 299.042969 1028.601562 255.84375 1077.601562 223.199219 Z M 1077.601562 223.199219 "/>
<path style=" stroke:none;fill-rule:evenodd;fill:rgb(97.647059%,97.647059%,97.647059%);fill-opacity:1;" d="M 1255.199219 631.199219 C 1254.769531 643.929688 1257.964844 655.128906 1264.800781 664.800781 C 1264.800781 700 1264.800781 735.203125 1264.800781 770.398438 C 1257.964844 780.070312 1254.769531 791.269531 1255.199219 804 C 1232.902344 877.445312 1189.703125 935.042969 1125.601562 976.800781 C 1118.269531 976.449219 1113.46875 979.652344 1111.199219 986.398438 C 1093.398438 997.277344 1074.195312 1005.277344 1053.601562 1010.398438 C 1032.761719 1011.160156 1013.5625 1015.957031 996 1024.800781 C 959.121094 1024.691406 922.320312 1023.085938 885.601562 1020 C 751.265625 981.675781 672.867188 893.671875 650.398438 756 C 650.636719 720.726562 652.234375 685.523438 655.199219 650.398438 C 662.035156 640.726562 665.230469 629.53125 664.800781 616.800781 C 716.351562 483 813.949219 414.199219 957.601562 410.398438 C 1107.34375 416.421875 1206.542969 490.023438 1255.199219 631.199219 Z M 1255.199219 631.199219 "/>
<path style=" stroke:none;fill-rule:evenodd;fill:rgb(24.705882%,24.705882%,24.705882%);fill-opacity:1;" d="M 991.199219 525.601562 C 960.628906 524.867188 930.226562 526.464844 900 530.398438 C 902.007812 526.933594 905.203125 524.535156 909.601562 523.199219 C 937.675781 519.273438 964.871094 520.070312 991.199219 525.601562 Z M 991.199219 525.601562 "/>
<path style=" stroke:none;fill-rule:evenodd;fill:rgb(0.784314%,0.784314%,0.784314%);fill-opacity:1;" d="M 991.199219 525.601562 C 1119.925781 560.628906 1171.929688 643.828125 1147.199219 775.199219 C 1103.375 881.59375 1024.175781 927.191406 909.601562 912 C 801.90625 871.496094 753.105469 793.894531 763.199219 679.199219 C 780.058594 602.371094 825.65625 552.773438 900 530.398438 C 930.226562 526.464844 960.628906 524.867188 991.199219 525.601562 Z M 991.199219 525.601562 "/>
<path style=" stroke:none;fill-rule:evenodd;fill:rgb(61.960784%,61.960784%,61.960784%);fill-opacity:1;" d="M 664.800781 616.800781 C 665.230469 629.53125 662.035156 640.726562 655.199219 650.398438 C 654.769531 637.671875 657.964844 626.472656 664.800781 616.800781 Z M 664.800781 616.800781 "/>
<path style=" stroke:none;fill-rule:evenodd;fill:rgb(41.568627%,41.568627%,41.568627%);fill-opacity:1;" d="M 1255.199219 631.199219 C 1262.035156 640.871094 1265.230469 652.070312 1264.800781 664.800781 C 1257.964844 655.128906 1254.769531 643.929688 1255.199219 631.199219 Z M 1255.199219 631.199219 "/>
<path style=" stroke:none;fill-rule:evenodd;fill:rgb(47.058824%,47.058824%,47.058824%);fill-opacity:1;" d="M 655.199219 650.398438 C 652.234375 685.523438 650.636719 720.726562 650.398438 756 C 647.210938 744.105469 645.613281 731.304688 645.601562 717.601562 C 645.222656 694.023438 648.421875 671.621094 655.199219 650.398438 Z M 655.199219 650.398438 "/>
<path style=" stroke:none;fill-rule:evenodd;fill:rgb(38.431373%,38.431373%,38.431373%);fill-opacity:1;" d="M 1264.800781 770.398438 C 1265.230469 783.128906 1262.035156 794.328125 1255.199219 804 C 1254.769531 791.269531 1257.964844 780.070312 1264.800781 770.398438 Z M 1264.800781 770.398438 "/>
<path style=" stroke:none;fill-rule:evenodd;fill:rgb(43.137255%,43.137255%,43.137255%);fill-opacity:1;" d="M 1125.601562 976.800781 C 1123.328125 983.546875 1118.53125 986.75 1111.199219 986.398438 C 1113.46875 979.652344 1118.269531 976.449219 1125.601562 976.800781 Z M 1125.601562 976.800781 "/>
<path style=" stroke:none;fill-rule:evenodd;fill:rgb(72.941176%,72.941176%,72.941176%);fill-opacity:1;" d="M 1053.601562 1010.398438 C 1036.328125 1020.921875 1017.128906 1025.722656 996 1024.800781 C 1013.5625 1015.957031 1032.761719 1011.160156 1053.601562 1010.398438 Z M 1053.601562 1010.398438 "/>
<path style=" stroke:none;fill-rule:evenodd;fill:rgb(44.313725%,44.313725%,44.313725%);fill-opacity:1;" d="M 885.601562 1020 C 922.320312 1023.085938 959.121094 1024.691406 996 1024.800781 C 958.929688 1031.386719 922.132812 1029.789062 885.601562 1020 Z M 885.601562 1020 "/>
<path style=" stroke:none;fill-rule:evenodd;fill:rgb(86.666667%,86.666667%,86.666667%);fill-opacity:1;" d="M 794.398438 1068 C 810.398438 1068 826.402344 1068 842.398438 1068 C 848.597656 1066.863281 853.398438 1068.460938 856.800781 1072.800781 C 860 1077.601562 863.199219 1082.398438 866.398438 1087.199219 C 886.234375 1132.628906 876.632812 1170.226562 837.601562 1200 C 820.105469 1203.453125 802.503906 1205.851562 784.800781 1207.199219 C 777.46875 1207.550781 772.671875 1204.347656 770.398438 1197.601562 C 765.121094 1192.296875 761.917969 1185.898438 760.800781 1178.398438 C 756.253906 1167.675781 753.054688 1156.472656 751.199219 1144.800781 C 756.566406 1129.230469 760.566406 1113.230469 763.199219 1096.800781 C 774.40625 1087.679688 784.808594 1078.078125 794.398438 1068 Z M 794.398438 1068 "/>
<path style=" stroke:none;fill-rule:evenodd;fill:rgb(99.215686%,99.215686%,99.215686%);fill-opacity:1;" d="M 818.398438 1072.800781 C 851.753906 1079.074219 867.757812 1099.875 866.398438 1135.199219 C 858.3125 1177.695312 832.714844 1197.695312 789.601562 1195.199219 C 784.066406 1186.160156 776.070312 1182.164062 765.601562 1183.199219 C 758.425781 1157.375 759.226562 1131.777344 768 1106.398438 C 783.886719 1093.261719 800.6875 1082.0625 818.398438 1072.800781 Z M 818.398438 1072.800781 "/>
<path style=" stroke:none;fill-rule:evenodd;fill:rgb(22.745098%,22.745098%,22.745098%);fill-opacity:1;" d="M 823.199219 1058.398438 C 779.492188 1053.46875 749.890625 1071.070312 734.398438 1111.199219 C 731.835938 1132.125 732.632812 1152.921875 736.800781 1173.601562 C 732.203125 1171.425781 728.199219 1168.230469 724.800781 1164 C 711.980469 1083.265625 744.777344 1048.066406 823.199219 1058.398438 Z M 823.199219 1058.398438 "/>
<path style=" stroke:none;fill-rule:evenodd;fill:rgb(46.27451%,46.27451%,45.882353%);fill-opacity:1;" d="M 823.199219 1058.398438 C 831.132812 1059.167969 837.53125 1062.363281 842.398438 1068 C 826.402344 1068 810.398438 1068 794.398438 1068 C 753.1875 1086.542969 737.984375 1118.542969 748.800781 1164 C 749.933594 1171.769531 753.929688 1176.570312 760.800781 1178.398438 C 761.917969 1185.898438 765.121094 1192.296875 770.398438 1197.601562 C 755.921875 1193.890625 744.71875 1185.894531 736.800781 1173.601562 C 732.632812 1152.921875 731.835938 1132.125 734.398438 1111.199219 C 749.890625 1071.070312 779.492188 1053.46875 823.199219 1058.398438 Z M 823.199219 1058.398438 "/>
<path style=" stroke:none;fill-rule:evenodd;fill:rgb(41.960784%,41.960784%,41.960784%);fill-opacity:1;" d="M 856.800781 1072.800781 C 896.242188 1090.023438 912.238281 1120.425781 904.800781 1164 C 887.125 1202.46875 856.726562 1220.070312 813.601562 1216.800781 C 808.839844 1217.625 805.640625 1216.023438 804 1212 C 871.050781 1211.328125 899.050781 1177.726562 888 1111.199219 C 882.964844 1101.035156 875.765625 1093.035156 866.398438 1087.199219 C 863.199219 1082.398438 860 1077.601562 856.800781 1072.800781 Z M 856.800781 1072.800781 "/>
<path style=" stroke:none;fill-rule:evenodd;fill:rgb(67.45098%,67.45098%,67.45098%);fill-opacity:1;" d="M 794.398438 1068 C 784.808594 1078.078125 774.40625 1087.679688 763.199219 1096.800781 C 760.566406 1113.230469 756.566406 1129.230469 751.199219 1144.800781 C 753.054688 1156.472656 756.253906 1167.675781 760.800781 1178.398438 C 753.929688 1176.570312 749.933594 1171.769531 748.800781 1164 C 737.984375 1118.542969 753.1875 1086.542969 794.398438 1068 Z M 794.398438 1068 "/>
<path style=" stroke:none;fill-rule:evenodd;fill:rgb(70.196078%,70.196078%,70.196078%);fill-opacity:1;" d="M 866.398438 1087.199219 C 875.765625 1093.035156 882.964844 1101.035156 888 1111.199219 C 899.050781 1177.726562 871.050781 1211.328125 804 1212 C 796.324219 1213.285156 789.925781 1211.683594 784.800781 1207.199219 C 802.503906 1205.851562 820.105469 1203.453125 837.601562 1200 C 876.632812 1170.226562 886.234375 1132.628906 866.398438 1087.199219 Z M 866.398438 1087.199219 "/>
<path style=" stroke:none;fill-rule:evenodd;fill:rgb(19.607843%,19.607843%,19.607843%);fill-opacity:1;" d="M 904.800781 1164 C 904.230469 1187.789062 893.03125 1204.589844 871.199219 1214.398438 C 851.699219 1222.628906 832.496094 1223.425781 813.601562 1216.800781 C 856.726562 1220.070312 887.125 1202.46875 904.800781 1164 Z M 904.800781 1164 "/>
</g>
</svg>
