<?xml version="1.0" encoding="UTF-8"?>
<svg xmlns="http://www.w3.org/2000/svg" xmlns:xlink="http://www.w3.org/1999/xlink" width="1920pt" height="1440pt" viewBox="0 0 1920 1440" version="1.1">
<g id="surface1">
<path style=" stroke:none;fill-rule:evenodd;fill:rgb(0%,0%,0%);fill-opacity:1;" d="M -2.398438 -2.398438 C 637.597656 -2.398438 1277.601562 -2.398438 1917.601562 -2.398438 C 1917.601562 477.601562 1917.601562 957.601562 1917.601562 1437.601562 C 1277.601562 1437.601562 637.597656 1437.601562 -2.398438 1437.601562 C -2.398438 957.601562 -2.398438 477.601562 -2.398438 -2.398438 Z M -2.398438 -2.398438 "/>
<path style=" stroke:none;fill-rule:evenodd;fill:rgb(98.431373%,98.431373%,98.431373%);fill-opacity:1;" d="M 1226.398438 276 C 1238.9375 282.136719 1250.136719 290.136719 1260 300 C 1260.273438 305.324219 1261.871094 310.125 1264.800781 314.398438 C 1267 340.15625 1263.796875 364.957031 1255.199219 388.800781 C 1227.527344 413.859375 1195.527344 421.058594 1159.199219 410.398438 C 1156 408.800781 1152.800781 407.199219 1149.601562 405.601562 C 1148 402.398438 1146.398438 399.199219 1144.800781 396 C 1118.292969 319.402344 1145.496094 279.402344 1226.398438 276 Z M 1226.398438 276 "/>
<path style=" stroke:none;fill-rule:evenodd;fill:rgb(77.647059%,77.647059%,77.647059%);fill-opacity:1;" d="M 1207.199219 266.398438 C 1216.222656 265.101562 1222.621094 268.300781 1226.398438 276 C 1145.496094 279.402344 1118.292969 319.402344 1144.800781 396 C 1108.367188 350 1114.765625 310 1164 276 C 1177.570312 269.125 1191.96875 265.925781 1207.199219 266.398438 Z M 1207.199219 266.398438 "/>
<path style=" stroke:none;fill-rule:evenodd;fill:rgb(34.901961%,34.901961%,34.901961%);fill-opacity:1;" d="M 1207.199219 266.398438 C 1191.96875 265.925781 1177.570312 269.125 1164 276 C 1114.765625 310 1108.367188 350 1144.800781 396 C 1146.398438 399.199219 1148 402.398438 1149.601562 405.601562 C 1142.320312 405.550781 1136.71875 402.347656 1132.800781 396 C 1100.070312 348.25 1105.664062 305.851562 1149.601562 268.800781 C 1169.242188 260.96875 1188.441406 260.167969 1207.199219 266.398438 Z M 1207.199219 266.398438 "/>
<path style=" stroke:none;fill-rule:evenodd;fill:rgb(35.294118%,35.294118%,35.294118%);fill-opacity:1;" d="M 1260 300 C 1268.03125 304.046875 1273.632812 310.445312 1276.800781 319.199219 C 1282.035156 346.066406 1278.835938 371.664062 1267.199219 396 C 1263.28125 402.347656 1257.679688 405.550781 1250.398438 405.601562 C 1275.214844 378.257812 1280.015625 347.855469 1264.800781 314.398438 C 1261.871094 310.125 1260.273438 305.324219 1260 300 Z M 1260 300 "/>
<path style=" stroke:none;fill-rule:evenodd;fill:rgb(33.333333%,33.333333%,33.333333%);fill-opacity:1;" d="M 986.398438 381.601562 C 949.265625 381.359375 912.464844 384.5625 876 391.199219 C 888.972656 384.175781 903.375 380.179688 919.199219 379.199219 C 942.488281 375.289062 964.890625 376.085938 986.398438 381.601562 Z M 986.398438 381.601562 "/>
<path style=" stroke:none;fill-rule:evenodd;fill:rgb(98.039216%,98.039216%,98.039216%);fill-opacity:1;" d="M 986.398438 381.601562 C 1045.429688 389.535156 1099.828125 409.535156 1149.601562 441.601562 C 1166.519531 454.550781 1182.519531 468.152344 1197.601562 482.398438 C 1200.382812 493.195312 1206.78125 501.191406 1216.800781 506.398438 C 1267.859375 564.542969 1293.457031 633.339844 1293.601562 712.800781 C 1280.492188 901.117188 1181.289062 1013.917969 996 1051.199219 C 927.5 1056.078125 861.898438 1044.875 799.199219 1017.601562 C 779.535156 1006.222656 761.933594 992.625 746.398438 976.800781 C 741.191406 966.78125 733.195312 960.382812 722.398438 957.601562 C 616.355469 839.269531 594.753906 706.46875 657.601562 559.199219 C 668.976562 539.535156 682.574219 521.933594 698.398438 506.398438 C 716 492 732 476 746.398438 458.398438 C 782.199219 422.097656 825.398438 399.699219 876 391.199219 C 912.464844 384.5625 949.265625 381.359375 986.398438 381.601562 Z M 986.398438 381.601562 "/>
<path style=" stroke:none;fill-rule:evenodd;fill:rgb(56.470588%,56.470588%,56.470588%);fill-opacity:1;" d="M 1264.800781 314.398438 C 1280.015625 347.855469 1275.214844 378.257812 1250.398438 405.601562 C 1236.082031 419.453125 1218.484375 425.855469 1197.601562 424.800781 C 1181.636719 426.851562 1168.839844 422.050781 1159.199219 410.398438 C 1195.527344 421.058594 1227.527344 413.859375 1255.199219 388.800781 C 1263.796875 364.957031 1267 340.15625 1264.800781 314.398438 Z M 1264.800781 314.398438 "/>
<path style=" stroke:none;fill-rule:evenodd;fill:rgb(61.568627%,61.568627%,61.568627%);fill-opacity:1;" d="M 1197.601562 482.398438 C 1207.617188 487.609375 1214.015625 495.605469 1216.800781 506.398438 C 1206.78125 501.191406 1200.382812 493.195312 1197.601562 482.398438 Z M 1197.601562 482.398438 "/>
<path style=" stroke:none;fill-rule:evenodd;fill:rgb(0.392157%,0.392157%,0.392157%);fill-opacity:1;" d="M 924 487.199219 C 1063.214844 484.929688 1150.414062 550.53125 1185.601562 684 C 1184.753906 857.644531 1097.554688 944.847656 924 945.601562 C 778.972656 907.609375 715.769531 814.007812 734.398438 664.800781 C 763.03125 568.152344 826.230469 508.953125 924 487.199219 Z M 924 487.199219 "/>
<path style=" stroke:none;fill-rule:evenodd;fill:rgb(65.882353%,65.882353%,65.882353%);fill-opacity:1;" d="M 746.398438 458.398438 C 732 476 716 492 698.398438 506.398438 C 709.597656 485.601562 725.601562 469.601562 746.398438 458.398438 Z M 746.398438 458.398438 "/>
<path style=" stroke:none;fill-rule:evenodd;fill:rgb(61.176471%,61.176471%,61.176471%);fill-opacity:1;" d="M 722.398438 957.601562 C 733.195312 960.382812 741.191406 966.78125 746.398438 976.800781 C 735.605469 974.015625 727.609375 967.617188 722.398438 957.601562 Z M 722.398438 957.601562 "/>
<path style=" stroke:none;fill-rule:evenodd;fill:rgb(74.117647%,74.117647%,74.117647%);fill-opacity:1;" d="M 736.800781 1015.199219 C 744.734375 1015.96875 751.132812 1019.164062 756 1024.800781 C 733.539062 1024.003906 711.144531 1024.804688 688.800781 1027.199219 C 682.902344 1034.539062 675.699219 1040.140625 667.199219 1044 C 662.441406 1061.433594 658.441406 1079.035156 655.199219 1096.800781 C 658.414062 1112.859375 661.617188 1128.859375 664.800781 1144.800781 C 656.34375 1141.140625 651.542969 1134.738281 650.398438 1125.601562 C 634.558594 1053.132812 663.359375 1016.335938 736.800781 1015.199219 Z M 736.800781 1015.199219 "/>
<path style=" stroke:none;fill-rule:evenodd;fill:rgb(98.431373%,98.431373%,98.431373%);fill-opacity:1;" d="M 756 1024.800781 C 760.800781 1028 765.601562 1031.199219 770.398438 1034.398438 C 797.867188 1086.390625 786.667969 1127.984375 736.800781 1159.199219 C 723.421875 1163.890625 709.023438 1165.488281 693.601562 1164 C 680.648438 1162.34375 671.050781 1155.945312 664.800781 1144.800781 C 661.617188 1128.859375 658.414062 1112.859375 655.199219 1096.800781 C 658.441406 1079.035156 662.441406 1061.433594 667.199219 1044 C 675.699219 1040.140625 682.902344 1034.539062 688.800781 1027.199219 C 711.144531 1024.804688 733.539062 1024.003906 756 1024.800781 Z M 756 1024.800781 "/>
<path style=" stroke:none;fill-rule:evenodd;fill:rgb(40%,40%,40%);fill-opacity:1;" d="M 736.800781 1015.199219 C 663.359375 1016.335938 634.558594 1053.132812 650.398438 1125.601562 C 638.417969 1113.425781 633.621094 1098.226562 636 1080 C 636.542969 1048.992188 650.941406 1026.59375 679.199219 1012.800781 C 699.308594 1008.902344 718.507812 1009.703125 736.800781 1015.199219 Z M 736.800781 1015.199219 "/>
<path style=" stroke:none;fill-rule:evenodd;fill:rgb(65.490196%,65.490196%,65.490196%);fill-opacity:1;" d="M 770.398438 1034.398438 C 781.988281 1041.171875 789.988281 1050.773438 794.398438 1063.199219 C 799.492188 1095.960938 791.492188 1124.761719 770.398438 1149.601562 C 759.804688 1155.046875 748.609375 1158.246094 736.800781 1159.199219 C 786.667969 1127.984375 797.867188 1086.390625 770.398438 1034.398438 Z M 770.398438 1034.398438 "/>
<path style=" stroke:none;fill-rule:evenodd;fill:rgb(35.686275%,35.686275%,35.686275%);fill-opacity:1;" d="M 794.398438 1063.199219 C 797.867188 1065.207031 800.265625 1068.402344 801.601562 1072.800781 C 804.800781 1088.796875 804.800781 1104.800781 801.601562 1120.800781 C 792 1133.601562 782.398438 1146.398438 772.800781 1159.199219 C 749.492188 1171.929688 724.691406 1175.929688 698.398438 1171.199219 C 695.730469 1169.363281 694.132812 1166.960938 693.601562 1164 C 709.023438 1165.488281 723.421875 1163.890625 736.800781 1159.199219 C 748.609375 1158.246094 759.804688 1155.046875 770.398438 1149.601562 C 791.492188 1124.761719 799.492188 1095.960938 794.398438 1063.199219 Z M 794.398438 1063.199219 "/>
</g>
</svg>
