<?xml version="1.0" encoding="UTF-8"?>
<svg xmlns="http://www.w3.org/2000/svg" xmlns:xlink="http://www.w3.org/1999/xlink" width="1920pt" height="1440pt" viewBox="0 0 1920 1440" version="1.1">
<g id="surface1">
<path style=" stroke:none;fill-rule:evenodd;fill:rgb(0%,0%,0%);fill-opacity:1;" d="M -2.398438 -2.398438 C 637.597656 -2.398438 1277.601562 -2.398438 1917.601562 -2.398438 C 1917.601562 477.601562 1917.601562 957.601562 1917.601562 1437.601562 C 1277.601562 1437.601562 637.597656 1437.601562 -2.398438 1437.601562 C -2.398438 957.601562 -2.398438 477.601562 -2.398438 -2.398438 Z M -2.398438 -2.398438 "/>
<path style=" stroke:none;fill-rule:evenodd;fill:rgb(98.039216%,98.039216%,98.039216%);fill-opacity:1;" d="M 1245.601562 554.398438 C 1245.25 561.730469 1248.453125 566.53125 1255.199219 568.800781 C 1319.828125 723.417969 1291.027344 858.621094 1168.800781 974.398438 C 1127.226562 1006.386719 1080.824219 1027.988281 1029.601562 1039.199219 C 1016.871094 1038.769531 1005.671875 1041.964844 996 1048.800781 C 929.832031 1054.578125 867.433594 1043.378906 808.800781 1015.199219 C 806.53125 1008.453125 801.730469 1005.25 794.398438 1005.601562 C 711.167969 956.625 657.570312 884.625 633.601562 789.601562 C 627.730469 751.425781 625.328125 713.027344 626.398438 674.398438 C 633.234375 664.726562 636.433594 653.53125 636 640.800781 C 640.371094 615.191406 648.375 591.191406 660 568.800781 C 666.75 566.53125 669.949219 561.730469 669.601562 554.398438 C 693.3125 508.578125 726.910156 471.78125 770.398438 444 C 781.671875 443.558594 789.667969 438.757812 794.398438 429.601562 C 801.730469 429.949219 806.53125 426.75 808.800781 420 C 955.511719 358.585938 1087.511719 382.585938 1204.800781 492 C 1220.890625 511.433594 1234.488281 532.234375 1245.601562 554.398438 Z M 1245.601562 554.398438 "/>
<path style=" stroke:none;fill-rule:evenodd;fill:rgb(57.647059%,57.647059%,57.647059%);fill-opacity:1;" d="M 808.800781 420 C 806.53125 426.75 801.730469 429.949219 794.398438 429.601562 C 796.671875 422.851562 801.46875 419.648438 808.800781 420 Z M 808.800781 420 "/>
<path style=" stroke:none;fill-rule:evenodd;fill:rgb(66.27451%,66.27451%,66.27451%);fill-opacity:1;" d="M 794.398438 429.601562 C 789.667969 438.757812 781.671875 443.558594 770.398438 444 C 775.964844 435.597656 783.964844 430.796875 794.398438 429.601562 Z M 794.398438 429.601562 "/>
<path style=" stroke:none;fill-rule:evenodd;fill:rgb(0.784314%,0.784314%,0.784314%);fill-opacity:1;" d="M 928.800781 506.398438 C 959.691406 505.570312 990.089844 508.769531 1020 516 C 1026.863281 520.976562 1034.867188 524.179688 1044 525.601562 C 1148.660156 579.753906 1187.058594 664.550781 1159.199219 780 C 1154.222656 786.863281 1151.019531 794.867188 1149.601562 804 C 1146.671875 808.277344 1145.074219 813.078125 1144.800781 818.398438 C 1138.050781 820.671875 1134.847656 825.46875 1135.199219 832.800781 C 1110.90625 865.046875 1080.507812 890.644531 1044 909.601562 C 1034.867188 911.019531 1026.863281 914.222656 1020 919.199219 C 1012.324219 917.914062 1005.925781 919.515625 1000.800781 924 C 976.976562 927.621094 952.976562 929.21875 928.800781 928.800781 C 853.441406 914.199219 799.042969 872.601562 765.601562 804 C 764.179688 794.867188 760.976562 786.863281 756 780 C 756.644531 771.398438 755.042969 763.402344 751.199219 756 C 744.800781 728.796875 744.800781 701.601562 751.199219 674.398438 C 768.980469 594.214844 816.980469 541.414062 895.199219 516 C 907.929688 516.433594 919.128906 513.234375 928.800781 506.398438 Z M 928.800781 506.398438 "/>
<path style=" stroke:none;fill-rule:evenodd;fill:rgb(40.784314%,40.784314%,40.784314%);fill-opacity:1;" d="M 928.800781 506.398438 C 919.128906 513.234375 907.929688 516.433594 895.199219 516 C 904.871094 509.164062 916.070312 505.96875 928.800781 506.398438 Z M 928.800781 506.398438 "/>
<path style=" stroke:none;fill-rule:evenodd;fill:rgb(56.078431%,56.078431%,56.078431%);fill-opacity:1;" d="M 1020 516 C 1030.550781 514.175781 1038.550781 517.378906 1044 525.601562 C 1034.867188 524.179688 1026.863281 520.976562 1020 516 Z M 1020 516 "/>
<path style=" stroke:none;fill-rule:evenodd;fill:rgb(31.372549%,31.372549%,31.372549%);fill-opacity:1;" d="M 1456.800781 592.800781 C 1448.179688 586.59375 1440.175781 579.394531 1432.800781 571.199219 C 1426.59375 568.847656 1420.191406 568.046875 1413.601562 568.800781 C 1398.527344 563.324219 1382.53125 562.523438 1365.601562 566.398438 C 1349.203125 573.988281 1334.804688 584.390625 1322.398438 597.601562 C 1345.324219 553.367188 1380.523438 539.769531 1428 556.800781 C 1440.566406 566.910156 1450.167969 578.910156 1456.800781 592.800781 Z M 1456.800781 592.800781 "/>
<path style=" stroke:none;fill-rule:evenodd;fill:rgb(50.196078%,50.196078%,50.196078%);fill-opacity:1;" d="M 669.601562 554.398438 C 669.949219 561.730469 666.75 566.53125 660 568.800781 C 659.648438 561.46875 662.851562 556.671875 669.601562 554.398438 Z M 669.601562 554.398438 "/>
<path style=" stroke:none;fill-rule:evenodd;fill:rgb(50.196078%,50.196078%,50.196078%);fill-opacity:1;" d="M 1245.601562 554.398438 C 1252.347656 556.671875 1255.550781 561.46875 1255.199219 568.800781 C 1248.453125 566.53125 1245.25 561.730469 1245.601562 554.398438 Z M 1245.601562 554.398438 "/>
<path style=" stroke:none;fill-rule:evenodd;fill:rgb(50.588235%,50.588235%,50.588235%);fill-opacity:1;" d="M 1413.601562 568.800781 C 1373.078125 561.417969 1344.277344 575.816406 1327.199219 612 C 1322.8125 627.496094 1321.214844 643.492188 1322.398438 660 C 1316.46875 639.835938 1316.46875 619.03125 1322.398438 597.601562 C 1334.804688 584.390625 1349.203125 573.988281 1365.601562 566.398438 C 1382.53125 562.523438 1398.527344 563.324219 1413.601562 568.800781 Z M 1413.601562 568.800781 "/>
<path style=" stroke:none;fill-rule:evenodd;fill:rgb(98.431373%,98.431373%,98.431373%);fill-opacity:1;" d="M 1461.601562 660 C 1428.738281 701.019531 1388.742188 709.019531 1341.601562 684 C 1333.46875 679.070312 1327.070312 672.667969 1322.398438 664.800781 C 1322.398438 663.203125 1322.398438 661.597656 1322.398438 660 C 1321.214844 643.492188 1322.8125 627.496094 1327.199219 612 C 1358.054688 580.148438 1394.851562 571.347656 1437.601562 585.601562 C 1444.660156 600.46875 1453.460938 614.074219 1464 626.398438 C 1467.820312 638.585938 1467.019531 649.785156 1461.601562 660 Z M 1461.601562 660 "/>
<path style=" stroke:none;fill-rule:evenodd;fill:rgb(64.705882%,64.705882%,64.705882%);fill-opacity:1;" d="M 1413.601562 568.800781 C 1420.191406 568.046875 1426.59375 568.847656 1432.800781 571.199219 C 1440.175781 579.394531 1448.179688 586.59375 1456.800781 592.800781 C 1464.320312 598.46875 1468.324219 606.464844 1468.800781 616.800781 C 1471.191406 632.722656 1471.992188 648.71875 1471.199219 664.800781 C 1468 666.398438 1464.800781 668 1461.601562 669.601562 C 1461.601562 666.398438 1461.601562 663.203125 1461.601562 660 C 1467.019531 649.785156 1467.820312 638.585938 1464 626.398438 C 1453.460938 614.074219 1444.660156 600.46875 1437.601562 585.601562 C 1394.851562 571.347656 1358.054688 580.148438 1327.199219 612 C 1344.277344 575.816406 1373.078125 561.417969 1413.601562 568.800781 Z M 1413.601562 568.800781 "/>
<path style=" stroke:none;fill-rule:evenodd;fill:rgb(36.470588%,36.470588%,36.470588%);fill-opacity:1;" d="M 636 640.800781 C 636.433594 653.53125 633.234375 664.726562 626.398438 674.398438 C 625.96875 661.671875 629.164062 650.472656 636 640.800781 Z M 636 640.800781 "/>
<path style=" stroke:none;fill-rule:evenodd;fill:rgb(86.27451%,86.27451%,86.27451%);fill-opacity:1;" d="M 1461.601562 660 C 1461.601562 663.203125 1461.601562 666.398438 1461.601562 669.601562 C 1451.25 682.347656 1440.054688 694.347656 1428 705.601562 C 1402.152344 709.117188 1376.554688 708.320312 1351.199219 703.199219 C 1350.082031 695.703125 1346.878906 689.304688 1341.601562 684 C 1388.742188 709.019531 1428.738281 701.019531 1461.601562 660 Z M 1461.601562 660 "/>
<path style=" stroke:none;fill-rule:evenodd;fill:rgb(42.745098%,42.745098%,42.745098%);fill-opacity:1;" d="M 1322.398438 664.800781 C 1327.070312 672.667969 1333.46875 679.070312 1341.601562 684 C 1346.878906 689.304688 1350.082031 695.703125 1351.199219 703.199219 C 1355.265625 710.238281 1361.664062 714.238281 1370.398438 715.199219 C 1396.875 720.484375 1421.679688 716.480469 1444.800781 703.199219 C 1453.820312 693.46875 1459.421875 682.273438 1461.601562 669.601562 C 1464.800781 668 1468 666.398438 1471.199219 664.800781 C 1463.203125 692.097656 1447.203125 712.894531 1423.199219 727.199219 C 1400.03125 728.539062 1377.632812 725.34375 1356 717.601562 C 1334.929688 706.15625 1323.730469 688.554688 1322.398438 664.800781 Z M 1322.398438 664.800781 "/>
<path style=" stroke:none;fill-rule:evenodd;fill:rgb(61.568627%,61.568627%,61.568627%);fill-opacity:1;" d="M 1461.601562 669.601562 C 1459.421875 682.273438 1453.820312 693.46875 1444.800781 703.199219 C 1421.679688 716.480469 1396.875 720.484375 1370.398438 715.199219 C 1361.664062 714.238281 1355.265625 710.238281 1351.199219 703.199219 C 1376.554688 708.320312 1402.152344 709.117188 1428 705.601562 C 1440.054688 694.347656 1451.25 682.347656 1461.601562 669.601562 Z M 1461.601562 669.601562 "/>
<path style=" stroke:none;fill-rule:evenodd;fill:rgb(68.627451%,68.627451%,68.627451%);fill-opacity:1;" d="M 751.199219 674.398438 C 744.800781 701.601562 744.800781 728.796875 751.199219 756 C 743.773438 744.925781 740.578125 732.128906 741.601562 717.601562 C 740.847656 701.691406 744.042969 687.292969 751.199219 674.398438 Z M 751.199219 674.398438 "/>
<path style=" stroke:none;fill-rule:evenodd;fill:rgb(21.176471%,21.176471%,21.176471%);fill-opacity:1;" d="M 1356 717.601562 C 1377.632812 725.34375 1400.03125 728.539062 1423.199219 727.199219 C 1406.515625 732.6875 1388.917969 733.488281 1370.398438 729.601562 C 1363.476562 727.789062 1358.679688 723.792969 1356 717.601562 Z M 1356 717.601562 "/>
<path style=" stroke:none;fill-rule:evenodd;fill:rgb(65.490196%,65.490196%,65.490196%);fill-opacity:1;" d="M 496.800781 717.601562 C 518.09375 716.207031 538.894531 718.609375 559.199219 724.800781 C 568.175781 734.59375 577.777344 743.390625 588 751.199219 C 591.6875 754.863281 594.085938 759.664062 595.199219 765.601562 C 597.59375 783.128906 598.390625 800.726562 597.601562 818.398438 C 594.398438 820 591.203125 821.601562 588 823.199219 C 602.574219 783.621094 591.375 754.019531 554.398438 734.398438 C 527.75 723.679688 502.152344 725.285156 477.601562 739.199219 C 472.015625 750.375 464.015625 759.175781 453.601562 765.601562 C 461.464844 743.351562 475.867188 727.355469 496.800781 717.601562 Z M 496.800781 717.601562 "/>
<path style=" stroke:none;fill-rule:evenodd;fill:rgb(98.431373%,98.431373%,98.431373%);fill-opacity:1;" d="M 588 823.199219 C 573.863281 825.546875 562.664062 832.746094 554.398438 844.800781 C 534.042969 851.792969 513.246094 853.398438 492 849.601562 C 479.6875 839.617188 466.886719 830.816406 453.601562 823.199219 C 447.402344 804.484375 447.402344 785.285156 453.601562 765.601562 C 464.015625 759.175781 472.015625 750.375 477.601562 739.199219 C 502.152344 725.285156 527.75 723.679688 554.398438 734.398438 C 591.375 754.019531 602.574219 783.621094 588 823.199219 Z M 588 823.199219 "/>
<path style=" stroke:none;fill-rule:evenodd;fill:rgb(29.803922%,29.803922%,29.803922%);fill-opacity:1;" d="M 588 751.199219 C 577.777344 743.390625 568.175781 734.59375 559.199219 724.800781 C 538.894531 718.609375 518.09375 716.207031 496.800781 717.601562 C 488.742188 719.480469 480.738281 721.882812 472.800781 724.800781 C 466.398438 735.316406 458.398438 744.113281 448.800781 751.199219 C 466.449219 708.152344 498.453125 692.953125 544.800781 705.601562 C 566.3125 714.351562 580.714844 729.546875 588 751.199219 Z M 588 751.199219 "/>
<path style=" stroke:none;fill-rule:evenodd;fill:rgb(49.019608%,49.019608%,49.019608%);fill-opacity:1;" d="M 496.800781 717.601562 C 475.867188 727.355469 461.464844 743.351562 453.601562 765.601562 C 447.402344 785.285156 447.402344 804.484375 453.601562 823.199219 C 460.441406 830.027344 465.238281 838.027344 468 847.199219 C 463.199219 844 458.398438 840.800781 453.601562 837.601562 C 442.679688 809.726562 441.078125 780.925781 448.800781 751.199219 C 458.398438 744.113281 466.398438 735.316406 472.800781 724.800781 C 480.738281 721.882812 488.742188 719.480469 496.800781 717.601562 Z M 496.800781 717.601562 "/>
<path style=" stroke:none;fill-rule:evenodd;fill:rgb(56.470588%,56.470588%,56.470588%);fill-opacity:1;" d="M 756 780 C 760.976562 786.863281 764.179688 794.867188 765.601562 804 C 757.378906 798.550781 754.175781 790.550781 756 780 Z M 756 780 "/>
<path style=" stroke:none;fill-rule:evenodd;fill:rgb(56.078431%,56.078431%,56.078431%);fill-opacity:1;" d="M 1159.199219 780 C 1161.023438 790.550781 1157.824219 798.550781 1149.601562 804 C 1151.019531 794.867188 1154.222656 786.863281 1159.199219 780 Z M 1159.199219 780 "/>
<path style=" stroke:none;fill-rule:evenodd;fill:rgb(57.254902%,57.254902%,57.254902%);fill-opacity:1;" d="M 1144.800781 818.398438 C 1145.152344 825.730469 1141.949219 830.53125 1135.199219 832.800781 C 1134.847656 825.46875 1138.050781 820.671875 1144.800781 818.398438 Z M 1144.800781 818.398438 "/>
<path style=" stroke:none;fill-rule:evenodd;fill:rgb(79.607843%,79.607843%,79.607843%);fill-opacity:1;" d="M 453.601562 823.199219 C 466.886719 830.816406 479.6875 839.617188 492 849.601562 C 513.246094 853.398438 534.042969 851.792969 554.398438 844.800781 C 562.664062 832.746094 573.863281 825.546875 588 823.199219 C 589.050781 828.839844 587.453125 833.640625 583.199219 837.601562 C 554.660156 858.445312 522.664062 865.644531 487.199219 859.199219 C 483.320312 851.011719 476.921875 847.011719 468 847.199219 C 465.238281 838.027344 460.441406 830.027344 453.601562 823.199219 Z M 453.601562 823.199219 "/>
<path style=" stroke:none;fill-rule:evenodd;fill:rgb(52.941176%,52.941176%,52.941176%);fill-opacity:1;" d="M 597.601562 818.398438 C 598.070312 828.253906 594.867188 836.257812 588 842.398438 C 579.171875 847.238281 572.773438 854.4375 568.800781 864 C 562.824219 867.796875 556.425781 870.195312 549.601562 871.199219 C 526.808594 872.28125 504.40625 869.878906 482.398438 864 C 476.589844 859.011719 471.792969 853.410156 468 847.199219 C 476.921875 847.011719 483.320312 851.011719 487.199219 859.199219 C 522.664062 865.644531 554.660156 858.445312 583.199219 837.601562 C 587.453125 833.640625 589.050781 828.839844 588 823.199219 C 591.203125 821.601562 594.398438 820 597.601562 818.398438 Z M 597.601562 818.398438 "/>
<path style=" stroke:none;fill-rule:evenodd;fill:rgb(19.607843%,19.607843%,19.607843%);fill-opacity:1;" d="M 588 842.398438 C 578.4375 872.054688 557.636719 886.453125 525.601562 885.601562 C 512.855469 885.886719 501.652344 882.6875 492 876 C 512.167969 877.523438 531.371094 875.917969 549.601562 871.199219 C 556.425781 870.195312 562.824219 867.796875 568.800781 864 C 572.773438 854.4375 579.171875 847.238281 588 842.398438 Z M 588 842.398438 "/>
<path style=" stroke:none;fill-rule:evenodd;fill:rgb(35.294118%,35.294118%,35.294118%);fill-opacity:1;" d="M 453.601562 837.601562 C 458.398438 840.800781 463.199219 844 468 847.199219 C 471.792969 853.410156 476.589844 859.011719 482.398438 864 C 504.40625 869.878906 526.808594 872.28125 549.601562 871.199219 C 531.371094 875.917969 512.167969 877.523438 492 876 C 474.398438 868 461.601562 855.203125 453.601562 837.601562 Z M 453.601562 837.601562 "/>
<path style=" stroke:none;fill-rule:evenodd;fill:rgb(56.078431%,56.078431%,56.078431%);fill-opacity:1;" d="M 1044 909.601562 C 1038.550781 917.824219 1030.550781 921.023438 1020 919.199219 C 1026.863281 914.222656 1034.867188 911.019531 1044 909.601562 Z M 1044 909.601562 "/>
<path style=" stroke:none;fill-rule:evenodd;fill:rgb(73.333333%,73.333333%,73.333333%);fill-opacity:1;" d="M 1000.800781 924 C 987.90625 931.15625 973.507812 934.355469 957.601562 933.601562 C 947.058594 933.574219 937.460938 931.976562 928.800781 928.800781 C 952.976562 929.21875 976.976562 927.621094 1000.800781 924 Z M 1000.800781 924 "/>
<path style=" stroke:none;fill-rule:evenodd;fill:rgb(50.196078%,50.196078%,50.196078%);fill-opacity:1;" d="M 794.398438 1005.601562 C 801.730469 1005.25 806.53125 1008.453125 808.800781 1015.199219 C 801.46875 1015.550781 796.671875 1012.347656 794.398438 1005.601562 Z M 794.398438 1005.601562 "/>
<path style=" stroke:none;fill-rule:evenodd;fill:rgb(36.862745%,36.862745%,36.862745%);fill-opacity:1;" d="M 1029.601562 1039.199219 C 1019.929688 1046.035156 1008.730469 1049.230469 996 1048.800781 C 1005.671875 1041.964844 1016.871094 1038.769531 1029.601562 1039.199219 Z M 1029.601562 1039.199219 "/>
</g>
</svg>
