<?xml version="1.0" encoding="UTF-8"?>
<svg xmlns="http://www.w3.org/2000/svg" xmlns:xlink="http://www.w3.org/1999/xlink" width="1920pt" height="1440pt" viewBox="0 0 1920 1440" version="1.1">
<g id="surface1">
<path style=" stroke:none;fill-rule:evenodd;fill:rgb(0%,0%,0%);fill-opacity:1;" d="M -2.398438 -2.398438 C 637.597656 -2.398438 1277.601562 -2.398438 1917.601562 -2.398438 C 1917.601562 477.601562 1917.601562 957.601562 1917.601562 1437.601562 C 1277.601562 1437.601562 637.597656 1437.601562 -2.398438 1437.601562 C -2.398438 957.601562 -2.398438 477.601562 -2.398438 -2.398438 Z M -2.398438 -2.398438 "/>
<path style=" stroke:none;fill-rule:evenodd;fill:rgb(97.254902%,97.254902%,97.254902%);fill-opacity:1;" d="M 919.199219 396 C 1057.335938 390.257812 1163.730469 444.65625 1238.398438 559.199219 C 1300.105469 683.238281 1290.503906 801.636719 1209.601562 914.398438 C 1080.210938 1053.027344 933.8125 1074.628906 770.398438 979.199219 C 668.011719 895.621094 625.613281 787.621094 643.199219 655.199219 C 680.273438 510.121094 772.273438 423.722656 919.199219 396 Z M 919.199219 396 "/>
<path style=" stroke:none;fill-rule:evenodd;fill:rgb(56.470588%,56.470588%,56.470588%);fill-opacity:1;" d="M 655.199219 506.398438 C 656.027344 511.160156 654.421875 514.359375 650.398438 516 C 656.25 438.648438 621.054688 406.648438 544.800781 420 C 622.589844 394.234375 659.386719 423.035156 655.199219 506.398438 Z M 655.199219 506.398438 "/>
<path style=" stroke:none;fill-rule:evenodd;fill:rgb(99.215686%,99.215686%,99.215686%);fill-opacity:1;" d="M 645.601562 520.800781 C 645.601562 522.398438 645.601562 524 645.601562 525.601562 C 640.839844 524.773438 637.640625 526.378906 636 530.398438 C 607.167969 543.195312 578.367188 543.195312 549.601562 530.398438 C 539.671875 518.664062 529.273438 507.464844 518.398438 496.800781 C 516.007812 480.878906 515.207031 464.878906 516 448.800781 C 565.203125 417.113281 606.804688 425.113281 640.800781 472.800781 C 645.539062 488.488281 647.136719 504.488281 645.601562 520.800781 Z M 645.601562 520.800781 "/>
<path style=" stroke:none;fill-rule:evenodd;fill:rgb(77.254902%,77.254902%,77.254902%);fill-opacity:1;" d="M 650.398438 516 C 650.398438 519.203125 648.800781 520.800781 645.601562 520.800781 C 647.136719 504.488281 645.539062 488.488281 640.800781 472.800781 C 606.804688 425.113281 565.203125 417.113281 516 448.800781 C 515.175781 444.039062 516.777344 440.839844 520.800781 439.199219 C 528.800781 432.800781 536.796875 426.398438 544.800781 420 C 621.054688 406.648438 656.25 438.648438 650.398438 516 Z M 650.398438 516 "/>
<path style=" stroke:none;fill-rule:evenodd;fill:rgb(32.941176%,32.941176%,32.941176%);fill-opacity:1;" d="M 655.199219 506.398438 C 659.386719 423.035156 622.589844 394.234375 544.800781 420 C 536.796875 426.398438 528.800781 432.800781 520.800781 439.199219 C 556.757812 382.792969 600.757812 376.394531 652.800781 420 C 667.523438 449.074219 668.324219 477.875 655.199219 506.398438 Z M 655.199219 506.398438 "/>
<path style=" stroke:none;fill-rule:evenodd;fill:rgb(50.980392%,50.980392%,50.980392%);fill-opacity:1;" d="M 1005.601562 501.601562 C 971.980469 495.511719 938.378906 495.511719 904.800781 501.601562 C 938.355469 489.058594 971.957031 489.058594 1005.601562 501.601562 Z M 1005.601562 501.601562 "/>
<path style=" stroke:none;fill-rule:evenodd;fill:rgb(0.392157%,0.392157%,0.392157%);fill-opacity:1;" d="M 1005.601562 501.601562 C 1087.753906 521.375 1142.152344 570.972656 1168.800781 650.398438 C 1172.753906 671.035156 1175.957031 691.839844 1178.398438 712.800781 C 1176.269531 730.382812 1174.664062 747.980469 1173.601562 765.601562 C 1151.199219 855.203125 1095.203125 911.199219 1005.601562 933.601562 C 987.980469 934.664062 970.382812 936.269531 952.800781 938.398438 C 931.839844 935.957031 911.035156 932.753906 890.398438 928.800781 C 810.972656 902.152344 761.375 847.753906 741.601562 765.601562 C 740.535156 747.980469 738.929688 730.382812 736.800781 712.800781 C 739.242188 691.839844 742.445312 671.035156 746.398438 650.398438 C 772.84375 572.753906 825.644531 523.15625 904.800781 501.601562 C 938.378906 495.511719 971.980469 495.511719 1005.601562 501.601562 Z M 1005.601562 501.601562 "/>
<path style=" stroke:none;fill-rule:evenodd;fill:rgb(24.705882%,24.705882%,24.705882%);fill-opacity:1;" d="M 501.601562 468 C 500.808594 485.671875 501.605469 503.269531 504 520.800781 C 505.839844 523.46875 508.238281 525.066406 511.199219 525.601562 C 510.691406 537.980469 513.894531 549.175781 520.800781 559.199219 C 506.25 551.070312 497.453125 538.273438 494.398438 520.800781 C 490.824219 501.847656 493.222656 484.246094 501.601562 468 Z M 501.601562 468 "/>
<path style=" stroke:none;fill-rule:evenodd;fill:rgb(84.705882%,84.705882%,84.705882%);fill-opacity:1;" d="M 516 448.800781 C 515.207031 464.878906 516.007812 480.878906 518.398438 496.800781 C 529.273438 507.464844 539.671875 518.664062 549.601562 530.398438 C 578.367188 543.195312 607.167969 543.195312 636 530.398438 C 624.699219 544.609375 609.503906 551.007812 590.398438 549.601562 C 533.1875 542.804688 506.789062 510.804688 511.199219 453.601562 C 511.199219 450.398438 512.796875 448.800781 516 448.800781 Z M 516 448.800781 "/>
<path style=" stroke:none;fill-rule:evenodd;fill:rgb(61.568627%,61.568627%,61.568627%);fill-opacity:1;" d="M 511.199219 453.601562 C 506.789062 510.804688 533.1875 542.804688 590.398438 549.601562 C 609.503906 551.007812 624.699219 544.609375 636 530.398438 C 637.640625 526.378906 640.839844 524.773438 645.601562 525.601562 C 642.605469 536.417969 636.207031 544.421875 626.398438 549.601562 C 601.421875 558.019531 575.816406 560.417969 549.601562 556.800781 C 532.988281 550.535156 520.1875 540.140625 511.199219 525.601562 C 508.238281 525.066406 505.839844 523.46875 504 520.800781 C 501.605469 503.269531 500.808594 485.671875 501.601562 468 C 501.25 460.671875 504.453125 455.871094 511.199219 453.601562 Z M 511.199219 453.601562 "/>
<path style=" stroke:none;fill-rule:evenodd;fill:rgb(40%,40%,40%);fill-opacity:1;" d="M 511.199219 525.601562 C 520.1875 540.140625 532.988281 550.535156 549.601562 556.800781 C 575.816406 560.417969 601.421875 558.019531 626.398438 549.601562 C 594.023438 577.722656 558.820312 580.925781 520.800781 559.199219 C 513.894531 549.175781 510.691406 537.980469 511.199219 525.601562 Z M 511.199219 525.601562 "/>
<path style=" stroke:none;fill-rule:evenodd;fill:rgb(50.588235%,50.588235%,50.588235%);fill-opacity:1;" d="M 746.398438 650.398438 C 742.445312 671.035156 739.242188 691.839844 736.800781 712.800781 C 738.929688 730.382812 740.535156 747.980469 741.601562 765.601562 C 734.308594 751.074219 731.113281 735.078125 732 717.601562 C 730.882812 693.351562 735.679688 670.953125 746.398438 650.398438 Z M 746.398438 650.398438 "/>
<path style=" stroke:none;fill-rule:evenodd;fill:rgb(49.019608%,49.019608%,49.019608%);fill-opacity:1;" d="M 1168.800781 650.398438 C 1185.816406 688.195312 1187.417969 726.59375 1173.601562 765.601562 C 1174.664062 747.980469 1176.269531 730.382812 1178.398438 712.800781 C 1175.957031 691.839844 1172.753906 671.035156 1168.800781 650.398438 Z M 1168.800781 650.398438 "/>
<path style=" stroke:none;fill-rule:evenodd;fill:rgb(24.705882%,24.705882%,24.705882%);fill-opacity:1;" d="M 1413.601562 962.398438 C 1422.773438 902.910156 1397.175781 870.910156 1336.800781 866.398438 C 1322.6875 865.839844 1309.886719 869.039062 1298.398438 876 C 1302.445312 867.96875 1308.84375 862.367188 1317.601562 859.199219 C 1369.613281 846.058594 1404.015625 864.457031 1420.800781 914.398438 C 1424.816406 931.910156 1422.417969 947.910156 1413.601562 962.398438 Z M 1413.601562 962.398438 "/>
<path style=" stroke:none;fill-rule:evenodd;fill:rgb(53.333333%,53.333333%,53.333333%);fill-opacity:1;" d="M 1413.601562 962.398438 C 1413.601562 965.601562 1412 967.199219 1408.800781 967.199219 C 1409.59375 952.714844 1408.789062 938.3125 1406.398438 924 C 1393.328125 909.308594 1378.929688 896.503906 1363.199219 885.601562 C 1330.644531 875.195312 1302.648438 881.59375 1279.199219 904.800781 C 1277.601562 904.800781 1276 904.800781 1274.398438 904.800781 C 1279.070312 892.152344 1287.070312 882.550781 1298.398438 876 C 1309.886719 869.039062 1322.6875 865.839844 1336.800781 866.398438 C 1397.175781 870.910156 1422.773438 902.910156 1413.601562 962.398438 Z M 1413.601562 962.398438 "/>
<path style=" stroke:none;fill-rule:evenodd;fill:rgb(98.823529%,98.823529%,98.823529%);fill-opacity:1;" d="M 1399.199219 986.398438 C 1397.601562 991.199219 1394.398438 994.402344 1389.601562 996 C 1310.121094 1024.023438 1270.117188 996.820312 1269.601562 914.398438 C 1268.773438 909.636719 1270.378906 906.441406 1274.398438 904.800781 C 1276 904.800781 1277.601562 904.800781 1279.199219 904.800781 C 1328.078125 884.929688 1367.273438 896.125 1396.800781 938.398438 C 1399.191406 954.320312 1399.992188 970.320312 1399.199219 986.398438 Z M 1399.199219 986.398438 "/>
<path style=" stroke:none;fill-rule:evenodd;fill:rgb(80%,80%,80%);fill-opacity:1;" d="M 1408.800781 967.199219 C 1408.03125 975.132812 1404.835938 981.53125 1399.199219 986.398438 C 1399.992188 970.320312 1399.191406 954.320312 1396.800781 938.398438 C 1367.273438 896.125 1328.078125 884.929688 1279.199219 904.800781 C 1302.648438 881.59375 1330.644531 875.195312 1363.199219 885.601562 C 1378.929688 896.503906 1393.328125 909.308594 1406.398438 924 C 1408.789062 938.3125 1409.59375 952.714844 1408.800781 967.199219 Z M 1408.800781 967.199219 "/>
<path style=" stroke:none;fill-rule:evenodd;fill:rgb(50.588235%,50.588235%,50.588235%);fill-opacity:1;" d="M 890.398438 928.800781 C 911.035156 932.753906 931.839844 935.957031 952.800781 938.398438 C 970.382812 936.269531 987.980469 934.664062 1005.601562 933.601562 C 991.074219 940.890625 975.078125 944.089844 957.601562 943.199219 C 933.351562 944.320312 910.953125 939.519531 890.398438 928.800781 Z M 890.398438 928.800781 "/>
<path style=" stroke:none;fill-rule:evenodd;fill:rgb(42.352941%,42.352941%,42.352941%);fill-opacity:1;" d="M 1260 928.800781 C 1254.132812 984.574219 1278.132812 1016.578125 1332 1024.800781 C 1346.480469 1023.511719 1360.882812 1021.910156 1375.199219 1020 C 1370.875 1030.691406 1362.878906 1035.488281 1351.199219 1034.398438 C 1285.875 1038.605469 1253.875 1008.207031 1255.199219 943.199219 C 1254.0625 937.003906 1255.660156 932.203125 1260 928.800781 Z M 1260 928.800781 "/>
<path style=" stroke:none;fill-rule:evenodd;fill:rgb(23.137255%,23.137255%,23.137255%);fill-opacity:1;" d="M 1255.199219 943.199219 C 1253.875 1008.207031 1285.875 1038.605469 1351.199219 1034.398438 C 1350.667969 1037.363281 1349.070312 1039.761719 1346.398438 1041.601562 C 1324.820312 1045.691406 1304.015625 1043.289062 1284 1034.398438 C 1272.453125 1022.480469 1262.050781 1009.679688 1252.800781 996 C 1248.910156 977.480469 1249.714844 959.886719 1255.199219 943.199219 Z M 1255.199219 943.199219 "/>
<path style=" stroke:none;fill-rule:evenodd;fill:rgb(74.509804%,74.509804%,74.509804%);fill-opacity:1;" d="M 1269.601562 914.398438 C 1270.117188 996.820312 1310.121094 1024.023438 1389.601562 996 C 1386.839844 1005.171875 1382.039062 1013.175781 1375.199219 1020 C 1360.882812 1021.910156 1346.480469 1023.511719 1332 1024.800781 C 1278.132812 1016.578125 1254.132812 984.574219 1260 928.800781 C 1259.648438 921.46875 1262.851562 916.671875 1269.601562 914.398438 Z M 1269.601562 914.398438 "/>
</g>
</svg>
