<?xml version="1.0" encoding="UTF-8"?>
<svg xmlns="http://www.w3.org/2000/svg" xmlns:xlink="http://www.w3.org/1999/xlink" width="1920pt" height="1440pt" viewBox="0 0 1920 1440" version="1.1">
<g id="surface1">
<path style=" stroke:none;fill-rule:evenodd;fill:rgb(0%,0%,0%);fill-opacity:1;" d="M -2.398438 -2.398438 C 637.597656 -2.398438 1277.601562 -2.398438 1917.601562 -2.398438 C 1917.601562 477.601562 1917.601562 957.601562 1917.601562 1437.601562 C 1277.601562 1437.601562 637.597656 1437.601562 -2.398438 1437.601562 C -2.398438 957.601562 -2.398438 477.601562 -2.398438 -2.398438 Z M -2.398438 -2.398438 "/>
<path style=" stroke:none;fill-rule:evenodd;fill:rgb(98.823529%,98.823529%,98.823529%);fill-opacity:1;" d="M 847.199219 242.398438 C 849.695312 255.324219 856.894531 264.925781 868.800781 271.199219 C 871.195312 291.9375 871.996094 312.738281 871.199219 333.601562 C 864.359375 340.425781 859.558594 348.425781 856.800781 357.601562 C 837.859375 362.527344 818.660156 363.328125 799.199219 360 C 761.566406 332.824219 750.371094 296.824219 765.601562 252 C 774.089844 234.171875 788.492188 226.175781 808.800781 228 C 822.601562 230.722656 835.402344 235.519531 847.199219 242.398438 Z M 847.199219 242.398438 "/>
<path style=" stroke:none;fill-rule:evenodd;fill:rgb(20.784314%,20.784314%,20.784314%);fill-opacity:1;" d="M 876 232.800781 C 887.210938 240.019531 896.011719 249.617188 902.398438 261.601562 C 910.953125 297.039062 903.753906 328.242188 880.800781 355.199219 C 867.671875 364.394531 853.273438 369.992188 837.601562 372 C 845.164062 368.914062 851.566406 364.113281 856.800781 357.601562 C 861.078125 354.671875 865.875 353.074219 871.199219 352.800781 C 895.277344 331.085938 904.074219 303.886719 897.601562 271.199219 C 891.089844 257.621094 883.890625 244.820312 876 232.800781 Z M 876 232.800781 "/>
<path style=" stroke:none;fill-rule:evenodd;fill:rgb(41.176471%,41.176471%,41.176471%);fill-opacity:1;" d="M 842.398438 223.199219 C 854.917969 222.722656 866.121094 225.921875 876 232.800781 C 883.890625 244.820312 891.089844 257.621094 897.601562 271.199219 C 904.074219 303.886719 895.277344 331.085938 871.199219 352.800781 C 888.089844 328.179688 893.691406 300.980469 888 271.199219 C 875.960938 251.683594 860.761719 235.679688 842.398438 223.199219 Z M 842.398438 223.199219 "/>
<path style=" stroke:none;fill-rule:evenodd;fill:rgb(62.745098%,62.745098%,62.745098%);fill-opacity:1;" d="M 842.398438 223.199219 C 860.761719 235.679688 875.960938 251.683594 888 271.199219 C 893.691406 300.980469 888.089844 328.179688 871.199219 352.800781 C 865.875 353.074219 861.078125 354.671875 856.800781 357.601562 C 859.558594 348.425781 864.359375 340.425781 871.199219 333.601562 C 889.148438 296.378906 881.144531 265.980469 847.199219 242.398438 C 835.402344 235.519531 822.601562 230.722656 808.800781 228 C 788.492188 226.175781 774.089844 234.171875 765.601562 252 C 759.203125 256.800781 752.796875 261.601562 746.398438 266.398438 C 750.792969 255.582031 757.191406 245.980469 765.601562 237.601562 C 788.664062 218.976562 814.261719 214.179688 842.398438 223.199219 Z M 842.398438 223.199219 "/>
<path style=" stroke:none;fill-rule:evenodd;fill:rgb(83.921569%,83.921569%,83.921569%);fill-opacity:1;" d="M 765.601562 252 C 750.371094 296.824219 761.566406 332.824219 799.199219 360 C 818.660156 363.328125 837.859375 362.527344 856.800781 357.601562 C 851.566406 364.113281 845.164062 368.914062 837.601562 372 C 834.398438 372 831.203125 372 828 372 C 763.632812 370.027344 736.433594 336.425781 746.398438 271.199219 C 746.398438 269.601562 746.398438 268 746.398438 266.398438 C 752.796875 261.601562 759.203125 256.800781 765.601562 252 Z M 765.601562 252 "/>
<path style=" stroke:none;fill-rule:evenodd;fill:rgb(41.960784%,41.960784%,41.568627%);fill-opacity:1;" d="M 765.601562 237.601562 C 757.191406 245.980469 750.792969 255.582031 746.398438 266.398438 C 746.398438 268 746.398438 269.601562 746.398438 271.199219 C 743.4375 271.730469 741.039062 273.332031 739.199219 276 C 735.8125 297.054688 736.609375 317.855469 741.601562 338.398438 C 735.335938 329.292969 732.140625 318.09375 732 304.800781 C 732.46875 290.15625 734.070312 275.757812 736.800781 261.601562 C 743.574219 250.011719 753.171875 242.011719 765.601562 237.601562 Z M 765.601562 237.601562 "/>
<path style=" stroke:none;fill-rule:evenodd;fill:rgb(57.254902%,57.254902%,56.862745%);fill-opacity:1;" d="M 746.398438 271.199219 C 736.433594 336.425781 763.632812 370.027344 828 372 C 826.359375 376.023438 823.160156 377.625 818.398438 376.800781 C 795.925781 377.578125 775.128906 371.976562 756 360 C 748.125 354.582031 743.324219 347.378906 741.601562 338.398438 C 736.609375 317.855469 735.8125 297.054688 739.199219 276 C 741.039062 273.332031 743.4375 271.730469 746.398438 271.199219 Z M 746.398438 271.199219 "/>
<path style=" stroke:none;fill-rule:evenodd;fill:rgb(81.960784%,81.960784%,81.960784%);fill-opacity:1;" d="M 847.199219 242.398438 C 881.144531 265.980469 889.148438 296.378906 871.199219 333.601562 C 871.996094 312.738281 871.195312 291.9375 868.800781 271.199219 C 856.894531 264.925781 849.695312 255.324219 847.199219 242.398438 Z M 847.199219 242.398438 "/>
<path style=" stroke:none;fill-rule:evenodd;fill:rgb(23.921569%,23.921569%,23.921569%);fill-opacity:1;" d="M 736.800781 261.601562 C 734.070312 275.757812 732.46875 290.15625 732 304.800781 C 732.140625 318.09375 735.335938 329.292969 741.601562 338.398438 C 743.324219 347.378906 748.125 354.582031 756 360 C 775.128906 371.976562 795.925781 377.578125 818.398438 376.800781 C 781.070312 388.699219 751.46875 377.496094 729.601562 343.199219 C 720 317.601562 720 292 729.601562 266.398438 C 731.4375 263.730469 733.839844 262.132812 736.800781 261.601562 Z M 736.800781 261.601562 "/>
<path style=" stroke:none;fill-rule:evenodd;fill:rgb(97.254902%,97.254902%,97.254902%);fill-opacity:1;" d="M 904.800781 391.199219 C 1048.871094 382.042969 1161.671875 436.445312 1243.199219 554.398438 C 1311.078125 698.585938 1292.679688 830.585938 1188 950.398438 C 1055.125 1062.476562 914.324219 1073.671875 765.601562 984 C 637.726562 875.53125 601.726562 741.929688 657.601562 583.199219 C 710.175781 480.164062 792.570312 416.164062 904.800781 391.199219 Z M 904.800781 391.199219 "/>
<path style=" stroke:none;fill-rule:evenodd;fill:rgb(55.686275%,55.686275%,55.686275%);fill-opacity:1;" d="M 981.601562 492 C 950.609375 490.714844 920.210938 493.914062 890.398438 501.601562 C 919.722656 487.160156 950.121094 483.964844 981.601562 492 Z M 981.601562 492 "/>
<path style=" stroke:none;fill-rule:evenodd;fill:rgb(0.392157%,0.392157%,0.392157%);fill-opacity:1;" d="M 981.601562 492 C 983.199219 492 984.800781 492 986.398438 492 C 997.945312 498.085938 1010.746094 501.289062 1024.800781 501.601562 C 1077.203125 519.773438 1118.804688 551.773438 1149.601562 597.601562 C 1149.25 604.929688 1152.453125 609.730469 1159.199219 612 C 1164 624.800781 1168.800781 637.597656 1173.601562 650.398438 C 1181.285156 680.210938 1184.488281 710.609375 1183.199219 741.601562 C 1168.914062 837.359375 1116.113281 901.363281 1024.800781 933.601562 C 1010.746094 933.910156 997.945312 937.113281 986.398438 943.199219 C 965.601562 943.199219 944.796875 943.199219 924 943.199219 C 914.328125 936.363281 903.128906 933.167969 890.398438 933.601562 C 877.597656 928.800781 864.800781 924 852 919.199219 C 849.730469 912.453125 844.929688 909.25 837.601562 909.601562 C 785.257812 874.832031 751.65625 826.832031 736.800781 765.601562 C 733.34375 738.539062 731.746094 711.339844 732 684 C 738.835938 674.328125 742.03125 663.128906 741.601562 650.398438 C 746.398438 637.597656 751.199219 624.800781 756 612 C 762.75 609.730469 765.949219 604.929688 765.601562 597.601562 C 794.542969 549.488281 836.144531 517.492188 890.398438 501.601562 C 920.210938 493.914062 950.609375 490.714844 981.601562 492 Z M 981.601562 492 "/>
<path style=" stroke:none;fill-rule:evenodd;fill:rgb(64.705882%,64.705882%,64.705882%);fill-opacity:1;" d="M 986.398438 492 C 1001.75 489.425781 1014.550781 492.628906 1024.800781 501.601562 C 1010.746094 501.289062 997.945312 498.085938 986.398438 492 Z M 986.398438 492 "/>
<path style=" stroke:none;fill-rule:evenodd;fill:rgb(41.568627%,41.568627%,41.568627%);fill-opacity:1;" d="M 765.601562 597.601562 C 765.949219 604.929688 762.75 609.730469 756 612 C 755.648438 604.671875 758.851562 599.871094 765.601562 597.601562 Z M 765.601562 597.601562 "/>
<path style=" stroke:none;fill-rule:evenodd;fill:rgb(41.568627%,41.568627%,41.568627%);fill-opacity:1;" d="M 1149.601562 597.601562 C 1156.347656 599.871094 1159.550781 604.671875 1159.199219 612 C 1152.453125 609.730469 1149.25 604.929688 1149.601562 597.601562 Z M 1149.601562 597.601562 "/>
<path style=" stroke:none;fill-rule:evenodd;fill:rgb(41.568627%,41.568627%,41.568627%);fill-opacity:1;" d="M 741.601562 650.398438 C 742.03125 663.128906 738.835938 674.328125 732 684 C 731.566406 671.269531 734.765625 660.070312 741.601562 650.398438 Z M 741.601562 650.398438 "/>
<path style=" stroke:none;fill-rule:evenodd;fill:rgb(57.647059%,57.647059%,57.647059%);fill-opacity:1;" d="M 1173.601562 650.398438 C 1188.039062 679.722656 1191.234375 710.121094 1183.199219 741.601562 C 1184.488281 710.609375 1181.285156 680.210938 1173.601562 650.398438 Z M 1173.601562 650.398438 "/>
<path style=" stroke:none;fill-rule:evenodd;fill:rgb(58.823529%,58.823529%,58.823529%);fill-opacity:1;" d="M 732 684 C 731.746094 711.339844 733.34375 738.539062 736.800781 765.601562 C 729.820312 750.152344 726.621094 733.355469 727.199219 715.199219 C 727.21875 703.867188 728.816406 693.46875 732 684 Z M 732 684 "/>
<path style=" stroke:none;fill-rule:evenodd;fill:rgb(41.568627%,41.568627%,41.568627%);fill-opacity:1;" d="M 837.601562 909.601562 C 844.929688 909.25 849.730469 912.453125 852 919.199219 C 844.671875 919.550781 839.871094 916.347656 837.601562 909.601562 Z M 837.601562 909.601562 "/>
<path style=" stroke:none;fill-rule:evenodd;fill:rgb(41.568627%,41.568627%,41.568627%);fill-opacity:1;" d="M 890.398438 933.601562 C 903.128906 933.167969 914.328125 936.363281 924 943.199219 C 911.269531 943.632812 900.070312 940.433594 890.398438 933.601562 Z M 890.398438 933.601562 "/>
<path style=" stroke:none;fill-rule:evenodd;fill:rgb(64.705882%,64.705882%,64.705882%);fill-opacity:1;" d="M 1024.800781 933.601562 C 1014.550781 942.570312 1001.75 945.773438 986.398438 943.199219 C 997.945312 937.113281 1010.746094 933.910156 1024.800781 933.601562 Z M 1024.800781 933.601562 "/>
<path style=" stroke:none;fill-rule:evenodd;fill:rgb(98.431373%,98.431373%,98.431373%);fill-opacity:1;" d="M 1077.601562 1063.199219 C 1079.199219 1063.199219 1080.800781 1063.199219 1082.398438 1063.199219 C 1095.539062 1062.726562 1108.339844 1064.328125 1120.800781 1068 C 1134.277344 1081.84375 1147.875 1096.242188 1161.601562 1111.199219 C 1164.800781 1128.800781 1164.800781 1146.398438 1161.601562 1164 C 1152.355469 1173.453125 1146.757812 1184.648438 1144.800781 1197.601562 C 1122.558594 1202.671875 1100.160156 1202.671875 1077.601562 1197.601562 C 1061.832031 1178.957031 1050.632812 1158.152344 1044 1135.199219 C 1047.90625 1112.960938 1055.902344 1092.160156 1068 1072.800781 C 1072.800781 1071.203125 1076 1068 1077.601562 1063.199219 Z M 1077.601562 1063.199219 "/>
<path style=" stroke:none;fill-rule:evenodd;fill:rgb(50.980392%,50.980392%,50.980392%);fill-opacity:1;" d="M 1082.398438 1063.199219 C 1084.042969 1059.175781 1087.238281 1057.574219 1092 1058.398438 C 1166.019531 1059.632812 1193.21875 1094.832031 1173.601562 1164 C 1178.984375 1132.558594 1170.984375 1105.363281 1149.601562 1082.398438 C 1141.234375 1075.019531 1131.632812 1070.21875 1120.800781 1068 C 1108.339844 1064.328125 1095.539062 1062.726562 1082.398438 1063.199219 Z M 1082.398438 1063.199219 "/>
<path style=" stroke:none;fill-rule:evenodd;fill:rgb(44.313725%,44.313725%,44.313725%);fill-opacity:1;" d="M 1077.601562 1063.199219 C 1076 1068 1072.800781 1071.203125 1068 1072.800781 C 1064.453125 1072.171875 1061.25 1072.972656 1058.398438 1075.199219 C 1050.941406 1086.175781 1042.9375 1096.578125 1034.398438 1106.398438 C 1019.394531 1150.847656 1032.195312 1185.246094 1072.800781 1209.601562 C 1085.5 1211.984375 1098.300781 1212.789062 1111.199219 1212 C 1083.191406 1220.308594 1056.792969 1215.507812 1032 1197.601562 C 1026.75 1190.027344 1022.746094 1182.023438 1020 1173.601562 C 1017.546875 1145.195312 1020.75 1117.992188 1029.601562 1092 C 1041.894531 1076.558594 1057.894531 1066.957031 1077.601562 1063.199219 Z M 1077.601562 1063.199219 "/>
<path style=" stroke:none;fill-rule:evenodd;fill:rgb(26.666667%,26.666667%,26.666667%);fill-opacity:1;" d="M 1029.601562 1092 C 1020.75 1117.992188 1017.546875 1145.195312 1020 1173.601562 C 1017.039062 1173.066406 1014.636719 1171.46875 1012.800781 1168.800781 C 1009.597656 1149.601562 1009.597656 1130.398438 1012.800781 1111.199219 C 1015.96875 1102.445312 1021.570312 1096.046875 1029.601562 1092 Z M 1029.601562 1092 "/>
<path style=" stroke:none;fill-rule:evenodd;fill:rgb(80.392157%,80.392157%,80.392157%);fill-opacity:1;" d="M 1068 1072.800781 C 1055.902344 1092.160156 1047.90625 1112.960938 1044 1135.199219 C 1050.632812 1158.152344 1061.832031 1178.957031 1077.601562 1197.601562 C 1038.957031 1179.484375 1024.554688 1149.085938 1034.398438 1106.398438 C 1042.9375 1096.578125 1050.941406 1086.175781 1058.398438 1075.199219 C 1061.25 1072.972656 1064.453125 1072.171875 1068 1072.800781 Z M 1068 1072.800781 "/>
<path style=" stroke:none;fill-rule:evenodd;fill:rgb(32.54902%,32.54902%,32.54902%);fill-opacity:1;" d="M 1092 1058.398438 C 1125.132812 1049.578125 1154.734375 1057.578125 1180.800781 1082.398438 C 1191.917969 1115.285156 1190.320312 1147.28125 1176 1178.398438 C 1169.035156 1187.828125 1160.238281 1194.226562 1149.601562 1197.601562 C 1156.484375 1185.375 1164.480469 1174.171875 1173.601562 1164 C 1193.21875 1094.832031 1166.019531 1059.632812 1092 1058.398438 Z M 1092 1058.398438 "/>
<path style=" stroke:none;fill-rule:evenodd;fill:rgb(72.156863%,72.156863%,72.156863%);fill-opacity:1;" d="M 1120.800781 1068 C 1131.632812 1070.21875 1141.234375 1075.019531 1149.601562 1082.398438 C 1170.984375 1105.363281 1178.984375 1132.558594 1173.601562 1164 C 1164.480469 1174.171875 1156.484375 1185.375 1149.601562 1197.601562 C 1148 1197.601562 1146.398438 1197.601562 1144.800781 1197.601562 C 1146.757812 1184.648438 1152.355469 1173.453125 1161.601562 1164 C 1164.800781 1146.398438 1164.800781 1128.800781 1161.601562 1111.199219 C 1147.875 1096.242188 1134.277344 1081.84375 1120.800781 1068 Z M 1120.800781 1068 "/>
<path style=" stroke:none;fill-rule:evenodd;fill:rgb(68.235294%,68.235294%,68.235294%);fill-opacity:1;" d="M 1034.398438 1106.398438 C 1024.554688 1149.085938 1038.957031 1179.484375 1077.601562 1197.601562 C 1100.160156 1202.671875 1122.558594 1202.671875 1144.800781 1197.601562 C 1136.753906 1208.804688 1125.558594 1213.601562 1111.199219 1212 C 1098.300781 1212.789062 1085.5 1211.984375 1072.800781 1209.601562 C 1032.195312 1185.246094 1019.394531 1150.847656 1034.398438 1106.398438 Z M 1034.398438 1106.398438 "/>
</g>
</svg>
