<?xml version="1.0" encoding="UTF-8"?>
<svg xmlns="http://www.w3.org/2000/svg" xmlns:xlink="http://www.w3.org/1999/xlink" width="1920pt" height="1440pt" viewBox="0 0 1920 1440" version="1.1">
<g id="surface1">
<path style=" stroke:none;fill-rule:evenodd;fill:rgb(0%,0%,0%);fill-opacity:1;" d="M -2.398438 -2.398438 C 637.597656 -2.398438 1277.601562 -2.398438 1917.601562 -2.398438 C 1917.601562 477.601562 1917.601562 957.601562 1917.601562 1437.601562 C 1277.601562 1437.601562 637.597656 1437.601562 -2.398438 1437.601562 C -2.398438 957.601562 -2.398438 477.601562 -2.398438 -2.398438 Z M -2.398438 -2.398438 "/>
<path style=" stroke:none;fill-rule:evenodd;fill:rgb(99.215686%,99.215686%,99.215686%);fill-opacity:1;" d="M 1034.398438 228 C 1048.199219 271.339844 1038.601562 308.140625 1005.601562 338.398438 C 994.8125 342.597656 983.617188 344.195312 972 343.199219 C 966.191406 341.125 961.390625 337.925781 957.601562 333.601562 C 929.933594 290.578125 933.128906 249.777344 967.199219 211.199219 C 991.871094 207.765625 1014.269531 213.367188 1034.398438 228 Z M 1034.398438 228 "/>
<path style=" stroke:none;fill-rule:evenodd;fill:rgb(33.333333%,33.333333%,33.333333%);fill-opacity:1;" d="M 1005.601562 204 C 1005.601562 202.398438 1005.601562 200.800781 1005.601562 199.199219 C 1017.25 199.308594 1028.449219 201.710938 1039.199219 206.398438 C 1051.378906 220.1875 1064.976562 232.1875 1080 242.398438 C 1091.144531 295.910156 1071.144531 331.113281 1020 348 C 1032.820312 336.316406 1046.417969 325.117188 1060.800781 314.398438 C 1070.398438 288.800781 1070.398438 263.199219 1060.800781 237.601562 C 1050.789062 228.300781 1040.390625 220.300781 1029.601562 213.601562 C 1023.457031 206.730469 1015.453125 203.53125 1005.601562 204 Z M 1005.601562 204 "/>
<path style=" stroke:none;fill-rule:evenodd;fill:rgb(85.098039%,85.098039%,85.098039%);fill-opacity:1;" d="M 1005.601562 204 C 1015.453125 203.53125 1023.457031 206.730469 1029.601562 213.601562 C 1032.527344 217.875 1034.125 222.675781 1034.398438 228 C 1014.269531 213.367188 991.871094 207.765625 967.199219 211.199219 C 933.128906 249.777344 929.933594 290.578125 957.601562 333.601562 C 942.519531 332.164062 932.117188 324.164062 926.398438 309.601562 C 918.542969 267.550781 930.542969 233.148438 962.398438 206.398438 C 976.714844 204.007812 991.113281 203.210938 1005.601562 204 Z M 1005.601562 204 "/>
<path style=" stroke:none;fill-rule:evenodd;fill:rgb(28.235294%,28.235294%,28.235294%);fill-opacity:1;" d="M 957.601562 199.199219 C 903.34375 225.988281 889.746094 267.589844 916.800781 324 C 928.445312 333.371094 940.445312 341.371094 952.800781 348 C 889.242188 329.050781 872.441406 289.050781 902.398438 228 C 917.007812 210.964844 935.40625 201.363281 957.601562 199.199219 Z M 957.601562 199.199219 "/>
<path style=" stroke:none;fill-rule:evenodd;fill:rgb(57.254902%,57.254902%,57.254902%);fill-opacity:1;" d="M 957.601562 199.199219 C 973.597656 199.199219 989.601562 199.199219 1005.601562 199.199219 C 1005.601562 200.800781 1005.601562 202.398438 1005.601562 204 C 991.113281 203.210938 976.714844 204.007812 962.398438 206.398438 C 930.542969 233.148438 918.542969 267.550781 926.398438 309.601562 C 932.117188 324.164062 942.519531 332.164062 957.601562 333.601562 C 961.390625 337.925781 966.191406 341.125 972 343.199219 C 982.214844 348.621094 993.414062 349.417969 1005.601562 345.601562 C 1053.863281 320.265625 1066.664062 282.667969 1044 232.800781 C 1040.722656 231.058594 1037.519531 229.457031 1034.398438 228 C 1034.125 222.675781 1032.527344 217.875 1029.601562 213.601562 C 1040.390625 220.300781 1050.789062 228.300781 1060.800781 237.601562 C 1070.398438 263.199219 1070.398438 288.800781 1060.800781 314.398438 C 1046.417969 325.117188 1032.820312 336.316406 1020 348 C 997.449219 354.136719 975.046875 354.136719 952.800781 348 C 940.445312 341.371094 928.445312 333.371094 916.800781 324 C 889.746094 267.589844 903.34375 225.988281 957.601562 199.199219 Z M 957.601562 199.199219 "/>
<path style=" stroke:none;fill-rule:evenodd;fill:rgb(82.352941%,82.352941%,82.352941%);fill-opacity:1;" d="M 1034.398438 228 C 1037.519531 229.457031 1040.722656 231.058594 1044 232.800781 C 1066.664062 282.667969 1053.863281 320.265625 1005.601562 345.601562 C 993.414062 349.417969 982.214844 348.621094 972 343.199219 C 983.617188 344.195312 994.8125 342.597656 1005.601562 338.398438 C 1038.601562 308.140625 1048.199219 271.339844 1034.398438 228 Z M 1034.398438 228 "/>
<path style=" stroke:none;fill-rule:evenodd;fill:rgb(98.039216%,98.039216%,98.039216%);fill-opacity:1;" d="M 1039.199219 415.199219 C 1046.351562 423.742188 1055.953125 426.941406 1068 424.800781 C 1130.308594 449.476562 1180.707031 489.476562 1219.199219 544.800781 C 1230.585938 561.167969 1239.382812 578.769531 1245.601562 597.601562 C 1246.511719 613.703125 1251.3125 628.105469 1260 640.800781 C 1264.566406 647.609375 1266.164062 655.609375 1264.800781 664.800781 C 1268.671875 693.425781 1270.273438 722.226562 1269.601562 751.199219 C 1263.433594 766.027344 1260.234375 782.027344 1260 799.199219 C 1251.457031 806.351562 1248.257812 815.953125 1250.398438 828 C 1219.609375 902.015625 1168.410156 958.019531 1096.800781 996 C 1089.46875 995.648438 1084.671875 998.851562 1082.398438 1005.601562 C 1071.824219 1006.097656 1062.226562 1009.296875 1053.601562 1015.199219 C 1039.808594 1016.648438 1027.011719 1019.851562 1015.199219 1024.800781 C 992.894531 1027.109375 970.492188 1028.707031 948 1029.601562 C 924.363281 1030.300781 901.964844 1027.097656 880.800781 1020 C 868.105469 1011.3125 853.703125 1006.511719 837.601562 1005.601562 C 755.195312 970.277344 697.59375 911.074219 664.800781 828 C 666.941406 815.953125 663.742188 806.351562 655.199219 799.199219 C 649.507812 769.113281 646.304688 738.710938 645.601562 708 C 644.898438 684.363281 648.101562 661.964844 655.199219 640.800781 C 663.886719 628.105469 668.6875 613.703125 669.601562 597.601562 C 701.871094 517.328125 757.871094 461.328125 837.601562 429.601562 C 853.703125 428.691406 868.105469 423.890625 880.800781 415.199219 C 903.675781 408.621094 927.675781 405.421875 952.800781 405.601562 C 981.847656 406.933594 1010.648438 410.132812 1039.199219 415.199219 Z M 1039.199219 415.199219 "/>
<path style=" stroke:none;fill-rule:evenodd;fill:rgb(65.490196%,65.490196%,65.490196%);fill-opacity:1;" d="M 880.800781 415.199219 C 868.105469 423.890625 853.703125 428.691406 837.601562 429.601562 C 850.003906 420.132812 864.402344 415.332031 880.800781 415.199219 Z M 880.800781 415.199219 "/>
<path style=" stroke:none;fill-rule:evenodd;fill:rgb(60.784314%,60.784314%,60.784314%);fill-opacity:1;" d="M 1039.199219 415.199219 C 1050.171875 415.65625 1059.773438 418.855469 1068 424.800781 C 1055.953125 426.941406 1046.351562 423.742188 1039.199219 415.199219 Z M 1039.199219 415.199219 "/>
<path style=" stroke:none;fill-rule:evenodd;fill:rgb(0.784314%,0.784314%,0.784314%);fill-opacity:1;" d="M 996 530.398438 C 1005.671875 537.234375 1016.871094 540.433594 1029.601562 540 C 1119.542969 583.851562 1157.941406 655.851562 1144.800781 756 C 1137.964844 765.671875 1134.769531 776.871094 1135.199219 789.601562 C 1078.050781 894.085938 991.652344 928.488281 876 892.800781 C 832.433594 868.644531 800.433594 834.25 780 789.601562 C 780.433594 776.871094 777.234375 765.671875 770.398438 756 C 756.8125 660.894531 792.007812 590.492188 876 544.800781 C 891.113281 545.207031 903.917969 540.40625 914.398438 530.398438 C 941.601562 524 968.796875 524 996 530.398438 Z M 996 530.398438 "/>
<path style=" stroke:none;fill-rule:evenodd;fill:rgb(53.72549%,53.72549%,53.72549%);fill-opacity:1;" d="M 996 530.398438 C 1008.730469 529.96875 1019.929688 533.164062 1029.601562 540 C 1016.871094 540.433594 1005.671875 537.234375 996 530.398438 Z M 996 530.398438 "/>
<path style=" stroke:none;fill-rule:evenodd;fill:rgb(28.235294%,28.235294%,28.235294%);fill-opacity:1;" d="M 914.398438 530.398438 C 903.917969 540.40625 891.113281 545.207031 876 544.800781 C 887 536.320312 899.796875 531.519531 914.398438 530.398438 Z M 914.398438 530.398438 "/>
<path style=" stroke:none;fill-rule:evenodd;fill:rgb(65.882353%,65.882353%,65.882353%);fill-opacity:1;" d="M 669.601562 597.601562 C 668.6875 613.703125 663.886719 628.105469 655.199219 640.800781 C 655.335938 624.402344 660.132812 610.003906 669.601562 597.601562 Z M 669.601562 597.601562 "/>
<path style=" stroke:none;fill-rule:evenodd;fill:rgb(65.882353%,65.882353%,65.882353%);fill-opacity:1;" d="M 1245.601562 597.601562 C 1255.066406 610.003906 1259.867188 624.402344 1260 640.800781 C 1251.3125 628.105469 1246.511719 613.703125 1245.601562 597.601562 Z M 1245.601562 597.601562 "/>
<path style=" stroke:none;fill-rule:evenodd;fill:rgb(18.431373%,18.431373%,18.431373%);fill-opacity:1;" d="M 1264.800781 664.800781 C 1272.144531 680.136719 1275.339844 696.9375 1274.398438 715.199219 C 1274.386719 728.113281 1272.789062 740.113281 1269.601562 751.199219 C 1270.273438 722.226562 1268.671875 693.425781 1264.800781 664.800781 Z M 1264.800781 664.800781 "/>
<path style=" stroke:none;fill-rule:evenodd;fill:rgb(53.72549%,53.72549%,53.72549%);fill-opacity:1;" d="M 770.398438 756 C 777.234375 765.671875 780.433594 776.871094 780 789.601562 C 773.164062 779.929688 769.96875 768.730469 770.398438 756 Z M 770.398438 756 "/>
<path style=" stroke:none;fill-rule:evenodd;fill:rgb(53.72549%,53.72549%,53.72549%);fill-opacity:1;" d="M 1144.800781 756 C 1145.230469 768.730469 1142.035156 779.929688 1135.199219 789.601562 C 1134.769531 776.871094 1137.964844 765.671875 1144.800781 756 Z M 1144.800781 756 "/>
<path style=" stroke:none;fill-rule:evenodd;fill:rgb(60.784314%,60.784314%,60.784314%);fill-opacity:1;" d="M 655.199219 799.199219 C 663.742188 806.351562 666.941406 815.953125 664.800781 828 C 658.859375 819.773438 655.65625 810.171875 655.199219 799.199219 Z M 655.199219 799.199219 "/>
<path style=" stroke:none;fill-rule:evenodd;fill:rgb(60.784314%,60.784314%,60.784314%);fill-opacity:1;" d="M 1260 799.199219 C 1259.542969 810.171875 1256.34375 819.773438 1250.398438 828 C 1248.257812 815.953125 1251.457031 806.351562 1260 799.199219 Z M 1260 799.199219 "/>
<path style=" stroke:none;fill-rule:evenodd;fill:rgb(38.431373%,38.431373%,38.431373%);fill-opacity:1;" d="M 1096.800781 996 C 1094.53125 1002.75 1089.730469 1005.949219 1082.398438 1005.601562 C 1084.671875 998.851562 1089.46875 995.648438 1096.800781 996 Z M 1096.800781 996 "/>
<path style=" stroke:none;fill-rule:evenodd;fill:rgb(65.882353%,65.882353%,65.490196%);fill-opacity:1;" d="M 837.601562 1005.601562 C 853.703125 1006.511719 868.105469 1011.3125 880.800781 1020 C 864.402344 1019.867188 850.003906 1015.066406 837.601562 1005.601562 Z M 837.601562 1005.601562 "/>
<path style=" stroke:none;fill-rule:evenodd;fill:rgb(29.019608%,29.019608%,29.019608%);fill-opacity:1;" d="M 1053.601562 1015.199219 C 1042.65625 1023.46875 1029.855469 1026.667969 1015.199219 1024.800781 C 1027.011719 1019.851562 1039.808594 1016.648438 1053.601562 1015.199219 Z M 1053.601562 1015.199219 "/>
<path style=" stroke:none;fill-rule:evenodd;fill:rgb(25.490196%,25.490196%,25.490196%);fill-opacity:1;" d="M 943.199219 1087.199219 C 943.199219 1085.601562 943.199219 1084 943.199219 1082.398438 C 959.09375 1081.472656 971.894531 1086.273438 981.601562 1096.800781 C 970.402344 1093.597656 959.199219 1090.402344 948 1087.199219 C 946.402344 1087.199219 944.796875 1087.199219 943.199219 1087.199219 Z M 943.199219 1087.199219 "/>
<path style=" stroke:none;fill-rule:evenodd;fill:rgb(29.803922%,29.803922%,29.803922%);fill-opacity:1;" d="M 890.398438 1087.199219 C 845.699219 1113.761719 835.300781 1150.566406 859.199219 1197.601562 C 867.679688 1213.304688 879.679688 1224.503906 895.199219 1231.199219 C 888.609375 1231.953125 882.207031 1231.152344 876 1228.800781 C 833.417969 1198.597656 823.023438 1159.402344 844.800781 1111.199219 C 857.289062 1097.363281 872.488281 1089.359375 890.398438 1087.199219 Z M 890.398438 1087.199219 "/>
<path style=" stroke:none;fill-rule:evenodd;fill:rgb(26.666667%,26.666667%,26.666667%);fill-opacity:1;" d="M 981.601562 1096.800781 C 1021.265625 1112.132812 1035.667969 1140.929688 1024.800781 1183.199219 C 1010.203125 1210.953125 987.804688 1228.554688 957.601562 1236 C 972.902344 1225.488281 988.105469 1214.285156 1003.199219 1202.398438 C 1004.238281 1193.355469 1007.4375 1185.355469 1012.800781 1178.398438 C 1016.742188 1163.742188 1015.945312 1149.339844 1010.398438 1135.199219 C 1002.667969 1121.058594 993.066406 1108.257812 981.601562 1096.800781 Z M 981.601562 1096.800781 "/>
<path style=" stroke:none;fill-rule:evenodd;fill:rgb(54.901961%,54.901961%,54.901961%);fill-opacity:1;" d="M 943.199219 1082.398438 C 943.199219 1084 943.199219 1085.601562 943.199219 1087.199219 C 881.660156 1086.957031 855.257812 1117.355469 864 1178.398438 C 870.566406 1191.292969 876.964844 1204.09375 883.199219 1216.800781 C 888.054688 1220.816406 893.65625 1222.414062 900 1221.601562 C 900.53125 1224.5625 902.132812 1226.960938 904.800781 1228.800781 C 915.886719 1231.1875 927.085938 1231.980469 938.398438 1231.199219 C 994.703125 1216.171875 1011.503906 1180.972656 988.800781 1125.601562 C 978.445312 1108.914062 964.847656 1096.113281 948 1087.199219 C 959.199219 1090.402344 970.402344 1093.597656 981.601562 1096.800781 C 993.066406 1108.257812 1002.667969 1121.058594 1010.398438 1135.199219 C 1015.945312 1149.339844 1016.742188 1163.742188 1012.800781 1178.398438 C 1007.4375 1185.355469 1004.238281 1193.355469 1003.199219 1202.398438 C 988.105469 1214.285156 972.902344 1225.488281 957.601562 1236 C 936.332031 1237.292969 915.527344 1235.691406 895.199219 1231.199219 C 879.679688 1224.503906 867.679688 1213.304688 859.199219 1197.601562 C 835.300781 1150.566406 845.699219 1113.761719 890.398438 1087.199219 C 907.507812 1082.769531 925.109375 1081.171875 943.199219 1082.398438 Z M 943.199219 1082.398438 "/>
<path style=" stroke:none;fill-rule:evenodd;fill:rgb(78.431373%,78.431373%,78.431373%);fill-opacity:1;" d="M 943.199219 1087.199219 C 944.796875 1087.199219 946.402344 1087.199219 948 1087.199219 C 964.847656 1096.113281 978.445312 1108.914062 988.800781 1125.601562 C 1011.503906 1180.972656 994.703125 1216.171875 938.398438 1231.199219 C 979.726562 1210.027344 993.332031 1176.425781 979.199219 1130.398438 C 970.28125 1113.5 956.679688 1101.5 938.398438 1094.398438 C 885.484375 1096.703125 863.886719 1124.707031 873.601562 1178.398438 C 880.046875 1194.539062 888.84375 1208.9375 900 1221.601562 C 893.65625 1222.414062 888.054688 1220.816406 883.199219 1216.800781 C 876.964844 1204.09375 870.566406 1191.292969 864 1178.398438 C 855.257812 1117.355469 881.660156 1086.957031 943.199219 1087.199219 Z M 943.199219 1087.199219 "/>
<path style=" stroke:none;fill-rule:evenodd;fill:rgb(98.431373%,98.431373%,98.431373%);fill-opacity:1;" d="M 938.398438 1231.199219 C 927.085938 1231.980469 915.886719 1231.1875 904.800781 1228.800781 C 902.132812 1226.960938 900.53125 1224.5625 900 1221.601562 C 888.84375 1208.9375 880.046875 1194.539062 873.601562 1178.398438 C 863.886719 1124.707031 885.484375 1096.703125 938.398438 1094.398438 C 956.679688 1101.5 970.28125 1113.5 979.199219 1130.398438 C 993.332031 1176.425781 979.726562 1210.027344 938.398438 1231.199219 Z M 938.398438 1231.199219 "/>
</g>
</svg>
