<?xml version="1.0" encoding="UTF-8"?>
<svg xmlns="http://www.w3.org/2000/svg" xmlns:xlink="http://www.w3.org/1999/xlink" width="1920pt" height="1440pt" viewBox="0 0 1920 1440" version="1.1">
<g id="surface1">
<path style=" stroke:none;fill-rule:evenodd;fill:rgb(0%,0%,0%);fill-opacity:1;" d="M -2.398438 -2.398438 C 637.597656 -2.398438 1277.601562 -2.398438 1917.601562 -2.398438 C 1917.601562 477.601562 1917.601562 957.601562 1917.601562 1437.601562 C 1277.601562 1437.601562 637.597656 1437.601562 -2.398438 1437.601562 C -2.398438 957.601562 -2.398438 477.601562 -2.398438 -2.398438 Z M -2.398438 -2.398438 "/>
<path style=" stroke:none;fill-rule:evenodd;fill:rgb(98.823529%,98.823529%,98.823529%);fill-opacity:1;" d="M 1044 218.398438 C 1060.078125 217.609375 1076.078125 218.40625 1092 220.800781 C 1104.488281 231.03125 1117.285156 239.832031 1130.398438 247.199219 C 1130.398438 253.601562 1130.398438 260 1130.398438 266.398438 C 1130.105469 338.492188 1094.910156 367.289062 1024.800781 352.800781 C 1024.800781 351.199219 1024.800781 349.601562 1024.800781 348 C 1000.398438 299.691406 1006.796875 256.492188 1044 218.398438 Z M 1044 218.398438 "/>
<path style=" stroke:none;fill-rule:evenodd;fill:rgb(45.490196%,45.490196%,45.490196%);fill-opacity:1;" d="M 1034.398438 218.398438 C 1024.636719 230.105469 1014.234375 241.304688 1003.199219 252 C 988.179688 289.886719 995.378906 321.886719 1024.800781 348 C 1024.800781 349.601562 1024.800781 351.199219 1024.800781 352.800781 C 1012.152344 348.128906 1002.550781 340.128906 996 328.800781 C 973.167969 278.695312 985.96875 241.894531 1034.398438 218.398438 Z M 1034.398438 218.398438 "/>
<path style=" stroke:none;fill-rule:evenodd;fill:rgb(65.098039%,65.098039%,65.098039%);fill-opacity:1;" d="M 1044 218.398438 C 1055.75 213.730469 1068.550781 212.128906 1082.398438 213.601562 C 1103.113281 215.195312 1120.707031 223.195312 1135.199219 237.601562 C 1144.78125 262.015625 1147.179688 287.617188 1142.398438 314.398438 C 1140.5625 317.070312 1138.160156 318.667969 1135.199219 319.199219 C 1137.1875 308.121094 1138.785156 296.917969 1140 285.601562 C 1139.59375 276.800781 1136.390625 270.402344 1130.398438 266.398438 C 1130.398438 260 1130.398438 253.601562 1130.398438 247.199219 C 1117.285156 239.832031 1104.488281 231.03125 1092 220.800781 C 1076.078125 218.40625 1060.078125 217.609375 1044 218.398438 Z M 1044 218.398438 "/>
<path style=" stroke:none;fill-rule:evenodd;fill:rgb(25.882353%,25.882353%,25.882353%);fill-opacity:1;" d="M 1082.398438 213.601562 C 1068.550781 212.128906 1055.75 213.730469 1044 218.398438 C 1040.796875 218.398438 1037.601562 218.398438 1034.398438 218.398438 C 985.96875 241.894531 973.167969 278.695312 996 328.800781 C 988.964844 324.734375 984.960938 318.335938 984 309.601562 C 973.175781 248.410156 998.773438 214.808594 1060.800781 208.800781 C 1068.992188 208.839844 1076.195312 210.441406 1082.398438 213.601562 Z M 1082.398438 213.601562 "/>
<path style=" stroke:none;fill-rule:evenodd;fill:rgb(72.54902%,72.54902%,72.54902%);fill-opacity:1;" d="M 1034.398438 218.398438 C 1037.601562 218.398438 1040.796875 218.398438 1044 218.398438 C 1006.796875 256.492188 1000.398438 299.691406 1024.800781 348 C 995.378906 321.886719 988.179688 289.886719 1003.199219 252 C 1014.234375 241.304688 1024.636719 230.105469 1034.398438 218.398438 Z M 1034.398438 218.398438 "/>
<path style=" stroke:none;fill-rule:evenodd;fill:rgb(76.862745%,76.862745%,76.862745%);fill-opacity:1;" d="M 1130.398438 266.398438 C 1136.390625 270.402344 1139.59375 276.800781 1140 285.601562 C 1138.785156 296.917969 1137.1875 308.121094 1135.199219 319.199219 C 1135.914062 324.25 1135.117188 329.050781 1132.800781 333.601562 C 1109.378906 359.800781 1079.777344 369.402344 1044 362.398438 C 1036.066406 361.632812 1029.667969 358.433594 1024.800781 352.800781 C 1094.910156 367.289062 1130.105469 338.492188 1130.398438 266.398438 Z M 1130.398438 266.398438 "/>
<path style=" stroke:none;fill-rule:evenodd;fill:rgb(35.686275%,35.686275%,35.294118%);fill-opacity:1;" d="M 1135.199219 237.601562 C 1151.929688 251.660156 1159.929688 270.0625 1159.199219 292.800781 C 1157.992188 328.816406 1140.394531 352.816406 1106.398438 364.800781 C 1084.703125 368.707031 1063.902344 367.90625 1044 362.398438 C 1079.777344 369.402344 1109.378906 359.800781 1132.800781 333.601562 C 1135.117188 329.050781 1135.914062 324.25 1135.199219 319.199219 C 1138.160156 318.667969 1140.5625 317.070312 1142.398438 314.398438 C 1147.179688 287.617188 1144.78125 262.015625 1135.199219 237.601562 Z M 1135.199219 237.601562 "/>
<path style=" stroke:none;fill-rule:evenodd;fill:rgb(98.039216%,98.039216%,98.039216%);fill-opacity:1;" d="M 996 386.398438 C 1015.507812 394.265625 1036.304688 399.0625 1058.398438 400.800781 C 1081.828125 408.292969 1104.230469 417.894531 1125.601562 429.601562 C 1127.871094 436.351562 1132.671875 439.550781 1140 439.199219 C 1200.980469 479.390625 1244.179688 533.789062 1269.601562 602.398438 C 1268.441406 613.910156 1271.644531 623.511719 1279.199219 631.199219 C 1287.351562 672.28125 1290.550781 713.886719 1288.800781 756 C 1280.9375 775.507812 1276.136719 796.304688 1274.398438 818.398438 C 1266.90625 841.828125 1257.308594 864.230469 1245.601562 885.601562 C 1238.851562 887.871094 1235.648438 892.671875 1236 900 C 1144.925781 1022.125 1023.328125 1068.527344 871.199219 1039.199219 C 863.511719 1031.644531 853.910156 1028.441406 842.398438 1029.601562 C 773.789062 1004.179688 719.390625 960.980469 679.199219 900 C 679.550781 892.671875 676.347656 887.871094 669.601562 885.601562 C 627.699219 805.316406 616.503906 720.519531 636 631.199219 C 643.554688 623.511719 646.757812 613.910156 645.601562 602.398438 C 680.796875 506.398438 746.398438 440.800781 842.398438 405.601562 C 853.910156 406.753906 863.511719 403.554688 871.199219 396 C 912.28125 387.847656 953.886719 384.648438 996 386.398438 Z M 996 386.398438 "/>
<path style=" stroke:none;fill-rule:evenodd;fill:rgb(53.333333%,53.333333%,53.333333%);fill-opacity:1;" d="M 996 386.398438 C 1013.582031 388.570312 1031.183594 390.96875 1048.800781 393.601562 C 1053.195312 394.9375 1056.394531 397.335938 1058.398438 400.800781 C 1036.304688 399.0625 1015.507812 394.265625 996 386.398438 Z M 996 386.398438 "/>
<path style=" stroke:none;fill-rule:evenodd;fill:rgb(62.352941%,62.352941%,62.352941%);fill-opacity:1;" d="M 871.199219 396 C 863.511719 403.554688 853.910156 406.753906 842.398438 405.601562 C 850.089844 398.046875 859.691406 394.84375 871.199219 396 Z M 871.199219 396 "/>
<path style=" stroke:none;fill-rule:evenodd;fill:rgb(41.568627%,41.568627%,41.568627%);fill-opacity:1;" d="M 1125.601562 429.601562 C 1132.929688 429.25 1137.730469 432.449219 1140 439.199219 C 1132.671875 439.550781 1127.871094 436.351562 1125.601562 429.601562 Z M 1125.601562 429.601562 "/>
<path style=" stroke:none;fill-rule:evenodd;fill:rgb(0.784314%,0.784314%,0.784314%);fill-opacity:1;" d="M 1000.800781 492 C 1014.4375 497.609375 1028.835938 502.410156 1044 506.398438 C 1151.691406 556.945312 1198.09375 641.746094 1183.199219 760.800781 C 1177.589844 774.4375 1172.789062 788.835938 1168.800781 804 C 1127.113281 896.132812 1055.113281 944.132812 952.800781 948 C 854.796875 941.105469 785.996094 893.105469 746.398438 804 C 742.410156 788.835938 737.609375 774.4375 732 760.800781 C 717.394531 642.007812 763.789062 556.410156 871.199219 504 C 913.230469 487.566406 956.429688 483.5625 1000.800781 492 Z M 1000.800781 492 "/>
<path style=" stroke:none;fill-rule:evenodd;fill:rgb(63.137255%,63.137255%,63.137255%);fill-opacity:1;" d="M 1000.800781 492 C 1017.988281 490.261719 1032.390625 495.0625 1044 506.398438 C 1028.835938 502.410156 1014.4375 497.609375 1000.800781 492 Z M 1000.800781 492 "/>
<path style=" stroke:none;fill-rule:evenodd;fill:rgb(55.686275%,55.686275%,55.686275%);fill-opacity:1;" d="M 645.601562 602.398438 C 646.757812 613.910156 643.554688 623.511719 636 631.199219 C 634.84375 619.691406 638.042969 610.089844 645.601562 602.398438 Z M 645.601562 602.398438 "/>
<path style=" stroke:none;fill-rule:evenodd;fill:rgb(56.470588%,56.470588%,56.470588%);fill-opacity:1;" d="M 1269.601562 602.398438 C 1277.15625 610.089844 1280.355469 619.691406 1279.199219 631.199219 C 1271.644531 623.511719 1268.441406 613.910156 1269.601562 602.398438 Z M 1269.601562 602.398438 "/>
<path style=" stroke:none;fill-rule:evenodd;fill:rgb(63.137255%,63.137255%,63.137255%);fill-opacity:1;" d="M 732 760.800781 C 737.609375 774.4375 742.410156 788.835938 746.398438 804 C 735.0625 792.390625 730.261719 777.988281 732 760.800781 Z M 732 760.800781 "/>
<path style=" stroke:none;fill-rule:evenodd;fill:rgb(63.137255%,63.137255%,63.137255%);fill-opacity:1;" d="M 1183.199219 760.800781 C 1184.9375 777.988281 1180.136719 792.390625 1168.800781 804 C 1172.789062 788.835938 1177.589844 774.4375 1183.199219 760.800781 Z M 1183.199219 760.800781 "/>
<path style=" stroke:none;fill-rule:evenodd;fill:rgb(53.333333%,53.333333%,53.333333%);fill-opacity:1;" d="M 1288.800781 756 C 1286.628906 773.582031 1284.230469 791.183594 1281.601562 808.800781 C 1280.265625 813.195312 1277.867188 816.394531 1274.398438 818.398438 C 1276.136719 796.304688 1280.9375 775.507812 1288.800781 756 Z M 1288.800781 756 "/>
<path style=" stroke:none;fill-rule:evenodd;fill:rgb(41.568627%,41.568627%,41.568627%);fill-opacity:1;" d="M 669.601562 885.601562 C 676.347656 887.871094 679.550781 892.671875 679.199219 900 C 672.453125 897.730469 669.25 892.929688 669.601562 885.601562 Z M 669.601562 885.601562 "/>
<path style=" stroke:none;fill-rule:evenodd;fill:rgb(41.568627%,41.568627%,41.568627%);fill-opacity:1;" d="M 1245.601562 885.601562 C 1245.949219 892.929688 1242.75 897.730469 1236 900 C 1235.648438 892.671875 1238.851562 887.871094 1245.601562 885.601562 Z M 1245.601562 885.601562 "/>
<path style=" stroke:none;fill-rule:evenodd;fill:rgb(56.470588%,56.470588%,56.470588%);fill-opacity:1;" d="M 842.398438 1029.601562 C 853.910156 1028.441406 863.511719 1031.644531 871.199219 1039.199219 C 859.691406 1040.355469 850.089844 1037.15625 842.398438 1029.601562 Z M 842.398438 1029.601562 "/>
<path style=" stroke:none;fill-rule:evenodd;fill:rgb(98.039216%,98.039216%,98.039216%);fill-opacity:1;" d="M 861.601562 1072.800781 C 873.78125 1075.40625 884.984375 1080.207031 895.199219 1087.199219 C 895.199219 1090.402344 895.199219 1093.597656 895.199219 1096.800781 C 911.140625 1137.125 904.742188 1173.921875 876 1207.199219 C 859.128906 1214.011719 841.53125 1217.210938 823.199219 1216.800781 C 820 1216.800781 816.800781 1216.800781 813.601562 1216.800781 C 802.660156 1204.996094 792.257812 1192.195312 782.398438 1178.398438 C 779.199219 1159.199219 779.199219 1140 782.398438 1120.800781 C 793.867188 1104.164062 807.464844 1089.761719 823.199219 1077.601562 C 835.613281 1072.894531 848.414062 1071.296875 861.601562 1072.800781 Z M 861.601562 1072.800781 "/>
<path style=" stroke:none;fill-rule:evenodd;fill:rgb(28.235294%,28.235294%,28.235294%);fill-opacity:1;" d="M 804 1072.800781 C 791.480469 1085.074219 779.480469 1097.871094 768 1111.199219 C 762.265625 1140.335938 766.261719 1167.53125 780 1192.800781 C 767.078125 1187.855469 759.878906 1178.257812 758.398438 1164 C 748.640625 1120.199219 763.839844 1089.800781 804 1072.800781 Z M 804 1072.800781 "/>
<path style=" stroke:none;fill-rule:evenodd;fill:rgb(57.254902%,57.254902%,57.254902%);fill-opacity:1;" d="M 895.199219 1087.199219 C 903.203125 1093.597656 911.199219 1100 919.199219 1106.398438 C 938.792969 1184.40625 908.394531 1222.804688 828 1221.601562 C 824.796875 1221.601562 823.199219 1220 823.199219 1216.800781 C 841.53125 1217.210938 859.128906 1214.011719 876 1207.199219 C 885.246094 1203.636719 894.042969 1198.839844 902.398438 1192.800781 C 919.789062 1167.320312 922.992188 1140.121094 912 1111.199219 C 907.011719 1105.390625 901.410156 1100.59375 895.199219 1096.800781 C 895.199219 1093.597656 895.199219 1090.402344 895.199219 1087.199219 Z M 895.199219 1087.199219 "/>
<path style=" stroke:none;fill-rule:evenodd;fill:rgb(81.960784%,81.960784%,81.960784%);fill-opacity:1;" d="M 895.199219 1096.800781 C 901.410156 1100.59375 907.011719 1105.390625 912 1111.199219 C 922.992188 1140.121094 919.789062 1167.320312 902.398438 1192.800781 C 894.042969 1198.839844 885.246094 1203.636719 876 1207.199219 C 904.742188 1173.921875 911.140625 1137.125 895.199219 1096.800781 Z M 895.199219 1096.800781 "/>
<path style=" stroke:none;fill-rule:evenodd;fill:rgb(57.254902%,57.254902%,57.254902%);fill-opacity:1;" d="M 861.601562 1072.800781 C 848.414062 1071.296875 835.613281 1072.894531 823.199219 1077.601562 C 807.464844 1089.761719 793.867188 1104.164062 782.398438 1120.800781 C 779.199219 1140 779.199219 1159.199219 782.398438 1178.398438 C 792.257812 1192.195312 802.660156 1204.996094 813.601562 1216.800781 C 799.699219 1212.488281 788.5 1204.488281 780 1192.800781 C 766.261719 1167.53125 762.265625 1140.335938 768 1111.199219 C 779.480469 1097.871094 791.480469 1085.074219 804 1072.800781 C 823.199219 1066.402344 842.398438 1066.402344 861.601562 1072.800781 Z M 861.601562 1072.800781 "/>
<path style=" stroke:none;fill-rule:evenodd;fill:rgb(31.764706%,31.764706%,31.764706%);fill-opacity:1;" d="M 919.199219 1106.398438 C 925.390625 1109.078125 929.390625 1113.878906 931.199219 1120.800781 C 945.910156 1173.210938 927.511719 1207.613281 876 1224 C 859.070312 1227.878906 843.070312 1227.078125 828 1221.601562 C 908.394531 1222.804688 938.792969 1184.40625 919.199219 1106.398438 Z M 919.199219 1106.398438 "/>
</g>
</svg>
