<?xml version="1.0" encoding="UTF-8"?>
<svg xmlns="http://www.w3.org/2000/svg" xmlns:xlink="http://www.w3.org/1999/xlink" width="1920pt" height="1440pt" viewBox="0 0 1920 1440" version="1.1">
<g id="surface1">
<path style=" stroke:none;fill-rule:evenodd;fill:rgb(0%,0%,0%);fill-opacity:1;" d="M -2.398438 -2.398438 C 637.597656 -2.398438 1277.601562 -2.398438 1917.601562 -2.398438 C 1917.601562 477.601562 1917.601562 957.601562 1917.601562 1437.601562 C 1277.601562 1437.601562 637.597656 1437.601562 -2.398438 1437.601562 C -2.398438 957.601562 -2.398438 477.601562 -2.398438 -2.398438 Z M -2.398438 -2.398438 "/>
<path style=" stroke:none;fill-rule:evenodd;fill:rgb(41.176471%,41.176471%,40.784314%);fill-opacity:1;" d="M 904.800781 208.800781 C 911.199219 208.800781 917.601562 208.800781 924 208.800781 C 927.839844 219.277344 935.039062 227.277344 945.601562 232.800781 C 966.78125 266.113281 967.585938 299.714844 948 333.601562 C 935.5 344.554688 921.101562 350.957031 904.800781 352.800781 C 908.457031 344.339844 914.859375 339.539062 924 338.398438 C 934.195312 335.851562 941.394531 329.449219 945.601562 319.199219 C 956.726562 290.5625 954.328125 263.363281 938.398438 237.601562 C 925.964844 229.050781 914.761719 219.449219 904.800781 208.800781 Z M 904.800781 208.800781 "/>
<path style=" stroke:none;fill-rule:evenodd;fill:rgb(53.72549%,53.72549%,53.72549%);fill-opacity:1;" d="M 904.800781 208.800781 C 914.761719 219.449219 925.964844 229.050781 938.398438 237.601562 C 954.328125 263.363281 956.726562 290.5625 945.601562 319.199219 C 941.394531 329.449219 934.195312 335.851562 924 338.398438 C 942.289062 307.542969 943.085938 275.546875 926.398438 242.398438 C 890.621094 200.292969 853.824219 198.691406 816 237.601562 C 805.441406 260.652344 802.238281 284.652344 806.398438 309.601562 C 823.03125 321.421875 838.230469 335.019531 852 350.398438 C 856.550781 352.71875 861.351562 353.519531 866.398438 352.800781 C 876 352.800781 885.601562 352.800781 895.199219 352.800781 C 898.402344 352.800781 901.597656 352.800781 904.800781 352.800781 C 899.671875 357.285156 893.273438 358.886719 885.601562 357.601562 C 842.261719 359.902344 809.457031 342.300781 787.199219 304.800781 C 784 292 784 279.199219 787.199219 266.398438 C 796.410156 248.378906 808.410156 232.378906 823.199219 218.398438 C 849.316406 203.832031 876.519531 200.632812 904.800781 208.800781 Z M 904.800781 208.800781 "/>
<path style=" stroke:none;fill-rule:evenodd;fill:rgb(21.960784%,21.960784%,21.960784%);fill-opacity:1;" d="M 924 208.800781 C 965.210938 227.34375 980.414062 259.34375 969.601562 304.800781 C 963.46875 315.585938 956.269531 325.1875 948 333.601562 C 967.585938 299.714844 966.78125 266.113281 945.601562 232.800781 C 935.039062 227.277344 927.839844 219.277344 924 208.800781 Z M 924 208.800781 "/>
<path style=" stroke:none;fill-rule:evenodd;fill:rgb(81.568627%,81.568627%,81.568627%);fill-opacity:1;" d="M 924 338.398438 C 914.859375 339.539062 908.457031 344.339844 904.800781 352.800781 C 901.597656 352.800781 898.402344 352.800781 895.199219 352.800781 C 931.636719 320.558594 938.035156 282.957031 914.398438 240 C 859.777344 200.515625 829.378906 215.714844 823.199219 285.601562 C 826.066406 315.621094 840.464844 338.019531 866.398438 352.800781 C 861.351562 353.519531 856.550781 352.71875 852 350.398438 C 838.230469 335.019531 823.03125 321.421875 806.398438 309.601562 C 802.238281 284.652344 805.441406 260.652344 816 237.601562 C 853.824219 198.691406 890.621094 200.292969 926.398438 242.398438 C 943.085938 275.546875 942.289062 307.542969 924 338.398438 Z M 924 338.398438 "/>
<path style=" stroke:none;fill-rule:evenodd;fill:rgb(99.215686%,99.215686%,99.215686%);fill-opacity:1;" d="M 895.199219 352.800781 C 885.601562 352.800781 876 352.800781 866.398438 352.800781 C 840.464844 338.019531 826.066406 315.621094 823.199219 285.601562 C 829.378906 215.714844 859.777344 200.515625 914.398438 240 C 938.035156 282.957031 931.636719 320.558594 895.199219 352.800781 Z M 895.199219 352.800781 "/>
<path style=" stroke:none;fill-rule:evenodd;fill:rgb(27.843137%,27.843137%,27.843137%);fill-opacity:1;" d="M 823.199219 218.398438 C 808.410156 232.378906 796.410156 248.378906 787.199219 266.398438 C 784 279.199219 784 292 787.199219 304.800781 C 809.457031 342.300781 842.261719 359.902344 885.601562 357.601562 C 838.132812 372.09375 803.734375 356.09375 782.398438 309.601562 C 771.648438 267.207031 785.25 236.804688 823.199219 218.398438 Z M 823.199219 218.398438 "/>
<path style=" stroke:none;fill-rule:evenodd;fill:rgb(97.647059%,97.647059%,97.647059%);fill-opacity:1;" d="M 1087.199219 429.601562 C 1090.976562 437.300781 1097.375 440.5 1106.398438 439.199219 C 1262.769531 537.101562 1309.171875 673.097656 1245.601562 847.199219 C 1237.902344 850.976562 1234.699219 857.375 1236 866.398438 C 1149.148438 1002.582031 1025.945312 1054.585938 866.398438 1022.398438 C 689.496094 947.847656 618.296875 815.847656 652.800781 626.398438 C 712.148438 471.066406 824.945312 396.667969 991.199219 403.199219 C 1023.972656 409.902344 1055.976562 418.699219 1087.199219 429.601562 Z M 1087.199219 429.601562 "/>
<path style=" stroke:none;fill-rule:evenodd;fill:rgb(49.803922%,49.803922%,49.803922%);fill-opacity:1;" d="M 1087.199219 429.601562 C 1095.132812 430.367188 1101.53125 433.566406 1106.398438 439.199219 C 1097.375 440.5 1090.976562 437.300781 1087.199219 429.601562 Z M 1087.199219 429.601562 "/>
<path style=" stroke:none;fill-rule:evenodd;fill:rgb(0.784314%,0.784314%,0.784314%);fill-opacity:1;" d="M 943.199219 535.199219 C 1014.089844 533.050781 1070.089844 560.25 1111.199219 616.800781 C 1110.847656 624.128906 1114.050781 628.929688 1120.800781 631.199219 C 1158.820312 724.210938 1139.621094 803.410156 1063.199219 868.800781 C 1022.132812 894.777344 977.328125 905.179688 928.800781 900 C 919.128906 893.164062 907.929688 889.96875 895.199219 890.398438 C 887.199219 887.199219 879.203125 884 871.199219 880.800781 C 868.929688 874.050781 864.128906 870.847656 856.800781 871.199219 C 775.1875 807.160156 754.386719 727.15625 794.398438 631.199219 C 801.148438 628.929688 804.351562 624.128906 804 616.800781 C 826.53125 582.394531 856.933594 558.394531 895.199219 544.800781 C 912.191406 543.585938 928.191406 540.390625 943.199219 535.199219 Z M 943.199219 535.199219 "/>
<path style=" stroke:none;fill-rule:evenodd;fill:rgb(30.980392%,30.980392%,30.980392%);fill-opacity:1;" d="M 943.199219 535.199219 C 928.191406 540.390625 912.191406 543.585938 895.199219 544.800781 C 897.207031 541.335938 900.402344 538.933594 904.800781 537.601562 C 917.5 535.214844 930.300781 534.414062 943.199219 535.199219 Z M 943.199219 535.199219 "/>
<path style=" stroke:none;fill-rule:evenodd;fill:rgb(43.921569%,43.921569%,43.921569%);fill-opacity:1;" d="M 804 616.800781 C 804.351562 624.128906 801.148438 628.929688 794.398438 631.199219 C 794.050781 623.871094 797.25 619.070312 804 616.800781 Z M 804 616.800781 "/>
<path style=" stroke:none;fill-rule:evenodd;fill:rgb(43.921569%,43.921569%,43.921569%);fill-opacity:1;" d="M 1111.199219 616.800781 C 1117.949219 619.070312 1121.152344 623.871094 1120.800781 631.199219 C 1114.050781 628.929688 1110.847656 624.128906 1111.199219 616.800781 Z M 1111.199219 616.800781 "/>
<path style=" stroke:none;fill-rule:evenodd;fill:rgb(49.803922%,49.803922%,49.803922%);fill-opacity:1;" d="M 1245.601562 847.199219 C 1244.832031 855.132812 1241.636719 861.53125 1236 866.398438 C 1234.699219 857.375 1237.902344 850.976562 1245.601562 847.199219 Z M 1245.601562 847.199219 "/>
<path style=" stroke:none;fill-rule:evenodd;fill:rgb(43.921569%,43.921569%,43.921569%);fill-opacity:1;" d="M 856.800781 871.199219 C 864.128906 870.847656 868.929688 874.050781 871.199219 880.800781 C 863.871094 881.152344 859.070312 877.949219 856.800781 871.199219 Z M 856.800781 871.199219 "/>
<path style=" stroke:none;fill-rule:evenodd;fill:rgb(39.215686%,39.215686%,39.215686%);fill-opacity:1;" d="M 895.199219 890.398438 C 907.929688 889.96875 919.128906 893.164062 928.800781 900 C 916.070312 900.433594 904.871094 897.234375 895.199219 890.398438 Z M 895.199219 890.398438 "/>
<path style=" stroke:none;fill-rule:evenodd;fill:rgb(97.647059%,97.647059%,97.647059%);fill-opacity:1;" d="M 1058.398438 1082.398438 C 1070.300781 1096.527344 1079.898438 1112.523438 1087.199219 1130.398438 C 1096.421875 1160.511719 1091.621094 1187.710938 1072.800781 1212 C 1015.84375 1230.582031 983.839844 1208.980469 976.800781 1147.199219 C 985.003906 1101.375 1012.203125 1079.773438 1058.398438 1082.398438 Z M 1058.398438 1082.398438 "/>
<path style=" stroke:none;fill-rule:evenodd;fill:rgb(28.235294%,28.235294%,28.235294%);fill-opacity:1;" d="M 1024.800781 1077.601562 C 1069.441406 1063.972656 1104.636719 1076.773438 1130.398438 1116 C 1141.566406 1151.324219 1135.167969 1182.523438 1111.199219 1209.601562 C 1105.222656 1213.398438 1098.824219 1215.796875 1092 1216.800781 C 1121.195312 1193.460938 1131.59375 1163.0625 1123.199219 1125.601562 C 1115.867188 1103.035156 1100.664062 1090.234375 1077.601562 1087.199219 C 1071.203125 1085.601562 1064.796875 1084 1058.398438 1082.398438 C 1048.285156 1077.753906 1037.082031 1076.152344 1024.800781 1077.601562 Z M 1024.800781 1077.601562 "/>
<path style=" stroke:none;fill-rule:evenodd;fill:rgb(78.823529%,78.823529%,78.823529%);fill-opacity:1;" d="M 1058.398438 1082.398438 C 1064.796875 1084 1071.203125 1085.601562 1077.601562 1087.199219 C 1109.140625 1120.824219 1114.738281 1159.222656 1094.398438 1202.398438 C 1089.070312 1209.777344 1081.871094 1212.972656 1072.800781 1212 C 1091.621094 1187.710938 1096.421875 1160.511719 1087.199219 1130.398438 C 1079.898438 1112.523438 1070.300781 1096.527344 1058.398438 1082.398438 Z M 1058.398438 1082.398438 "/>
<path style=" stroke:none;fill-rule:evenodd;fill:rgb(59.607843%,59.607843%,59.607843%);fill-opacity:1;" d="M 1024.800781 1077.601562 C 1037.082031 1076.152344 1048.285156 1077.753906 1058.398438 1082.398438 C 1012.203125 1079.773438 985.003906 1101.375 976.800781 1147.199219 C 983.839844 1208.980469 1015.84375 1230.582031 1072.800781 1212 C 1081.871094 1212.972656 1089.070312 1209.777344 1094.398438 1202.398438 C 1114.738281 1159.222656 1109.140625 1120.824219 1077.601562 1087.199219 C 1100.664062 1090.234375 1115.867188 1103.035156 1123.199219 1125.601562 C 1131.59375 1163.0625 1121.195312 1193.460938 1092 1216.800781 C 1082.777344 1220.941406 1073.179688 1224.140625 1063.199219 1226.398438 C 1042.339844 1227.195312 1021.539062 1226.394531 1000.800781 1224 C 992.195312 1210.585938 981.792969 1198.585938 969.601562 1188 C 955.496094 1149.582031 962.699219 1115.980469 991.199219 1087.199219 C 1001.980469 1082.617188 1013.179688 1079.414062 1024.800781 1077.601562 Z M 1024.800781 1077.601562 "/>
<path style=" stroke:none;fill-rule:evenodd;fill:rgb(34.509804%,34.509804%,34.509804%);fill-opacity:1;" d="M 991.199219 1087.199219 C 962.699219 1115.980469 955.496094 1149.582031 969.601562 1188 C 981.792969 1198.585938 992.195312 1210.585938 1000.800781 1224 C 1021.539062 1226.394531 1042.339844 1227.195312 1063.199219 1226.398438 C 1036.453125 1232.976562 1009.253906 1232.175781 981.601562 1224 C 973.78125 1206.796875 962.578125 1192.398438 948 1180.800781 C 935.304688 1136.308594 949.703125 1105.109375 991.199219 1087.199219 Z M 991.199219 1087.199219 "/>
</g>
</svg>
