<?xml version="1.0" encoding="UTF-8"?>
<svg xmlns="http://www.w3.org/2000/svg" xmlns:xlink="http://www.w3.org/1999/xlink" width="1920pt" height="1440pt" viewBox="0 0 1920 1440" version="1.1">
<g id="surface1">
<path style=" stroke:none;fill-rule:evenodd;fill:rgb(0%,0%,0%);fill-opacity:1;" d="M -2.398438 -2.398438 C 637.597656 -2.398438 1277.601562 -2.398438 1917.601562 -2.398438 C 1917.601562 477.601562 1917.601562 957.601562 1917.601562 1437.601562 C 1277.601562 1437.601562 637.597656 1437.601562 -2.398438 1437.601562 C -2.398438 957.601562 -2.398438 477.601562 -2.398438 -2.398438 Z M -2.398438 -2.398438 "/>
<path style=" stroke:none;fill-rule:evenodd;fill:rgb(29.411765%,29.411765%,29.411765%);fill-opacity:1;" d="M 1308 343.199219 C 1289.890625 342.0625 1272.289062 344.464844 1255.199219 350.398438 C 1241.601562 360.800781 1228 371.199219 1214.398438 381.601562 C 1211.578125 405.734375 1212.375 429.734375 1216.800781 453.601562 C 1183.570312 404.152344 1193.167969 364.953125 1245.601562 336 C 1263.203125 332.800781 1280.796875 332.800781 1298.398438 336 C 1302.796875 337.335938 1305.992188 339.734375 1308 343.199219 Z M 1308 343.199219 "/>
<path style=" stroke:none;fill-rule:evenodd;fill:rgb(97.647059%,97.647059%,97.647059%);fill-opacity:1;" d="M 1346.398438 381.601562 C 1347.191406 399.273438 1346.394531 416.871094 1344 434.398438 C 1333.597656 448 1323.203125 461.601562 1312.800781 475.199219 C 1286.347656 485.40625 1260.742188 484.609375 1236 472.800781 C 1231.199219 471.199219 1228 468 1226.398438 463.199219 C 1218.46875 424.527344 1229.667969 392.523438 1260 367.199219 C 1292.816406 351.53125 1321.617188 356.332031 1346.398438 381.601562 Z M 1346.398438 381.601562 "/>
<path style=" stroke:none;fill-rule:evenodd;fill:rgb(62.352941%,62.352941%,62.352941%);fill-opacity:1;" d="M 1308 343.199219 C 1330.027344 350.996094 1346.03125 365.398438 1356 386.398438 C 1372.195312 465.398438 1340.195312 501.398438 1260 494.398438 C 1257.332031 492.5625 1255.734375 490.160156 1255.199219 487.199219 C 1286.0625 491.5 1314.066406 485.101562 1339.199219 468 C 1351.191406 439.320312 1353.589844 410.523438 1346.398438 381.601562 C 1321.617188 356.332031 1292.816406 351.53125 1260 367.199219 C 1229.667969 392.523438 1218.46875 424.527344 1226.398438 463.199219 C 1220 463.199219 1216.800781 460 1216.800781 453.601562 C 1212.375 429.734375 1211.578125 405.734375 1214.398438 381.601562 C 1228 371.199219 1241.601562 360.800781 1255.199219 350.398438 C 1272.289062 344.464844 1289.890625 342.0625 1308 343.199219 Z M 1308 343.199219 "/>
<path style=" stroke:none;fill-rule:evenodd;fill:rgb(97.647059%,97.647059%,97.647059%);fill-opacity:1;" d="M 1053.601562 429.601562 C 1154.605469 461.8125 1220.207031 529.011719 1250.398438 631.199219 C 1249.96875 643.929688 1253.164062 655.128906 1260 664.800781 C 1275.230469 842.390625 1198.429688 959.992188 1029.601562 1017.601562 C 988.019531 1025.335938 946.414062 1026.140625 904.800781 1020 C 895.128906 1013.164062 883.929688 1009.96875 871.199219 1010.398438 C 762.398438 973.90625 691.195312 900.300781 657.601562 789.601562 C 649.847656 747.832031 649.046875 706.234375 655.199219 664.800781 C 662.035156 655.128906 665.230469 643.929688 664.800781 631.199219 C 696.671875 525.726562 765.476562 456.925781 871.199219 424.800781 C 932.472656 412.375 993.273438 413.972656 1053.601562 429.601562 Z M 1053.601562 429.601562 "/>
<path style=" stroke:none;fill-rule:evenodd;fill:rgb(71.372549%,71.372549%,71.372549%);fill-opacity:1;" d="M 1053.601562 429.601562 C 993.273438 413.972656 932.472656 412.375 871.199219 424.800781 C 897.65625 414.945312 925.65625 410.144531 955.199219 410.398438 C 980.132812 411.417969 1004.933594 413.816406 1029.601562 417.601562 C 1038.3125 421.234375 1046.308594 425.234375 1053.601562 429.601562 Z M 1053.601562 429.601562 "/>
<path style=" stroke:none;fill-rule:evenodd;fill:rgb(25.490196%,25.490196%,25.490196%);fill-opacity:1;" d="M 1370.398438 405.601562 C 1373.867188 407.605469 1376.265625 410.804688 1377.601562 415.199219 C 1383.335938 486.265625 1350.539062 519.0625 1279.199219 513.601562 C 1274.804688 512.265625 1271.605469 509.867188 1269.601562 506.398438 C 1298.890625 510.082031 1326.089844 504.484375 1351.199219 489.601562 C 1368.292969 464.289062 1374.695312 436.289062 1370.398438 405.601562 Z M 1370.398438 405.601562 "/>
<path style=" stroke:none;fill-rule:evenodd;fill:rgb(83.921569%,83.921569%,83.921569%);fill-opacity:1;" d="M 1346.398438 381.601562 C 1353.589844 410.523438 1351.191406 439.320312 1339.199219 468 C 1314.066406 485.101562 1286.0625 491.5 1255.199219 487.199219 C 1252 487.199219 1248.800781 487.199219 1245.601562 487.199219 C 1242.398438 482.398438 1239.203125 477.601562 1236 472.800781 C 1260.742188 484.609375 1286.347656 485.40625 1312.800781 475.199219 C 1323.203125 461.601562 1333.597656 448 1344 434.398438 C 1346.394531 416.871094 1347.191406 399.273438 1346.398438 381.601562 Z M 1346.398438 381.601562 "/>
<path style=" stroke:none;fill-rule:evenodd;fill:rgb(47.058824%,47.058824%,47.058824%);fill-opacity:1;" d="M 1356 386.398438 C 1364.457031 390.058594 1369.257812 396.457031 1370.398438 405.601562 C 1374.695312 436.289062 1368.292969 464.289062 1351.199219 489.601562 C 1326.089844 504.484375 1298.890625 510.082031 1269.601562 506.398438 C 1258.804688 503.617188 1250.808594 497.21875 1245.601562 487.199219 C 1248.800781 487.199219 1252 487.199219 1255.199219 487.199219 C 1255.734375 490.160156 1257.332031 492.5625 1260 494.398438 C 1340.195312 501.398438 1372.195312 465.398438 1356 386.398438 Z M 1356 386.398438 "/>
<path style=" stroke:none;fill-rule:evenodd;fill:rgb(0.392157%,0.392157%,0.392157%);fill-opacity:1;" d="M 933.601562 511.199219 C 949.597656 511.199219 965.601562 511.199219 981.601562 511.199219 C 993.144531 517.285156 1005.945312 520.488281 1020 520.800781 C 1080.042969 542.433594 1123.242188 582.4375 1149.601562 640.800781 C 1151.644531 659.648438 1156.445312 677.246094 1164 693.601562 C 1164 709.597656 1164 725.601562 1164 741.601562 C 1157.914062 753.144531 1154.710938 765.945312 1154.398438 780 C 1130.398438 845.601562 1085.601562 890.398438 1020 914.398438 C 991.679688 921.394531 962.878906 924.589844 933.601562 924 C 917.246094 916.445312 899.648438 911.644531 880.800781 909.601562 C 822.4375 883.242188 782.433594 840.042969 760.800781 780 C 760.488281 765.945312 757.285156 753.144531 751.199219 741.601562 C 751.199219 725.601562 751.199219 709.597656 751.199219 693.601562 C 758.753906 677.246094 763.554688 659.648438 765.601562 640.800781 C 780.265625 599.46875 805.867188 566.667969 842.398438 542.398438 C 854.742188 535.421875 867.542969 529.824219 880.800781 525.601562 C 899.648438 523.554688 917.246094 518.753906 933.601562 511.199219 Z M 933.601562 511.199219 "/>
<path style=" stroke:none;fill-rule:evenodd;fill:rgb(32.941176%,32.941176%,32.941176%);fill-opacity:1;" d="M 933.601562 511.199219 C 917.246094 518.753906 899.648438 523.554688 880.800781 525.601562 C 896.636719 516.082031 914.238281 511.28125 933.601562 511.199219 Z M 933.601562 511.199219 "/>
<path style=" stroke:none;fill-rule:evenodd;fill:rgb(48.235294%,48.235294%,48.235294%);fill-opacity:1;" d="M 981.601562 511.199219 C 995.976562 510.210938 1008.777344 513.40625 1020 520.800781 C 1005.945312 520.488281 993.144531 517.285156 981.601562 511.199219 Z M 981.601562 511.199219 "/>
<path style=" stroke:none;fill-rule:evenodd;fill:rgb(55.686275%,55.686275%,55.686275%);fill-opacity:1;" d="M 664.800781 631.199219 C 665.230469 643.929688 662.035156 655.128906 655.199219 664.800781 C 654.769531 652.070312 657.964844 640.871094 664.800781 631.199219 Z M 664.800781 631.199219 "/>
<path style=" stroke:none;fill-rule:evenodd;fill:rgb(55.686275%,55.686275%,55.686275%);fill-opacity:1;" d="M 1250.398438 631.199219 C 1257.234375 640.871094 1260.433594 652.070312 1260 664.800781 C 1253.164062 655.128906 1249.96875 643.929688 1250.398438 631.199219 Z M 1250.398438 631.199219 "/>
<path style=" stroke:none;fill-rule:evenodd;fill:rgb(32.941176%,32.941176%,32.941176%);fill-opacity:1;" d="M 765.601562 640.800781 C 763.554688 659.648438 758.753906 677.246094 751.199219 693.601562 C 751.28125 674.238281 756.082031 656.636719 765.601562 640.800781 Z M 765.601562 640.800781 "/>
<path style=" stroke:none;fill-rule:evenodd;fill:rgb(32.941176%,32.941176%,32.941176%);fill-opacity:1;" d="M 1149.601562 640.800781 C 1159.117188 656.636719 1163.917969 674.238281 1164 693.601562 C 1156.445312 677.246094 1151.644531 659.648438 1149.601562 640.800781 Z M 1149.601562 640.800781 "/>
<path style=" stroke:none;fill-rule:evenodd;fill:rgb(48.235294%,48.235294%,48.235294%);fill-opacity:1;" d="M 751.199219 741.601562 C 757.285156 753.144531 760.488281 765.945312 760.800781 780 C 753.40625 768.777344 750.210938 755.976562 751.199219 741.601562 Z M 751.199219 741.601562 "/>
<path style=" stroke:none;fill-rule:evenodd;fill:rgb(48.235294%,48.235294%,48.235294%);fill-opacity:1;" d="M 1164 741.601562 C 1164.988281 755.976562 1161.792969 768.777344 1154.398438 780 C 1154.710938 765.945312 1157.914062 753.144531 1164 741.601562 Z M 1164 741.601562 "/>
<path style=" stroke:none;fill-rule:evenodd;fill:rgb(33.333333%,33.333333%,33.333333%);fill-opacity:1;" d="M 880.800781 909.601562 C 899.648438 911.644531 917.246094 916.445312 933.601562 924 C 932 924 930.398438 924 928.800781 924 C 911.222656 922.929688 895.222656 918.128906 880.800781 909.601562 Z M 880.800781 909.601562 "/>
<path style=" stroke:none;fill-rule:evenodd;fill:rgb(68.627451%,68.627451%,68.627451%);fill-opacity:1;" d="M 1020 914.398438 C 990.582031 928.449219 960.183594 931.644531 928.800781 924 C 930.398438 924 932 924 933.601562 924 C 962.878906 924.589844 991.679688 921.394531 1020 914.398438 Z M 1020 914.398438 "/>
<path style=" stroke:none;fill-rule:evenodd;fill:rgb(48.235294%,48.235294%,48.235294%);fill-opacity:1;" d="M 645.601562 928.800781 C 648.800781 932 652 935.199219 655.199219 938.398438 C 581.851562 931.746094 548.25 965.347656 554.398438 1039.199219 C 549.601562 1037.601562 546.398438 1034.398438 544.800781 1029.601562 C 538.902344 955.496094 572.5 921.898438 645.601562 928.800781 Z M 645.601562 928.800781 "/>
<path style=" stroke:none;fill-rule:evenodd;fill:rgb(83.137255%,83.137255%,83.137255%);fill-opacity:1;" d="M 660 952.800781 C 638.828125 950.5 618.824219 953.703125 600 962.398438 C 591.96875 974.40625 583.167969 985.601562 573.601562 996 C 568.84375 1014.9375 567.246094 1034.136719 568.800781 1053.601562 C 564 1052 560.796875 1048.800781 559.199219 1044 C 556.566406 993.175781 578.960938 959.578125 626.398438 943.199219 C 639.144531 942.910156 650.347656 946.113281 660 952.800781 Z M 660 952.800781 "/>
<path style=" stroke:none;fill-rule:evenodd;fill:rgb(66.666667%,66.666667%,66.666667%);fill-opacity:1;" d="M 655.199219 938.398438 C 665.996094 941.183594 673.992188 947.582031 679.199219 957.601562 C 672.800781 956 666.398438 954.398438 660 952.800781 C 650.347656 946.113281 639.144531 942.910156 626.398438 943.199219 C 578.960938 959.578125 556.566406 993.175781 559.199219 1044 C 557.601562 1044 556 1044 554.398438 1044 C 554.398438 1042.402344 554.398438 1040.796875 554.398438 1039.199219 C 548.25 965.347656 581.851562 931.746094 655.199219 938.398438 Z M 655.199219 938.398438 "/>
<path style=" stroke:none;fill-rule:evenodd;fill:rgb(99.215686%,99.215686%,99.215686%);fill-opacity:1;" d="M 660 952.800781 C 666.398438 954.398438 672.800781 956 679.199219 957.601562 C 679.472656 962.921875 681.070312 967.722656 684 972 C 685.363281 1048.378906 648.566406 1078.777344 573.601562 1063.199219 C 572 1060 570.398438 1056.800781 568.800781 1053.601562 C 567.246094 1034.136719 568.84375 1014.9375 573.601562 996 C 583.167969 985.601562 591.96875 974.40625 600 962.398438 C 618.824219 953.703125 638.828125 950.5 660 952.800781 Z M 660 952.800781 "/>
<path style=" stroke:none;fill-rule:evenodd;fill:rgb(24.705882%,24.705882%,24.705882%);fill-opacity:1;" d="M 645.601562 928.800781 C 572.5 921.898438 538.902344 955.496094 544.800781 1029.601562 C 541.335938 1027.59375 538.933594 1024.398438 537.601562 1020 C 534.398438 1004 534.398438 988 537.601562 972 C 550.402344 956 563.199219 940 576 924 C 585.960938 920.957031 596.355469 919.355469 607.199219 919.199219 C 621.730469 918.175781 634.527344 921.375 645.601562 928.800781 Z M 645.601562 928.800781 "/>
<path style=" stroke:none;fill-rule:evenodd;fill:rgb(61.176471%,61.176471%,61.176471%);fill-opacity:1;" d="M 679.199219 957.601562 C 690.671875 964.277344 698.671875 973.875 703.199219 986.398438 C 707.195312 1068.238281 670.390625 1098.636719 592.800781 1077.601562 C 612.503906 1078.875 631.703125 1076.476562 650.398438 1070.398438 C 662.890625 1060.171875 675.6875 1051.367188 688.800781 1044 C 693.507812 1021.78125 694.308594 999.378906 691.199219 976.800781 C 689.363281 974.132812 686.960938 972.53125 684 972 C 681.070312 967.722656 679.472656 962.921875 679.199219 957.601562 Z M 679.199219 957.601562 "/>
<path style=" stroke:none;fill-rule:evenodd;fill:rgb(55.686275%,55.686275%,55.686275%);fill-opacity:1;" d="M 871.199219 1010.398438 C 883.929688 1009.96875 895.128906 1013.164062 904.800781 1020 C 892.070312 1020.433594 880.871094 1017.234375 871.199219 1010.398438 Z M 871.199219 1010.398438 "/>
<path style=" stroke:none;fill-rule:evenodd;fill:rgb(35.294118%,35.294118%,35.294118%);fill-opacity:1;" d="M 554.398438 1044 C 556 1044 557.601562 1044 559.199219 1044 C 560.796875 1048.800781 564 1052 568.800781 1053.601562 C 570.398438 1056.800781 572 1060 573.601562 1063.199219 C 573.601562 1064.796875 573.601562 1066.402344 573.601562 1068 C 563.582031 1062.792969 557.183594 1054.796875 554.398438 1044 Z M 554.398438 1044 "/>
<path style=" stroke:none;fill-rule:evenodd;fill:rgb(84.313725%,84.313725%,84.313725%);fill-opacity:1;" d="M 684 972 C 686.960938 972.53125 689.363281 974.132812 691.199219 976.800781 C 694.308594 999.378906 693.507812 1021.78125 688.800781 1044 C 675.6875 1051.367188 662.890625 1060.171875 650.398438 1070.398438 C 631.703125 1076.476562 612.503906 1078.875 592.800781 1077.601562 C 587.496094 1072.320312 581.097656 1069.117188 573.601562 1068 C 573.601562 1066.402344 573.601562 1064.796875 573.601562 1063.199219 C 648.566406 1078.777344 685.363281 1048.378906 684 972 Z M 684 972 "/>
<path style=" stroke:none;fill-rule:evenodd;fill:rgb(43.137255%,43.137255%,43.137255%);fill-opacity:1;" d="M 703.199219 986.398438 C 707.222656 988.042969 708.824219 991.238281 708 996 C 711.691406 1064.300781 679.691406 1097.898438 612 1096.800781 C 595.722656 1091.859375 582.925781 1082.261719 573.601562 1068 C 581.097656 1069.117188 587.496094 1072.320312 592.800781 1077.601562 C 670.390625 1098.636719 707.195312 1068.238281 703.199219 986.398438 Z M 703.199219 986.398438 "/>
<path style=" stroke:none;fill-rule:evenodd;fill:rgb(21.568627%,21.568627%,21.568627%);fill-opacity:1;" d="M 708 996 C 725.460938 1033.949219 717.460938 1066.746094 684 1094.398438 C 664.34375 1105.054688 643.546875 1108.257812 621.601562 1104 C 617.203125 1102.664062 614.007812 1100.265625 612 1096.800781 C 679.691406 1097.898438 711.691406 1064.300781 708 996 Z M 708 996 "/>
</g>
</svg>
