<?xml version="1.0" encoding="UTF-8"?>
<svg xmlns="http://www.w3.org/2000/svg" xmlns:xlink="http://www.w3.org/1999/xlink" width="1920pt" height="1440pt" viewBox="0 0 1920 1440" version="1.1">
<g id="surface1">
<path style=" stroke:none;fill-rule:evenodd;fill:rgb(0%,0%,0%);fill-opacity:1;" d="M -2.398438 -2.398438 C 637.597656 -2.398438 1277.601562 -2.398438 1917.601562 -2.398438 C 1917.601562 477.601562 1917.601562 957.601562 1917.601562 1437.601562 C 1277.601562 1437.601562 637.597656 1437.601562 -2.398438 1437.601562 C -2.398438 957.601562 -2.398438 477.601562 -2.398438 -2.398438 Z M -2.398438 -2.398438 "/>
<path style=" stroke:none;fill-rule:evenodd;fill:rgb(16.078431%,16.078431%,16.078431%);fill-opacity:1;" d="M 655.199219 429.601562 C 627.835938 406.410156 595.839844 396.8125 559.199219 400.800781 C 587.09375 388.527344 615.089844 390.128906 643.199219 405.601562 C 648.453125 413.175781 652.453125 421.175781 655.199219 429.601562 Z M 655.199219 429.601562 "/>
<path style=" stroke:none;fill-rule:evenodd;fill:rgb(97.254902%,97.254902%,97.254902%);fill-opacity:1;" d="M 919.199219 396 C 1057.335938 390.257812 1163.730469 444.65625 1238.398438 559.199219 C 1300.105469 683.238281 1290.503906 801.636719 1209.601562 914.398438 C 1080.210938 1053.027344 933.8125 1074.628906 770.398438 979.199219 C 668.011719 895.621094 625.613281 787.621094 643.199219 655.199219 C 680.273438 510.121094 772.273438 423.722656 919.199219 396 Z M 919.199219 396 "/>
<path style=" stroke:none;fill-rule:evenodd;fill:rgb(57.647059%,57.647059%,57.647059%);fill-opacity:1;" d="M 645.601562 448.800781 C 617.886719 419.65625 584.285156 410.058594 544.800781 420 C 545.332031 417.035156 546.929688 414.636719 549.601562 412.800781 C 570.398438 409.601562 591.203125 409.601562 612 412.800781 C 630.804688 418 642.007812 430 645.601562 448.800781 Z M 645.601562 448.800781 "/>
<path style=" stroke:none;fill-rule:evenodd;fill:rgb(99.215686%,99.215686%,99.215686%);fill-opacity:1;" d="M 640.800781 525.601562 C 637.265625 533.898438 630.863281 538.699219 621.601562 540 C 552.726562 546.230469 517.523438 515.828125 516 448.800781 C 564.652344 416.960938 605.453125 424.960938 638.398438 472.800781 C 640.796875 490.328125 641.59375 507.925781 640.800781 525.601562 Z M 640.800781 525.601562 "/>
<path style=" stroke:none;fill-rule:evenodd;fill:rgb(80.392157%,80.392157%,80.392157%);fill-opacity:1;" d="M 645.601562 448.800781 C 649.507812 470.972656 651.105469 493.371094 650.398438 516 C 648.800781 519.203125 647.199219 522.398438 645.601562 525.601562 C 644 525.601562 642.398438 525.601562 640.800781 525.601562 C 641.59375 507.925781 640.796875 490.328125 638.398438 472.800781 C 605.453125 424.960938 564.652344 416.960938 516 448.800781 C 515.175781 444.039062 516.777344 440.839844 520.800781 439.199219 C 528.800781 432.800781 536.796875 426.398438 544.800781 420 C 584.285156 410.058594 617.886719 419.65625 645.601562 448.800781 Z M 645.601562 448.800781 "/>
<path style=" stroke:none;fill-rule:evenodd;fill:rgb(41.176471%,41.176471%,41.176471%);fill-opacity:1;" d="M 559.199219 400.800781 C 595.839844 396.8125 627.835938 406.410156 655.199219 429.601562 C 661.847656 442.84375 665.050781 457.246094 664.800781 472.800781 C 666.546875 489.847656 661.746094 504.25 650.398438 516 C 651.105469 493.371094 649.507812 470.972656 645.601562 448.800781 C 642.007812 430 630.804688 418 612 412.800781 C 591.203125 409.601562 570.398438 409.601562 549.601562 412.800781 C 546.929688 414.636719 545.332031 417.035156 544.800781 420 C 536.796875 426.398438 528.800781 432.800781 520.800781 439.199219 C 528.800781 421.601562 541.597656 408.800781 559.199219 400.800781 Z M 559.199219 400.800781 "/>
<path style=" stroke:none;fill-rule:evenodd;fill:rgb(50.980392%,50.980392%,50.980392%);fill-opacity:1;" d="M 1005.601562 501.601562 C 971.980469 495.511719 938.378906 495.511719 904.800781 501.601562 C 938.355469 489.058594 971.957031 489.058594 1005.601562 501.601562 Z M 1005.601562 501.601562 "/>
<path style=" stroke:none;fill-rule:evenodd;fill:rgb(0.392157%,0.392157%,0.392157%);fill-opacity:1;" d="M 1005.601562 501.601562 C 1087.753906 521.375 1142.152344 570.972656 1168.800781 650.398438 C 1172.753906 671.035156 1175.957031 691.839844 1178.398438 712.800781 C 1176.269531 730.382812 1174.664062 747.980469 1173.601562 765.601562 C 1151.199219 855.203125 1095.203125 911.199219 1005.601562 933.601562 C 987.980469 934.664062 970.382812 936.269531 952.800781 938.398438 C 931.839844 935.957031 911.035156 932.753906 890.398438 928.800781 C 810.972656 902.152344 761.375 847.753906 741.601562 765.601562 C 740.535156 747.980469 738.929688 730.382812 736.800781 712.800781 C 739.242188 691.839844 742.445312 671.035156 746.398438 650.398438 C 772.84375 572.753906 825.644531 523.15625 904.800781 501.601562 C 938.378906 495.511719 971.980469 495.511719 1005.601562 501.601562 Z M 1005.601562 501.601562 "/>
<path style=" stroke:none;fill-rule:evenodd;fill:rgb(86.666667%,86.666667%,86.666667%);fill-opacity:1;" d="M 516 448.800781 C 517.523438 515.828125 552.726562 546.230469 621.601562 540 C 613.007812 547.1875 602.609375 550.386719 590.398438 549.601562 C 533.390625 542.980469 506.992188 510.980469 511.199219 453.601562 C 511.199219 450.398438 512.796875 448.800781 516 448.800781 Z M 516 448.800781 "/>
<path style=" stroke:none;fill-rule:evenodd;fill:rgb(60.392157%,60.392157%,60.392157%);fill-opacity:1;" d="M 511.199219 453.601562 C 506.992188 510.980469 533.390625 542.980469 590.398438 549.601562 C 602.609375 550.386719 613.007812 547.1875 621.601562 540 C 630.863281 538.699219 637.265625 533.898438 640.800781 525.601562 C 642.398438 525.601562 644 525.601562 645.601562 525.601562 C 636 541.597656 623.199219 554.398438 607.199219 564 C 535.820312 569.355469 500.621094 537.359375 501.601562 468 C 501.25 460.671875 504.453125 455.871094 511.199219 453.601562 Z M 511.199219 453.601562 "/>
<path style=" stroke:none;fill-rule:evenodd;fill:rgb(33.333333%,33.333333%,33.333333%);fill-opacity:1;" d="M 501.601562 468 C 500.621094 537.359375 535.820312 569.355469 607.199219 564 C 606.667969 566.960938 605.070312 569.363281 602.398438 571.199219 C 569.554688 577.472656 539.15625 571.871094 511.199219 554.398438 C 490.347656 526.96875 487.152344 498.167969 501.601562 468 Z M 501.601562 468 "/>
<path style=" stroke:none;fill-rule:evenodd;fill:rgb(49.411765%,49.411765%,49.411765%);fill-opacity:1;" d="M 746.398438 650.398438 C 742.445312 671.035156 739.242188 691.839844 736.800781 712.800781 C 738.929688 730.382812 740.535156 747.980469 741.601562 765.601562 C 734.621094 750.152344 731.417969 733.355469 732 715.199219 C 731.265625 691.796875 736.066406 670.195312 746.398438 650.398438 Z M 746.398438 650.398438 "/>
<path style=" stroke:none;fill-rule:evenodd;fill:rgb(49.019608%,49.019608%,49.019608%);fill-opacity:1;" d="M 1168.800781 650.398438 C 1185.816406 688.195312 1187.417969 726.59375 1173.601562 765.601562 C 1174.664062 747.980469 1176.269531 730.382812 1178.398438 712.800781 C 1175.957031 691.839844 1172.753906 671.035156 1168.800781 650.398438 Z M 1168.800781 650.398438 "/>
<path style=" stroke:none;fill-rule:evenodd;fill:rgb(41.568627%,41.568627%,41.568627%);fill-opacity:1;" d="M 1404 904.800781 C 1377.75 875.65625 1345.746094 866.054688 1308 876 C 1308.53125 873.039062 1310.132812 870.636719 1312.800781 868.800781 C 1353.53125 857.238281 1383.9375 869.238281 1404 904.800781 Z M 1404 904.800781 "/>
<path style=" stroke:none;fill-rule:evenodd;fill:rgb(56.078431%,56.078431%,56.078431%);fill-opacity:1;" d="M 1404 904.800781 C 1411.210938 923.242188 1414.40625 942.441406 1413.601562 962.398438 C 1411.527344 968.207031 1408.324219 973.007812 1404 976.800781 C 1409.878906 895.546875 1373.082031 865.949219 1293.601562 888 C 1287.792969 892.988281 1282.992188 898.589844 1279.199219 904.800781 C 1277.601562 904.800781 1276 904.800781 1274.398438 904.800781 C 1279.070312 892.152344 1287.070312 882.550781 1298.398438 876 C 1301.601562 876 1304.796875 876 1308 876 C 1345.746094 866.054688 1377.75 875.65625 1404 904.800781 Z M 1404 904.800781 "/>
<path style=" stroke:none;fill-rule:evenodd;fill:rgb(23.921569%,23.921569%,23.921569%);fill-opacity:1;" d="M 1413.601562 962.398438 C 1414.40625 942.441406 1411.210938 923.242188 1404 904.800781 C 1383.9375 869.238281 1353.53125 857.238281 1312.800781 868.800781 C 1310.132812 870.636719 1308.53125 873.039062 1308 876 C 1304.796875 876 1301.601562 876 1298.398438 876 C 1302.445312 867.96875 1308.84375 862.367188 1317.601562 859.199219 C 1364.378906 847.554688 1398.777344 862.757812 1420.800781 904.800781 C 1425.175781 925.46875 1422.777344 944.667969 1413.601562 962.398438 Z M 1413.601562 962.398438 "/>
<path style=" stroke:none;fill-rule:evenodd;fill:rgb(98.823529%,98.823529%,98.823529%);fill-opacity:1;" d="M 1399.199219 986.398438 C 1399.199219 988 1399.199219 989.601562 1399.199219 991.199219 C 1388.585938 994.191406 1378.988281 998.992188 1370.398438 1005.601562 C 1352.726562 1006.390625 1335.128906 1005.59375 1317.601562 1003.199219 C 1306.253906 994.359375 1295.054688 985.558594 1284 976.800781 C 1276.964844 972.734375 1272.960938 966.335938 1272 957.601562 C 1269.609375 943.285156 1268.808594 928.886719 1269.601562 914.398438 C 1268.773438 909.636719 1270.378906 906.441406 1274.398438 904.800781 C 1276 904.800781 1277.601562 904.800781 1279.199219 904.800781 C 1328.078125 884.929688 1367.273438 896.125 1396.800781 938.398438 C 1399.191406 954.320312 1399.992188 970.320312 1399.199219 986.398438 Z M 1399.199219 986.398438 "/>
<path style=" stroke:none;fill-rule:evenodd;fill:rgb(82.352941%,82.352941%,82.352941%);fill-opacity:1;" d="M 1404 976.800781 C 1404.824219 981.5625 1403.222656 984.757812 1399.199219 986.398438 C 1399.992188 970.320312 1399.191406 954.320312 1396.800781 938.398438 C 1367.273438 896.125 1328.078125 884.929688 1279.199219 904.800781 C 1282.992188 898.589844 1287.792969 892.988281 1293.601562 888 C 1373.082031 865.949219 1409.878906 895.546875 1404 976.800781 Z M 1404 976.800781 "/>
<path style=" stroke:none;fill-rule:evenodd;fill:rgb(51.764706%,51.764706%,51.764706%);fill-opacity:1;" d="M 890.398438 928.800781 C 911.035156 932.753906 931.839844 935.957031 952.800781 938.398438 C 970.382812 936.269531 987.980469 934.664062 1005.601562 933.601562 C 990.152344 940.578125 973.355469 943.78125 955.199219 943.199219 C 931.796875 943.933594 910.195312 939.132812 890.398438 928.800781 Z M 890.398438 928.800781 "/>
<path style=" stroke:none;fill-rule:evenodd;fill:rgb(43.137255%,43.137255%,43.137255%);fill-opacity:1;" d="M 1260 928.800781 C 1255.585938 994.476562 1285.980469 1028.078125 1351.199219 1029.601562 C 1334.582031 1034.3125 1316.980469 1035.910156 1298.398438 1034.398438 C 1287.488281 1021.070312 1275.488281 1008.273438 1262.398438 996 C 1256.460938 978.910156 1254.0625 961.308594 1255.199219 943.199219 C 1254.0625 937.003906 1255.660156 932.203125 1260 928.800781 Z M 1260 928.800781 "/>
<path style=" stroke:none;fill-rule:evenodd;fill:rgb(21.960784%,21.960784%,21.960784%);fill-opacity:1;" d="M 1255.199219 943.199219 C 1254.0625 961.308594 1256.460938 978.910156 1262.398438 996 C 1275.488281 1008.273438 1287.488281 1021.070312 1298.398438 1034.398438 C 1263.464844 1027.398438 1247.46875 1005.796875 1250.398438 969.601562 C 1250.429688 959.839844 1252.027344 951.042969 1255.199219 943.199219 Z M 1255.199219 943.199219 "/>
<path style=" stroke:none;fill-rule:evenodd;fill:rgb(81.176471%,81.176471%,81.176471%);fill-opacity:1;" d="M 1284 976.800781 C 1295.054688 985.558594 1306.253906 994.359375 1317.601562 1003.199219 C 1335.128906 1005.59375 1352.726562 1006.390625 1370.398438 1005.601562 C 1351.050781 1014.90625 1330.253906 1017.308594 1308 1012.800781 C 1296.988281 1002.679688 1288.988281 990.679688 1284 976.800781 Z M 1284 976.800781 "/>
<path style=" stroke:none;fill-rule:evenodd;fill:rgb(61.960784%,61.960784%,61.960784%);fill-opacity:1;" d="M 1269.601562 914.398438 C 1268.808594 928.886719 1269.609375 943.285156 1272 957.601562 C 1272.960938 966.335938 1276.964844 972.734375 1284 976.800781 C 1288.988281 990.679688 1296.988281 1002.679688 1308 1012.800781 C 1330.253906 1017.308594 1351.050781 1014.90625 1370.398438 1005.601562 C 1378.988281 998.992188 1388.585938 994.191406 1399.199219 991.199219 C 1390.203125 1002.300781 1380.605469 1013.5 1370.398438 1024.800781 C 1363.398438 1024.476562 1357 1026.078125 1351.199219 1029.601562 C 1285.980469 1028.078125 1255.585938 994.476562 1260 928.800781 C 1259.648438 921.46875 1262.851562 916.671875 1269.601562 914.398438 Z M 1269.601562 914.398438 "/>
<path style=" stroke:none;fill-rule:evenodd;fill:rgb(23.137255%,23.137255%,23.137255%);fill-opacity:1;" d="M 1370.398438 1024.800781 C 1351.757812 1042.683594 1329.355469 1048.285156 1303.199219 1041.601562 C 1300.53125 1039.761719 1298.933594 1037.363281 1298.398438 1034.398438 C 1316.980469 1035.910156 1334.582031 1034.3125 1351.199219 1029.601562 C 1357 1026.078125 1363.398438 1024.476562 1370.398438 1024.800781 Z M 1370.398438 1024.800781 "/>
</g>
</svg>
