<?xml version="1.0" encoding="UTF-8"?>
<svg xmlns="http://www.w3.org/2000/svg" xmlns:xlink="http://www.w3.org/1999/xlink" width="1920pt" height="1440pt" viewBox="0 0 1920 1440" version="1.1">
<g id="surface1">
<path style=" stroke:none;fill-rule:evenodd;fill:rgb(0%,0%,0%);fill-opacity:1;" d="M -2.398438 -2.398438 C 637.597656 -2.398438 1277.601562 -2.398438 1917.601562 -2.398438 C 1917.601562 477.601562 1917.601562 957.601562 1917.601562 1437.601562 C 1277.601562 1437.601562 637.597656 1437.601562 -2.398438 1437.601562 C -2.398438 957.601562 -2.398438 477.601562 -2.398438 -2.398438 Z M -2.398438 -2.398438 "/>
<path style=" stroke:none;fill-rule:evenodd;fill:rgb(21.960784%,21.960784%,21.960784%);fill-opacity:1;" d="M 679.199219 391.199219 C 666.457031 382.964844 653.65625 374.164062 640.800781 364.800781 C 621.339844 361.472656 602.140625 362.269531 583.199219 367.199219 C 583.734375 364.238281 585.332031 361.835938 588 360 C 608.796875 356.800781 629.601562 356.800781 650.398438 360 C 664.363281 366.746094 673.964844 377.148438 679.199219 391.199219 Z M 679.199219 391.199219 "/>
<path style=" stroke:none;fill-rule:evenodd;fill:rgb(98.823529%,98.823529%,98.823529%);fill-opacity:1;" d="M 669.601562 487.199219 C 666.398438 493.597656 661.597656 498.398438 655.199219 501.601562 C 650.4375 500.773438 647.242188 502.378906 645.601562 506.398438 C 577.507812 510.300781 543.90625 478.300781 544.800781 410.398438 C 549.601562 402.398438 556 396 564 391.199219 C 637.070312 381.058594 672.273438 413.058594 669.601562 487.199219 Z M 669.601562 487.199219 "/>
<path style=" stroke:none;fill-rule:evenodd;fill:rgb(66.27451%,66.27451%,66.27451%);fill-opacity:1;" d="M 933.601562 396 C 916.925781 400.917969 899.328125 404.121094 880.800781 405.601562 C 882.804688 402.136719 886.003906 399.734375 890.398438 398.398438 C 904.714844 396.007812 919.113281 395.210938 933.601562 396 Z M 933.601562 396 "/>
<path style=" stroke:none;fill-rule:evenodd;fill:rgb(50.588235%,50.588235%,50.588235%);fill-opacity:1;" d="M 679.199219 391.199219 C 685.472656 413.117188 688.675781 435.519531 688.800781 458.398438 C 685.871094 467.683594 681.070312 475.683594 674.398438 482.398438 C 688.085938 420.085938 663.28125 384.886719 600 376.800781 C 584.335938 374.34375 572.335938 379.140625 564 391.199219 C 556 396 549.601562 402.398438 544.800781 410.398438 C 543.203125 410.398438 541.597656 410.398438 540 410.398438 C 549.601562 391.199219 564 376.800781 583.199219 367.199219 C 602.140625 362.269531 621.339844 361.472656 640.800781 364.800781 C 653.65625 374.164062 666.457031 382.964844 679.199219 391.199219 Z M 679.199219 391.199219 "/>
<path style=" stroke:none;fill-rule:evenodd;fill:rgb(98.431373%,98.431373%,98.431373%);fill-opacity:1;" d="M 933.601562 396 C 1053.273438 392.246094 1150.074219 437.046875 1224 530.398438 C 1242.875 558.539062 1256.472656 588.9375 1264.800781 621.601562 C 1272.929688 672.40625 1276.128906 723.605469 1274.398438 775.199219 C 1242.636719 922.171875 1153.035156 1008.570312 1005.601562 1034.398438 C 957.082031 1036.414062 909.082031 1033.214844 861.601562 1024.800781 C 736.421875 982.496094 662.824219 896.097656 640.800781 765.601562 C 638.785156 717.082031 641.984375 669.082031 650.398438 621.601562 C 687 506.597656 763.800781 434.59375 880.800781 405.601562 C 899.328125 404.121094 916.925781 400.917969 933.601562 396 Z M 933.601562 396 "/>
<path style=" stroke:none;fill-rule:evenodd;fill:rgb(24.313725%,24.313725%,24.313725%);fill-opacity:1;" d="M 679.199219 391.199219 C 686.238281 395.265625 690.238281 401.664062 691.199219 410.398438 C 695.078125 427.328125 694.277344 443.328125 688.800781 458.398438 C 688.675781 435.519531 685.472656 413.117188 679.199219 391.199219 Z M 679.199219 391.199219 "/>
<path style=" stroke:none;fill-rule:evenodd;fill:rgb(40.784314%,40.784314%,40.784314%);fill-opacity:1;" d="M 530.398438 424.800781 C 529.609375 439.289062 530.410156 453.6875 532.800781 468 C 540.054688 482.503906 547.253906 496.90625 554.398438 511.199219 C 542.828125 512.941406 535.628906 508.140625 532.800781 496.800781 C 527.414062 474.710938 525.015625 452.3125 525.601562 429.601562 C 525.601562 426.398438 527.199219 424.800781 530.398438 424.800781 Z M 530.398438 424.800781 "/>
<path style=" stroke:none;fill-rule:evenodd;fill:rgb(77.647059%,77.647059%,77.647059%);fill-opacity:1;" d="M 674.398438 482.398438 C 674.398438 485.601562 672.800781 487.199219 669.601562 487.199219 C 672.273438 413.058594 637.070312 381.058594 564 391.199219 C 572.335938 379.140625 584.335938 374.34375 600 376.800781 C 663.28125 384.886719 688.085938 420.085938 674.398438 482.398438 Z M 674.398438 482.398438 "/>
<path style=" stroke:none;fill-rule:evenodd;fill:rgb(84.313725%,84.313725%,84.313725%);fill-opacity:1;" d="M 540 410.398438 C 541.597656 410.398438 543.203125 410.398438 544.800781 410.398438 C 543.90625 478.300781 577.507812 510.300781 645.601562 506.398438 C 626.25 515.707031 605.453125 518.105469 583.199219 513.601562 C 566.332031 496.71875 551.132812 478.316406 537.601562 458.398438 C 534.4375 442.136719 535.238281 426.136719 540 410.398438 Z M 540 410.398438 "/>
<path style=" stroke:none;fill-rule:evenodd;fill:rgb(20%,20%,20%);fill-opacity:1;" d="M 525.601562 429.601562 C 525.015625 452.3125 527.414062 474.710938 532.800781 496.800781 C 535.628906 508.140625 542.828125 512.941406 554.398438 511.199219 C 559.554688 517.847656 565.953125 523.445312 573.601562 528 C 589.523438 530.390625 605.519531 531.191406 621.601562 530.398438 C 574.839844 549.847656 542.035156 535.449219 523.199219 487.199219 C 519.300781 467.09375 520.105469 447.894531 525.601562 429.601562 Z M 525.601562 429.601562 "/>
<path style=" stroke:none;fill-rule:evenodd;fill:rgb(61.176471%,61.176471%,61.176471%);fill-opacity:1;" d="M 540 410.398438 C 535.238281 426.136719 534.4375 442.136719 537.601562 458.398438 C 551.132812 478.316406 566.332031 496.71875 583.199219 513.601562 C 605.453125 518.105469 626.25 515.707031 645.601562 506.398438 C 647.242188 502.378906 650.4375 500.773438 655.199219 501.601562 C 652 511.199219 645.601562 517.597656 636 520.800781 C 607.90625 522.957031 580.703125 519.757812 554.398438 511.199219 C 547.253906 496.90625 540.054688 482.503906 532.800781 468 C 530.410156 453.6875 529.609375 439.289062 530.398438 424.800781 C 530.050781 417.472656 533.25 412.671875 540 410.398438 Z M 540 410.398438 "/>
<path style=" stroke:none;fill-rule:evenodd;fill:rgb(41.960784%,41.960784%,41.960784%);fill-opacity:1;" d="M 554.398438 511.199219 C 580.703125 519.757812 607.90625 522.957031 636 520.800781 C 632.207031 525.125 627.40625 528.328125 621.601562 530.398438 C 605.519531 531.191406 589.523438 530.390625 573.601562 528 C 565.953125 523.445312 559.554688 517.847656 554.398438 511.199219 Z M 554.398438 511.199219 "/>
<path style=" stroke:none;fill-rule:evenodd;fill:rgb(1.176471%,1.176471%,1.176471%);fill-opacity:1;" d="M 1144.800781 693.601562 C 1145.703125 721.382812 1142.503906 748.585938 1135.199219 775.199219 C 1085.734375 884.433594 1002.53125 923.628906 885.601562 892.800781 C 786.0625 838.433594 751.660156 756.035156 782.398438 645.601562 C 803.449219 598.152344 837.847656 564.550781 885.601562 544.800781 C 897.109375 545.957031 906.710938 542.753906 914.398438 535.199219 C 1037.546875 521.515625 1114.347656 574.316406 1144.800781 693.601562 Z M 1144.800781 693.601562 "/>
<path style=" stroke:none;fill-rule:evenodd;fill:rgb(32.156863%,32.156863%,31.764706%);fill-opacity:1;" d="M 914.398438 535.199219 C 906.710938 542.753906 897.109375 545.957031 885.601562 544.800781 C 893.289062 537.246094 902.890625 534.042969 914.398438 535.199219 Z M 914.398438 535.199219 "/>
<path style=" stroke:none;fill-rule:evenodd;fill:rgb(78.431373%,78.431373%,78.431373%);fill-opacity:1;" d="M 1264.800781 621.601562 C 1270.179688 633.378906 1274.179688 646.179688 1276.800781 660 C 1280.75 699.25 1279.949219 737.648438 1274.398438 775.199219 C 1276.128906 723.605469 1272.929688 672.40625 1264.800781 621.601562 Z M 1264.800781 621.601562 "/>
<path style=" stroke:none;fill-rule:evenodd;fill:rgb(78.039216%,78.039216%,78.039216%);fill-opacity:1;" d="M 650.398438 621.601562 C 641.984375 669.082031 638.785156 717.082031 640.800781 765.601562 C 635.25 728.050781 634.449219 689.648438 638.398438 650.398438 C 642.457031 640.265625 646.453125 630.667969 650.398438 621.601562 Z M 650.398438 621.601562 "/>
<path style=" stroke:none;fill-rule:evenodd;fill:rgb(76.862745%,76.862745%,76.862745%);fill-opacity:1;" d="M 1144.800781 693.601562 C 1152.546875 721.914062 1149.351562 749.113281 1135.199219 775.199219 C 1142.503906 748.585938 1145.703125 721.382812 1144.800781 693.601562 Z M 1144.800781 693.601562 "/>
<path style=" stroke:none;fill-rule:evenodd;fill:rgb(23.529412%,23.529412%,23.529412%);fill-opacity:1;" d="M 1389.601562 996 C 1393.875 950.902344 1374.675781 921.308594 1332 907.199219 C 1317.6875 904.808594 1303.285156 904.007812 1288.800781 904.800781 C 1290.804688 901.335938 1294.003906 898.933594 1298.398438 897.601562 C 1329.648438 892.019531 1356.84375 900.019531 1380 921.601562 C 1394.125 945.371094 1397.328125 970.171875 1389.601562 996 Z M 1389.601562 996 "/>
<path style=" stroke:none;fill-rule:evenodd;fill:rgb(69.411765%,69.411765%,69.411765%);fill-opacity:1;" d="M 1370.398438 957.601562 C 1356.464844 947.347656 1342.066406 936.949219 1327.199219 926.398438 C 1309.671875 924.003906 1292.074219 923.207031 1274.398438 924 C 1316.355469 904.390625 1348.359375 915.589844 1370.398438 957.601562 Z M 1370.398438 957.601562 "/>
<path style=" stroke:none;fill-rule:evenodd;fill:rgb(97.254902%,97.254902%,97.254902%);fill-opacity:1;" d="M 1274.398438 924 C 1292.074219 923.207031 1309.671875 924.003906 1327.199219 926.398438 C 1342.066406 936.949219 1356.464844 947.347656 1370.398438 957.601562 C 1374.214844 978.167969 1375.8125 998.972656 1375.199219 1020 C 1373.125 1025.808594 1369.925781 1030.609375 1365.601562 1034.398438 C 1336.972656 1049.460938 1306.574219 1052.664062 1274.398438 1044 C 1265.136719 1030.277344 1254.738281 1017.476562 1243.199219 1005.601562 C 1240.8125 986.285156 1241.609375 967.085938 1245.601562 948 C 1255.199219 940 1264.800781 932 1274.398438 924 Z M 1274.398438 924 "/>
<path style=" stroke:none;fill-rule:evenodd;fill:rgb(70.588235%,70.588235%,70.588235%);fill-opacity:1;" d="M 1245.601562 948 C 1241.609375 967.085938 1240.8125 986.285156 1243.199219 1005.601562 C 1254.738281 1017.476562 1265.136719 1030.277344 1274.398438 1044 C 1236.894531 1024.324219 1225.695312 993.925781 1240.800781 952.800781 C 1240.800781 949.597656 1242.398438 948 1245.601562 948 Z M 1245.601562 948 "/>
<path style=" stroke:none;fill-rule:evenodd;fill:rgb(52.156863%,52.156863%,52.156863%);fill-opacity:1;" d="M 1288.800781 904.800781 C 1303.285156 904.007812 1317.6875 904.808594 1332 907.199219 C 1374.675781 921.308594 1393.875 950.902344 1389.601562 996 C 1388.539062 1006.386719 1383.738281 1014.382812 1375.199219 1020 C 1375.8125 998.972656 1374.214844 978.167969 1370.398438 957.601562 C 1348.359375 915.589844 1316.355469 904.390625 1274.398438 924 C 1264.800781 932 1255.199219 940 1245.601562 948 C 1255.199219 928.800781 1269.601562 914.398438 1288.800781 904.800781 Z M 1288.800781 904.800781 "/>
<path style=" stroke:none;fill-rule:evenodd;fill:rgb(79.607843%,79.607843%,79.607843%);fill-opacity:1;" d="M 861.601562 1024.800781 C 909.082031 1033.214844 957.082031 1036.414062 1005.601562 1034.398438 C 969.652344 1039.949219 932.855469 1040.746094 895.199219 1036.800781 C 883.179688 1033.449219 871.980469 1029.453125 861.601562 1024.800781 Z M 861.601562 1024.800781 "/>
<path style=" stroke:none;fill-rule:evenodd;fill:rgb(52.941176%,52.941176%,52.941176%);fill-opacity:1;" d="M 1240.800781 952.800781 C 1225.695312 993.925781 1236.894531 1024.324219 1274.398438 1044 C 1285.972656 1055.328125 1300.371094 1060.128906 1317.601562 1058.398438 C 1334.449219 1060.128906 1348.847656 1055.328125 1360.800781 1044 C 1355.492188 1056.371094 1345.890625 1064.371094 1332 1068 C 1261.257812 1070.855469 1227.65625 1037.257812 1231.199219 967.199219 C 1230.847656 959.871094 1234.050781 955.070312 1240.800781 952.800781 Z M 1240.800781 952.800781 "/>
<path style=" stroke:none;fill-rule:evenodd;fill:rgb(32.941176%,32.941176%,32.941176%);fill-opacity:1;" d="M 1231.199219 967.199219 C 1227.65625 1037.257812 1261.257812 1070.855469 1332 1068 C 1280.773438 1092.164062 1244.773438 1077.761719 1224 1024.800781 C 1219.621094 1004.132812 1222.023438 984.929688 1231.199219 967.199219 Z M 1231.199219 967.199219 "/>
<path style=" stroke:none;fill-rule:evenodd;fill:rgb(74.509804%,74.509804%,74.509804%);fill-opacity:1;" d="M 1365.601562 1034.398438 C 1364 1037.601562 1362.398438 1040.796875 1360.800781 1044 C 1348.847656 1055.328125 1334.449219 1060.128906 1317.601562 1058.398438 C 1300.371094 1060.128906 1285.972656 1055.328125 1274.398438 1044 C 1306.574219 1052.664062 1336.972656 1049.460938 1365.601562 1034.398438 Z M 1365.601562 1034.398438 "/>
</g>
</svg>
