<?xml version="1.0" encoding="UTF-8"?>
<svg xmlns="http://www.w3.org/2000/svg" xmlns:xlink="http://www.w3.org/1999/xlink" width="1920pt" height="1440pt" viewBox="0 0 1920 1440" version="1.1">
<g id="surface1">
<path style=" stroke:none;fill-rule:evenodd;fill:rgb(0%,0%,0%);fill-opacity:1;" d="M -2.398438 -2.398438 C 637.597656 -2.398438 1277.601562 -2.398438 1917.601562 -2.398438 C 1917.601562 477.601562 1917.601562 957.601562 1917.601562 1437.601562 C 1277.601562 1437.601562 637.597656 1437.601562 -2.398438 1437.601562 C -2.398438 957.601562 -2.398438 477.601562 -2.398438 -2.398438 Z M -2.398438 -2.398438 "/>
<path style=" stroke:none;fill-rule:evenodd;fill:rgb(98.431373%,98.431373%,98.431373%);fill-opacity:1;" d="M 967.199219 208.800781 C 1028.179688 209.011719 1052.980469 239.410156 1041.601562 300 C 1033.414062 309.96875 1027.8125 321.167969 1024.800781 333.601562 C 1018.402344 333.601562 1015.199219 336.800781 1015.199219 343.199219 C 1001.136719 347.035156 986.734375 348.636719 972 348 C 965.28125 345.121094 960.480469 340.320312 957.601562 333.601562 C 939.847656 307.558594 934.253906 278.757812 940.800781 247.199219 C 950.660156 234.972656 959.457031 222.171875 967.199219 208.800781 Z M 967.199219 208.800781 "/>
<path style=" stroke:none;fill-rule:evenodd;fill:rgb(54.901961%,54.901961%,54.901961%);fill-opacity:1;" d="M 957.601562 199.199219 C 973.597656 199.199219 989.601562 199.199219 1005.601562 199.199219 C 1005.601562 200.800781 1005.601562 202.398438 1005.601562 204 C 991.753906 202.527344 978.949219 204.128906 967.199219 208.800781 C 949.972656 211.640625 938.773438 221.242188 933.601562 237.601562 C 925.035156 242.753906 919.433594 250.753906 916.800781 261.601562 C 914.019531 279.371094 914.824219 296.972656 919.199219 314.398438 C 909.925781 304.589844 905.125 292.589844 904.800781 278.398438 C 907.347656 264.878906 908.945312 251.28125 909.601562 237.601562 C 916.957031 228.695312 924.960938 219.898438 933.601562 211.199219 C 943.15625 209.40625 951.160156 205.40625 957.601562 199.199219 Z M 957.601562 199.199219 "/>
<path style=" stroke:none;fill-rule:evenodd;fill:rgb(66.27451%,66.27451%,66.27451%);fill-opacity:1;" d="M 933.601562 237.601562 C 924.875 260.875 922.472656 284.875 926.398438 309.601562 C 937.78125 317.0625 948.175781 325.0625 957.601562 333.601562 C 960.480469 340.320312 965.28125 345.121094 972 348 C 967.199219 348 962.398438 348 957.601562 348 C 956 348 954.398438 348 952.800781 348 C 936.957031 341.753906 925.753906 330.554688 919.199219 314.398438 C 914.824219 296.972656 914.019531 279.371094 916.800781 261.601562 C 919.433594 250.753906 925.035156 242.753906 933.601562 237.601562 Z M 933.601562 237.601562 "/>
<path style=" stroke:none;fill-rule:evenodd;fill:rgb(85.098039%,85.098039%,85.098039%);fill-opacity:1;" d="M 967.199219 208.800781 C 959.457031 222.171875 950.660156 234.972656 940.800781 247.199219 C 934.253906 278.757812 939.847656 307.558594 957.601562 333.601562 C 948.175781 325.0625 937.78125 317.0625 926.398438 309.601562 C 922.472656 284.875 924.875 260.875 933.601562 237.601562 C 938.773438 221.242188 949.972656 211.640625 967.199219 208.800781 Z M 967.199219 208.800781 "/>
<path style=" stroke:none;fill-rule:evenodd;fill:rgb(20.784314%,20.784314%,20.784314%);fill-opacity:1;" d="M 957.601562 199.199219 C 951.160156 205.40625 943.15625 209.40625 933.601562 211.199219 C 924.960938 219.898438 916.957031 228.695312 909.601562 237.601562 C 897.65625 245.066406 892.859375 256.265625 895.199219 271.199219 C 895.441406 287.886719 898.640625 303.886719 904.800781 319.199219 C 898.609375 316.523438 894.609375 311.722656 892.800781 304.800781 C 879.128906 247.261719 900.730469 212.0625 957.601562 199.199219 Z M 957.601562 199.199219 "/>
<path style=" stroke:none;fill-rule:evenodd;fill:rgb(34.117647%,34.117647%,34.117647%);fill-opacity:1;" d="M 909.601562 237.601562 C 908.945312 251.28125 907.347656 264.878906 904.800781 278.398438 C 905.125 292.589844 909.925781 304.589844 919.199219 314.398438 C 925.753906 330.554688 936.957031 341.753906 952.800781 348 C 946.210938 348.753906 939.804688 347.953125 933.601562 345.601562 C 924.625 335.808594 915.023438 327.011719 904.800781 319.199219 C 898.640625 303.886719 895.441406 287.886719 895.199219 271.199219 C 892.859375 256.265625 897.65625 245.066406 909.601562 237.601562 Z M 909.601562 237.601562 "/>
<path style=" stroke:none;fill-rule:evenodd;fill:rgb(74.901961%,74.901961%,74.901961%);fill-opacity:1;" d="M 967.199219 208.800781 C 978.949219 204.128906 991.753906 202.527344 1005.601562 204 C 1010.648438 203.28125 1015.449219 204.082031 1020 206.398438 C 1029.652344 220.328125 1040.851562 232.328125 1053.601562 242.398438 C 1060.980469 279.109375 1051.382812 309.511719 1024.800781 333.601562 C 1027.8125 321.167969 1033.414062 309.96875 1041.601562 300 C 1052.980469 239.410156 1028.179688 209.011719 967.199219 208.800781 Z M 967.199219 208.800781 "/>
<path style=" stroke:none;fill-rule:evenodd;fill:rgb(56.862745%,56.862745%,56.862745%);fill-opacity:1;" d="M 1053.601562 242.398438 C 1056.5625 242.929688 1058.960938 244.53125 1060.800781 247.199219 C 1064 269.601562 1064 292 1060.800781 314.398438 C 1047.214844 327.304688 1032.019531 336.90625 1015.199219 343.199219 C 1015.199219 336.800781 1018.402344 333.601562 1024.800781 333.601562 C 1051.382812 309.511719 1060.980469 279.109375 1053.601562 242.398438 Z M 1053.601562 242.398438 "/>
<path style=" stroke:none;fill-rule:evenodd;fill:rgb(22.745098%,22.745098%,22.745098%);fill-opacity:1;" d="M 1068 232.800781 C 1072.597656 234.972656 1076.601562 238.171875 1080 242.398438 C 1086.359375 261.257812 1087.957031 280.457031 1084.800781 300 C 1079.8125 305.808594 1074.210938 310.609375 1068 314.398438 C 1073.46875 287.335938 1073.46875 260.132812 1068 232.800781 Z M 1068 232.800781 "/>
<path style=" stroke:none;fill-rule:evenodd;fill:rgb(39.607843%,39.607843%,39.607843%);fill-opacity:1;" d="M 1005.601562 204 C 1005.601562 202.398438 1005.601562 200.800781 1005.601562 199.199219 C 1017.25 199.308594 1028.449219 201.710938 1039.199219 206.398438 C 1048.175781 216.191406 1057.777344 224.988281 1068 232.800781 C 1073.46875 260.132812 1073.46875 287.335938 1068 314.398438 C 1048.441406 343.898438 1020.441406 356.699219 984 352.800781 C 974.242188 352.773438 965.441406 351.171875 957.601562 348 C 962.398438 348 967.199219 348 972 348 C 986.734375 348.636719 1001.136719 347.035156 1015.199219 343.199219 C 1032.019531 336.90625 1047.214844 327.304688 1060.800781 314.398438 C 1064 292 1064 269.601562 1060.800781 247.199219 C 1058.960938 244.53125 1056.5625 242.929688 1053.601562 242.398438 C 1040.851562 232.328125 1029.652344 220.328125 1020 206.398438 C 1015.449219 204.082031 1010.648438 203.28125 1005.601562 204 Z M 1005.601562 204 "/>
<path style=" stroke:none;fill-rule:evenodd;fill:rgb(98.431373%,98.431373%,98.431373%);fill-opacity:1;" d="M 1015.199219 410.398438 C 1030.863281 420.328125 1048.464844 425.128906 1068 424.800781 C 1130.308594 449.476562 1180.707031 489.476562 1219.199219 544.800781 C 1230.585938 561.167969 1239.382812 578.769531 1245.601562 597.601562 C 1246.511719 613.703125 1251.3125 628.105469 1260 640.800781 C 1266.574219 663.675781 1269.777344 687.675781 1269.601562 712.800781 C 1268.265625 741.847656 1265.0625 770.648438 1260 799.199219 C 1251.457031 806.351562 1248.257812 815.953125 1250.398438 828 C 1219.609375 902.015625 1168.410156 958.019531 1096.800781 996 C 1089.46875 995.648438 1084.671875 998.851562 1082.398438 1005.601562 C 1071.824219 1006.097656 1062.226562 1009.296875 1053.601562 1015.199219 C 1039.808594 1016.648438 1027.011719 1019.851562 1015.199219 1024.800781 C 969.855469 1032.359375 925.054688 1030.761719 880.800781 1020 C 868.105469 1011.3125 853.703125 1006.511719 837.601562 1005.601562 C 755.242188 970.484375 697.640625 911.285156 664.800781 828 C 666.941406 815.953125 663.742188 806.351562 655.199219 799.199219 C 642.96875 746.160156 642.96875 693.359375 655.199219 640.800781 C 663.886719 628.105469 668.6875 613.703125 669.601562 597.601562 C 701.601562 517.597656 757.597656 461.601562 837.601562 429.601562 C 853.703125 428.691406 868.105469 423.890625 880.800781 415.199219 C 924.605469 404.480469 969.402344 402.878906 1015.199219 410.398438 Z M 1015.199219 410.398438 "/>
<path style=" stroke:none;fill-rule:evenodd;fill:rgb(63.137255%,63.137255%,63.137255%);fill-opacity:1;" d="M 1015.199219 410.398438 C 1034.140625 412.230469 1051.738281 417.03125 1068 424.800781 C 1048.464844 425.128906 1030.863281 420.328125 1015.199219 410.398438 Z M 1015.199219 410.398438 "/>
<path style=" stroke:none;fill-rule:evenodd;fill:rgb(65.490196%,65.490196%,65.490196%);fill-opacity:1;" d="M 880.800781 415.199219 C 868.105469 423.890625 853.703125 428.691406 837.601562 429.601562 C 850.003906 420.132812 864.402344 415.332031 880.800781 415.199219 Z M 880.800781 415.199219 "/>
<path style=" stroke:none;fill-rule:evenodd;fill:rgb(0.784314%,0.784314%,0.784314%);fill-opacity:1;" d="M 996 530.398438 C 1005.671875 537.234375 1016.871094 540.433594 1029.601562 540 C 1119.542969 583.851562 1157.941406 655.851562 1144.800781 756 C 1137.964844 765.671875 1134.769531 776.871094 1135.199219 789.601562 C 1078.050781 894.085938 991.652344 928.488281 876 892.800781 C 832.433594 868.644531 800.433594 834.25 780 789.601562 C 780.433594 776.871094 777.234375 765.671875 770.398438 756 C 756.8125 660.894531 792.007812 590.492188 876 544.800781 C 891.113281 545.207031 903.917969 540.40625 914.398438 530.398438 C 941.601562 524 968.796875 524 996 530.398438 Z M 996 530.398438 "/>
<path style=" stroke:none;fill-rule:evenodd;fill:rgb(53.72549%,53.72549%,53.72549%);fill-opacity:1;" d="M 996 530.398438 C 1008.730469 529.96875 1019.929688 533.164062 1029.601562 540 C 1016.871094 540.433594 1005.671875 537.234375 996 530.398438 Z M 996 530.398438 "/>
<path style=" stroke:none;fill-rule:evenodd;fill:rgb(28.235294%,28.235294%,28.235294%);fill-opacity:1;" d="M 914.398438 530.398438 C 903.917969 540.40625 891.113281 545.207031 876 544.800781 C 887 536.320312 899.796875 531.519531 914.398438 530.398438 Z M 914.398438 530.398438 "/>
<path style=" stroke:none;fill-rule:evenodd;fill:rgb(65.882353%,65.882353%,65.490196%);fill-opacity:1;" d="M 669.601562 597.601562 C 668.6875 613.703125 663.886719 628.105469 655.199219 640.800781 C 655.335938 624.402344 660.132812 610.003906 669.601562 597.601562 Z M 669.601562 597.601562 "/>
<path style=" stroke:none;fill-rule:evenodd;fill:rgb(65.882353%,65.882353%,65.490196%);fill-opacity:1;" d="M 1245.601562 597.601562 C 1255.066406 610.003906 1259.867188 624.402344 1260 640.800781 C 1251.3125 628.105469 1246.511719 613.703125 1245.601562 597.601562 Z M 1245.601562 597.601562 "/>
<path style=" stroke:none;fill-rule:evenodd;fill:rgb(53.72549%,53.72549%,53.72549%);fill-opacity:1;" d="M 770.398438 756 C 777.234375 765.671875 780.433594 776.871094 780 789.601562 C 773.164062 779.929688 769.96875 768.730469 770.398438 756 Z M 770.398438 756 "/>
<path style=" stroke:none;fill-rule:evenodd;fill:rgb(53.72549%,53.72549%,53.72549%);fill-opacity:1;" d="M 1144.800781 756 C 1145.230469 768.730469 1142.035156 779.929688 1135.199219 789.601562 C 1134.769531 776.871094 1137.964844 765.671875 1144.800781 756 Z M 1144.800781 756 "/>
<path style=" stroke:none;fill-rule:evenodd;fill:rgb(60.784314%,60.784314%,60.784314%);fill-opacity:1;" d="M 655.199219 799.199219 C 663.742188 806.351562 666.941406 815.953125 664.800781 828 C 658.859375 819.773438 655.65625 810.171875 655.199219 799.199219 Z M 655.199219 799.199219 "/>
<path style=" stroke:none;fill-rule:evenodd;fill:rgb(60.784314%,60.784314%,60.784314%);fill-opacity:1;" d="M 1260 799.199219 C 1259.542969 810.171875 1256.34375 819.773438 1250.398438 828 C 1248.257812 815.953125 1251.457031 806.351562 1260 799.199219 Z M 1260 799.199219 "/>
<path style=" stroke:none;fill-rule:evenodd;fill:rgb(38.431373%,38.431373%,38.431373%);fill-opacity:1;" d="M 1096.800781 996 C 1094.53125 1002.75 1089.730469 1005.949219 1082.398438 1005.601562 C 1084.671875 998.851562 1089.46875 995.648438 1096.800781 996 Z M 1096.800781 996 "/>
<path style=" stroke:none;fill-rule:evenodd;fill:rgb(65.882353%,65.882353%,65.882353%);fill-opacity:1;" d="M 837.601562 1005.601562 C 853.703125 1006.511719 868.105469 1011.3125 880.800781 1020 C 864.402344 1019.867188 850.003906 1015.066406 837.601562 1005.601562 Z M 837.601562 1005.601562 "/>
<path style=" stroke:none;fill-rule:evenodd;fill:rgb(29.019608%,29.019608%,29.019608%);fill-opacity:1;" d="M 1053.601562 1015.199219 C 1042.65625 1023.46875 1029.855469 1026.667969 1015.199219 1024.800781 C 1027.011719 1019.851562 1039.808594 1016.648438 1053.601562 1015.199219 Z M 1053.601562 1015.199219 "/>
<path style=" stroke:none;fill-rule:evenodd;fill:rgb(30.196078%,30.196078%,30.196078%);fill-opacity:1;" d="M 890.398438 1087.199219 C 853.148438 1112.699219 839.542969 1147.894531 849.601562 1192.800781 C 854.941406 1196.664062 860.539062 1199.867188 866.398438 1202.398438 C 871.464844 1217.0625 881.0625 1226.664062 895.199219 1231.199219 C 852.777344 1223.0625 831.980469 1196.664062 832.800781 1152 C 834.355469 1114.460938 853.554688 1092.859375 890.398438 1087.199219 Z M 890.398438 1087.199219 "/>
<path style=" stroke:none;fill-rule:evenodd;fill:rgb(98.039216%,98.039216%,98.039216%);fill-opacity:1;" d="M 952.800781 1092 C 957.480469 1105.191406 966.277344 1114.789062 979.199219 1120.800781 C 994.753906 1168.914062 981.152344 1205.710938 938.398438 1231.199219 C 927.085938 1231.980469 915.886719 1231.1875 904.800781 1228.800781 C 900.570312 1225.402344 897.375 1221.398438 895.199219 1216.800781 C 877.976562 1194.042969 872.375 1168.445312 878.398438 1140 C 886.875 1126.011719 894.078125 1111.613281 900 1096.800781 C 908.59375 1089.613281 918.988281 1086.414062 931.199219 1087.199219 C 939.394531 1087.238281 946.59375 1088.839844 952.800781 1092 Z M 952.800781 1092 "/>
<path style=" stroke:none;fill-rule:evenodd;fill:rgb(53.72549%,53.72549%,53.72549%);fill-opacity:1;" d="M 972 1092 C 965.601562 1092 959.199219 1092 952.800781 1092 C 946.59375 1088.839844 939.394531 1087.238281 931.199219 1087.199219 C 918.988281 1086.414062 908.59375 1089.613281 900 1096.800781 C 881.386719 1100.910156 869.386719 1112.105469 864 1130.398438 C 860.515625 1154.648438 861.316406 1178.648438 866.398438 1202.398438 C 860.539062 1199.867188 854.941406 1196.664062 849.601562 1192.800781 C 839.542969 1147.894531 853.148438 1112.699219 890.398438 1087.199219 C 913.996094 1081.867188 937.996094 1081.066406 962.398438 1084.800781 C 966.796875 1086.132812 969.992188 1088.535156 972 1092 Z M 972 1092 "/>
<path style=" stroke:none;fill-rule:evenodd;fill:rgb(35.294118%,35.294118%,35.294118%);fill-opacity:1;" d="M 1000.800781 1116 C 1005.398438 1118.175781 1009.402344 1121.371094 1012.800781 1125.601562 C 1017.636719 1153.96875 1015.238281 1181.167969 1005.601562 1207.199219 C 1006.011719 1211.980469 1004.410156 1215.980469 1000.800781 1219.199219 C 986.257812 1225.363281 971.855469 1230.964844 957.601562 1236 C 1005.355469 1207.933594 1019.753906 1167.929688 1000.800781 1116 Z M 1000.800781 1116 "/>
<path style=" stroke:none;fill-rule:evenodd;fill:rgb(20.784314%,20.784314%,20.784314%);fill-opacity:1;" d="M 1000.800781 1106.398438 C 1018.910156 1117.023438 1026.910156 1133.019531 1024.800781 1154.398438 C 1024.285156 1169.121094 1021.886719 1183.523438 1017.601562 1197.601562 C 1014.203125 1201.828125 1010.199219 1205.027344 1005.601562 1207.199219 C 1015.238281 1181.167969 1017.636719 1153.96875 1012.800781 1125.601562 C 1009.402344 1121.371094 1005.398438 1118.175781 1000.800781 1116 C 1000.800781 1112.796875 1000.800781 1109.601562 1000.800781 1106.398438 Z M 1000.800781 1106.398438 "/>
<path style=" stroke:none;fill-rule:evenodd;fill:rgb(79.215686%,79.215686%,79.215686%);fill-opacity:1;" d="M 900 1096.800781 C 894.078125 1111.613281 886.875 1126.011719 878.398438 1140 C 872.375 1168.445312 877.976562 1194.042969 895.199219 1216.800781 C 886.425781 1210.589844 876.824219 1205.789062 866.398438 1202.398438 C 861.316406 1178.648438 860.515625 1154.648438 864 1130.398438 C 869.386719 1112.105469 881.386719 1100.910156 900 1096.800781 Z M 900 1096.800781 "/>
<path style=" stroke:none;fill-rule:evenodd;fill:rgb(53.333333%,53.333333%,53.333333%);fill-opacity:1;" d="M 972 1092 C 982.964844 1094.28125 992.5625 1099.078125 1000.800781 1106.398438 C 1000.800781 1109.601562 1000.800781 1112.796875 1000.800781 1116 C 1019.753906 1167.929688 1005.355469 1207.933594 957.601562 1236 C 936.332031 1237.292969 915.527344 1235.691406 895.199219 1231.199219 C 881.0625 1226.664062 871.464844 1217.0625 866.398438 1202.398438 C 876.824219 1205.789062 886.425781 1210.589844 895.199219 1216.800781 C 897.375 1221.398438 900.570312 1225.402344 904.800781 1228.800781 C 915.886719 1231.1875 927.085938 1231.980469 938.398438 1231.199219 C 966.9375 1226.515625 986.136719 1210.515625 996 1183.199219 C 1006.398438 1147.300781 998.398438 1116.902344 972 1092 Z M 972 1092 "/>
<path style=" stroke:none;fill-rule:evenodd;fill:rgb(72.54902%,72.54902%,72.54902%);fill-opacity:1;" d="M 952.800781 1092 C 959.199219 1092 965.601562 1092 972 1092 C 998.398438 1116.902344 1006.398438 1147.300781 996 1183.199219 C 986.136719 1210.515625 966.9375 1226.515625 938.398438 1231.199219 C 981.152344 1205.710938 994.753906 1168.914062 979.199219 1120.800781 C 966.277344 1114.789062 957.480469 1105.191406 952.800781 1092 Z M 952.800781 1092 "/>
</g>
</svg>
