<?xml version="1.0" encoding="UTF-8"?>
<svg xmlns="http://www.w3.org/2000/svg" xmlns:xlink="http://www.w3.org/1999/xlink" width="1920pt" height="1440pt" viewBox="0 0 1920 1440" version="1.1">
<g id="surface1">
<path style=" stroke:none;fill-rule:evenodd;fill:rgb(0%,0%,0%);fill-opacity:1;" d="M -2.398438 -2.398438 C 637.597656 -2.398438 1277.601562 -2.398438 1917.601562 -2.398438 C 1917.601562 477.601562 1917.601562 957.601562 1917.601562 1437.601562 C 1277.601562 1437.601562 637.597656 1437.601562 -2.398438 1437.601562 C -2.398438 957.601562 -2.398438 477.601562 -2.398438 -2.398438 Z M -2.398438 -2.398438 "/>
<path style=" stroke:none;fill-rule:evenodd;fill:rgb(97.254902%,97.254902%,97.254902%);fill-opacity:1;" d="M 1255.199219 616.800781 C 1263.257812 666.007812 1266.460938 715.613281 1264.800781 765.601562 C 1237.871094 908.535156 1153.070312 995.734375 1010.398438 1027.199219 C 978.441406 1029.601562 946.441406 1030.398438 914.398438 1029.601562 C 913.867188 1026.636719 912.269531 1024.238281 909.601562 1022.398438 C 891.984375 1019.769531 874.382812 1017.371094 856.800781 1015.199219 C 741.332031 972.542969 671.730469 890.941406 648 770.398438 C 631.828125 601.929688 701.429688 484.328125 856.800781 417.601562 C 1005.332031 379.105469 1126.128906 419.90625 1219.199219 540 C 1235.113281 563.824219 1247.113281 589.421875 1255.199219 616.800781 Z M 1255.199219 616.800781 "/>
<path style=" stroke:none;fill-rule:evenodd;fill:rgb(54.117647%,54.117647%,54.117647%);fill-opacity:1;" d="M 924 501.601562 C 933.46875 498.417969 943.867188 496.820312 955.199219 496.800781 C 973.355469 496.21875 990.152344 499.421875 1005.601562 506.398438 C 978.539062 502.945312 951.339844 501.34375 924 501.601562 Z M 924 501.601562 "/>
<path style=" stroke:none;fill-rule:evenodd;fill:rgb(0.784314%,0.784314%,0.784314%);fill-opacity:1;" d="M 924 501.601562 C 951.339844 501.34375 978.539062 502.945312 1005.601562 506.398438 C 1099.523438 529.914062 1155.519531 589.113281 1173.601562 684 C 1173.855469 711.339844 1172.257812 738.539062 1168.800781 765.601562 C 1148 853.597656 1093.597656 908 1005.601562 928.800781 C 976.9375 932.355469 948.140625 933.960938 919.199219 933.601562 C 825.25 912.453125 766.847656 854.851562 744 760.800781 C 729.484375 621.636719 789.484375 535.238281 924 501.601562 Z M 924 501.601562 "/>
<path style=" stroke:none;fill-rule:evenodd;fill:rgb(24.313725%,24.313725%,24.313725%);fill-opacity:1;" d="M 588 645.601562 C 578.050781 635.617188 566.847656 627.621094 554.398438 621.601562 C 551.199219 621.601562 548 621.601562 544.800781 621.601562 C 542.792969 618.132812 539.597656 615.734375 535.199219 614.398438 C 500.582031 606.695312 471.78125 615.5 448.800781 640.800781 C 460.65625 612.191406 482.257812 597.792969 513.601562 597.601562 C 550.683594 595.699219 575.480469 611.699219 588 645.601562 Z M 588 645.601562 "/>
<path style=" stroke:none;fill-rule:evenodd;fill:rgb(45.098039%,45.098039%,44.705882%);fill-opacity:1;" d="M 544.800781 621.601562 C 502.019531 613.378906 468.417969 626.179688 444 660 C 442.714844 652.324219 444.3125 645.925781 448.800781 640.800781 C 471.78125 615.5 500.582031 606.695312 535.199219 614.398438 C 539.597656 615.734375 542.792969 618.132812 544.800781 621.601562 Z M 544.800781 621.601562 "/>
<path style=" stroke:none;fill-rule:evenodd;fill:rgb(65.882353%,65.882353%,65.882353%);fill-opacity:1;" d="M 544.800781 621.601562 C 548 621.601562 551.199219 621.601562 554.398438 621.601562 C 565.964844 633.128906 575.5625 645.929688 583.199219 660 C 553.722656 637.003906 520.125 629.804688 482.398438 638.398438 C 470.886719 647.902344 461.285156 658.304688 453.601562 669.601562 C 450.398438 672.800781 447.199219 676 444 679.199219 C 444 672.800781 444 666.398438 444 660 C 468.417969 626.179688 502.019531 613.378906 544.800781 621.601562 Z M 544.800781 621.601562 "/>
<path style=" stroke:none;fill-rule:evenodd;fill:rgb(98.823529%,98.823529%,98.823529%);fill-opacity:1;" d="M 564 736.800781 C 562.402344 736.800781 560.796875 736.800781 559.199219 736.800781 C 532.894531 745.359375 505.695312 748.554688 477.601562 746.398438 C 465.347656 736.335938 454.148438 725.136719 444 712.800781 C 444 701.601562 444 690.398438 444 679.199219 C 447.199219 676 450.398438 672.800781 453.601562 669.601562 C 466.585938 663.105469 477.785156 654.300781 487.199219 643.199219 C 534.035156 631.410156 566.03125 647.414062 583.199219 691.199219 C 581.285156 708.589844 574.886719 723.792969 564 736.800781 Z M 564 736.800781 "/>
<path style=" stroke:none;fill-rule:evenodd;fill:rgb(16.862745%,16.862745%,16.862745%);fill-opacity:1;" d="M 1423.199219 650.398438 C 1405.527344 649.609375 1387.929688 650.40625 1370.398438 652.800781 C 1357.03125 664.492188 1344.230469 676.492188 1332 688.800781 C 1350.972656 644.828125 1381.378906 632.027344 1423.199219 650.398438 Z M 1423.199219 650.398438 "/>
<path style=" stroke:none;fill-rule:evenodd;fill:rgb(74.509804%,74.509804%,74.509804%);fill-opacity:1;" d="M 1476 712.800781 C 1476.988281 733.910156 1475.390625 754.714844 1471.199219 775.199219 C 1441.609375 805.277344 1406.410156 812.476562 1365.601562 796.800781 C 1359.792969 791.8125 1354.992188 786.210938 1351.199219 780 C 1341.695312 775.277344 1333.695312 768.878906 1327.199219 760.800781 C 1326.800781 675.636719 1366.800781 647.640625 1447.199219 676.800781 C 1455.253906 690.789062 1464.855469 702.789062 1476 712.800781 Z M 1476 712.800781 "/>
<path style=" stroke:none;fill-rule:evenodd;fill:rgb(99.215686%,99.215686%,99.215686%);fill-opacity:1;" d="M 1351.199219 780 C 1348.652344 770.1875 1343.050781 762.1875 1334.398438 756 C 1325.746094 723.035156 1337.746094 701.433594 1370.398438 691.199219 C 1404.339844 683.289062 1433.9375 690.488281 1459.199219 712.800781 C 1472.859375 764.835938 1452.0625 790.441406 1396.800781 789.601562 C 1380.679688 789.96875 1365.480469 786.773438 1351.199219 780 Z M 1351.199219 780 "/>
<path style=" stroke:none;fill-rule:evenodd;fill:rgb(54.117647%,54.117647%,54.117647%);fill-opacity:1;" d="M 1173.601562 684 C 1176.78125 693.46875 1178.378906 703.867188 1178.398438 715.199219 C 1178.980469 733.355469 1175.777344 750.152344 1168.800781 765.601562 C 1172.257812 738.539062 1173.855469 711.339844 1173.601562 684 Z M 1173.601562 684 "/>
<path style=" stroke:none;fill-rule:evenodd;fill:rgb(67.843137%,67.843137%,67.843137%);fill-opacity:1;" d="M 1255.199219 616.800781 C 1275.480469 665.515625 1278.679688 715.113281 1264.800781 765.601562 C 1266.460938 715.613281 1263.257812 666.007812 1255.199219 616.800781 Z M 1255.199219 616.800781 "/>
<path style=" stroke:none;fill-rule:evenodd;fill:rgb(80.392157%,80.392157%,80.392157%);fill-opacity:1;" d="M 583.199219 660 C 590.375 684.316406 588.777344 708.316406 578.398438 732 C 573.078125 732.273438 568.277344 733.871094 564 736.800781 C 574.886719 723.792969 581.285156 708.589844 583.199219 691.199219 C 566.03125 647.414062 534.035156 631.410156 487.199219 643.199219 C 477.785156 654.300781 466.585938 663.105469 453.601562 669.601562 C 461.285156 658.304688 470.886719 647.902344 482.398438 638.398438 C 520.125 629.804688 553.722656 637.003906 583.199219 660 Z M 583.199219 660 "/>
<path style=" stroke:none;fill-rule:evenodd;fill:rgb(36.862745%,36.862745%,36.862745%);fill-opacity:1;" d="M 1423.199219 650.398438 C 1456.132812 657.761719 1473.734375 678.566406 1476 712.800781 C 1464.855469 702.789062 1455.253906 690.789062 1447.199219 676.800781 C 1366.800781 647.640625 1326.800781 675.636719 1327.199219 760.800781 C 1328.796875 770.398438 1330.402344 780 1332 789.601562 C 1329.039062 789.066406 1326.636719 787.46875 1324.800781 784.800781 C 1320.046875 751.972656 1322.449219 719.976562 1332 688.800781 C 1344.230469 676.492188 1357.03125 664.492188 1370.398438 652.800781 C 1387.929688 650.40625 1405.527344 649.609375 1423.199219 650.398438 Z M 1423.199219 650.398438 "/>
<path style=" stroke:none;fill-rule:evenodd;fill:rgb(43.921569%,43.921569%,43.921569%);fill-opacity:1;" d="M 554.398438 621.601562 C 566.847656 627.621094 578.050781 635.617188 588 645.601562 C 594.214844 675.855469 594.214844 706.253906 588 736.800781 C 574.734375 752.25 560.332031 766.652344 544.800781 780 C 515.921875 782.417969 488.722656 777.621094 463.199219 765.601562 C 451.277344 757.824219 444.074219 746.625 441.601562 732 C 437.683594 707.117188 438.480469 683.117188 444 660 C 444 666.398438 444 672.800781 444 679.199219 C 444 690.398438 444 701.601562 444 712.800781 C 461.511719 764.910156 496.714844 781.707031 549.601562 763.199219 C 563.453125 756.550781 573.054688 746.15625 578.398438 732 C 588.777344 708.316406 590.375 684.316406 583.199219 660 C 575.5625 645.929688 565.964844 633.128906 554.398438 621.601562 Z M 554.398438 621.601562 "/>
<path style=" stroke:none;fill-rule:evenodd;fill:rgb(66.27451%,66.27451%,66.27451%);fill-opacity:1;" d="M 444 712.800781 C 454.148438 725.136719 465.347656 736.335938 477.601562 746.398438 C 479.605469 749.867188 482.804688 752.265625 487.199219 753.601562 C 503.199219 756.800781 519.203125 756.800781 535.199219 753.601562 C 546.628906 752.53125 554.625 746.929688 559.199219 736.800781 C 560.796875 736.800781 562.402344 736.800781 564 736.800781 C 568.277344 733.871094 573.078125 732.273438 578.398438 732 C 573.054688 746.15625 563.453125 756.550781 549.601562 763.199219 C 496.714844 781.707031 461.511719 764.910156 444 712.800781 Z M 444 712.800781 "/>
<path style=" stroke:none;fill-rule:evenodd;fill:rgb(82.352941%,82.352941%,82.352941%);fill-opacity:1;" d="M 559.199219 736.800781 C 554.625 746.929688 546.628906 752.53125 535.199219 753.601562 C 519.203125 756.800781 503.199219 756.800781 487.199219 753.601562 C 482.804688 752.265625 479.605469 749.867188 477.601562 746.398438 C 505.695312 748.554688 532.894531 745.359375 559.199219 736.800781 Z M 559.199219 736.800781 "/>
<path style=" stroke:none;fill-rule:evenodd;fill:rgb(20.784314%,20.784314%,20.784314%);fill-opacity:1;" d="M 588 736.800781 C 583.078125 761.285156 568.679688 775.683594 544.800781 780 C 560.332031 766.652344 574.734375 752.25 588 736.800781 Z M 588 736.800781 "/>
<path style=" stroke:none;fill-rule:evenodd;fill:rgb(25.098039%,25.098039%,25.098039%);fill-opacity:1;" d="M 463.199219 765.601562 C 488.722656 777.621094 515.921875 782.417969 544.800781 780 C 544.265625 782.960938 542.667969 785.363281 540 787.199219 C 517.253906 790.683594 494.855469 789.085938 472.800781 782.398438 C 468.9375 777.058594 465.734375 771.460938 463.199219 765.601562 Z M 463.199219 765.601562 "/>
<path style=" stroke:none;fill-rule:evenodd;fill:rgb(60%,60%,60%);fill-opacity:1;" d="M 1327.199219 760.800781 C 1333.695312 768.878906 1341.695312 775.277344 1351.199219 780 C 1354.992188 786.210938 1359.792969 791.8125 1365.601562 796.800781 C 1406.410156 812.476562 1441.609375 805.277344 1471.199219 775.199219 C 1469.601562 781.597656 1468 788 1466.398438 794.398438 C 1454.28125 802.449219 1441.484375 809.648438 1428 816 C 1405.46875 818.707031 1383.070312 817.90625 1360.800781 813.601562 C 1348.246094 809.039062 1338.648438 801.039062 1332 789.601562 C 1330.402344 780 1328.796875 770.398438 1327.199219 760.800781 Z M 1327.199219 760.800781 "/>
<path style=" stroke:none;fill-rule:evenodd;fill:rgb(38.039216%,38.039216%,38.039216%);fill-opacity:1;" d="M 1466.398438 794.398438 C 1460.585938 806.160156 1452.585938 815.761719 1442.398438 823.199219 C 1420.253906 828.238281 1397.855469 829.042969 1375.199219 825.601562 C 1368.277344 823.789062 1363.476562 819.792969 1360.800781 813.601562 C 1383.070312 817.90625 1405.46875 818.707031 1428 816 C 1441.484375 809.648438 1454.28125 802.449219 1466.398438 794.398438 Z M 1466.398438 794.398438 "/>
<path style=" stroke:none;fill-rule:evenodd;fill:rgb(20.784314%,20.784314%,20.784314%);fill-opacity:1;" d="M 1332 789.601562 C 1338.648438 801.039062 1348.246094 809.039062 1360.800781 813.601562 C 1363.476562 819.792969 1368.277344 823.789062 1375.199219 825.601562 C 1397.855469 829.042969 1420.253906 828.238281 1442.398438 823.199219 C 1413.140625 848.65625 1382.734375 848.65625 1351.199219 823.199219 C 1341.042969 814.078125 1334.644531 802.882812 1332 789.601562 Z M 1332 789.601562 "/>
<path style=" stroke:none;fill-rule:evenodd;fill:rgb(56.862745%,56.862745%,56.862745%);fill-opacity:1;" d="M 1005.601562 928.800781 C 990.265625 936.144531 973.464844 939.339844 955.199219 938.398438 C 942.289062 938.386719 930.289062 936.789062 919.199219 933.601562 C 948.140625 933.960938 976.9375 932.355469 1005.601562 928.800781 Z M 1005.601562 928.800781 "/>
<path style=" stroke:none;fill-rule:evenodd;fill:rgb(65.490196%,65.490196%,65.490196%);fill-opacity:1;" d="M 856.800781 1015.199219 C 874.382812 1017.371094 891.984375 1019.769531 909.601562 1022.398438 C 912.269531 1024.238281 913.867188 1026.636719 914.398438 1029.601562 C 893.761719 1028.375 874.558594 1023.574219 856.800781 1015.199219 Z M 856.800781 1015.199219 "/>
</g>
</svg>
