<?xml version="1.0" encoding="UTF-8"?>
<svg xmlns="http://www.w3.org/2000/svg" xmlns:xlink="http://www.w3.org/1999/xlink" width="1920pt" height="1440pt" viewBox="0 0 1920 1440" version="1.1">
<g id="surface1">
<path style=" stroke:none;fill-rule:evenodd;fill:rgb(0%,0%,0%);fill-opacity:1;" d="M -2.398438 -2.398438 C 637.597656 -2.398438 1277.601562 -2.398438 1917.601562 -2.398438 C 1917.601562 477.601562 1917.601562 957.601562 1917.601562 1437.601562 C 1277.601562 1437.601562 637.597656 1437.601562 -2.398438 1437.601562 C -2.398438 957.601562 -2.398438 477.601562 -2.398438 -2.398438 Z M -2.398438 -2.398438 "/>
<path style=" stroke:none;fill-rule:evenodd;fill:rgb(38.823529%,38.823529%,38.823529%);fill-opacity:1;" d="M 928.800781 204 C 911.796875 202.5 895.800781 204.097656 880.800781 208.800781 C 877.597656 208.800781 874.402344 208.800781 871.199219 208.800781 C 868 208.800781 864.800781 208.800781 861.601562 208.800781 C 873.679688 201.730469 887.28125 198.53125 902.398438 199.199219 C 912.160156 199.226562 920.957031 200.828125 928.800781 204 Z M 928.800781 204 "/>
<path style=" stroke:none;fill-rule:evenodd;fill:rgb(98.039216%,98.039216%,98.039216%);fill-opacity:1;" d="M 871.199219 208.800781 C 874.402344 208.800781 877.597656 208.800781 880.800781 208.800781 C 906.480469 206.984375 930.480469 211.785156 952.800781 223.199219 C 954.398438 226.398438 956 229.601562 957.601562 232.800781 C 969.84375 262.035156 969.84375 290.835938 957.601562 319.199219 C 951.710938 337.878906 938.910156 347.480469 919.199219 348 C 885.339844 348.683594 862.136719 332.683594 849.601562 300 C 841.832031 265.554688 849.035156 235.15625 871.199219 208.800781 Z M 871.199219 208.800781 "/>
<path style=" stroke:none;fill-rule:evenodd;fill:rgb(65.882353%,65.882353%,65.882353%);fill-opacity:1;" d="M 880.800781 208.800781 C 895.800781 204.097656 911.796875 202.5 928.800781 204 C 932 204 935.199219 204 938.398438 204 C 944.585938 209.457031 949.386719 215.855469 952.800781 223.199219 C 930.480469 211.785156 906.480469 206.984375 880.800781 208.800781 Z M 880.800781 208.800781 "/>
<path style=" stroke:none;fill-rule:evenodd;fill:rgb(35.686275%,35.686275%,35.686275%);fill-opacity:1;" d="M 938.398438 204 C 965.132812 209.121094 981.929688 225.117188 988.800781 252 C 1000.523438 293.003906 988.523438 323.402344 952.800781 343.199219 C 978.777344 319.285156 986.773438 290.484375 976.800781 256.800781 C 975.691406 244.496094 969.289062 236.496094 957.601562 232.800781 C 956 229.601562 954.398438 226.398438 952.800781 223.199219 C 949.386719 215.855469 944.585938 209.457031 938.398438 204 Z M 938.398438 204 "/>
<path style=" stroke:none;fill-rule:evenodd;fill:rgb(72.941176%,72.941176%,72.941176%);fill-opacity:1;" d="M 861.601562 208.800781 C 864.800781 208.800781 868 208.800781 871.199219 208.800781 C 849.035156 235.15625 841.832031 265.554688 849.601562 300 C 862.136719 332.683594 885.339844 348.683594 919.199219 348 C 919.199219 349.601562 919.199219 351.199219 919.199219 352.800781 C 904.800781 352.800781 890.398438 352.800781 876 352.800781 C 860.546875 339.535156 846.148438 325.136719 832.800781 309.601562 C 822.207031 276.539062 828.605469 247.738281 852 223.199219 C 855.203125 218.398438 858.398438 213.601562 861.601562 208.800781 Z M 861.601562 208.800781 "/>
<path style=" stroke:none;fill-rule:evenodd;fill:rgb(23.137255%,23.137255%,23.137255%);fill-opacity:1;" d="M 861.601562 208.800781 C 858.398438 213.601562 855.203125 218.398438 852 223.199219 C 848.453125 222.570312 845.25 223.371094 842.398438 225.601562 C 836.40625 235.105469 830.007812 243.902344 823.199219 252 C 818.480469 270.230469 816.878906 289.433594 818.398438 309.601562 C 799.957031 262.640625 814.359375 229.042969 861.601562 208.800781 Z M 861.601562 208.800781 "/>
<path style=" stroke:none;fill-rule:evenodd;fill:rgb(48.235294%,48.235294%,47.843137%);fill-opacity:1;" d="M 852 223.199219 C 828.605469 247.738281 822.207031 276.539062 832.800781 309.601562 C 829.839844 309.070312 827.4375 307.46875 825.601562 304.800781 C 823.203125 287.273438 822.40625 269.671875 823.199219 252 C 830.007812 243.902344 836.40625 235.105469 842.398438 225.601562 C 845.25 223.371094 848.453125 222.570312 852 223.199219 Z M 852 223.199219 "/>
<path style=" stroke:none;fill-rule:evenodd;fill:rgb(67.058824%,67.058824%,67.058824%);fill-opacity:1;" d="M 957.601562 232.800781 C 969.289062 236.496094 975.691406 244.496094 976.800781 256.800781 C 977.585938 269.699219 976.785156 282.5 974.398438 295.199219 C 973.328125 306.628906 967.726562 314.628906 957.601562 319.199219 C 969.84375 290.835938 969.84375 262.035156 957.601562 232.800781 Z M 957.601562 232.800781 "/>
<path style=" stroke:none;fill-rule:evenodd;fill:rgb(35.686275%,35.686275%,35.686275%);fill-opacity:1;" d="M 823.199219 252 C 822.40625 269.671875 823.203125 287.273438 825.601562 304.800781 C 827.4375 307.46875 829.839844 309.070312 832.800781 309.601562 C 846.148438 325.136719 860.546875 339.535156 876 352.800781 C 848.609375 349.425781 829.410156 335.023438 818.398438 309.601562 C 816.878906 289.433594 818.480469 270.230469 823.199219 252 Z M 823.199219 252 "/>
<path style=" stroke:none;fill-rule:evenodd;fill:rgb(50.196078%,50.196078%,50.196078%);fill-opacity:1;" d="M 976.800781 256.800781 C 986.773438 290.484375 978.777344 319.285156 952.800781 343.199219 C 943.128906 350.035156 931.929688 353.234375 919.199219 352.800781 C 919.199219 351.199219 919.199219 349.601562 919.199219 348 C 938.910156 347.480469 951.710938 337.878906 957.601562 319.199219 C 967.726562 314.628906 973.328125 306.628906 974.398438 295.199219 C 976.785156 282.5 977.585938 269.699219 976.800781 256.800781 Z M 976.800781 256.800781 "/>
<path style=" stroke:none;fill-rule:evenodd;fill:rgb(54.117647%,54.117647%,54.117647%);fill-opacity:1;" d="M 996 391.199219 C 960.742188 391.820312 925.546875 393.421875 890.398438 396 C 910.761719 388.957031 932.363281 385.753906 955.199219 386.398438 C 969.699219 386.410156 983.300781 388.011719 996 391.199219 Z M 996 391.199219 "/>
<path style=" stroke:none;fill-rule:evenodd;fill:rgb(98.039216%,98.039216%,98.039216%);fill-opacity:1;" d="M 996 391.199219 C 1006.113281 395.847656 1017.316406 397.449219 1029.601562 396 C 1037.828125 401.945312 1047.425781 405.144531 1058.398438 405.601562 C 1062.675781 408.527344 1067.476562 410.125 1072.800781 410.398438 C 1079.664062 415.378906 1087.664062 418.578125 1096.800781 420 C 1167.300781 455.304688 1220.101562 508.105469 1255.199219 578.398438 C 1253.597656 592.757812 1258.398438 603.957031 1269.601562 612 C 1269.167969 624.730469 1272.363281 635.929688 1279.199219 645.601562 C 1279.199219 647.199219 1279.199219 648.800781 1279.199219 650.398438 C 1282.167969 685.523438 1283.765625 720.726562 1284 756 C 1276.136719 775.507812 1271.335938 796.304688 1269.601562 818.398438 C 1239.382812 907.828125 1181.785156 973.429688 1096.800781 1015.199219 C 1087.664062 1016.621094 1079.664062 1019.824219 1072.800781 1024.800781 C 1067.476562 1025.074219 1062.675781 1026.671875 1058.398438 1029.601562 C 1039.695312 1032.265625 1022.097656 1037.0625 1005.601562 1044 C 1000.800781 1044 996 1044 991.199219 1044 C 957.527344 1043.625 923.929688 1042.027344 890.398438 1039.199219 C 888.800781 1039.199219 887.199219 1039.199219 885.601562 1039.199219 C 875.929688 1032.363281 864.730469 1029.167969 852 1029.601562 C 843.957031 1018.398438 832.757812 1013.597656 818.398438 1015.199219 C 733.414062 973.429688 675.816406 907.828125 645.601562 818.398438 C 642.9375 799.695312 638.136719 782.097656 631.199219 765.601562 C 631.199219 760.800781 631.199219 756 631.199219 751.199219 C 631.574219 717.527344 633.171875 683.929688 636 650.398438 C 636 648.800781 636 647.199219 636 645.601562 C 642.835938 635.929688 646.03125 624.730469 645.601562 612 C 656.804688 603.957031 661.601562 592.757812 660 578.398438 C 700.070312 494.34375 764.070312 436.742188 852 405.601562 C 864.730469 406.035156 875.929688 402.835938 885.601562 396 C 887.199219 396 888.800781 396 890.398438 396 C 925.546875 393.421875 960.742188 391.820312 996 391.199219 Z M 996 391.199219 "/>
<path style=" stroke:none;fill-rule:evenodd;fill:rgb(40%,40%,40%);fill-opacity:1;" d="M 1029.601562 396 C 1041.109375 394.84375 1050.710938 398.046875 1058.398438 405.601562 C 1047.425781 405.144531 1037.828125 401.945312 1029.601562 396 Z M 1029.601562 396 "/>
<path style=" stroke:none;fill-rule:evenodd;fill:rgb(51.764706%,51.764706%,51.764706%);fill-opacity:1;" d="M 885.601562 396 C 875.929688 402.835938 864.730469 406.035156 852 405.601562 C 861.671875 398.765625 872.871094 395.566406 885.601562 396 Z M 885.601562 396 "/>
<path style=" stroke:none;fill-rule:evenodd;fill:rgb(34.117647%,34.117647%,34.117647%);fill-opacity:1;" d="M 1072.800781 410.398438 C 1083.351562 408.578125 1091.351562 411.777344 1096.800781 420 C 1087.664062 418.578125 1079.664062 415.378906 1072.800781 410.398438 Z M 1072.800781 410.398438 "/>
<path style=" stroke:none;fill-rule:evenodd;fill:rgb(0.784314%,0.784314%,0.784314%);fill-opacity:1;" d="M 924 492 C 969.171875 487.566406 1012.371094 493.96875 1053.601562 511.199219 C 1062.988281 515.960938 1072.589844 520.761719 1082.398438 525.601562 C 1121.929688 551.488281 1151.53125 586.683594 1171.199219 631.199219 C 1173.550781 637.40625 1174.355469 643.808594 1173.601562 650.398438 C 1180.828125 680.308594 1184.03125 710.707031 1183.199219 741.601562 C 1179.664062 771.757812 1171.664062 800.558594 1159.199219 828 C 1152.453125 830.269531 1149.25 835.070312 1149.601562 842.398438 C 1115.9375 892.09375 1069.539062 924.097656 1010.398438 938.398438 C 970.027344 945.566406 930.023438 943.96875 890.398438 933.601562 C 867.46875 930.144531 846.671875 921.34375 828 907.199219 C 804.742188 887.65625 783.945312 866.054688 765.601562 842.398438 C 765.949219 835.070312 762.75 830.269531 756 828 C 745.933594 808.585938 739.53125 787.785156 736.800781 765.601562 C 733.34375 738.539062 731.746094 711.339844 732 684 C 738.835938 674.328125 742.03125 663.128906 741.601562 650.398438 C 745.238281 623.921875 756.4375 601.523438 775.199219 583.199219 C 781.949219 580.929688 785.152344 576.128906 784.800781 568.800781 C 812.292969 534.253906 847.492188 511.859375 890.398438 501.601562 C 903.128906 502.03125 914.328125 498.835938 924 492 Z M 924 492 "/>
<path style=" stroke:none;fill-rule:evenodd;fill:rgb(24.313725%,24.313725%,24.313725%);fill-opacity:1;" d="M 924 492 C 914.328125 498.835938 903.128906 502.03125 890.398438 501.601562 C 900.070312 494.765625 911.269531 491.566406 924 492 Z M 924 492 "/>
<path style=" stroke:none;fill-rule:evenodd;fill:rgb(71.372549%,71.372549%,71.372549%);fill-opacity:1;" d="M 1053.601562 511.199219 C 1067.101562 508.921875 1076.703125 513.71875 1082.398438 525.601562 C 1072.589844 520.761719 1062.988281 515.960938 1053.601562 511.199219 Z M 1053.601562 511.199219 "/>
<path style=" stroke:none;fill-rule:evenodd;fill:rgb(32.941176%,32.941176%,32.941176%);fill-opacity:1;" d="M 784.800781 568.800781 C 785.152344 576.128906 781.949219 580.929688 775.199219 583.199219 C 774.847656 575.871094 778.050781 571.070312 784.800781 568.800781 Z M 784.800781 568.800781 "/>
<path style=" stroke:none;fill-rule:evenodd;fill:rgb(66.27451%,66.27451%,66.27451%);fill-opacity:1;" d="M 660 578.398438 C 661.601562 592.757812 656.804688 603.957031 645.601562 612 C 647.6875 599.246094 652.488281 588.042969 660 578.398438 Z M 660 578.398438 "/>
<path style=" stroke:none;fill-rule:evenodd;fill:rgb(65.882353%,65.882353%,65.882353%);fill-opacity:1;" d="M 1255.199219 578.398438 C 1262.710938 588.042969 1267.511719 599.246094 1269.601562 612 C 1258.398438 603.957031 1253.597656 592.757812 1255.199219 578.398438 Z M 1255.199219 578.398438 "/>
<path style=" stroke:none;fill-rule:evenodd;fill:rgb(48.235294%,48.235294%,48.235294%);fill-opacity:1;" d="M 645.601562 612 C 646.03125 624.730469 642.835938 635.929688 636 645.601562 C 635.566406 632.871094 638.765625 621.671875 645.601562 612 Z M 645.601562 612 "/>
<path style=" stroke:none;fill-rule:evenodd;fill:rgb(48.627451%,48.627451%,48.627451%);fill-opacity:1;" d="M 1269.601562 612 C 1276.433594 621.671875 1279.632812 632.871094 1279.199219 645.601562 C 1272.363281 635.929688 1269.167969 624.730469 1269.601562 612 Z M 1269.601562 612 "/>
<path style=" stroke:none;fill-rule:evenodd;fill:rgb(28.235294%,28.235294%,28.235294%);fill-opacity:1;" d="M 741.601562 650.398438 C 742.03125 663.128906 738.835938 674.328125 732 684 C 731.566406 671.269531 734.765625 660.070312 741.601562 650.398438 Z M 741.601562 650.398438 "/>
<path style=" stroke:none;fill-rule:evenodd;fill:rgb(41.568627%,41.568627%,41.568627%);fill-opacity:1;" d="M 1279.199219 650.398438 C 1286.246094 670.761719 1289.441406 692.363281 1288.800781 715.199219 C 1288.789062 729.699219 1287.1875 743.300781 1284 756 C 1283.765625 720.726562 1282.167969 685.523438 1279.199219 650.398438 Z M 1279.199219 650.398438 "/>
<path style=" stroke:none;fill-rule:evenodd;fill:rgb(43.529412%,43.529412%,43.529412%);fill-opacity:1;" d="M 636 650.398438 C 633.171875 683.929688 631.574219 717.527344 631.199219 751.199219 C 624.5 717.292969 626.097656 683.691406 636 650.398438 Z M 636 650.398438 "/>
<path style=" stroke:none;fill-rule:evenodd;fill:rgb(43.921569%,43.921569%,43.921569%);fill-opacity:1;" d="M 732 684 C 731.746094 711.339844 733.34375 738.539062 736.800781 765.601562 C 729.820312 750.152344 726.621094 733.355469 727.199219 715.199219 C 727.21875 703.867188 728.816406 693.46875 732 684 Z M 732 684 "/>
<path style=" stroke:none;fill-rule:evenodd;fill:rgb(40.784314%,40.784314%,40.784314%);fill-opacity:1;" d="M 1173.601562 650.398438 C 1187.648438 679.820312 1190.847656 710.21875 1183.199219 741.601562 C 1184.03125 710.707031 1180.828125 680.308594 1173.601562 650.398438 Z M 1173.601562 650.398438 "/>
<path style=" stroke:none;fill-rule:evenodd;fill:rgb(60.784314%,60.784314%,60.784314%);fill-opacity:1;" d="M 1284 756 C 1281.832031 773.582031 1279.429688 791.183594 1276.800781 808.800781 C 1275.464844 813.195312 1273.066406 816.394531 1269.601562 818.398438 C 1271.335938 796.304688 1276.136719 775.507812 1284 756 Z M 1284 756 "/>
<path style=" stroke:none;fill-rule:evenodd;fill:rgb(40.392157%,40.392157%,40.392157%);fill-opacity:1;" d="M 631.199219 765.601562 C 638.136719 782.097656 642.9375 799.695312 645.601562 818.398438 C 635.671875 802.738281 630.875 785.136719 631.199219 765.601562 Z M 631.199219 765.601562 "/>
<path style=" stroke:none;fill-rule:evenodd;fill:rgb(61.568627%,61.568627%,61.568627%);fill-opacity:1;" d="M 756 828 C 762.75 830.269531 765.949219 835.070312 765.601562 842.398438 C 758.851562 840.128906 755.648438 835.328125 756 828 Z M 756 828 "/>
<path style=" stroke:none;fill-rule:evenodd;fill:rgb(61.568627%,61.568627%,61.568627%);fill-opacity:1;" d="M 1159.199219 828 C 1159.550781 835.328125 1156.347656 840.128906 1149.601562 842.398438 C 1149.25 835.070312 1152.453125 830.269531 1159.199219 828 Z M 1159.199219 828 "/>
<path style=" stroke:none;fill-rule:evenodd;fill:rgb(42.745098%,42.745098%,42.745098%);fill-opacity:1;" d="M 890.398438 933.601562 C 930.023438 943.96875 970.027344 945.566406 1010.398438 938.398438 C 994.148438 945.457031 976.546875 948.65625 957.601562 948 C 933.351562 949.117188 910.953125 944.320312 890.398438 933.601562 Z M 890.398438 933.601562 "/>
<path style=" stroke:none;fill-rule:evenodd;fill:rgb(65.882353%,65.882353%,65.882353%);fill-opacity:1;" d="M 818.398438 1015.199219 C 832.757812 1013.597656 843.957031 1018.398438 852 1029.601562 C 839.246094 1027.511719 828.042969 1022.710938 818.398438 1015.199219 Z M 818.398438 1015.199219 "/>
<path style=" stroke:none;fill-rule:evenodd;fill:rgb(34.117647%,34.117647%,34.117647%);fill-opacity:1;" d="M 1096.800781 1015.199219 C 1091.351562 1023.421875 1083.351562 1026.625 1072.800781 1024.800781 C 1079.664062 1019.824219 1087.664062 1016.621094 1096.800781 1015.199219 Z M 1096.800781 1015.199219 "/>
<path style=" stroke:none;fill-rule:evenodd;fill:rgb(48.627451%,48.627451%,48.627451%);fill-opacity:1;" d="M 852 1029.601562 C 864.730469 1029.167969 875.929688 1032.363281 885.601562 1039.199219 C 872.871094 1039.632812 861.671875 1036.433594 852 1029.601562 Z M 852 1029.601562 "/>
<path style=" stroke:none;fill-rule:evenodd;fill:rgb(40%,40%,40%);fill-opacity:1;" d="M 1058.398438 1029.601562 C 1042.738281 1039.527344 1025.136719 1044.328125 1005.601562 1044 C 1022.097656 1037.0625 1039.695312 1032.265625 1058.398438 1029.601562 Z M 1058.398438 1029.601562 "/>
<path style=" stroke:none;fill-rule:evenodd;fill:rgb(43.529412%,43.529412%,43.529412%);fill-opacity:1;" d="M 890.398438 1039.199219 C 923.929688 1042.027344 957.527344 1043.625 991.199219 1044 C 957.292969 1050.699219 923.691406 1049.101562 890.398438 1039.199219 Z M 890.398438 1039.199219 "/>
<path style=" stroke:none;fill-rule:evenodd;fill:rgb(98.823529%,98.823529%,98.823529%);fill-opacity:1;" d="M 1058.398438 1202.398438 C 1052.101562 1205.496094 1047.300781 1210.296875 1044 1216.800781 C 1034.199219 1221.847656 1023.800781 1225.050781 1012.800781 1226.398438 C 999.855469 1220.21875 986.257812 1215.417969 972 1212 C 972.351562 1204.671875 969.148438 1199.871094 962.398438 1197.601562 C 946.976562 1161.773438 951.777344 1128.972656 976.800781 1099.199219 C 1013.480469 1079.769531 1043.078125 1086.96875 1065.601562 1120.800781 C 1070.136719 1149.085938 1067.734375 1176.289062 1058.398438 1202.398438 Z M 1058.398438 1202.398438 "/>
<path style=" stroke:none;fill-rule:evenodd;fill:rgb(26.666667%,26.666667%,26.666667%);fill-opacity:1;" d="M 1000.800781 1082.398438 C 1044.144531 1070.835938 1076.941406 1085.238281 1099.199219 1125.601562 C 1103.078125 1142.53125 1102.277344 1158.527344 1096.800781 1173.601562 C 1097.585938 1160.703125 1096.785156 1147.902344 1094.398438 1135.199219 C 1092.5625 1132.53125 1090.160156 1130.933594 1087.199219 1130.398438 C 1085.542969 1117.449219 1079.144531 1107.847656 1068 1101.601562 C 1049.195312 1084.496094 1026.792969 1078.097656 1000.800781 1082.398438 Z M 1000.800781 1082.398438 "/>
<path style=" stroke:none;fill-rule:evenodd;fill:rgb(75.294118%,75.294118%,75.294118%);fill-opacity:1;" d="M 1000.800781 1082.398438 C 1026.792969 1078.097656 1049.195312 1084.496094 1068 1101.601562 C 1077.582031 1126.019531 1079.980469 1151.617188 1075.199219 1178.398438 C 1071.988281 1188.433594 1066.386719 1196.433594 1058.398438 1202.398438 C 1067.734375 1176.289062 1070.136719 1149.085938 1065.601562 1120.800781 C 1043.078125 1086.96875 1013.480469 1079.769531 976.800781 1099.199219 C 951.777344 1128.972656 946.976562 1161.773438 962.398438 1197.601562 C 958.125 1194.671875 953.324219 1193.074219 948 1192.800781 C 932.074219 1147.628906 943.273438 1112.429688 981.601562 1087.199219 C 986.726562 1082.71875 993.125 1081.113281 1000.800781 1082.398438 Z M 1000.800781 1082.398438 "/>
<path style=" stroke:none;fill-rule:evenodd;fill:rgb(26.666667%,26.666667%,26.666667%);fill-opacity:1;" d="M 962.398438 1092 C 956.195312 1100.621094 948.992188 1108.621094 940.800781 1116 C 938.480469 1120.550781 937.683594 1125.351562 938.398438 1130.398438 C 935.4375 1130.933594 933.039062 1132.53125 931.199219 1135.199219 C 928 1154.398438 928 1173.601562 931.199219 1192.800781 C 938.308594 1197.460938 942.3125 1203.859375 943.199219 1212 C 931.515625 1205.898438 924.316406 1196.300781 921.601562 1183.199219 C 910.800781 1141.011719 924.398438 1110.609375 962.398438 1092 Z M 962.398438 1092 "/>
<path style=" stroke:none;fill-rule:evenodd;fill:rgb(39.215686%,39.215686%,39.215686%);fill-opacity:1;" d="M 938.398438 1130.398438 C 933.753906 1144.535156 932.957031 1158.9375 936 1173.601562 C 936.960938 1182.335938 940.964844 1188.734375 948 1192.800781 C 948.882812 1212.800781 958.484375 1225.597656 976.800781 1231.199219 C 960.902344 1232.886719 949.703125 1226.488281 943.199219 1212 C 942.3125 1203.859375 938.308594 1197.460938 931.199219 1192.800781 C 928 1173.601562 928 1154.398438 931.199219 1135.199219 C 933.039062 1132.53125 935.4375 1130.933594 938.398438 1130.398438 Z M 938.398438 1130.398438 "/>
<path style=" stroke:none;fill-rule:evenodd;fill:rgb(59.215686%,59.215686%,59.215686%);fill-opacity:1;" d="M 1068 1101.601562 C 1079.144531 1107.847656 1085.542969 1117.449219 1087.199219 1130.398438 C 1088.59375 1151.691406 1086.191406 1172.496094 1080 1192.800781 C 1070.535156 1204.097656 1060.132812 1213.699219 1048.800781 1221.601562 C 1054.078125 1216.296875 1057.28125 1209.898438 1058.398438 1202.398438 C 1066.386719 1196.433594 1071.988281 1188.433594 1075.199219 1178.398438 C 1079.980469 1151.617188 1077.582031 1126.019531 1068 1101.601562 Z M 1068 1101.601562 "/>
<path style=" stroke:none;fill-rule:evenodd;fill:rgb(57.647059%,57.647059%,57.647059%);fill-opacity:1;" d="M 981.601562 1087.199219 C 943.273438 1112.429688 932.074219 1147.628906 948 1192.800781 C 940.964844 1188.734375 936.960938 1182.335938 936 1173.601562 C 932.957031 1158.9375 933.753906 1144.535156 938.398438 1130.398438 C 937.683594 1125.351562 938.480469 1120.550781 940.800781 1116 C 948.992188 1108.621094 956.195312 1100.621094 962.398438 1092 C 967.527344 1087.515625 973.925781 1085.914062 981.601562 1087.199219 Z M 981.601562 1087.199219 "/>
<path style=" stroke:none;fill-rule:evenodd;fill:rgb(40.784314%,40.784314%,40.784314%);fill-opacity:1;" d="M 1087.199219 1130.398438 C 1090.160156 1130.933594 1092.5625 1132.53125 1094.398438 1135.199219 C 1096.785156 1147.902344 1097.585938 1160.703125 1096.800781 1173.601562 C 1092.425781 1194.804688 1081.222656 1211.605469 1063.199219 1224 C 1058.648438 1226.320312 1053.847656 1227.113281 1048.800781 1226.398438 C 1048.800781 1224.800781 1048.800781 1223.199219 1048.800781 1221.601562 C 1060.132812 1213.699219 1070.535156 1204.097656 1080 1192.800781 C 1086.191406 1172.496094 1088.59375 1151.691406 1087.199219 1130.398438 Z M 1087.199219 1130.398438 "/>
<path style=" stroke:none;fill-rule:evenodd;fill:rgb(56.470588%,56.470588%,56.470588%);fill-opacity:1;" d="M 948 1192.800781 C 953.324219 1193.074219 958.125 1194.671875 962.398438 1197.601562 C 969.148438 1199.871094 972.351562 1204.671875 972 1212 C 975.316406 1219.304688 980.917969 1224.105469 988.800781 1226.398438 C 1002.097656 1230.46875 1015.695312 1232.070312 1029.601562 1231.199219 C 1012.488281 1237.378906 994.886719 1237.378906 976.800781 1231.199219 C 958.484375 1225.597656 948.882812 1212.800781 948 1192.800781 Z M 948 1192.800781 "/>
<path style=" stroke:none;fill-rule:evenodd;fill:rgb(81.568627%,81.568627%,81.568627%);fill-opacity:1;" d="M 1058.398438 1202.398438 C 1057.28125 1209.898438 1054.078125 1216.296875 1048.800781 1221.601562 C 1048.800781 1223.199219 1048.800781 1224.800781 1048.800781 1226.398438 C 1042.402344 1228 1036 1229.601562 1029.601562 1231.199219 C 1015.695312 1232.070312 1002.097656 1230.46875 988.800781 1226.398438 C 980.917969 1224.105469 975.316406 1219.304688 972 1212 C 986.257812 1215.417969 999.855469 1220.21875 1012.800781 1226.398438 C 1023.800781 1225.050781 1034.199219 1221.847656 1044 1216.800781 C 1047.300781 1210.296875 1052.101562 1205.496094 1058.398438 1202.398438 Z M 1058.398438 1202.398438 "/>
</g>
</svg>
