<?xml version="1.0" encoding="UTF-8"?>
<svg xmlns="http://www.w3.org/2000/svg" xmlns:xlink="http://www.w3.org/1999/xlink" width="1920pt" height="1440pt" viewBox="0 0 1920 1440" version="1.1">
<g id="surface1">
<path style=" stroke:none;fill-rule:evenodd;fill:rgb(0%,0%,0%);fill-opacity:1;" d="M -2.398438 -2.398438 C 637.597656 -2.398438 1277.601562 -2.398438 1917.601562 -2.398438 C 1917.601562 477.601562 1917.601562 957.601562 1917.601562 1437.601562 C 1277.601562 1437.601562 637.597656 1437.601562 -2.398438 1437.601562 C -2.398438 957.601562 -2.398438 477.601562 -2.398438 -2.398438 Z M -2.398438 -2.398438 "/>
<path style=" stroke:none;fill-rule:evenodd;fill:rgb(98.039216%,98.039216%,98.039216%);fill-opacity:1;" d="M 933.601562 391.199219 C 954.398438 391.199219 975.203125 391.199219 996 391.199219 C 1019.992188 395.425781 1043.992188 401.828125 1068 410.398438 C 1148.019531 437.625 1207.21875 488.828125 1245.601562 564 C 1245.25 571.328125 1248.453125 576.128906 1255.199219 578.398438 C 1285.136719 645.445312 1292.335938 715.847656 1276.800781 789.601562 C 1269.289062 819.789062 1258.886719 848.585938 1245.601562 876 C 1238.851562 878.269531 1235.648438 883.070312 1236 890.398438 C 1201.492188 947.289062 1153.492188 988.890625 1092 1015.199219 C 1082.867188 1016.621094 1074.863281 1019.824219 1068 1024.800781 C 1043.992188 1033.371094 1019.992188 1039.769531 996 1044 C 933.695312 1048.597656 874.492188 1039 818.398438 1015.199219 C 816.128906 1008.453125 811.328125 1005.25 804 1005.601562 C 716.558594 958.886719 661.359375 886.886719 638.398438 789.601562 C 622.863281 715.847656 630.0625 645.445312 660 578.398438 C 666.75 576.128906 669.949219 571.328125 669.601562 564 C 691.273438 518.324219 723.269531 481.523438 765.601562 453.601562 C 777.4375 449.769531 787.035156 443.371094 794.398438 434.398438 C 801.539062 428.144531 809.539062 422.542969 818.398438 417.601562 C 838.539062 409.105469 859.339844 403.503906 880.800781 400.800781 C 899.328125 399.320312 916.925781 396.121094 933.601562 391.199219 Z M 933.601562 391.199219 "/>
<path style=" stroke:none;fill-rule:evenodd;fill:rgb(58.823529%,58.823529%,58.823529%);fill-opacity:1;" d="M 933.601562 391.199219 C 916.925781 396.121094 899.328125 399.320312 880.800781 400.800781 C 882.804688 397.335938 886.003906 394.9375 890.398438 393.601562 C 904.714844 391.210938 919.113281 390.410156 933.601562 391.199219 Z M 933.601562 391.199219 "/>
<path style=" stroke:none;fill-rule:evenodd;fill:rgb(25.490196%,25.490196%,25.490196%);fill-opacity:1;" d="M 996 391.199219 C 1023.234375 388.050781 1047.234375 394.449219 1068 410.398438 C 1043.992188 401.828125 1019.992188 395.425781 996 391.199219 Z M 996 391.199219 "/>
<path style=" stroke:none;fill-rule:evenodd;fill:rgb(67.45098%,67.45098%,67.45098%);fill-opacity:1;" d="M 794.398438 434.398438 C 787.035156 443.371094 777.4375 449.769531 765.601562 453.601562 C 771.847656 442.457031 781.449219 436.054688 794.398438 434.398438 Z M 794.398438 434.398438 "/>
<path style=" stroke:none;fill-rule:evenodd;fill:rgb(0.784314%,0.784314%,0.784314%);fill-opacity:1;" d="M 765.601562 765.601562 C 761.878906 740.175781 760.28125 714.574219 760.800781 688.800781 C 776.25 608.472656 822.652344 553.273438 900 523.199219 C 1020.425781 503.019531 1104.425781 548.621094 1152 660 C 1172.117188 777.601562 1128.113281 860 1020 907.199219 C 892.0625 936.507812 807.257812 889.304688 765.601562 765.601562 Z M 765.601562 765.601562 "/>
<path style=" stroke:none;fill-rule:evenodd;fill:rgb(23.529412%,23.529412%,23.529412%);fill-opacity:1;" d="M 597.601562 573.601562 C 578.761719 552.585938 555.5625 539.789062 528 535.199219 C 515.5625 535.511719 503.5625 537.910156 492 542.398438 C 484.621094 550.59375 476.621094 557.792969 468 564 C 478.976562 538.097656 498.980469 526.902344 528 530.398438 C 560.515625 530.257812 583.71875 544.65625 597.601562 573.601562 Z M 597.601562 573.601562 "/>
<path style=" stroke:none;fill-rule:evenodd;fill:rgb(45.490196%,45.490196%,45.490196%);fill-opacity:1;" d="M 597.601562 573.601562 C 603.53125 595.03125 603.53125 615.835938 597.601562 636 C 599.089844 620.578125 597.488281 606.175781 592.800781 592.800781 C 589.714844 576.058594 580.113281 564.058594 564 556.800781 C 538.402344 553.597656 512.796875 553.597656 487.199219 556.800781 C 476.324219 563.644531 468.324219 572.449219 463.199219 583.199219 C 457.296875 591.824219 454.097656 601.425781 453.601562 612 C 449.792969 648.132812 465.792969 674.535156 501.601562 691.199219 C 541.539062 703.554688 570.339844 691.554688 588 655.199219 C 589.597656 650.398438 592.800781 647.199219 597.601562 645.601562 C 595.71875 653.660156 593.320312 661.660156 590.398438 669.601562 C 579.878906 686.027344 566.28125 698.824219 549.601562 708 C 533.519531 708.792969 517.523438 707.992188 501.601562 705.601562 C 481.660156 692.839844 464.058594 677.640625 448.800781 660 C 438.265625 624.027344 444.667969 592.03125 468 564 C 476.621094 557.792969 484.621094 550.59375 492 542.398438 C 503.5625 537.910156 515.5625 535.511719 528 535.199219 C 555.5625 539.789062 578.761719 552.585938 597.601562 573.601562 Z M 597.601562 573.601562 "/>
<path style=" stroke:none;fill-rule:evenodd;fill:rgb(73.72549%,73.72549%,73.72549%);fill-opacity:1;" d="M 592.800781 592.800781 C 576.253906 583.695312 560.257812 573.296875 544.800781 561.601562 C 513.527344 554.707031 486.332031 561.90625 463.199219 583.199219 C 468.324219 572.449219 476.324219 563.644531 487.199219 556.800781 C 512.796875 553.597656 538.402344 553.597656 564 556.800781 C 580.113281 564.058594 589.714844 576.058594 592.800781 592.800781 Z M 592.800781 592.800781 "/>
<path style=" stroke:none;fill-rule:evenodd;fill:rgb(97.647059%,97.647059%,97.647059%);fill-opacity:1;" d="M 592.800781 592.800781 C 597.488281 606.175781 599.089844 620.578125 597.601562 636 C 597.601562 639.203125 597.601562 642.398438 597.601562 645.601562 C 592.800781 647.199219 589.597656 650.398438 588 655.199219 C 575.203125 661.640625 564.003906 670.441406 554.398438 681.601562 C 496.175781 693.457031 462.578125 670.257812 453.601562 612 C 454.097656 601.425781 457.296875 591.824219 463.199219 583.199219 C 486.332031 561.90625 513.527344 554.707031 544.800781 561.601562 C 560.257812 573.296875 576.253906 583.695312 592.800781 592.800781 Z M 592.800781 592.800781 "/>
<path style=" stroke:none;fill-rule:evenodd;fill:rgb(50.588235%,50.588235%,50.588235%);fill-opacity:1;" d="M 669.601562 564 C 669.949219 571.328125 666.75 576.128906 660 578.398438 C 659.648438 571.070312 662.851562 566.269531 669.601562 564 Z M 669.601562 564 "/>
<path style=" stroke:none;fill-rule:evenodd;fill:rgb(50.588235%,50.588235%,50.588235%);fill-opacity:1;" d="M 1245.601562 564 C 1252.347656 566.269531 1255.550781 571.070312 1255.199219 578.398438 C 1248.453125 576.128906 1245.25 571.328125 1245.601562 564 Z M 1245.601562 564 "/>
<path style=" stroke:none;fill-rule:evenodd;fill:rgb(70.980392%,70.980392%,70.980392%);fill-opacity:1;" d="M 453.601562 612 C 462.578125 670.257812 496.175781 693.457031 554.398438 681.601562 C 564.003906 670.441406 575.203125 661.640625 588 655.199219 C 570.339844 691.554688 541.539062 703.554688 501.601562 691.199219 C 465.792969 674.535156 449.792969 648.132812 453.601562 612 Z M 453.601562 612 "/>
<path style=" stroke:none;fill-rule:evenodd;fill:rgb(23.137255%,23.137255%,23.137255%);fill-opacity:1;" d="M 448.800781 660 C 464.058594 677.640625 481.660156 692.839844 501.601562 705.601562 C 517.523438 707.992188 533.519531 708.792969 549.601562 708 C 513.859375 719.457031 482.660156 711.457031 456 684 C 453.082031 676.0625 450.683594 668.058594 448.800781 660 Z M 448.800781 660 "/>
<path style=" stroke:none;fill-rule:evenodd;fill:rgb(45.882353%,45.882353%,45.882353%);fill-opacity:1;" d="M 760.800781 688.800781 C 760.28125 714.574219 761.878906 740.175781 765.601562 765.601562 C 758.371094 751.890625 755.175781 736.691406 756 720 C 756.019531 708.667969 757.617188 698.269531 760.800781 688.800781 Z M 760.800781 688.800781 "/>
<path style=" stroke:none;fill-rule:evenodd;fill:rgb(20%,20%,20%);fill-opacity:1;" d="M 1447.199219 741.601562 C 1416.078125 725.511719 1384.074219 723.90625 1351.199219 736.800781 C 1353.878906 730.609375 1358.679688 726.609375 1365.601562 724.800781 C 1390.027344 720.835938 1414.027344 722.4375 1437.601562 729.601562 C 1441.828125 733 1445.027344 737 1447.199219 741.601562 Z M 1447.199219 741.601562 "/>
<path style=" stroke:none;fill-rule:evenodd;fill:rgb(37.647059%,37.647059%,37.647059%);fill-opacity:1;" d="M 1447.199219 741.601562 C 1451.222656 743.242188 1452.824219 746.4375 1452 751.199219 C 1442.398438 748 1432.800781 744.800781 1423.199219 741.601562 C 1418.398438 741.601562 1413.601562 741.601562 1408.800781 741.601562 C 1376.605469 730.980469 1349.410156 738.984375 1327.199219 765.601562 C 1331.609375 753.171875 1339.613281 743.574219 1351.199219 736.800781 C 1384.074219 723.90625 1416.078125 725.511719 1447.199219 741.601562 Z M 1447.199219 741.601562 "/>
<path style=" stroke:none;fill-rule:evenodd;fill:rgb(79.607843%,79.607843%,79.607843%);fill-opacity:1;" d="M 1408.800781 741.601562 C 1413.601562 741.601562 1418.398438 741.601562 1423.199219 741.601562 C 1435.652344 754.921875 1447.652344 769.320312 1459.199219 784.800781 C 1461.550781 791.007812 1462.355469 797.410156 1461.601562 804 C 1433.734375 766.0625 1396.933594 752.460938 1351.199219 763.199219 C 1343.824219 771.394531 1335.820312 778.59375 1327.199219 784.800781 C 1342.746094 749.667969 1369.945312 735.269531 1408.800781 741.601562 Z M 1408.800781 741.601562 "/>
<path style=" stroke:none;fill-rule:evenodd;fill:rgb(51.764706%,51.764706%,51.764706%);fill-opacity:1;" d="M 1423.199219 741.601562 C 1432.800781 744.800781 1442.398438 748 1452 751.199219 C 1453.414062 760.429688 1457.414062 768.433594 1464 775.199219 C 1466.390625 789.511719 1467.191406 803.914062 1466.398438 818.398438 C 1467.6875 826.074219 1466.082031 832.472656 1461.601562 837.601562 C 1461.601562 826.402344 1461.601562 815.199219 1461.601562 804 C 1462.355469 797.410156 1461.550781 791.007812 1459.199219 784.800781 C 1447.652344 769.320312 1435.652344 754.921875 1423.199219 741.601562 Z M 1423.199219 741.601562 "/>
<path style=" stroke:none;fill-rule:evenodd;fill:rgb(98.823529%,98.823529%,98.823529%);fill-opacity:1;" d="M 1461.601562 804 C 1461.601562 815.199219 1461.601562 826.402344 1461.601562 837.601562 C 1448.460938 849.1875 1435.660156 860.386719 1423.199219 871.199219 C 1359.941406 883.636719 1326.339844 858.039062 1322.398438 794.398438 C 1321.574219 789.636719 1323.175781 786.441406 1327.199219 784.800781 C 1335.820312 778.59375 1343.824219 771.394531 1351.199219 763.199219 C 1396.933594 752.460938 1433.734375 766.0625 1461.601562 804 Z M 1461.601562 804 "/>
<path style=" stroke:none;fill-rule:evenodd;fill:rgb(57.254902%,57.254902%,56.862745%);fill-opacity:1;" d="M 1408.800781 741.601562 C 1369.945312 735.269531 1342.746094 749.667969 1327.199219 784.800781 C 1323.175781 786.441406 1321.574219 789.636719 1322.398438 794.398438 C 1316.9375 807.859375 1316.136719 822.257812 1320 837.601562 C 1328.398438 848.324219 1335.601562 859.527344 1341.601562 871.199219 C 1330.503906 863.300781 1320.902344 853.699219 1312.800781 842.398438 C 1312.007812 824.726562 1312.804688 807.128906 1315.199219 789.601562 C 1316.996094 780.042969 1320.992188 772.042969 1327.199219 765.601562 C 1349.410156 738.984375 1376.605469 730.980469 1408.800781 741.601562 Z M 1408.800781 741.601562 "/>
<path style=" stroke:none;fill-rule:evenodd;fill:rgb(24.705882%,24.705882%,24.705882%);fill-opacity:1;" d="M 1452 751.199219 C 1460.03125 755.246094 1465.632812 761.644531 1468.800781 770.398438 C 1472.679688 787.328125 1471.875 803.328125 1466.398438 818.398438 C 1467.191406 803.914062 1466.390625 789.511719 1464 775.199219 C 1457.414062 768.433594 1453.414062 760.429688 1452 751.199219 Z M 1452 751.199219 "/>
<path style=" stroke:none;fill-rule:evenodd;fill:rgb(74.901961%,74.901961%,74.901961%);fill-opacity:1;" d="M 1322.398438 794.398438 C 1326.339844 858.039062 1359.941406 883.636719 1423.199219 871.199219 C 1415.203125 882.375 1404.003906 887.175781 1389.601562 885.601562 C 1372.722656 883.550781 1356.726562 878.75 1341.601562 871.199219 C 1335.601562 859.527344 1328.398438 848.324219 1320 837.601562 C 1316.136719 822.257812 1316.9375 807.859375 1322.398438 794.398438 Z M 1322.398438 794.398438 "/>
<path style=" stroke:none;fill-rule:evenodd;fill:rgb(57.254902%,57.254902%,57.254902%);fill-opacity:1;" d="M 1461.601562 837.601562 C 1461.457031 853.691406 1455.058594 866.488281 1442.398438 876 C 1417.132812 889.738281 1389.9375 893.734375 1360.800781 888 C 1352.042969 884.832031 1345.644531 879.230469 1341.601562 871.199219 C 1356.726562 878.75 1372.722656 883.550781 1389.601562 885.601562 C 1404.003906 887.175781 1415.203125 882.375 1423.199219 871.199219 C 1435.660156 860.386719 1448.460938 849.1875 1461.601562 837.601562 Z M 1461.601562 837.601562 "/>
<path style=" stroke:none;fill-rule:evenodd;fill:rgb(41.176471%,41.176471%,41.176471%);fill-opacity:1;" d="M 1245.601562 876 C 1245.949219 883.328125 1242.75 888.128906 1236 890.398438 C 1235.648438 883.070312 1238.851562 878.269531 1245.601562 876 Z M 1245.601562 876 "/>
<path style=" stroke:none;fill-rule:evenodd;fill:rgb(32.156863%,32.156863%,32.156863%);fill-opacity:1;" d="M 1312.800781 842.398438 C 1320.902344 853.699219 1330.503906 863.300781 1341.601562 871.199219 C 1345.644531 879.230469 1352.042969 884.832031 1360.800781 888 C 1389.9375 893.734375 1417.132812 889.738281 1442.398438 876 C 1422.734375 903.878906 1395.53125 912.679688 1360.800781 902.398438 C 1333.996094 891.257812 1317.992188 871.257812 1312.800781 842.398438 Z M 1312.800781 842.398438 "/>
<path style=" stroke:none;fill-rule:evenodd;fill:rgb(50.588235%,50.588235%,50.588235%);fill-opacity:1;" d="M 804 1005.601562 C 811.328125 1005.25 816.128906 1008.453125 818.398438 1015.199219 C 811.070312 1015.550781 806.269531 1012.347656 804 1005.601562 Z M 804 1005.601562 "/>
<path style=" stroke:none;fill-rule:evenodd;fill:rgb(41.176471%,41.176471%,41.176471%);fill-opacity:1;" d="M 1092 1015.199219 C 1086.550781 1023.421875 1078.550781 1026.625 1068 1024.800781 C 1074.863281 1019.824219 1082.867188 1016.621094 1092 1015.199219 Z M 1092 1015.199219 "/>
<path style=" stroke:none;fill-rule:evenodd;fill:rgb(20.784314%,20.784314%,20.784314%);fill-opacity:1;" d="M 1068 1024.800781 C 1047.234375 1040.75 1023.234375 1047.148438 996 1044 C 1019.992188 1039.769531 1043.992188 1033.371094 1068 1024.800781 Z M 1068 1024.800781 "/>
</g>
</svg>
