<?xml version="1.0" encoding="UTF-8"?>
<svg xmlns="http://www.w3.org/2000/svg" xmlns:xlink="http://www.w3.org/1999/xlink" width="1920pt" height="1440pt" viewBox="0 0 1920 1440" version="1.1">
<g id="surface1">
<path style=" stroke:none;fill-rule:evenodd;fill:rgb(0%,0%,0%);fill-opacity:1;" d="M -2.398438 -2.398438 C 637.597656 -2.398438 1277.601562 -2.398438 1917.601562 -2.398438 C 1917.601562 477.601562 1917.601562 957.601562 1917.601562 1437.601562 C 1277.601562 1437.601562 637.597656 1437.601562 -2.398438 1437.601562 C -2.398438 957.601562 -2.398438 477.601562 -2.398438 -2.398438 Z M -2.398438 -2.398438 "/>
<path style=" stroke:none;fill-rule:evenodd;fill:rgb(97.647059%,97.647059%,97.647059%);fill-opacity:1;" d="M 1010.398438 396 C 1020.476562 401.335938 1031.679688 404.535156 1044 405.601562 C 1051.003906 405.277344 1057.402344 406.875 1063.199219 410.398438 C 1070.0625 415.378906 1078.066406 418.578125 1087.199219 420 C 1238.976562 496.324219 1302.175781 619.527344 1276.800781 789.601562 C 1273.230469 801.121094 1269.230469 812.320312 1264.800781 823.199219 C 1259.824219 830.0625 1256.621094 838.066406 1255.199219 847.199219 C 1168.714844 1012.8125 1034.3125 1072.8125 852 1027.199219 C 762.28125 993.730469 698.285156 933.730469 660 847.199219 C 658.578125 838.066406 655.378906 830.0625 650.398438 823.199219 C 646.875 817.402344 645.277344 811.003906 645.601562 804 C 644.539062 791.679688 641.335938 780.476562 636 770.398438 C 619.714844 642.425781 661.316406 537.625 760.800781 456 C 788.628906 435.683594 819.027344 420.484375 852 410.398438 C 869.578125 409.328125 885.574219 404.527344 900 396 C 936.800781 389.601562 973.597656 389.601562 1010.398438 396 Z M 1010.398438 396 "/>
<path style=" stroke:none;fill-rule:evenodd;fill:rgb(49.019608%,49.019608%,49.019608%);fill-opacity:1;" d="M 1010.398438 396 C 1023.496094 394.417969 1034.699219 397.617188 1044 405.601562 C 1031.679688 404.535156 1020.476562 401.335938 1010.398438 396 Z M 1010.398438 396 "/>
<path style=" stroke:none;fill-rule:evenodd;fill:rgb(61.568627%,61.568627%,61.568627%);fill-opacity:1;" d="M 900 396 C 885.574219 404.527344 869.578125 409.328125 852 410.398438 C 866.425781 401.871094 882.421875 397.074219 900 396 Z M 900 396 "/>
<path style=" stroke:none;fill-rule:evenodd;fill:rgb(37.647059%,37.647059%,37.647059%);fill-opacity:1;" d="M 1063.199219 410.398438 C 1073.75 408.578125 1081.753906 411.777344 1087.199219 420 C 1078.066406 418.578125 1070.0625 415.378906 1063.199219 410.398438 Z M 1063.199219 410.398438 "/>
<path style=" stroke:none;fill-rule:evenodd;fill:rgb(47.058824%,47.058824%,46.666667%);fill-opacity:1;" d="M 631.199219 492 C 637.597656 511.199219 637.597656 530.398438 631.199219 549.601562 C 632.335938 531.488281 629.9375 513.886719 624 496.800781 C 600.480469 464.957031 569.28125 452.957031 530.398438 460.800781 C 518.972656 461.871094 510.972656 467.472656 506.398438 477.601562 C 501.730469 485.46875 495.332031 491.871094 487.199219 496.800781 C 492.140625 480.523438 501.738281 467.722656 516 458.398438 C 541.503906 452.46875 567.105469 452.46875 592.800781 458.398438 C 605.574219 469.570312 618.375 480.769531 631.199219 492 Z M 631.199219 492 "/>
<path style=" stroke:none;fill-rule:evenodd;fill:rgb(27.843137%,27.843137%,27.843137%);fill-opacity:1;" d="M 631.199219 492 C 618.375 480.769531 605.574219 469.570312 592.800781 458.398438 C 567.105469 452.46875 541.503906 452.46875 516 458.398438 C 523.078125 449.234375 532.679688 443.632812 544.800781 441.601562 C 591.019531 430.265625 619.820312 447.066406 631.199219 492 Z M 631.199219 492 "/>
<path style=" stroke:none;fill-rule:evenodd;fill:rgb(98.431373%,98.431373%,98.431373%);fill-opacity:1;" d="M 583.199219 477.601562 C 620.0625 491.796875 634.464844 519 626.398438 559.199219 C 619.324219 563.691406 614.523438 570.097656 612 578.398438 C 583.578125 587.53125 554.777344 589.128906 525.601562 583.199219 C 511.234375 567.277344 499.234375 549.679688 489.601562 530.398438 C 486.445312 509.371094 494.449219 493.371094 513.601562 482.398438 C 536.546875 477.988281 559.753906 476.390625 583.199219 477.601562 Z M 583.199219 477.601562 "/>
<path style=" stroke:none;fill-rule:evenodd;fill:rgb(67.058824%,67.058824%,67.058824%);fill-opacity:1;" d="M 631.199219 549.601562 C 632.027344 554.363281 630.421875 557.558594 626.398438 559.199219 C 634.464844 519 620.0625 491.796875 583.199219 477.601562 C 576.621094 471.421875 567.816406 468.222656 556.800781 468 C 539.269531 467.910156 522.46875 471.113281 506.398438 477.601562 C 510.972656 467.472656 518.972656 461.871094 530.398438 460.800781 C 569.28125 452.957031 600.480469 464.957031 624 496.800781 C 629.9375 513.886719 632.335938 531.488281 631.199219 549.601562 Z M 631.199219 549.601562 "/>
<path style=" stroke:none;fill-rule:evenodd;fill:rgb(0.784314%,0.784314%,0.784314%);fill-opacity:1;" d="M 914.398438 525.601562 C 1031.769531 514.339844 1109.371094 563.9375 1147.199219 674.398438 C 1160.542969 793.785156 1110.144531 871.386719 996 907.199219 C 879.152344 918.757812 803.15625 868.359375 768 756 C 755.1875 639.078125 803.992188 562.277344 914.398438 525.601562 Z M 914.398438 525.601562 "/>
<path style=" stroke:none;fill-rule:evenodd;fill:rgb(26.27451%,26.27451%,26.27451%);fill-opacity:1;" d="M 477.601562 520.800781 C 477.441406 541.769531 479.042969 562.570312 482.398438 583.199219 C 479.4375 582.667969 477.035156 581.070312 475.199219 578.398438 C 471.304688 558.292969 472.101562 539.09375 477.601562 520.800781 Z M 477.601562 520.800781 "/>
<path style=" stroke:none;fill-rule:evenodd;fill:rgb(81.960784%,81.960784%,81.960784%);fill-opacity:1;" d="M 583.199219 477.601562 C 559.753906 476.390625 536.546875 477.988281 513.601562 482.398438 C 494.449219 493.371094 486.445312 509.371094 489.601562 530.398438 C 499.234375 549.679688 511.234375 567.277344 525.601562 583.199219 C 554.777344 589.128906 583.578125 587.53125 612 578.398438 C 604.09375 587.164062 594.496094 593.566406 583.199219 597.601562 C 560.320312 599.082031 537.917969 596.683594 516 590.398438 C 506.878906 579.191406 497.28125 568.789062 487.199219 559.199219 C 482.769531 542.09375 481.171875 524.492188 482.398438 506.398438 C 481.574219 501.636719 483.175781 498.441406 487.199219 496.800781 C 495.332031 491.871094 501.730469 485.46875 506.398438 477.601562 C 522.46875 471.113281 539.269531 467.910156 556.800781 468 C 567.816406 468.222656 576.621094 471.421875 583.199219 477.601562 Z M 583.199219 477.601562 "/>
<path style=" stroke:none;fill-rule:evenodd;fill:rgb(48.235294%,48.235294%,48.235294%);fill-opacity:1;" d="M 482.398438 506.398438 C 481.171875 524.492188 482.769531 542.09375 487.199219 559.199219 C 494.152344 581.351562 508.550781 596.554688 530.398438 604.800781 C 549.488281 609.019531 567.089844 606.621094 583.199219 597.601562 C 594.496094 593.566406 604.09375 587.164062 612 578.398438 C 614.523438 570.097656 619.324219 563.691406 626.398438 559.199219 C 622.738281 577.777344 613.136719 592.175781 597.601562 602.398438 C 574.800781 611.910156 550.800781 614.308594 525.601562 609.601562 C 510.5 601.644531 496.097656 592.84375 482.398438 583.199219 C 479.042969 562.570312 477.441406 541.769531 477.601562 520.800781 C 476.460938 514.601562 478.0625 509.804688 482.398438 506.398438 Z M 482.398438 506.398438 "/>
<path style=" stroke:none;fill-rule:evenodd;fill:rgb(63.137255%,63.137255%,63.137255%);fill-opacity:1;" d="M 487.199219 559.199219 C 497.28125 568.789062 506.878906 579.191406 516 590.398438 C 537.917969 596.683594 560.320312 599.082031 583.199219 597.601562 C 567.089844 606.621094 549.488281 609.019531 530.398438 604.800781 C 508.550781 596.554688 494.152344 581.351562 487.199219 559.199219 Z M 487.199219 559.199219 "/>
<path style=" stroke:none;fill-rule:evenodd;fill:rgb(29.411765%,29.411765%,29.411765%);fill-opacity:1;" d="M 482.398438 583.199219 C 496.097656 592.84375 510.5 601.644531 525.601562 609.601562 C 550.800781 614.308594 574.800781 611.910156 597.601562 602.398438 C 568.621094 629.601562 536.621094 632.796875 501.601562 612 C 496.714844 600.839844 490.316406 591.238281 482.398438 583.199219 Z M 482.398438 583.199219 "/>
<path style=" stroke:none;fill-rule:evenodd;fill:rgb(49.019608%,49.019608%,48.627451%);fill-opacity:1;" d="M 636 770.398438 C 641.335938 780.476562 644.539062 791.679688 645.601562 804 C 637.617188 794.699219 634.421875 783.496094 636 770.398438 Z M 636 770.398438 "/>
<path style=" stroke:none;fill-rule:evenodd;fill:rgb(39.215686%,39.215686%,39.215686%);fill-opacity:1;" d="M 1336.800781 818.398438 C 1371.078125 813.761719 1401.476562 821.761719 1428 842.398438 C 1430.960938 842.933594 1433.363281 844.53125 1435.199219 847.199219 C 1445.457031 873.875 1444.660156 899.472656 1432.800781 924 C 1434.59375 887.027344 1421.796875 855.824219 1394.398438 830.398438 C 1353.761719 813.800781 1323.363281 824.203125 1303.199219 861.601562 C 1300 861.601562 1298.398438 863.199219 1298.398438 866.398438 C 1296.800781 866.398438 1295.199219 866.398438 1293.601562 866.398438 C 1301.304688 844.300781 1315.703125 828.296875 1336.800781 818.398438 Z M 1336.800781 818.398438 "/>
<path style=" stroke:none;fill-rule:evenodd;fill:rgb(18.039216%,18.039216%,18.039216%);fill-opacity:1;" d="M 1428 842.398438 C 1401.476562 821.761719 1371.078125 813.761719 1336.800781 818.398438 C 1365.039062 804.019531 1392.238281 806.417969 1418.398438 825.601562 C 1424.75 829.515625 1427.945312 835.117188 1428 842.398438 Z M 1428 842.398438 "/>
<path style=" stroke:none;fill-rule:evenodd;fill:rgb(67.058824%,67.058824%,66.666667%);fill-opacity:1;" d="M 1432.800781 924 C 1432.800781 927.203125 1431.203125 928.800781 1428 928.800781 C 1430.871094 863.660156 1400.472656 834.058594 1336.800781 840 C 1323.679688 844.339844 1312.476562 851.539062 1303.199219 861.601562 C 1323.363281 824.203125 1353.761719 813.800781 1394.398438 830.398438 C 1421.796875 855.824219 1434.59375 887.027344 1432.800781 924 Z M 1432.800781 924 "/>
<path style=" stroke:none;fill-rule:evenodd;fill:rgb(37.647059%,37.647059%,37.647059%);fill-opacity:1;" d="M 650.398438 823.199219 C 655.378906 830.0625 658.578125 838.066406 660 847.199219 C 651.777344 841.753906 648.574219 833.75 650.398438 823.199219 Z M 650.398438 823.199219 "/>
<path style=" stroke:none;fill-rule:evenodd;fill:rgb(37.647059%,37.647059%,37.647059%);fill-opacity:1;" d="M 1264.800781 823.199219 C 1266.625 833.75 1263.421875 841.753906 1255.199219 847.199219 C 1256.621094 838.066406 1259.824219 830.0625 1264.800781 823.199219 Z M 1264.800781 823.199219 "/>
<path style=" stroke:none;fill-rule:evenodd;fill:rgb(98.431373%,98.431373%,98.431373%);fill-opacity:1;" d="M 1428 928.800781 C 1427.726562 934.125 1426.128906 938.921875 1423.199219 943.199219 C 1413.921875 944.300781 1405.921875 948.296875 1399.199219 955.199219 C 1326.546875 968.09375 1292.945312 938.492188 1298.398438 866.398438 C 1298.398438 863.199219 1300 861.601562 1303.199219 861.601562 C 1312.476562 851.539062 1323.679688 844.339844 1336.800781 840 C 1400.472656 834.058594 1430.871094 863.660156 1428 928.800781 Z M 1428 928.800781 "/>
<path style=" stroke:none;fill-rule:evenodd;fill:rgb(31.764706%,31.764706%,31.764706%);fill-opacity:1;" d="M 1284 885.601562 C 1280.535156 959.921875 1315.734375 991.125 1389.601562 979.199219 C 1397.742188 973.554688 1405.738281 967.953125 1413.601562 962.398438 C 1395.519531 989.011719 1369.921875 999.414062 1336.800781 993.601562 C 1307.867188 988.679688 1289.46875 971.878906 1281.601562 943.199219 C 1277.703125 923.09375 1278.503906 903.894531 1284 885.601562 Z M 1284 885.601562 "/>
<path style=" stroke:none;fill-rule:evenodd;fill:rgb(84.705882%,84.705882%,84.705882%);fill-opacity:1;" d="M 1293.601562 866.398438 C 1295.199219 866.398438 1296.800781 866.398438 1298.398438 866.398438 C 1292.945312 938.492188 1326.546875 968.09375 1399.199219 955.199219 C 1405.921875 948.296875 1413.921875 944.300781 1423.199219 943.199219 C 1423.199219 944.796875 1423.199219 946.402344 1423.199219 948 C 1341.558594 991.980469 1296.757812 967.980469 1288.800781 876 C 1287.972656 871.238281 1289.578125 868.042969 1293.601562 866.398438 Z M 1293.601562 866.398438 "/>
<path style=" stroke:none;fill-rule:evenodd;fill:rgb(58.431373%,58.431373%,58.431373%);fill-opacity:1;" d="M 1288.800781 876 C 1296.757812 967.980469 1341.558594 991.980469 1423.199219 948 C 1423.550781 955.328125 1420.347656 960.128906 1413.601562 962.398438 C 1405.738281 967.953125 1397.742188 973.554688 1389.601562 979.199219 C 1315.734375 991.125 1280.535156 959.921875 1284 885.601562 C 1283.175781 880.839844 1284.777344 877.640625 1288.800781 876 Z M 1288.800781 876 "/>
</g>
</svg>
