<?xml version="1.0" encoding="UTF-8"?>
<svg xmlns="http://www.w3.org/2000/svg" xmlns:xlink="http://www.w3.org/1999/xlink" width="1920pt" height="1440pt" viewBox="0 0 1920 1440" version="1.1">
<g id="surface1">
<path style=" stroke:none;fill-rule:evenodd;fill:rgb(0%,0%,0%);fill-opacity:1;" d="M -2.398438 -2.398438 C 637.597656 -2.398438 1277.601562 -2.398438 1917.601562 -2.398438 C 1917.601562 477.601562 1917.601562 957.601562 1917.601562 1437.601562 C 1277.601562 1437.601562 637.597656 1437.601562 -2.398438 1437.601562 C -2.398438 957.601562 -2.398438 477.601562 -2.398438 -2.398438 Z M -2.398438 -2.398438 "/>
<path style=" stroke:none;fill-rule:evenodd;fill:rgb(99.215686%,99.215686%,99.215686%);fill-opacity:1;" d="M 756 247.199219 C 763.675781 245.914062 770.074219 247.515625 775.199219 252 C 786.945312 262.488281 798.945312 273.6875 811.199219 285.601562 C 813.875 295.75 817.875 305.351562 823.199219 314.398438 C 816.90625 333.066406 813.707031 352.265625 813.601562 372 C 813.601562 373.601562 813.601562 375.199219 813.601562 376.800781 C 782.167969 388.625 756.570312 381.421875 736.800781 355.199219 C 732.25 352.882812 727.449219 352.082031 722.398438 352.800781 C 708.164062 319.667969 709.761719 287.667969 727.199219 256.800781 C 736.421875 252.660156 746.019531 249.460938 756 247.199219 Z M 756 247.199219 "/>
<path style=" stroke:none;fill-rule:evenodd;fill:rgb(67.058824%,67.058824%,67.058824%);fill-opacity:1;" d="M 756 247.199219 C 786.503906 235.824219 811.304688 243.824219 830.398438 271.199219 C 839.804688 282.972656 843.800781 296.570312 842.398438 312 C 842.175781 323.015625 838.976562 331.816406 832.800781 338.398438 C 841.96875 290.0625 822.769531 261.261719 775.199219 252 C 770.074219 247.515625 763.675781 245.914062 756 247.199219 Z M 756 247.199219 "/>
<path style=" stroke:none;fill-rule:evenodd;fill:rgb(22.745098%,22.745098%,22.745098%);fill-opacity:1;" d="M 756 237.601562 C 806.558594 221.335938 841.757812 237.335938 861.601562 285.601562 C 868.804688 327.386719 854.40625 360.1875 818.398438 384 C 812.195312 386.351562 805.789062 387.152344 799.199219 386.398438 C 804 383.199219 808.800781 380 813.601562 376.800781 C 813.601562 375.199219 813.601562 373.601562 813.601562 372 C 819.796875 373.140625 824.597656 371.539062 828 367.199219 C 838.171875 360.066406 845.371094 350.464844 849.601562 338.398438 C 858.769531 266.777344 827.566406 233.179688 756 237.601562 Z M 756 237.601562 "/>
<path style=" stroke:none;fill-rule:evenodd;fill:rgb(80.392157%,80.392157%,80.392157%);fill-opacity:1;" d="M 722.398438 256.800781 C 724 256.800781 725.601562 256.800781 727.199219 256.800781 C 709.761719 287.667969 708.164062 319.667969 722.398438 352.800781 C 727.449219 352.082031 732.25 352.882812 736.800781 355.199219 C 756.570312 381.421875 782.167969 388.625 813.601562 376.800781 C 808.800781 380 804 383.199219 799.199219 386.398438 C 796 386.398438 792.800781 386.398438 789.601562 386.398438 C 745.304688 393.503906 717.308594 375.90625 705.601562 333.601562 C 702.210938 312.542969 703.007812 291.742188 708 271.199219 C 714.398438 268 719.199219 263.199219 722.398438 256.800781 Z M 722.398438 256.800781 "/>
<path style=" stroke:none;fill-rule:evenodd;fill:rgb(40.784314%,40.784314%,40.784314%);fill-opacity:1;" d="M 722.398438 256.800781 C 719.199219 263.199219 714.398438 268 708 271.199219 C 696.671875 282.773438 691.871094 297.171875 693.601562 314.398438 C 695.5625 334.320312 700.363281 353.519531 708 372 C 696.078125 364.226562 688.875 353.023438 686.398438 338.398438 C 683.144531 320.539062 683.945312 302.9375 688.800781 285.601562 C 694.9375 270.472656 706.136719 260.871094 722.398438 256.800781 Z M 722.398438 256.800781 "/>
<path style=" stroke:none;fill-rule:evenodd;fill:rgb(87.058824%,87.058824%,87.058824%);fill-opacity:1;" d="M 775.199219 252 C 822.769531 261.261719 841.96875 290.0625 832.800781 338.398438 C 832.71875 348.3125 831.121094 357.910156 828 367.199219 C 824.597656 371.539062 819.796875 373.140625 813.601562 372 C 813.707031 352.265625 816.90625 333.066406 823.199219 314.398438 C 817.875 305.351562 813.875 295.75 811.199219 285.601562 C 798.945312 273.6875 786.945312 262.488281 775.199219 252 Z M 775.199219 252 "/>
<path style=" stroke:none;fill-rule:evenodd;fill:rgb(48.627451%,48.627451%,48.627451%);fill-opacity:1;" d="M 756 237.601562 C 827.566406 233.179688 858.769531 266.777344 849.601562 338.398438 C 845.371094 350.464844 838.171875 360.066406 828 367.199219 C 831.121094 357.910156 832.71875 348.3125 832.800781 338.398438 C 838.976562 331.816406 842.175781 323.015625 842.398438 312 C 843.800781 296.570312 839.804688 282.972656 830.398438 271.199219 C 811.304688 243.824219 786.503906 235.824219 756 247.199219 C 746.019531 249.460938 736.421875 252.660156 727.199219 256.800781 C 733.117188 245.777344 742.71875 239.378906 756 237.601562 Z M 756 237.601562 "/>
<path style=" stroke:none;fill-rule:evenodd;fill:rgb(57.254902%,57.254902%,57.254902%);fill-opacity:1;" d="M 708 271.199219 C 703.007812 291.742188 702.210938 312.542969 705.601562 333.601562 C 717.308594 375.90625 745.304688 393.503906 789.601562 386.398438 C 760.03125 395.121094 732.832031 390.320312 708 372 C 700.363281 353.519531 695.5625 334.320312 693.601562 314.398438 C 691.871094 297.171875 696.671875 282.773438 708 271.199219 Z M 708 271.199219 "/>
<path style=" stroke:none;fill-rule:evenodd;fill:rgb(28.235294%,28.235294%,28.235294%);fill-opacity:1;" d="M 688.800781 285.601562 C 683.945312 302.9375 683.144531 320.539062 686.398438 338.398438 C 688.875 353.023438 696.078125 364.226562 708 372 C 732.832031 390.320312 760.03125 395.121094 789.601562 386.398438 C 792.800781 386.398438 796 386.398438 799.199219 386.398438 C 757.054688 410.394531 719.457031 403.996094 686.398438 367.199219 C 669.699219 338.574219 670.503906 311.375 688.800781 285.601562 Z M 688.800781 285.601562 "/>
<path style=" stroke:none;fill-rule:evenodd;fill:rgb(35.294118%,35.294118%,35.294118%);fill-opacity:1;" d="M 919.199219 400.800781 C 931.09375 397.613281 943.894531 396.011719 957.601562 396 C 976.652344 395.011719 994.246094 398.210938 1010.398438 405.601562 C 980.175781 401.664062 949.769531 400.066406 919.199219 400.800781 Z M 919.199219 400.800781 "/>
<path style=" stroke:none;fill-rule:evenodd;fill:rgb(98.039216%,98.039216%,98.039216%);fill-opacity:1;" d="M 919.199219 400.800781 C 949.769531 400.066406 980.175781 401.664062 1010.398438 405.601562 C 1122.652344 426.539062 1202.648438 488.9375 1250.398438 592.800781 C 1251.3125 608.902344 1256.113281 623.304688 1264.800781 636 C 1264.136719 659.585938 1267.335938 681.988281 1274.398438 703.199219 C 1276.621094 832.964844 1222.222656 931.363281 1111.199219 998.398438 C 958.195312 1068.335938 824.597656 1041.9375 710.398438 919.199219 C 670.003906 868.765625 646.804688 811.167969 640.800781 746.398438 C 640.671875 705.71875 645.46875 665.722656 655.199219 626.398438 C 663.28125 584.636719 681.679688 547.832031 710.398438 516 C 747.644531 471.472656 793.242188 439.472656 847.199219 420 C 858.710938 421.15625 868.308594 417.953125 876 410.398438 C 889.308594 404.84375 903.710938 401.644531 919.199219 400.800781 Z M 919.199219 400.800781 "/>
<path style=" stroke:none;fill-rule:evenodd;fill:rgb(65.490196%,65.490196%,65.490196%);fill-opacity:1;" d="M 876 410.398438 C 868.308594 417.953125 858.710938 421.15625 847.199219 420 C 854.890625 412.445312 864.488281 409.246094 876 410.398438 Z M 876 410.398438 "/>
<path style=" stroke:none;fill-rule:evenodd;fill:rgb(50.196078%,50.196078%,50.196078%);fill-opacity:1;" d="M 996 544.800781 C 965.320312 543.59375 934.921875 545.195312 904.800781 549.601562 C 905.332031 546.636719 906.929688 544.238281 909.601562 542.398438 C 939.269531 538.46875 968.070312 539.265625 996 544.800781 Z M 996 544.800781 "/>
<path style=" stroke:none;fill-rule:evenodd;fill:rgb(0.784314%,0.784314%,0.784314%);fill-opacity:1;" d="M 996 544.800781 C 1044.949219 559.660156 1083.351562 588.460938 1111.199219 631.199219 C 1110.847656 638.53125 1114.050781 643.328125 1120.800781 645.601562 C 1153.652344 765.382812 1112.054688 847.78125 996 892.800781 C 866.976562 899.789062 794.976562 838.992188 780 710.398438 C 779.964844 694.761719 782.367188 679.558594 787.199219 664.800781 C 794.601562 647.585938 803.398438 631.589844 813.601562 616.800781 C 820.347656 614.53125 823.550781 609.730469 823.199219 602.398438 C 844.796875 576.382812 871.996094 558.789062 904.800781 549.601562 C 934.921875 545.195312 965.320312 543.59375 996 544.800781 Z M 996 544.800781 "/>
<path style=" stroke:none;fill-rule:evenodd;fill:rgb(36.862745%,36.862745%,36.862745%);fill-opacity:1;" d="M 823.199219 602.398438 C 823.550781 609.730469 820.347656 614.53125 813.601562 616.800781 C 813.25 609.46875 816.453125 604.671875 823.199219 602.398438 Z M 823.199219 602.398438 "/>
<path style=" stroke:none;fill-rule:evenodd;fill:rgb(56.862745%,56.862745%,56.862745%);fill-opacity:1;" d="M 1250.398438 592.800781 C 1259.867188 605.203125 1264.664062 619.601562 1264.800781 636 C 1256.113281 623.304688 1251.3125 608.902344 1250.398438 592.800781 Z M 1250.398438 592.800781 "/>
<path style=" stroke:none;fill-rule:evenodd;fill:rgb(51.372549%,51.372549%,51.372549%);fill-opacity:1;" d="M 1111.199219 631.199219 C 1117.949219 633.46875 1121.152344 638.269531 1120.800781 645.601562 C 1114.050781 643.328125 1110.847656 638.53125 1111.199219 631.199219 Z M 1111.199219 631.199219 "/>
<path style=" stroke:none;fill-rule:evenodd;fill:rgb(55.294118%,55.294118%,55.294118%);fill-opacity:1;" d="M 655.199219 626.398438 C 645.46875 665.722656 640.671875 705.71875 640.800781 746.398438 C 632.222656 704.972656 637.023438 664.972656 655.199219 626.398438 Z M 655.199219 626.398438 "/>
<path style=" stroke:none;fill-rule:evenodd;fill:rgb(71.372549%,71.372549%,71.372549%);fill-opacity:1;" d="M 1264.800781 636 C 1273.011719 657.027344 1276.210938 679.425781 1274.398438 703.199219 C 1267.335938 681.988281 1264.136719 659.585938 1264.800781 636 Z M 1264.800781 636 "/>
<path style=" stroke:none;fill-rule:evenodd;fill:rgb(98.039216%,98.039216%,98.039216%);fill-opacity:1;" d="M 1188 1178.398438 C 1173.847656 1182.335938 1159.449219 1185.53125 1144.800781 1188 C 1126.628906 1181.3125 1109.027344 1173.3125 1092 1164 C 1073.769531 1121.363281 1081.765625 1085.363281 1116 1056 C 1200.621094 1059.984375 1224.621094 1100.785156 1188 1178.398438 Z M 1188 1178.398438 "/>
<path style=" stroke:none;fill-rule:evenodd;fill:rgb(24.313725%,24.313725%,24.313725%);fill-opacity:1;" d="M 1140 1039.199219 C 1213.109375 1031.519531 1245.910156 1065.121094 1238.398438 1140 C 1228.472656 1157.136719 1214.875 1169.9375 1197.601562 1178.398438 C 1200.707031 1170.523438 1205.503906 1164.125 1212 1159.199219 C 1218.191406 1156.523438 1222.191406 1151.722656 1224 1144.800781 C 1237.382812 1075.84375 1209.382812 1040.644531 1140 1039.199219 Z M 1140 1039.199219 "/>
<path style=" stroke:none;fill-rule:evenodd;fill:rgb(47.843137%,47.843137%,47.843137%);fill-opacity:1;" d="M 1140 1039.199219 C 1209.382812 1040.644531 1237.382812 1075.84375 1224 1144.800781 C 1222.191406 1151.722656 1218.191406 1156.523438 1212 1159.199219 C 1230.707031 1077.148438 1198.703125 1040.347656 1116 1048.800781 C 1121.449219 1040.578125 1129.449219 1037.375 1140 1039.199219 Z M 1140 1039.199219 "/>
<path style=" stroke:none;fill-rule:evenodd;fill:rgb(44.705882%,44.705882%,44.313725%);fill-opacity:1;" d="M 1111.199219 1048.800781 C 1104.113281 1058.398438 1095.316406 1066.402344 1084.800781 1072.800781 C 1074.238281 1095.855469 1071.039062 1119.855469 1075.199219 1144.800781 C 1078.367188 1153.554688 1083.96875 1159.953125 1092 1164 C 1109.179688 1188.4375 1133.179688 1198.035156 1164 1192.800781 C 1160.597656 1197.140625 1155.796875 1198.738281 1149.601562 1197.601562 C 1061.28125 1193.117188 1037.28125 1151.519531 1077.601562 1072.800781 C 1086.222656 1061.28125 1097.425781 1053.277344 1111.199219 1048.800781 Z M 1111.199219 1048.800781 "/>
<path style=" stroke:none;fill-rule:evenodd;fill:rgb(72.941176%,72.941176%,72.941176%);fill-opacity:1;" d="M 1212 1159.199219 C 1205.503906 1164.125 1200.707031 1170.523438 1197.601562 1178.398438 C 1194.398438 1178.398438 1191.203125 1178.398438 1188 1178.398438 C 1224.621094 1100.785156 1200.621094 1059.984375 1116 1056 C 1081.765625 1085.363281 1073.769531 1121.363281 1092 1164 C 1083.96875 1159.953125 1078.367188 1153.554688 1075.199219 1144.800781 C 1071.039062 1119.855469 1074.238281 1095.855469 1084.800781 1072.800781 C 1095.316406 1066.402344 1104.113281 1058.398438 1111.199219 1048.800781 C 1112.796875 1048.800781 1114.402344 1048.800781 1116 1048.800781 C 1198.703125 1040.347656 1230.707031 1077.148438 1212 1159.199219 Z M 1212 1159.199219 "/>
<path style=" stroke:none;fill-rule:evenodd;fill:rgb(23.137255%,23.137255%,23.137255%);fill-opacity:1;" d="M 1077.601562 1072.800781 C 1037.28125 1151.519531 1061.28125 1193.117188 1149.601562 1197.601562 C 1074.90625 1206.707031 1043.707031 1173.105469 1056 1096.800781 C 1061.027344 1086.203125 1068.226562 1078.203125 1077.601562 1072.800781 Z M 1077.601562 1072.800781 "/>
<path style=" stroke:none;fill-rule:evenodd;fill:rgb(70.196078%,70.196078%,70.196078%);fill-opacity:1;" d="M 1092 1164 C 1109.027344 1173.3125 1126.628906 1181.3125 1144.800781 1188 C 1159.449219 1185.53125 1173.847656 1182.335938 1188 1178.398438 C 1181.914062 1185.824219 1173.910156 1190.625 1164 1192.800781 C 1133.179688 1198.035156 1109.179688 1188.4375 1092 1164 Z M 1092 1164 "/>
</g>
</svg>
