<?xml version="1.0" encoding="UTF-8"?>
<svg xmlns="http://www.w3.org/2000/svg" xmlns:xlink="http://www.w3.org/1999/xlink" width="1920pt" height="1440pt" viewBox="0 0 1920 1440" version="1.1">
<g id="surface1">
<path style=" stroke:none;fill-rule:evenodd;fill:rgb(0%,0%,0%);fill-opacity:1;" d="M -2.398438 -2.398438 C 637.597656 -2.398438 1277.601562 -2.398438 1917.601562 -2.398438 C 1917.601562 477.601562 1917.601562 957.601562 1917.601562 1437.601562 C 1277.601562 1437.601562 637.597656 1437.601562 -2.398438 1437.601562 C -2.398438 957.601562 -2.398438 477.601562 -2.398438 -2.398438 Z M -2.398438 -2.398438 "/>
<path style=" stroke:none;fill-rule:evenodd;fill:rgb(76.470588%,76.470588%,76.470588%);fill-opacity:1;" d="M 1264.800781 304.800781 C 1268 304.800781 1269.601562 306.398438 1269.601562 309.601562 C 1205.601562 306.398438 1175.199219 336.800781 1178.398438 400.800781 C 1165.230469 359.605469 1178.03125 328.40625 1216.800781 307.199219 C 1232.722656 304.808594 1248.71875 304.007812 1264.800781 304.800781 Z M 1264.800781 304.800781 "/>
<path style=" stroke:none;fill-rule:evenodd;fill:rgb(97.647059%,97.647059%,97.647059%);fill-opacity:1;" d="M 1269.601562 309.601562 C 1285.050781 312.332031 1296.25 320.332031 1303.199219 333.601562 C 1321.191406 376.320312 1313.195312 413.121094 1279.199219 444 C 1260.984375 451.886719 1241.785156 455.085938 1221.601562 453.601562 C 1216.839844 454.421875 1213.640625 452.824219 1212 448.800781 C 1203.984375 436.792969 1193.585938 427.191406 1180.800781 420 C 1178.449219 413.792969 1177.644531 407.390625 1178.398438 400.800781 C 1175.199219 336.800781 1205.601562 306.398438 1269.601562 309.601562 Z M 1269.601562 309.601562 "/>
<path style=" stroke:none;fill-rule:evenodd;fill:rgb(25.490196%,25.490196%,25.490196%);fill-opacity:1;" d="M 1202.398438 304.800781 C 1175.71875 327.191406 1162.914062 355.992188 1164 391.199219 C 1153.007812 352.347656 1165.808594 323.546875 1202.398438 304.800781 Z M 1202.398438 304.800781 "/>
<path style=" stroke:none;fill-rule:evenodd;fill:rgb(52.941176%,52.941176%,52.941176%);fill-opacity:1;" d="M 1264.800781 304.800781 C 1248.71875 304.007812 1232.722656 304.808594 1216.800781 307.199219 C 1178.03125 328.40625 1165.230469 359.605469 1178.398438 400.800781 C 1177.644531 407.390625 1178.449219 413.792969 1180.800781 420 C 1193.585938 427.191406 1203.984375 436.792969 1212 448.800781 C 1183.9375 439.914062 1167.9375 420.714844 1164 391.199219 C 1162.914062 355.992188 1175.71875 327.191406 1202.398438 304.800781 C 1223.199219 298.398438 1244 298.398438 1264.800781 304.800781 Z M 1264.800781 304.800781 "/>
<path style=" stroke:none;fill-rule:evenodd;fill:rgb(56.470588%,56.470588%,56.470588%);fill-opacity:1;" d="M 996 381.601562 C 950.46875 380.125 905.667969 384.925781 861.601562 396 C 877.640625 387.191406 895.242188 381.59375 914.398438 379.199219 C 942.476562 375.273438 969.671875 376.070312 996 381.601562 Z M 996 381.601562 "/>
<path style=" stroke:none;fill-rule:evenodd;fill:rgb(98.039216%,98.039216%,98.039216%);fill-opacity:1;" d="M 996 381.601562 C 1124.328125 401.941406 1216.328125 470.742188 1272 588 C 1276.691406 598.753906 1279.089844 609.949219 1279.199219 621.601562 C 1287.667969 670.726562 1290.867188 720.332031 1288.800781 770.398438 C 1276.851562 851.050781 1240.050781 919.050781 1178.398438 974.398438 C 1128.160156 1016.324219 1070.558594 1041.125 1005.601562 1048.800781 C 951.882812 1051.96875 899.082031 1047.167969 847.199219 1034.398438 C 788.222656 1018.847656 739.421875 986.847656 700.800781 938.398438 C 660.167969 889.15625 635.367188 833.15625 626.398438 770.398438 C 625.601562 733.566406 626.398438 696.761719 628.800781 660 C 637.761719 636.796875 643.363281 612.796875 645.601562 588 C 687.75 489.820312 759.75 425.820312 861.601562 396 C 905.667969 384.925781 950.46875 380.125 996 381.601562 Z M 996 381.601562 "/>
<path style=" stroke:none;fill-rule:evenodd;fill:rgb(59.607843%,59.607843%,59.607843%);fill-opacity:1;" d="M 1303.199219 333.601562 C 1313.941406 340.09375 1320.339844 349.691406 1322.398438 362.398438 C 1323.1875 375.300781 1322.386719 388.097656 1320 400.800781 C 1312.386719 411.21875 1305.984375 422.417969 1300.800781 434.398438 C 1294.414062 439.59375 1287.214844 442.792969 1279.199219 444 C 1313.195312 413.121094 1321.191406 376.320312 1303.199219 333.601562 Z M 1303.199219 333.601562 "/>
<path style=" stroke:none;fill-rule:evenodd;fill:rgb(39.215686%,39.215686%,39.215686%);fill-opacity:1;" d="M 1322.398438 362.398438 C 1327.863281 375.855469 1328.664062 390.257812 1324.800781 405.601562 C 1303.023438 448.855469 1268.621094 464.855469 1221.601562 453.601562 C 1241.785156 455.085938 1260.984375 451.886719 1279.199219 444 C 1287.214844 442.792969 1294.414062 439.59375 1300.800781 434.398438 C 1305.984375 422.417969 1312.386719 411.21875 1320 400.800781 C 1322.386719 388.097656 1323.1875 375.300781 1322.398438 362.398438 Z M 1322.398438 362.398438 "/>
<path style=" stroke:none;fill-rule:evenodd;fill:rgb(0.392157%,0.392157%,0.392157%);fill-opacity:1;" d="M 924 487.199219 C 1063.199219 484.910156 1150.398438 550.511719 1185.601562 684 C 1189.851562 825.3125 1123.449219 912.511719 986.398438 945.601562 C 843.277344 950.398438 757.675781 882.398438 729.601562 741.601562 C 727.34375 605.230469 792.144531 520.429688 924 487.199219 Z M 924 487.199219 "/>
<path style=" stroke:none;fill-rule:evenodd;fill:rgb(68.235294%,68.235294%,68.235294%);fill-opacity:1;" d="M 645.601562 588 C 643.363281 612.796875 637.761719 636.796875 628.800781 660 C 626.398438 696.761719 625.601562 733.566406 626.398438 770.398438 C 622.933594 768.394531 620.535156 765.195312 619.199219 760.800781 C 611.980469 700.167969 620.777344 642.566406 645.601562 588 Z M 645.601562 588 "/>
<path style=" stroke:none;fill-rule:evenodd;fill:rgb(66.666667%,66.666667%,66.666667%);fill-opacity:1;" d="M 1279.199219 621.601562 C 1288.007812 637.640625 1293.609375 655.242188 1296 674.398438 C 1299.203125 701.601562 1299.203125 728.796875 1296 756 C 1294.886719 761.9375 1292.488281 766.738281 1288.800781 770.398438 C 1290.867188 720.332031 1287.667969 670.726562 1279.199219 621.601562 Z M 1279.199219 621.601562 "/>
<path style=" stroke:none;fill-rule:evenodd;fill:rgb(27.843137%,27.843137%,27.843137%);fill-opacity:1;" d="M 684 976.800781 C 622.96875 977.035156 592.566406 1007.433594 592.800781 1068 C 582.972656 1011.230469 607.769531 979.230469 667.199219 972 C 673.847656 972.066406 679.445312 973.671875 684 976.800781 Z M 684 976.800781 "/>
<path style=" stroke:none;fill-rule:evenodd;fill:rgb(58.823529%,58.823529%,58.823529%);fill-opacity:1;" d="M 684 976.800781 C 691.175781 979.148438 697.578125 982.34375 703.199219 986.398438 C 680.320312 984.917969 657.917969 987.316406 636 993.601562 C 622 1009.167969 610 1025.964844 600 1044 C 597.625 1058.546875 598.421875 1072.949219 602.398438 1087.199219 C 594.699219 1083.421875 591.5 1077.023438 592.800781 1068 C 592.566406 1007.433594 622.96875 977.035156 684 976.800781 Z M 684 976.800781 "/>
<path style=" stroke:none;fill-rule:evenodd;fill:rgb(97.647059%,97.647059%,97.647059%);fill-opacity:1;" d="M 703.199219 986.398438 C 719.199219 992.796875 730.402344 1004 736.800781 1020 C 744.941406 1099.871094 709.738281 1133.472656 631.199219 1120.800781 C 618.035156 1112.453125 608.433594 1101.25 602.398438 1087.199219 C 598.421875 1072.949219 597.625 1058.546875 600 1044 C 610 1025.964844 622 1009.167969 636 993.601562 C 657.917969 987.316406 680.320312 984.917969 703.199219 986.398438 Z M 703.199219 986.398438 "/>
<path style=" stroke:none;fill-rule:evenodd;fill:rgb(67.843137%,67.843137%,67.843137%);fill-opacity:1;" d="M 847.199219 1034.398438 C 899.082031 1047.167969 951.882812 1051.96875 1005.601562 1048.800781 C 1003.59375 1052.265625 1000.398438 1054.664062 996 1056 C 943.671875 1063.265625 894.070312 1056.066406 847.199219 1034.398438 Z M 847.199219 1034.398438 "/>
<path style=" stroke:none;fill-rule:evenodd;fill:rgb(50.980392%,50.980392%,50.980392%);fill-opacity:1;" d="M 741.601562 1020 C 748.882812 1029.417969 752.082031 1040.617188 751.199219 1053.601562 C 750.355469 1069.832031 747.957031 1085.832031 744 1101.601562 C 742.191406 1108.523438 738.191406 1113.320312 732 1116 C 724.503906 1117.117188 718.105469 1120.320312 712.800781 1125.601562 C 722.292969 1112 731.09375 1097.601562 739.199219 1082.398438 C 741.59375 1061.660156 742.398438 1040.859375 741.601562 1020 Z M 741.601562 1020 "/>
<path style=" stroke:none;fill-rule:evenodd;fill:rgb(73.72549%,73.72549%,73.72549%);fill-opacity:1;" d="M 736.800781 1020 C 738.398438 1020 740 1020 741.601562 1020 C 742.398438 1040.859375 741.59375 1061.660156 739.199219 1082.398438 C 731.09375 1097.601562 722.292969 1112 712.800781 1125.601562 C 690.628906 1129.507812 668.226562 1131.105469 645.601562 1130.398438 C 638.269531 1130.75 633.46875 1127.546875 631.199219 1120.800781 C 709.738281 1133.472656 744.941406 1099.871094 736.800781 1020 Z M 736.800781 1020 "/>
<path style=" stroke:none;fill-rule:evenodd;fill:rgb(30.980392%,30.980392%,30.980392%);fill-opacity:1;" d="M 732 1116 C 711.210938 1137.867188 685.613281 1145.070312 655.199219 1137.601562 C 650.804688 1136.265625 647.605469 1133.867188 645.601562 1130.398438 C 668.226562 1131.105469 690.628906 1129.507812 712.800781 1125.601562 C 718.105469 1120.320312 724.503906 1117.117188 732 1116 Z M 732 1116 "/>
</g>
</svg>
