<?xml version="1.0" encoding="UTF-8"?>
<svg xmlns="http://www.w3.org/2000/svg" xmlns:xlink="http://www.w3.org/1999/xlink" width="1920pt" height="1440pt" viewBox="0 0 1920 1440" version="1.1">
<g id="surface1">
<path style=" stroke:none;fill-rule:evenodd;fill:rgb(0%,0%,0%);fill-opacity:1;" d="M -2.398438 -2.398438 C 637.597656 -2.398438 1277.601562 -2.398438 1917.601562 -2.398438 C 1917.601562 477.601562 1917.601562 957.601562 1917.601562 1437.601562 C 1277.601562 1437.601562 637.597656 1437.601562 -2.398438 1437.601562 C -2.398438 957.601562 -2.398438 477.601562 -2.398438 -2.398438 Z M -2.398438 -2.398438 "/>
<path style=" stroke:none;fill-rule:evenodd;fill:rgb(21.960784%,21.960784%,21.960784%);fill-opacity:1;" d="M 631.199219 319.199219 C 651.101562 313.695312 671.902344 312.894531 693.601562 316.800781 C 704.347656 323.085938 712.347656 331.886719 717.601562 343.199219 C 708 338.398438 698.398438 333.601562 688.800781 328.800781 C 670.558594 320.914062 651.359375 317.710938 631.199219 319.199219 Z M 631.199219 319.199219 "/>
<path style=" stroke:none;fill-rule:evenodd;fill:rgb(98.039216%,98.039216%,98.039216%);fill-opacity:1;" d="M 703.199219 448.800781 C 700 455.199219 695.199219 460 688.800781 463.199219 C 608.847656 475.242188 574.449219 441.644531 585.601562 362.398438 C 604.027344 341.585938 627.226562 333.585938 655.199219 338.398438 C 655.199219 343.199219 655.199219 348 655.199219 352.800781 C 680.140625 356.125 695.34375 370.523438 700.800781 396 C 703.195312 413.527344 703.992188 431.128906 703.199219 448.800781 Z M 703.199219 448.800781 "/>
<path style=" stroke:none;fill-rule:evenodd;fill:rgb(52.941176%,52.941176%,52.941176%);fill-opacity:1;" d="M 631.199219 319.199219 C 651.359375 317.710938 670.558594 320.914062 688.800781 328.800781 C 701.503906 341.363281 711.90625 355.761719 720 372 C 722.394531 389.527344 723.191406 407.128906 722.398438 424.800781 C 721.632812 432.734375 718.433594 439.132812 712.800781 444 C 728.230469 363.40625 694.632812 326.605469 612 333.601562 C 615.65625 325.140625 622.0625 320.339844 631.199219 319.199219 Z M 631.199219 319.199219 "/>
<path style=" stroke:none;fill-rule:evenodd;fill:rgb(35.686275%,35.686275%,35.686275%);fill-opacity:1;" d="M 688.800781 328.800781 C 698.398438 333.601562 708 338.398438 717.601562 343.199219 C 726.445312 357.632812 731.246094 373.632812 732 391.199219 C 731.199219 400.800781 730.402344 410.398438 729.601562 420 C 727.761719 422.667969 725.363281 424.269531 722.398438 424.800781 C 723.191406 407.128906 722.394531 389.527344 720 372 C 711.90625 355.761719 701.503906 341.363281 688.800781 328.800781 Z M 688.800781 328.800781 "/>
<path style=" stroke:none;fill-rule:evenodd;fill:rgb(59.215686%,59.215686%,59.215686%);fill-opacity:1;" d="M 1029.601562 405.601562 C 974.789062 397.910156 920.386719 399.511719 866.398438 410.398438 C 874.929688 405.117188 884.53125 401.117188 895.199219 398.398438 C 935.199219 395.199219 975.203125 395.199219 1015.199219 398.398438 C 1021.136719 399.515625 1025.9375 401.914062 1029.601562 405.601562 Z M 1029.601562 405.601562 "/>
<path style=" stroke:none;fill-rule:evenodd;fill:rgb(98.039216%,98.039216%,98.039216%);fill-opacity:1;" d="M 1029.601562 405.601562 C 1032.800781 405.601562 1036 405.601562 1039.199219 405.601562 C 1049.75 414.707031 1062.546875 419.503906 1077.601562 420 C 1173.574219 458.375 1235.976562 527.175781 1264.800781 626.398438 C 1273.449219 675.460938 1276.644531 725.058594 1274.398438 775.199219 C 1274.398438 776.796875 1274.398438 778.402344 1274.398438 780 C 1271.4375 780.53125 1269.039062 782.132812 1267.199219 784.800781 C 1262.425781 802.296875 1258.425781 819.898438 1255.199219 837.601562 C 1204.660156 950.546875 1118.261719 1016.152344 996 1034.398438 C 952.238281 1036.453125 909.039062 1033.257812 866.398438 1024.800781 C 863.199219 1024.800781 860 1024.800781 856.800781 1024.800781 C 851.351562 1016.578125 843.351562 1013.375 832.800781 1015.199219 C 752.414062 978.015625 694.8125 918.816406 660 837.601562 C 661.300781 828.574219 658.097656 822.175781 650.398438 818.398438 C 648.402344 803.601562 645.203125 789.203125 640.800781 775.199219 C 640.800781 767.199219 640.800781 759.203125 640.800781 751.199219 C 638.804688 709.035156 642.003906 667.433594 650.398438 626.398438 C 675.589844 541.195312 726.789062 476.394531 804 432 C 823.929688 422.023438 844.734375 414.820312 866.398438 410.398438 C 920.386719 399.511719 974.789062 397.910156 1029.601562 405.601562 Z M 1029.601562 405.601562 "/>
<path style=" stroke:none;fill-rule:evenodd;fill:rgb(60%,60%,60%);fill-opacity:1;" d="M 1039.199219 405.601562 C 1053.53125 407.535156 1066.328125 412.332031 1077.601562 420 C 1062.546875 419.503906 1049.75 414.707031 1039.199219 405.601562 Z M 1039.199219 405.601562 "/>
<path style=" stroke:none;fill-rule:evenodd;fill:rgb(52.941176%,52.941176%,52.941176%);fill-opacity:1;" d="M 573.601562 381.601562 C 572.210938 447.414062 604.210938 479.410156 669.601562 477.601562 C 669.601562 480.800781 668 482.398438 664.800781 482.398438 C 619.203125 490.402344 588.003906 472.800781 571.199219 429.601562 C 567.320312 412.671875 568.125 396.671875 573.601562 381.601562 Z M 573.601562 381.601562 "/>
<path style=" stroke:none;fill-rule:evenodd;fill:rgb(71.372549%,71.372549%,71.372549%);fill-opacity:1;" d="M 612 333.601562 C 694.632812 326.605469 728.230469 363.40625 712.800781 444 C 709.597656 445.601562 706.402344 447.199219 703.199219 448.800781 C 703.992188 431.128906 703.195312 413.527344 700.800781 396 C 695.34375 370.523438 680.140625 356.125 655.199219 352.800781 C 655.199219 348 655.199219 343.199219 655.199219 338.398438 C 627.226562 333.585938 604.027344 341.585938 585.601562 362.398438 C 574.449219 441.644531 608.847656 475.242188 688.800781 463.199219 C 684.308594 470.277344 677.902344 475.078125 669.601562 477.601562 C 604.210938 479.410156 572.210938 447.414062 573.601562 381.601562 C 573.601562 378.398438 573.601562 375.199219 573.601562 372 C 581.601562 354.398438 594.398438 341.601562 612 333.601562 Z M 612 333.601562 "/>
<path style=" stroke:none;fill-rule:evenodd;fill:rgb(30.588235%,30.588235%,30.588235%);fill-opacity:1;" d="M 573.601562 372 C 573.601562 375.199219 573.601562 378.398438 573.601562 381.601562 C 568.125 396.671875 567.320312 412.671875 571.199219 429.601562 C 588.003906 472.800781 619.203125 490.402344 664.800781 482.398438 C 640.367188 494.972656 615.566406 494.972656 590.398438 482.398438 C 564.078125 455.371094 554.476562 423.371094 561.601562 386.398438 C 563.410156 379.476562 567.40625 374.675781 573.601562 372 Z M 573.601562 372 "/>
<path style=" stroke:none;fill-rule:evenodd;fill:rgb(0.784314%,0.784314%,0.784314%);fill-opacity:1;" d="M 1000.800781 496.800781 C 1010.875 502.136719 1022.078125 505.339844 1034.398438 506.398438 C 1180.171875 580.136719 1217.773438 690.539062 1147.199219 837.601562 C 1118.773438 879.652344 1081.175781 910.054688 1034.398438 928.800781 C 1022.078125 929.859375 1010.875 933.0625 1000.800781 938.398438 C 911.609375 955.003906 838.808594 927.800781 782.398438 856.800781 C 719.332031 769.621094 716.136719 680.019531 772.800781 588 C 829.734375 511.992188 905.734375 481.59375 1000.800781 496.800781 Z M 1000.800781 496.800781 "/>
<path style=" stroke:none;fill-rule:evenodd;fill:rgb(54.901961%,54.901961%,54.901961%);fill-opacity:1;" d="M 1000.800781 496.800781 C 1013.894531 495.222656 1025.097656 498.417969 1034.398438 506.398438 C 1022.078125 505.339844 1010.875 502.136719 1000.800781 496.800781 Z M 1000.800781 496.800781 "/>
<path style=" stroke:none;fill-rule:evenodd;fill:rgb(59.607843%,59.607843%,59.607843%);fill-opacity:1;" d="M 650.398438 626.398438 C 642.003906 667.433594 638.804688 709.035156 640.800781 751.199219 C 636.0625 728.136719 634.460938 704.136719 636 679.199219 C 636.082031 659.835938 640.882812 642.234375 650.398438 626.398438 Z M 650.398438 626.398438 "/>
<path style=" stroke:none;fill-rule:evenodd;fill:rgb(60.392157%,60.392157%,60.392157%);fill-opacity:1;" d="M 1264.800781 626.398438 C 1270.078125 634.929688 1274.082031 644.53125 1276.800781 655.199219 C 1280.75 696.046875 1279.953125 736.050781 1274.398438 775.199219 C 1276.644531 725.058594 1273.449219 675.460938 1264.800781 626.398438 Z M 1264.800781 626.398438 "/>
<path style=" stroke:none;fill-rule:evenodd;fill:rgb(21.176471%,21.176471%,21.176471%);fill-opacity:1;" d="M 636 679.199219 C 634.460938 704.136719 636.0625 728.136719 640.800781 751.199219 C 640.800781 759.203125 640.800781 767.199219 640.800781 775.199219 C 633.613281 757.328125 630.417969 738.128906 631.199219 717.601562 C 631.214844 703.894531 632.8125 691.09375 636 679.199219 Z M 636 679.199219 "/>
<path style=" stroke:none;fill-rule:evenodd;fill:rgb(67.45098%,67.45098%,67.45098%);fill-opacity:1;" d="M 1274.398438 780 C 1270.871094 800.664062 1264.472656 819.863281 1255.199219 837.601562 C 1258.425781 819.898438 1262.425781 802.296875 1267.199219 784.800781 C 1269.039062 782.132812 1271.4375 780.53125 1274.398438 780 Z M 1274.398438 780 "/>
<path style=" stroke:none;fill-rule:evenodd;fill:rgb(54.117647%,54.117647%,54.117647%);fill-opacity:1;" d="M 650.398438 818.398438 C 658.097656 822.175781 661.300781 828.574219 660 837.601562 C 654.363281 832.734375 651.167969 826.335938 650.398438 818.398438 Z M 650.398438 818.398438 "/>
<path style=" stroke:none;fill-rule:evenodd;fill:rgb(55.294118%,55.294118%,55.294118%);fill-opacity:1;" d="M 1034.398438 928.800781 C 1025.097656 936.78125 1013.894531 939.980469 1000.800781 938.398438 C 1010.875 933.0625 1022.078125 929.859375 1034.398438 928.800781 Z M 1034.398438 928.800781 "/>
<path style=" stroke:none;fill-rule:evenodd;fill:rgb(19.607843%,19.607843%,19.607843%);fill-opacity:1;" d="M 1255.199219 948 C 1273.492188 942.503906 1292.691406 941.703125 1312.800781 945.601562 C 1315.46875 947.4375 1317.066406 949.839844 1317.601562 952.800781 C 1296.96875 949.441406 1276.171875 947.839844 1255.199219 948 Z M 1255.199219 948 "/>
<path style=" stroke:none;fill-rule:evenodd;fill:rgb(41.960784%,41.960784%,41.960784%);fill-opacity:1;" d="M 1255.199219 948 C 1276.171875 947.839844 1296.96875 949.441406 1317.601562 952.800781 C 1324 964 1330.402344 975.203125 1336.800781 986.398438 C 1310.449219 960.59375 1278.445312 950.996094 1240.800781 957.601562 C 1243.070312 950.851562 1247.871094 947.648438 1255.199219 948 Z M 1255.199219 948 "/>
<path style=" stroke:none;fill-rule:evenodd;fill:rgb(23.921569%,23.921569%,23.921569%);fill-opacity:1;" d="M 1317.601562 952.800781 C 1333.492188 964.699219 1347.089844 979.097656 1358.398438 996 C 1362.246094 1009.761719 1361.441406 1022.5625 1356 1034.398438 C 1359.601562 1013.878906 1353.203125 997.875 1336.800781 986.398438 C 1330.402344 975.203125 1324 964 1317.601562 952.800781 Z M 1317.601562 952.800781 "/>
<path style=" stroke:none;fill-rule:evenodd;fill:rgb(98.431373%,98.431373%,98.431373%);fill-opacity:1;" d="M 1322.398438 1082.398438 C 1319.199219 1088.796875 1314.398438 1093.597656 1308 1096.800781 C 1228.273438 1105.863281 1195.472656 1070.664062 1209.601562 991.199219 C 1214.585938 985.390625 1220.1875 980.59375 1226.398438 976.800781 C 1269.414062 963.507812 1302.210938 976.308594 1324.800781 1015.199219 C 1327.507812 1037.730469 1326.707031 1060.128906 1322.398438 1082.398438 Z M 1322.398438 1082.398438 "/>
<path style=" stroke:none;fill-rule:evenodd;fill:rgb(36.078431%,36.078431%,36.078431%);fill-opacity:1;" d="M 1336.800781 986.398438 C 1353.203125 997.875 1359.601562 1013.878906 1356 1034.398438 C 1355.257812 1050.566406 1348.859375 1063.367188 1336.800781 1072.800781 C 1349.042969 1044.4375 1349.042969 1015.636719 1336.800781 986.398438 Z M 1336.800781 986.398438 "/>
<path style=" stroke:none;fill-rule:evenodd;fill:rgb(54.901961%,54.901961%,54.901961%);fill-opacity:1;" d="M 832.800781 1015.199219 C 843.351562 1013.375 851.351562 1016.578125 856.800781 1024.800781 C 847.664062 1023.378906 839.664062 1020.175781 832.800781 1015.199219 Z M 832.800781 1015.199219 "/>
<path style=" stroke:none;fill-rule:evenodd;fill:rgb(59.215686%,59.215686%,59.215686%);fill-opacity:1;" d="M 866.398438 1024.800781 C 909.039062 1033.257812 952.238281 1036.453125 996 1034.398438 C 963.257812 1039.945312 929.660156 1040.742188 895.199219 1036.800781 C 884.53125 1034.082031 874.929688 1030.078125 866.398438 1024.800781 Z M 866.398438 1024.800781 "/>
<path style=" stroke:none;fill-rule:evenodd;fill:rgb(83.921569%,83.921569%,83.921569%);fill-opacity:1;" d="M 1332 1072.800781 C 1330.402344 1077.601562 1327.199219 1080.800781 1322.398438 1082.398438 C 1326.707031 1060.128906 1327.507812 1037.730469 1324.800781 1015.199219 C 1302.210938 976.308594 1269.414062 963.507812 1226.398438 976.800781 C 1236.511719 966.46875 1249.316406 961.671875 1264.800781 962.398438 C 1276.429688 962.851562 1287.628906 965.25 1298.398438 969.601562 C 1331.28125 997.046875 1342.484375 1031.441406 1332 1072.800781 Z M 1332 1072.800781 "/>
<path style=" stroke:none;fill-rule:evenodd;fill:rgb(66.666667%,66.666667%,66.666667%);fill-opacity:1;" d="M 1240.800781 957.601562 C 1278.445312 950.996094 1310.449219 960.59375 1336.800781 986.398438 C 1349.042969 1015.636719 1349.042969 1044.4375 1336.800781 1072.800781 C 1335.203125 1072.800781 1333.597656 1072.800781 1332 1072.800781 C 1342.484375 1031.441406 1331.28125 997.046875 1298.398438 969.601562 C 1287.628906 965.25 1276.429688 962.851562 1264.800781 962.398438 C 1249.316406 961.671875 1236.511719 966.46875 1226.398438 976.800781 C 1220.1875 980.59375 1214.585938 985.390625 1209.601562 991.199219 C 1195.472656 1070.664062 1228.273438 1105.863281 1308 1096.800781 C 1304.796875 1100 1301.601562 1103.199219 1298.398438 1106.398438 C 1293.601562 1106.398438 1288.800781 1106.398438 1284 1106.398438 C 1223.585938 1103.558594 1194.789062 1071.5625 1197.601562 1010.398438 C 1197.601562 1007.199219 1197.601562 1004 1197.601562 1000.800781 C 1207.199219 981.601562 1221.601562 967.199219 1240.800781 957.601562 Z M 1240.800781 957.601562 "/>
<path style=" stroke:none;fill-rule:evenodd;fill:rgb(49.803922%,49.803922%,49.803922%);fill-opacity:1;" d="M 1197.601562 1010.398438 C 1194.789062 1071.5625 1223.585938 1103.558594 1284 1106.398438 C 1211.855469 1119.875 1180.65625 1089.46875 1190.398438 1015.199219 C 1192.238281 1012.53125 1194.636719 1010.933594 1197.601562 1010.398438 Z M 1197.601562 1010.398438 "/>
<path style=" stroke:none;fill-rule:evenodd;fill:rgb(25.882353%,25.882353%,25.882353%);fill-opacity:1;" d="M 1197.601562 1000.800781 C 1197.601562 1004 1197.601562 1007.199219 1197.601562 1010.398438 C 1194.636719 1010.933594 1192.238281 1012.53125 1190.398438 1015.199219 C 1180.65625 1089.46875 1211.855469 1119.875 1284 1106.398438 C 1288.800781 1106.398438 1293.601562 1106.398438 1298.398438 1106.398438 C 1260.855469 1128.4375 1226.453125 1123.636719 1195.199219 1092 C 1179.96875 1070.289062 1175.167969 1046.289062 1180.800781 1020 C 1183.96875 1011.246094 1189.570312 1004.847656 1197.601562 1000.800781 Z M 1197.601562 1000.800781 "/>
</g>
</svg>
