<?xml version="1.0" encoding="UTF-8"?>
<svg xmlns="http://www.w3.org/2000/svg" xmlns:xlink="http://www.w3.org/1999/xlink" width="1920pt" height="1440pt" viewBox="0 0 1920 1440" version="1.1">
<g id="surface1">
<path style=" stroke:none;fill-rule:evenodd;fill:rgb(0%,0%,0%);fill-opacity:1;" d="M -2.398438 -2.398438 C 637.597656 -2.398438 1277.601562 -2.398438 1917.601562 -2.398438 C 1917.601562 477.601562 1917.601562 957.601562 1917.601562 1437.601562 C 1277.601562 1437.601562 637.597656 1437.601562 -2.398438 1437.601562 C -2.398438 957.601562 -2.398438 477.601562 -2.398438 -2.398438 Z M -2.398438 -2.398438 "/>
<path style=" stroke:none;fill-rule:evenodd;fill:rgb(70.980392%,70.980392%,70.980392%);fill-opacity:1;" d="M 991.199219 410.398438 C 955.945312 411.019531 920.746094 412.621094 885.601562 415.199219 C 920.53125 405.507812 955.726562 403.910156 991.199219 410.398438 Z M 991.199219 410.398438 "/>
<path style=" stroke:none;fill-rule:evenodd;fill:rgb(98.039216%,98.039216%,98.039216%);fill-opacity:1;" d="M 991.199219 410.398438 C 1131.5625 430.757812 1221.160156 509.160156 1260 645.601562 C 1262.582031 680.746094 1264.179688 715.945312 1264.800781 751.199219 C 1239.773438 905.828125 1150.171875 997.027344 996 1024.800781 C 959.140625 1024.339844 922.339844 1022.734375 885.601562 1020 C 751.339844 981.738281 672.941406 893.742188 650.398438 756 C 650.859375 719.140625 652.464844 682.339844 655.199219 645.601562 C 679.703125 548.230469 737.304688 477.03125 828 432 C 846.945312 424.878906 866.144531 419.277344 885.601562 415.199219 C 920.746094 412.621094 955.945312 411.019531 991.199219 410.398438 Z M 991.199219 410.398438 "/>
<path style=" stroke:none;fill-rule:evenodd;fill:rgb(0.784314%,0.784314%,0.784314%);fill-opacity:1;" d="M 924 506.398438 C 968.9375 502.296875 1012.136719 508.695312 1053.601562 525.601562 C 1100.386719 548.378906 1133.984375 583.578125 1154.398438 631.199219 C 1157.417969 645.105469 1162.21875 657.90625 1168.800781 669.601562 C 1168.800781 676 1168.800781 682.402344 1168.800781 688.800781 C 1172.75 732.152344 1166.351562 773.753906 1149.601562 813.601562 C 1128.800781 856.800781 1096.800781 888.800781 1053.601562 909.601562 C 1041.757812 910.824219 1032.160156 915.625 1024.800781 924 C 986.761719 933.941406 948.359375 935.539062 909.601562 928.800781 C 897.90625 922.21875 885.105469 917.417969 871.199219 914.398438 C 823.578125 893.984375 788.378906 860.386719 765.601562 813.601562 C 760.980469 794.902344 754.578125 777.308594 746.398438 760.800781 C 740 730.402344 740 700 746.398438 669.601562 C 752.980469 657.90625 757.78125 645.105469 760.800781 631.199219 C 783.652344 580.34375 820.453125 542.746094 871.199219 518.398438 C 888.195312 511.488281 905.796875 507.484375 924 506.398438 Z M 924 506.398438 "/>
<path style=" stroke:none;fill-rule:evenodd;fill:rgb(49.411765%,49.411765%,49.411765%);fill-opacity:1;" d="M 924 506.398438 C 950.328125 500.871094 977.523438 500.074219 1005.601562 504 C 1023.667969 508.089844 1039.664062 515.289062 1053.601562 525.601562 C 1012.136719 508.695312 968.9375 502.296875 924 506.398438 Z M 924 506.398438 "/>
<path style=" stroke:none;fill-rule:evenodd;fill:rgb(43.921569%,43.921569%,43.921569%);fill-opacity:1;" d="M 1418.398438 540 C 1433.160156 551.5625 1445.960938 564.359375 1456.800781 578.398438 C 1431.675781 557.492188 1402.875 548.691406 1370.398438 552 C 1331.910156 568.972656 1314.3125 598.574219 1317.601562 640.800781 C 1312.902344 625.800781 1311.296875 609.800781 1312.800781 592.800781 C 1336.964844 553.273438 1372.160156 535.671875 1418.398438 540 Z M 1418.398438 540 "/>
<path style=" stroke:none;fill-rule:evenodd;fill:rgb(24.313725%,24.313725%,24.313725%);fill-opacity:1;" d="M 1418.398438 540 C 1372.160156 535.671875 1336.964844 553.273438 1312.800781 592.800781 C 1325.582031 542.394531 1357.585938 522.394531 1408.800781 532.800781 C 1413.195312 534.132812 1416.394531 536.535156 1418.398438 540 Z M 1418.398438 540 "/>
<path style=" stroke:none;fill-rule:evenodd;fill:rgb(97.254902%,97.254902%,97.254902%);fill-opacity:1;" d="M 1461.601562 607.199219 C 1461.601562 608.796875 1461.601562 610.402344 1461.601562 612 C 1452.070312 684.042969 1413.671875 705.644531 1346.398438 676.800781 C 1307.605469 628.34375 1317.207031 593.140625 1375.199219 571.199219 C 1392.800781 568 1410.398438 568 1428 571.199219 C 1441.796875 581.125 1453 593.125 1461.601562 607.199219 Z M 1461.601562 607.199219 "/>
<path style=" stroke:none;fill-rule:evenodd;fill:rgb(68.627451%,68.627451%,68.627451%);fill-opacity:1;" d="M 1456.800781 578.398438 C 1457.074219 583.722656 1458.671875 588.523438 1461.601562 592.800781 C 1461.601562 597.601562 1461.601562 602.398438 1461.601562 607.199219 C 1453 593.125 1441.796875 581.125 1428 571.199219 C 1410.398438 568 1392.800781 568 1375.199219 571.199219 C 1317.207031 593.140625 1307.605469 628.34375 1346.398438 676.800781 C 1413.671875 705.644531 1452.070312 684.042969 1461.601562 612 C 1468.910156 631.738281 1467.308594 650.9375 1456.800781 669.601562 C 1425.113281 700.609375 1388.3125 707.011719 1346.398438 688.800781 C 1340 679.199219 1332 671.199219 1322.398438 664.800781 C 1319.816406 657.039062 1318.21875 649.035156 1317.601562 640.800781 C 1314.3125 598.574219 1331.910156 568.972656 1370.398438 552 C 1402.875 548.691406 1431.675781 557.492188 1456.800781 578.398438 Z M 1456.800781 578.398438 "/>
<path style=" stroke:none;fill-rule:evenodd;fill:rgb(61.176471%,61.176471%,61.176471%);fill-opacity:1;" d="M 760.800781 631.199219 C 757.78125 645.105469 752.980469 657.90625 746.398438 669.601562 C 745.65625 654.164062 750.457031 641.363281 760.800781 631.199219 Z M 760.800781 631.199219 "/>
<path style=" stroke:none;fill-rule:evenodd;fill:rgb(61.568627%,61.568627%,61.568627%);fill-opacity:1;" d="M 1154.398438 631.199219 C 1164.742188 641.363281 1169.542969 654.164062 1168.800781 669.601562 C 1162.21875 657.90625 1157.417969 645.105469 1154.398438 631.199219 Z M 1154.398438 631.199219 "/>
<path style=" stroke:none;fill-rule:evenodd;fill:rgb(30.980392%,30.980392%,30.980392%);fill-opacity:1;" d="M 1461.601562 592.800781 C 1465.285156 596.460938 1467.6875 601.261719 1468.800781 607.199219 C 1480.421875 693.164062 1442.824219 729.164062 1356 715.199219 C 1338.140625 702.921875 1326.9375 686.121094 1322.398438 664.800781 C 1332 671.199219 1340 679.199219 1346.398438 688.800781 C 1362.707031 711.875 1385.105469 719.074219 1413.601562 710.398438 C 1434.445312 703.253906 1448.847656 689.65625 1456.800781 669.601562 C 1467.308594 650.9375 1468.910156 631.738281 1461.601562 612 C 1461.601562 610.402344 1461.601562 608.796875 1461.601562 607.199219 C 1461.601562 602.398438 1461.601562 597.601562 1461.601562 592.800781 Z M 1461.601562 592.800781 "/>
<path style=" stroke:none;fill-rule:evenodd;fill:rgb(48.627451%,48.627451%,48.627451%);fill-opacity:1;" d="M 1456.800781 669.601562 C 1448.847656 689.65625 1434.445312 703.253906 1413.601562 710.398438 C 1385.105469 719.074219 1362.707031 711.875 1346.398438 688.800781 C 1388.3125 707.011719 1425.113281 700.609375 1456.800781 669.601562 Z M 1456.800781 669.601562 "/>
<path style=" stroke:none;fill-rule:evenodd;fill:rgb(63.921569%,63.921569%,63.921569%);fill-opacity:1;" d="M 655.199219 645.601562 C 652.464844 682.339844 650.859375 719.140625 650.398438 756 C 643.8125 718.929688 645.414062 682.132812 655.199219 645.601562 Z M 655.199219 645.601562 "/>
<path style=" stroke:none;fill-rule:evenodd;fill:rgb(65.882353%,65.882353%,65.490196%);fill-opacity:1;" d="M 1260 645.601562 C 1269.691406 680.53125 1271.289062 715.726562 1264.800781 751.199219 C 1264.179688 715.945312 1262.582031 680.746094 1260 645.601562 Z M 1260 645.601562 "/>
<path style=" stroke:none;fill-rule:evenodd;fill:rgb(37.647059%,37.647059%,37.647059%);fill-opacity:1;" d="M 549.601562 727.199219 C 519.175781 722.75 491.976562 729.152344 468 746.398438 C 468.050781 739.117188 471.25 733.515625 477.601562 729.601562 C 499.054688 719.320312 521.457031 716.117188 544.800781 720 C 547.46875 721.839844 549.066406 724.238281 549.601562 727.199219 Z M 549.601562 727.199219 "/>
<path style=" stroke:none;fill-rule:evenodd;fill:rgb(23.529412%,23.529412%,23.529412%);fill-opacity:1;" d="M 578.398438 741.601562 C 570.164062 734.28125 560.5625 729.480469 549.601562 727.199219 C 549.066406 724.238281 547.46875 721.839844 544.800781 720 C 521.457031 716.117188 499.054688 719.320312 477.601562 729.601562 C 471.25 733.515625 468.050781 739.117188 468 746.398438 C 450.898438 765.207031 444.5 787.609375 448.800781 813.601562 C 435.621094 773.355469 446.820312 740.558594 482.398438 715.199219 C 515.125 708.46875 545.53125 713.269531 573.601562 729.601562 C 577.210938 732.820312 578.8125 736.820312 578.398438 741.601562 Z M 578.398438 741.601562 "/>
<path style=" stroke:none;fill-rule:evenodd;fill:rgb(59.215686%,59.215686%,59.215686%);fill-opacity:1;" d="M 549.601562 727.199219 C 556.328125 736.71875 565.132812 744.714844 576 751.199219 C 581.25 758.773438 585.253906 766.777344 588 775.199219 C 584.796875 773.601562 581.601562 772 578.398438 770.398438 C 560.03125 743.28125 534.433594 734.476562 501.601562 744 C 475.699219 754.640625 459.699219 773.039062 453.601562 799.199219 C 453.125 812.335938 454.726562 825.140625 458.398438 837.601562 C 458.398438 840.800781 458.398438 844 458.398438 847.199219 C 455.4375 846.667969 453.035156 845.070312 451.199219 842.398438 C 448.820312 832.929688 448.023438 823.328125 448.800781 813.601562 C 444.5 787.609375 450.898438 765.207031 468 746.398438 C 491.976562 729.152344 519.175781 722.75 549.601562 727.199219 Z M 549.601562 727.199219 "/>
<path style=" stroke:none;fill-rule:evenodd;fill:rgb(98.823529%,98.823529%,98.823529%);fill-opacity:1;" d="M 578.398438 770.398438 C 581.601562 772 584.796875 773.601562 588 775.199219 C 592.890625 791.386719 592.890625 807.390625 588 823.199219 C 573.375 833.09375 560.574219 845.09375 549.601562 859.199219 C 530.398438 862.402344 511.199219 862.402344 492 859.199219 C 482.292969 849.558594 471.09375 842.355469 458.398438 837.601562 C 454.726562 825.140625 453.125 812.335938 453.601562 799.199219 C 466.300781 789.699219 477.5 778.503906 487.199219 765.601562 C 518.796875 751.65625 549.203125 753.253906 578.398438 770.398438 Z M 578.398438 770.398438 "/>
<path style=" stroke:none;fill-rule:evenodd;fill:rgb(40%,40%,40%);fill-opacity:1;" d="M 549.601562 727.199219 C 560.5625 729.480469 570.164062 734.28125 578.398438 741.601562 C 589.617188 753.433594 596.816406 767.832031 600 784.800781 C 602.394531 802.328125 603.191406 819.925781 602.398438 837.601562 C 600.800781 837.601562 599.199219 837.601562 597.601562 837.601562 C 598.390625 821.519531 597.589844 805.523438 595.199219 789.601562 C 594.085938 783.664062 591.6875 778.863281 588 775.199219 C 585.253906 766.777344 581.25 758.773438 576 751.199219 C 565.132812 744.714844 556.328125 736.71875 549.601562 727.199219 Z M 549.601562 727.199219 "/>
<path style=" stroke:none;fill-rule:evenodd;fill:rgb(52.54902%,52.54902%,52.54902%);fill-opacity:1;" d="M 746.398438 760.800781 C 754.578125 777.308594 760.980469 794.902344 765.601562 813.601562 C 753.648438 798.59375 747.25 781 746.398438 760.800781 Z M 746.398438 760.800781 "/>
<path style=" stroke:none;fill-rule:evenodd;fill:rgb(49.411765%,49.411765%,49.411765%);fill-opacity:1;" d="M 1168.800781 688.800781 C 1174.324219 713.519531 1175.121094 739.125 1171.199219 765.601562 C 1167.109375 783.667969 1159.910156 799.664062 1149.601562 813.601562 C 1166.351562 773.753906 1172.75 732.152344 1168.800781 688.800781 Z M 1168.800781 688.800781 "/>
<path style=" stroke:none;fill-rule:evenodd;fill:rgb(82.745098%,82.745098%,82.745098%);fill-opacity:1;" d="M 578.398438 770.398438 C 549.203125 753.253906 518.796875 751.65625 487.199219 765.601562 C 477.5 778.503906 466.300781 789.699219 453.601562 799.199219 C 459.699219 773.039062 475.699219 754.640625 501.601562 744 C 534.433594 734.476562 560.03125 743.28125 578.398438 770.398438 Z M 578.398438 770.398438 "/>
<path style=" stroke:none;fill-rule:evenodd;fill:rgb(64.705882%,64.705882%,64.705882%);fill-opacity:1;" d="M 588 775.199219 C 591.6875 778.863281 594.085938 783.664062 595.199219 789.601562 C 597.589844 805.523438 598.390625 821.519531 597.601562 837.601562 C 588.667969 849.707031 579.066406 861.707031 568.800781 873.601562 C 540.105469 881.597656 511.304688 882.394531 482.398438 876 C 479.199219 872.796875 476 869.601562 472.800781 866.398438 C 500.246094 873.574219 527.449219 872.777344 554.398438 864 C 569.59375 853.578125 580.789062 839.976562 588 823.199219 C 592.890625 807.390625 592.890625 791.386719 588 775.199219 Z M 588 775.199219 "/>
<path style=" stroke:none;fill-rule:evenodd;fill:rgb(80.392157%,80.392157%,80.392157%);fill-opacity:1;" d="M 588 823.199219 C 580.789062 839.976562 569.59375 853.578125 554.398438 864 C 527.449219 872.777344 500.246094 873.574219 472.800781 866.398438 C 470.277344 858.097656 465.476562 851.691406 458.398438 847.199219 C 458.398438 844 458.398438 840.800781 458.398438 837.601562 C 471.09375 842.355469 482.292969 849.558594 492 859.199219 C 511.199219 862.402344 530.398438 862.402344 549.601562 859.199219 C 560.574219 845.09375 573.375 833.09375 588 823.199219 Z M 588 823.199219 "/>
<path style=" stroke:none;fill-rule:evenodd;fill:rgb(47.058824%,47.058824%,47.058824%);fill-opacity:1;" d="M 597.601562 837.601562 C 592.453125 864.351562 576.457031 881.152344 549.601562 888 C 532 891.203125 514.402344 891.203125 496.800781 888 C 489.878906 886.191406 485.078125 882.191406 482.398438 876 C 511.304688 882.394531 540.105469 881.597656 568.800781 873.601562 C 579.066406 861.707031 588.667969 849.707031 597.601562 837.601562 Z M 597.601562 837.601562 "/>
<path style=" stroke:none;fill-rule:evenodd;fill:rgb(25.882353%,25.882353%,25.882353%);fill-opacity:1;" d="M 597.601562 837.601562 C 599.199219 837.601562 600.800781 837.601562 602.398438 837.601562 C 603.152344 844.191406 602.351562 850.59375 600 856.800781 C 593.375 870.453125 586.175781 883.246094 578.398438 895.199219 C 553.421875 903.621094 527.824219 906.019531 501.601562 902.398438 C 479.035156 890.25 464.632812 871.851562 458.398438 847.199219 C 465.476562 851.691406 470.277344 858.097656 472.800781 866.398438 C 476 869.601562 479.199219 872.796875 482.398438 876 C 485.078125 882.191406 489.878906 886.191406 496.800781 888 C 514.402344 891.203125 532 891.203125 549.601562 888 C 576.457031 881.152344 592.453125 864.351562 597.601562 837.601562 Z M 597.601562 837.601562 "/>
<path style=" stroke:none;fill-rule:evenodd;fill:rgb(57.647059%,57.647059%,57.647059%);fill-opacity:1;" d="M 1053.601562 909.601562 C 1046.242188 917.976562 1036.640625 922.777344 1024.800781 924 C 1032.160156 915.625 1041.757812 910.824219 1053.601562 909.601562 Z M 1053.601562 909.601562 "/>
<path style=" stroke:none;fill-rule:evenodd;fill:rgb(61.176471%,61.176471%,61.176471%);fill-opacity:1;" d="M 871.199219 914.398438 C 885.105469 917.417969 897.90625 922.21875 909.601562 928.800781 C 894.164062 929.542969 881.363281 924.742188 871.199219 914.398438 Z M 871.199219 914.398438 "/>
<path style=" stroke:none;fill-rule:evenodd;fill:rgb(63.921569%,63.921569%,63.921569%);fill-opacity:1;" d="M 885.601562 1020 C 922.339844 1022.734375 959.140625 1024.339844 996 1024.800781 C 958.929688 1031.386719 922.132812 1029.789062 885.601562 1020 Z M 885.601562 1020 "/>
</g>
</svg>
