<?xml version="1.0" encoding="UTF-8"?>
<svg xmlns="http://www.w3.org/2000/svg" xmlns:xlink="http://www.w3.org/1999/xlink" width="1920pt" height="1440pt" viewBox="0 0 1920 1440" version="1.1">
<g id="surface1">
<path style=" stroke:none;fill-rule:evenodd;fill:rgb(0%,0%,0%);fill-opacity:1;" d="M -2.398438 -2.398438 C 637.597656 -2.398438 1277.601562 -2.398438 1917.601562 -2.398438 C 1917.601562 477.601562 1917.601562 957.601562 1917.601562 1437.601562 C 1277.601562 1437.601562 637.597656 1437.601562 -2.398438 1437.601562 C -2.398438 957.601562 -2.398438 477.601562 -2.398438 -2.398438 Z M -2.398438 -2.398438 "/>
<path style=" stroke:none;fill-rule:evenodd;fill:rgb(26.666667%,26.666667%,26.666667%);fill-opacity:1;" d="M 727.199219 367.199219 C 719.289062 357.9375 711.289062 348.339844 703.199219 338.398438 C 694.449219 332.414062 684.847656 329.214844 674.398438 328.800781 C 657.78125 324.089844 640.179688 322.488281 621.601562 324 C 631.84375 316.640625 643.84375 313.441406 657.601562 314.398438 C 669 314.851562 680.203125 316.453125 691.199219 319.199219 C 700.152344 328.898438 710.554688 336.898438 722.398438 343.199219 C 726.28125 350.742188 727.886719 358.742188 727.199219 367.199219 Z M 727.199219 367.199219 "/>
<path style=" stroke:none;fill-rule:evenodd;fill:rgb(98.823529%,98.823529%,98.823529%);fill-opacity:1;" d="M 703.199219 448.800781 C 701.601562 453.601562 698.398438 456.800781 693.601562 458.398438 C 617.804688 472.230469 582.601562 440.230469 588 362.398438 C 592.800781 354.398438 599.199219 348 607.199219 343.199219 C 683.75 336.582031 715.746094 371.78125 703.199219 448.800781 Z M 703.199219 448.800781 "/>
<path style=" stroke:none;fill-rule:evenodd;fill:rgb(45.882353%,45.882353%,45.490196%);fill-opacity:1;" d="M 674.398438 328.800781 C 684.847656 329.214844 694.449219 332.414062 703.199219 338.398438 C 711.289062 348.339844 719.289062 357.9375 727.199219 367.199219 C 732.6875 383.882812 733.488281 401.484375 729.601562 420 C 724.566406 430.164062 717.363281 438.164062 708 444 C 725.6875 396.042969 714.484375 357.640625 674.398438 328.800781 Z M 674.398438 328.800781 "/>
<path style=" stroke:none;fill-rule:evenodd;fill:rgb(72.54902%,72.54902%,72.54902%);fill-opacity:1;" d="M 674.398438 328.800781 C 714.484375 357.640625 725.6875 396.042969 708 444 C 708 447.199219 706.402344 448.800781 703.199219 448.800781 C 715.746094 371.78125 683.75 336.582031 607.199219 343.199219 C 611.265625 336.160156 617.664062 332.160156 626.398438 331.199219 C 642.320312 328.808594 658.320312 328.007812 674.398438 328.800781 Z M 674.398438 328.800781 "/>
<path style=" stroke:none;fill-rule:evenodd;fill:rgb(42.745098%,42.745098%,42.745098%);fill-opacity:1;" d="M 621.601562 324 C 640.179688 322.488281 657.78125 324.089844 674.398438 328.800781 C 658.320312 328.007812 642.320312 328.808594 626.398438 331.199219 C 617.664062 332.160156 611.265625 336.160156 607.199219 343.199219 C 599.199219 348 592.800781 354.398438 588 362.398438 C 580.300781 366.175781 577.097656 372.578125 578.398438 381.601562 C 573.3125 400.1875 574.113281 419.386719 580.800781 439.199219 C 609.035156 477.121094 645.035156 486.71875 688.800781 468 C 684.476562 478.691406 676.476562 483.488281 664.800781 482.398438 C 593.742188 497.753906 558.539062 468.957031 559.199219 396 C 571.441406 364.5625 592.238281 340.5625 621.601562 324 Z M 621.601562 324 "/>
<path style=" stroke:none;fill-rule:evenodd;fill:rgb(63.137255%,63.137255%,63.137255%);fill-opacity:1;" d="M 1005.601562 400.800781 C 958.652344 398.640625 912.25 401.839844 866.398438 410.398438 C 874.929688 405.117188 884.53125 401.117188 895.199219 398.398438 C 932.855469 394.453125 969.652344 395.253906 1005.601562 400.800781 Z M 1005.601562 400.800781 "/>
<path style=" stroke:none;fill-rule:evenodd;fill:rgb(97.647059%,97.647059%,97.647059%);fill-opacity:1;" d="M 1005.601562 400.800781 C 1010.398438 400.800781 1015.199219 400.800781 1020 400.800781 C 1020.53125 403.761719 1022.132812 406.164062 1024.800781 408 C 1042.296875 412.777344 1059.898438 416.777344 1077.601562 420 C 1171.9375 459.9375 1234.339844 528.734375 1264.800781 626.398438 C 1273.363281 672.25 1276.558594 718.652344 1274.398438 765.601562 C 1273.484375 783.65625 1270.28125 801.257812 1264.800781 818.398438 C 1257.101562 822.175781 1253.898438 828.574219 1255.199219 837.601562 C 1207.246094 944.847656 1125.648438 1011.246094 1010.398438 1036.800781 C 972.742188 1040.746094 935.945312 1039.949219 900 1034.398438 C 890.328125 1027.566406 879.128906 1024.367188 866.398438 1024.800781 C 822.804688 1012.988281 784.40625 992.1875 751.199219 962.398438 C 748.929688 955.652344 744.128906 952.449219 736.800781 952.800781 C 703.949219 919.054688 678.34375 880.65625 660 837.601562 C 661.300781 828.574219 658.097656 822.175781 650.398438 818.398438 C 646.449219 804.1875 643.246094 789.789062 640.800781 775.199219 C 640.800781 767.199219 640.800781 759.203125 640.800781 751.199219 C 639.046875 709.113281 642.246094 667.511719 650.398438 626.398438 C 678.539062 531.652344 737.734375 464.453125 828 424.800781 C 841.90625 421.78125 854.707031 416.980469 866.398438 410.398438 C 912.25 401.839844 958.652344 398.640625 1005.601562 400.800781 Z M 1005.601562 400.800781 "/>
<path style=" stroke:none;fill-rule:evenodd;fill:rgb(67.45098%,67.45098%,67.45098%);fill-opacity:1;" d="M 1020 400.800781 C 1040.664062 404.328125 1059.863281 410.726562 1077.601562 420 C 1059.898438 416.777344 1042.296875 412.777344 1024.800781 408 C 1022.132812 406.164062 1020.53125 403.761719 1020 400.800781 Z M 1020 400.800781 "/>
<path style=" stroke:none;fill-rule:evenodd;fill:rgb(16.862745%,16.862745%,16.862745%);fill-opacity:1;" d="M 559.199219 396 C 558.539062 468.957031 593.742188 497.753906 664.800781 482.398438 C 587.75 504.542969 552.550781 475.742188 559.199219 396 Z M 559.199219 396 "/>
<path style=" stroke:none;fill-rule:evenodd;fill:rgb(61.960784%,61.960784%,61.960784%);fill-opacity:1;" d="M 866.398438 410.398438 C 854.707031 416.980469 841.90625 421.78125 828 424.800781 C 838.160156 414.457031 850.964844 409.660156 866.398438 410.398438 Z M 866.398438 410.398438 "/>
<path style=" stroke:none;fill-rule:evenodd;fill:rgb(86.666667%,86.666667%,86.666667%);fill-opacity:1;" d="M 588 362.398438 C 582.601562 440.230469 617.804688 472.230469 693.601562 458.398438 C 693.601562 461.601562 692 463.199219 688.800781 463.199219 C 659.273438 472.914062 632.074219 468.914062 607.199219 451.199219 C 584.320312 433.96875 574.71875 410.769531 578.398438 381.601562 C 577.097656 372.578125 580.300781 366.175781 588 362.398438 Z M 588 362.398438 "/>
<path style=" stroke:none;fill-rule:evenodd;fill:rgb(69.019608%,69.019608%,69.019608%);fill-opacity:1;" d="M 578.398438 381.601562 C 574.71875 410.769531 584.320312 433.96875 607.199219 451.199219 C 632.074219 468.914062 659.273438 472.914062 688.800781 463.199219 C 688.800781 464.800781 688.800781 466.398438 688.800781 468 C 645.035156 486.71875 609.035156 477.121094 580.800781 439.199219 C 574.113281 419.386719 573.3125 400.1875 578.398438 381.601562 Z M 578.398438 381.601562 "/>
<path style=" stroke:none;fill-rule:evenodd;fill:rgb(0.784314%,0.784314%,0.784314%);fill-opacity:1;" d="M 1034.398438 928.800781 C 1022.078125 929.859375 1010.875 933.0625 1000.800781 938.398438 C 873.289062 953.351562 786.886719 900.550781 741.601562 780 C 737.609375 748.171875 736.011719 716.167969 736.800781 684 C 755.902344 581.183594 816.707031 517.980469 919.199219 494.398438 C 1054.875 486.6875 1142.074219 548.289062 1180.800781 679.199219 C 1189.964844 796.925781 1141.167969 880.125 1034.398438 928.800781 Z M 1034.398438 928.800781 "/>
<path style=" stroke:none;fill-rule:evenodd;fill:rgb(59.607843%,59.607843%,59.607843%);fill-opacity:1;" d="M 650.398438 626.398438 C 642.246094 667.511719 639.046875 709.113281 640.800781 751.199219 C 636.0625 728.136719 634.460938 704.136719 636 679.199219 C 636.082031 659.835938 640.882812 642.234375 650.398438 626.398438 Z M 650.398438 626.398438 "/>
<path style=" stroke:none;fill-rule:evenodd;fill:rgb(58.431373%,58.431373%,58.431373%);fill-opacity:1;" d="M 1264.800781 626.398438 C 1270.078125 634.929688 1274.082031 644.53125 1276.800781 655.199219 C 1280.746094 692.855469 1279.949219 729.652344 1274.398438 765.601562 C 1276.558594 718.652344 1273.363281 672.25 1264.800781 626.398438 Z M 1264.800781 626.398438 "/>
<path style=" stroke:none;fill-rule:evenodd;fill:rgb(21.176471%,21.176471%,21.176471%);fill-opacity:1;" d="M 636 679.199219 C 634.460938 704.136719 636.0625 728.136719 640.800781 751.199219 C 640.800781 759.203125 640.800781 767.199219 640.800781 775.199219 C 633.613281 757.328125 630.417969 738.128906 631.199219 717.601562 C 631.214844 703.894531 632.8125 691.09375 636 679.199219 Z M 636 679.199219 "/>
<path style=" stroke:none;fill-rule:evenodd;fill:rgb(51.372549%,51.372549%,51.372549%);fill-opacity:1;" d="M 736.800781 684 C 736.011719 716.167969 737.609375 748.171875 741.601562 780 C 734.167969 763.035156 730.972656 744.636719 732 724.800781 C 732.007812 710.300781 733.613281 696.699219 736.800781 684 Z M 736.800781 684 "/>
<path style=" stroke:none;fill-rule:evenodd;fill:rgb(54.117647%,54.117647%,54.117647%);fill-opacity:1;" d="M 650.398438 818.398438 C 658.097656 822.175781 661.300781 828.574219 660 837.601562 C 654.363281 832.734375 651.167969 826.335938 650.398438 818.398438 Z M 650.398438 818.398438 "/>
<path style=" stroke:none;fill-rule:evenodd;fill:rgb(54.117647%,54.117647%,54.117647%);fill-opacity:1;" d="M 1264.800781 818.398438 C 1264.03125 826.335938 1260.835938 832.734375 1255.199219 837.601562 C 1253.898438 828.574219 1257.101562 822.175781 1264.800781 818.398438 Z M 1264.800781 818.398438 "/>
<path style=" stroke:none;fill-rule:evenodd;fill:rgb(54.901961%,54.901961%,54.901961%);fill-opacity:1;" d="M 1034.398438 928.800781 C 1025.097656 936.78125 1013.894531 939.980469 1000.800781 938.398438 C 1010.875 933.0625 1022.078125 929.859375 1034.398438 928.800781 Z M 1034.398438 928.800781 "/>
<path style=" stroke:none;fill-rule:evenodd;fill:rgb(54.901961%,54.901961%,54.901961%);fill-opacity:1;" d="M 736.800781 952.800781 C 744.128906 952.449219 748.929688 955.652344 751.199219 962.398438 C 743.871094 962.75 739.070312 959.546875 736.800781 952.800781 Z M 736.800781 952.800781 "/>
<path style=" stroke:none;fill-rule:evenodd;fill:rgb(50.980392%,50.980392%,50.980392%);fill-opacity:1;" d="M 1351.199219 1044 C 1351.386719 1056.425781 1346.585938 1066.027344 1336.800781 1072.800781 C 1353.777344 1009.714844 1329.777344 972.910156 1264.800781 962.398438 C 1249.316406 961.671875 1236.511719 966.46875 1226.398438 976.800781 C 1218.398438 981.601562 1212 988 1207.199219 996 C 1201.355469 1021.019531 1202.15625 1046.621094 1209.601562 1072.800781 C 1230.601562 1100.496094 1257 1108.496094 1288.800781 1096.800781 C 1295.199219 1096.800781 1301.601562 1096.800781 1308 1096.800781 C 1301.75 1107.945312 1292.152344 1114.34375 1279.199219 1116 C 1257.632812 1117.109375 1236.835938 1113.90625 1216.800781 1106.398438 C 1187.761719 1075.570312 1181.363281 1040.371094 1197.601562 1000.800781 C 1207.199219 981.601562 1221.601562 967.199219 1240.800781 957.601562 C 1271.230469 949.160156 1300.03125 953.160156 1327.199219 969.601562 C 1348.441406 989.671875 1356.441406 1014.46875 1351.199219 1044 Z M 1351.199219 1044 "/>
<path style=" stroke:none;fill-rule:evenodd;fill:rgb(97.647059%,97.647059%,97.647059%);fill-opacity:1;" d="M 1332 1072.800781 C 1325.601562 1082.398438 1317.601562 1090.402344 1308 1096.800781 C 1301.601562 1096.800781 1295.199219 1096.800781 1288.800781 1096.800781 C 1224.226562 1093.992188 1197.023438 1060.390625 1207.199219 996 C 1212 988 1218.398438 981.601562 1226.398438 976.800781 C 1305.128906 960.234375 1340.328125 992.238281 1332 1072.800781 Z M 1332 1072.800781 "/>
<path style=" stroke:none;fill-rule:evenodd;fill:rgb(75.294118%,75.294118%,75.294118%);fill-opacity:1;" d="M 1336.800781 1072.800781 C 1335.203125 1072.800781 1333.597656 1072.800781 1332 1072.800781 C 1340.328125 992.238281 1305.128906 960.234375 1226.398438 976.800781 C 1236.511719 966.46875 1249.316406 961.671875 1264.800781 962.398438 C 1329.777344 972.910156 1353.777344 1009.714844 1336.800781 1072.800781 Z M 1336.800781 1072.800781 "/>
<path style=" stroke:none;fill-rule:evenodd;fill:rgb(25.882353%,25.882353%,25.882353%);fill-opacity:1;" d="M 1351.199219 1044 C 1356.441406 1014.46875 1348.441406 989.671875 1327.199219 969.601562 C 1300.03125 953.160156 1271.230469 949.160156 1240.800781 957.601562 C 1243.476562 951.40625 1248.277344 947.410156 1255.199219 945.601562 C 1326.355469 933.476562 1360.757812 963.078125 1358.398438 1034.398438 C 1357.066406 1038.796875 1354.664062 1041.992188 1351.199219 1044 Z M 1351.199219 1044 "/>
<path style=" stroke:none;fill-rule:evenodd;fill:rgb(62.352941%,62.352941%,61.960784%);fill-opacity:1;" d="M 866.398438 1024.800781 C 879.128906 1024.367188 890.328125 1027.566406 900 1034.398438 C 887.269531 1034.832031 876.070312 1031.636719 866.398438 1024.800781 Z M 866.398438 1024.800781 "/>
<path style=" stroke:none;fill-rule:evenodd;fill:rgb(73.333333%,73.333333%,73.333333%);fill-opacity:1;" d="M 1207.199219 996 C 1197.023438 1060.390625 1224.226562 1093.992188 1288.800781 1096.800781 C 1257 1108.496094 1230.601562 1100.496094 1209.601562 1072.800781 C 1202.15625 1046.621094 1201.355469 1021.019531 1207.199219 996 Z M 1207.199219 996 "/>
<path style=" stroke:none;fill-rule:evenodd;fill:rgb(27.058824%,27.058824%,27.058824%);fill-opacity:1;" d="M 1197.601562 1000.800781 C 1181.363281 1040.371094 1187.761719 1075.570312 1216.800781 1106.398438 C 1202.101562 1099.558594 1191.699219 1088.363281 1185.601562 1072.800781 C 1182.398438 1052 1182.398438 1031.199219 1185.601562 1010.398438 C 1189 1006.171875 1193 1002.972656 1197.601562 1000.800781 Z M 1197.601562 1000.800781 "/>
<path style=" stroke:none;fill-rule:evenodd;fill:rgb(20.784314%,20.784314%,20.784314%);fill-opacity:1;" d="M 1216.800781 1106.398438 C 1236.835938 1113.90625 1257.632812 1117.109375 1279.199219 1116 C 1262.515625 1121.488281 1244.917969 1122.289062 1226.398438 1118.398438 C 1222.171875 1115 1218.972656 1111 1216.800781 1106.398438 Z M 1216.800781 1106.398438 "/>
</g>
</svg>
