<?xml version="1.0" encoding="UTF-8"?>
<svg xmlns="http://www.w3.org/2000/svg" xmlns:xlink="http://www.w3.org/1999/xlink" width="1920pt" height="1440pt" viewBox="0 0 1920 1440" version="1.1">
<g id="surface1">
<path style=" stroke:none;fill-rule:evenodd;fill:rgb(0%,0%,0%);fill-opacity:1;" d="M -2.398438 -2.398438 C 637.597656 -2.398438 1277.601562 -2.398438 1917.601562 -2.398438 C 1917.601562 477.601562 1917.601562 957.601562 1917.601562 1437.601562 C 1277.601562 1437.601562 637.597656 1437.601562 -2.398438 1437.601562 C -2.398438 957.601562 -2.398438 477.601562 -2.398438 -2.398438 Z M -2.398438 -2.398438 "/>
<path style=" stroke:none;fill-rule:evenodd;fill:rgb(32.941176%,32.941176%,32.941176%);fill-opacity:1;" d="M 1346.398438 381.601562 C 1341.601562 381.601562 1336.800781 381.601562 1332 381.601562 C 1313.769531 376.878906 1294.570312 375.28125 1274.398438 376.800781 C 1299.226562 363.421875 1323.226562 365.019531 1346.398438 381.601562 Z M 1346.398438 381.601562 "/>
<path style=" stroke:none;fill-rule:evenodd;fill:rgb(98.039216%,98.039216%,98.039216%);fill-opacity:1;" d="M 1077.601562 400.800781 C 1079.871094 407.550781 1084.671875 410.75 1092 410.398438 C 1175.199219 445.601562 1234.402344 504.800781 1269.601562 588 C 1271.207031 613.796875 1277.605469 637.796875 1288.800781 660 C 1308.9375 791.242188 1267.335938 899.242188 1164 984 C 1141.425781 1000.089844 1117.425781 1013.6875 1092 1024.800781 C 1084.671875 1024.449219 1079.871094 1027.652344 1077.601562 1034.398438 C 1061.601562 1037.601562 1045.597656 1040.796875 1029.601562 1044 C 986.476562 1048.472656 943.277344 1049.273438 900 1046.398438 C 876.742188 1037.429688 852.742188 1031.832031 828 1029.601562 C 744.800781 994.402344 685.597656 935.199219 650.398438 852 C 650.75 844.671875 647.546875 839.871094 640.800781 837.601562 C 636.605469 821.8125 633.402344 805.808594 631.199219 789.601562 C 626.726562 746.476562 625.925781 703.277344 628.800781 660 C 637.761719 636.796875 643.363281 612.796875 645.601562 588 C 680.945312 504.652344 740.152344 445.453125 823.199219 410.398438 C 837.105469 407.378906 849.90625 402.582031 861.601562 396 C 874.328125 396.433594 885.527344 393.234375 895.199219 386.398438 C 957.636719 376.398438 1018.441406 381.199219 1077.601562 400.800781 Z M 1077.601562 400.800781 "/>
<path style=" stroke:none;fill-rule:evenodd;fill:rgb(65.098039%,65.098039%,65.098039%);fill-opacity:1;" d="M 895.199219 386.398438 C 885.527344 393.234375 874.328125 396.433594 861.601562 396 C 871.273438 389.164062 882.46875 385.964844 895.199219 386.398438 Z M 895.199219 386.398438 "/>
<path style=" stroke:none;fill-rule:evenodd;fill:rgb(29.019608%,29.019608%,29.019608%);fill-opacity:1;" d="M 1274.398438 376.800781 C 1262.835938 388.332031 1253.238281 401.132812 1245.601562 415.199219 C 1245.601562 416.800781 1245.601562 418.398438 1245.601562 420 C 1242.132812 422.003906 1239.734375 425.203125 1238.398438 429.601562 C 1236.015625 442.300781 1235.210938 455.101562 1236 468 C 1223.53125 427.300781 1236.332031 396.902344 1274.398438 376.800781 Z M 1274.398438 376.800781 "/>
<path style=" stroke:none;fill-rule:evenodd;fill:rgb(54.509804%,54.509804%,54.509804%);fill-opacity:1;" d="M 1274.398438 376.800781 C 1294.570312 375.28125 1313.769531 376.878906 1332 381.601562 C 1298.789062 382.121094 1269.988281 393.324219 1245.601562 415.199219 C 1253.238281 401.132812 1262.835938 388.332031 1274.398438 376.800781 Z M 1274.398438 376.800781 "/>
<path style=" stroke:none;fill-rule:evenodd;fill:rgb(97.254902%,97.254902%,97.254902%);fill-opacity:1;" d="M 1332 381.601562 C 1336.800781 381.601562 1341.601562 381.601562 1346.398438 381.601562 C 1353.539062 387.855469 1361.539062 393.457031 1370.398438 398.398438 C 1374.007812 401.621094 1375.613281 405.621094 1375.199219 410.398438 C 1392.121094 467.179688 1372.921875 503.980469 1317.601562 520.800781 C 1297.230469 519.039062 1278.027344 514.238281 1260 506.398438 C 1251.542969 502.742188 1246.742188 496.339844 1245.601562 487.199219 C 1239.96875 464.914062 1239.96875 442.515625 1245.601562 420 C 1245.601562 418.398438 1245.601562 416.800781 1245.601562 415.199219 C 1269.988281 393.324219 1298.789062 382.121094 1332 381.601562 Z M 1332 381.601562 "/>
<path style=" stroke:none;fill-rule:evenodd;fill:rgb(61.960784%,61.960784%,61.960784%);fill-opacity:1;" d="M 861.601562 396 C 849.90625 402.582031 837.105469 407.378906 823.199219 410.398438 C 833.363281 400.058594 846.164062 395.257812 861.601562 396 Z M 861.601562 396 "/>
<path style=" stroke:none;fill-rule:evenodd;fill:rgb(50.588235%,50.588235%,50.588235%);fill-opacity:1;" d="M 1077.601562 400.800781 C 1084.929688 400.449219 1089.730469 403.648438 1092 410.398438 C 1084.671875 410.75 1079.871094 407.550781 1077.601562 400.800781 Z M 1077.601562 400.800781 "/>
<path style=" stroke:none;fill-rule:evenodd;fill:rgb(73.72549%,73.72549%,73.72549%);fill-opacity:1;" d="M 1375.199219 410.398438 C 1382.273438 414.894531 1387.074219 421.292969 1389.601562 429.601562 C 1390.390625 447.273438 1389.59375 464.871094 1387.199219 482.398438 C 1375.328125 494.269531 1363.328125 506.269531 1351.199219 518.398438 C 1325.914062 527.167969 1300.316406 527.972656 1274.398438 520.800781 C 1268 517.597656 1263.203125 512.796875 1260 506.398438 C 1278.027344 514.238281 1297.230469 519.039062 1317.601562 520.800781 C 1372.921875 503.980469 1392.121094 467.179688 1375.199219 410.398438 Z M 1375.199219 410.398438 "/>
<path style=" stroke:none;fill-rule:evenodd;fill:rgb(53.72549%,53.72549%,53.72549%);fill-opacity:1;" d="M 1245.601562 420 C 1239.96875 442.515625 1239.96875 464.914062 1245.601562 487.199219 C 1237.902344 483.421875 1234.699219 477.023438 1236 468 C 1235.210938 455.101562 1236.015625 442.300781 1238.398438 429.601562 C 1239.734375 425.203125 1242.132812 422.003906 1245.601562 420 Z M 1245.601562 420 "/>
<path style=" stroke:none;fill-rule:evenodd;fill:rgb(0.784314%,0.784314%,0.784314%);fill-opacity:1;" d="M 1000.800781 496.800781 C 1012.34375 502.886719 1025.144531 506.089844 1039.199219 506.398438 C 1162.722656 567.910156 1205.121094 665.511719 1166.398438 799.199219 C 1106.300781 917.636719 1011.097656 961.636719 880.800781 931.199219 C 813.839844 905.039062 769.042969 857.839844 746.398438 789.601562 C 744.601562 779.050781 741.398438 769.449219 736.800781 760.800781 C 723.65625 602.746094 795.65625 513.144531 952.800781 492 C 968.960938 492.695312 984.964844 494.292969 1000.800781 496.800781 Z M 1000.800781 496.800781 "/>
<path style=" stroke:none;fill-rule:evenodd;fill:rgb(54.901961%,54.901961%,54.901961%);fill-opacity:1;" d="M 1000.800781 496.800781 C 1015.175781 495.8125 1027.976562 499.007812 1039.199219 506.398438 C 1025.144531 506.089844 1012.34375 502.886719 1000.800781 496.800781 Z M 1000.800781 496.800781 "/>
<path style=" stroke:none;fill-rule:evenodd;fill:rgb(36.470588%,36.470588%,36.470588%);fill-opacity:1;" d="M 1389.601562 429.601562 C 1402.953125 508.261719 1369.355469 542.660156 1288.800781 532.800781 C 1281.878906 530.992188 1277.078125 526.992188 1274.398438 520.800781 C 1300.316406 527.972656 1325.914062 527.167969 1351.199219 518.398438 C 1363.328125 506.269531 1375.328125 494.269531 1387.199219 482.398438 C 1389.59375 464.871094 1390.390625 447.273438 1389.601562 429.601562 Z M 1389.601562 429.601562 "/>
<path style=" stroke:none;fill-rule:evenodd;fill:rgb(72.156863%,72.156863%,72.156863%);fill-opacity:1;" d="M 1269.601562 588 C 1278.375 610.953125 1284.777344 634.953125 1288.800781 660 C 1277.605469 637.796875 1271.207031 613.796875 1269.601562 588 Z M 1269.601562 588 "/>
<path style=" stroke:none;fill-rule:evenodd;fill:rgb(73.333333%,73.333333%,73.333333%);fill-opacity:1;" d="M 645.601562 588 C 643.363281 612.796875 637.761719 636.796875 628.800781 660 C 625.925781 703.277344 626.726562 746.476562 631.199219 789.601562 C 627.40625 784.277344 625.007812 777.878906 624 770.398438 C 620.796875 730.402344 620.796875 690.398438 624 650.398438 C 630.550781 628.789062 637.753906 607.988281 645.601562 588 Z M 645.601562 588 "/>
<path style=" stroke:none;fill-rule:evenodd;fill:rgb(50.588235%,50.588235%,50.588235%);fill-opacity:1;" d="M 736.800781 760.800781 C 741.398438 769.449219 744.601562 779.050781 746.398438 789.601562 C 737.855469 782.449219 734.660156 772.847656 736.800781 760.800781 Z M 736.800781 760.800781 "/>
<path style=" stroke:none;fill-rule:evenodd;fill:rgb(50.588235%,50.588235%,50.588235%);fill-opacity:1;" d="M 640.800781 837.601562 C 647.546875 839.871094 650.75 844.671875 650.398438 852 C 643.652344 849.730469 640.449219 844.929688 640.800781 837.601562 Z M 640.800781 837.601562 "/>
<path style=" stroke:none;fill-rule:evenodd;fill:rgb(74.901961%,74.901961%,74.901961%);fill-opacity:1;" d="M 631.199219 909.601562 C 636 911.199219 639.203125 914.398438 640.800781 919.199219 C 597.898438 904.96875 563.496094 916.171875 537.601562 952.800781 C 534.777344 976.933594 535.574219 1000.933594 540 1024.800781 C 536.796875 1024.800781 535.199219 1023.203125 535.199219 1020 C 518.816406 941.945312 550.820312 905.144531 631.199219 909.601562 Z M 631.199219 909.601562 "/>
<path style=" stroke:none;fill-rule:evenodd;fill:rgb(41.176471%,41.176471%,41.176471%);fill-opacity:1;" d="M 631.199219 909.601562 C 550.820312 905.144531 518.816406 941.945312 535.199219 1020 C 504.375 963.550781 518.773438 922.753906 578.398438 897.601562 C 589.597656 894.398438 600.800781 894.398438 612 897.601562 C 620.734375 898.558594 627.132812 902.5625 631.199219 909.601562 Z M 631.199219 909.601562 "/>
<path style=" stroke:none;fill-rule:evenodd;fill:rgb(97.647059%,97.647059%,97.647059%);fill-opacity:1;" d="M 640.800781 919.199219 C 656.796875 925.597656 668 936.800781 674.398438 952.800781 C 676.382812 979.378906 672.382812 1004.976562 662.398438 1029.601562 C 659 1033.828125 655 1037.027344 650.398438 1039.199219 C 634.441406 1042.179688 619.238281 1046.980469 604.800781 1053.601562 C 585.269531 1051.578125 566.871094 1046.777344 549.601562 1039.199219 C 546.398438 1034.398438 543.203125 1029.601562 540 1024.800781 C 535.574219 1000.933594 534.777344 976.933594 537.601562 952.800781 C 563.496094 916.171875 597.898438 904.96875 640.800781 919.199219 Z M 640.800781 919.199219 "/>
<path style=" stroke:none;fill-rule:evenodd;fill:rgb(40%,40%,40%);fill-opacity:1;" d="M 674.398438 952.800781 C 692.832031 999.078125 680.03125 1035.078125 636 1060.800781 C 615.894531 1064.699219 596.691406 1063.894531 578.398438 1058.398438 C 594.480469 1059.191406 610.476562 1058.390625 626.398438 1056 C 637.828125 1054.929688 645.824219 1049.328125 650.398438 1039.199219 C 655 1037.027344 659 1033.828125 662.398438 1029.601562 C 672.382812 1004.976562 676.382812 979.378906 674.398438 952.800781 Z M 674.398438 952.800781 "/>
<path style=" stroke:none;fill-rule:evenodd;fill:rgb(40%,40%,40%);fill-opacity:1;" d="M 1092 1024.800781 C 1089.730469 1031.546875 1084.929688 1034.75 1077.601562 1034.398438 C 1079.871094 1027.652344 1084.671875 1024.449219 1092 1024.800781 Z M 1092 1024.800781 "/>
<path style=" stroke:none;fill-rule:evenodd;fill:rgb(73.72549%,73.72549%,73.72549%);fill-opacity:1;" d="M 828 1029.601562 C 852.742188 1031.832031 876.742188 1037.429688 900 1046.398438 C 943.277344 1049.273438 986.476562 1048.472656 1029.601562 1044 C 1024.277344 1047.792969 1017.878906 1050.191406 1010.398438 1051.199219 C 970.402344 1054.402344 930.398438 1054.402344 890.398438 1051.199219 C 869.152344 1043.664062 848.351562 1036.464844 828 1029.601562 Z M 828 1029.601562 "/>
<path style=" stroke:none;fill-rule:evenodd;fill:rgb(61.176471%,61.176471%,61.176471%);fill-opacity:1;" d="M 549.601562 1039.199219 C 566.871094 1046.777344 585.269531 1051.578125 604.800781 1053.601562 C 619.238281 1046.980469 634.441406 1042.179688 650.398438 1039.199219 C 645.824219 1049.328125 637.828125 1054.929688 626.398438 1056 C 610.476562 1058.390625 594.480469 1059.191406 578.398438 1058.398438 C 565.449219 1056.742188 555.847656 1050.34375 549.601562 1039.199219 Z M 549.601562 1039.199219 "/>
</g>
</svg>
