<?xml version="1.0" encoding="UTF-8"?>
<svg xmlns="http://www.w3.org/2000/svg" xmlns:xlink="http://www.w3.org/1999/xlink" width="1920pt" height="1440pt" viewBox="0 0 1920 1440" version="1.1">
<g id="surface1">
<path style=" stroke:none;fill-rule:evenodd;fill:rgb(0%,0%,0%);fill-opacity:1;" d="M -2.398438 -2.398438 C 637.597656 -2.398438 1277.601562 -2.398438 1917.601562 -2.398438 C 1917.601562 477.601562 1917.601562 957.601562 1917.601562 1437.601562 C 1277.601562 1437.601562 637.597656 1437.601562 -2.398438 1437.601562 C -2.398438 957.601562 -2.398438 477.601562 -2.398438 -2.398438 Z M -2.398438 -2.398438 "/>
<path style=" stroke:none;fill-rule:evenodd;fill:rgb(46.666667%,46.666667%,46.666667%);fill-opacity:1;" d="M 1087.199219 213.601562 C 1019.441406 213.367188 989.839844 246.964844 998.398438 314.398438 C 1008.382812 326.714844 1017.183594 339.511719 1024.800781 352.800781 C 1015.410156 345.054688 1005.8125 337.054688 996 328.800781 C 987.460938 307.128906 985.0625 284.726562 988.800781 261.601562 C 999.949219 243.269531 1013.546875 227.269531 1029.601562 213.601562 C 1048.800781 207.199219 1068 207.199219 1087.199219 213.601562 Z M 1087.199219 213.601562 "/>
<path style=" stroke:none;fill-rule:evenodd;fill:rgb(75.686275%,75.686275%,75.686275%);fill-opacity:1;" d="M 1087.199219 213.601562 C 1105.378906 217.410156 1121.375 225.410156 1135.199219 237.601562 C 1133.910156 246.855469 1136.308594 254.859375 1142.398438 261.601562 C 1145.601562 279.199219 1145.601562 296.800781 1142.398438 314.398438 C 1131.496094 330.949219 1119.496094 346.949219 1106.398438 362.398438 C 1085.722656 366.566406 1064.921875 367.363281 1044 364.800781 C 1036.484375 361.878906 1030.078125 357.878906 1024.800781 352.800781 C 1017.183594 339.511719 1008.382812 326.714844 998.398438 314.398438 C 989.839844 246.964844 1019.441406 213.367188 1087.199219 213.601562 Z M 1087.199219 213.601562 "/>
<path style=" stroke:none;fill-rule:evenodd;fill:rgb(99.607843%,99.607843%,99.607843%);fill-opacity:1;" d="M 1072.800781 218.398438 C 1079.390625 217.648438 1085.792969 218.449219 1092 220.800781 C 1104.488281 231.03125 1117.285156 239.832031 1130.398438 247.199219 C 1139.667969 290.679688 1126.867188 325.082031 1092 350.398438 C 1076.3125 356.222656 1060.316406 357.820312 1044 355.199219 C 1000.171875 314.699219 1000.171875 273.097656 1044 230.398438 C 1054.671875 227.683594 1064.269531 223.683594 1072.800781 218.398438 Z M 1072.800781 218.398438 "/>
<path style=" stroke:none;fill-rule:evenodd;fill:rgb(25.098039%,25.098039%,25.098039%);fill-opacity:1;" d="M 1029.601562 213.601562 C 1013.546875 227.269531 999.949219 243.269531 988.800781 261.601562 C 985.0625 284.726562 987.460938 307.128906 996 328.800781 C 988.964844 324.734375 984.960938 318.335938 984 309.601562 C 970.441406 263.339844 985.640625 231.339844 1029.601562 213.601562 Z M 1029.601562 213.601562 "/>
<path style=" stroke:none;fill-rule:evenodd;fill:rgb(35.294118%,35.294118%,35.294118%);fill-opacity:1;" d="M 1135.199219 237.601562 C 1157.683594 258.148438 1164.882812 283.75 1156.800781 314.398438 C 1149.949219 341.257812 1133.152344 357.253906 1106.398438 362.398438 C 1119.496094 346.949219 1131.496094 330.949219 1142.398438 314.398438 C 1145.601562 296.800781 1145.601562 279.199219 1142.398438 261.601562 C 1136.308594 254.859375 1133.910156 246.855469 1135.199219 237.601562 Z M 1135.199219 237.601562 "/>
<path style=" stroke:none;fill-rule:evenodd;fill:rgb(98.039216%,98.039216%,98.039216%);fill-opacity:1;" d="M 996 386.398438 C 1015.507812 394.265625 1036.304688 399.0625 1058.398438 400.800781 C 1081.828125 408.292969 1104.230469 417.894531 1125.601562 429.601562 C 1127.871094 436.351562 1132.671875 439.550781 1140 439.199219 C 1200.980469 479.390625 1244.179688 533.789062 1269.601562 602.398438 C 1268.441406 613.910156 1271.644531 623.511719 1279.199219 631.199219 C 1287.351562 672.28125 1290.550781 713.886719 1288.800781 756 C 1280.9375 775.507812 1276.136719 796.304688 1274.398438 818.398438 C 1266.90625 841.828125 1257.308594 864.230469 1245.601562 885.601562 C 1238.851562 887.871094 1235.648438 892.671875 1236 900 C 1144.925781 1022.125 1023.328125 1068.527344 871.199219 1039.199219 C 863.511719 1031.644531 853.910156 1028.441406 842.398438 1029.601562 C 773.789062 1004.179688 719.390625 960.980469 679.199219 900 C 679.550781 892.671875 676.347656 887.871094 669.601562 885.601562 C 627.742188 805.539062 616.546875 720.738281 636 631.199219 C 643.554688 623.511719 646.757812 613.910156 645.601562 602.398438 C 680.796875 506.398438 746.398438 440.800781 842.398438 405.601562 C 853.910156 406.753906 863.511719 403.554688 871.199219 396 C 912.28125 387.847656 953.886719 384.648438 996 386.398438 Z M 996 386.398438 "/>
<path style=" stroke:none;fill-rule:evenodd;fill:rgb(53.333333%,53.333333%,53.333333%);fill-opacity:1;" d="M 996 386.398438 C 1013.582031 388.570312 1031.183594 390.96875 1048.800781 393.601562 C 1053.195312 394.9375 1056.394531 397.335938 1058.398438 400.800781 C 1036.304688 399.0625 1015.507812 394.265625 996 386.398438 Z M 996 386.398438 "/>
<path style=" stroke:none;fill-rule:evenodd;fill:rgb(62.352941%,62.352941%,62.352941%);fill-opacity:1;" d="M 871.199219 396 C 863.511719 403.554688 853.910156 406.753906 842.398438 405.601562 C 850.089844 398.046875 859.691406 394.84375 871.199219 396 Z M 871.199219 396 "/>
<path style=" stroke:none;fill-rule:evenodd;fill:rgb(41.568627%,41.568627%,41.568627%);fill-opacity:1;" d="M 1125.601562 429.601562 C 1132.929688 429.25 1137.730469 432.449219 1140 439.199219 C 1132.671875 439.550781 1127.871094 436.351562 1125.601562 429.601562 Z M 1125.601562 429.601562 "/>
<path style=" stroke:none;fill-rule:evenodd;fill:rgb(0.784314%,0.784314%,0.784314%);fill-opacity:1;" d="M 1000.800781 492 C 1014.4375 497.609375 1028.835938 502.410156 1044 506.398438 C 1151.730469 557.027344 1198.132812 641.828125 1183.199219 760.800781 C 1177.589844 774.4375 1172.789062 788.835938 1168.800781 804 C 1127.113281 896.132812 1055.113281 944.132812 952.800781 948 C 854.796875 941.105469 785.996094 893.105469 746.398438 804 C 742.410156 788.835938 737.609375 774.4375 732 760.800781 C 717.425781 641.929688 763.828125 556.328125 871.199219 504 C 913.230469 487.566406 956.429688 483.5625 1000.800781 492 Z M 1000.800781 492 "/>
<path style=" stroke:none;fill-rule:evenodd;fill:rgb(63.137255%,63.137255%,63.137255%);fill-opacity:1;" d="M 1000.800781 492 C 1017.988281 490.261719 1032.390625 495.0625 1044 506.398438 C 1028.835938 502.410156 1014.4375 497.609375 1000.800781 492 Z M 1000.800781 492 "/>
<path style=" stroke:none;fill-rule:evenodd;fill:rgb(56.470588%,56.470588%,56.470588%);fill-opacity:1;" d="M 645.601562 602.398438 C 646.757812 613.910156 643.554688 623.511719 636 631.199219 C 634.84375 619.691406 638.042969 610.089844 645.601562 602.398438 Z M 645.601562 602.398438 "/>
<path style=" stroke:none;fill-rule:evenodd;fill:rgb(56.470588%,56.470588%,56.470588%);fill-opacity:1;" d="M 1269.601562 602.398438 C 1277.15625 610.089844 1280.355469 619.691406 1279.199219 631.199219 C 1271.644531 623.511719 1268.441406 613.910156 1269.601562 602.398438 Z M 1269.601562 602.398438 "/>
<path style=" stroke:none;fill-rule:evenodd;fill:rgb(63.137255%,63.137255%,63.137255%);fill-opacity:1;" d="M 732 760.800781 C 737.609375 774.4375 742.410156 788.835938 746.398438 804 C 735.0625 792.390625 730.261719 777.988281 732 760.800781 Z M 732 760.800781 "/>
<path style=" stroke:none;fill-rule:evenodd;fill:rgb(63.137255%,63.137255%,63.137255%);fill-opacity:1;" d="M 1183.199219 760.800781 C 1184.9375 777.988281 1180.136719 792.390625 1168.800781 804 C 1172.789062 788.835938 1177.589844 774.4375 1183.199219 760.800781 Z M 1183.199219 760.800781 "/>
<path style=" stroke:none;fill-rule:evenodd;fill:rgb(53.333333%,53.333333%,53.333333%);fill-opacity:1;" d="M 1288.800781 756 C 1286.628906 773.582031 1284.230469 791.183594 1281.601562 808.800781 C 1280.265625 813.195312 1277.867188 816.394531 1274.398438 818.398438 C 1276.136719 796.304688 1280.9375 775.507812 1288.800781 756 Z M 1288.800781 756 "/>
<path style=" stroke:none;fill-rule:evenodd;fill:rgb(41.568627%,41.568627%,41.568627%);fill-opacity:1;" d="M 669.601562 885.601562 C 676.347656 887.871094 679.550781 892.671875 679.199219 900 C 672.453125 897.730469 669.25 892.929688 669.601562 885.601562 Z M 669.601562 885.601562 "/>
<path style=" stroke:none;fill-rule:evenodd;fill:rgb(41.568627%,41.568627%,41.568627%);fill-opacity:1;" d="M 1245.601562 885.601562 C 1245.949219 892.929688 1242.75 897.730469 1236 900 C 1235.648438 892.671875 1238.851562 887.871094 1245.601562 885.601562 Z M 1245.601562 885.601562 "/>
<path style=" stroke:none;fill-rule:evenodd;fill:rgb(56.470588%,56.470588%,56.470588%);fill-opacity:1;" d="M 842.398438 1029.601562 C 853.910156 1028.441406 863.511719 1031.644531 871.199219 1039.199219 C 859.691406 1040.355469 850.089844 1037.15625 842.398438 1029.601562 Z M 842.398438 1029.601562 "/>
<path style=" stroke:none;fill-rule:evenodd;fill:rgb(98.431373%,98.431373%,98.431373%);fill-opacity:1;" d="M 871.199219 1077.601562 C 879.203125 1080.800781 887.199219 1084 895.199219 1087.199219 C 915.164062 1124.410156 914.367188 1161.210938 892.800781 1197.601562 C 871.371094 1210.339844 848.175781 1216.742188 823.199219 1216.800781 C 820 1216.800781 816.800781 1216.800781 813.601562 1216.800781 C 807.601562 1208.859375 801.195312 1200.859375 794.398438 1192.800781 C 777.359375 1144.125 790.15625 1106.523438 832.800781 1080 C 845.5 1077.613281 858.300781 1076.8125 871.199219 1077.601562 Z M 871.199219 1077.601562 "/>
<path style=" stroke:none;fill-rule:evenodd;fill:rgb(25.098039%,25.098039%,25.098039%);fill-opacity:1;" d="M 804 1072.800781 C 791.480469 1085.074219 779.480469 1097.871094 768 1111.199219 C 764.515625 1135.449219 765.316406 1159.449219 770.398438 1183.199219 C 763.363281 1179.132812 759.359375 1172.734375 758.398438 1164 C 748.640625 1120.199219 763.839844 1089.800781 804 1072.800781 Z M 804 1072.800781 "/>
<path style=" stroke:none;fill-rule:evenodd;fill:rgb(25.490196%,25.490196%,25.490196%);fill-opacity:1;" d="M 919.199219 1106.398438 C 925.390625 1109.078125 929.390625 1113.878906 931.199219 1120.800781 C 934.402344 1141.597656 934.402344 1162.402344 931.199219 1183.199219 C 929.363281 1185.867188 926.960938 1187.46875 924 1188 C 925.152344 1160.511719 923.554688 1133.308594 919.199219 1106.398438 Z M 919.199219 1106.398438 "/>
<path style=" stroke:none;fill-rule:evenodd;fill:rgb(69.803922%,69.803922%,69.803922%);fill-opacity:1;" d="M 895.199219 1087.199219 C 901.597656 1090.402344 906.398438 1095.203125 909.601562 1101.601562 C 923.785156 1134.707031 922.1875 1166.703125 904.800781 1197.601562 C 883.652344 1218.675781 858.054688 1226.679688 828 1221.601562 C 824.796875 1221.601562 823.199219 1220 823.199219 1216.800781 C 848.175781 1216.742188 871.371094 1210.339844 892.800781 1197.601562 C 914.367188 1161.210938 915.164062 1124.410156 895.199219 1087.199219 Z M 895.199219 1087.199219 "/>
<path style=" stroke:none;fill-rule:evenodd;fill:rgb(50.588235%,50.588235%,50.588235%);fill-opacity:1;" d="M 909.601562 1101.601562 C 912.800781 1103.199219 916 1104.800781 919.199219 1106.398438 C 923.554688 1133.308594 925.152344 1160.511719 924 1188 C 916.503906 1189.117188 910.105469 1192.320312 904.800781 1197.601562 C 922.1875 1166.703125 923.785156 1134.707031 909.601562 1101.601562 Z M 909.601562 1101.601562 "/>
<path style=" stroke:none;fill-rule:evenodd;fill:rgb(43.921569%,43.921569%,43.921569%);fill-opacity:1;" d="M 861.601562 1072.800781 C 826.105469 1068.957031 798.90625 1081.757812 780 1111.199219 C 764.59375 1145.730469 769.390625 1177.734375 794.398438 1207.199219 C 781.597656 1204 773.601562 1196 770.398438 1183.199219 C 765.316406 1159.449219 764.515625 1135.449219 768 1111.199219 C 779.480469 1097.871094 791.480469 1085.074219 804 1072.800781 C 823.199219 1066.402344 842.398438 1066.402344 861.601562 1072.800781 Z M 861.601562 1072.800781 "/>
<path style=" stroke:none;fill-rule:evenodd;fill:rgb(85.490196%,85.490196%,85.490196%);fill-opacity:1;" d="M 861.601562 1072.800781 C 866.363281 1071.972656 869.558594 1073.578125 871.199219 1077.601562 C 858.300781 1076.8125 845.5 1077.613281 832.800781 1080 C 790.15625 1106.523438 777.359375 1144.125 794.398438 1192.800781 C 786.574219 1185.476562 782.578125 1175.875 782.398438 1164 C 780.003906 1146.46875 779.207031 1128.875 780 1111.199219 C 798.90625 1081.757812 826.105469 1068.957031 861.601562 1072.800781 Z M 861.601562 1072.800781 "/>
<path style=" stroke:none;fill-rule:evenodd;fill:rgb(62.352941%,62.352941%,62.352941%);fill-opacity:1;" d="M 780 1111.199219 C 779.207031 1128.875 780.003906 1146.46875 782.398438 1164 C 782.578125 1175.875 786.574219 1185.476562 794.398438 1192.800781 C 801.195312 1200.859375 807.601562 1208.859375 813.601562 1216.800781 C 805.664062 1216.03125 799.265625 1212.835938 794.398438 1207.199219 C 769.390625 1177.734375 764.59375 1145.730469 780 1111.199219 Z M 780 1111.199219 "/>
<path style=" stroke:none;fill-rule:evenodd;fill:rgb(32.941176%,32.941176%,32.941176%);fill-opacity:1;" d="M 924 1188 C 900.664062 1223.660156 868.664062 1234.859375 828 1221.601562 C 858.054688 1226.679688 883.652344 1218.675781 904.800781 1197.601562 C 910.105469 1192.320312 916.503906 1189.117188 924 1188 Z M 924 1188 "/>
</g>
</svg>
