<?xml version="1.0" encoding="UTF-8"?>
<svg xmlns="http://www.w3.org/2000/svg" xmlns:xlink="http://www.w3.org/1999/xlink" width="1920pt" height="1440pt" viewBox="0 0 1920 1440" version="1.1">
<g id="surface1">
<path style=" stroke:none;fill-rule:evenodd;fill:rgb(0%,0%,0%);fill-opacity:1;" d="M -2.398438 -2.398438 C 637.597656 -2.398438 1277.601562 -2.398438 1917.601562 -2.398438 C 1917.601562 477.601562 1917.601562 957.601562 1917.601562 1437.601562 C 1277.601562 1437.601562 637.597656 1437.601562 -2.398438 1437.601562 C -2.398438 957.601562 -2.398438 477.601562 -2.398438 -2.398438 Z M -2.398438 -2.398438 "/>
<path style=" stroke:none;fill-rule:evenodd;fill:rgb(98.431373%,98.431373%,98.431373%);fill-opacity:1;" d="M 1197.601562 276 C 1218.25 360.960938 1184.648438 394.5625 1096.800781 376.800781 C 1078.796875 346.4375 1074.796875 314.4375 1084.800781 280.800781 C 1121.640625 238.363281 1159.238281 236.765625 1197.601562 276 Z M 1197.601562 276 "/>
<path style=" stroke:none;fill-rule:evenodd;fill:rgb(27.843137%,27.843137%,27.843137%);fill-opacity:1;" d="M 1154.398438 237.601562 C 1144.800781 237.601562 1135.199219 237.601562 1125.601562 237.601562 C 1082.480469 243.136719 1060.085938 267.9375 1058.398438 312 C 1059.132812 322.636719 1060.734375 333.035156 1063.199219 343.199219 C 1040.457031 295.003906 1053.257812 259.003906 1101.601562 235.199219 C 1120.117188 231.3125 1137.714844 232.113281 1154.398438 237.601562 Z M 1154.398438 237.601562 "/>
<path style=" stroke:none;fill-rule:evenodd;fill:rgb(52.54902%,52.54902%,52.54902%);fill-opacity:1;" d="M 1125.601562 237.601562 C 1075.40625 252.546875 1057.007812 286.144531 1070.398438 338.398438 C 1076.984375 345.167969 1080.984375 353.167969 1082.398438 362.398438 C 1074.398438 357.601562 1068 351.199219 1063.199219 343.199219 C 1060.734375 333.035156 1059.132812 322.636719 1058.398438 312 C 1060.085938 267.9375 1082.480469 243.136719 1125.601562 237.601562 Z M 1125.601562 237.601562 "/>
<path style=" stroke:none;fill-rule:evenodd;fill:rgb(31.372549%,31.372549%,31.372549%);fill-opacity:1;" d="M 1216.800781 290.398438 C 1236.792969 336.871094 1222.390625 368.871094 1173.601562 386.398438 C 1187.703125 374.71875 1201.300781 361.917969 1214.398438 348 C 1216.796875 328.867188 1217.597656 309.667969 1216.800781 290.398438 Z M 1216.800781 290.398438 "/>
<path style=" stroke:none;fill-rule:evenodd;fill:rgb(79.215686%,79.215686%,79.215686%);fill-opacity:1;" d="M 1125.601562 237.601562 C 1135.199219 237.601562 1144.800781 237.601562 1154.398438 237.601562 C 1168.511719 241.457031 1181.3125 247.855469 1192.800781 256.800781 C 1194.398438 263.199219 1196 269.601562 1197.601562 276 C 1159.238281 236.765625 1121.640625 238.363281 1084.800781 280.800781 C 1074.796875 314.4375 1078.796875 346.4375 1096.800781 376.800781 C 1087.199219 376.800781 1082.398438 372 1082.398438 362.398438 C 1080.984375 353.167969 1076.984375 345.167969 1070.398438 338.398438 C 1057.007812 286.144531 1075.40625 252.546875 1125.601562 237.601562 Z M 1125.601562 237.601562 "/>
<path style=" stroke:none;fill-rule:evenodd;fill:rgb(58.039216%,58.039216%,58.039216%);fill-opacity:1;" d="M 1192.800781 256.800781 C 1206.546875 264.113281 1214.546875 275.3125 1216.800781 290.398438 C 1217.597656 309.667969 1216.796875 328.867188 1214.398438 348 C 1201.300781 361.917969 1187.703125 374.71875 1173.601562 386.398438 C 1154.816406 391.660156 1135.617188 392.460938 1116 388.800781 C 1107.265625 387.839844 1100.867188 383.839844 1096.800781 376.800781 C 1184.648438 394.5625 1218.25 360.960938 1197.601562 276 C 1196 269.601562 1194.398438 263.199219 1192.800781 256.800781 Z M 1192.800781 256.800781 "/>
<path style=" stroke:none;fill-rule:evenodd;fill:rgb(64.705882%,64.705882%,64.705882%);fill-opacity:1;" d="M 914.398438 386.398438 C 927.101562 383.210938 940.699219 381.609375 955.199219 381.601562 C 978.039062 380.957031 999.636719 384.15625 1020 391.199219 C 984.917969 387.609375 949.71875 386.007812 914.398438 386.398438 Z M 914.398438 386.398438 "/>
<path style=" stroke:none;fill-rule:evenodd;fill:rgb(98.039216%,98.039216%,98.039216%);fill-opacity:1;" d="M 914.398438 386.398438 C 949.71875 386.007812 984.917969 387.609375 1020 391.199219 C 1171.636719 426.839844 1262.035156 521.242188 1291.199219 674.398438 C 1300.929688 823.003906 1242.53125 935.804688 1116 1012.800781 C 958.359375 1084.949219 819.960938 1058.546875 700.800781 933.601562 C 597.222656 792.085938 595.617188 649.683594 696 506.398438 C 753.664062 437.984375 826.464844 397.984375 914.398438 386.398438 Z M 914.398438 386.398438 "/>
<path style=" stroke:none;fill-rule:evenodd;fill:rgb(0.784314%,0.784314%,0.784314%);fill-opacity:1;" d="M 924 487.199219 C 1019.890625 480.5 1095.894531 515.699219 1152 592.800781 C 1210.652344 704.285156 1195.453125 804.289062 1106.398438 892.800781 C 991.066406 973.65625 883.066406 964.859375 782.398438 866.398438 C 711.097656 769.996094 709.492188 672.398438 777.601562 573.601562 C 816.917969 527.972656 865.71875 499.171875 924 487.199219 Z M 924 487.199219 "/>
<path style=" stroke:none;fill-rule:evenodd;fill:rgb(98.823529%,98.823529%,98.823529%);fill-opacity:1;" d="M 832.800781 1077.601562 C 842.332031 1112.246094 837.53125 1144.246094 818.398438 1173.601562 C 814.53125 1179.496094 809.730469 1184.292969 804 1188 C 793.699219 1189.8125 783.296875 1191.417969 772.800781 1192.800781 C 755.539062 1188.507812 738.738281 1183.707031 722.398438 1178.398438 C 722.398438 1176.800781 722.398438 1175.199219 722.398438 1173.601562 C 701.425781 1125.328125 712.621094 1086.128906 756 1056 C 785.871094 1050.25 811.46875 1057.449219 832.800781 1077.601562 Z M 832.800781 1077.601562 "/>
<path style=" stroke:none;fill-rule:evenodd;fill:rgb(69.411765%,69.411765%,69.411765%);fill-opacity:1;" d="M 794.398438 1048.800781 C 808.359375 1052.578125 821.15625 1058.976562 832.800781 1068 C 832.800781 1071.203125 832.800781 1074.398438 832.800781 1077.601562 C 811.46875 1057.449219 785.871094 1050.25 756 1056 C 712.621094 1086.128906 701.425781 1125.328125 722.398438 1173.601562 C 698.117188 1149.371094 692.515625 1120.570312 705.601562 1087.199219 C 717.601562 1075.199219 729.601562 1063.199219 741.601562 1051.199219 C 759.128906 1048.804688 776.726562 1048.007812 794.398438 1048.800781 Z M 794.398438 1048.800781 "/>
<path style=" stroke:none;fill-rule:evenodd;fill:rgb(81.176471%,81.176471%,81.176471%);fill-opacity:1;" d="M 832.800781 1077.601562 C 837.601562 1079.199219 840.800781 1082.398438 842.398438 1087.199219 C 854.414062 1122.332031 846.417969 1151.132812 818.398438 1173.601562 C 837.53125 1144.246094 842.332031 1112.246094 832.800781 1077.601562 Z M 832.800781 1077.601562 "/>
<path style=" stroke:none;fill-rule:evenodd;fill:rgb(33.333333%,33.333333%,33.333333%);fill-opacity:1;" d="M 794.398438 1048.800781 C 776.726562 1048.007812 759.128906 1048.804688 741.601562 1051.199219 C 729.601562 1063.199219 717.601562 1075.199219 705.601562 1087.199219 C 692.515625 1120.570312 698.117188 1149.371094 722.398438 1173.601562 C 722.398438 1175.199219 722.398438 1176.800781 722.398438 1178.398438 C 713.417969 1176.675781 706.21875 1171.875 700.800781 1164 C 676.664062 1114.847656 687.066406 1075.644531 732 1046.398438 C 753.695312 1042.492188 774.5 1043.292969 794.398438 1048.800781 Z M 794.398438 1048.800781 "/>
<path style=" stroke:none;fill-rule:evenodd;fill:rgb(57.647059%,57.647059%,57.647059%);fill-opacity:1;" d="M 842.398438 1087.199219 C 849.4375 1091.265625 853.441406 1097.664062 854.398438 1106.398438 C 861.835938 1136.332031 853.035156 1160.332031 828 1178.398438 C 821.519531 1185.359375 813.523438 1188.5625 804 1188 C 809.730469 1184.292969 814.53125 1179.496094 818.398438 1173.601562 C 846.417969 1151.132812 854.414062 1122.332031 842.398438 1087.199219 Z M 842.398438 1087.199219 "/>
<path style=" stroke:none;fill-rule:evenodd;fill:rgb(33.333333%,33.333333%,33.333333%);fill-opacity:1;" d="M 832.800781 1068 C 844.011719 1075.21875 852.8125 1084.820312 859.199219 1096.800781 C 874.523438 1145.320312 859.320312 1179.71875 813.601562 1200 C 795.082031 1203.886719 777.484375 1203.085938 760.800781 1197.601562 C 777.65625 1200.265625 792.058594 1197.0625 804 1188 C 813.523438 1188.5625 821.519531 1185.359375 828 1178.398438 C 853.035156 1160.332031 861.835938 1136.332031 854.398438 1106.398438 C 853.441406 1097.664062 849.4375 1091.265625 842.398438 1087.199219 C 840.800781 1082.398438 837.601562 1079.199219 832.800781 1077.601562 C 832.800781 1074.398438 832.800781 1071.203125 832.800781 1068 Z M 832.800781 1068 "/>
<path style=" stroke:none;fill-rule:evenodd;fill:rgb(67.45098%,67.45098%,67.45098%);fill-opacity:1;" d="M 722.398438 1178.398438 C 738.738281 1183.707031 755.539062 1188.507812 772.800781 1192.800781 C 783.296875 1191.417969 793.699219 1189.8125 804 1188 C 792.058594 1197.0625 777.65625 1200.265625 760.800781 1197.601562 C 745.179688 1196.1875 732.378906 1189.789062 722.398438 1178.398438 Z M 722.398438 1178.398438 "/>
</g>
</svg>
