<?xml version="1.0" encoding="UTF-8"?>
<svg xmlns="http://www.w3.org/2000/svg" xmlns:xlink="http://www.w3.org/1999/xlink" width="1920pt" height="1440pt" viewBox="0 0 1920 1440" version="1.1">
<g id="surface1">
<path style=" stroke:none;fill-rule:evenodd;fill:rgb(0%,0%,0%);fill-opacity:1;" d="M -2.398438 -2.398438 C 637.597656 -2.398438 1277.601562 -2.398438 1917.601562 -2.398438 C 1917.601562 477.601562 1917.601562 957.601562 1917.601562 1437.601562 C 1277.601562 1437.601562 637.597656 1437.601562 -2.398438 1437.601562 C -2.398438 957.601562 -2.398438 477.601562 -2.398438 -2.398438 Z M -2.398438 -2.398438 "/>
<path style=" stroke:none;fill-rule:evenodd;fill:rgb(34.901961%,34.901961%,34.901961%);fill-opacity:1;" d="M 727.199219 295.199219 C 736.785156 304.863281 744.789062 316.0625 751.199219 328.800781 C 740.476562 320.136719 729.277344 311.335938 717.601562 302.398438 C 698.902344 296.320312 679.703125 293.921875 660 295.199219 C 671.496094 289.125 684.296875 285.925781 698.398438 285.601562 C 709.839844 284.933594 719.4375 288.132812 727.199219 295.199219 Z M 727.199219 295.199219 "/>
<path style=" stroke:none;fill-rule:evenodd;fill:rgb(23.137255%,23.137255%,23.137255%);fill-opacity:1;" d="M 727.199219 295.199219 C 767.136719 310.617188 780.738281 339.417969 768 381.601562 C 767.039062 390.335938 763.035156 396.734375 756 400.800781 C 758.601562 389.042969 760.199219 377.042969 760.800781 364.800781 C 761.761719 351.046875 758.558594 339.046875 751.199219 328.800781 C 744.789062 316.0625 736.785156 304.863281 727.199219 295.199219 Z M 727.199219 295.199219 "/>
<path style=" stroke:none;fill-rule:evenodd;fill:rgb(98.823529%,98.823529%,98.823529%);fill-opacity:1;" d="M 655.199219 309.601562 C 664.929688 308.820312 674.53125 309.621094 684 312 C 694.167969 322.28125 706.167969 329.484375 720 333.601562 C 735.574219 362.628906 739.574219 393.027344 732 424.800781 C 732 428 730.402344 429.601562 727.199219 429.601562 C 636.796875 446.425781 603.195312 411.226562 626.398438 324 C 633.855469 314.953125 643.453125 310.152344 655.199219 309.601562 Z M 655.199219 309.601562 "/>
<path style=" stroke:none;fill-rule:evenodd;fill:rgb(52.54902%,52.54902%,52.54902%);fill-opacity:1;" d="M 660 295.199219 C 679.703125 293.921875 698.902344 296.320312 717.601562 302.398438 C 729.277344 311.335938 740.476562 320.136719 751.199219 328.800781 C 758.558594 339.046875 761.761719 351.046875 760.800781 364.800781 C 760.199219 377.042969 758.601562 389.042969 756 400.800781 C 753.476562 409.105469 748.675781 415.503906 741.601562 420 C 743.199219 413.601562 744.800781 407.199219 746.398438 400.800781 C 760.980469 356.332031 746.582031 324.332031 703.199219 304.800781 C 686.199219 303.296875 670.199219 304.898438 655.199219 309.601562 C 643.453125 310.152344 633.855469 314.953125 626.398438 324 C 621.601562 327.199219 616.800781 330.398438 612 333.601562 C 619.683594 322.304688 629.285156 311.90625 640.800781 302.398438 C 646.777344 298.601562 653.175781 296.203125 660 295.199219 Z M 660 295.199219 "/>
<path style=" stroke:none;fill-rule:evenodd;fill:rgb(66.27451%,66.27451%,66.27451%);fill-opacity:1;" d="M 703.199219 304.800781 C 746.582031 324.332031 760.980469 356.332031 746.398438 400.800781 C 747.675781 381.097656 745.277344 361.894531 739.199219 343.199219 C 726.351562 331.152344 714.351562 318.351562 703.199219 304.800781 Z M 703.199219 304.800781 "/>
<path style=" stroke:none;fill-rule:evenodd;fill:rgb(43.137255%,43.137255%,43.137255%);fill-opacity:1;" d="M 612 333.601562 C 591.226562 422.816406 626.425781 458.015625 717.601562 439.199219 C 715.328125 445.949219 710.53125 449.152344 703.199219 448.800781 C 634.808594 463.554688 598.011719 436.351562 592.800781 367.199219 C 593.0625 352.25 599.460938 341.050781 612 333.601562 Z M 612 333.601562 "/>
<path style=" stroke:none;fill-rule:evenodd;fill:rgb(83.921569%,83.921569%,83.921569%);fill-opacity:1;" d="M 655.199219 309.601562 C 670.199219 304.898438 686.199219 303.296875 703.199219 304.800781 C 714.351562 318.351562 726.351562 331.152344 739.199219 343.199219 C 745.277344 361.894531 747.675781 381.097656 746.398438 400.800781 C 744.800781 407.199219 743.199219 413.601562 741.601562 420 C 738.398438 421.601562 735.203125 423.199219 732 424.800781 C 739.574219 393.027344 735.574219 362.628906 720 333.601562 C 706.167969 329.484375 694.167969 322.28125 684 312 C 674.53125 309.621094 664.929688 308.820312 655.199219 309.601562 Z M 655.199219 309.601562 "/>
<path style=" stroke:none;fill-rule:evenodd;fill:rgb(98.039216%,98.039216%,98.039216%);fill-opacity:1;" d="M 1264.800781 626.398438 C 1264.367188 639.128906 1267.566406 650.328125 1274.398438 660 C 1280.320312 698.160156 1280.320312 736.558594 1274.398438 775.199219 C 1267.566406 784.871094 1264.367188 796.070312 1264.800781 808.800781 C 1238.496094 889.527344 1188.894531 951.925781 1116 996 C 1108.671875 995.648438 1103.871094 998.851562 1101.601562 1005.601562 C 1084.441406 1012.707031 1066.839844 1019.105469 1048.800781 1024.800781 C 1037.289062 1023.644531 1027.691406 1026.84375 1020 1034.398438 C 979.976562 1040.601562 939.980469 1040.601562 900 1034.398438 C 890.328125 1027.566406 879.128906 1024.367188 866.398438 1024.800781 C 757.453125 989.457031 685.453125 917.457031 650.398438 808.800781 C 650.832031 796.070312 647.636719 784.871094 640.800781 775.199219 C 634.402344 736.800781 634.402344 698.398438 640.800781 660 C 647.636719 650.328125 650.832031 639.128906 650.398438 626.398438 C 685.597656 517.597656 757.597656 445.601562 866.398438 410.398438 C 879.128906 410.835938 890.328125 407.632812 900 400.800781 C 1065.8125 382.167969 1185.007812 447.769531 1257.601562 597.601562 C 1260.023438 607.285156 1262.425781 616.886719 1264.800781 626.398438 Z M 1264.800781 626.398438 "/>
<path style=" stroke:none;fill-rule:evenodd;fill:rgb(49.411765%,49.411765%,49.411765%);fill-opacity:1;" d="M 900 400.800781 C 890.328125 407.632812 879.128906 410.835938 866.398438 410.398438 C 876.070312 403.566406 887.269531 400.367188 900 400.800781 Z M 900 400.800781 "/>
<path style=" stroke:none;fill-rule:evenodd;fill:rgb(71.372549%,71.372549%,71.372549%);fill-opacity:1;" d="M 626.398438 324 C 603.195312 411.226562 636.796875 446.425781 727.199219 429.601562 C 725.601562 434.398438 722.398438 437.601562 717.601562 439.199219 C 626.425781 458.015625 591.226562 422.816406 612 333.601562 C 616.800781 330.398438 621.601562 327.199219 626.398438 324 Z M 626.398438 324 "/>
<path style=" stroke:none;fill-rule:evenodd;fill:rgb(20.784314%,20.784314%,20.784314%);fill-opacity:1;" d="M 592.800781 367.199219 C 598.011719 436.351562 634.808594 463.554688 703.199219 448.800781 C 673.054688 468 642.65625 467.199219 612 446.398438 C 589.496094 423.304688 583.09375 396.902344 592.800781 367.199219 Z M 592.800781 367.199219 "/>
<path style=" stroke:none;fill-rule:evenodd;fill:rgb(66.666667%,66.666667%,66.666667%);fill-opacity:1;" d="M 928.800781 540 C 939.886719 536.8125 951.886719 535.214844 964.800781 535.199219 C 983.0625 534.257812 999.863281 537.457031 1015.199219 544.800781 C 986.574219 540.925781 957.773438 539.328125 928.800781 540 Z M 928.800781 540 "/>
<path style=" stroke:none;fill-rule:evenodd;fill:rgb(0.784314%,0.784314%,0.784314%);fill-opacity:1;" d="M 928.800781 540 C 957.773438 539.328125 986.574219 540.925781 1015.199219 544.800781 C 1069.664062 569.664062 1108.863281 609.667969 1132.800781 664.800781 C 1135.171875 672.644531 1135.96875 680.644531 1135.199219 688.800781 C 1135.871094 717.773438 1134.273438 746.574219 1130.398438 775.199219 C 1106.398438 828 1068 866.398438 1015.199219 890.398438 C 988.175781 894.203125 960.972656 895.800781 933.601562 895.199219 C 882.945312 889.421875 842.144531 865.421875 811.199219 823.199219 C 802.804688 806.644531 794 790.640625 784.800781 775.199219 C 781 748.175781 779.398438 720.972656 780 693.601562 C 793.796875 607.804688 843.394531 556.601562 928.800781 540 Z M 928.800781 540 "/>
<path style=" stroke:none;fill-rule:evenodd;fill:rgb(44.705882%,44.705882%,44.705882%);fill-opacity:1;" d="M 650.398438 626.398438 C 650.832031 639.128906 647.636719 650.328125 640.800781 660 C 640.367188 647.269531 643.566406 636.070312 650.398438 626.398438 Z M 650.398438 626.398438 "/>
<path style=" stroke:none;fill-rule:evenodd;fill:rgb(44.705882%,44.705882%,44.705882%);fill-opacity:1;" d="M 1264.800781 626.398438 C 1271.636719 636.070312 1274.832031 647.269531 1274.398438 660 C 1267.566406 650.328125 1264.367188 639.128906 1264.800781 626.398438 Z M 1264.800781 626.398438 "/>
<path style=" stroke:none;fill-rule:evenodd;fill:rgb(67.45098%,67.45098%,67.45098%);fill-opacity:1;" d="M 780 693.601562 C 779.398438 720.972656 781 748.175781 784.800781 775.199219 C 777.507812 760.675781 774.3125 744.675781 775.199219 727.199219 C 775.214844 715.078125 776.816406 703.875 780 693.601562 Z M 780 693.601562 "/>
<path style=" stroke:none;fill-rule:evenodd;fill:rgb(67.45098%,67.45098%,67.45098%);fill-opacity:1;" d="M 1135.199219 688.800781 C 1138.386719 699.886719 1139.984375 711.886719 1140 724.800781 C 1140.941406 743.0625 1137.742188 759.863281 1130.398438 775.199219 C 1134.273438 746.574219 1135.871094 717.773438 1135.199219 688.800781 Z M 1135.199219 688.800781 "/>
<path style=" stroke:none;fill-rule:evenodd;fill:rgb(34.117647%,34.117647%,34.117647%);fill-opacity:1;" d="M 640.800781 775.199219 C 647.636719 784.871094 650.832031 796.070312 650.398438 808.800781 C 643.566406 799.128906 640.367188 787.929688 640.800781 775.199219 Z M 640.800781 775.199219 "/>
<path style=" stroke:none;fill-rule:evenodd;fill:rgb(34.117647%,34.117647%,34.117647%);fill-opacity:1;" d="M 1274.398438 775.199219 C 1274.832031 787.929688 1271.636719 799.128906 1264.800781 808.800781 C 1264.367188 796.070312 1267.566406 784.871094 1274.398438 775.199219 Z M 1274.398438 775.199219 "/>
<path style=" stroke:none;fill-rule:evenodd;fill:rgb(69.411765%,69.411765%,69.411765%);fill-opacity:1;" d="M 1015.199219 890.398438 C 1000.675781 897.691406 984.675781 900.886719 967.199219 900 C 955.078125 899.984375 943.875 898.382812 933.601562 895.199219 C 960.972656 895.800781 988.175781 894.203125 1015.199219 890.398438 Z M 1015.199219 890.398438 "/>
<path style=" stroke:none;fill-rule:evenodd;fill:rgb(48.627451%,48.627451%,48.627451%);fill-opacity:1;" d="M 1231.199219 981.601562 C 1297.863281 982.671875 1326.664062 1016.269531 1317.601562 1082.398438 C 1315.527344 1088.207031 1312.324219 1093.007812 1308 1096.800781 C 1317.671875 1064.519531 1312.871094 1034.917969 1293.601562 1008 C 1283.28125 1001.226562 1272.078125 997.222656 1260 996 C 1239.128906 989.980469 1218.328125 989.980469 1197.601562 996 C 1205.644531 984.796875 1216.84375 979.996094 1231.199219 981.601562 Z M 1231.199219 981.601562 "/>
<path style=" stroke:none;fill-rule:evenodd;fill:rgb(78.039216%,78.039216%,78.039216%);fill-opacity:1;" d="M 1260 996 C 1274.207031 1005.929688 1287.804688 1017.128906 1300.800781 1029.601562 C 1304.710938 1052.890625 1303.910156 1075.292969 1298.398438 1096.800781 C 1302.757812 1025.167969 1269.160156 993.96875 1197.601562 1003.199219 C 1191.816406 1009.804688 1185.417969 1015.402344 1178.398438 1020 C 1178.398438 1016.796875 1178.398438 1013.601562 1178.398438 1010.398438 C 1184.796875 1005.601562 1191.203125 1000.800781 1197.601562 996 C 1218.328125 989.980469 1239.128906 989.980469 1260 996 Z M 1260 996 "/>
<path style=" stroke:none;fill-rule:evenodd;fill:rgb(25.882353%,25.882353%,25.882353%);fill-opacity:1;" d="M 1231.199219 981.601562 C 1289.875 968.132812 1321.871094 992.132812 1327.199219 1053.601562 C 1327.867188 1065.039062 1324.664062 1074.636719 1317.601562 1082.398438 C 1326.664062 1016.269531 1297.863281 982.671875 1231.199219 981.601562 Z M 1231.199219 981.601562 "/>
<path style=" stroke:none;fill-rule:evenodd;fill:rgb(33.72549%,33.72549%,33.72549%);fill-opacity:1;" d="M 1116 996 C 1113.730469 1002.75 1108.929688 1005.949219 1101.601562 1005.601562 C 1103.871094 998.851562 1108.671875 995.648438 1116 996 Z M 1116 996 "/>
<path style=" stroke:none;fill-rule:evenodd;fill:rgb(98.039216%,98.039216%,98.039216%);fill-opacity:1;" d="M 1298.398438 1096.800781 C 1294.0625 1100.203125 1292.460938 1105.003906 1293.601562 1111.199219 C 1287.203125 1116 1280.796875 1120.800781 1274.398438 1125.601562 C 1256.726562 1126.390625 1239.128906 1125.59375 1221.601562 1123.199219 C 1212 1120 1205.601562 1113.601562 1202.398438 1104 C 1194.019531 1101.738281 1186.019531 1098.539062 1178.398438 1094.398438 C 1173.75 1071.664062 1172.144531 1048.464844 1173.601562 1024.800781 C 1173.601562 1021.597656 1175.199219 1020 1178.398438 1020 C 1185.417969 1015.402344 1191.816406 1009.804688 1197.601562 1003.199219 C 1269.160156 993.96875 1302.757812 1025.167969 1298.398438 1096.800781 Z M 1298.398438 1096.800781 "/>
<path style=" stroke:none;fill-rule:evenodd;fill:rgb(44.705882%,44.705882%,44.705882%);fill-opacity:1;" d="M 866.398438 1024.800781 C 879.128906 1024.367188 890.328125 1027.566406 900 1034.398438 C 887.269531 1034.832031 876.070312 1031.636719 866.398438 1024.800781 Z M 866.398438 1024.800781 "/>
<path style=" stroke:none;fill-rule:evenodd;fill:rgb(23.529412%,23.529412%,23.529412%);fill-opacity:1;" d="M 1048.800781 1024.800781 C 1041.109375 1032.355469 1031.511719 1035.558594 1020 1034.398438 C 1027.691406 1026.84375 1037.289062 1023.644531 1048.800781 1024.800781 Z M 1048.800781 1024.800781 "/>
<path style=" stroke:none;fill-rule:evenodd;fill:rgb(69.411765%,69.411765%,69.411765%);fill-opacity:1;" d="M 1173.601562 1024.800781 C 1172.144531 1048.464844 1173.75 1071.664062 1178.398438 1094.398438 C 1186.019531 1098.539062 1194.019531 1101.738281 1202.398438 1104 C 1205.601562 1113.601562 1212 1120 1221.601562 1123.199219 C 1239.128906 1125.59375 1256.726562 1126.390625 1274.398438 1125.601562 C 1271.199219 1128.800781 1268 1132 1264.800781 1135.199219 C 1245.859375 1140.128906 1226.660156 1140.929688 1207.199219 1137.601562 C 1200.277344 1135.789062 1195.476562 1131.792969 1192.800781 1125.601562 C 1190.136719 1114.902344 1183.734375 1106.902344 1173.601562 1101.601562 C 1165.398438 1078.175781 1162.996094 1054.175781 1166.398438 1029.601562 C 1168.238281 1026.929688 1170.636719 1025.332031 1173.601562 1024.800781 Z M 1173.601562 1024.800781 "/>
<path style=" stroke:none;fill-rule:evenodd;fill:rgb(23.137255%,23.137255%,23.137255%);fill-opacity:1;" d="M 1154.398438 1039.199219 C 1153.601562 1058.46875 1154.40625 1077.667969 1156.800781 1096.800781 C 1158.132812 1101.195312 1160.535156 1104.394531 1164 1106.398438 C 1168.382812 1117.609375 1174.785156 1128.003906 1183.199219 1137.601562 C 1203.605469 1143.335938 1224.40625 1145.734375 1245.601562 1144.800781 C 1186.46875 1160.886719 1152.867188 1138.484375 1144.800781 1077.601562 C 1143.777344 1063.070312 1146.972656 1050.273438 1154.398438 1039.199219 Z M 1154.398438 1039.199219 "/>
<path style=" stroke:none;fill-rule:evenodd;fill:rgb(49.019608%,49.019608%,49.019608%);fill-opacity:1;" d="M 1178.398438 1010.398438 C 1178.398438 1013.601562 1178.398438 1016.796875 1178.398438 1020 C 1175.199219 1020 1173.601562 1021.597656 1173.601562 1024.800781 C 1170.636719 1025.332031 1168.238281 1026.929688 1166.398438 1029.601562 C 1162.996094 1054.175781 1165.398438 1078.175781 1173.601562 1101.601562 C 1183.734375 1106.902344 1190.136719 1114.902344 1192.800781 1125.601562 C 1181.980469 1121.207031 1172.378906 1114.808594 1164 1106.398438 C 1160.535156 1104.394531 1158.132812 1101.195312 1156.800781 1096.800781 C 1154.40625 1077.667969 1153.601562 1058.46875 1154.398438 1039.199219 C 1158.925781 1026.675781 1166.929688 1017.078125 1178.398438 1010.398438 Z M 1178.398438 1010.398438 "/>
<path style=" stroke:none;fill-rule:evenodd;fill:rgb(61.960784%,61.960784%,61.960784%);fill-opacity:1;" d="M 1260 996 C 1272.078125 997.222656 1283.28125 1001.226562 1293.601562 1008 C 1312.871094 1034.917969 1317.671875 1064.519531 1308 1096.800781 C 1303.199219 1101.601562 1298.398438 1106.398438 1293.601562 1111.199219 C 1292.460938 1105.003906 1294.0625 1100.203125 1298.398438 1096.800781 C 1303.910156 1075.292969 1304.710938 1052.890625 1300.800781 1029.601562 C 1287.804688 1017.128906 1274.207031 1005.929688 1260 996 Z M 1260 996 "/>
<path style=" stroke:none;fill-rule:evenodd;fill:rgb(34.509804%,34.509804%,34.509804%);fill-opacity:1;" d="M 1164 1106.398438 C 1172.378906 1114.808594 1181.980469 1121.207031 1192.800781 1125.601562 C 1195.476562 1131.792969 1200.277344 1135.789062 1207.199219 1137.601562 C 1226.660156 1140.929688 1245.859375 1140.128906 1264.800781 1135.199219 C 1261.023438 1142.898438 1254.625 1146.101562 1245.601562 1144.800781 C 1224.40625 1145.734375 1203.605469 1143.335938 1183.199219 1137.601562 C 1174.785156 1128.003906 1168.382812 1117.609375 1164 1106.398438 Z M 1164 1106.398438 "/>
</g>
</svg>
