<?xml version="1.0" encoding="UTF-8"?>
<svg xmlns="http://www.w3.org/2000/svg" xmlns:xlink="http://www.w3.org/1999/xlink" width="1920pt" height="1440pt" viewBox="0 0 1920 1440" version="1.1">
<g id="surface1">
<path style=" stroke:none;fill-rule:evenodd;fill:rgb(0%,0%,0%);fill-opacity:1;" d="M -2.398438 -2.398438 C 637.597656 -2.398438 1277.601562 -2.398438 1917.601562 -2.398438 C 1917.601562 477.601562 1917.601562 957.601562 1917.601562 1437.601562 C 1277.601562 1437.601562 637.597656 1437.601562 -2.398438 1437.601562 C -2.398438 957.601562 -2.398438 477.601562 -2.398438 -2.398438 Z M -2.398438 -2.398438 "/>
<path style=" stroke:none;fill-rule:evenodd;fill:rgb(98.039216%,98.039216%,98.039216%);fill-opacity:1;" d="M 1034.398438 391.199219 C 1042.628906 397.144531 1052.226562 400.34375 1063.199219 400.800781 C 1162.507812 435.109375 1231.304688 500.707031 1269.601562 597.601562 C 1268.441406 609.109375 1271.644531 618.710938 1279.199219 626.398438 C 1296.351562 681.398438 1297.949219 737.394531 1284 794.398438 C 1278.058594 802.628906 1274.855469 812.226562 1274.398438 823.199219 C 1235.679688 930.71875 1162.078125 1002.71875 1053.601562 1039.199219 C 1040.871094 1038.769531 1029.671875 1041.964844 1020 1048.800781 C 973.0625 1056.390625 926.660156 1054.785156 880.800781 1044 C 868.105469 1035.3125 853.703125 1030.511719 837.601562 1029.601562 C 800.941406 1017.691406 768.941406 998.492188 741.601562 972 C 736.390625 961.980469 728.394531 955.585938 717.601562 952.800781 C 683.417969 914.855469 657.816406 871.65625 640.800781 823.199219 C 640.34375 812.226562 637.140625 802.628906 631.199219 794.398438 C 617.257812 737.34375 618.855469 681.34375 636 626.398438 C 643.554688 618.710938 646.757812 609.109375 645.601562 597.601562 C 657.9375 558.484375 678.734375 524.886719 708 496.800781 C 717.601562 490.402344 725.601562 482.398438 732 472.800781 C 793.558594 412.875 867.960938 382.476562 955.199219 381.601562 C 982.113281 381.527344 1008.511719 384.730469 1034.398438 391.199219 Z M 1034.398438 391.199219 "/>
<path style=" stroke:none;fill-rule:evenodd;fill:rgb(44.313725%,44.313725%,43.921569%);fill-opacity:1;" d="M 1034.398438 391.199219 C 1045.910156 390.046875 1055.511719 393.246094 1063.199219 400.800781 C 1052.226562 400.34375 1042.628906 397.144531 1034.398438 391.199219 Z M 1034.398438 391.199219 "/>
<path style=" stroke:none;fill-rule:evenodd;fill:rgb(24.313725%,24.313725%,24.313725%);fill-opacity:1;" d="M 1375.199219 429.601562 C 1354.714844 425.410156 1333.910156 423.8125 1312.800781 424.800781 C 1334.824219 411.140625 1355.625 412.742188 1375.199219 429.601562 Z M 1375.199219 429.601562 "/>
<path style=" stroke:none;fill-rule:evenodd;fill:rgb(56.862745%,56.862745%,56.862745%);fill-opacity:1;" d="M 1312.800781 424.800781 C 1333.910156 423.8125 1354.714844 425.410156 1375.199219 429.601562 C 1386.019531 432.59375 1394.019531 438.992188 1399.199219 448.800781 C 1387.882812 449.988281 1378.28125 446.789062 1370.398438 439.199219 C 1353.714844 433.710938 1336.117188 432.914062 1317.601562 436.800781 C 1307.015625 448.992188 1295.015625 459.394531 1281.601562 468 C 1279.28125 472.550781 1278.484375 477.351562 1279.199219 482.398438 C 1274.5 497.398438 1272.898438 513.398438 1274.398438 530.398438 C 1270.378906 528.757812 1268.773438 525.5625 1269.601562 520.800781 C 1268.324219 501.097656 1270.722656 481.894531 1276.800781 463.199219 C 1286.535156 447.878906 1298.535156 435.078125 1312.800781 424.800781 Z M 1312.800781 424.800781 "/>
<path style=" stroke:none;fill-rule:evenodd;fill:rgb(98.039216%,98.039216%,98.039216%);fill-opacity:1;" d="M 1370.398438 439.199219 C 1378.28125 446.789062 1387.882812 449.988281 1399.199219 448.800781 C 1400.34375 457.941406 1405.140625 464.339844 1413.601562 468 C 1417.621094 469.640625 1419.226562 472.839844 1418.398438 477.601562 C 1420.019531 495.878906 1417.617188 513.476562 1411.199219 530.398438 C 1396.175781 540.613281 1382.578125 552.613281 1370.398438 566.398438 C 1343.617188 571.179688 1318.019531 568.78125 1293.601562 559.199219 C 1284.882812 551.433594 1278.484375 541.832031 1274.398438 530.398438 C 1272.898438 513.398438 1274.5 497.398438 1279.199219 482.398438 C 1301.558594 451.222656 1331.957031 436.824219 1370.398438 439.199219 Z M 1370.398438 439.199219 "/>
<path style=" stroke:none;fill-rule:evenodd;fill:rgb(56.862745%,56.862745%,56.862745%);fill-opacity:1;" d="M 1399.199219 448.800781 C 1407.65625 452.460938 1412.457031 458.859375 1413.601562 468 C 1405.140625 464.339844 1400.34375 457.941406 1399.199219 448.800781 Z M 1399.199219 448.800781 "/>
<path style=" stroke:none;fill-rule:evenodd;fill:rgb(26.666667%,26.666667%,26.666667%);fill-opacity:1;" d="M 1312.800781 424.800781 C 1298.535156 435.078125 1286.535156 447.878906 1276.800781 463.199219 C 1270.722656 481.894531 1268.324219 501.097656 1269.601562 520.800781 C 1257.886719 486.378906 1265.890625 456.78125 1293.601562 432 C 1299.574219 428.203125 1305.972656 425.800781 1312.800781 424.800781 Z M 1312.800781 424.800781 "/>
<path style=" stroke:none;fill-rule:evenodd;fill:rgb(80%,80%,80%);fill-opacity:1;" d="M 1370.398438 439.199219 C 1331.957031 436.824219 1301.558594 451.222656 1279.199219 482.398438 C 1278.484375 477.351562 1279.28125 472.550781 1281.601562 468 C 1295.015625 459.394531 1307.015625 448.992188 1317.601562 436.800781 C 1336.117188 432.914062 1353.714844 433.710938 1370.398438 439.199219 Z M 1370.398438 439.199219 "/>
<path style=" stroke:none;fill-rule:evenodd;fill:rgb(61.960784%,61.960784%,61.960784%);fill-opacity:1;" d="M 732 472.800781 C 725.601562 482.398438 717.601562 490.402344 708 496.800781 C 711.203125 484 719.199219 476 732 472.800781 Z M 732 472.800781 "/>
<path style=" stroke:none;fill-rule:evenodd;fill:rgb(69.803922%,69.803922%,69.803922%);fill-opacity:1;" d="M 1005.601562 501.601562 C 966.820312 494.503906 928.421875 496.109375 890.398438 506.398438 C 910.195312 496.066406 931.796875 491.265625 955.199219 492 C 973.355469 491.417969 990.152344 494.621094 1005.601562 501.601562 Z M 1005.601562 501.601562 "/>
<path style=" stroke:none;fill-rule:evenodd;fill:rgb(0.784314%,0.784314%,0.784314%);fill-opacity:1;" d="M 1005.601562 501.601562 C 1035.625 511.8125 1064.425781 524.617188 1092 540 C 1100 551.199219 1109.601562 560.796875 1120.800781 568.800781 C 1142.851562 592.449219 1158.847656 619.652344 1168.800781 650.398438 C 1179.089844 688.421875 1180.695312 726.820312 1173.601562 765.601562 C 1148 852 1092 908 1005.601562 933.601562 C 980.136719 936.929688 954.539062 938.535156 928.800781 938.398438 C 927.203125 938.398438 925.597656 938.398438 924 938.398438 C 914.328125 931.566406 903.128906 928.367188 890.398438 928.800781 C 814.109375 898.902344 764.511719 844.503906 741.601562 765.601562 C 738.269531 740.136719 736.664062 714.539062 736.800781 688.800781 C 736.800781 687.203125 736.800781 685.597656 736.800781 684 C 743.636719 674.328125 746.832031 663.128906 746.398438 650.398438 C 770.230469 578.566406 818.230469 530.566406 890.398438 506.398438 C 928.421875 496.109375 966.820312 494.503906 1005.601562 501.601562 Z M 1005.601562 501.601562 "/>
<path style=" stroke:none;fill-rule:evenodd;fill:rgb(66.27451%,66.27451%,66.27451%);fill-opacity:1;" d="M 1092 540 C 1106.398438 544.800781 1116 554.398438 1120.800781 568.800781 C 1109.601562 560.796875 1100 551.199219 1092 540 Z M 1092 540 "/>
<path style=" stroke:none;fill-rule:evenodd;fill:rgb(39.215686%,39.215686%,39.215686%);fill-opacity:1;" d="M 1423.199219 487.199219 C 1434.570312 563.027344 1400.972656 595.824219 1322.398438 585.601562 C 1315.476562 583.789062 1310.679688 579.792969 1308 573.601562 C 1333.914062 580.769531 1359.511719 579.96875 1384.800781 571.199219 C 1396.914062 559.460938 1408.113281 546.664062 1418.398438 532.800781 C 1422.5625 517.894531 1424.164062 502.695312 1423.199219 487.199219 Z M 1423.199219 487.199219 "/>
<path style=" stroke:none;fill-rule:evenodd;fill:rgb(69.411765%,69.411765%,69.411765%);fill-opacity:1;" d="M 1418.398438 477.601562 C 1422.421875 479.238281 1424.027344 482.4375 1423.199219 487.199219 C 1424.164062 502.695312 1422.5625 517.894531 1418.398438 532.800781 C 1408.113281 546.664062 1396.914062 559.460938 1384.800781 571.199219 C 1359.511719 579.96875 1333.914062 580.769531 1308 573.601562 C 1301.601562 570.398438 1296.800781 565.597656 1293.601562 559.199219 C 1318.019531 568.78125 1343.617188 571.179688 1370.398438 566.398438 C 1382.578125 552.613281 1396.175781 540.613281 1411.199219 530.398438 C 1417.617188 513.476562 1420.019531 495.878906 1418.398438 477.601562 Z M 1418.398438 477.601562 "/>
<path style=" stroke:none;fill-rule:evenodd;fill:rgb(68.235294%,68.235294%,68.235294%);fill-opacity:1;" d="M 645.601562 597.601562 C 646.757812 609.109375 643.554688 618.710938 636 626.398438 C 634.84375 614.890625 638.042969 605.289062 645.601562 597.601562 Z M 645.601562 597.601562 "/>
<path style=" stroke:none;fill-rule:evenodd;fill:rgb(68.235294%,68.235294%,68.235294%);fill-opacity:1;" d="M 1269.601562 597.601562 C 1277.15625 605.289062 1280.355469 614.890625 1279.199219 626.398438 C 1271.644531 618.710938 1268.441406 609.109375 1269.601562 597.601562 Z M 1269.601562 597.601562 "/>
<path style=" stroke:none;fill-rule:evenodd;fill:rgb(55.686275%,55.686275%,55.686275%);fill-opacity:1;" d="M 746.398438 650.398438 C 746.832031 663.128906 743.636719 674.328125 736.800781 684 C 736.367188 671.269531 739.566406 660.070312 746.398438 650.398438 Z M 746.398438 650.398438 "/>
<path style=" stroke:none;fill-rule:evenodd;fill:rgb(71.764706%,71.764706%,71.764706%);fill-opacity:1;" d="M 1168.800781 650.398438 C 1179.132812 670.195312 1183.933594 691.796875 1183.199219 715.199219 C 1183.78125 733.355469 1180.578125 750.152344 1173.601562 765.601562 C 1180.695312 726.820312 1179.089844 688.421875 1168.800781 650.398438 Z M 1168.800781 650.398438 "/>
<path style=" stroke:none;fill-rule:evenodd;fill:rgb(77.647059%,77.647059%,77.647059%);fill-opacity:1;" d="M 736.800781 688.800781 C 736.664062 714.539062 738.269531 740.136719 741.601562 765.601562 C 734.371094 751.890625 731.175781 736.691406 732 720 C 732.019531 708.667969 733.617188 698.269531 736.800781 688.800781 Z M 736.800781 688.800781 "/>
<path style=" stroke:none;fill-rule:evenodd;fill:rgb(44.313725%,44.313725%,43.921569%);fill-opacity:1;" d="M 631.199219 794.398438 C 637.140625 802.628906 640.34375 812.226562 640.800781 823.199219 C 633.246094 815.511719 630.042969 805.910156 631.199219 794.398438 Z M 631.199219 794.398438 "/>
<path style=" stroke:none;fill-rule:evenodd;fill:rgb(44.313725%,44.313725%,43.921569%);fill-opacity:1;" d="M 1284 794.398438 C 1285.15625 805.910156 1281.957031 815.511719 1274.398438 823.199219 C 1274.855469 812.226562 1278.058594 802.628906 1284 794.398438 Z M 1284 794.398438 "/>
<path style=" stroke:none;fill-rule:evenodd;fill:rgb(26.666667%,26.666667%,26.666667%);fill-opacity:1;" d="M 592.800781 852 C 572 852 551.199219 852 530.398438 852 C 530.933594 849.039062 532.53125 846.636719 535.199219 844.800781 C 543.203125 844 551.199219 843.203125 559.199219 842.398438 C 572.183594 841.515625 583.382812 844.71875 592.800781 852 Z M 592.800781 852 "/>
<path style=" stroke:none;fill-rule:evenodd;fill:rgb(28.235294%,28.235294%,28.235294%);fill-opacity:1;" d="M 530.398438 852 C 522.589844 862.222656 513.792969 871.824219 504 880.800781 C 501.679688 885.351562 500.886719 890.152344 501.601562 895.199219 C 493.359375 911.257812 490.15625 928.851562 492 948 C 477.519531 905.039062 490.320312 873.039062 530.398438 852 Z M 530.398438 852 "/>
<path style=" stroke:none;fill-rule:evenodd;fill:rgb(43.921569%,43.921569%,43.921569%);fill-opacity:1;" d="M 530.398438 852 C 551.199219 852 572 852 592.800781 852 C 611.660156 856.46875 624.457031 867.667969 631.199219 885.601562 C 624.800781 880.800781 618.398438 876 612 871.199219 C 567.527344 845.257812 530.726562 853.253906 501.601562 895.199219 C 500.886719 890.152344 501.679688 885.351562 504 880.800781 C 513.792969 871.824219 522.589844 862.222656 530.398438 852 Z M 530.398438 852 "/>
<path style=" stroke:none;fill-rule:evenodd;fill:rgb(97.647059%,97.647059%,97.647059%);fill-opacity:1;" d="M 612 871.199219 C 618.398438 876 624.800781 880.800781 631.199219 885.601562 C 635.523438 889.390625 638.726562 894.191406 640.800781 900 C 644.742188 968.855469 612.738281 1001.65625 544.800781 998.398438 C 531.316406 992.050781 518.519531 984.847656 506.398438 976.800781 C 505.632812 968.867188 502.433594 962.46875 496.800781 957.601562 C 498.070312 879.546875 536.472656 850.746094 612 871.199219 Z M 612 871.199219 "/>
<path style=" stroke:none;fill-rule:evenodd;fill:rgb(68.235294%,68.235294%,67.843137%);fill-opacity:1;" d="M 612 871.199219 C 536.472656 850.746094 498.070312 879.546875 496.800781 957.601562 C 492.777344 955.957031 491.175781 952.761719 492 948 C 490.15625 928.851562 493.359375 911.257812 501.601562 895.199219 C 530.726562 853.253906 567.527344 845.257812 612 871.199219 Z M 612 871.199219 "/>
<path style=" stroke:none;fill-rule:evenodd;fill:rgb(55.686275%,55.686275%,55.686275%);fill-opacity:1;" d="M 890.398438 928.800781 C 903.128906 928.367188 914.328125 931.566406 924 938.398438 C 911.269531 938.832031 900.070312 935.636719 890.398438 928.800781 Z M 890.398438 928.800781 "/>
<path style=" stroke:none;fill-rule:evenodd;fill:rgb(77.647059%,77.647059%,77.647059%);fill-opacity:1;" d="M 1005.601562 933.601562 C 991.890625 940.828125 976.691406 944.027344 960 943.199219 C 948.667969 943.179688 938.269531 941.582031 928.800781 938.398438 C 954.539062 938.535156 980.136719 936.929688 1005.601562 933.601562 Z M 1005.601562 933.601562 "/>
<path style=" stroke:none;fill-rule:evenodd;fill:rgb(57.254902%,57.254902%,57.254902%);fill-opacity:1;" d="M 717.601562 952.800781 C 728.394531 955.585938 736.390625 961.980469 741.601562 972 C 730.804688 969.214844 722.808594 962.816406 717.601562 952.800781 Z M 717.601562 952.800781 "/>
<path style=" stroke:none;fill-rule:evenodd;fill:rgb(56.078431%,56.078431%,56.078431%);fill-opacity:1;" d="M 640.800781 900 C 645.527344 919.84375 647.125 940.644531 645.601562 962.398438 C 631.070312 980.132812 615.070312 996.128906 597.601562 1010.398438 C 558.910156 1019.230469 528.511719 1008.035156 506.398438 976.800781 C 518.519531 984.847656 531.316406 992.050781 544.800781 998.398438 C 612.738281 1001.65625 644.742188 968.855469 640.800781 900 Z M 640.800781 900 "/>
<path style=" stroke:none;fill-rule:evenodd;fill:rgb(26.666667%,26.666667%,26.666667%);fill-opacity:1;" d="M 645.601562 962.398438 C 639.730469 975.714844 632.53125 988.515625 624 1000.800781 C 616.398438 1007.332031 607.59375 1010.535156 597.601562 1010.398438 C 615.070312 996.128906 631.070312 980.132812 645.601562 962.398438 Z M 645.601562 962.398438 "/>
<path style=" stroke:none;fill-rule:evenodd;fill:rgb(63.529412%,63.529412%,63.137255%);fill-opacity:1;" d="M 837.601562 1029.601562 C 853.703125 1030.511719 868.105469 1035.3125 880.800781 1044 C 864.402344 1043.867188 850.003906 1039.066406 837.601562 1029.601562 Z M 837.601562 1029.601562 "/>
<path style=" stroke:none;fill-rule:evenodd;fill:rgb(24.705882%,24.705882%,24.705882%);fill-opacity:1;" d="M 1053.601562 1039.199219 C 1043.929688 1046.035156 1032.730469 1049.230469 1020 1048.800781 C 1029.671875 1041.964844 1040.871094 1038.769531 1053.601562 1039.199219 Z M 1053.601562 1039.199219 "/>
</g>
</svg>
